<svg width="320" height="180" viewBox="0 0 320 180" fill="none" xmlns="http://www.w3.org/2000/svg">
<g clip-path="url(#clip0_4_48)">
<rect width="320" height="180" fill="white"/>
<g clip-path="url(#clip1_4_48)">
<rect width="320" height="188" fill="white"/>
<rect width="1297" height="853" fill="#FFD41C"/>
<path d="M149.678 80.7007C137.847 80.7007 129.177 89.3705 129.177 101.292V104.723C129.177 110.684 131.254 115.741 135.228 119.444C138.931 122.876 144.078 124.772 149.587 124.772C156.09 124.772 162.14 122.244 165.753 117.999C166.927 116.644 166.746 114.657 165.392 113.574C164.037 112.4 162.05 112.58 160.966 113.935C158.438 116.825 154.193 118.541 149.587 118.541C142.995 118.541 136.312 114.748 135.499 106.439H165.03C167.74 106.439 169.997 104.181 169.997 101.472V100.659C170.178 88.919 161.779 80.7007 149.678 80.7007ZM135.589 100.117C136.131 92.3508 141.73 87.0224 149.678 87.0224C156.631 87.0224 163.585 91.0864 163.856 100.117H135.589Z" fill="#ec3e75"/>
<path d="M229.964 80.7007C217.772 80.7007 207.928 90.6349 207.928 102.736C207.928 114.928 217.862 124.772 229.964 124.772C242.065 124.772 251.999 114.838 251.999 102.736C252.09 90.6349 242.155 80.7007 229.964 80.7007ZM234.66 117.818C233.215 118.27 231.589 118.541 229.964 118.541C228.338 118.541 226.803 118.27 225.267 117.818C218.855 115.832 214.249 109.871 214.249 102.736C214.249 95.6922 218.855 89.7317 225.267 87.6546C226.712 87.203 228.338 86.9321 229.964 86.9321C231.589 86.9321 233.124 87.203 234.66 87.6546C241.072 89.6414 245.678 95.6019 245.678 102.736C245.678 109.871 241.072 115.832 234.66 117.818Z" fill="#ec3e75"/>
<path d="M217.14 66.7029C217.14 64.987 215.695 63.542 213.979 63.542C198.084 63.542 186.163 75.463 186.163 91.3577V103.459C186.163 105.175 187.608 106.62 189.324 106.62C191.04 106.62 192.485 105.175 192.485 103.459V91.3577C192.485 78.8948 201.516 69.8637 213.979 69.8637C215.785 69.8637 217.14 68.4188 217.14 66.7029Z" fill="#ec3e75"/>
<path d="M190.407 66.7027C190.407 64.6256 188.782 63 186.705 63C184.718 63 183.002 64.6256 183.002 66.7027C183.002 68.7799 184.628 70.4055 186.705 70.4055C188.692 70.4055 190.407 68.7799 190.407 66.7027Z" fill="#ec3e75"/>
<path d="M132.248 66.3412C131.977 64.6253 130.351 63.3609 128.635 63.6319C120.507 64.8059 117.075 70.0439 113.373 76.9075L101.723 98.4918C100.819 99.9367 100.548 100.027 100.187 100.117C99.826 100.117 99.4647 100.027 98.6519 98.4918L86.9116 76.9075C83.2088 70.0439 79.777 64.8059 71.6491 63.6319C69.9332 63.3609 68.3076 64.6253 68.0366 66.3412C67.7657 68.0571 69.0301 69.6827 70.746 69.9536C75.4421 70.5858 77.6096 73.1145 81.222 79.9781L92.9624 101.653C92.9624 101.653 92.9624 101.743 93.0527 101.743C94.4073 104.001 96.2136 106.349 99.826 106.529C99.826 106.529 99.826 106.529 99.9163 106.529C100.007 106.529 100.007 106.529 100.097 106.529H100.187H100.278C100.368 106.529 100.368 106.529 100.458 106.529C100.458 106.529 100.458 106.529 100.548 106.529C104.161 106.349 105.967 104.001 107.322 101.743C107.322 101.743 107.322 101.653 107.412 101.653L119.152 79.9781C122.855 73.2048 124.932 70.6761 129.628 69.9536C131.344 69.6827 132.518 68.0571 132.248 66.3412Z" fill="#ec3e75"/>
<path d="M245.678 102.737V103.369" stroke="#0000FF" stroke-width="0.34" stroke-miterlimit="10"/>
<path d="M252 102.737V103.369" stroke="#0000FF" stroke-width="0.34" stroke-miterlimit="10"/>
</g>
</g>
<defs>
<clipPath id="clip0_4_48">
<rect width="320" height="180" fill="white"/>
</clipPath>
<clipPath id="clip1_4_48">
<rect width="320" height="188" fill="white"/>
</clipPath>
</defs>
</svg>
