<svg width="320" height="180" viewBox="0 0 320 180" fill="none" xmlns="http://www.w3.org/2000/svg">
<rect width="320" height="180" fill="url(#paint0_linear_201_85)"/>
<g clip-path="url(#clip0_201_85)">
<path d="M160.215 54C156.544 54 153.568 56.9792 153.568 60.6537C153.568 64.3281 156.544 67.3089 160.215 67.3089C163.885 67.3089 166.862 64.3297 166.862 60.6537C166.862 56.9777 163.885 54 160.215 54ZM163.814 61.2513L158.805 64.107C158.328 64.4242 157.691 64.0811 157.691 63.5094V57.7995C157.691 57.2262 158.328 56.8847 158.805 57.2018L163.814 60.0575C164.242 60.3411 164.242 60.9678 163.814 61.2513Z" fill="white"/>
<path d="M160.215 80.4319C160.195 80.4319 160.177 80.4319 160.157 80.4335C155.251 80.4441 150.673 81.8484 146.797 84.2726C146.718 84.3229 146.638 84.3732 146.561 84.4235C146.463 84.486 146.361 84.5394 146.253 84.5745C146.095 84.6248 145.926 84.6522 145.751 84.6522H145.748C145.537 84.6522 145.332 84.5943 145.144 84.5013C145 84.4266 144.853 84.3519 144.71 84.2772C144.272 84.0485 143.839 83.8106 143.413 83.5621C141.576 82.4963 139.849 81.2598 138.254 79.8785C134.989 77.0426 132.275 73.5877 130.298 69.6937C130.254 69.6083 130.211 69.5229 130.168 69.4375C130.098 69.2637 130.06 69.0731 130.057 68.8734C130.043 67.98 130.817 67.2466 131.711 67.2466H137.074C137.561 67.2466 138 67.4661 138.292 67.8122C138.381 67.9662 138.472 68.1187 138.565 68.2696C139.887 70.4347 141.524 72.3863 143.413 74.0603C143.917 74.5071 144.438 74.934 144.977 75.3395C149.22 78.5368 154.496 80.4319 160.215 80.4319V80.4319Z" fill="white"/>
<path opacity="0.8" d="M182.176 79.8782C180.563 81.2763 178.816 82.5235 176.956 83.5969C176.521 83.8485 176.079 84.0909 175.631 84.3226L175.33 84.4781C175.119 84.5849 174.889 84.652 174.653 84.652H174.643C174.353 84.652 174.072 84.5529 173.826 84.3973L173.535 84.2113H173.534C169.679 81.8252 165.137 80.4439 160.274 80.4332C160.254 80.4317 160.236 80.4317 160.216 80.4317C154.497 80.4317 149.221 78.5365 144.978 75.3393C149.55 73.0019 154.73 71.6831 160.216 71.6831C165.702 71.6831 170.882 73.0019 175.454 75.3393C175.963 75.6 176.464 75.8729 176.958 76.158C178.817 77.2314 180.564 78.4786 182.177 79.8782H182.176Z" fill="white"/>
<path d="M190.373 68.8487C190.373 69.0576 190.333 69.2558 190.26 69.4372C190.218 69.5226 190.176 69.608 190.132 69.6918C188.155 73.5859 185.441 77.0408 182.174 79.8767C180.561 78.4785 178.815 77.2313 176.955 76.1565C176.461 75.8713 175.96 75.5984 175.452 75.3377C175.968 74.9489 176.471 74.5388 176.955 74.1103C178.869 72.4256 180.528 70.4557 181.864 68.2663C181.957 68.1153 182.046 67.9644 182.135 67.8104C182.135 67.8104 182.135 67.8089 182.136 67.8074C182.429 67.4613 182.867 67.2417 183.356 67.2417H188.772C189.656 67.2417 190.373 67.9583 190.373 68.8441V68.8487Z" fill="white"/>
<path d="M181.414 96.3706V99.243C181.414 101.667 179.451 103.633 177.029 103.633H172.645C171.807 103.633 171.129 104.313 171.129 105.15V124.228C171.129 125.066 170.45 125.745 169.614 125.745H162.359C161.522 125.745 160.844 125.065 160.844 124.228V105.15C160.844 104.311 160.165 103.633 159.329 103.633H154.944C152.522 103.633 150.559 101.667 150.559 99.243V96.3706C150.559 95.532 151.238 94.8535 152.074 94.8535H179.903C180.741 94.8535 181.419 95.5335 181.419 96.3706H181.414Z" fill="white"/>
<path d="M240.714 96.3921V124.191C240.714 125.016 240.047 125.684 239.223 125.684H235.589C234.174 125.684 232.892 125.109 231.966 124.181C231.038 123.252 230.464 121.97 230.464 120.554V116.916C230.464 116.091 229.797 115.423 228.973 115.423H221.705C220.881 115.423 220.214 116.091 220.214 116.916V120.554C220.214 123.388 217.92 125.684 215.089 125.684H211.455C210.631 125.684 209.964 125.016 209.964 124.191V96.3921C209.964 95.5672 210.631 94.8994 211.455 94.8994H215.089C216.504 94.8994 217.786 95.4742 218.712 96.4027C219.64 97.3313 220.214 98.6135 220.214 100.03V103.668C220.214 104.493 220.881 105.16 221.705 105.16H228.973C229.797 105.16 230.464 104.493 230.464 103.668V100.03C230.464 98.6135 231.038 97.3297 231.966 96.4027C232.893 95.4742 234.174 94.8994 235.589 94.8994H239.223C240.047 94.8994 240.714 95.5672 240.714 96.3921V96.3921Z" fill="white"/>
<path d="M192.248 106.701C191.32 107.63 190.746 108.912 190.746 110.329C190.746 111.745 191.319 113.027 192.248 113.956C193.175 114.884 194.456 115.459 195.871 115.459H200.996C202.411 115.459 203.692 116.032 204.619 116.963C205.547 117.891 206.121 119.173 206.121 120.59V124.214C206.121 125.039 205.453 125.707 204.63 125.707L195.871 125.72C194.074 125.72 192.348 125.411 190.746 124.844C186.378 123.298 182.915 119.832 181.37 115.458C180.804 113.854 180.494 112.126 180.494 110.327C180.494 108.528 180.804 106.801 181.37 105.197C182.142 103.01 183.394 101.05 185 99.4441C186.605 97.8371 188.562 96.5853 190.746 95.8108C192.348 95.2436 194.074 94.9341 195.871 94.9341H204.63C205.453 94.9341 206.121 95.6019 206.121 96.4267V100.065C206.121 102.897 203.826 105.195 200.996 105.195H195.871C194.456 105.195 193.174 105.768 192.248 106.698V106.701Z" fill="white"/>
<path d="M156.572 124.322C156.572 125.106 155.934 125.746 155.152 125.746H149.179C147.138 125.746 145.374 124.557 144.543 122.834L144.54 122.828L144.458 122.65L144.45 122.633V122.63L144.436 122.599L144.031 121.718L141.157 115.441L139.715 112.288C139.389 111.578 138.381 111.578 138.055 112.288L136.611 115.441L133.737 121.718L133.333 122.599L133.319 122.63V122.633L133.31 122.65L133.228 122.828V122.834C132.809 123.696 132.16 124.425 131.361 124.937C130.561 125.449 129.611 125.746 128.589 125.746H122.701C121.968 125.746 121.316 125.225 121.213 124.499C121.194 124.37 121.191 124.243 121.201 124.121C121.216 123.946 121.272 123.778 121.35 123.621L134.299 97.636C135.152 95.9696 136.883 94.8291 138.883 94.8291C140.883 94.8291 142.615 95.9696 143.466 97.636L143.522 97.7473L156.412 123.613C156.515 123.822 156.57 124.051 156.57 124.284V124.322H156.572Z" fill="white"/>
<path d="M130.392 96.3263C130.392 96.5611 130.337 96.7929 130.232 97.0033L117.157 123.005C116.919 123.443 116.621 123.842 116.272 124.191C115.343 125.121 114.058 125.698 112.638 125.698C111.604 125.698 110.641 125.391 109.836 124.865C109.536 124.67 109.257 124.443 109.004 124.191C108.628 123.813 108.308 123.376 108.061 122.895L105.574 117.914C105.216 117.198 104.194 117.196 103.833 117.913L101.273 123.005C101.035 123.443 100.735 123.842 100.388 124.191C100.135 124.443 99.8566 124.67 99.5566 124.865C98.7509 125.391 97.7883 125.698 96.7542 125.698C95.3347 125.698 94.0492 125.121 93.1202 124.191C92.7425 123.813 92.4226 123.376 92.1774 122.895L79.096 96.706C79.0381 96.5886 79 96.459 79 96.3279C79 95.5 79.6686 94.8291 80.4956 94.8291H86.4751C87.5093 94.8291 88.4718 95.1356 89.2791 95.6616C89.5791 95.8567 89.8563 96.0839 90.1091 96.337C90.4868 96.7136 90.8067 97.1512 91.0519 97.6314L95.883 107.304C96.2424 108.022 97.2659 108.022 97.6238 107.304L98.9489 104.651L95.0636 96.8722C94.596 95.933 95.2768 94.8291 96.3247 94.8291H102.361C102.845 94.8291 103.314 94.8962 103.759 95.0227C104.616 95.2652 105.382 95.7241 105.995 96.337C106.372 96.7136 106.691 97.1512 106.937 97.6314L111.768 107.304C112.126 108.022 113.15 108.022 113.509 107.304L114.601 105.119L118.34 97.6314C118.75 96.831 119.364 96.151 120.113 95.6616C120.92 95.1356 121.883 94.8291 122.917 94.8291H128.897C129.724 94.8291 130.392 95.5 130.392 96.3263V96.3263Z" fill="white"/>
</g>
<defs>
<linearGradient id="paint0_linear_201_85" x1="246.294" y1="21.5621" x2="133.643" y2="258.243" gradientUnits="userSpaceOnUse">
<stop offset="0.0406406" stop-color="#FD4716"/>
<stop offset="0.802083" stop-color="#EF426F"/>
</linearGradient>
<clipPath id="clip0_201_85">
<rect width="161.714" height="71.7465" fill="white" transform="translate(79 54)"/>
</clipPath>
</defs>
</svg>
