<svg width="28" height="30" viewBox="0 0 28 30" fill="none" xmlns="http://www.w3.org/2000/svg">
<path d="M12.005 5.25967L2.12336 22.14C1.91962 22.501 1.81182 22.9103 1.81068 23.3272C1.80954 23.7441 1.9151 24.1541 2.11686 24.5163C2.31861 24.8785 2.60954 25.1803 2.96068 25.3917C3.31183 25.6031 3.71096 25.7168 4.11836 25.7214H23.8817C24.2891 25.7168 24.6882 25.6031 25.0394 25.3917C25.3905 25.1803 25.6814 24.8785 25.8832 24.5163C26.085 24.1541 26.1905 23.7441 26.1894 23.3272C26.1882 22.9103 26.0804 22.501 25.8767 22.14L15.995 5.25967C15.787 4.90882 15.4942 4.61875 15.1448 4.41743C14.7953 4.21611 14.4011 4.11035 14 4.11035C13.599 4.11035 13.2047 4.21611 12.8553 4.41743C12.5058 4.61875 12.213 4.90882 12.005 5.25967Z" stroke="white" stroke-width="2.33333" stroke-linecap="round" stroke-linejoin="round"/>
<path d="M14 11.3955V16.1707" stroke="white" stroke-width="2.33333" stroke-linecap="round" stroke-linejoin="round"/>
<path d="M14 20.9458H14.0125" stroke="white" stroke-width="2.33333" stroke-linecap="round" stroke-linejoin="round"/>
</svg>
