<svg width="54" height="46" viewBox="0 0 54 46" fill="none" xmlns="http://www.w3.org/2000/svg">
<path d="M34.5 22.1455H3C1.34315 22.1455 0 23.4887 0 25.1455V42.0144C0 43.6713 1.34315 45.0144 3 45.0144H34.5C36.1569 45.0144 37.5 43.6713 37.5 42.0144V25.1455C37.5 23.4887 36.1569 22.1455 34.5 22.1455Z" fill="#7A7A7A"/>
<path d="M12.75 36.1621H4.5V39.1129H12.75V36.1621Z" fill="#3D3D3F"/>
<path d="M23.25 36.1621H15V39.1129H23.25V36.1621Z" fill="#3D3D3F"/>
<path d="M33.75 36.1621H25.5V39.1129H33.75V36.1621Z" fill="#3D3D3F"/>
<g filter="url(#filter0_i_0_1)">
<mask id="mask0_0_1" style="mask-type:alpha" maskUnits="userSpaceOnUse" x="12" y="0" width="42" height="41">
<path d="M33.7131 0.0141602H33.0369C21.8328 0.0141602 12.75 9.09691 12.75 20.3011C12.75 31.5052 21.8328 40.588 33.0369 40.588H33.7131C44.9172 40.588 54 31.5052 54 20.3011C54 9.09691 44.9172 0.0141602 33.7131 0.0141602Z" fill="#C4C4C4"/>
</mask>
<g mask="url(#mask0_0_1)">
<path d="M51.2906 0.0141602H-9.2417C-10.8986 0.0141602 -12.2417 1.35731 -12.2417 3.01416V37.588C-12.2417 39.2448 -10.8986 40.588 -9.2417 40.588H51.2906C52.9475 40.588 54.2906 39.2448 54.2906 37.588V3.01416C54.2906 1.35731 52.9475 0.0141602 51.2906 0.0141602Z" fill="#7A7A7A"/>
<path d="M23.0087 24.8818H8.37158V30.1171H23.0087V24.8818Z" fill="#3D3D3F"/>
<path d="M41.6371 24.8818H27V30.1171H41.6371V24.8818Z" fill="#3D3D3F"/>
<path d="M31.8477 16.2954V22.0142H31.125V17.1978L29.668 17.729V17.0767L31.7344 16.2954H31.8477ZM37.5392 21.4204V22.0142H33.8166V21.4946L35.6798 19.4204C35.909 19.1652 36.0861 18.9491 36.2111 18.772C36.3387 18.5923 36.4272 18.4321 36.4767 18.2915C36.5288 18.1483 36.5548 18.0024 36.5548 17.854C36.5548 17.6665 36.5158 17.4972 36.4377 17.3462C36.3621 17.1925 36.2502 17.0701 36.1017 16.979C35.9533 16.8879 35.7736 16.8423 35.5627 16.8423C35.3101 16.8423 35.0991 16.8918 34.9298 16.9907C34.7632 17.0871 34.6382 17.2225 34.5548 17.397C34.4715 17.5715 34.4298 17.772 34.4298 17.9985H33.7072C33.7072 17.6782 33.7775 17.3853 33.9181 17.1196C34.0588 16.854 34.2671 16.6431 34.5431 16.4868C34.8192 16.328 35.159 16.2485 35.5627 16.2485C35.922 16.2485 36.2293 16.3123 36.4845 16.4399C36.7397 16.5649 36.9351 16.742 37.0705 16.9712C37.2085 17.1978 37.2775 17.4634 37.2775 17.7681C37.2775 17.9347 37.2489 18.104 37.1916 18.2759C37.1369 18.4451 37.0601 18.6144 36.9611 18.7837C36.8647 18.953 36.7515 19.1196 36.6213 19.2837C36.4936 19.4478 36.3569 19.6092 36.2111 19.7681L34.6877 21.4204H37.5392ZM39.2073 18.8149H39.723C39.9756 18.8149 40.1839 18.7733 40.348 18.6899C40.5146 18.604 40.6383 18.4881 40.7191 18.3423C40.8024 18.1938 40.8441 18.0272 40.8441 17.8423C40.8441 17.6235 40.8076 17.4399 40.7347 17.2915C40.6618 17.1431 40.5524 17.0311 40.4066 16.9556C40.2607 16.88 40.0758 16.8423 39.8519 16.8423C39.6488 16.8423 39.4691 16.8826 39.3128 16.9634C39.1592 17.0415 39.0381 17.1535 38.9495 17.2993C38.8636 17.4451 38.8206 17.617 38.8206 17.8149H38.098C38.098 17.5259 38.1709 17.2629 38.3167 17.0259C38.4626 16.7889 38.667 16.6001 38.93 16.4595C39.1956 16.3188 39.5029 16.2485 39.8519 16.2485C40.1956 16.2485 40.4964 16.3097 40.7542 16.4321C41.012 16.5519 41.2126 16.7316 41.3558 16.9712C41.499 17.2082 41.5706 17.5037 41.5706 17.8579C41.5706 18.0011 41.5368 18.1548 41.4691 18.3188C41.404 18.4803 41.3011 18.6313 41.1605 18.772C41.0224 18.9126 40.8428 19.0285 40.6214 19.1196C40.4001 19.2082 40.1344 19.2524 39.8245 19.2524H39.2073V18.8149ZM39.2073 19.4087V18.9751H39.8245C40.1865 18.9751 40.486 19.0181 40.723 19.104C40.9599 19.1899 41.1461 19.3045 41.2816 19.4478C41.4196 19.591 41.5159 19.7485 41.5706 19.9204C41.6279 20.0897 41.6566 20.259 41.6566 20.4282C41.6566 20.6938 41.611 20.9295 41.5198 21.1353C41.4313 21.341 41.305 21.5155 41.1409 21.6587C40.9795 21.8019 40.7894 21.91 40.5706 21.9829C40.3519 22.0558 40.1136 22.0923 39.8558 22.0923C39.6084 22.0923 39.3753 22.0571 39.1566 21.9868C38.9404 21.9165 38.749 21.8149 38.5823 21.6821C38.4157 21.5467 38.2855 21.3813 38.1917 21.186C38.098 20.9881 38.0511 20.7629 38.0511 20.5103H38.7738C38.7738 20.7082 38.8167 20.8813 38.9027 21.0298C38.9912 21.1782 39.1162 21.2941 39.2777 21.3774C39.4417 21.4582 39.6344 21.4985 39.8558 21.4985C40.0771 21.4985 40.2672 21.4608 40.4261 21.3853C40.5876 21.3071 40.7113 21.1899 40.7972 21.0337C40.8857 20.8774 40.93 20.6808 40.93 20.4438C40.93 20.2069 40.8805 20.0129 40.7816 19.8618C40.6826 19.7082 40.542 19.5949 40.3597 19.522C40.18 19.4465 39.9678 19.4087 39.723 19.4087H39.2073ZM46.3364 20.1001V20.6938H42.227V20.2681L44.7739 16.3267H45.3638L44.7309 17.4673L43.0473 20.1001H46.3364ZM45.5434 16.3267V22.0142H44.8208V16.3267H45.5434Z" fill="white"/>
</g>
</g>
<defs>
<filter id="filter0_i_0_1" x="12.75" y="0.0141602" width="41.25" height="44.5738" filterUnits="userSpaceOnUse" color-interpolation-filters="sRGB">
<feFlood flood-opacity="0" result="BackgroundImageFix"/>
<feBlend mode="normal" in="SourceGraphic" in2="BackgroundImageFix" result="shape"/>
<feColorMatrix in="SourceAlpha" type="matrix" values="0 0 0 0 0 0 0 0 0 0 0 0 0 0 0 0 0 0 127 0" result="hardAlpha"/>
<feOffset dy="4"/>
<feGaussianBlur stdDeviation="2"/>
<feComposite in2="hardAlpha" operator="arithmetic" k2="-1" k3="1"/>
<feColorMatrix type="matrix" values="0 0 0 0 0 0 0 0 0 0 0 0 0 0 0 0 0 0 0.25 0"/>
<feBlend mode="normal" in2="shape" result="effect1_innerShadow_0_1"/>
</filter>
</defs>
</svg>
