<svg width="38" height="22" viewBox="0 0 38 22" fill="none" xmlns="http://www.w3.org/2000/svg">
<path d="M38 11.8653V0.5H0V21.5H38V15.3731C37.9154 15.3731 38 11.8653 38 11.8653Z" fill="#006FCF"/>
<path d="M30.6593 10.1596H33.0748V4.39551H30.4461V5.1981L29.9488 4.39551H27.6753V5.41698L27.249 4.39551H23.0573C22.9152 4.39551 22.7731 4.46847 22.631 4.46847C22.4889 4.46847 22.4179 4.54143 22.2758 4.6144C22.1337 4.68736 22.0627 4.68736 21.9206 4.76032V4.39551H9.91375L9.55852 5.34402L9.20329 4.39551H6.36144V5.41698L5.93516 4.39551H3.66168L2.66703 6.87624L1.46045 10.1596H2.66703H4.3011L4.58528 9.35697H5.15365L5.43784 10.1596H17.942V9.42993L18.4393 10.1596H21.9206V9.72178C21.9916 9.79474 22.1337 9.79474 22.2048 9.8677C22.2758 9.94067 22.4179 9.94067 22.4889 10.0136C22.631 10.0866 22.7731 10.0866 22.9152 10.0866H25.4729L25.7571 9.284H26.3254L26.6096 10.0866H30.0909V9.35697L30.6593 10.1596ZM35.1813 17.4558V14.6195V12.0566H15.0291L14.5318 12.7862L14.0344 12.0566H8.35073V17.8206H14.0344L14.5318 17.091L15.0291 17.8206H18.5814V16.5803H18.4393C18.9366 16.5803 19.3629 16.5073 19.7181 16.3614V17.8936H22.2758V17.164L22.7731 17.8936H33.359C33.7853 17.7477 34.8261 17.6747 35.1813 17.4558Z" fill="white"/>
<path d="M33.3595 16.0697H31.4412V16.8723H33.2884C34.0699 16.8723 34.5672 16.3616 34.5672 15.632C34.5672 14.9023 34.141 14.5375 33.4305 14.5375H32.5779C32.3648 14.5375 32.2227 14.3916 32.2227 14.1727C32.2227 13.9538 32.3648 13.8079 32.5779 13.8079H34.212L34.5672 13.0053H32.649C31.8675 13.0053 31.3702 13.5161 31.3702 14.1727C31.3702 14.9023 31.7964 15.2672 32.5069 15.2672H33.3595C33.5726 15.2672 33.7147 15.4131 33.7147 15.632C33.7857 15.9238 33.6436 16.0697 33.3595 16.0697ZM29.8782 16.0697H27.9599V16.8723H29.8071C30.5886 16.8723 31.086 16.3616 31.086 15.632C31.086 14.9023 30.6597 14.5375 29.9492 14.5375H29.0967C28.8835 14.5375 28.7415 14.3916 28.7415 14.1727C28.7415 13.9538 28.8835 13.8079 29.0967 13.8079H30.7307L31.086 13.0053H29.1677C28.3862 13.0053 27.8889 13.5161 27.8889 14.1727C27.8889 14.9023 28.3152 15.2672 29.0256 15.2672H29.8782C30.0913 15.2672 30.2334 15.4131 30.2334 15.632C30.3045 15.9238 30.0913 16.0697 29.8782 16.0697ZM27.3916 13.7349V12.9324H24.4076V16.7994H27.3916V15.9968H25.2602V15.1942H27.3205V14.3916H25.2602V13.662H27.3916V13.7349ZM22.5604 13.7349C22.9157 13.7349 23.0578 13.9538 23.0578 14.1727C23.0578 14.3916 22.9157 14.6105 22.5604 14.6105H21.4947V13.662L22.5604 13.7349ZM21.4947 15.4131H21.921L23.0578 16.7994H24.1234L22.8446 15.3401C23.484 15.1942 23.8393 14.7564 23.8393 14.1727C23.8393 13.4431 23.3419 12.9324 22.5604 12.9324H20.5711V16.7994H21.4237L21.4947 15.4131ZM19.2213 14.2457C19.2213 14.5375 19.0792 14.7564 18.7239 14.7564H17.5872V13.7349H18.6529C19.0081 13.7349 19.2213 13.9538 19.2213 14.2457ZM16.7346 12.9324V16.7994H17.5872V15.486H18.7239C19.5054 15.486 20.0738 14.9753 20.0738 14.1727C20.0738 13.4431 19.5765 12.8594 18.795 12.8594L16.7346 12.9324ZM15.4558 16.7994H16.5215L15.0295 14.8294L16.5215 12.9324H15.4558L14.5322 14.1727L13.6086 12.9324H12.5429L14.0349 14.8294L12.5429 16.7264H13.6086L14.5322 15.486L15.4558 16.7994ZM12.2587 13.7349V12.9324H9.27478V16.7994H12.2587V15.9968H10.1273V15.1942H12.1877V14.3916H10.1273V13.662H12.2587V13.7349ZM29.523 6.87645L31.0149 9.21126H32.0806V5.34424H31.2281V7.89793L31.0149 7.53312L29.6651 5.34424H28.5283V9.21126H29.3809V6.5846L29.523 6.87645ZM25.8286 6.80349L26.1127 6.0009L26.3969 6.80349L26.7522 7.67904H25.4733L25.8286 6.80349ZM27.3205 9.21126H28.2441L26.6101 5.34424H25.4733L23.8393 9.21126H24.7629L25.1181 8.40867H26.9653L27.3205 9.21126ZM23.3419 9.21126L23.6972 8.40867H23.484C22.8446 8.40867 22.4894 7.97089 22.4894 7.31423V7.24126C22.4894 6.5846 22.8446 6.14683 23.484 6.14683H24.4076V5.34424H23.413C22.2762 5.34424 21.6368 6.14683 21.6368 7.24126V7.31423C21.6368 8.48163 22.2762 9.21126 23.3419 9.21126ZM20.1449 9.21126H20.9974V5.4172H20.1449V9.21126ZM18.2977 6.14683C18.6529 6.14683 18.795 6.36571 18.795 6.5846C18.795 6.80349 18.6529 7.02238 18.2977 7.02238H17.232V6.07386L18.2977 6.14683ZM17.232 7.82497H17.6582L18.795 9.21126H19.8607L18.5818 7.752C19.2213 7.60608 19.5765 7.1683 19.5765 6.5846C19.5765 5.85498 19.0792 5.34424 18.2977 5.34424H16.3084V9.21126H17.1609L17.232 7.82497ZM15.6689 6.14683V5.34424H12.685V9.21126H15.6689V8.40867H13.5376V7.60608H15.5979V6.80349H13.5376V6.07386H15.6689V6.14683ZM9.20373 9.21126H9.98524L11.0509 6.07386V9.21126H11.9035V5.34424H10.4826L9.63001 7.97089L8.77746 5.34424H7.35653V9.21126H8.20909V6.07386L9.20373 9.21126ZM4.58573 6.80349L4.86991 6.0009L5.1541 6.80349L5.50933 7.67904H4.2305L4.58573 6.80349ZM6.0777 9.21126H7.0013L5.36724 5.34424H4.30154L2.66748 9.21126H3.59108L3.94631 8.40867H5.79351L6.0777 9.21126Z" fill="#006FCF"/>
</svg>
