<svg width="18" height="18" viewBox="0 0 18 18" fill="none" xmlns="http://www.w3.org/2000/svg">
<path d="M0 9C0 4.02944 4.02944 0 9 0C13.9706 0 18 4.02944 18 9C18 13.9706 13.9706 18 9 18C4.02944 18 0 13.9706 0 9Z" fill="#E96744"/>
<path fill-rule="evenodd" clip-rule="evenodd" d="M9 7.99999C7.89543 7.99999 7 7.10456 7 5.99999C7 4.89542 7.89543 3.99999 9 3.99999C10.1046 3.99999 11 4.89542 11 5.99999C11 7.10456 10.1046 7.99999 9 7.99999ZM6 5.99999C6 4.34314 7.34315 2.99999 9 2.99999C10.6569 2.99999 12 4.34314 12 5.99999C12 7.65685 10.6569 8.99999 9 8.99999C7.34315 8.99999 6 7.65685 6 5.99999ZM4.5 12C4.5 11.1716 5.17157 10.5 6 10.5H12C12.8284 10.5 13.5 11.1716 13.5 12V15H14.5V12C14.5 10.6193 13.3807 9.50001 12 9.50001H6C4.61929 9.50001 3.5 10.6193 3.5 12V15H4.5V12Z" fill="white"/>
</svg>
