<svg width="32" height="32" viewBox="0 0 32 32" fill="none" xmlns="http://www.w3.org/2000/svg">
<rect width="32" height="32" rx="16" fill="#E96744"/>
<path fill-rule="evenodd" clip-rule="evenodd" d="M15.9998 15C14.1421 15 12.6361 13.494 12.6361 11.6364C12.6361 9.77868 14.1421 8.27273 15.9998 8.27273C17.8575 8.27273 19.3634 9.77868 19.3634 11.6364C19.3634 13.494 17.8575 15 15.9998 15ZM11.6361 11.6364C11.6361 9.22639 13.5898 7.27273 15.9998 7.27273C18.4097 7.27273 20.3634 9.22639 20.3634 11.6364C20.3634 14.0463 18.4097 16 15.9998 16C13.5898 16 11.6361 14.0463 11.6361 11.6364ZM9.22705 21.4545C9.22705 19.5216 10.7941 17.9545 12.7271 17.9545H19.2725C21.2055 17.9545 22.7725 19.5216 22.7725 21.4545V24.7273H23.7725V21.4545C23.7725 18.9693 21.7578 16.9545 19.2725 16.9545H12.7271C10.2418 16.9545 8.22705 18.9693 8.22705 21.4545V24.7273H9.22705V21.4545Z" fill="white"/>
</svg>
