<svg width="18" height="20" viewBox="0 0 18 20" fill="none" xmlns="http://www.w3.org/2000/svg">
<path d="M8.99976 12.7811C6.06086 12.7811 3.44733 14.2001 1.78341 16.4023C1.42529 16.8762 1.24624 17.1132 1.25209 17.4335C1.25662 17.6809 1.412 17.993 1.60669 18.1458C1.85869 18.3436 2.2079 18.3436 2.90632 18.3436H15.0932C15.7916 18.3436 16.1408 18.3436 16.3928 18.1458C16.5875 17.993 16.7429 17.6809 16.7474 17.4335C16.7533 17.1132 16.5742 16.8762 16.2161 16.4023C14.5522 14.2001 11.9387 12.7811 8.99976 12.7811Z" stroke="#E96744" stroke-width="1.89" stroke-linecap="round" stroke-linejoin="round"/>
<path d="M8.99976 9.99991C11.3038 9.99991 13.1716 8.13212 13.1716 5.82808C13.1716 3.52404 11.3038 1.65625 8.99976 1.65625C6.69572 1.65625 4.82793 3.52404 4.82793 5.82808C4.82793 8.13212 6.69572 9.99991 8.99976 9.99991Z" stroke="#E96744" stroke-width="1.89" stroke-linecap="round" stroke-linejoin="round"/>
</svg>
