<svg width="21" height="35" viewBox="0 0 21 35" fill="none" xmlns="http://www.w3.org/2000/svg">
<path d="M17.0675 0H3.93262C2.12027 0 0.651367 1.46891 0.651367 3.28125V31.7188C0.651367 33.5311 2.12027 35 3.93262 35H17.0675C18.8798 35 20.3487 33.5311 20.3487 31.7188V3.28125C20.3487 1.46891 18.8798 0 17.0675 0ZM18.1612 31.7188C18.1612 32.3225 17.6712 32.8125 17.0675 32.8125H3.93262C3.32887 32.8125 2.83887 32.3225 2.83887 31.7188V3.28125C2.83887 2.6775 3.32887 2.1875 3.93262 2.1875H17.0675C17.6712 2.1875 18.1612 2.6775 18.1612 3.28125V31.7188ZM10.5017 27.3498C9.29582 27.3498 8.31965 28.327 8.31965 29.5312C8.31965 30.7355 9.29637 31.7133 10.5017 31.7133C11.7075 31.7133 12.6837 30.7355 12.6837 29.5313C12.6837 28.327 11.7075 27.3498 10.5017 27.3498ZM12.6892 3.28125H8.31418C7.71043 3.28125 7.22043 3.77125 7.22043 4.375C7.22043 4.97875 7.71043 5.46875 8.31418 5.46875H12.6892C13.2929 5.46875 13.7829 4.97875 13.7829 4.375C13.7829 3.77125 13.2929 3.28125 12.6892 3.28125Z" fill="#442061"/>
</svg>
