<svg width="37" height="20" viewBox="0 0 37 20" fill="none" xmlns="http://www.w3.org/2000/svg">
<rect width="37" height="20" fill="white"/>
<path d="M22.8425 17.2689C24.7593 17.2689 26.5976 16.512 27.9529 15.1648C29.3083 13.8176 30.0697 11.9904 30.0697 10.0851C30.0697 8.17987 29.3083 6.35266 27.9529 5.00544C26.5976 3.65822 24.7593 2.90137 22.8425 2.90137H13.5062C12.5571 2.90137 11.6173 3.08718 10.7405 3.4482C9.86367 3.80922 9.06695 4.33837 8.39584 5.00544C7.72474 5.67251 7.19239 6.46444 6.82919 7.33602C6.46599 8.20759 6.27905 9.14174 6.27905 10.0851C6.27905 11.0285 6.46599 11.9627 6.82919 12.8342C7.19239 13.7058 7.72474 14.4977 8.39584 15.1648C9.06695 15.8319 9.86367 16.361 10.7405 16.722C11.6173 17.0831 12.5571 17.2689 13.5062 17.2689H22.8425Z" fill="#2E3192"/>
<path d="M13.5064 3.13135C14.8907 3.13135 16.244 3.5394 17.3951 4.30389C18.5461 5.06839 19.4433 6.155 19.9731 7.42631C20.5028 8.69762 20.6415 10.0965 20.3714 11.4461C20.1013 12.7958 19.4347 14.0355 18.4558 15.0085C17.4769 15.9815 16.2297 16.6441 14.8719 16.9126C13.5141 17.1811 12.1067 17.0433 10.8278 16.5167C9.54876 15.9901 8.45558 15.0983 7.68647 13.9542C6.91735 12.81 6.50684 11.4649 6.50684 10.0888C6.51034 8.24465 7.24891 6.47701 8.56081 5.17299C9.87272 3.86896 11.651 3.13483 13.5064 3.13135ZM14.9108 5.76539V14.4122C15.8305 14.1167 16.6322 13.5391 17.2009 12.7623C17.7696 11.9855 18.0759 11.0495 18.0759 10.0888C18.0759 9.12812 17.7696 8.19214 17.2009 7.41535C16.6322 6.63855 15.8305 6.0609 14.9108 5.76539ZM12.1958 14.447V5.72708C11.2532 6.00839 10.4269 6.58422 9.83947 7.36916C9.25206 8.1541 8.93483 9.10634 8.93483 10.0846C8.93483 11.0629 9.25206 12.0151 9.83947 12.8001C10.4269 13.585 11.2532 14.1609 12.1958 14.4422V14.447Z" fill="white"/>
</svg>
