<svg width="38" height="22" viewBox="0 0 38 22" fill="none" xmlns="http://www.w3.org/2000/svg">
<rect y="0.5" width="38" height="21" fill="white"/>
<path d="M7.27132 7.36084C7.66403 7.23027 8.07532 7.16401 8.48923 7.16463C10.3475 7.16463 11.8988 8.48181 12.2533 10.2326L14.8867 9.69654C14.2825 6.72114 11.6482 4.48194 8.48923 4.48194C7.78574 4.48132 7.08678 4.5943 6.41943 4.81651L7.27132 7.36084Z" fill="#FFCB05"/>
<path d="M4.16398 15.8806L5.94482 13.8703C5.53741 13.5107 5.21117 13.0688 4.9877 12.5739C4.76423 12.079 4.64861 11.5424 4.64852 10.9995C4.64842 10.4567 4.76384 9.91999 4.98714 9.42501C5.21044 8.93003 5.53652 8.48804 5.94379 8.12831L4.16245 6.11816C2.81259 7.31213 1.9607 9.05646 1.9607 10.9982C1.95967 11.9215 2.15562 12.8345 2.53552 13.6763C2.91541 14.5181 3.47055 15.2696 4.16398 15.8806Z" fill="#00A4E0"/>
<path d="M12.2536 11.7676C11.8967 13.5175 10.3474 14.8321 8.4902 14.8321C8.07581 14.8329 7.66406 14.7664 7.2711 14.6351L6.4187 17.1804C7.08666 17.4024 7.78619 17.5152 8.4902 17.5143C11.6461 17.5143 14.2799 15.2787 14.8866 12.3069L12.2536 11.7676Z" fill="#EF4123"/>
<path d="M17.1903 13.9551C17.0877 13.7852 16.996 13.609 16.916 13.4275C16.499 12.4611 16.479 11.4609 16.8307 10.5004C17.2179 9.44754 17.9576 8.64141 18.9133 8.23094C20.1149 7.71479 21.4436 7.81655 22.5957 8.49863C23.3272 8.91761 23.8456 9.56445 24.2396 10.4792C24.2897 10.5961 24.3339 10.7213 24.376 10.8275L17.1903 13.9551ZM19.5901 9.78347C18.7367 10.1495 18.2969 10.9485 18.3874 11.8853L22.0016 10.3323C21.3803 9.60325 20.5714 9.3616 19.5901 9.78347ZM22.4527 13.1622L22.4506 13.1642L22.3756 13.1132C22.1599 13.4627 21.8236 13.7457 21.3987 13.93C20.591 14.2809 19.8421 14.1906 19.3044 13.7194L19.255 13.7944C19.255 13.7936 19.2541 13.7929 19.2534 13.7929L18.3364 15.1623C18.5646 15.3205 18.8089 15.4541 19.0652 15.5609C20.078 15.9809 21.1146 15.9615 22.1356 15.5181C22.8741 15.1989 23.4534 14.7115 23.8496 14.0941L22.4527 13.1622Z" fill="#231F20"/>
<path d="M26.8892 6.21484V13.829L28.0751 14.3087L27.4014 15.8781L26.0924 15.3335C25.7987 15.2066 25.598 15.0122 25.4473 14.7928C25.3026 14.5691 25.1943 14.2624 25.1943 13.8492V6.21484H26.8892Z" fill="#231F20"/>
<path d="M29.961 11.8891C29.961 11.5812 30.0271 11.2768 30.155 10.9966C30.2829 10.7164 30.4695 10.4668 30.7022 10.2648L29.4857 8.91064C29.063 9.28364 28.7244 9.74198 28.4924 10.2553C28.2604 10.7687 28.1402 11.3254 28.1399 11.8886C28.1395 12.4518 28.259 13.0086 28.4903 13.5223C28.7217 14.036 29.0597 14.4947 29.4819 14.8682L30.6969 13.5128C30.4653 13.3102 30.2798 13.0605 30.1528 12.7805C30.0259 12.5004 29.9605 12.1965 29.961 11.8891Z" fill="#231F20"/>
<path d="M32.123 14.0505C31.8901 14.0498 31.6587 14.0121 31.4377 13.9386L30.8567 15.6631C31.2643 15.7994 31.6913 15.8691 32.1211 15.8693C34.0476 15.8712 35.656 14.5067 36.0285 12.6931L34.2428 12.3291C34.1417 12.8156 33.8757 13.2525 33.4895 13.5661C33.1034 13.8796 32.6208 14.0507 32.123 14.0505Z" fill="#231F20"/>
<path d="M32.1273 7.91358C31.698 7.91275 31.2714 7.98131 30.864 8.1166L31.4397 9.84238C31.7302 9.7459 32.038 9.71205 32.3426 9.74308C32.6471 9.77411 32.9417 9.86931 33.2067 10.0224C33.4717 10.1755 33.7011 10.3829 33.8798 10.6311C34.0586 10.8793 34.1825 11.1625 34.2434 11.462L36.0294 11.1005C35.662 9.2842 34.0551 7.91477 32.1273 7.91358Z" fill="#231F20"/>
</svg>
