<svg width="37" height="20" viewBox="0 0 37 20" fill="none" xmlns="http://www.w3.org/2000/svg">
<rect width="37" height="20" fill="white"/>
<path d="M28.2675 16.6465C29.8038 16.6465 31.1452 16.1797 31.4539 14.6788C31.7621 13.1778 33.7697 3.52435 33.7697 3.52435H8.73204C7.19449 3.52435 5.8481 4.06513 5.54523 5.49126C5.24194 6.91698 3.2356 16.6444 3.2356 16.6444L28.2675 16.6465Z" fill="#B3131B"/>
<path d="M28.2659 16.7555V16.6467V16.5372C29.789 16.5306 31.0489 16.0867 31.3435 14.6565C31.6311 13.259 33.3912 4.79294 33.6329 3.63372H8.73047C7.21113 3.63822 5.93963 4.15897 5.65165 5.51357C5.50021 6.22602 4.9226 9.01411 4.38264 11.6244C3.91715 13.8783 3.48022 15.9964 3.36892 16.5351L28.2659 16.5372V16.6467L28.2655 16.7555L3.0979 16.753L3.12521 16.6222C3.12521 16.6222 5.13114 6.89515 5.43484 5.46861C5.75344 3.97217 7.17472 3.40973 8.73047 3.41463H33.9039L33.8766 3.54625C33.8766 3.55116 33.3751 5.95911 32.8343 8.56081C32.2935 11.1617 31.7147 13.9502 31.5611 14.7003C31.2409 16.2629 29.8337 16.7559 28.2957 16.7559C28.2862 16.7559 28.2759 16.7559 28.2659 16.7555Z" fill="white"/>
<path d="M5.93187 11.9044L6.13999 10.8556L6.35101 9.74865L6.53183 8.63399L6.70105 7.58636L6.71595 7.51933H7.46569C7.45783 7.55284 7.45783 7.57328 7.45121 7.58636C7.42431 7.71307 7.37052 7.99348 7.29605 8.42634C7.2555 8.66015 7.20088 8.92706 7.14047 9.2279L7.12723 9.32192H7.18805L8.16661 9.33418L9.11951 9.32192H9.19481L9.20764 9.2279C9.24819 8.96753 9.28873 8.69367 9.34252 8.39977C9.45134 7.81281 9.45796 7.77234 9.49189 7.51973H10.254C10.242 7.56674 10.242 7.56674 10.2342 7.58677C10.2205 7.6534 10.1539 8.00042 10.0385 8.63399L9.82952 9.74865L9.64002 10.856C9.53244 11.4838 9.47783 11.8308 9.46583 11.9044C9.46583 11.9297 9.46583 11.9297 9.45796 11.9702H8.69457L8.70905 11.9044C8.72767 11.8239 8.76201 11.6305 8.81539 11.3236C8.83566 11.2087 8.87663 11.0166 8.93042 10.7223L9.03882 10.1349C9.07275 9.95548 9.09302 9.84757 9.09923 9.821C9.09923 9.80751 9.10626 9.78871 9.11247 9.75478H9.02517C8.89731 9.74865 8.43762 9.74865 7.99862 9.74865C7.55961 9.74865 7.26791 9.74865 7.13302 9.75438H7.04613C7.03248 9.88231 7.02586 9.90766 6.98531 10.1349C6.95138 10.3082 6.91869 10.5085 6.88435 10.7219C6.83056 11.0366 6.79581 11.2361 6.78257 11.3232C6.72878 11.6436 6.69443 11.8361 6.68119 11.9044C6.68119 11.9163 6.68119 11.9436 6.67499 11.9698H5.91821L5.93187 11.9044Z" fill="white"/>
<path d="M10.1405 11.9073L10.2824 11.1924L10.4375 10.3892L10.5666 9.6109C10.6316 9.21482 10.6701 8.96671 10.6825 8.86452C10.6825 8.85144 10.6825 8.83223 10.6891 8.80076H11.3532C11.3478 8.83223 11.3408 8.85144 11.3354 8.86452C11.3094 8.96671 11.2642 9.21482 11.1856 9.6109L11.0375 10.3892L10.903 11.1924C10.8435 11.5684 10.8046 11.8108 10.7913 11.9073C10.7913 11.9195 10.7913 11.9453 10.7864 11.9702H10.1206L10.1405 11.9073ZM10.819 7.97712C10.819 7.65258 10.98 7.46046 11.2642 7.46046C11.4579 7.46046 11.5547 7.55039 11.5547 7.73514C11.5547 8.05438 11.3863 8.25181 11.1087 8.25181C10.9473 8.25181 10.8505 8.18722 10.824 8.06705C10.819 8.03435 10.819 8.00901 10.819 7.97712Z" fill="white"/>
<path d="M11.1407 13.316C11.1722 13.1762 11.2499 12.7809 11.3728 12.118L11.5855 10.9755L11.7729 9.87882C11.8636 9.34294 11.9157 9.00491 11.9351 8.86471C11.9351 8.83895 11.9351 8.83895 11.9409 8.80053H12.5165L12.5024 8.86471L12.4714 9.0421L12.4585 9.11282C12.7685 8.84509 13.0846 8.73104 13.5103 8.73104C14.2332 8.73104 14.6209 9.11936 14.6209 9.84693C14.6209 10.2487 14.5112 10.7016 14.3234 11.1038C14.0189 11.735 13.5165 12.0542 12.8388 12.0542C12.4118 12.0542 12.2182 11.9389 12.0638 11.6078L12.051 11.6835L11.9024 12.6277C11.8507 12.9469 11.8106 13.1762 11.7986 13.3103C11.7986 13.316 11.7986 13.3418 11.7932 13.3867H11.1208C11.1333 13.3418 11.1333 13.3418 11.1407 13.316ZM12.4308 9.57798L12.2182 10.765C12.2049 10.848 12.1929 10.924 12.1929 11.0082C12.1929 11.4223 12.4064 11.6275 12.8251 11.6275C13.1032 11.6275 13.3291 11.5302 13.4971 11.3454C13.7619 11.0462 13.9427 10.4597 13.9427 9.92378C13.9427 9.40671 13.7106 9.15083 13.2066 9.15083C12.9029 9.15083 12.6509 9.26651 12.4503 9.48274L12.4308 9.57798Z" fill="white"/>
<path d="M16.0919 12.0405C15.2218 12.0405 14.7939 11.6718 14.7939 10.9054C14.7939 10.484 14.9044 10.0123 15.0919 9.61745C15.3757 9.02394 15.9061 8.73087 16.6865 8.73087C17.4288 8.73087 17.7983 9.01046 17.7983 9.56595C17.7983 9.72495 17.7586 9.9747 17.6944 10.2608L17.6233 10.2543C17.5074 10.2486 17.145 10.2486 16.538 10.2486C16.0216 10.2486 15.7059 10.2486 15.5834 10.2543L15.5172 10.2608C15.4597 10.5478 15.4543 10.6189 15.4543 10.8229C15.4543 11.3338 15.7502 11.6077 16.3058 11.6077C16.6683 11.6077 17.0159 11.5378 17.4044 11.3714L17.3067 11.8815C16.9323 11.9837 16.4924 12.0405 16.0919 12.0405ZM15.6728 9.89091C15.7439 9.89785 15.9831 9.89785 16.3836 9.89785H16.4867C16.7771 9.89785 16.9774 9.89785 17.0932 9.89091H17.152L17.1644 9.80793C17.1772 9.7319 17.1843 9.66119 17.1843 9.59824C17.1843 9.28514 16.9703 9.13267 16.5574 9.13267C16.034 9.13267 15.7369 9.36157 15.6016 9.89091H15.6728Z" fill="white"/>
<path d="M17.8935 11.9073L18.0363 11.1924L18.191 10.3892L18.3201 9.6109C18.3847 9.21482 18.4231 8.96671 18.4364 8.86452C18.4364 8.85144 18.443 8.83223 18.443 8.80076H19.0235L19.0111 8.86452L18.935 9.26633L18.9143 9.35503C19.0235 9.18376 19.0628 9.13798 19.146 9.04192C19.3285 8.83877 19.5668 8.73005 19.8183 8.73005C19.9483 8.73005 20.0579 8.7558 20.1796 8.81302L20.0964 9.27246C19.9541 9.2279 19.8378 9.20951 19.7153 9.20951C19.3285 9.20951 18.9854 9.55368 18.8493 10.0822C18.7988 10.2804 18.7521 10.5102 18.7086 10.7783C18.5791 11.5754 18.5651 11.6387 18.5398 11.9702H17.8811L17.8935 11.9073Z" fill="white"/>
<path d="M22.5041 9.29781C22.2327 9.20257 21.9422 9.15066 21.6766 9.15066C21.3609 9.15066 21.1205 9.22791 20.9603 9.38078C20.6955 9.62971 20.4891 10.2486 20.4891 10.8032C20.4891 11.3461 20.7286 11.6077 21.2194 11.6077C21.5098 11.6077 21.8843 11.5181 22.1416 11.3906L22.051 11.8746C21.7221 11.9837 21.3741 12.0405 21.0191 12.0405C20.5143 12.0405 20.2371 11.9253 20.0236 11.6391C19.8817 11.4352 19.8237 11.2247 19.8237 10.8866C19.8237 10.4464 19.9334 9.98737 20.1403 9.58475C20.2313 9.39959 20.3596 9.23404 20.5213 9.09343C20.8056 8.83878 21.1672 8.73005 21.7548 8.73005C21.9612 8.73005 22.1801 8.74313 22.5293 8.77461L22.5939 8.78074L22.5041 9.29781Z" fill="white"/>
<path d="M23.4711 12.0405C22.8186 12.0405 22.5095 11.7724 22.5095 11.212C22.5095 10.3822 23.1029 9.9048 24.1298 9.9048C24.2908 9.9048 24.6077 9.91666 24.82 9.92974L24.834 9.85984C24.8787 9.62971 24.8787 9.61091 24.8787 9.53407C24.8787 9.27901 24.6656 9.15066 24.2262 9.15066C23.8915 9.15066 23.5688 9.20257 23.148 9.31784L23.2779 8.79382C23.3031 8.80036 23.3226 8.80036 23.3354 8.80036C23.438 8.80036 23.6006 8.78769 23.8261 8.76194C24.0198 8.74313 24.2134 8.73087 24.3938 8.73087C25.1622 8.73087 25.5052 8.92871 25.5052 9.36852C25.5052 9.48256 25.4861 9.61091 25.434 9.89091L25.3306 10.4717C25.2155 11.091 25.1506 11.5823 25.1506 11.8689C25.1506 11.8942 25.1506 11.9322 25.156 11.9702H24.575V11.9199C24.575 11.8296 24.6015 11.6322 24.6268 11.447C24.3363 11.8689 23.9945 12.0405 23.4711 12.0405ZM24.6851 10.2935C24.4906 10.2747 24.3938 10.2747 24.2589 10.2747C23.8646 10.2747 23.6325 10.3246 23.4521 10.4656C23.2588 10.6124 23.1418 10.8539 23.1418 11.1221C23.1418 11.4421 23.3354 11.613 23.6896 11.613C24.0458 11.613 24.3619 11.4221 24.5179 11.1102C24.6143 10.9054 24.6851 10.6565 24.7492 10.2992L24.6851 10.2935Z" fill="white"/>
<path d="M25.7117 11.9073L25.8524 11.1924L26.0092 10.3892L26.1383 9.6109C26.202 9.21482 26.2409 8.96671 26.2529 8.86452C26.2529 8.85144 26.26 8.83223 26.26 8.80076H26.8417L26.8272 8.86452L26.7503 9.26633L26.7312 9.35503C26.8417 9.18376 26.8798 9.13798 26.9638 9.04192C27.1454 8.83877 27.3833 8.73005 27.6357 8.73005C27.7644 8.73005 27.8741 8.7558 27.9969 8.81302L27.9129 9.27246C27.7706 9.2279 27.6552 9.20951 27.531 9.20951C27.1454 9.20951 26.8028 9.55368 26.6675 10.0822C26.6158 10.2804 26.5703 10.5102 26.5252 10.7783C26.3961 11.5754 26.3829 11.6387 26.3564 11.9702H25.6985L25.7117 11.9073Z" fill="white"/>
<path d="M28.7502 12.0405C27.9947 12.0405 27.6396 11.6964 27.6396 10.9508C27.6396 10.5167 27.7493 10.0569 27.9558 9.66119C28.2657 9.0497 28.8023 8.73087 29.5115 8.73087C29.7126 8.73087 29.9125 8.74926 30.0734 8.78769C30.126 8.80649 30.1586 8.81303 30.2551 8.84491L30.2675 8.76807C30.2935 8.64054 30.3258 8.43739 30.3705 8.15617C30.4218 7.85001 30.4549 7.62683 30.4739 7.48541L30.481 7.43472H31.1393L31.1269 7.47968C31.0743 7.73556 30.9982 8.11815 30.9009 8.64054C30.7255 9.5729 30.6618 9.92361 30.5645 10.5032C30.4479 11.212 30.3966 11.6453 30.3966 11.9253V11.9702H29.7962C29.802 11.8689 29.802 11.8366 29.8223 11.7029C29.8417 11.5999 29.8487 11.5631 29.8611 11.454C29.6038 11.8881 29.3063 12.0405 28.7502 12.0405ZM29.5442 9.14534C29.2604 9.14534 29.0291 9.22137 28.8598 9.36852C28.5375 9.64892 28.3178 10.2543 28.3178 10.8801C28.3178 11.3841 28.5247 11.613 28.9757 11.613C29.3121 11.613 29.6286 11.4221 29.7697 11.1278C29.8355 10.9888 29.8864 10.8159 29.9319 10.6189C30.0097 10.2294 30.1131 9.67427 30.1711 9.33582L30.1777 9.26633C29.9456 9.18377 29.7631 9.14534 29.5442 9.14534Z" fill="white"/>
</svg>
