<svg width="41" height="41" viewBox="0 0 41 41" fill="none" xmlns="http://www.w3.org/2000/svg">
<path d="M20.4999 41.0009C15.434 40.9942 10.5513 39.1063 6.79868 35.7032C3.0461 32.3002 0.691208 27.6247 0.19081 22.5836C-0.309587 17.5426 1.08018 12.4953 4.09052 8.42097C7.10086 4.3466 11.5172 1.53555 16.4828 0.533085C21.4485 -0.469378 26.6095 0.408209 30.9647 2.99561C35.3199 5.58302 38.5589 9.6958 40.0534 14.5362C41.5478 19.3765 41.1912 24.5995 39.0527 29.1918C36.9143 33.7841 33.1463 37.4185 28.4799 39.3899C25.9554 40.4584 23.2412 41.0064 20.4999 41.0009ZM20.3629 23.3829L25.0389 30.4489H29.0819L22.4549 20.8009L28.7999 11.7099L24.9509 11.6229L20.5739 18.2499L16.2499 11.6229H12.1499L18.4479 20.8009L11.8199 30.4489H15.8279L20.3619 23.3829H20.3629Z" fill="#F67F21"/>
</svg>
