<svg width="24" height="25" viewBox="0 0 24 25" fill="none" xmlns="http://www.w3.org/2000/svg">
<g opacity="0.6" clip-path="url(#clip0_2194_180170)">
<path d="M11.5738 0C11.4532 0 11.4532 0 11.3327 0C11.3327 0 11.3327 0 11.2121 0C10.971 0 10.8504 0 10.6093 0L10.8504 2.4C11.3327 2.4 11.9355 2.4 12.4177 2.4C17.2402 2.76 21.2186 6.6 21.4598 11.52C21.7009 16.8 17.6018 21.36 12.2972 21.6C12.2972 21.6 12.1766 21.6 12.0561 21.6C11.6944 21.6 11.2121 21.6 10.8504 21.6L10.7299 24C11.2121 24 11.6944 24 12.2972 24C12.4177 24 12.6589 24 12.7794 24C19.2897 23.52 24.2327 18 23.9915 11.52C23.7504 5.4 18.8074 0.6 12.7794 0.12C12.5383 0.12 12.4177 0.12 12.1766 0.12C11.9355 -1.11759e-07 11.8149 0 11.5738 0ZM7.35419 0.84C6.75139 1.2 6.14859 1.44 5.54578 1.8L6.87195 3.84C7.23363 3.6 7.71587 3.36 8.19811 3.12L7.35419 0.84ZM2.89345 4.08C2.41121 4.56 2.04953 5.16 1.68785 5.64L3.73738 6.84C3.9785 6.48 4.34018 6.12 4.70186 5.64L2.89345 4.08ZM0.361682 8.4C0.120561 9 0 9.72 0 10.32L2.41121 10.68C2.53177 10.2 2.53177 9.6 2.77289 9.12L0.361682 8.4ZM2.41121 13.2L0 13.44C0 13.56 0 13.68 0 13.8C0.120561 14.28 0.241121 14.88 0.361682 15.36L2.65233 14.64C2.53177 14.28 2.41121 13.8 2.41121 13.32V13.2ZM3.73738 17.04L1.68785 18.36C2.04953 18.96 2.41121 19.44 2.89345 19.92L4.70186 18.36C4.34018 17.88 3.9785 17.52 3.73738 17.04ZM6.87195 20.16L5.54578 22.2C6.14859 22.56 6.75139 22.8 7.35419 23.16L8.31868 21C7.71587 20.64 7.23363 20.4 6.87195 20.16Z" fill="#DDAE4A"/>
</g>
<defs>
<clipPath id="clip0_2194_180170">
<rect width="24" height="24" fill="white" transform="translate(0 0.0551758)"/>
</clipPath>
</defs>
</svg>
