<svg width="15" height="15" viewBox="0 0 15 15" fill="none" xmlns="http://www.w3.org/2000/svg">
<circle cx="7.5" cy="7.5" r="7" stroke="white"/>
<path d="M6.99677 12.1428V5.59737H8.00245V12.1428H6.99677ZM7.50813 4.50646C7.31211 4.50646 7.14307 4.4397 7.00103 4.30617C6.86182 4.17265 6.79222 4.01214 6.79222 3.82464C6.79222 3.63714 6.86182 3.47663 7.00103 3.34311C7.14307 3.20958 7.31211 3.14282 7.50813 3.14282C7.70415 3.14282 7.87177 3.20958 8.01097 3.34311C8.15302 3.47663 8.22404 3.63714 8.22404 3.82464C8.22404 4.01214 8.15302 4.17265 8.01097 4.30617C7.87177 4.4397 7.70415 4.50646 7.50813 4.50646Z" fill="white"/>
</svg>
