<svg width="38" height="34" viewBox="0 0 38 34" fill="none" xmlns="http://www.w3.org/2000/svg">
<path d="M32.9915 6.85C31.5009 5.31594 29.7178 4.09632 27.7477 3.26328C25.7776 2.43024 23.6605 2.00068 21.5215 2V5C23.2578 4.99532 24.9773 5.34095 26.577 6.01622C28.1767 6.69148 29.6237 7.68251 30.8315 8.93L32.9915 6.85Z" fill="url(#paint0_linear_430_12911)"/>
<path d="M37.4914 18.2299C37.5236 16.0896 37.126 13.9645 36.3221 11.9806C35.5183 9.99663 34.3245 8.19417 32.8114 6.67993L30.6914 8.79993C31.9227 10.0257 32.8939 11.4874 33.5469 13.0974C34.1999 14.7075 34.5211 16.4328 34.4914 18.1699L37.4914 18.2299Z" fill="url(#paint1_linear_430_12911)"/>
<path d="M32.6308 29.49C34.1648 27.9994 35.3845 26.2163 36.2175 24.2462C37.0505 22.2761 37.4801 20.159 37.4808 18.02H34.4808C34.4855 19.7564 34.1398 21.4758 33.4646 23.0755C32.7893 24.6752 31.7983 26.1222 30.5508 27.33L32.6308 29.49Z" fill="url(#paint2_linear_430_12911)"/>
<path d="M21.25 33.9899C23.3904 34.0222 25.5154 33.6245 27.4994 32.8207C29.4833 32.0168 31.2858 30.823 32.8 29.3099L30.68 27.1899C29.4542 28.4213 27.9926 29.3925 26.3825 30.0454C24.7725 30.6984 23.0472 31.0196 21.31 30.9899L21.25 33.9899Z" fill="url(#paint3_linear_430_12911)"/>
<path d="M9.99023 29.1301C11.4823 30.6683 13.2683 31.8912 15.242 32.7261C17.2158 33.5609 19.3372 33.9908 21.4802 33.9901V30.9901C19.7439 30.9947 18.0244 30.6491 16.4247 29.9738C14.825 29.2986 13.378 28.3075 12.1702 27.0601L9.99023 29.1301Z" fill="url(#paint4_linear_430_12911)"/>
<path d="M5.49009 17.75C5.45788 19.8904 5.85548 22.0154 6.65936 23.9994C7.46324 25.9833 8.65705 27.7858 10.1701 29.3L12.2901 27.18C11.0588 25.9542 10.0876 24.4925 9.4346 22.8825C8.78164 21.2724 8.4604 19.5472 8.49009 17.81L5.49009 17.75Z" fill="url(#paint5_linear_430_12911)"/>
<path d="M10.35 6.48999C8.81594 7.9806 7.59633 9.76366 6.76329 11.7338C5.93025 13.7039 5.50068 15.821 5.5 17.96H8.5C8.49531 16.2236 8.84095 14.5042 9.51622 12.9045C10.1915 11.3048 11.1825 9.85777 12.43 8.64999L10.35 6.48999Z" fill="url(#paint6_linear_430_12911)"/>
<g filter="url(#filter0_f_430_12911)">
<path fill-rule="evenodd" clip-rule="evenodd" d="M14.5486 8.68706L10.3858 4.36414L9.30517 5.41416C7.62729 7.04451 6.29334 8.99474 5.3822 11.1495C4.47106 13.3043 4.00122 15.62 4.00048 17.9595L4 19.4599H10.0045L10.0005 17.9559C9.99633 16.4213 10.3018 14.9016 10.8986 13.4878C11.4954 12.074 12.3713 10.7951 13.4739 9.72762L14.5486 8.68706Z" fill="url(#paint7_linear_430_12911)"/>
</g>
<defs>
<filter id="filter0_f_430_12911" x="0" y="0.364136" width="18.5488" height="23.0958" filterUnits="userSpaceOnUse" color-interpolation-filters="sRGB">
<feFlood flood-opacity="0" result="BackgroundImageFix"/>
<feBlend mode="normal" in="SourceGraphic" in2="BackgroundImageFix" result="shape"/>
<feGaussianBlur stdDeviation="2" result="effect1_foregroundBlur_430_12911"/>
</filter>
<linearGradient id="paint0_linear_430_12911" x1="31.4915" y1="7.48999" x2="23.4915" y2="3.98999" gradientUnits="userSpaceOnUse">
<stop stop-color="#0047BB"/>
<stop offset="1" stop-color="#0047BB" stop-opacity="0"/>
</linearGradient>
<linearGradient id="paint1_linear_430_12911" x1="31.9915" y1="8.48999" x2="34.9915" y2="17.99" gradientUnits="userSpaceOnUse">
<stop stop-color="#0047BB"/>
<stop offset="1" stop-color="#7538A8"/>
</linearGradient>
<linearGradient id="paint2_linear_430_12911" x1="35.9907" y1="17.99" x2="31.9907" y2="28.49" gradientUnits="userSpaceOnUse">
<stop stop-color="#7538A8"/>
<stop offset="1" stop-color="#E96744"/>
</linearGradient>
<linearGradient id="paint3_linear_430_12911" x1="30.49" y1="28.99" x2="21.49" y2="32.99" gradientUnits="userSpaceOnUse">
<stop stop-color="#E96744"/>
<stop offset="1" stop-color="#FBD688"/>
</linearGradient>
<linearGradient id="paint4_linear_430_12911" x1="21.4902" y1="31.99" x2="10.9902" y2="28.49" gradientUnits="userSpaceOnUse">
<stop stop-color="#FBD688"/>
<stop offset="1" stop-color="#E04970"/>
</linearGradient>
<linearGradient id="paint5_linear_430_12911" x1="6.48999" y1="17.99" x2="10.99" y2="28.49" gradientUnits="userSpaceOnUse">
<stop stop-color="#7538A8"/>
<stop offset="1" stop-color="#E04970"/>
</linearGradient>
<linearGradient id="paint6_linear_430_12911" x1="7.48828" y1="18" x2="11.49" y2="7.48999" gradientUnits="userSpaceOnUse">
<stop stop-color="#7538A8"/>
<stop offset="1" stop-color="white"/>
</linearGradient>
<linearGradient id="paint7_linear_430_12911" x1="11.4883" y1="8.5" x2="6.98828" y2="14" gradientUnits="userSpaceOnUse">
<stop stop-color="white"/>
<stop offset="1" stop-color="white" stop-opacity="0"/>
</linearGradient>
</defs>
</svg>
