<svg width="21" height="22" viewBox="0 0 21 22" fill="none" xmlns="http://www.w3.org/2000/svg">
<path d="M17.5403 10H3.54028C2.43571 10 1.54028 10.8954 1.54028 12V19C1.54028 20.1046 2.43571 21 3.54028 21H17.5403C18.6449 21 19.5403 20.1046 19.5403 19V12C19.5403 10.8954 18.6449 10 17.5403 10Z" stroke="white" stroke-width="2" stroke-linecap="round" stroke-linejoin="round"/>
<path d="M5.54028 10V6C5.54028 4.67392 6.06707 3.40215 7.00475 2.46447C7.94243 1.52678 9.2142 1 10.5403 1C11.8664 1 13.1381 1.52678 14.0758 2.46447C15.0135 3.40215 15.5403 4.67392 15.5403 6V10" stroke="white" stroke-width="2" stroke-linecap="round" stroke-linejoin="round"/>
</svg>
