<svg width="453" height="201" viewBox="0 0 453 201" fill="none" xmlns="http://www.w3.org/2000/svg">
<g clip-path="url(#clip0_60_16910)">
<g opacity="0.88">
<path opacity="0.88" d="M435.657 70.6293L319.331 4.26093C318.92 4.02532 318.51 3.80474 318.099 3.58918C289.185 -11.4551 260.181 24.0225 280.01 49.8951L308.267 86.7765C314.471 94.8726 314.471 106.122 308.267 114.218L280.01 151.099C260.186 176.977 289.19 212.45 318.099 197.405C318.51 197.19 318.92 196.969 319.331 196.734L435.652 130.365C458.778 117.171 458.778 83.8187 435.652 70.6243L435.657 70.6293Z" fill="url(#paint0_linear_60_16910)"/>
<path style="mix-blend-mode:multiply" opacity="0.88" d="M308.267 86.7817C314.471 94.8779 314.471 106.127 308.267 114.223L280.01 151.105C260.187 176.982 289.19 212.455 318.099 197.411C318.51 197.195 318.921 196.975 319.332 196.739C364.861 145.656 308.267 86.7817 308.267 86.7817V86.7817Z" fill="url(#paint1_linear_60_16910)"/>
<path style="mix-blend-mode:multiply" opacity="0.88" d="M293.445 198.954C350.234 132.982 308.267 86.7764 308.267 86.7764C314.471 94.8725 314.471 106.122 308.267 114.218L280.01 151.099C266.115 169.237 276.212 192.086 293.445 198.954V198.954Z" fill="url(#paint2_linear_60_16910)"/>
</g>
<path d="M104.139 77.668H98.9975C97.86 77.668 96.948 78.5753 96.948 79.6933V105.14C96.948 112.639 92.2377 115.071 85.2674 115.071H83.4083C76.5232 115.071 71.7427 112.544 71.7427 105.14V79.6933C71.7427 78.5753 70.8307 77.668 69.7032 77.668H64.5369C63.3443 77.668 62.4272 78.5503 62.4272 79.6933V105.375C62.4272 117.452 69.5529 123.839 83.0425 123.839H85.6182C99.1178 123.839 106.263 117.447 106.263 105.375V79.6933C106.263 78.5503 105.331 77.668 104.144 77.668" fill="white"/>
<path d="M179.534 77.6631H137.226C136.064 77.6631 135.187 78.5354 135.187 79.6984V83.9996C135.187 85.1526 136.059 86.0299 137.226 86.0299H153.908V122.194C153.908 123.262 154.84 124.139 155.958 124.139H161.039C162.171 124.139 163.098 123.262 163.098 122.194V86.0299H179.539C180.702 86.0299 181.589 85.1526 181.589 83.9996V79.6984C181.589 78.5354 180.702 77.6631 179.539 77.6631" fill="white"/>
<path d="M195.414 76.9811H190.519C189.371 76.9811 188.469 77.8935 188.469 79.0365V122.049C188.469 123.127 189.381 124.019 190.519 124.019H195.414C196.572 124.019 197.554 123.087 197.554 121.964V79.0314C197.554 77.8885 196.622 76.9761 195.414 76.9761" fill="white"/>
<path d="M315.733 96.6525C308.638 95.0433 303.767 94.7074 303.767 90.3811C303.767 87.9197 303.847 85.1575 310.482 85.1575H319.797C324.593 85.1575 327.179 87.0725 327.204 89.5139C327.234 91.494 328.937 91.7146 330.416 91.7146H334.089C335.141 91.7146 336.168 91.0579 336.168 88.4661C336.168 83.6535 332.134 80.1795 327.209 78.5402C325.124 77.8484 322.884 77.4824 320.709 77.4824H312.847C296.391 77.4824 294.286 84.6111 294.286 90.8022C294.286 100.864 305.21 102.317 314.481 104.458C321.596 106.092 327.204 107.381 327.204 111.692C327.204 113.647 326.357 116.143 320.669 116.143H309.825C303.346 116.143 302.214 115.652 301.903 112.649C301.703 110.694 300.52 110.063 299.057 110.063H295.374C295.374 110.063 293.304 110.098 293.304 112.689C293.304 119.537 299.137 124.29 306.443 124.29H318.139C334.6 124.29 336.704 117.186 336.704 110.985C336.704 100.833 325.044 98.7881 315.743 96.6625" fill="white"/>
<path d="M423.826 85.7137H409.976C403.085 85.7137 399.603 88.3055 399.603 95.8401V122.369C399.603 123.497 398.686 124.415 397.548 124.415H392.843C391.655 124.415 390.728 123.512 390.728 122.369V96.1911C390.728 83.8889 396.115 77.397 409.615 77.397H423.826C424.813 77.397 425.6 78.2041 425.6 79.2167V83.8538C425.6 84.9016 424.823 85.7237 423.826 85.7237" fill="white"/>
<path d="M144.277 116.008H129.495C122.429 116.008 122.188 114.013 122.188 105.947V79.5628C122.188 78.4449 121.276 77.5225 120.144 77.5225H115.328C114.146 77.5225 113.209 78.4248 113.209 79.5628V112.554C113.209 120.264 117.684 124.275 128.337 124.275H144.267C145.254 124.275 146.056 123.477 146.056 122.49V117.868C146.056 116.82 145.269 116.003 144.277 116.003" fill="white"/>
<path d="M236.715 116.128H221.927C214.872 116.123 214.631 114.113 214.631 105.987V79.4273C214.631 78.3044 213.719 77.377 212.597 77.377H207.766C206.589 77.377 205.652 78.2893 205.652 79.4273V112.644C205.652 120.414 210.116 124.47 220.77 124.47H236.705L236.715 124.46C237.692 124.46 238.499 123.653 238.499 122.645V118.003C238.499 116.945 237.712 116.128 236.715 116.128" fill="white"/>
<path d="M268.695 101.906H254.359V94.091C254.359 87.4436 258.824 85.694 263.253 85.694H268.891C273.32 85.694 277.47 88.4111 277.47 94.091L277.49 101.906H268.695ZM268.695 77.7032V77.6831H263.444V77.7032C252.47 77.9137 245.104 84.2553 245.104 93.3641V122.51C245.104 124.475 246.221 124.475 246.592 124.475H252.094C253.672 124.475 254.153 123.994 254.153 122.45V110.348H277.705V122.45C277.705 123.994 278.191 124.475 279.775 124.475H285.317C285.698 124.475 286.81 124.475 286.81 122.51V93.3641C286.81 83.7489 279.669 77.9137 268.695 77.7032Z" fill="white"/>
<path d="M357.355 85.7187H381.864C382.921 85.7187 383.783 84.6409 383.783 83.538V79.4874C383.783 78.3695 382.921 77.4722 381.864 77.4722H352.91C343.685 77.4972 342.738 85.5884 342.738 92.321L342.713 100.678V101.034L342.738 109.381C342.738 116.113 343.68 124.209 352.91 124.229H381.864C382.921 124.229 383.783 123.332 383.783 122.214V117.933C383.783 116.825 382.921 115.747 381.864 115.747H357.355C350.956 115.747 351.703 111.035 351.703 111.035V104.984H381.323C382.365 104.984 383.237 104.062 383.242 102.989V98.9483C383.242 97.8805 382.36 96.953 381.323 96.953H351.703V91.198C351.703 91.198 350.951 85.7187 357.355 85.7187Z" fill="white"/>
<path d="M54.2441 77.668H42.338C40.5741 77.668 39.4817 78.3648 39.0207 79.8286L27.8863 112.694L16.7518 79.8286C16.2757 78.3648 15.1884 77.668 13.4145 77.668H1.51833C0.686508 77.668 0 78.4249 0 79.3373V122.51C0 123.443 0.701541 124.174 1.59851 124.174H7.37119C8.27317 124.174 8.96469 123.443 8.96469 122.51V90.5516C8.9246 89.7295 9.55098 89.3986 9.91177 90.1907L21.3469 120.164C21.848 121.482 22.76 122.104 24.143 122.104H31.6144C33.0075 122.104 33.9245 121.482 34.4306 120.164L45.8607 90.1907C46.2115 89.4036 46.8479 89.7295 46.8028 90.5516V122.51C46.8028 123.443 47.5094 124.174 48.4013 124.174H54.174C55.0609 124.174 55.7725 123.448 55.7725 122.51V79.3373C55.7725 78.4199 55.081 77.668 54.2492 77.668" fill="white"/>
<path d="M1.19751 138.156H17.0072C27.1044 138.156 32.8771 144.593 32.8771 152.528C32.8771 160.464 27.1044 166.841 16.9471 166.841H3.60279V177.123H1.19751V138.156ZM17.4883 164.675C25.3005 164.675 30.4117 159.502 30.4117 152.528C30.4117 145.555 25.3005 140.321 17.5484 140.321H3.60279V164.675H17.4883V164.675Z" fill="#1CACD8"/>
<path d="M40.6292 138.156H43.0344V174.957H69.0616V177.123H40.6292V138.156V138.156Z" fill="#1CACD8"/>
<path d="M92.1974 137.855H93.9413L113.053 177.123H110.588L106.439 168.645H79.7501L75.601 177.123H73.0754L92.1874 137.855H92.1974ZM105.482 166.54L95.2642 145.736C93.7007 142.547 93.0994 140.983 93.0994 140.983C93.0994 140.983 92.438 142.547 90.8745 145.736L80.7172 166.54H105.482Z" fill="#1CACD8"/>
<path d="M127.239 158.118L110.768 138.156H113.654L126.999 154.153C127.72 155.055 128.442 156.138 128.442 156.138C128.442 156.138 129.224 155.055 129.885 154.153L143.169 138.156H146.056L129.645 158.058V177.118H127.239V158.113V158.118Z" fill="#1CACD8"/>
</g>
<defs>
<linearGradient id="paint0_linear_60_16910" x1="397.132" y1="37.593" x2="255.085" y2="159.373" gradientUnits="userSpaceOnUse">
<stop offset="0.05" stop-color="#6E3780"/>
<stop offset="0.08" stop-color="#693D84"/>
<stop offset="0.27" stop-color="#4D65A2"/>
<stop offset="0.45" stop-color="#3884B9"/>
<stop offset="0.62" stop-color="#289ACA"/>
<stop offset="0.79" stop-color="#1FA7D4"/>
<stop offset="0.95" stop-color="#1CACD8"/>
</linearGradient>
<linearGradient id="paint1_linear_60_16910" x1="318.415" y1="28.6349" x2="294.086" y2="275.112" gradientUnits="userSpaceOnUse">
<stop stop-color="#1CACD8"/>
<stop offset="0.03" stop-color="#39B6DC"/>
<stop offset="0.07" stop-color="#62C5E4"/>
<stop offset="0.12" stop-color="#87D3EA"/>
<stop offset="0.18" stop-color="#A8DFF0"/>
<stop offset="0.24" stop-color="#C3E9F4"/>
<stop offset="0.3" stop-color="#D9F1F8"/>
<stop offset="0.38" stop-color="#EAF7FB"/>
<stop offset="0.48" stop-color="#F6FBFD"/>
<stop offset="0.62" stop-color="#FDFEFE"/>
<stop offset="1" stop-color="white"/>
</linearGradient>
<linearGradient id="paint2_linear_60_16910" x1="324.312" y1="68.7794" x2="278.286" y2="219.287" gradientUnits="userSpaceOnUse">
<stop stop-color="#6E3780"/>
<stop offset="0.45" stop-color="#B295BC"/>
<stop offset="0.83" stop-color="#E9E1EC"/>
<stop offset="1" stop-color="white"/>
</linearGradient>
<clipPath id="clip0_60_16910">
<rect width="453" height="201" fill="white"/>
</clipPath>
</defs>
</svg>
