<svg width="74" height="14" viewBox="0 0 74 14" fill="none" xmlns="http://www.w3.org/2000/svg">
<path d="M46.6283 0.688003V1.96922C46.6283 3.05068 45.7516 3.92715 44.6699 3.92715H42.7116C42.3377 3.92715 42.0347 4.23041 42.0347 4.60387V13.1131C42.0347 13.487 41.7314 13.7898 41.3579 13.7898H38.118C37.7441 13.7898 37.4412 13.4866 37.4412 13.1131V4.60387C37.4412 4.23001 37.1379 3.92715 36.7643 3.92715H34.806C33.7243 3.92715 32.8477 3.05068 32.8477 1.96922V0.688003C32.8477 0.314147 33.151 0.0112919 33.5245 0.0112919H45.9522C46.325 0.0108908 46.6283 0.314147 46.6283 0.688003Z" fill="white"/>
<path d="M73.1087 0.697313V13.0963C73.1087 13.4642 72.8106 13.7622 72.4427 13.7622H70.8197C70.1874 13.7622 69.6153 13.5059 69.2012 13.0919C68.7872 12.678 68.5308 12.1059 68.5308 11.4738V9.85117C68.5308 9.48333 68.2327 9.18529 67.8648 9.18529H64.6189C64.251 9.18529 63.9529 9.48333 63.9529 9.85117V11.4738C63.9529 12.7377 62.9282 13.7622 61.6639 13.7622H60.041C59.6731 13.7622 59.375 13.4642 59.375 13.0963V0.697313C59.375 0.329474 59.6731 0.0314331 60.041 0.0314331H61.6639C62.2963 0.0314331 62.8684 0.287758 63.2825 0.701727C63.6965 1.1157 63.9529 1.68771 63.9529 2.3199V3.94248C63.9529 4.31032 64.251 4.60836 64.6189 4.60836H67.8648C68.2327 4.60836 68.5308 4.31032 68.5308 3.94248V2.3199C68.5308 1.68771 68.7872 1.1157 69.2012 0.701727C69.6153 0.287758 70.1874 0.0314331 70.8197 0.0314331H72.4427C72.8106 0.0314331 73.1087 0.329474 73.1087 0.697313Z" fill="white"/>
<path d="M51.4651 5.29546C51.0507 5.70943 50.7947 6.28145 50.7947 6.91364C50.7947 7.54582 51.0507 8.11744 51.4651 8.53181C51.8792 8.94578 52.4513 9.2021 53.0836 9.2021H55.3726C56.0049 9.2021 56.5766 9.45802 56.9911 9.87239C57.4052 10.2864 57.6615 10.8584 57.6615 11.4906V13.1071C57.6615 13.475 57.363 13.773 56.9955 13.773L53.0836 13.7794C52.2808 13.7794 51.5105 13.6418 50.7947 13.3887C48.8436 12.6992 47.2973 11.1532 46.6076 9.2025C46.3544 8.48688 46.2168 7.7163 46.2168 6.91404C46.2168 6.11137 46.3544 5.34119 46.6076 4.62557C46.9526 3.65042 47.5115 2.77595 48.2281 2.05953C48.9447 1.3431 49.8189 0.784323 50.7947 0.439348C51.5105 0.186233 52.2808 0.048645 53.0836 0.048645H56.9955C57.363 0.048645 57.6615 0.346686 57.6615 0.714525V2.33711C57.6615 3.60068 56.6364 4.62557 55.3726 4.62557H53.0836C52.4513 4.62517 51.8792 4.88109 51.4651 5.29546Z" fill="white"/>
<path d="M35.5329 13.1549C35.5333 13.5043 35.248 13.7899 34.899 13.7899H32.2313C31.3197 13.7899 30.5321 13.2596 30.161 12.491L30.1598 12.4882L30.1229 12.4088L30.1197 12.4012L30.1189 12.4L30.1132 12.3863L29.9323 11.9932L28.6488 9.19372L28.0048 7.78735C27.8592 7.47045 27.409 7.47045 27.2634 7.78735L26.6186 9.19372L25.3351 11.9932L25.155 12.3863L25.149 12.4L25.1482 12.4012L25.145 12.4088L25.1081 12.4882L25.1073 12.491C24.9207 12.8753 24.631 13.2002 24.2739 13.4289C23.9168 13.6575 23.4924 13.7899 23.0362 13.7899H20.4066C20.0796 13.7899 19.7883 13.5572 19.7422 13.2335C19.7342 13.1762 19.7321 13.1196 19.737 13.0651C19.7434 12.9872 19.7687 12.9118 19.8036 12.842L25.5867 1.25249C25.9675 0.509187 26.741 0.000549316 27.6341 0.000549316C28.5264 0.000549316 29.3004 0.509187 29.6807 1.25249L29.706 1.30223L35.4623 12.8388C35.5088 12.9319 35.5329 13.0342 35.5329 13.1381V13.1549Z" fill="white"/>
<path d="M23.8419 0.667888C23.8419 0.772584 23.8174 0.876077 23.7705 0.969942L17.9311 12.5671C17.8252 12.7625 17.6916 12.9406 17.5359 13.0962C17.1211 13.511 16.5469 13.7681 15.913 13.7681C15.4512 13.7681 15.0211 13.6313 14.6616 13.3966C14.5276 13.3096 14.4032 13.2081 14.2901 13.0962C14.122 12.9277 13.9791 12.7324 13.8692 12.5182L12.7586 10.2967C12.599 9.97699 12.1424 9.97659 11.9811 10.2959L10.8376 12.5671C10.7317 12.7625 10.5977 12.9406 10.4424 13.0962C10.3297 13.2085 10.2049 13.3096 10.0709 13.3966C9.71099 13.6313 9.28129 13.7681 8.81948 13.7681C8.18556 13.7681 7.61142 13.511 7.19656 13.0962C7.02805 12.9277 6.88521 12.7324 6.77568 12.5182L0.933555 0.837165C0.907877 0.784616 0.890625 0.726855 0.890625 0.668691V0.667888C0.890625 0.299246 1.18913 0 1.55865 0H4.22916C4.69096 0 5.12106 0.136787 5.48136 0.37145C5.61536 0.458496 5.73934 0.559983 5.85208 0.672701C6.02059 0.840776 6.16342 1.03573 6.27296 1.24993L8.4303 5.56412C8.59079 5.88422 9.04778 5.88422 9.20786 5.56412L9.79966 4.38078L8.06439 0.911376C7.85576 0.492593 8.15948 0 8.6277 0H11.3231C11.5393 0 11.7488 0.030086 11.9474 0.0862446C12.3301 0.194551 12.6724 0.399128 12.946 0.6723C13.1145 0.840374 13.2569 1.03533 13.3669 1.24953L15.5242 5.56372C15.6839 5.88382 16.1413 5.88382 16.3018 5.56372L16.7897 4.58937L18.4595 1.24993C18.6425 0.892924 18.9165 0.589666 19.2511 0.37145C19.6114 0.136787 20.0415 0 20.5033 0H23.1738C23.543 0 23.8419 0.299246 23.8419 0.667888Z" fill="white"/>
</svg>
