<svg width="73" height="14" viewBox="0 0 73 14" fill="none" xmlns="http://www.w3.org/2000/svg">
<path d="M45.7376 0.687942V1.96916C45.7376 3.05062 44.861 3.92709 43.7793 3.92709H41.821C41.447 3.92709 41.1441 4.23035 41.1441 4.6038V13.113C41.1441 13.4869 40.8408 13.7898 40.4673 13.7898H37.2274C36.8535 13.7898 36.5506 13.4865 36.5506 13.113V4.6038C36.5506 4.22995 36.2472 3.92709 35.8737 3.92709H33.9154C32.8337 3.92709 31.957 3.05062 31.957 1.96916V0.687942C31.957 0.314086 32.2604 0.0112309 32.6339 0.0112309H45.0616C45.4343 0.0108297 45.7376 0.314086 45.7376 0.687942Z" fill="white"/>
<path d="M72.2181 0.697374V13.0964C72.2181 13.4642 71.9199 13.7623 71.552 13.7623H69.9291C69.2968 13.7623 68.7246 13.506 68.3106 13.092C67.8965 12.678 67.6402 12.106 67.6402 11.4738V9.85123C67.6402 9.48339 67.3421 9.18535 66.9741 9.18535H63.7283C63.3604 9.18535 63.0623 9.48339 63.0623 9.85123V11.4738C63.0623 12.7378 62.0376 13.7623 60.7733 13.7623H59.1504C58.7825 13.7623 58.4844 13.4642 58.4844 13.0964V0.697374C58.4844 0.329535 58.7825 0.0314941 59.1504 0.0314941H60.7733C61.4056 0.0314941 61.9778 0.287819 62.3918 0.701788C62.8059 1.11576 63.0623 1.68777 63.0623 2.31996V3.94254C63.0623 4.31038 63.3604 4.60842 63.7283 4.60842H66.9741C67.3421 4.60842 67.6402 4.31038 67.6402 3.94254V2.31996C67.6402 1.68777 67.8965 1.11576 68.3106 0.701788C68.7246 0.287819 69.2968 0.0314941 69.9291 0.0314941H71.552C71.9199 0.0314941 72.2181 0.329535 72.2181 0.697374Z" fill="white"/>
<path d="M50.5745 5.2954C50.16 5.70937 49.9041 6.28139 49.9041 6.91358C49.9041 7.54576 50.16 8.11738 50.5745 8.53175C50.9886 8.94571 51.5607 9.20204 52.193 9.20204H54.482C55.1143 9.20204 55.686 9.45796 56.1005 9.87233C56.5145 10.2863 56.7709 10.8583 56.7709 11.4905V13.1071C56.7709 13.4749 56.4724 13.773 56.1049 13.773L52.193 13.7794C51.3902 13.7794 50.6198 13.6418 49.9041 13.3887C47.9529 12.6991 46.4067 11.1532 45.717 9.20244C45.4638 8.48682 45.3262 7.71624 45.3262 6.91398C45.3262 6.11131 45.4638 5.34113 45.717 4.62551C46.062 3.65036 46.6209 2.77589 47.3375 2.05946C48.0541 1.34304 48.9283 0.784262 49.9041 0.439287C50.6198 0.186172 51.3902 0.048584 52.193 0.048584H56.1049C56.4724 0.048584 56.7709 0.346625 56.7709 0.714464V2.33705C56.7709 3.60062 55.7458 4.62551 54.482 4.62551H52.193C51.5607 4.62511 50.9886 4.88103 50.5745 5.2954Z" fill="white"/>
<path d="M34.6423 13.1548C34.6427 13.5042 34.3574 13.7898 34.0083 13.7898H31.3406C30.4291 13.7898 29.6415 13.2595 29.2704 12.491L29.2692 12.4882L29.2322 12.4087L29.229 12.4011L29.2282 12.3999L29.2226 12.3863L29.0417 11.9932L27.7582 9.19366L27.1142 7.78729C26.9686 7.47039 26.5184 7.47039 26.3728 7.78729L25.728 9.19366L24.4445 11.9932L24.2644 12.3863L24.2584 12.3999L24.2576 12.4011L24.2543 12.4087L24.2174 12.4882L24.2166 12.491C24.0301 12.8753 23.7404 13.2002 23.3833 13.4288C23.0262 13.6575 22.6017 13.7898 22.1455 13.7898H19.516C19.189 13.7898 18.8977 13.5572 18.8516 13.2335C18.8435 13.1761 18.8415 13.1195 18.8463 13.065C18.8528 12.9872 18.878 12.9118 18.9129 12.842L24.6961 1.25243C25.0768 0.509126 25.8504 0.000488281 26.7435 0.000488281C27.6358 0.000488281 28.4098 0.509126 28.7901 1.25243L28.8154 1.30217L34.5717 12.8388C34.6182 12.9318 34.6423 13.0341 34.6423 13.138V13.1548Z" fill="white"/>
<path d="M22.9512 0.667888C22.9512 0.772584 22.9268 0.876077 22.8798 0.969942L17.0405 12.5671C16.9346 12.7625 16.801 12.9406 16.6453 13.0962C16.2304 13.511 15.6563 13.7681 15.0224 13.7681C14.5606 13.7681 14.1305 13.6313 13.771 13.3966C13.637 13.3096 13.5126 13.2081 13.3995 13.0962C13.2313 12.9277 13.0885 12.7324 12.9786 12.5182L11.868 10.2967C11.7083 9.97699 11.2517 9.97659 11.0905 10.2959L9.94698 12.5671C9.84106 12.7625 9.70706 12.9406 9.55178 13.0962C9.43904 13.2085 9.31426 13.3096 9.18026 13.3966C8.82036 13.6313 8.39066 13.7681 7.92886 13.7681C7.29494 13.7681 6.72079 13.511 6.30593 13.0962C6.13742 12.9277 5.99459 12.7324 5.88506 12.5182L0.0429303 0.837165C0.0172523 0.784616 0 0.726855 0 0.668691V0.667888C0 0.299246 0.298506 0 0.668027 0H3.33853C3.80033 0 4.23044 0.136787 4.59073 0.37145C4.72474 0.458496 4.84871 0.559983 4.96146 0.672701C5.12997 0.840776 5.2728 1.03573 5.38233 1.24993L7.53968 5.56412C7.70017 5.88422 8.15715 5.88422 8.31724 5.56412L8.90903 4.38078L7.17377 0.911376C6.96514 0.492593 7.26886 0 7.73708 0H10.4325C10.6487 0 10.8581 0.030086 11.0568 0.0862446C11.4395 0.194551 11.7818 0.399128 12.0554 0.6723C12.2239 0.840374 12.3663 1.03533 12.4763 1.24953L14.6336 5.56372C14.7933 5.88382 15.2507 5.88382 15.4112 5.56372L15.899 4.58937L17.5689 1.24993C17.7519 0.892924 18.0259 0.589666 18.3605 0.37145C18.7208 0.136787 19.1509 0 19.6127 0H22.2832C22.6523 0 22.9512 0.299246 22.9512 0.667888Z" fill="white"/>
</svg>
