<svg width="136" height="24" viewBox="0 0 136 24" fill="none" xmlns="http://www.w3.org/2000/svg">
<path d="M79.6359 1.1969V3.42667C79.636 3.87423 79.5479 4.31744 79.3767 4.73098C79.2054 5.14452 78.9543 5.52029 78.6376 5.83682C78.321 6.15335 77.9451 6.40444 77.5314 6.57575C77.1176 6.74707 76.6741 6.83524 76.2263 6.83524H72.8155C72.5035 6.83679 72.2047 6.96136 71.984 7.18187C71.7634 7.40238 71.6387 7.70101 71.6371 8.01285V22.8224C71.6356 23.1352 71.5101 23.4347 71.2882 23.6554C71.0663 23.8761 70.7659 24 70.4529 24H64.8168C64.5048 23.9984 64.2059 23.8739 63.9853 23.6533C63.7646 23.4328 63.64 23.1342 63.6384 22.8224V8.01285C63.6369 7.69999 63.5114 7.40047 63.2895 7.17979C63.0675 6.95912 62.7672 6.83523 62.4541 6.83524H59.0434C58.5955 6.83524 58.152 6.74707 57.7383 6.57575C57.3246 6.40444 56.9486 6.15335 56.632 5.83682C56.3154 5.52029 56.0643 5.14452 55.893 4.73098C55.7217 4.31744 55.6336 3.87423 55.6338 3.42667V1.1969C55.6338 0.884028 55.7577 0.583891 55.9786 0.362105C56.1994 0.140319 56.4991 0.014931 56.8122 0.0133667H78.4516C78.7657 0.0133667 79.0669 0.138062 79.289 0.360017C79.5111 0.581972 79.6359 0.883005 79.6359 1.1969Z" fill="white"/>
<path d="M125.746 1.21348V22.7928C125.746 23.1001 125.624 23.3948 125.406 23.6121C125.189 23.8294 124.894 23.9515 124.587 23.9515H121.76C120.703 23.9512 119.689 23.5313 118.942 22.7842C118.194 22.0372 117.775 21.0241 117.775 19.9677V17.1438C117.775 16.8365 117.652 16.5418 117.435 16.3245C117.218 16.1072 116.923 15.9851 116.615 15.9851H110.964C110.656 15.9851 110.361 16.1072 110.144 16.3245C109.926 16.5418 109.804 16.8365 109.804 17.1438V19.9677C109.805 20.491 109.702 21.0093 109.502 21.4929C109.302 21.9765 109.008 22.4159 108.638 22.7861C108.268 23.1563 107.829 23.45 107.345 23.6503C106.861 23.8507 106.343 23.9538 105.819 23.9538H102.993C102.686 23.9538 102.391 23.8318 102.174 23.6145C101.956 23.3972 101.834 23.1025 101.834 22.7952V1.21348C101.834 0.906183 101.956 0.611473 102.174 0.394179C102.391 0.176885 102.686 0.0548096 102.993 0.0548096H105.819C106.876 0.0548096 107.89 0.474399 108.637 1.22128C109.384 1.96816 109.804 2.98114 109.804 4.03738V6.86129C109.804 7.16859 109.926 7.4633 110.144 7.6806C110.361 7.89789 110.656 8.01997 110.964 8.01997H116.615C116.923 8.01997 117.218 7.89789 117.435 7.6806C117.652 7.4633 117.775 7.16859 117.775 6.86129V4.03738C117.775 2.98114 118.194 1.96816 118.942 1.22128C119.689 0.474399 120.703 0.0548096 121.76 0.0548096H124.587C124.894 0.0548096 125.189 0.176885 125.406 0.394179C125.624 0.611473 125.746 0.906183 125.746 1.21348V1.21348Z" fill="white"/>
<path d="M88.0593 9.21654C87.5021 9.77358 87.1227 10.4832 86.9691 11.2558C86.8154 12.0283 86.8944 12.829 87.1961 13.5566C87.4978 14.2843 88.0086 14.9062 88.664 15.3437C89.3193 15.7813 90.0898 16.0148 90.8779 16.0147H94.8631C95.9201 16.0151 96.9338 16.4349 97.6811 17.182C98.4284 17.929 98.8482 18.9422 98.8482 19.9985V22.8118C98.8482 23.1191 98.7261 23.4138 98.5087 23.6311C98.2912 23.8484 97.9963 23.9704 97.6888 23.9704L90.8779 23.9811C89.2778 24.0288 87.6844 23.7551 86.1921 23.1761C84.6997 22.5972 83.3389 21.7247 82.1902 20.6105C81.0414 19.4963 80.1282 18.1629 79.5045 16.6895C78.8809 15.2161 78.5596 13.6326 78.5596 12.0328C78.5596 10.433 78.8809 8.84941 79.5045 7.376C80.1282 5.90258 81.0414 4.56925 82.1902 3.45503C83.3389 2.3408 84.6997 1.46836 86.1921 0.889378C87.6844 0.310401 89.2778 0.0366771 90.8779 0.0844278H97.6888C97.9963 0.0844278 98.2912 0.206503 98.5087 0.423797C98.7261 0.641091 98.8482 0.935801 98.8482 1.2431V4.07056C98.8479 5.12671 98.428 6.13951 97.6807 6.88632C96.9334 7.63313 95.9199 8.05282 94.8631 8.05314H90.8779C90.3546 8.052 89.8362 8.15419 89.3525 8.35384C88.8688 8.55349 88.4293 8.84667 88.0593 9.21654Z" fill="white"/>
<path d="M60.3181 22.8945C60.3178 23.1872 60.2015 23.4678 59.9947 23.675C59.7878 23.8822 59.5072 23.999 59.2144 24H54.5696C53.8168 24.0002 53.0791 23.7882 52.4415 23.3883C51.8038 22.9885 51.2919 22.4169 50.9646 21.7394V21.7394L50.9006 21.6009V21.5879L50.8912 21.5642L50.5667 20.8766L48.3319 16.0005L47.2104 13.5529C47.1536 13.4296 47.0626 13.3252 46.9482 13.252C46.8338 13.1787 46.7008 13.1398 46.5649 13.1398C46.4291 13.1398 46.2961 13.1787 46.1817 13.252C46.0673 13.3252 45.9763 13.4296 45.9195 13.5529L44.7944 16.0005L42.562 20.8766L42.2482 21.5607L42.2375 21.5844V21.5974L42.1736 21.7359C41.8497 22.4031 41.3477 22.9679 40.7228 23.3679C40.0795 23.7796 39.3313 23.9978 38.5674 23.9964H33.9806C33.7036 24 33.4345 23.9042 33.2221 23.7263C33.0098 23.5485 32.8684 23.3003 32.8236 23.0271C32.8097 22.9303 32.8069 22.8322 32.8153 22.7348C32.8289 22.5988 32.8691 22.4669 32.9337 22.3466L43.0002 2.17566C43.3364 1.52088 43.8468 0.971474 44.4753 0.587888C45.1038 0.204302 45.8259 0.00140358 46.5623 0.00152593C47.2988 0.00164828 48.0209 0.204787 48.6492 0.588581C49.2776 0.972376 49.7878 1.52195 50.1237 2.17684L50.1676 2.26324L60.1902 22.3442C60.2695 22.5063 60.31 22.6845 60.3087 22.8649L60.3181 22.8945Z" fill="white"/>
<path d="M39.9616 1.16257C39.9615 1.345 39.919 1.52491 39.8373 1.68806L29.6701 21.872C29.3734 22.4183 28.9532 22.8878 28.4431 23.2434C27.9329 23.5989 27.3467 23.8306 26.7312 23.92C26.1157 24.0094 25.4878 23.954 24.8975 23.7584C24.3071 23.5627 23.7706 23.232 23.3306 22.7928C23.0359 22.4971 22.7886 22.1578 22.5975 21.7868L20.6635 17.9178C20.6004 17.7926 20.5037 17.6873 20.3842 17.6138C20.2647 17.5402 20.1271 17.5013 19.9867 17.5013C19.8464 17.5013 19.7088 17.5402 19.5893 17.6138C19.4698 17.6873 19.3731 17.7926 19.3099 17.9178L17.3191 21.872C17.0016 22.457 16.5428 22.9533 15.9844 23.3159C15.5151 23.6208 14.9869 23.8238 14.434 23.9118C13.8812 23.9997 13.3161 23.9707 12.7752 23.8266C12.2343 23.6824 11.7297 23.4264 11.2941 23.075C10.8585 22.7236 10.5016 22.2847 10.2465 21.7868L0.0746111 1.45727C0.0276472 1.3664 0.00212432 1.266 0 1.16375V1.16375C0 0.855512 0.122525 0.559895 0.340625 0.341935C0.558726 0.123976 0.854533 0.00152602 1.16297 0.00152602H5.81251C6.54846 0.00226008 7.26996 0.205677 7.89778 0.589434C8.5256 0.97319 9.03545 1.52244 9.37131 2.17686L13.1279 9.68517C13.1908 9.81077 13.2874 9.91639 13.4069 9.99021C13.5264 10.064 13.6642 10.1031 13.8047 10.1031C13.9452 10.1031 14.083 10.064 14.2025 9.99021C14.3221 9.91639 14.4187 9.81077 14.4815 9.68517L15.5119 7.62583L12.4907 1.58982C12.4072 1.42276 12.3677 1.23713 12.3761 1.05055C12.3846 0.863972 12.4405 0.682632 12.5388 0.523749C12.637 0.364865 12.7742 0.233711 12.9375 0.142728C13.1007 0.0517444 13.2844 0.00395579 13.4713 0.00389539H18.1647C18.9004 0.00440586 19.6217 0.207467 20.2495 0.590792C20.8773 0.974116 21.3873 1.52288 21.7235 2.17686L25.4801 9.68517C25.5429 9.81077 25.6395 9.91639 25.7591 9.99021C25.8786 10.064 26.0164 10.1031 26.1569 10.1031C26.2974 10.1031 26.4352 10.064 26.5547 9.99021C26.6742 9.91639 26.7709 9.81077 26.8337 9.68517L27.6829 7.98917L30.5903 2.17686C30.9254 1.52184 31.4351 0.972079 32.0631 0.58822C32.6911 0.204362 33.413 0.00132846 34.1491 0.00152602H38.7986C39.1069 0.00152586 39.4025 0.123813 39.6206 0.341516C39.8386 0.55922 39.9613 0.854532 39.9616 1.16257V1.16257Z" fill="white"/>
<path d="M131.291 1.95084C131.614 2.14376 131.764 2.43253 131.764 2.83493C131.764 3.66341 131.101 3.96876 130.296 3.96876H128.792C128.777 3.97024 128.763 3.96847 128.749 3.96358C128.735 3.95869 128.723 3.9508 128.712 3.94049C128.702 3.93018 128.694 3.9177 128.689 3.90396C128.684 3.89022 128.683 3.87556 128.684 3.86105V0.108083C128.683 0.0936216 128.685 0.0790542 128.69 0.0654129C128.695 0.0517715 128.703 0.039386 128.713 0.029121C128.723 0.018856 128.736 0.0109631 128.749 0.00599796C128.763 0.00103277 128.777 -0.000887036 128.792 0.00037792H130.244C131.169 0.00037792 131.703 0.284424 131.703 1.12355C131.714 1.27735 131.682 1.43119 131.609 1.56745C131.537 1.70371 131.428 1.81688 131.294 1.89403C131.256 1.9106 131.256 1.94019 131.291 1.95084ZM129.751 0.959042V1.49163C129.751 1.49767 129.751 1.50376 129.753 1.50947C129.756 1.51517 129.759 1.52035 129.763 1.52464C129.767 1.52893 129.773 1.53222 129.778 1.53429C129.784 1.53635 129.79 1.53715 129.796 1.53661H130.244C130.516 1.53661 130.658 1.4289 130.658 1.22534C130.658 1.02177 130.516 0.912882 130.244 0.912882H129.796C129.79 0.911707 129.783 0.912065 129.777 0.91393C129.771 0.915795 129.765 0.919117 129.76 0.923617C129.755 0.928117 129.752 0.933671 129.75 0.939827C129.747 0.945983 129.747 0.952568 129.748 0.959042H129.751ZM130.699 2.72131C130.699 2.51183 130.562 2.40413 130.301 2.40413H129.796C129.79 2.40355 129.784 2.40437 129.778 2.4065C129.772 2.40864 129.767 2.41204 129.763 2.41647C129.758 2.42089 129.755 2.42622 129.753 2.43208C129.751 2.43793 129.75 2.44415 129.751 2.45029V3.01128C129.751 3.01732 129.751 3.02341 129.753 3.02911C129.756 3.03482 129.759 3.04 129.763 3.04429C129.767 3.04858 129.773 3.05187 129.778 3.05394C129.784 3.05601 129.79 3.0568 129.796 3.05625H130.296C130.559 3.05625 130.695 2.94263 130.695 2.72131H130.699Z" fill="white"/>
<path d="M134.156 3.88946L133.542 2.47751C133.538 2.46664 133.53 2.45751 133.52 2.45152C133.51 2.44553 133.498 2.44302 133.486 2.44437H133.282C133.275 2.44383 133.269 2.44461 133.264 2.44668C133.258 2.44875 133.253 2.45204 133.248 2.45633C133.244 2.46062 133.241 2.46581 133.239 2.47151C133.237 2.47721 133.236 2.4833 133.237 2.48935V3.86105C133.238 3.87556 133.236 3.89022 133.231 3.90396C133.226 3.9177 133.219 3.93018 133.208 3.94049C133.198 3.9508 133.185 3.95869 133.172 3.96358C133.158 3.96847 133.143 3.97024 133.129 3.96876H132.277C132.263 3.97024 132.248 3.96847 132.234 3.96358C132.221 3.95869 132.208 3.9508 132.198 3.94049C132.187 3.93018 132.18 3.9177 132.175 3.90396C132.17 3.89022 132.168 3.87556 132.169 3.86105V0.108083C132.168 0.0936216 132.17 0.0790542 132.175 0.0654129C132.18 0.0517715 132.188 0.039386 132.198 0.029121C132.208 0.018856 132.221 0.0109631 132.235 0.00599796C132.248 0.00103277 132.263 -0.000887036 132.277 0.00037792H133.972C134.749 0.00037792 135.265 0.504561 135.265 1.26439C135.275 1.48963 135.216 1.71253 135.095 1.90301C134.974 2.09348 134.798 2.24236 134.59 2.32956C134.584 2.33114 134.579 2.334 134.575 2.33792C134.57 2.34184 134.567 2.34673 134.564 2.3522C134.562 2.35768 134.561 2.3636 134.561 2.36952C134.562 2.37544 134.564 2.38121 134.566 2.38638L135.259 3.84922C135.294 3.92852 135.259 3.96757 135.18 3.96757H134.277C134.251 3.96988 134.225 3.96347 134.203 3.94933C134.181 3.9352 134.164 3.91413 134.156 3.88946V3.88946ZM133.237 0.959042V1.58513C133.236 1.59126 133.236 1.59749 133.238 1.60334C133.24 1.60919 133.244 1.61452 133.248 1.61895C133.252 1.62337 133.258 1.62677 133.263 1.62891C133.269 1.63104 133.275 1.63186 133.282 1.63129H133.798C134.042 1.63129 134.206 1.48926 134.206 1.27623C134.206 1.06319 134.042 0.912882 133.798 0.912882H133.282C133.275 0.912309 133.269 0.913117 133.263 0.915252C133.258 0.917386 133.252 0.920795 133.248 0.92522C133.244 0.929646 133.24 0.934979 133.238 0.940831C133.236 0.946683 133.236 0.952906 133.237 0.959042V0.959042Z" fill="white"/>
</svg>
