<svg width="37" height="20" viewBox="0 0 37 20" fill="none" xmlns="http://www.w3.org/2000/svg">
<rect width="37" height="20" fill="white"/>
<path d="M12.9395 16.6074V15.7289C12.9446 15.655 12.934 15.5809 12.9084 15.5115C12.8828 15.4421 12.8428 15.3789 12.791 15.3263C12.7393 15.2736 12.677 15.2327 12.6083 15.2062C12.5396 15.1797 12.466 15.1682 12.3926 15.1726C12.2965 15.1662 12.2004 15.186 12.1144 15.2298C12.0284 15.2735 11.9557 15.3397 11.9039 15.4215C11.8566 15.3422 11.7889 15.2772 11.708 15.2334C11.6271 15.1896 11.536 15.1686 11.4442 15.1726C11.3642 15.1685 11.2845 15.1855 11.2131 15.222C11.1417 15.2585 11.0809 15.3131 11.0369 15.3805V15.2077H10.7344V16.6074H11.0398V15.8373C11.0333 15.7894 11.0374 15.7407 11.0518 15.6946C11.0662 15.6485 11.0905 15.6062 11.123 15.5707C11.1555 15.5351 11.1955 15.5073 11.2399 15.4891C11.2844 15.4709 11.3323 15.4628 11.3802 15.4654C11.5809 15.4654 11.6828 15.5972 11.6828 15.8343V16.6132H11.9882V15.8373C11.982 15.7894 11.9863 15.7408 12.0007 15.6949C12.0152 15.6489 12.0396 15.6067 12.072 15.5712C12.1045 15.5357 12.1443 15.5079 12.1886 15.4896C12.233 15.4713 12.2807 15.463 12.3286 15.4654C12.5351 15.4654 12.6341 15.5972 12.6341 15.8343V16.6132L12.9395 16.6074ZM17.4589 15.2077H16.9614V14.7831H16.656V15.2077H16.3796V15.4859H16.6618V16.1301C16.6618 16.4551 16.7869 16.6484 17.1447 16.6484C17.2784 16.6488 17.4095 16.6113 17.5229 16.54L17.4356 16.2794C17.3545 16.3281 17.2624 16.3553 17.168 16.3585C17.0225 16.3585 16.9672 16.2648 16.9672 16.1242V15.4859H17.4618L17.4589 15.2077ZM20.0393 15.1726C19.9655 15.1704 19.8926 15.1883 19.8281 15.2244C19.7635 15.2604 19.7099 15.3133 19.6728 15.3775V15.2077H19.3731V16.6074H19.6757V15.8226C19.6757 15.5913 19.7746 15.4625 19.9666 15.4625C20.0313 15.4616 20.0956 15.4735 20.1557 15.4976L20.2488 15.2048C20.1797 15.1799 20.1069 15.167 20.0335 15.1667L20.0393 15.1726ZM16.1381 15.319C15.9669 15.2165 15.77 15.1657 15.5708 15.1726C15.2188 15.1726 14.989 15.3424 14.989 15.6206C14.989 15.849 15.1577 15.9895 15.469 16.0334L15.6145 16.0539C15.7803 16.0774 15.8589 16.1213 15.8589 16.2003C15.8589 16.3087 15.7483 16.3702 15.5418 16.3702C15.3756 16.375 15.2127 16.3235 15.0792 16.2238L14.9337 16.461C15.11 16.5848 15.3211 16.6484 15.5359 16.6425C15.9374 16.6425 16.1701 16.4522 16.1701 16.1857C16.1701 15.9192 15.9869 15.8109 15.6843 15.767L15.5388 15.7465C15.4079 15.7289 15.3032 15.7026 15.3032 15.6089C15.3032 15.5152 15.4021 15.4449 15.5679 15.4449C15.7212 15.4467 15.8715 15.488 16.0043 15.5649L16.1381 15.319ZM24.2416 15.1726C24.1678 15.1704 24.0948 15.1883 24.0303 15.2244C23.9658 15.2604 23.9122 15.3133 23.875 15.3775V15.2077H23.5754V16.6074H23.878V15.8226C23.878 15.5913 23.9769 15.4625 24.1689 15.4625C24.2336 15.4616 24.2978 15.4735 24.358 15.4976L24.4511 15.2048C24.382 15.1799 24.3092 15.167 24.2358 15.1667L24.2416 15.1726ZM20.3433 15.9046C20.3397 16.003 20.3566 16.101 20.3928 16.1924C20.429 16.2839 20.4837 16.3667 20.5536 16.4356C20.6234 16.5045 20.7067 16.558 20.7983 16.5926C20.8898 16.6272 20.9875 16.6422 21.0852 16.6366C21.2668 16.6459 21.4453 16.5864 21.5855 16.4697L21.4401 16.2238C21.3355 16.304 21.208 16.3482 21.0764 16.3497C20.9646 16.3406 20.8603 16.2894 20.7842 16.2064C20.7081 16.1234 20.6659 16.0146 20.6659 15.9017C20.6659 15.7887 20.7081 15.68 20.7842 15.5969C20.8603 15.5139 20.9646 15.4628 21.0764 15.4537C21.208 15.4551 21.3355 15.4993 21.4401 15.5796L21.5855 15.3336C21.4453 15.217 21.2668 15.1574 21.0852 15.1667C20.9875 15.1611 20.8898 15.1762 20.7983 15.2108C20.7067 15.2454 20.6234 15.2989 20.5536 15.3678C20.4837 15.4367 20.429 15.5195 20.3928 15.6109C20.3566 15.7024 20.3397 15.8004 20.3433 15.8987V15.9046ZM23.1768 15.9046V15.2077H22.8743V15.3775C22.8229 15.311 22.7565 15.2577 22.6807 15.2221C22.6048 15.1864 22.5216 15.1695 22.4379 15.1726C22.245 15.1726 22.06 15.2497 21.9236 15.387C21.7873 15.5243 21.7106 15.7105 21.7106 15.9046C21.7106 16.0988 21.7873 16.285 21.9236 16.4222C22.06 16.5595 22.245 16.6366 22.4379 16.6366C22.5216 16.6397 22.6048 16.6228 22.6807 16.5871C22.7565 16.5515 22.8229 16.4982 22.8743 16.4317V16.6015H23.1768V15.9046ZM22.051 15.9046C22.0558 15.8222 22.0845 15.7431 22.1334 15.6768C22.1824 15.6106 22.2495 15.5603 22.3266 15.532C22.4036 15.5037 22.4872 15.4987 22.567 15.5176C22.6468 15.5366 22.7194 15.5785 22.7758 15.6384C22.8322 15.6984 22.8699 15.7736 22.8844 15.8548C22.8989 15.936 22.8895 16.0197 22.8573 16.0956C22.8251 16.1715 22.7715 16.2363 22.7032 16.282C22.6349 16.3276 22.5548 16.3522 22.4728 16.3526C22.4152 16.3533 22.3581 16.3421 22.3051 16.3195C22.252 16.2969 22.2042 16.2636 22.1645 16.2215C22.1249 16.1794 22.0944 16.1295 22.0748 16.075C22.0553 16.0205 22.0472 15.9625 22.051 15.9046V15.9046ZM18.4 15.1726C18.2071 15.1753 18.0232 15.255 17.8888 15.3943C17.7543 15.5335 17.6803 15.7207 17.683 15.9149C17.6857 16.109 17.7649 16.2941 17.9032 16.4295C18.0414 16.5648 18.2275 16.6393 18.4204 16.6366C18.6296 16.6475 18.8354 16.5796 18.9978 16.4463L18.8524 16.2208C18.7375 16.3136 18.5952 16.3651 18.448 16.3673C18.348 16.3759 18.2486 16.345 18.1709 16.281C18.0932 16.217 18.0434 16.125 18.032 16.0247H19.0647C19.0647 15.9866 19.0647 15.9485 19.0647 15.9075C19.0647 15.4683 18.7942 15.1755 18.4044 15.1755L18.4 15.1726ZM18.4 15.4449C18.4453 15.4439 18.4903 15.4519 18.5325 15.4685C18.5747 15.485 18.6132 15.5098 18.6459 15.5413C18.6786 15.5729 18.7048 15.6106 18.723 15.6523C18.7412 15.694 18.7511 15.739 18.752 15.7846H18.0247C18.03 15.6906 18.0716 15.6024 18.1407 15.5389C18.2097 15.4754 18.3007 15.4417 18.3942 15.4449H18.4ZM25.9798 15.9075V14.6455H25.6889V15.3775C25.6375 15.311 25.5712 15.2577 25.4953 15.2221C25.4194 15.1864 25.3362 15.1695 25.2525 15.1726C25.0596 15.1726 24.8746 15.2497 24.7383 15.387C24.6019 15.5243 24.5252 15.7105 24.5252 15.9046C24.5252 16.0988 24.6019 16.285 24.7383 16.4222C24.8746 16.5595 25.0596 16.6366 25.2525 16.6366C25.3362 16.6397 25.4194 16.6228 25.4953 16.5871C25.5712 16.5515 25.6375 16.4982 25.6889 16.4317V16.6015H25.9798V15.9075ZM26.4846 16.4039C26.5035 16.4036 26.5222 16.4071 26.5398 16.4141C26.5565 16.421 26.5718 16.4309 26.5849 16.4434C26.5977 16.456 26.6081 16.4709 26.6155 16.4873C26.6228 16.5044 26.6266 16.5228 26.6266 16.5415C26.6266 16.5601 26.6228 16.5785 26.6155 16.5956C26.6081 16.6121 26.5977 16.6269 26.5849 16.6396C26.5718 16.6521 26.5565 16.662 26.5398 16.6689C26.5224 16.6766 26.5036 16.6806 26.4846 16.6806C26.457 16.6804 26.43 16.6723 26.4069 16.6572C26.3837 16.6422 26.3652 16.6208 26.3536 16.5956C26.3464 16.5785 26.3426 16.5601 26.3426 16.5415C26.3426 16.5229 26.3464 16.5044 26.3536 16.4873C26.3611 16.4709 26.3714 16.456 26.3842 16.4434C26.3973 16.4309 26.4126 16.421 26.4293 16.4141C26.4482 16.4065 26.4685 16.403 26.4889 16.4039H26.4846ZM26.4846 16.6513C26.4991 16.6514 26.5134 16.6484 26.5267 16.6425C26.5393 16.6369 26.5506 16.6289 26.5602 16.6191C26.5784 16.5991 26.5885 16.573 26.5885 16.5459C26.5885 16.5188 26.5784 16.4926 26.5602 16.4727C26.5506 16.4628 26.5393 16.4548 26.5267 16.4492C26.5134 16.4434 26.4991 16.4404 26.4846 16.4405C26.4701 16.4405 26.4557 16.4435 26.4424 16.4492C26.4293 16.4546 26.4174 16.4626 26.4075 16.4727C26.3893 16.4926 26.3792 16.5188 26.3792 16.5459C26.3792 16.573 26.3893 16.5991 26.4075 16.6191C26.4175 16.6291 26.4293 16.6371 26.4424 16.6425C26.457 16.6489 26.4729 16.6519 26.4889 16.6513H26.4846ZM26.4933 16.4771C26.5069 16.4764 26.5202 16.4805 26.5311 16.4888C26.5356 16.4925 26.5391 16.4972 26.5413 16.5025C26.5436 16.5079 26.5446 16.5137 26.5442 16.5195C26.5444 16.5244 26.5436 16.5292 26.5419 16.5338C26.5401 16.5383 26.5374 16.5424 26.534 16.5459C26.5256 16.5536 26.5148 16.5582 26.5035 16.559L26.5456 16.6074H26.5122L26.4729 16.559H26.4598V16.6074H26.4322V16.4785L26.4933 16.4771ZM26.4613 16.5019V16.5371H26.4933C26.499 16.5388 26.505 16.5388 26.5107 16.5371C26.5118 16.535 26.5123 16.5328 26.5123 16.5305C26.5123 16.5282 26.5118 16.526 26.5107 16.5239C26.5118 16.5219 26.5123 16.5196 26.5123 16.5173C26.5123 16.515 26.5118 16.5128 26.5107 16.5107C26.505 16.509 26.499 16.509 26.4933 16.5107L26.4613 16.5019ZM24.8612 15.9075C24.8661 15.8251 24.8947 15.746 24.9437 15.6798C24.9927 15.6136 25.0598 15.5632 25.1368 15.5349C25.2138 15.5067 25.2974 15.5017 25.3772 15.5206C25.457 15.5395 25.5296 15.5815 25.586 15.6414C25.6424 15.7013 25.6802 15.7765 25.6947 15.8577C25.7091 15.9389 25.6997 16.0227 25.6675 16.0986C25.6353 16.1745 25.5818 16.2392 25.5135 16.2849C25.4451 16.3306 25.3651 16.3551 25.2831 16.3555C25.2255 16.3563 25.1684 16.345 25.1153 16.3224C25.0622 16.2999 25.0144 16.2665 24.9748 16.2244C24.9352 16.1823 24.9046 16.1325 24.8851 16.0779C24.8655 16.0234 24.8574 15.9654 24.8612 15.9075V15.9075ZM14.6457 15.9075V15.2077H14.3432V15.3775C14.2918 15.311 14.2254 15.2577 14.1496 15.2221C14.0737 15.1864 13.9905 15.1695 13.9068 15.1726C13.7139 15.1726 13.5289 15.2497 13.3925 15.387C13.2561 15.5243 13.1795 15.7105 13.1795 15.9046C13.1795 16.0988 13.2561 16.285 13.3925 16.4222C13.5289 16.5595 13.7139 16.6366 13.9068 16.6366C13.9905 16.6397 14.0737 16.6228 14.1496 16.5871C14.2254 16.5515 14.2918 16.4982 14.3432 16.4317V16.6015H14.6457V15.9075ZM13.5199 15.9075C13.5247 15.8251 13.5534 15.746 13.6023 15.6798C13.6513 15.6136 13.7184 15.5632 13.7955 15.5349C13.8725 15.5067 13.9561 15.5017 14.0359 15.5206C14.1157 15.5395 14.1883 15.5815 14.2447 15.6414C14.3011 15.7013 14.3388 15.7765 14.3533 15.8577C14.3678 15.9389 14.3583 16.0227 14.3261 16.0986C14.294 16.1745 14.2404 16.2392 14.1721 16.2849C14.1038 16.3306 14.0237 16.3551 13.9417 16.3555C13.8839 16.3567 13.8264 16.3457 13.773 16.3233C13.7196 16.3009 13.6714 16.2676 13.6315 16.2255C13.5916 16.1834 13.5608 16.1334 13.5411 16.0786C13.5213 16.0239 13.5131 15.9656 13.517 15.9075H13.5199Z" fill="#231F20"/>
<path d="M20.6195 4.54199H16.0376V12.8301H20.6195V4.54199Z" fill="#FF5F00"/>
<path d="M16.3283 8.68642C16.3275 7.8881 16.5071 7.10006 16.8536 6.38196C17.2001 5.66386 17.7044 5.03454 18.3284 4.54164C17.5558 3.93057 16.6281 3.55058 15.6512 3.44511C14.6743 3.33963 13.6876 3.51292 12.8039 3.94517C11.9202 4.37742 11.1751 5.05119 10.6539 5.88948C10.1326 6.72777 9.8562 7.69675 9.8562 8.68569C9.8562 9.67462 10.1326 10.6436 10.6539 11.4819C11.1751 12.3202 11.9202 12.994 12.8039 13.4262C13.6876 13.8585 14.6743 14.0317 15.6512 13.9263C16.6281 13.8208 17.5558 13.4408 18.3284 12.8297C17.7046 12.337 17.2004 11.7079 16.8539 10.9901C16.5074 10.2722 16.3277 9.48449 16.3283 8.68642V8.68642Z" fill="#EB001B"/>
<path d="M26.8013 8.68654C26.8013 9.67555 26.5248 10.6446 26.0034 11.4829C25.4821 12.3212 24.7369 12.995 23.8531 13.4272C22.9693 13.8594 21.9825 14.0325 21.0055 13.9269C20.0286 13.8213 19.1008 13.4411 18.3284 12.8299C18.9518 12.3367 19.4559 11.7074 19.8025 10.9895C20.1491 10.2717 20.3292 9.48395 20.3292 8.68581C20.3292 7.88766 20.1491 7.09994 19.8025 6.38207C19.4559 5.66421 18.9518 5.03494 18.3284 4.54176C19.1008 3.9305 20.0286 3.55033 21.0055 3.4447C21.9825 3.33907 22.9693 3.51225 23.8531 3.94444C24.7369 4.37663 25.4821 5.05039 26.0034 5.88871C26.5248 6.72702 26.8013 7.69607 26.8013 8.68508V8.68654Z" fill="#F79E1B"/>
<path d="M26.3013 11.9516V11.7817H26.3696V11.7466H26.1965V11.7817H26.2707V11.9516H26.3013ZM26.6373 11.9516V11.7466H26.5849L26.5238 11.893L26.4627 11.7466H26.4162V11.9516H26.454V11.7978L26.5107 11.9311H26.55L26.6067 11.7978V11.953L26.6373 11.9516Z" fill="#F79E1B"/>
</svg>
