<svg width="173" height="195" viewBox="0 0 173 195" fill="none" xmlns="http://www.w3.org/2000/svg">
<path d="M32.0669 176.939L34.7563 169.469H35.5415L32.3657 178H31.7856L32.0669 176.939ZM29.2895 169.469L31.9673 176.939L32.2602 178H31.6743L28.5044 169.469H29.2895ZM35.7468 174.93V174.736C35.7468 174.275 35.8132 173.85 35.946 173.459C36.0788 173.068 36.2683 172.73 36.5144 172.445C36.7644 172.16 37.0632 171.939 37.4109 171.783C37.7585 171.623 38.1452 171.543 38.571 171.543C39.0007 171.543 39.3894 171.623 39.737 171.783C40.0847 171.939 40.3835 172.16 40.6335 172.445C40.8835 172.73 41.0749 173.068 41.2077 173.459C41.3405 173.85 41.407 174.275 41.407 174.736V174.93C41.407 175.391 41.3405 175.816 41.2077 176.207C41.0749 176.594 40.8835 176.93 40.6335 177.215C40.3874 177.5 40.0905 177.723 39.7429 177.883C39.3952 178.039 39.0085 178.117 38.5827 178.117C38.153 178.117 37.7644 178.039 37.4167 177.883C37.0691 177.723 36.7702 177.5 36.5202 177.215C36.2702 176.93 36.0788 176.594 35.946 176.207C35.8132 175.816 35.7468 175.391 35.7468 174.93ZM36.4441 174.736V174.93C36.4441 175.277 36.4909 175.607 36.5847 175.92C36.6784 176.229 36.8152 176.504 36.9948 176.746C37.1745 176.984 37.3972 177.172 37.6628 177.309C37.9284 177.445 38.2351 177.514 38.5827 177.514C38.9265 177.514 39.2292 177.445 39.4909 177.309C39.7566 177.172 39.9792 176.984 40.1589 176.746C40.3386 176.504 40.4734 176.229 40.5632 175.92C40.657 175.607 40.7038 175.277 40.7038 174.93V174.736C40.7038 174.393 40.657 174.066 40.5632 173.758C40.4734 173.449 40.3366 173.174 40.153 172.932C39.9734 172.689 39.7507 172.498 39.4851 172.357C39.2195 172.217 38.9148 172.146 38.571 172.146C38.2273 172.146 37.9226 172.217 37.657 172.357C37.3952 172.498 37.1726 172.689 36.989 172.932C36.8093 173.174 36.6726 173.449 36.5788 173.758C36.489 174.066 36.4441 174.393 36.4441 174.736ZM44.958 177.514C45.2548 177.514 45.5322 177.459 45.79 177.35C46.0517 177.236 46.2666 177.07 46.4345 176.852C46.6064 176.629 46.7041 176.357 46.7275 176.037H47.3955C47.3759 176.439 47.2529 176.799 47.0263 177.115C46.8037 177.428 46.5107 177.674 46.1474 177.854C45.788 178.029 45.3916 178.117 44.958 178.117C44.5166 178.117 44.1259 178.037 43.7861 177.877C43.4502 177.717 43.1689 177.494 42.9423 177.209C42.7158 176.92 42.5439 176.584 42.4267 176.201C42.3134 175.814 42.2568 175.398 42.2568 174.953V174.707C42.2568 174.262 42.3134 173.848 42.4267 173.465C42.5439 173.078 42.7158 172.742 42.9423 172.457C43.1689 172.168 43.4502 171.943 43.7861 171.783C44.122 171.623 44.5107 171.543 44.9521 171.543C45.4052 171.543 45.8115 171.635 46.1709 171.818C46.5341 172.002 46.8232 172.262 47.038 172.598C47.2568 172.934 47.3759 173.332 47.3955 173.793H46.7275C46.708 173.453 46.6181 173.16 46.458 172.914C46.2978 172.668 46.0869 172.479 45.8252 172.346C45.5634 172.213 45.2724 172.146 44.9521 172.146C44.5927 172.146 44.2861 172.217 44.0322 172.357C43.7783 172.494 43.5713 172.684 43.4111 172.926C43.2548 173.164 43.1396 173.438 43.0654 173.746C42.9912 174.051 42.9541 174.371 42.9541 174.707V174.953C42.9541 175.293 42.9892 175.617 43.0595 175.926C43.1338 176.23 43.249 176.502 43.4052 176.74C43.5654 176.979 43.7724 177.168 44.0263 177.309C44.2841 177.445 44.5947 177.514 44.958 177.514ZM51.0168 178.117C50.6027 178.117 50.2219 178.041 49.8742 177.889C49.5305 177.736 49.2297 177.521 48.9719 177.244C48.718 176.967 48.5207 176.639 48.3801 176.26C48.2434 175.877 48.175 175.459 48.175 175.006V174.754C48.175 174.266 48.2473 173.824 48.3918 173.43C48.5363 173.035 48.7355 172.697 48.9895 172.416C49.2434 172.135 49.5324 171.92 49.8566 171.771C50.1848 171.619 50.5285 171.543 50.8879 171.543C51.2902 171.543 51.6477 171.615 51.9602 171.76C52.2727 171.9 52.5344 172.102 52.7453 172.363C52.9602 172.621 53.1223 172.928 53.2316 173.283C53.341 173.635 53.3957 174.023 53.3957 174.449V174.877H48.5969V174.279H52.6984V174.197C52.6906 173.842 52.6184 173.51 52.4816 173.201C52.3488 172.889 52.1496 172.635 51.884 172.439C51.6184 172.244 51.2863 172.146 50.8879 172.146C50.591 172.146 50.3176 172.209 50.0676 172.334C49.8215 172.459 49.6086 172.639 49.4289 172.873C49.2531 173.104 49.1164 173.379 49.0188 173.699C48.925 174.016 48.8781 174.367 48.8781 174.754V175.006C48.8781 175.357 48.9289 175.686 49.0305 175.99C49.1359 176.291 49.2844 176.557 49.4758 176.787C49.6711 177.018 49.9016 177.197 50.1672 177.326C50.4328 177.455 50.7258 177.52 51.0461 177.52C51.4211 177.52 51.7531 177.451 52.0422 177.314C52.3313 177.174 52.591 176.953 52.8215 176.652L53.2609 176.992C53.1242 177.195 52.9523 177.383 52.7453 177.555C52.5422 177.727 52.298 177.863 52.0129 177.965C51.7277 178.066 51.3957 178.117 51.0168 178.117ZM51.1867 169.064L52.5988 170.57V170.629H51.9484L50.9641 169.562L49.9855 170.629H49.3527V170.559L50.7414 169.064H51.1867ZM61.0837 176.863V173.594C61.0837 173.293 61.0212 173.033 60.8962 172.814C60.7712 172.596 60.5876 172.428 60.3454 172.311C60.1032 172.193 59.8044 172.135 59.4489 172.135C59.1208 172.135 58.8278 172.193 58.57 172.311C58.3161 172.424 58.1149 172.578 57.9665 172.773C57.822 172.965 57.7497 173.178 57.7497 173.412L57.0466 173.406C57.0466 173.168 57.1052 172.938 57.2223 172.715C57.3395 172.492 57.5055 172.293 57.7204 172.117C57.9352 171.941 58.1911 171.803 58.488 171.701C58.7887 171.596 59.1188 171.543 59.4782 171.543C59.9313 171.543 60.3298 171.619 60.6735 171.771C61.0212 171.924 61.2927 172.152 61.488 172.457C61.6833 172.762 61.7809 173.145 61.7809 173.605V176.67C61.7809 176.889 61.7966 177.115 61.8278 177.35C61.863 177.584 61.9118 177.777 61.9743 177.93V178H61.2302C61.1833 177.859 61.1462 177.684 61.1188 177.473C61.0954 177.258 61.0837 177.055 61.0837 176.863ZM61.2477 174.309L61.2595 174.848H59.8825C59.5231 174.848 59.2009 174.881 58.9157 174.947C58.6345 175.01 58.3962 175.104 58.2009 175.229C58.0055 175.35 57.8552 175.496 57.7497 175.668C57.6481 175.84 57.5973 176.035 57.5973 176.254C57.5973 176.48 57.654 176.688 57.7673 176.875C57.8845 177.062 58.0485 177.213 58.2595 177.326C58.4743 177.436 58.7282 177.49 59.0212 177.49C59.4118 177.49 59.7555 177.418 60.0524 177.273C60.3532 177.129 60.6012 176.939 60.7966 176.705C60.9919 176.471 61.1227 176.215 61.1891 175.938L61.4938 176.342C61.443 176.537 61.3493 176.738 61.2126 176.945C61.0798 177.148 60.9059 177.34 60.6911 177.52C60.4762 177.695 60.2223 177.84 59.9294 177.953C59.6403 178.062 59.3122 178.117 58.945 178.117C58.5309 178.117 58.1696 178.039 57.861 177.883C57.5563 177.727 57.318 177.514 57.1462 177.244C56.9782 176.971 56.8942 176.662 56.8942 176.318C56.8942 176.006 56.9606 175.727 57.0934 175.48C57.2262 175.23 57.4177 175.02 57.6677 174.848C57.9216 174.672 58.2262 174.539 58.5817 174.449C58.9411 174.355 59.3434 174.309 59.7887 174.309H61.2477ZM64.2011 171.66V178H63.5038V171.66H64.2011ZM63.3808 169.826C63.3808 169.693 63.4218 169.582 63.5038 169.492C63.5898 169.398 63.707 169.352 63.8554 169.352C64.0038 169.352 64.121 169.398 64.207 169.492C64.2968 169.582 64.3417 169.693 64.3417 169.826C64.3417 169.955 64.2968 170.066 64.207 170.16C64.121 170.25 64.0038 170.295 63.8554 170.295C63.707 170.295 63.5898 170.25 63.5038 170.16C63.4218 170.066 63.3808 169.955 63.3808 169.826ZM66.5744 173.014V178H65.8771V171.66H66.5451L66.5744 173.014ZM66.4162 174.438L66.1056 174.262C66.1291 173.887 66.2052 173.535 66.3341 173.207C66.463 172.879 66.6369 172.59 66.8556 172.34C67.0783 172.09 67.338 171.895 67.6349 171.754C67.9357 171.613 68.2677 171.543 68.631 171.543C68.9474 171.543 69.2306 171.586 69.4806 171.672C69.7306 171.758 69.9435 171.895 70.1193 172.082C70.2951 172.27 70.4279 172.51 70.5177 172.803C70.6115 173.096 70.6584 173.453 70.6584 173.875V178H69.9552V173.869C69.9552 173.432 69.8947 173.09 69.7736 172.844C69.6525 172.594 69.4806 172.416 69.258 172.311C69.0353 172.205 68.7716 172.152 68.4669 172.152C68.131 172.152 67.8361 172.227 67.5822 172.375C67.3322 172.52 67.1212 172.709 66.9494 172.943C66.7814 173.174 66.6525 173.422 66.5627 173.688C66.4728 173.949 66.424 174.199 66.4162 174.438ZM76.3539 176.77V169H77.057V178H76.4008L76.3539 176.77ZM71.9535 174.895V174.771C71.9535 174.279 72.0102 173.836 72.1234 173.441C72.2367 173.043 72.3988 172.703 72.6098 172.422C72.8246 172.137 73.0824 171.92 73.3832 171.771C73.684 171.619 74.0238 171.543 74.4027 171.543C74.7738 171.543 75.102 171.604 75.3871 171.725C75.6723 171.846 75.9164 172.02 76.1195 172.246C76.3266 172.473 76.4926 172.742 76.6176 173.055C76.7465 173.367 76.8402 173.715 76.8988 174.098V175.662C76.852 176.021 76.766 176.352 76.641 176.652C76.516 176.949 76.35 177.209 76.143 177.432C75.9359 177.65 75.6859 177.82 75.393 177.941C75.1039 178.059 74.7699 178.117 74.391 178.117C74.016 178.117 73.6781 178.039 73.3773 177.883C73.0766 177.727 72.8207 177.506 72.6098 177.221C72.3988 176.932 72.2367 176.59 72.1234 176.195C72.0102 175.801 71.9535 175.367 71.9535 174.895ZM72.6566 174.771V174.895C72.6566 175.266 72.6938 175.609 72.768 175.926C72.8422 176.242 72.9555 176.518 73.1078 176.752C73.2602 176.986 73.4535 177.17 73.6879 177.303C73.9223 177.436 74.1996 177.502 74.5199 177.502C74.9223 177.502 75.2602 177.426 75.5336 177.273C75.807 177.117 76.0258 176.912 76.1898 176.658C76.3539 176.4 76.4731 176.119 76.5473 175.814V173.992C76.5004 173.785 76.432 173.574 76.3422 173.359C76.2523 173.145 76.1293 172.947 75.9731 172.768C75.8207 172.584 75.6254 172.438 75.3871 172.328C75.1527 172.215 74.8676 172.158 74.5316 172.158C74.2074 172.158 73.9281 172.225 73.6938 172.357C73.4594 172.49 73.2641 172.676 73.1078 172.914C72.9555 173.148 72.8422 173.424 72.768 173.74C72.6938 174.057 72.6566 174.4 72.6566 174.771ZM82.5182 176.863V173.594C82.5182 173.293 82.4557 173.033 82.3307 172.814C82.2057 172.596 82.0221 172.428 81.7799 172.311C81.5377 172.193 81.2389 172.135 80.8834 172.135C80.5553 172.135 80.2623 172.193 80.0045 172.311C79.7506 172.424 79.5495 172.578 79.401 172.773C79.2565 172.965 79.1842 173.178 79.1842 173.412L78.4811 173.406C78.4811 173.168 78.5397 172.938 78.6569 172.715C78.7741 172.492 78.9401 172.293 79.1549 172.117C79.3698 171.941 79.6256 171.803 79.9225 171.701C80.2233 171.596 80.5534 171.543 80.9127 171.543C81.3659 171.543 81.7643 171.619 82.108 171.771C82.4557 171.924 82.7272 172.152 82.9225 172.457C83.1178 172.762 83.2155 173.145 83.2155 173.605V176.67C83.2155 176.889 83.2311 177.115 83.2623 177.35C83.2975 177.584 83.3463 177.777 83.4088 177.93V178H82.6647C82.6178 177.859 82.5807 177.684 82.5534 177.473C82.5299 177.258 82.5182 177.055 82.5182 176.863ZM82.6823 174.309L82.694 174.848H81.317C80.9577 174.848 80.6354 174.881 80.3502 174.947C80.069 175.01 79.8307 175.104 79.6354 175.229C79.4401 175.35 79.2897 175.496 79.1842 175.668C79.0827 175.84 79.0319 176.035 79.0319 176.254C79.0319 176.48 79.0885 176.688 79.2018 176.875C79.319 177.062 79.483 177.213 79.694 177.326C79.9088 177.436 80.1627 177.49 80.4557 177.49C80.8463 177.49 81.1901 177.418 81.487 177.273C81.7877 177.129 82.0358 176.939 82.2311 176.705C82.4264 176.471 82.5573 176.215 82.6237 175.938L82.9284 176.342C82.8776 176.537 82.7838 176.738 82.6471 176.945C82.5143 177.148 82.3405 177.34 82.1256 177.52C81.9108 177.695 81.6569 177.84 81.3639 177.953C81.0748 178.062 80.7467 178.117 80.3795 178.117C79.9655 178.117 79.6041 178.039 79.2955 177.883C78.9909 177.727 78.7526 177.514 78.5807 177.244C78.4127 176.971 78.3288 176.662 78.3288 176.318C78.3288 176.006 78.3952 175.727 78.528 175.48C78.6608 175.23 78.8522 175.02 79.1022 174.848C79.3561 174.672 79.6608 174.539 80.0163 174.449C80.3756 174.355 80.778 174.309 81.2233 174.309H82.6823ZM88.2433 173.014V178H87.546V171.66H88.214L88.2433 173.014ZM88.0851 174.438L87.7745 174.262C87.798 173.887 87.8741 173.535 88.0031 173.207C88.132 172.879 88.3058 172.59 88.5245 172.34C88.7472 172.09 89.007 171.895 89.3038 171.754C89.6046 171.613 89.9366 171.543 90.2999 171.543C90.6163 171.543 90.8995 171.586 91.1495 171.672C91.3995 171.758 91.6124 171.895 91.7882 172.082C91.964 172.27 92.0968 172.51 92.1866 172.803C92.2804 173.096 92.3273 173.453 92.3273 173.875V178H91.6241V173.869C91.6241 173.432 91.5636 173.09 91.4425 172.844C91.3214 172.594 91.1495 172.416 90.9269 172.311C90.7042 172.205 90.4406 172.152 90.1359 172.152C89.7999 172.152 89.505 172.227 89.2511 172.375C89.0011 172.52 88.7902 172.709 88.6183 172.943C88.4503 173.174 88.3214 173.422 88.2316 173.688C88.1417 173.949 88.0929 174.199 88.0851 174.438ZM97.7591 176.863V173.594C97.7591 173.293 97.6966 173.033 97.5716 172.814C97.4466 172.596 97.263 172.428 97.0209 172.311C96.7787 172.193 96.4798 172.135 96.1244 172.135C95.7962 172.135 95.5033 172.193 95.2455 172.311C94.9916 172.424 94.7904 172.578 94.642 172.773C94.4974 172.965 94.4252 173.178 94.4252 173.412L93.722 173.406C93.722 173.168 93.7806 172.938 93.8978 172.715C94.015 172.492 94.181 172.293 94.3959 172.117C94.6107 171.941 94.8666 171.803 95.1634 171.701C95.4642 171.596 95.7943 171.543 96.1537 171.543C96.6068 171.543 97.0052 171.619 97.349 171.771C97.6966 171.924 97.9681 172.152 98.1634 172.457C98.3587 172.762 98.4564 173.145 98.4564 173.605V176.67C98.4564 176.889 98.472 177.115 98.5033 177.35C98.5384 177.584 98.5873 177.777 98.6498 177.93V178H97.9056C97.8587 177.859 97.8216 177.684 97.7943 177.473C97.7709 177.258 97.7591 177.055 97.7591 176.863ZM97.9232 174.309L97.9349 174.848H96.558C96.1986 174.848 95.8763 174.881 95.5912 174.947C95.3099 175.01 95.0716 175.104 94.8763 175.229C94.681 175.35 94.5306 175.496 94.4252 175.668C94.3236 175.84 94.2728 176.035 94.2728 176.254C94.2728 176.48 94.3295 176.688 94.4427 176.875C94.5599 177.062 94.724 177.213 94.9349 177.326C95.1498 177.436 95.4037 177.49 95.6966 177.49C96.0873 177.49 96.431 177.418 96.7279 177.273C97.0287 177.129 97.2767 176.939 97.472 176.705C97.6673 176.471 97.7982 176.215 97.8646 175.938L98.1693 176.342C98.1185 176.537 98.0248 176.738 97.888 176.945C97.7552 177.148 97.5814 177.34 97.3666 177.52C97.1517 177.695 96.8978 177.84 96.6048 177.953C96.3158 178.062 95.9877 178.117 95.6205 178.117C95.2064 178.117 94.8451 178.039 94.5365 177.883C94.2318 177.727 93.9935 177.514 93.8216 177.244C93.6537 176.971 93.5697 176.662 93.5697 176.318C93.5697 176.006 93.6361 175.727 93.7689 175.48C93.9017 175.23 94.0931 175.02 94.3431 174.848C94.597 174.672 94.9017 174.539 95.2572 174.449C95.6166 174.355 96.0189 174.309 96.4642 174.309H97.9232ZM97.8529 169.205L98.3802 169.24C98.3802 169.49 98.3275 169.709 98.222 169.896C98.1205 170.084 97.9837 170.23 97.8119 170.336C97.64 170.441 97.4466 170.494 97.2318 170.494C97.0248 170.494 96.8548 170.461 96.722 170.395C96.5892 170.328 96.4701 170.254 96.3646 170.172C96.2591 170.086 96.1478 170.012 96.0306 169.949C95.9134 169.883 95.7709 169.85 95.6029 169.85C95.4232 169.85 95.2709 169.912 95.1459 170.037C95.0209 170.158 94.9584 170.326 94.9584 170.541L94.431 170.523C94.431 170.273 94.4818 170.057 94.5834 169.873C94.6849 169.686 94.8216 169.539 94.9935 169.434C95.1693 169.328 95.3646 169.275 95.5795 169.275C95.763 169.275 95.9212 169.309 96.0541 169.375C96.1908 169.438 96.3158 169.512 96.4291 169.598C96.5423 169.684 96.6595 169.76 96.7806 169.826C96.9017 169.889 97.0423 169.92 97.2025 169.92C97.3822 169.92 97.5345 169.855 97.6595 169.727C97.7884 169.594 97.8529 169.42 97.8529 169.205ZM99.7105 174.93V174.736C99.7105 174.275 99.7769 173.85 99.9098 173.459C100.043 173.068 100.232 172.73 100.478 172.445C100.728 172.16 101.027 171.939 101.375 171.783C101.722 171.623 102.109 171.543 102.535 171.543C102.964 171.543 103.353 171.623 103.701 171.783C104.048 171.939 104.347 172.16 104.597 172.445C104.847 172.73 105.039 173.068 105.171 173.459C105.304 173.85 105.371 174.275 105.371 174.736V174.93C105.371 175.391 105.304 175.816 105.171 176.207C105.039 176.594 104.847 176.93 104.597 177.215C104.351 177.5 104.054 177.723 103.707 177.883C103.359 178.039 102.972 178.117 102.546 178.117C102.117 178.117 101.728 178.039 101.38 177.883C101.033 177.723 100.734 177.5 100.484 177.215C100.234 176.93 100.043 176.594 99.9098 176.207C99.7769 175.816 99.7105 175.391 99.7105 174.93ZM100.408 174.736V174.93C100.408 175.277 100.455 175.607 100.548 175.92C100.642 176.229 100.779 176.504 100.959 176.746C101.138 176.984 101.361 177.172 101.627 177.309C101.892 177.445 102.199 177.514 102.546 177.514C102.89 177.514 103.193 177.445 103.455 177.309C103.72 177.172 103.943 176.984 104.123 176.746C104.302 176.504 104.437 176.229 104.527 175.92C104.621 175.607 104.668 175.277 104.668 174.93V174.736C104.668 174.393 104.621 174.066 104.527 173.758C104.437 173.449 104.3 173.174 104.117 172.932C103.937 172.689 103.714 172.498 103.449 172.357C103.183 172.217 102.879 172.146 102.535 172.146C102.191 172.146 101.886 172.217 101.621 172.357C101.359 172.498 101.136 172.689 100.953 172.932C100.773 173.174 100.636 173.449 100.543 173.758C100.453 174.066 100.408 174.393 100.408 174.736ZM109.965 172.879V180.438H109.262V171.66H109.918L109.965 172.879ZM114.371 174.771V174.895C114.371 175.367 114.316 175.801 114.207 176.195C114.098 176.59 113.94 176.932 113.732 177.221C113.529 177.506 113.277 177.727 112.977 177.883C112.676 178.039 112.334 178.117 111.951 178.117C111.572 178.117 111.234 178.059 110.938 177.941C110.641 177.824 110.385 177.658 110.17 177.443C109.959 177.225 109.789 176.971 109.66 176.682C109.535 176.389 109.447 176.068 109.397 175.721V174.098C109.455 173.715 109.551 173.367 109.684 173.055C109.816 172.742 109.986 172.473 110.193 172.246C110.404 172.02 110.654 171.846 110.943 171.725C111.232 171.604 111.563 171.543 111.934 171.543C112.32 171.543 112.664 171.619 112.965 171.771C113.27 171.92 113.525 172.137 113.732 172.422C113.943 172.703 114.102 173.043 114.207 173.441C114.316 173.836 114.371 174.279 114.371 174.771ZM113.668 174.895V174.771C113.668 174.4 113.629 174.057 113.551 173.74C113.477 173.424 113.361 173.148 113.205 172.914C113.053 172.676 112.857 172.49 112.619 172.357C112.385 172.225 112.106 172.158 111.781 172.158C111.445 172.158 111.158 172.215 110.92 172.328C110.686 172.438 110.49 172.584 110.334 172.768C110.178 172.947 110.055 173.145 109.965 173.359C109.875 173.574 109.809 173.785 109.766 173.992V175.861C109.84 176.158 109.959 176.434 110.123 176.688C110.287 176.938 110.506 177.139 110.779 177.291C111.057 177.439 111.395 177.514 111.793 177.514C112.113 177.514 112.391 177.447 112.625 177.314C112.859 177.182 113.053 176.996 113.205 176.758C113.361 176.52 113.477 176.242 113.551 175.926C113.629 175.609 113.668 175.266 113.668 174.895ZM115.303 174.93V174.736C115.303 174.275 115.369 173.85 115.502 173.459C115.635 173.068 115.825 172.73 116.071 172.445C116.321 172.16 116.619 171.939 116.967 171.783C117.315 171.623 117.701 171.543 118.127 171.543C118.557 171.543 118.946 171.623 119.293 171.783C119.641 171.939 119.94 172.16 120.19 172.445C120.44 172.73 120.631 173.068 120.764 173.459C120.897 173.85 120.963 174.275 120.963 174.736V174.93C120.963 175.391 120.897 175.816 120.764 176.207C120.631 176.594 120.44 176.93 120.19 177.215C119.944 177.5 119.647 177.723 119.299 177.883C118.951 178.039 118.565 178.117 118.139 178.117C117.709 178.117 117.321 178.039 116.973 177.883C116.625 177.723 116.326 177.5 116.076 177.215C115.826 176.93 115.635 176.594 115.502 176.207C115.369 175.816 115.303 175.391 115.303 174.93ZM116 174.736V174.93C116 175.277 116.047 175.607 116.141 175.92C116.235 176.229 116.371 176.504 116.551 176.746C116.731 176.984 116.953 177.172 117.219 177.309C117.485 177.445 117.791 177.514 118.139 177.514C118.483 177.514 118.785 177.445 119.047 177.309C119.313 177.172 119.535 176.984 119.715 176.746C119.895 176.504 120.03 176.229 120.119 175.92C120.213 175.607 120.26 175.277 120.26 174.93V174.736C120.26 174.393 120.213 174.066 120.119 173.758C120.03 173.449 119.893 173.174 119.709 172.932C119.53 172.689 119.307 172.498 119.041 172.357C118.776 172.217 118.471 172.146 118.127 172.146C117.784 172.146 117.479 172.217 117.213 172.357C116.951 172.498 116.729 172.689 116.545 172.932C116.366 173.174 116.229 173.449 116.135 173.758C116.045 174.066 116 174.393 116 174.736ZM125.973 176.383C125.973 176.211 125.93 176.041 125.844 175.873C125.758 175.705 125.592 175.551 125.346 175.41C125.104 175.27 124.747 175.15 124.274 175.053C123.922 174.975 123.608 174.887 123.331 174.789C123.057 174.691 122.827 174.574 122.639 174.438C122.452 174.301 122.309 174.137 122.211 173.945C122.114 173.754 122.065 173.527 122.065 173.266C122.065 173.031 122.116 172.811 122.217 172.604C122.323 172.393 122.471 172.209 122.663 172.053C122.858 171.893 123.092 171.768 123.366 171.678C123.643 171.588 123.954 171.543 124.297 171.543C124.786 171.543 125.204 171.627 125.551 171.795C125.903 171.959 126.17 172.184 126.354 172.469C126.542 172.754 126.635 173.076 126.635 173.436H125.938C125.938 173.217 125.874 173.01 125.745 172.814C125.62 172.619 125.434 172.459 125.188 172.334C124.946 172.209 124.649 172.146 124.297 172.146C123.934 172.146 123.639 172.201 123.413 172.311C123.186 172.42 123.02 172.559 122.915 172.727C122.813 172.895 122.762 173.068 122.762 173.248C122.762 173.389 122.784 173.518 122.827 173.635C122.874 173.748 122.956 173.854 123.073 173.951C123.194 174.049 123.366 174.141 123.588 174.227C123.811 174.312 124.1 174.396 124.456 174.479C124.967 174.592 125.385 174.73 125.71 174.895C126.038 175.055 126.28 175.254 126.436 175.492C126.592 175.727 126.67 176.012 126.67 176.348C126.67 176.609 126.616 176.85 126.506 177.068C126.397 177.283 126.239 177.469 126.032 177.625C125.829 177.781 125.583 177.902 125.294 177.988C125.008 178.074 124.688 178.117 124.333 178.117C123.797 178.117 123.344 178.029 122.973 177.854C122.606 177.674 122.327 177.439 122.135 177.15C121.948 176.857 121.854 176.547 121.854 176.219H122.551C122.575 176.547 122.678 176.807 122.862 176.998C123.045 177.186 123.27 177.318 123.536 177.396C123.805 177.475 124.071 177.514 124.333 177.514C124.692 177.514 124.993 177.461 125.235 177.355C125.477 177.25 125.661 177.111 125.786 176.939C125.911 176.768 125.973 176.582 125.973 176.383ZM131.815 176.383C131.815 176.211 131.772 176.041 131.686 175.873C131.6 175.705 131.434 175.551 131.188 175.41C130.946 175.27 130.589 175.15 130.116 175.053C129.764 174.975 129.45 174.887 129.173 174.789C128.899 174.691 128.669 174.574 128.481 174.438C128.294 174.301 128.151 174.137 128.054 173.945C127.956 173.754 127.907 173.527 127.907 173.266C127.907 173.031 127.958 172.811 128.059 172.604C128.165 172.393 128.313 172.209 128.505 172.053C128.7 171.893 128.934 171.768 129.208 171.678C129.485 171.588 129.796 171.543 130.139 171.543C130.628 171.543 131.046 171.627 131.393 171.795C131.745 171.959 132.012 172.184 132.196 172.469C132.384 172.754 132.477 173.076 132.477 173.436H131.78C131.78 173.217 131.716 173.01 131.587 172.814C131.462 172.619 131.276 172.459 131.03 172.334C130.788 172.209 130.491 172.146 130.139 172.146C129.776 172.146 129.481 172.201 129.255 172.311C129.028 172.42 128.862 172.559 128.757 172.727C128.655 172.895 128.604 173.068 128.604 173.248C128.604 173.389 128.626 173.518 128.669 173.635C128.716 173.748 128.798 173.854 128.915 173.951C129.036 174.049 129.208 174.141 129.43 174.227C129.653 174.312 129.942 174.396 130.298 174.479C130.809 174.592 131.227 174.73 131.552 174.895C131.88 175.055 132.122 175.254 132.278 175.492C132.434 175.727 132.512 176.012 132.512 176.348C132.512 176.609 132.458 176.85 132.348 177.068C132.239 177.283 132.081 177.469 131.874 177.625C131.671 177.781 131.425 177.902 131.136 177.988C130.85 178.074 130.53 178.117 130.175 178.117C129.639 178.117 129.186 178.029 128.815 177.854C128.448 177.674 128.169 177.439 127.977 177.15C127.79 176.857 127.696 176.547 127.696 176.219H128.393C128.417 176.547 128.52 176.807 128.704 176.998C128.887 177.186 129.112 177.318 129.378 177.396C129.647 177.475 129.913 177.514 130.175 177.514C130.534 177.514 130.835 177.461 131.077 177.355C131.319 177.25 131.503 177.111 131.628 176.939C131.753 176.768 131.815 176.582 131.815 176.383ZM137.921 176.535V171.66H138.624V178H137.95L137.921 176.535ZM138.05 175.363L138.413 175.352C138.413 175.75 138.366 176.117 138.273 176.453C138.179 176.789 138.032 177.082 137.833 177.332C137.634 177.582 137.376 177.775 137.06 177.912C136.743 178.049 136.362 178.117 135.917 178.117C135.608 178.117 135.325 178.074 135.067 177.988C134.814 177.898 134.595 177.758 134.411 177.566C134.228 177.375 134.085 177.127 133.983 176.822C133.886 176.518 133.837 176.148 133.837 175.715V171.66H134.534V175.727C134.534 176.066 134.571 176.35 134.646 176.576C134.724 176.803 134.829 176.984 134.962 177.121C135.099 177.258 135.255 177.355 135.431 177.414C135.606 177.473 135.796 177.502 135.999 177.502C136.515 177.502 136.921 177.402 137.218 177.203C137.519 177.004 137.731 176.742 137.856 176.418C137.985 176.09 138.05 175.738 138.05 175.363ZM140.997 171.66V178H140.3V171.66H140.997ZM140.177 169.826C140.177 169.693 140.218 169.582 140.3 169.492C140.386 169.398 140.503 169.352 140.652 169.352C140.8 169.352 140.917 169.398 141.003 169.492C141.093 169.582 141.138 169.693 141.138 169.826C141.138 169.955 141.093 170.066 141.003 170.16C140.917 170.25 140.8 170.295 140.652 170.295C140.503 170.295 140.386 170.25 140.3 170.16C140.218 170.066 140.177 169.955 140.177 169.826ZM19.4013 187.014V192H18.704V185.66H19.372L19.4013 187.014ZM19.243 188.438L18.9325 188.262C18.9559 187.887 19.0321 187.535 19.161 187.207C19.2899 186.879 19.4638 186.59 19.6825 186.34C19.9052 186.09 20.1649 185.895 20.4618 185.754C20.7626 185.613 21.0946 185.543 21.4579 185.543C21.7743 185.543 22.0575 185.586 22.3075 185.672C22.5575 185.758 22.7704 185.895 22.9462 186.082C23.122 186.27 23.2548 186.51 23.3446 186.803C23.4384 187.096 23.4852 187.453 23.4852 187.875V192H22.7821V187.869C22.7821 187.432 22.7216 187.09 22.6005 186.844C22.4794 186.594 22.3075 186.416 22.0848 186.311C21.8622 186.205 21.5985 186.152 21.2938 186.152C20.9579 186.152 20.663 186.227 20.4091 186.375C20.1591 186.52 19.9481 186.709 19.7763 186.943C19.6083 187.174 19.4794 187.422 19.3895 187.688C19.2997 187.949 19.2509 188.199 19.243 188.438ZM24.6749 188.93V188.736C24.6749 188.275 24.7413 187.85 24.8741 187.459C25.007 187.068 25.1964 186.73 25.4425 186.445C25.6925 186.16 25.9913 185.939 26.339 185.783C26.6866 185.623 27.0734 185.543 27.4991 185.543C27.9288 185.543 28.3175 185.623 28.6652 185.783C29.0128 185.939 29.3116 186.16 29.5616 186.445C29.8116 186.73 30.003 187.068 30.1359 187.459C30.2687 187.85 30.3351 188.275 30.3351 188.736V188.93C30.3351 189.391 30.2687 189.816 30.1359 190.207C30.003 190.594 29.8116 190.93 29.5616 191.215C29.3155 191.5 29.0187 191.723 28.671 191.883C28.3234 192.039 27.9366 192.117 27.5109 192.117C27.0812 192.117 26.6925 192.039 26.3448 191.883C25.9972 191.723 25.6984 191.5 25.4484 191.215C25.1984 190.93 25.007 190.594 24.8741 190.207C24.7413 189.816 24.6749 189.391 24.6749 188.93ZM25.3722 188.736V188.93C25.3722 189.277 25.4191 189.607 25.5128 189.92C25.6066 190.229 25.7433 190.504 25.923 190.746C26.1027 190.984 26.3253 191.172 26.5909 191.309C26.8566 191.445 27.1632 191.514 27.5109 191.514C27.8546 191.514 28.1573 191.445 28.4191 191.309C28.6847 191.172 28.9073 190.984 29.087 190.746C29.2667 190.504 29.4015 190.229 29.4913 189.92C29.5851 189.607 29.632 189.277 29.632 188.93V188.736C29.632 188.393 29.5851 188.066 29.4913 187.758C29.4015 187.449 29.2648 187.174 29.0812 186.932C28.9015 186.689 28.6788 186.498 28.4132 186.357C28.1476 186.217 27.8429 186.146 27.4991 186.146C27.1554 186.146 26.8507 186.217 26.5851 186.357C26.3234 186.498 26.1007 186.689 25.9171 186.932C25.7374 187.174 25.6007 187.449 25.507 187.758C25.4171 188.066 25.3722 188.393 25.3722 188.736ZM33.9447 185.66V186.234H30.7689V185.66H33.9447ZM31.9349 184.031H32.6322V190.459C32.6322 190.752 32.6713 190.973 32.7494 191.121C32.8275 191.27 32.9291 191.369 33.0541 191.42C33.1791 191.471 33.3138 191.496 33.4584 191.496C33.5638 191.496 33.6654 191.49 33.7631 191.479C33.8607 191.463 33.9486 191.447 34.0267 191.432L34.056 192.023C33.9701 192.051 33.8588 192.072 33.722 192.088C33.5853 192.107 33.4486 192.117 33.3119 192.117C33.0423 192.117 32.8041 192.068 32.597 191.971C32.39 191.869 32.2279 191.697 32.1107 191.455C31.9935 191.209 31.9349 190.875 31.9349 190.453V184.031ZM35.9547 185.66V192H35.2574V185.66H35.9547ZM35.1344 183.826C35.1344 183.693 35.1754 183.582 35.2574 183.492C35.3434 183.398 35.4605 183.352 35.609 183.352C35.7574 183.352 35.8746 183.398 35.9605 183.492C36.0504 183.582 36.0953 183.693 36.0953 183.826C36.0953 183.955 36.0504 184.066 35.9605 184.16C35.8746 184.25 35.7574 184.295 35.609 184.295C35.4605 184.295 35.3434 184.25 35.2574 184.16C35.1754 184.066 35.1344 183.955 35.1344 183.826ZM38.7498 192H38.0526V184.992C38.0526 184.535 38.1366 184.15 38.3045 183.838C38.4764 183.521 38.7186 183.283 39.0311 183.123C39.3475 182.959 39.7225 182.877 40.1561 182.877C40.4178 182.877 40.6834 182.906 40.953 182.965C41.2225 183.023 41.494 183.109 41.7674 183.223L41.6561 183.832C41.4491 183.742 41.2323 183.668 41.0057 183.609C40.7791 183.551 40.5096 183.521 40.1971 183.521C39.7206 183.521 39.3592 183.646 39.1131 183.896C38.8709 184.146 38.7498 184.512 38.7498 184.992V192ZM40.2323 185.66V186.234H36.9979V185.66H40.2323ZM42.1483 185.66V192H41.451V185.66H42.1483ZM46.1856 191.514C46.4825 191.514 46.7598 191.459 47.0177 191.35C47.2794 191.236 47.4942 191.07 47.6622 190.852C47.8341 190.629 47.9317 190.357 47.9552 190.037H48.6231C48.6036 190.439 48.4805 190.799 48.254 191.115C48.0313 191.428 47.7384 191.674 47.3751 191.854C47.0157 192.029 46.6192 192.117 46.1856 192.117C45.7442 192.117 45.3536 192.037 45.0138 191.877C44.6778 191.717 44.3966 191.494 44.17 191.209C43.9434 190.92 43.7716 190.584 43.6544 190.201C43.5411 189.814 43.4845 189.398 43.4845 188.953V188.707C43.4845 188.262 43.5411 187.848 43.6544 187.465C43.7716 187.078 43.9434 186.742 44.17 186.457C44.3966 186.168 44.6778 185.943 45.0138 185.783C45.3497 185.623 45.7384 185.543 46.1798 185.543C46.6329 185.543 47.0391 185.635 47.3985 185.818C47.7618 186.002 48.0509 186.262 48.2657 186.598C48.4845 186.934 48.6036 187.332 48.6231 187.793H47.9552C47.9356 187.453 47.8458 187.16 47.6856 186.914C47.5255 186.668 47.3145 186.479 47.0528 186.346C46.7911 186.213 46.5001 186.146 46.1798 186.146C45.8204 186.146 45.5138 186.217 45.2598 186.357C45.0059 186.494 44.7989 186.684 44.6388 186.926C44.4825 187.164 44.3673 187.438 44.293 187.746C44.2188 188.051 44.1817 188.371 44.1817 188.707V188.953C44.1817 189.293 44.2169 189.617 44.2872 189.926C44.3614 190.23 44.4766 190.502 44.6329 190.74C44.793 190.979 45.0001 191.168 45.254 191.309C45.5118 191.445 45.8223 191.514 46.1856 191.514ZM53.6507 190.863V187.594C53.6507 187.293 53.5882 187.033 53.4632 186.814C53.3382 186.596 53.1546 186.428 52.9124 186.311C52.6702 186.193 52.3714 186.135 52.0159 186.135C51.6878 186.135 51.3948 186.193 51.137 186.311C50.8831 186.424 50.682 186.578 50.5335 186.773C50.389 186.965 50.3167 187.178 50.3167 187.412L49.6136 187.406C49.6136 187.168 49.6722 186.938 49.7894 186.715C49.9066 186.492 50.0726 186.293 50.2874 186.117C50.5023 185.941 50.7581 185.803 51.055 185.701C51.3558 185.596 51.6859 185.543 52.0452 185.543C52.4984 185.543 52.8968 185.619 53.2405 185.771C53.5882 185.924 53.8597 186.152 54.055 186.457C54.2503 186.762 54.348 187.145 54.348 187.605V190.67C54.348 190.889 54.3636 191.115 54.3948 191.35C54.43 191.584 54.4788 191.777 54.5413 191.93V192H53.7972C53.7503 191.859 53.7132 191.684 53.6859 191.473C53.6624 191.258 53.6507 191.055 53.6507 190.863ZM53.8148 188.309L53.8265 188.848H52.4495C52.0902 188.848 51.7679 188.881 51.4827 188.947C51.2015 189.01 50.9632 189.104 50.7679 189.229C50.5726 189.35 50.4222 189.496 50.3167 189.668C50.2152 189.84 50.1644 190.035 50.1644 190.254C50.1644 190.48 50.221 190.688 50.3343 190.875C50.4515 191.062 50.6155 191.213 50.8265 191.326C51.0413 191.436 51.2952 191.49 51.5882 191.49C51.9788 191.49 52.3226 191.418 52.6195 191.273C52.9202 191.129 53.1683 190.939 53.3636 190.705C53.5589 190.471 53.6898 190.215 53.7562 189.938L54.0609 190.342C54.0101 190.537 53.9163 190.738 53.7796 190.945C53.6468 191.148 53.473 191.34 53.2581 191.52C53.0433 191.695 52.7894 191.84 52.4964 191.953C52.2073 192.062 51.8792 192.117 51.512 192.117C51.098 192.117 50.7366 192.039 50.428 191.883C50.1234 191.727 49.8851 191.514 49.7132 191.244C49.5452 190.971 49.4613 190.662 49.4613 190.318C49.4613 190.006 49.5277 189.727 49.6605 189.48C49.7933 189.23 49.9847 189.02 50.2347 188.848C50.4886 188.672 50.7933 188.539 51.1488 188.449C51.5081 188.355 51.9105 188.309 52.3558 188.309H53.8148ZM58.3267 191.514C58.6236 191.514 58.9009 191.459 59.1588 191.35C59.4205 191.236 59.6353 191.07 59.8033 190.852C59.9752 190.629 60.0728 190.357 60.0963 190.037H60.7642C60.7447 190.439 60.6216 190.799 60.3951 191.115C60.1724 191.428 59.8795 191.674 59.5162 191.854C59.1568 192.029 58.7603 192.117 58.3267 192.117C57.8853 192.117 57.4947 192.037 57.1548 191.877C56.8189 191.717 56.5377 191.494 56.3111 191.209C56.0845 190.92 55.9127 190.584 55.7955 190.201C55.6822 189.814 55.6255 189.398 55.6255 188.953V188.707C55.6255 188.262 55.6822 187.848 55.7955 187.465C55.9127 187.078 56.0845 186.742 56.3111 186.457C56.5377 186.168 56.8189 185.943 57.1548 185.783C57.4908 185.623 57.8795 185.543 58.3209 185.543C58.774 185.543 59.1802 185.635 59.5396 185.818C59.9029 186.002 60.192 186.262 60.4068 186.598C60.6255 186.934 60.7447 187.332 60.7642 187.793H60.0963C60.0767 187.453 59.9869 187.16 59.8267 186.914C59.6666 186.668 59.4556 186.479 59.1939 186.346C58.9322 186.213 58.6412 186.146 58.3209 186.146C57.9615 186.146 57.6548 186.217 57.4009 186.357C57.147 186.494 56.94 186.684 56.7798 186.926C56.6236 187.164 56.5084 187.438 56.4341 187.746C56.3599 188.051 56.3228 188.371 56.3228 188.707V188.953C56.3228 189.293 56.358 189.617 56.4283 189.926C56.5025 190.23 56.6177 190.502 56.774 190.74C56.9341 190.979 57.1412 191.168 57.3951 191.309C57.6529 191.445 57.9634 191.514 58.3267 191.514ZM57.981 192.059H58.5259L58.4556 192.439C58.7017 192.471 58.9244 192.559 59.1236 192.703C59.3228 192.848 59.4224 193.094 59.4224 193.441C59.4224 193.617 59.3834 193.775 59.3052 193.916C59.231 194.061 59.1197 194.184 58.9713 194.285C58.8267 194.391 58.647 194.471 58.4322 194.525C58.2213 194.58 57.9771 194.607 57.6998 194.607L57.6588 194.15C57.8541 194.15 58.0416 194.127 58.2213 194.08C58.4048 194.033 58.5533 193.957 58.6666 193.852C58.7838 193.746 58.8423 193.611 58.8423 193.447C58.8423 193.299 58.8052 193.182 58.731 193.096C58.6568 193.01 58.5435 192.945 58.3912 192.902C58.2388 192.859 58.0474 192.828 57.817 192.809L57.981 192.059ZM61.5496 188.93V188.736C61.5496 188.275 61.616 187.85 61.7488 187.459C61.8816 187.068 62.0711 186.73 62.3172 186.445C62.5672 186.16 62.866 185.939 63.2137 185.783C63.5613 185.623 63.9481 185.543 64.3738 185.543C64.8035 185.543 65.1922 185.623 65.5398 185.783C65.8875 185.939 66.1863 186.16 66.4363 186.445C66.6863 186.73 66.8777 187.068 67.0106 187.459C67.1434 187.85 67.2098 188.275 67.2098 188.736V188.93C67.2098 189.391 67.1434 189.816 67.0106 190.207C66.8777 190.594 66.6863 190.93 66.4363 191.215C66.1902 191.5 65.8934 191.723 65.5457 191.883C65.1981 192.039 64.8113 192.117 64.3856 192.117C63.9559 192.117 63.5672 192.039 63.2195 191.883C62.8719 191.723 62.5731 191.5 62.3231 191.215C62.0731 190.93 61.8816 190.594 61.7488 190.207C61.616 189.816 61.5496 189.391 61.5496 188.93ZM62.2469 188.736V188.93C62.2469 189.277 62.2938 189.607 62.3875 189.92C62.4813 190.229 62.618 190.504 62.7977 190.746C62.9773 190.984 63.2 191.172 63.4656 191.309C63.7313 191.445 64.0379 191.514 64.3856 191.514C64.7293 191.514 65.032 191.445 65.2938 191.309C65.5594 191.172 65.782 190.984 65.9617 190.746C66.1414 190.504 66.2762 190.229 66.366 189.92C66.4598 189.607 66.5066 189.277 66.5066 188.93V188.736C66.5066 188.393 66.4598 188.066 66.366 187.758C66.2762 187.449 66.1395 187.174 65.9559 186.932C65.7762 186.689 65.5535 186.498 65.2879 186.357C65.0223 186.217 64.7176 186.146 64.3738 186.146C64.0301 186.146 63.7254 186.217 63.4598 186.357C63.1981 186.498 62.9754 186.689 62.7918 186.932C62.6121 187.174 62.4754 187.449 62.3816 187.758C62.2918 188.066 62.2469 188.393 62.2469 188.736ZM65.8387 183.211L66.366 183.246C66.366 183.496 66.3133 183.715 66.2078 183.902C66.1063 184.09 65.9695 184.236 65.7977 184.342C65.6258 184.447 65.4324 184.5 65.2176 184.5C65.0106 184.5 64.8406 184.467 64.7078 184.4C64.575 184.334 64.4559 184.26 64.3504 184.178C64.2449 184.092 64.1336 184.018 64.0164 183.955C63.8992 183.889 63.7566 183.855 63.5887 183.855C63.409 183.855 63.2566 183.918 63.1316 184.043C63.0066 184.164 62.9441 184.332 62.9441 184.547L62.4168 184.529C62.4168 184.279 62.4676 184.062 62.5691 183.879C62.6707 183.691 62.8074 183.545 62.9793 183.439C63.1551 183.334 63.3504 183.281 63.5652 183.281C63.7488 183.281 63.907 183.314 64.0398 183.381C64.1766 183.443 64.3016 183.518 64.4148 183.604C64.5281 183.689 64.6453 183.766 64.7664 183.832C64.8875 183.895 65.0281 183.926 65.1883 183.926C65.368 183.926 65.5203 183.861 65.6453 183.732C65.7742 183.6 65.8387 183.426 65.8387 183.211ZM70.8721 192.117C70.4581 192.117 70.0772 192.041 69.7295 191.889C69.3858 191.736 69.085 191.521 68.8272 191.244C68.5733 190.967 68.376 190.639 68.2354 190.26C68.0987 189.877 68.0303 189.459 68.0303 189.006V188.754C68.0303 188.266 68.1026 187.824 68.2471 187.43C68.3916 187.035 68.5909 186.697 68.8448 186.416C69.0987 186.135 69.3877 185.92 69.712 185.771C70.0401 185.619 70.3838 185.543 70.7432 185.543C71.1456 185.543 71.503 185.615 71.8155 185.76C72.128 185.9 72.3897 186.102 72.6006 186.363C72.8155 186.621 72.9776 186.928 73.087 187.283C73.1963 187.635 73.251 188.023 73.251 188.449V188.877H68.4522V188.279H72.5538V188.197C72.5459 187.842 72.4737 187.51 72.337 187.201C72.2041 186.889 72.0049 186.635 71.7393 186.439C71.4737 186.244 71.1416 186.146 70.7432 186.146C70.4463 186.146 70.1729 186.209 69.9229 186.334C69.6768 186.459 69.4639 186.639 69.2842 186.873C69.1084 187.104 68.9717 187.379 68.8741 187.699C68.7803 188.016 68.7334 188.367 68.7334 188.754V189.006C68.7334 189.357 68.7842 189.686 68.8858 189.99C68.9913 190.291 69.1397 190.557 69.3311 190.787C69.5264 191.018 69.7569 191.197 70.0225 191.326C70.2881 191.455 70.5811 191.52 70.9014 191.52C71.2764 191.52 71.6084 191.451 71.8975 191.314C72.1866 191.174 72.4463 190.953 72.6768 190.652L73.1163 190.992C72.9795 191.195 72.8077 191.383 72.6006 191.555C72.3975 191.727 72.1534 191.863 71.8682 191.965C71.5831 192.066 71.251 192.117 70.8721 192.117ZM78.1907 190.383C78.1907 190.211 78.1477 190.041 78.0618 189.873C77.9759 189.705 77.8098 189.551 77.5638 189.41C77.3216 189.27 76.9641 189.15 76.4915 189.053C76.1399 188.975 75.8255 188.887 75.5481 188.789C75.2747 188.691 75.0442 188.574 74.8567 188.438C74.6692 188.301 74.5266 188.137 74.429 187.945C74.3313 187.754 74.2825 187.527 74.2825 187.266C74.2825 187.031 74.3333 186.811 74.4348 186.604C74.5403 186.393 74.6888 186.209 74.8802 186.053C75.0755 185.893 75.3098 185.768 75.5833 185.678C75.8606 185.588 76.1712 185.543 76.5149 185.543C77.0032 185.543 77.4212 185.627 77.7688 185.795C78.1204 185.959 78.388 186.184 78.5716 186.469C78.7591 186.754 78.8528 187.076 78.8528 187.436H78.1555C78.1555 187.217 78.0911 187.01 77.9622 186.814C77.8372 186.619 77.6516 186.459 77.4055 186.334C77.1634 186.209 76.8665 186.146 76.5149 186.146C76.1516 186.146 75.8567 186.201 75.6302 186.311C75.4036 186.42 75.2376 186.559 75.1321 186.727C75.0305 186.895 74.9798 187.068 74.9798 187.248C74.9798 187.389 75.0013 187.518 75.0442 187.635C75.0911 187.748 75.1731 187.854 75.2903 187.951C75.4114 188.049 75.5833 188.141 75.8059 188.227C76.0286 188.312 76.3177 188.396 76.6731 188.479C77.1848 188.592 77.6028 188.73 77.927 188.895C78.2552 189.055 78.4973 189.254 78.6536 189.492C78.8098 189.727 78.888 190.012 78.888 190.348C78.888 190.609 78.8333 190.85 78.7239 191.068C78.6145 191.283 78.4563 191.469 78.2493 191.625C78.0462 191.781 77.8001 191.902 77.511 191.988C77.2259 192.074 76.9055 192.117 76.5501 192.117C76.0149 192.117 75.5618 192.029 75.1907 191.854C74.8235 191.674 74.5442 191.439 74.3528 191.15C74.1653 190.857 74.0716 190.547 74.0716 190.219H74.7688C74.7923 190.547 74.8958 190.807 75.0794 190.998C75.263 191.186 75.4876 191.318 75.7532 191.396C76.0227 191.475 76.2884 191.514 76.5501 191.514C76.9095 191.514 77.2102 191.461 77.4524 191.355C77.6946 191.25 77.8782 191.111 78.0032 190.939C78.1282 190.768 78.1907 190.582 78.1907 190.383ZM83.6228 187.014V192H82.9256V185.66H83.5935L83.6228 187.014ZM83.4646 188.438L83.1541 188.262C83.1775 187.887 83.2537 187.535 83.3826 187.207C83.5115 186.879 83.6853 186.59 83.9041 186.34C84.1267 186.09 84.3865 185.895 84.6834 185.754C84.9841 185.613 85.3162 185.543 85.6795 185.543C85.9959 185.543 86.2791 185.586 86.5291 185.672C86.7791 185.758 86.992 185.895 87.1677 186.082C87.3435 186.27 87.4763 186.51 87.5662 186.803C87.6599 187.096 87.7068 187.453 87.7068 187.875V192H87.0037V187.869C87.0037 187.432 86.9431 187.09 86.822 186.844C86.7009 186.594 86.5291 186.416 86.3064 186.311C86.0838 186.205 85.8201 186.152 85.5154 186.152C85.1795 186.152 84.8845 186.227 84.6306 186.375C84.3806 186.52 84.1697 186.709 83.9978 186.943C83.8298 187.174 83.7009 187.422 83.6111 187.688C83.5213 187.949 83.4724 188.199 83.4646 188.438ZM93.1387 190.863V187.594C93.1387 187.293 93.0762 187.033 92.9512 186.814C92.8262 186.596 92.6426 186.428 92.4004 186.311C92.1582 186.193 91.8594 186.135 91.5039 186.135C91.1758 186.135 90.8828 186.193 90.625 186.311C90.3711 186.424 90.1699 186.578 90.0215 186.773C89.877 186.965 89.8047 187.178 89.8047 187.412L89.1016 187.406C89.1016 187.168 89.1602 186.938 89.2773 186.715C89.3945 186.492 89.5605 186.293 89.7754 186.117C89.9902 185.941 90.2461 185.803 90.543 185.701C90.8438 185.596 91.1738 185.543 91.5332 185.543C91.9863 185.543 92.3848 185.619 92.7285 185.771C93.0762 185.924 93.3477 186.152 93.543 186.457C93.7383 186.762 93.8359 187.145 93.8359 187.605V190.67C93.8359 190.889 93.8516 191.115 93.8828 191.35C93.918 191.584 93.9668 191.777 94.0293 191.93V192H93.2852C93.2383 191.859 93.2012 191.684 93.1738 191.473C93.1504 191.258 93.1387 191.055 93.1387 190.863ZM93.3027 188.309L93.3145 188.848H91.9375C91.5781 188.848 91.2559 188.881 90.9707 188.947C90.6895 189.01 90.4512 189.104 90.2559 189.229C90.0605 189.35 89.9102 189.496 89.8047 189.668C89.7031 189.84 89.6523 190.035 89.6523 190.254C89.6523 190.48 89.709 190.688 89.8223 190.875C89.9395 191.062 90.1035 191.213 90.3145 191.326C90.5293 191.436 90.7832 191.49 91.0762 191.49C91.4668 191.49 91.8105 191.418 92.1074 191.273C92.4082 191.129 92.6562 190.939 92.8516 190.705C93.0469 190.471 93.1777 190.215 93.2441 189.938L93.5488 190.342C93.498 190.537 93.4043 190.738 93.2676 190.945C93.1348 191.148 92.9609 191.34 92.7461 191.52C92.5312 191.695 92.2773 191.84 91.9844 191.953C91.6953 192.062 91.3672 192.117 91 192.117C90.5859 192.117 90.2246 192.039 89.916 191.883C89.6113 191.727 89.373 191.514 89.2012 191.244C89.0332 190.971 88.9492 190.662 88.9492 190.318C88.9492 190.006 89.0156 189.727 89.1484 189.48C89.2812 189.23 89.4727 189.02 89.7227 188.848C89.9766 188.672 90.2812 188.539 90.6367 188.449C90.9961 188.355 91.3984 188.309 91.8438 188.309H93.3027ZM98.8579 186.879V194.438H98.1548V185.66H98.811L98.8579 186.879ZM103.264 188.771V188.895C103.264 189.367 103.209 189.801 103.1 190.195C102.991 190.59 102.833 190.932 102.625 191.221C102.422 191.506 102.17 191.727 101.87 191.883C101.569 192.039 101.227 192.117 100.844 192.117C100.465 192.117 100.127 192.059 99.8306 191.941C99.5337 191.824 99.2778 191.658 99.063 191.443C98.852 191.225 98.6821 190.971 98.5532 190.682C98.4282 190.389 98.3403 190.068 98.2895 189.721V188.098C98.3481 187.715 98.4438 187.367 98.5766 187.055C98.7095 186.742 98.8794 186.473 99.0864 186.246C99.2973 186.02 99.5473 185.846 99.8364 185.725C100.125 185.604 100.456 185.543 100.827 185.543C101.213 185.543 101.557 185.619 101.858 185.771C102.163 185.92 102.418 186.137 102.625 186.422C102.836 186.703 102.995 187.043 103.1 187.441C103.209 187.836 103.264 188.279 103.264 188.771ZM102.561 188.895V188.771C102.561 188.4 102.522 188.057 102.444 187.74C102.37 187.424 102.254 187.148 102.098 186.914C101.946 186.676 101.75 186.49 101.512 186.357C101.278 186.225 100.999 186.158 100.674 186.158C100.338 186.158 100.051 186.215 99.813 186.328C99.5786 186.438 99.3833 186.584 99.227 186.768C99.0708 186.947 98.9477 187.145 98.8579 187.359C98.7681 187.574 98.7016 187.785 98.6587 187.992V189.861C98.7329 190.158 98.852 190.434 99.0161 190.688C99.1802 190.938 99.3989 191.139 99.6723 191.291C99.9497 191.439 100.288 191.514 100.686 191.514C101.006 191.514 101.284 191.447 101.518 191.314C101.752 191.182 101.946 190.996 102.098 190.758C102.254 190.52 102.37 190.242 102.444 189.926C102.522 189.609 102.561 189.266 102.561 188.895ZM105.362 183V192H104.665V183H105.362ZM110.894 190.863V187.594C110.894 187.293 110.831 187.033 110.706 186.814C110.581 186.596 110.397 186.428 110.155 186.311C109.913 186.193 109.614 186.135 109.259 186.135C108.931 186.135 108.638 186.193 108.38 186.311C108.126 186.424 107.925 186.578 107.776 186.773C107.632 186.965 107.56 187.178 107.56 187.412L106.856 187.406C106.856 187.168 106.915 186.938 107.032 186.715C107.149 186.492 107.315 186.293 107.53 186.117C107.745 185.941 108.001 185.803 108.298 185.701C108.599 185.596 108.929 185.543 109.288 185.543C109.741 185.543 110.14 185.619 110.483 185.771C110.831 185.924 111.103 186.152 111.298 186.457C111.493 186.762 111.591 187.145 111.591 187.605V190.67C111.591 190.889 111.606 191.115 111.638 191.35C111.673 191.584 111.722 191.777 111.784 191.93V192H111.04C110.993 191.859 110.956 191.684 110.929 191.473C110.905 191.258 110.894 191.055 110.894 190.863ZM111.058 188.309L111.069 188.848H109.692C109.333 188.848 109.011 188.881 108.726 188.947C108.444 189.01 108.206 189.104 108.011 189.229C107.815 189.35 107.665 189.496 107.56 189.668C107.458 189.84 107.407 190.035 107.407 190.254C107.407 190.48 107.464 190.688 107.577 190.875C107.694 191.062 107.858 191.213 108.069 191.326C108.284 191.436 108.538 191.49 108.831 191.49C109.222 191.49 109.565 191.418 109.862 191.273C110.163 191.129 110.411 190.939 110.606 190.705C110.802 190.471 110.933 190.215 110.999 189.938L111.304 190.342C111.253 190.537 111.159 190.738 111.022 190.945C110.89 191.148 110.716 191.34 110.501 191.52C110.286 191.695 110.032 191.84 109.739 191.953C109.45 192.062 109.122 192.117 108.755 192.117C108.341 192.117 107.979 192.039 107.671 191.883C107.366 191.727 107.128 191.514 106.956 191.244C106.788 190.971 106.704 190.662 106.704 190.318C106.704 190.006 106.77 189.727 106.903 189.48C107.036 189.23 107.228 189.02 107.478 188.848C107.731 188.672 108.036 188.539 108.392 188.449C108.751 188.355 109.153 188.309 109.599 188.309H111.058ZM115.628 185.66V186.234H112.452V185.66H115.628ZM113.618 184.031H114.316V190.459C114.316 190.752 114.355 190.973 114.433 191.121C114.511 191.27 114.613 191.369 114.738 191.42C114.863 191.471 114.997 191.496 115.142 191.496C115.247 191.496 115.349 191.49 115.446 191.479C115.544 191.463 115.632 191.447 115.71 191.432L115.739 192.023C115.654 192.051 115.542 192.072 115.405 192.088C115.269 192.107 115.132 192.117 114.995 192.117C114.726 192.117 114.488 192.068 114.28 191.971C114.073 191.869 113.911 191.697 113.794 191.455C113.677 191.209 113.618 190.875 113.618 190.453V184.031ZM120.714 190.863V187.594C120.714 187.293 120.652 187.033 120.527 186.814C120.402 186.596 120.218 186.428 119.976 186.311C119.734 186.193 119.435 186.135 119.08 186.135C118.751 186.135 118.458 186.193 118.201 186.311C117.947 186.424 117.746 186.578 117.597 186.773C117.453 186.965 117.38 187.178 117.38 187.412L116.677 187.406C116.677 187.168 116.736 186.938 116.853 186.715C116.97 186.492 117.136 186.293 117.351 186.117C117.566 185.941 117.822 185.803 118.119 185.701C118.419 185.596 118.749 185.543 119.109 185.543C119.562 185.543 119.96 185.619 120.304 185.771C120.652 185.924 120.923 186.152 121.119 186.457C121.314 186.762 121.412 187.145 121.412 187.605V190.67C121.412 190.889 121.427 191.115 121.458 191.35C121.494 191.584 121.542 191.777 121.605 191.93V192H120.861C120.814 191.859 120.777 191.684 120.749 191.473C120.726 191.258 120.714 191.055 120.714 190.863ZM120.878 188.309L120.89 188.848H119.513C119.154 188.848 118.831 188.881 118.546 188.947C118.265 189.01 118.027 189.104 117.831 189.229C117.636 189.35 117.486 189.496 117.38 189.668C117.279 189.84 117.228 190.035 117.228 190.254C117.228 190.48 117.285 190.688 117.398 190.875C117.515 191.062 117.679 191.213 117.89 191.326C118.105 191.436 118.359 191.49 118.652 191.49C119.042 191.49 119.386 191.418 119.683 191.273C119.984 191.129 120.232 190.939 120.427 190.705C120.623 190.471 120.753 190.215 120.82 189.938L121.124 190.342C121.074 190.537 120.98 190.738 120.843 190.945C120.71 191.148 120.537 191.34 120.322 191.52C120.107 191.695 119.853 191.84 119.56 191.953C119.271 192.062 118.943 192.117 118.576 192.117C118.162 192.117 117.8 192.039 117.492 191.883C117.187 191.727 116.949 191.514 116.777 191.244C116.609 190.971 116.525 190.662 116.525 190.318C116.525 190.006 116.591 189.727 116.724 189.48C116.857 189.23 117.048 189.02 117.298 188.848C117.552 188.672 117.857 188.539 118.212 188.449C118.572 188.355 118.974 188.309 119.419 188.309H120.878ZM124.254 192H123.556V184.875C123.556 184.441 123.631 184.076 123.779 183.779C123.931 183.482 124.146 183.258 124.424 183.105C124.705 182.953 125.039 182.877 125.425 182.877C125.547 182.877 125.672 182.885 125.8 182.9C125.929 182.912 126.054 182.938 126.175 182.977L126.123 183.568C126.025 183.541 125.925 183.523 125.824 183.516C125.726 183.504 125.611 183.498 125.478 183.498C125.224 183.498 125.006 183.553 124.822 183.662C124.638 183.768 124.498 183.922 124.4 184.125C124.302 184.328 124.254 184.578 124.254 184.875V192ZM125.765 185.66V186.234H122.507V185.66H125.765ZM126.398 188.93V188.736C126.398 188.275 126.465 187.85 126.598 187.459C126.73 187.068 126.92 186.73 127.166 186.445C127.416 186.16 127.715 185.939 128.062 185.783C128.41 185.623 128.797 185.543 129.223 185.543C129.652 185.543 130.041 185.623 130.389 185.783C130.736 185.939 131.035 186.16 131.285 186.445C131.535 186.73 131.726 187.068 131.859 187.459C131.992 187.85 132.059 188.275 132.059 188.736V188.93C132.059 189.391 131.992 189.816 131.859 190.207C131.726 190.594 131.535 190.93 131.285 191.215C131.039 191.5 130.742 191.723 130.394 191.883C130.047 192.039 129.66 192.117 129.234 192.117C128.805 192.117 128.416 192.039 128.068 191.883C127.721 191.723 127.422 191.5 127.172 191.215C126.922 190.93 126.73 190.594 126.598 190.207C126.465 189.816 126.398 189.391 126.398 188.93ZM127.096 188.736V188.93C127.096 189.277 127.143 189.607 127.236 189.92C127.33 190.229 127.467 190.504 127.646 190.746C127.826 190.984 128.049 191.172 128.314 191.309C128.58 191.445 128.887 191.514 129.234 191.514C129.578 191.514 129.881 191.445 130.143 191.309C130.408 191.172 130.631 190.984 130.81 190.746C130.99 190.504 131.125 190.229 131.215 189.92C131.309 189.607 131.355 189.277 131.355 188.93V188.736C131.355 188.393 131.309 188.066 131.215 187.758C131.125 187.449 130.988 187.174 130.805 186.932C130.625 186.689 130.402 186.498 130.137 186.357C129.871 186.217 129.566 186.146 129.223 186.146C128.879 186.146 128.574 186.217 128.309 186.357C128.047 186.498 127.824 186.689 127.641 186.932C127.461 187.174 127.324 187.449 127.23 187.758C127.141 188.066 127.096 188.393 127.096 188.736ZM133.969 186.709V192H133.272V185.66H133.951L133.969 186.709ZM136.213 185.613L136.195 186.258C136.117 186.246 136.041 186.236 135.967 186.229C135.893 186.221 135.813 186.217 135.727 186.217C135.422 186.217 135.154 186.273 134.924 186.387C134.697 186.496 134.506 186.65 134.35 186.85C134.194 187.045 134.074 187.275 133.992 187.541C133.91 187.803 133.863 188.084 133.852 188.385L133.594 188.484C133.594 188.07 133.637 187.686 133.723 187.33C133.809 186.975 133.94 186.664 134.115 186.398C134.295 186.129 134.52 185.92 134.789 185.771C135.063 185.619 135.383 185.543 135.75 185.543C135.84 185.543 135.928 185.551 136.014 185.566C136.104 185.578 136.17 185.594 136.213 185.613ZM137.737 186.973V192H137.034V185.66H137.707L137.737 186.973ZM137.608 188.438L137.268 188.262C137.291 187.887 137.362 187.535 137.479 187.207C137.6 186.879 137.768 186.59 137.983 186.34C138.198 186.09 138.455 185.895 138.756 185.754C139.057 185.613 139.399 185.543 139.782 185.543C140.09 185.543 140.37 185.586 140.62 185.672C140.873 185.754 141.088 185.885 141.264 186.064C141.444 186.24 141.582 186.471 141.68 186.756C141.778 187.041 141.827 187.383 141.827 187.781V192H141.129V187.805C141.129 187.383 141.063 187.053 140.93 186.814C140.801 186.576 140.62 186.406 140.385 186.305C140.155 186.203 139.887 186.152 139.582 186.152C139.223 186.152 138.918 186.227 138.668 186.375C138.422 186.52 138.221 186.709 138.065 186.943C137.913 187.174 137.799 187.422 137.725 187.688C137.651 187.949 137.612 188.199 137.608 188.438ZM141.821 187.887L141.352 187.898C141.371 187.59 141.442 187.295 141.563 187.014C141.688 186.732 141.858 186.482 142.073 186.264C142.288 186.041 142.543 185.865 142.84 185.736C143.141 185.607 143.479 185.543 143.854 185.543C144.182 185.543 144.475 185.588 144.733 185.678C144.991 185.764 145.207 185.902 145.383 186.094C145.563 186.281 145.7 186.521 145.793 186.814C145.887 187.107 145.934 187.459 145.934 187.869V192H145.231V187.863C145.231 187.414 145.164 187.066 145.032 186.82C144.903 186.57 144.723 186.396 144.493 186.299C144.262 186.201 143.993 186.152 143.684 186.152C143.379 186.156 143.112 186.213 142.881 186.322C142.651 186.428 142.457 186.568 142.301 186.744C142.149 186.916 142.032 187.102 141.95 187.301C141.871 187.5 141.829 187.695 141.821 187.887ZM151.331 190.863V187.594C151.331 187.293 151.268 187.033 151.143 186.814C151.018 186.596 150.835 186.428 150.592 186.311C150.35 186.193 150.051 186.135 149.696 186.135C149.368 186.135 149.075 186.193 148.817 186.311C148.563 186.424 148.362 186.578 148.214 186.773C148.069 186.965 147.997 187.178 147.997 187.412L147.294 187.406C147.294 187.168 147.352 186.938 147.469 186.715C147.587 186.492 147.753 186.293 147.967 186.117C148.182 185.941 148.438 185.803 148.735 185.701C149.036 185.596 149.366 185.543 149.725 185.543C150.178 185.543 150.577 185.619 150.921 185.771C151.268 185.924 151.54 186.152 151.735 186.457C151.93 186.762 152.028 187.145 152.028 187.605V190.67C152.028 190.889 152.044 191.115 152.075 191.35C152.11 191.584 152.159 191.777 152.221 191.93V192H151.477C151.43 191.859 151.393 191.684 151.366 191.473C151.342 191.258 151.331 191.055 151.331 190.863ZM151.495 188.309L151.507 188.848H150.13C149.77 188.848 149.448 188.881 149.163 188.947C148.882 189.01 148.643 189.104 148.448 189.229C148.253 189.35 148.102 189.496 147.997 189.668C147.895 189.84 147.844 190.035 147.844 190.254C147.844 190.48 147.901 190.688 148.014 190.875C148.132 191.062 148.296 191.213 148.507 191.326C148.721 191.436 148.975 191.49 149.268 191.49C149.659 191.49 150.003 191.418 150.299 191.273C150.6 191.129 150.848 190.939 151.044 190.705C151.239 190.471 151.37 190.215 151.436 189.938L151.741 190.342C151.69 190.537 151.596 190.738 151.46 190.945C151.327 191.148 151.153 191.34 150.938 191.52C150.723 191.695 150.469 191.84 150.176 191.953C149.887 192.062 149.559 192.117 149.192 192.117C148.778 192.117 148.417 192.039 148.108 191.883C147.803 191.727 147.565 191.514 147.393 191.244C147.225 190.971 147.141 190.662 147.141 190.318C147.141 190.006 147.208 189.727 147.34 189.48C147.473 189.23 147.665 189.02 147.915 188.848C148.169 188.672 148.473 188.539 148.829 188.449C149.188 188.355 149.59 188.309 150.036 188.309H151.495ZM154.454 183.469L154.413 189.621H153.768L153.727 183.469H154.454ZM153.651 191.584C153.651 191.451 153.692 191.34 153.774 191.25C153.86 191.156 153.979 191.109 154.132 191.109C154.28 191.109 154.397 191.156 154.483 191.25C154.573 191.34 154.618 191.451 154.618 191.584C154.618 191.713 154.573 191.824 154.483 191.918C154.397 192.008 154.28 192.053 154.132 192.053C153.979 192.053 153.86 192.008 153.774 191.918C153.692 191.824 153.651 191.713 153.651 191.584Z" fill="#FAFAFA"/>
<path d="M26.4384 147.625V159H24.0947L19.5244 151.375V159H17.1806V147.625H19.5244L24.1025 155.258V147.625H26.4384ZM32.5794 157.094V153.328C32.5794 153.057 32.5351 152.826 32.4466 152.633C32.358 152.435 32.22 152.281 32.0325 152.172C31.8502 152.062 31.6132 152.008 31.3216 152.008C31.0716 152.008 30.8554 152.052 30.6731 152.141C30.4908 152.224 30.3502 152.346 30.2513 152.508C30.1523 152.664 30.1028 152.849 30.1028 153.062H27.8528C27.8528 152.703 27.9361 152.362 28.1028 152.039C28.2695 151.716 28.5117 151.432 28.8294 151.188C29.1471 150.938 29.5247 150.742 29.9622 150.602C30.4049 150.461 30.8997 150.391 31.4466 150.391C32.1028 150.391 32.6861 150.5 33.1966 150.719C33.707 150.938 34.108 151.266 34.3997 151.703C34.6966 152.141 34.845 152.688 34.845 153.344V156.961C34.845 157.424 34.8736 157.805 34.9309 158.102C34.9882 158.393 35.0716 158.648 35.1809 158.867V159H32.9075C32.7981 158.771 32.7148 158.484 32.6575 158.141C32.6054 157.792 32.5794 157.443 32.5794 157.094ZM32.8763 153.852L32.8919 155.125H31.6341C31.3372 155.125 31.0794 155.159 30.8606 155.227C30.6419 155.294 30.4622 155.391 30.3216 155.516C30.1809 155.635 30.0768 155.776 30.0091 155.938C29.9466 156.099 29.9153 156.276 29.9153 156.469C29.9153 156.661 29.9596 156.836 30.0481 156.992C30.1367 157.143 30.2643 157.263 30.4309 157.352C30.5976 157.435 30.7929 157.477 31.0169 157.477C31.3554 157.477 31.6497 157.409 31.8997 157.273C32.1497 157.138 32.3424 156.971 32.4778 156.773C32.6184 156.576 32.6914 156.388 32.6966 156.211L33.2903 157.164C33.207 157.378 33.0924 157.599 32.9466 157.828C32.8059 158.057 32.6263 158.273 32.4075 158.477C32.1888 158.674 31.9257 158.839 31.6184 158.969C31.3111 159.094 30.9466 159.156 30.5247 159.156C29.9882 159.156 29.5013 159.049 29.0638 158.836C28.6315 158.617 28.2877 158.318 28.0325 157.938C27.7825 157.552 27.6575 157.115 27.6575 156.625C27.6575 156.182 27.7408 155.789 27.9075 155.445C28.0742 155.102 28.319 154.812 28.6419 154.578C28.97 154.339 29.3789 154.159 29.8684 154.039C30.358 153.914 30.9257 153.852 31.5716 153.852H32.8763ZM41.2516 157.156V147H43.5172V159H41.4781L41.2516 157.156ZM35.9078 154.875V154.711C35.9078 154.065 35.9807 153.479 36.1266 152.953C36.2724 152.422 36.4859 151.966 36.7672 151.586C37.0484 151.206 37.3948 150.911 37.8063 150.703C38.2177 150.495 38.6865 150.391 39.2125 150.391C39.7073 150.391 40.1396 150.495 40.5094 150.703C40.8844 150.911 41.2021 151.208 41.4625 151.594C41.7281 151.974 41.9417 152.424 42.1031 152.945C42.2646 153.461 42.3818 154.026 42.4547 154.641V155C42.3818 155.589 42.2646 156.135 42.1031 156.641C41.9417 157.146 41.7281 157.589 41.4625 157.969C41.2021 158.344 40.8844 158.635 40.5094 158.844C40.1344 159.052 39.6969 159.156 39.1969 159.156C38.6708 159.156 38.2021 159.049 37.7906 158.836C37.3844 158.622 37.0406 158.323 36.7594 157.938C36.4833 157.552 36.2724 157.099 36.1266 156.578C35.9807 156.057 35.9078 155.49 35.9078 154.875ZM38.1578 154.711V154.875C38.1578 155.224 38.1839 155.549 38.2359 155.852C38.2932 156.154 38.3844 156.422 38.5094 156.656C38.6396 156.885 38.8063 157.065 39.0094 157.195C39.2177 157.32 39.4703 157.383 39.7672 157.383C40.1526 157.383 40.4703 157.297 40.7203 157.125C40.9703 156.948 41.1604 156.706 41.2906 156.398C41.426 156.091 41.5042 155.737 41.525 155.336V154.312C41.5094 153.984 41.4625 153.69 41.3844 153.43C41.3115 153.164 41.2021 152.938 41.0563 152.75C40.9156 152.562 40.7385 152.417 40.525 152.312C40.3167 152.208 40.0693 152.156 39.7828 152.156C39.4911 152.156 39.2411 152.224 39.0328 152.359C38.8245 152.49 38.6552 152.669 38.525 152.898C38.4 153.128 38.3063 153.398 38.2438 153.711C38.1865 154.018 38.1578 154.352 38.1578 154.711ZM49.5175 157.094V153.328C49.5175 153.057 49.4732 152.826 49.3847 152.633C49.2961 152.435 49.1581 152.281 48.9706 152.172C48.7883 152.062 48.5514 152.008 48.2597 152.008C48.0097 152.008 47.7935 152.052 47.6113 152.141C47.429 152.224 47.2883 152.346 47.1894 152.508C47.0904 152.664 47.0409 152.849 47.0409 153.062H44.7909C44.7909 152.703 44.8743 152.362 45.0409 152.039C45.2076 151.716 45.4498 151.432 45.7675 151.188C46.0852 150.938 46.4628 150.742 46.9003 150.602C47.343 150.461 47.8378 150.391 48.3847 150.391C49.0409 150.391 49.6243 150.5 50.1347 150.719C50.6451 150.938 51.0461 151.266 51.3378 151.703C51.6347 152.141 51.7831 152.688 51.7831 153.344V156.961C51.7831 157.424 51.8118 157.805 51.8691 158.102C51.9264 158.393 52.0097 158.648 52.1191 158.867V159H49.8456C49.7363 158.771 49.6529 158.484 49.5956 158.141C49.5435 157.792 49.5175 157.443 49.5175 157.094ZM49.8144 153.852L49.83 155.125H48.5722C48.2753 155.125 48.0175 155.159 47.7988 155.227C47.58 155.294 47.4003 155.391 47.2597 155.516C47.1191 155.635 47.0149 155.776 46.9472 155.938C46.8847 156.099 46.8534 156.276 46.8534 156.469C46.8534 156.661 46.8977 156.836 46.9863 156.992C47.0748 157.143 47.2024 157.263 47.3691 157.352C47.5357 157.435 47.731 157.477 47.955 157.477C48.2935 157.477 48.5878 157.409 48.8378 157.273C49.0878 157.138 49.2805 156.971 49.4159 156.773C49.5566 156.576 49.6295 156.388 49.6347 156.211L50.2284 157.164C50.1451 157.378 50.0305 157.599 49.8847 157.828C49.7441 158.057 49.5644 158.273 49.3456 158.477C49.1269 158.674 48.8639 158.839 48.5566 158.969C48.2493 159.094 47.8847 159.156 47.4628 159.156C46.9264 159.156 46.4394 159.049 46.0019 158.836C45.5696 158.617 45.2258 158.318 44.9706 157.938C44.7206 157.552 44.5956 157.115 44.5956 156.625C44.5956 156.182 44.679 155.789 44.8456 155.445C45.0123 155.102 45.2571 154.812 45.58 154.578C45.9081 154.339 46.317 154.159 46.8066 154.039C47.2961 153.914 47.8639 153.852 48.5097 153.852H49.8144ZM59.1119 152.172V162.25H56.8619V150.547H58.9478L59.1119 152.172ZM64.4634 154.68V154.844C64.4634 155.458 64.3905 156.029 64.2447 156.555C64.1041 157.081 63.8957 157.539 63.6197 157.93C63.3436 158.315 62.9999 158.617 62.5884 158.836C62.1822 159.049 61.7134 159.156 61.1822 159.156C60.6666 159.156 60.2186 159.052 59.8384 158.844C59.4582 158.635 59.1379 158.344 58.8775 157.969C58.6223 157.589 58.4166 157.148 58.2603 156.648C58.1041 156.148 57.9843 155.612 57.9009 155.039V154.609C57.9843 153.995 58.1041 153.432 58.2603 152.922C58.4166 152.406 58.6223 151.961 58.8775 151.586C59.1379 151.206 59.4556 150.911 59.8306 150.703C60.2108 150.495 60.6561 150.391 61.1666 150.391C61.703 150.391 62.1744 150.492 62.5806 150.695C62.9921 150.898 63.3358 151.19 63.6119 151.57C63.8931 151.951 64.1041 152.404 64.2447 152.93C64.3905 153.456 64.4634 154.039 64.4634 154.68ZM62.2056 154.844V154.68C62.2056 154.32 62.1744 153.99 62.1119 153.688C62.0546 153.38 61.9608 153.112 61.8306 152.883C61.7056 152.654 61.539 152.477 61.3306 152.352C61.1275 152.221 60.8801 152.156 60.5884 152.156C60.2811 152.156 60.0181 152.206 59.7994 152.305C59.5858 152.404 59.4114 152.547 59.2759 152.734C59.1405 152.922 59.039 153.146 58.9713 153.406C58.9035 153.667 58.8619 153.961 58.8463 154.289V155.375C58.8723 155.76 58.9452 156.107 59.065 156.414C59.1848 156.716 59.3697 156.956 59.6197 157.133C59.8697 157.31 60.1978 157.398 60.6041 157.398C60.9009 157.398 61.1509 157.333 61.3541 157.203C61.5572 157.068 61.7213 156.883 61.8463 156.648C61.9765 156.414 62.0676 156.143 62.1197 155.836C62.177 155.529 62.2056 155.198 62.2056 154.844ZM65.1825 154.859V154.695C65.1825 154.076 65.271 153.505 65.4481 152.984C65.6252 152.458 65.883 152.003 66.2216 151.617C66.5601 151.232 66.9768 150.932 67.4716 150.719C67.9664 150.5 68.5341 150.391 69.1747 150.391C69.8153 150.391 70.3856 150.5 70.8856 150.719C71.3856 150.932 71.8049 151.232 72.1434 151.617C72.4872 152.003 72.7476 152.458 72.9247 152.984C73.1018 153.505 73.1903 154.076 73.1903 154.695V154.859C73.1903 155.474 73.1018 156.044 72.9247 156.57C72.7476 157.091 72.4872 157.547 72.1434 157.938C71.8049 158.323 71.3882 158.622 70.8934 158.836C70.3986 159.049 69.8309 159.156 69.1903 159.156C68.5497 159.156 67.9794 159.049 67.4794 158.836C66.9846 158.622 66.5653 158.323 66.2216 157.938C65.883 157.547 65.6252 157.091 65.4481 156.57C65.271 156.044 65.1825 155.474 65.1825 154.859ZM67.4325 154.695V154.859C67.4325 155.214 67.4638 155.544 67.5263 155.852C67.5888 156.159 67.6877 156.43 67.8231 156.664C67.9638 156.893 68.146 157.073 68.37 157.203C68.594 157.333 68.8674 157.398 69.1903 157.398C69.5028 157.398 69.771 157.333 69.995 157.203C70.219 157.073 70.3986 156.893 70.5341 156.664C70.6695 156.43 70.7684 156.159 70.8309 155.852C70.8986 155.544 70.9325 155.214 70.9325 154.859V154.695C70.9325 154.352 70.8986 154.029 70.8309 153.727C70.7684 153.419 70.6669 153.148 70.5263 152.914C70.3908 152.674 70.2111 152.487 69.9872 152.352C69.7632 152.216 69.4924 152.148 69.1747 152.148C68.857 152.148 68.5861 152.216 68.3622 152.352C68.1434 152.487 67.9638 152.674 67.8231 152.914C67.6877 153.148 67.5888 153.419 67.5263 153.727C67.4638 154.029 67.4325 154.352 67.4325 154.695ZM76.5031 152.391V159H74.2531V150.547H76.3703L76.5031 152.391ZM79.05 150.492L79.0109 152.578C78.9016 152.562 78.7687 152.549 78.6125 152.539C78.4615 152.523 78.3234 152.516 78.1984 152.516C77.8807 152.516 77.6047 152.557 77.3703 152.641C77.1411 152.719 76.9484 152.836 76.7922 152.992C76.6411 153.148 76.5266 153.339 76.4484 153.562C76.3755 153.786 76.3339 154.042 76.3234 154.328L75.8703 154.188C75.8703 153.641 75.925 153.138 76.0344 152.68C76.1437 152.216 76.3026 151.812 76.5109 151.469C76.7245 151.125 76.9849 150.859 77.2922 150.672C77.5995 150.484 77.951 150.391 78.3469 150.391C78.4719 150.391 78.5995 150.401 78.7297 150.422C78.8599 150.438 78.9667 150.461 79.05 150.492ZM88.0194 157.094V153.328C88.0194 153.057 87.9751 152.826 87.8866 152.633C87.798 152.435 87.66 152.281 87.4725 152.172C87.2902 152.062 87.0532 152.008 86.7616 152.008C86.5116 152.008 86.2954 152.052 86.1131 152.141C85.9308 152.224 85.7902 152.346 85.6913 152.508C85.5923 152.664 85.5428 152.849 85.5428 153.062H83.2928C83.2928 152.703 83.3761 152.362 83.5428 152.039C83.7095 151.716 83.9517 151.432 84.2694 151.188C84.5871 150.938 84.9647 150.742 85.4022 150.602C85.8449 150.461 86.3397 150.391 86.8866 150.391C87.5428 150.391 88.1261 150.5 88.6366 150.719C89.147 150.938 89.548 151.266 89.8397 151.703C90.1366 152.141 90.285 152.688 90.285 153.344V156.961C90.285 157.424 90.3136 157.805 90.3709 158.102C90.4282 158.393 90.5116 158.648 90.6209 158.867V159H88.3475C88.2381 158.771 88.1548 158.484 88.0975 158.141C88.0454 157.792 88.0194 157.443 88.0194 157.094ZM88.3163 153.852L88.3319 155.125H87.0741C86.7772 155.125 86.5194 155.159 86.3006 155.227C86.0819 155.294 85.9022 155.391 85.7616 155.516C85.6209 155.635 85.5168 155.776 85.4491 155.938C85.3866 156.099 85.3553 156.276 85.3553 156.469C85.3553 156.661 85.3996 156.836 85.4881 156.992C85.5767 157.143 85.7043 157.263 85.8709 157.352C86.0376 157.435 86.2329 157.477 86.4569 157.477C86.7954 157.477 87.0897 157.409 87.3397 157.273C87.5897 157.138 87.7824 156.971 87.9178 156.773C88.0584 156.576 88.1314 156.388 88.1366 156.211L88.7303 157.164C88.647 157.378 88.5324 157.599 88.3866 157.828C88.2459 158.057 88.0663 158.273 87.8475 158.477C87.6288 158.674 87.3657 158.839 87.0584 158.969C86.7511 159.094 86.3866 159.156 85.9647 159.156C85.4282 159.156 84.9413 159.049 84.5038 158.836C84.0715 158.617 83.7277 158.318 83.4725 157.938C83.2225 157.552 83.0975 157.115 83.0975 156.625C83.0975 156.182 83.1808 155.789 83.3475 155.445C83.5142 155.102 83.759 154.812 84.0819 154.578C84.41 154.339 84.8189 154.159 85.3084 154.039C85.798 153.914 86.3657 153.852 87.0116 153.852H88.3163ZM96.6916 162.25V152.273L96.9806 150.547H98.9572V162.25H96.6916ZM91.3478 154.859V154.695C91.3478 154.049 91.4181 153.464 91.5588 152.938C91.7046 152.406 91.9181 151.953 92.1994 151.578C92.4806 151.198 92.8244 150.906 93.2306 150.703C93.6421 150.495 94.116 150.391 94.6525 150.391C95.1681 150.391 95.6134 150.495 95.9884 150.703C96.3634 150.911 96.6785 151.206 96.9338 151.586C97.1942 151.966 97.4025 152.414 97.5588 152.93C97.715 153.445 97.8348 154.01 97.9181 154.625V154.984C97.84 155.573 97.7202 156.12 97.5588 156.625C97.4025 157.13 97.1942 157.573 96.9338 157.953C96.6785 158.333 96.3608 158.63 95.9806 158.844C95.6056 159.052 95.1577 159.156 94.6369 159.156C94.1108 159.156 93.6421 159.049 93.2306 158.836C92.8244 158.617 92.4806 158.315 92.1994 157.93C91.9181 157.544 91.7046 157.091 91.5588 156.57C91.4181 156.044 91.3478 155.474 91.3478 154.859ZM93.5978 154.695V154.859C93.5978 155.208 93.6265 155.536 93.6838 155.844C93.741 156.146 93.8322 156.414 93.9572 156.648C94.0874 156.883 94.2541 157.068 94.4572 157.203C94.6603 157.333 94.9103 157.398 95.2072 157.398C95.6186 157.398 95.9494 157.31 96.1994 157.133C96.4546 156.951 96.6421 156.703 96.7619 156.391C96.8869 156.078 96.9598 155.721 96.9806 155.32V154.297C96.965 153.969 96.9207 153.674 96.8478 153.414C96.7801 153.148 96.6759 152.922 96.5353 152.734C96.3999 152.547 96.2228 152.404 96.0041 152.305C95.7905 152.201 95.5301 152.148 95.2228 152.148C94.9311 152.148 94.6811 152.214 94.4728 152.344C94.2645 152.474 94.0952 152.656 93.965 152.891C93.84 153.12 93.7463 153.388 93.6838 153.695C93.6265 154.003 93.5978 154.336 93.5978 154.695ZM105.411 156.977V150.547H107.661V159H105.543L105.411 156.977ZM105.661 155.242L106.325 155.227C106.325 155.789 106.26 156.312 106.129 156.797C105.999 157.276 105.804 157.693 105.543 158.047C105.283 158.396 104.955 158.669 104.559 158.867C104.163 159.06 103.697 159.156 103.161 159.156C102.749 159.156 102.369 159.099 102.02 158.984C101.676 158.865 101.379 158.68 101.129 158.43C100.885 158.174 100.692 157.849 100.551 157.453C100.416 157.052 100.348 156.57 100.348 156.008V150.547H102.598V156.023C102.598 156.273 102.627 156.484 102.684 156.656C102.747 156.828 102.833 156.969 102.942 157.078C103.051 157.188 103.179 157.266 103.325 157.312C103.476 157.359 103.642 157.383 103.825 157.383C104.288 157.383 104.653 157.289 104.918 157.102C105.189 156.914 105.379 156.659 105.489 156.336C105.603 156.008 105.661 155.643 105.661 155.242ZM111.434 150.547V159H109.177V150.547H111.434ZM109.036 148.344C109.036 148.016 109.151 147.745 109.38 147.531C109.609 147.318 109.916 147.211 110.302 147.211C110.682 147.211 110.986 147.318 111.216 147.531C111.45 147.745 111.567 148.016 111.567 148.344C111.567 148.672 111.45 148.943 111.216 149.156C110.986 149.37 110.682 149.477 110.302 149.477C109.916 149.477 109.609 149.37 109.38 149.156C109.151 148.943 109.036 148.672 109.036 148.344ZM121.201 157.094V153.328C121.201 153.057 121.156 152.826 121.068 152.633C120.979 152.435 120.841 152.281 120.654 152.172C120.471 152.062 120.234 152.008 119.943 152.008C119.693 152.008 119.477 152.052 119.294 152.141C119.112 152.224 118.971 152.346 118.872 152.508C118.774 152.664 118.724 152.849 118.724 153.062H116.474C116.474 152.703 116.557 152.362 116.724 152.039C116.891 151.716 117.133 151.432 117.451 151.188C117.768 150.938 118.146 150.742 118.583 150.602C119.026 150.461 119.521 150.391 120.068 150.391C120.724 150.391 121.307 150.5 121.818 150.719C122.328 150.938 122.729 151.266 123.021 151.703C123.318 152.141 123.466 152.688 123.466 153.344V156.961C123.466 157.424 123.495 157.805 123.552 158.102C123.609 158.393 123.693 158.648 123.802 158.867V159H121.529C121.419 158.771 121.336 158.484 121.279 158.141C121.227 157.792 121.201 157.443 121.201 157.094ZM121.497 153.852L121.513 155.125H120.255C119.958 155.125 119.701 155.159 119.482 155.227C119.263 155.294 119.083 155.391 118.943 155.516C118.802 155.635 118.698 155.776 118.63 155.938C118.568 156.099 118.537 156.276 118.537 156.469C118.537 156.661 118.581 156.836 118.669 156.992C118.758 157.143 118.886 157.263 119.052 157.352C119.219 157.435 119.414 157.477 119.638 157.477C119.977 157.477 120.271 157.409 120.521 157.273C120.771 157.138 120.964 156.971 121.099 156.773C121.24 156.576 121.313 156.388 121.318 156.211L121.912 157.164C121.828 157.378 121.714 157.599 121.568 157.828C121.427 158.057 121.247 158.273 121.029 158.477C120.81 158.674 120.547 158.839 120.24 158.969C119.932 159.094 119.568 159.156 119.146 159.156C118.609 159.156 118.122 159.049 117.685 158.836C117.253 158.617 116.909 158.318 116.654 157.938C116.404 157.552 116.279 157.115 116.279 156.625C116.279 156.182 116.362 155.789 116.529 155.445C116.695 155.102 116.94 154.812 117.263 154.578C117.591 154.339 118 154.159 118.49 154.039C118.979 153.914 119.547 153.852 120.193 153.852H121.497ZM127.256 150.547V159H124.998V150.547H127.256ZM124.857 148.344C124.857 148.016 124.972 147.745 125.201 147.531C125.43 147.318 125.737 147.211 126.123 147.211C126.503 147.211 126.808 147.318 127.037 147.531C127.271 147.745 127.388 148.016 127.388 148.344C127.388 148.672 127.271 148.943 127.037 149.156C126.808 149.37 126.503 149.477 126.123 149.477C125.737 149.477 125.43 149.37 125.201 149.156C124.972 148.943 124.857 148.672 124.857 148.344ZM130.998 152.352V159H128.748V150.547H130.857L130.998 152.352ZM130.67 154.477H130.061C130.061 153.852 130.141 153.289 130.303 152.789C130.464 152.284 130.691 151.854 130.982 151.5C131.274 151.141 131.621 150.867 132.022 150.68C132.428 150.487 132.881 150.391 133.381 150.391C133.777 150.391 134.139 150.448 134.467 150.562C134.795 150.677 135.076 150.859 135.311 151.109C135.55 151.359 135.732 151.69 135.857 152.102C135.988 152.513 136.053 153.016 136.053 153.609V159H133.787V153.602C133.787 153.227 133.735 152.935 133.631 152.727C133.527 152.518 133.373 152.372 133.17 152.289C132.972 152.201 132.727 152.156 132.436 152.156C132.134 152.156 131.871 152.216 131.647 152.336C131.428 152.456 131.246 152.622 131.1 152.836C130.959 153.044 130.852 153.289 130.779 153.57C130.706 153.852 130.67 154.154 130.67 154.477ZM142.436 157.156V147H144.702V159H142.662L142.436 157.156ZM137.092 154.875V154.711C137.092 154.065 137.165 153.479 137.311 152.953C137.457 152.422 137.67 151.966 137.952 151.586C138.233 151.206 138.579 150.911 138.991 150.703C139.402 150.495 139.871 150.391 140.397 150.391C140.892 150.391 141.324 150.495 141.694 150.703C142.069 150.911 142.386 151.208 142.647 151.594C142.912 151.974 143.126 152.424 143.287 152.945C143.449 153.461 143.566 154.026 143.639 154.641V155C143.566 155.589 143.449 156.135 143.287 156.641C143.126 157.146 142.912 157.589 142.647 157.969C142.386 158.344 142.069 158.635 141.694 158.844C141.319 159.052 140.881 159.156 140.381 159.156C139.855 159.156 139.386 159.049 138.975 158.836C138.569 158.622 138.225 158.323 137.944 157.938C137.668 157.552 137.457 157.099 137.311 156.578C137.165 156.057 137.092 155.49 137.092 154.875ZM139.342 154.711V154.875C139.342 155.224 139.368 155.549 139.42 155.852C139.478 156.154 139.569 156.422 139.694 156.656C139.824 156.885 139.991 157.065 140.194 157.195C140.402 157.32 140.655 157.383 140.952 157.383C141.337 157.383 141.655 157.297 141.905 157.125C142.155 156.948 142.345 156.706 142.475 156.398C142.61 156.091 142.689 155.737 142.709 155.336V154.312C142.694 153.984 142.647 153.69 142.569 153.43C142.496 153.164 142.386 152.938 142.241 152.75C142.1 152.562 141.923 152.417 141.709 152.312C141.501 152.208 141.254 152.156 140.967 152.156C140.676 152.156 140.426 152.224 140.217 152.359C140.009 152.49 139.84 152.669 139.709 152.898C139.584 153.128 139.491 153.398 139.428 153.711C139.371 154.018 139.342 154.352 139.342 154.711ZM150.702 157.094V153.328C150.702 153.057 150.658 152.826 150.569 152.633C150.481 152.435 150.342 152.281 150.155 152.172C149.973 152.062 149.736 152.008 149.444 152.008C149.194 152.008 148.978 152.052 148.796 152.141C148.613 152.224 148.473 152.346 148.374 152.508C148.275 152.664 148.225 152.849 148.225 153.062H145.975C145.975 152.703 146.059 152.362 146.225 152.039C146.392 151.716 146.634 151.432 146.952 151.188C147.27 150.938 147.647 150.742 148.085 150.602C148.527 150.461 149.022 150.391 149.569 150.391C150.225 150.391 150.809 150.5 151.319 150.719C151.829 150.938 152.231 151.266 152.522 151.703C152.819 152.141 152.967 152.688 152.967 153.344V156.961C152.967 157.424 152.996 157.805 153.053 158.102C153.111 158.393 153.194 158.648 153.303 158.867V159H151.03C150.921 158.771 150.837 158.484 150.78 158.141C150.728 157.792 150.702 157.443 150.702 157.094ZM150.999 153.852L151.014 155.125H149.757C149.46 155.125 149.202 155.159 148.983 155.227C148.764 155.294 148.585 155.391 148.444 155.516C148.303 155.635 148.199 155.776 148.132 155.938C148.069 156.099 148.038 156.276 148.038 156.469C148.038 156.661 148.082 156.836 148.171 156.992C148.259 157.143 148.387 157.263 148.553 157.352C148.72 157.435 148.915 157.477 149.139 157.477C149.478 157.477 149.772 157.409 150.022 157.273C150.272 157.138 150.465 156.971 150.6 156.773C150.741 156.576 150.814 156.388 150.819 156.211L151.413 157.164C151.329 157.378 151.215 157.599 151.069 157.828C150.928 158.057 150.749 158.273 150.53 158.477C150.311 158.674 150.048 158.839 149.741 158.969C149.434 159.094 149.069 159.156 148.647 159.156C148.111 159.156 147.624 159.049 147.186 158.836C146.754 158.617 146.41 158.318 146.155 157.938C145.905 157.552 145.78 157.115 145.78 156.625C145.78 156.182 145.863 155.789 146.03 155.445C146.197 155.102 146.441 154.812 146.764 154.578C147.092 154.339 147.501 154.159 147.991 154.039C148.481 153.914 149.048 153.852 149.694 153.852H150.999ZM156.921 147.625L156.663 155.523H154.788L154.522 147.625H156.921ZM154.46 157.969C154.46 157.635 154.575 157.359 154.804 157.141C155.038 156.917 155.345 156.805 155.726 156.805C156.111 156.805 156.418 156.917 156.647 157.141C156.877 157.359 156.991 157.635 156.991 157.969C156.991 158.292 156.877 158.565 156.647 158.789C156.418 159.013 156.111 159.125 155.726 159.125C155.345 159.125 155.038 159.013 154.804 158.789C154.575 158.565 154.46 158.292 154.46 157.969Z" fill="#FAFAFA"/>
<path d="M117.95 2H125.975L117.601 13.5144H126.673" stroke="#E96744" stroke-width="4" stroke-linecap="round" stroke-linejoin="round"/>
<path d="M132.215 22H137.153L132 28.9784H137.583" stroke="#E96744" stroke-width="4" stroke-linecap="round" stroke-linejoin="round"/>
<path d="M118.108 31H120.6L118 34.5215H120.817" stroke="#E96744" stroke-width="2.0185" stroke-linecap="round" stroke-linejoin="round"/>
<path d="M71 120C73.8055 132.734 94.8445 133.795 98 120.354" stroke="#7A7A7A" stroke-width="6"/>
<path d="M85.8492 31.0156C74.3348 30.6667 49.1741 36.0256 49.9103 60.325C50.6081 83.3538 50.2592 83.7028 50.2592 83.7028C50.957 90.3322 47.0491 101.358 35.6045 114.757C50.0266 118.711 89.4779 124.247 131.907 114.757" stroke="#7A7A7A" stroke-width="6" stroke-linecap="round" stroke-linejoin="round"/>
<path d="M62.0542 67.0785C64.9372 69.3699 72.1926 72.5177 78.15 66.7776" stroke="#7A7A7A" stroke-width="3" stroke-linecap="round"/>
<path d="M89 79.2117C89 80.9854 87.2091 79.2117 85 79.2117C82.7909 79.2117 81 80.9854 81 79.2117C81 77.4379 82.7909 76 85 76C87.2091 76 89 77.4379 89 79.2117Z" fill="#7A7A7A"/>
<path d="M75.0228 32.0337C74.7764 28.7004 76.427 22.0337 85 22.0337" stroke="#7A7A7A" stroke-width="6"/>
<path d="M83.0571 31.0156C94.5714 30.6667 119.732 36.0256 118.996 60.325C118.298 83.3538 118.647 83.7028 118.647 83.7028C117.949 90.3322 121.857 101.358 133.302 114.757C118.88 118.711 79.4284 124.247 36.9996 114.757" stroke="#7A7A7A" stroke-width="6" stroke-linecap="round" stroke-linejoin="round"/>
<path d="M106.852 67.0785C103.969 69.3699 96.7136 72.5177 90.7562 66.7776" stroke="#7A7A7A" stroke-width="3" stroke-linecap="round"/>
<path d="M93.8835 32.0337C94.1298 28.7004 92.4793 22.0337 83.9063 22.0337" stroke="#7A7A7A" stroke-width="6"/>
</svg>
