<svg width="17" height="18" viewBox="0 0 17 18" fill="none" xmlns="http://www.w3.org/2000/svg">
<path d="M10.409 14.3482C10.409 15.6456 9.35726 16.6974 8.05983 16.6974C6.76239 16.6974 5.71061 15.6456 5.71061 14.3482M1.42783 6.75205C1.4166 5.61554 2.02933 4.55425 3.0192 3.99572M10.2496 4.35506C10.5906 4.00274 10.8005 3.5227 10.8005 2.99365C10.8005 1.91245 9.92399 1.03597 8.84279 1.03597C7.7616 1.03597 6.88512 1.91245 6.88512 2.99365C6.88512 3.5227 7.09498 4.00274 7.436 4.35506M16.2329 6.75207C16.2441 5.61556 15.6314 4.55427 14.6415 3.99574M13.5412 8.2402C13.5412 7.16025 13.0462 6.12453 12.165 5.36089C11.2839 4.59724 10.0888 4.16823 8.84275 4.16823C7.59665 4.16823 6.40159 4.59724 5.52046 5.36089C4.63934 6.12453 4.14433 7.16025 4.14433 8.2402C4.14433 10.027 3.70121 11.3338 3.14831 12.2688C2.51815 13.3346 2.20308 13.8674 2.21552 13.9947C2.22975 14.1403 2.25596 14.1863 2.37407 14.2727C2.4773 14.3481 2.99596 14.3481 4.03328 14.3481L13.6522 14.3481C14.6895 14.3481 15.2082 14.3481 15.3114 14.2727C15.4295 14.1863 15.4557 14.1403 15.47 13.9947C15.4824 13.8674 15.1673 13.3346 14.5372 12.2688C13.9843 11.3338 13.5412 10.027 13.5412 8.2402Z" stroke="#E96744" stroke-width="1.25" stroke-linecap="round" stroke-linejoin="round"/>
</svg>
