<svg width="18" height="19" viewBox="0 0 18 19" fill="none" xmlns="http://www.w3.org/2000/svg">
<circle cx="9" cy="9.46484" r="9" fill="#E96744"/>
<path d="M12.574 8.52706H5.42773M10.5889 5.35095V6.939M7.4128 5.35095V6.939M7.3334 13.2912H10.6683C11.3353 13.2912 11.6689 13.2912 11.9236 13.1614C12.1478 13.0472 12.33 12.865 12.4442 12.6409C12.574 12.3861 12.574 12.0526 12.574 11.3855V8.05064C12.574 7.3836 12.574 7.05007 12.4442 6.7953C12.33 6.57119 12.1478 6.38898 11.9236 6.27479C11.6689 6.14498 11.3353 6.14498 10.6683 6.14498H7.3334C6.66635 6.14498 6.33283 6.14498 6.07805 6.27479C5.85394 6.38898 5.67174 6.57119 5.55755 6.7953C5.42773 7.05007 5.42773 7.3836 5.42773 8.05064V11.3855C5.42773 12.0526 5.42773 12.3861 5.55755 12.6409C5.67174 12.865 5.85394 13.0472 6.07805 13.1614C6.33283 13.2912 6.66635 13.2912 7.3334 13.2912Z" stroke="#FAFAFA" stroke-linecap="round" stroke-linejoin="round"/>
</svg>
