<svg width="20" height="22" viewBox="0 0 20 22" fill="none" xmlns="http://www.w3.org/2000/svg">
<path d="M7.49107 19.6233C8.15974 20.2135 9.0381 20.5716 10.0001 20.5716C10.9621 20.5716 11.8405 20.2135 12.5091 19.6233M15.6899 7.29544C15.6899 5.78641 15.0904 4.33919 14.0234 3.27215C12.9563 2.20511 11.5091 1.60565 10.0001 1.60565C8.49107 1.60565 7.04385 2.20511 5.97681 3.27215C4.90977 4.33919 4.31031 5.78641 4.31031 7.29544C4.31031 10.2259 3.57108 12.2322 2.7453 13.5593C2.04874 14.6788 1.70046 15.2385 1.71323 15.3946C1.72737 15.5675 1.764 15.6334 1.90332 15.7368C2.02914 15.8301 2.59635 15.8301 3.73076 15.8301H16.2694C17.4039 15.8301 17.9711 15.8301 18.0969 15.7368C18.2362 15.6334 18.2728 15.5675 18.287 15.3946C18.2997 15.2385 17.9515 14.6788 17.2549 13.5593C16.4291 12.2322 15.6899 10.2259 15.6899 7.29544Z" stroke="#FF2828" stroke-width="1.5" stroke-linecap="round" stroke-linejoin="round"/>
</svg>

