<svg width="22" height="23" viewBox="0 0 22 23" fill="none" xmlns="http://www.w3.org/2000/svg">
<g opacity="0.6">
<path d="M7.10053 0.520784C6.51852 0.869991 5.93651 1.1028 5.3545 1.452L6.63492 3.43084C6.98413 3.19803 7.44973 2.96523 7.91534 2.73242L7.10053 0.520784ZM2.79365 3.66364C2.32804 4.12925 1.97884 4.71126 1.62963 5.17687L3.60847 6.34089C3.84127 5.99168 4.19048 5.64248 4.53968 5.17687L2.79365 3.66364ZM0.349207 7.85412C0.116402 8.43613 0 9.13454 0 9.71655L2.32804 10.0658C2.44444 9.60015 2.44444 9.01814 2.67725 8.55253L0.349207 7.85412ZM2.32804 12.5102L0 12.743C0 12.8594 0 12.9758 0 13.0922C0.116402 13.5578 0.232804 14.1398 0.349207 14.6054L2.56085 13.907C2.44444 13.5578 2.32804 13.0922 2.32804 12.5102ZM3.60847 16.2351L1.62963 17.5155C1.97884 18.0975 2.32804 18.5631 2.79365 19.0287L4.53968 17.5155C4.19048 17.0499 3.84127 16.7007 3.60847 16.2351ZM6.63492 19.2615L5.3545 21.2404C5.93651 21.5896 6.51852 21.8224 7.10053 22.1716L8.03175 20.0763C7.44974 19.7271 6.98413 19.4943 6.63492 19.2615ZM14.8995 22.5208C15.4815 22.1716 16.0635 21.9388 16.6455 21.5896L15.3651 19.6107C15.0159 19.8435 14.5503 20.0763 14.0847 20.3091L14.8995 22.5208ZM19.2063 19.3779C19.672 18.9123 20.0212 18.3303 20.3704 17.8647L18.3915 16.7007C18.1587 17.0499 17.8095 17.3991 17.4603 17.8647L19.2063 19.3779ZM21.6508 15.1875C21.8836 14.6054 22 13.907 22 13.325L19.672 12.9758C19.5556 13.4414 19.5556 14.0234 19.3228 14.489L21.6508 15.1875ZM19.672 10.5314L22 10.2986C22 10.1822 22 10.0658 22 9.94936C21.8836 9.48375 21.7672 8.90174 21.6508 8.43613L19.4392 9.13454C19.5556 9.48375 19.672 9.94936 19.672 10.415V10.5314ZM18.3915 6.8065L20.3704 5.52608C20.0212 4.94406 19.672 4.47846 19.2063 4.01285L17.4603 5.52608C17.8095 5.99168 18.1587 6.34089 18.3915 6.8065ZM15.3651 3.78004L16.6455 1.80121C16.0635 1.452 15.4815 1.2192 14.8995 0.869991L13.9683 2.96523C14.5503 3.31444 15.0159 3.54724 15.3651 3.78004ZM11.7566 2.38322L11.9894 0.0551758C11.291 0.0551758 10.709 0.0551758 10.0106 0.0551758L10.127 2.38322C10.8254 2.38322 11.4074 2.38322 11.7566 2.38322ZM10.2434 20.6584L10.127 22.9864C10.8254 22.9864 11.4074 22.87 12.1058 22.87L11.873 20.542C11.1746 20.6584 10.709 20.6584 10.2434 20.6584Z" fill="#1E1E22"/>
</g>
</svg>
