<svg width="36" height="36" viewBox="0 0 36 36" fill="none" xmlns="http://www.w3.org/2000/svg">
<path fill-rule="evenodd" clip-rule="evenodd" d="M29.3243 23.4247L33.2889 30.2385C33.6067 30.7847 33.3501 31.2543 32.7188 31.282L29.6278 31.4167C28.9963 31.4442 28.2049 31.9049 27.8687 32.44L26.2238 35.0607C25.8877 35.596 25.3528 35.5867 25.035 35.0404C25.035 35.0404 22.529 30.7329 21.2117 28.4684C21.3248 28.2963 21.4359 28.1158 21.5408 27.9298C21.6893 27.6667 21.8259 27.6218 21.8843 27.6091C21.9261 27.6 21.9694 27.5998 22.0104 27.6062C22.0306 27.6093 22.0483 27.6138 22.0623 27.6183C22.0692 27.6206 22.0747 27.6227 22.0787 27.6243C22.0826 27.6259 22.0845 27.6269 22.0845 27.6269L22.0845 27.6269L22.0977 27.6013C22.5603 27.7597 23.2572 27.9582 23.9497 28.0724C24.3139 28.1324 24.6977 28.1727 25.0564 28.1652C25.3992 28.1581 25.8015 28.1066 26.1446 27.917C26.4781 27.7327 26.7511 27.4186 26.9604 27.1311C27.1823 26.8262 27.3914 26.4675 27.5782 26.1088C27.94 25.4138 28.2489 24.6581 28.4321 24.1502L28.4353 24.1512C28.4325 24.1608 28.4301 24.1682 28.4284 24.1732C28.4273 24.1766 28.4266 24.1789 28.4262 24.1803C28.426 24.1813 28.4259 24.1818 28.426 24.1818C28.4264 24.182 28.4281 24.1792 28.4317 24.1735C28.4427 24.1557 28.4715 24.1096 28.5309 24.0361C28.6235 23.9219 28.7518 23.79 28.8995 23.6733C29.062 23.545 29.2049 23.4669 29.3243 23.4247ZM29.9509 21.9313C29.1376 21.7405 28.4094 22.1489 27.9697 22.4962C27.7289 22.6865 27.5225 22.8979 27.3653 23.0921C27.2538 23.2297 27.1243 23.4104 27.0431 23.5992L27.037 23.597C26.8738 24.0556 26.5826 24.7728 26.2477 25.4162C26.08 25.7383 25.9096 26.0258 25.7477 26.2483C25.5731 26.4882 25.4577 26.5828 25.4191 26.6041C25.3901 26.6201 25.2754 26.6603 25.0252 26.6655C24.7909 26.6704 24.5057 26.6438 24.1938 26.5924C23.5702 26.4895 22.9229 26.3018 22.5247 26.1618L22.5154 26.1885C22.2501 26.1041 21.9184 26.0667 21.566 26.1433C21.1035 26.2437 20.6685 26.5266 20.3382 27.0234C20.2823 27.0046 20.2277 27.0451 20.1995 27.0691C19.6717 27.5194 19.1382 27.9232 18.562 27.9232C18.0485 27.9232 17.4461 27.5956 16.9654 27.226C16.6463 26.8982 16.2449 26.6924 15.9204 26.5694C15.6334 26.4606 15.3459 26.3923 15.0985 26.3573C14.9232 26.3324 14.7017 26.3142 14.498 26.3416L14.4967 26.3353C14.0194 26.431 13.2546 26.55 12.5305 26.5935C12.1681 26.6152 11.8339 26.6169 11.5597 26.5924C11.2643 26.566 11.1238 26.5156 11.0857 26.4935C11.057 26.4769 10.9636 26.3992 10.8304 26.1872C10.7058 25.9888 10.5821 25.7305 10.4658 25.4364C10.2334 24.8487 10.0617 24.197 9.97705 23.7835L9.94936 23.7892C9.88534 23.5182 9.7469 23.2146 9.50009 22.9516C9.17685 22.6073 8.71171 22.3798 8.11749 22.3511C8.08127 22.3182 8.03424 22.2963 7.99975 22.286C7.27599 22.0693 6.55129 21.8439 6.23188 21.2948C5.90599 20.7345 6.08133 19.974 6.25444 19.2231C6.39299 18.6221 6.53011 18.0274 6.40771 17.5464C6.27882 17.0399 5.86357 16.5649 5.44925 16.091C4.95298 15.5234 4.45804 14.9573 4.45804 14.3403C4.45804 13.6333 5.00361 12.9757 5.52918 12.3422C5.93684 11.8508 6.33247 11.3739 6.45216 10.8997C6.57364 10.4184 6.43538 9.82379 6.29569 9.22308C6.12116 8.47257 5.94441 7.7125 6.26924 7.15184C6.59414 6.59104 7.34156 6.3662 8.07951 6.14421C8.67007 5.96656 9.25455 5.79074 9.61156 5.44601C9.98496 5.08541 10.1883 4.48967 10.3912 3.89553C10.6372 3.175 10.8824 2.45683 11.429 2.16327C11.9769 1.86886 12.7134 2.05892 13.4502 2.24908C14.0601 2.40647 14.6702 2.56394 15.174 2.44683C15.2602 2.4268 15.4835 2.24789 15.7855 2.00596C16.5033 1.43097 17.6654 0.5 18.4863 0.5C19.1124 0.5 19.6891 0.991579 20.2623 1.48017C20.7413 1.88852 21.218 2.29478 21.7189 2.41023C22.223 2.52641 22.833 2.36782 23.4426 2.20932C24.179 2.01786 24.915 1.82652 25.4634 2.11966C26.0106 2.41225 26.2571 3.12996 26.5044 3.85004C26.7084 4.44376 26.9129 5.0391 27.2869 5.39909C27.6445 5.74321 28.2294 5.91797 28.8203 6.09455C29.5586 6.31517 30.3064 6.53862 30.6323 7.09877C30.9582 7.65886 30.7828 8.41937 30.6097 9.17026C30.4712 9.77126 30.334 10.3661 30.4564 10.8471C30.5836 11.347 31.0036 11.8838 31.4262 12.4238C31.9395 13.0799 32.4566 13.7407 32.4566 14.3457C32.4566 14.9625 31.9632 15.5293 31.4685 16.0976C31.0552 16.5724 30.641 17.0483 30.5128 17.5553C30.3913 18.0363 30.5295 18.6308 30.6692 19.2315C30.8437 19.9821 31.0205 20.7424 30.6957 21.3032C30.5342 21.582 30.2682 21.7777 29.9509 21.9313ZM11.9179 35.0831C11.9179 35.0831 14.5957 30.46 15.8727 28.2556C15.7757 28.1604 15.6202 28.0597 15.3888 27.972C15.2127 27.9053 15.0337 27.8631 14.8881 27.8424C14.7945 27.8292 14.7402 27.8283 14.7192 27.8279C14.7162 27.8279 14.7139 27.8278 14.7123 27.8278C14.7102 27.8277 14.7092 27.8276 14.7092 27.8273C14.7091 27.827 14.712 27.8263 14.7177 27.825L14.7178 27.825C14.723 27.8238 14.7305 27.8221 14.7403 27.8196L14.7394 27.8163C14.2097 27.9203 13.4026 28.0438 12.6205 28.0908C12.2168 28.115 11.8016 28.12 11.426 28.0864C11.0718 28.0547 10.6621 27.982 10.3326 27.7907C9.99349 27.5939 9.74253 27.2753 9.56021 26.985C9.36935 26.6811 9.20661 26.3312 9.07089 25.988C8.8128 25.3353 8.62479 24.6354 8.52277 24.1573L8.49407 24.1591V24.1591C8.49407 24.1591 8.49392 24.157 8.49331 24.1528C8.49301 24.1508 8.49262 24.1485 8.49213 24.1458C8.49157 24.1428 8.49087 24.1394 8.49002 24.1357C8.4867 24.1213 8.48147 24.1039 8.47378 24.0849C8.4582 24.0465 8.43573 24.0095 8.4064 23.9782C8.36553 23.9347 8.25678 23.8406 7.95473 23.8485C7.76513 23.8535 7.57674 23.8521 7.39279 23.8457L3.6553 30.2962C3.33826 30.8432 3.59571 31.3122 4.22725 31.3388L7.31856 31.4677C7.9501 31.4943 8.74233 31.9532 9.07943 32.4879L10.729 35.1054C11.0661 35.6401 11.601 35.6301 11.9179 35.0831ZM12.941 22.8696C16.0746 24.8461 20.1772 25.0592 23.5951 23.0708C28.4884 20.224 30.1532 13.9267 27.3064 9.03331C26.3749 7.43228 25.0741 6.17705 23.574 5.31217C23.5382 5.29174 23.5022 5.2715 23.4662 5.25154L23.4435 5.23878L23.4433 5.23872L23.4433 5.23869C23.4256 5.22874 23.4079 5.21879 23.39 5.20907C18.5276 2.5608 12.3906 4.26124 9.59889 9.08032C6.83863 13.8444 8.34943 19.9285 12.941 22.8696ZM22.8016 6.74549C22.8056 6.74773 22.8095 6.74998 22.8135 6.75228C26.9354 9.14026 28.3456 14.4358 25.9579 18.5577C23.57 22.6794 18.2743 24.0901 14.1524 21.7021C14.0508 21.6433 13.9514 21.5821 13.8531 21.5198C12.6975 20.8 11.6959 19.7971 10.9649 18.5406C8.56948 14.4233 9.97056 9.12474 14.088 6.7293C16.8626 5.11503 20.1733 5.22494 22.7707 6.72826L22.7905 6.73937C22.7942 6.7414 22.7979 6.74344 22.8016 6.74549ZM22.4014 14.8973L23.8447 13.4906C24.2917 13.0549 24.152 12.6249 23.5343 12.5351L21.5399 12.2453C20.9221 12.1555 20.1907 11.624 19.9144 11.0643L19.0224 9.25707C18.7462 8.69732 18.2941 8.69732 18.0178 9.25707L17.1259 11.0643C16.8496 11.624 16.1181 12.1555 15.5003 12.2453L13.5059 12.5351C12.8882 12.6249 12.7484 13.0549 13.1955 13.4906L14.6387 14.8973C15.0857 15.333 15.3651 16.1929 15.2595 16.8082L14.9188 18.7946C14.8133 19.4098 15.179 19.6755 15.7316 19.3851L17.5155 18.4472C18.068 18.1567 18.9721 18.1567 19.5247 18.4472L21.3087 19.3851C21.8612 19.6755 22.2269 19.4098 22.1213 18.7946L21.7806 16.8082C21.675 16.1929 21.9544 15.333 22.4014 14.8973Z" fill="#E96744"/>
</svg>
