<svg width="39" height="36" viewBox="0 0 39 36" fill="none" xmlns="http://www.w3.org/2000/svg">
<path d="M35.625 0.375H3.375C2.66223 0.375 1.97865 0.658146 1.47465 1.16215C0.970646 1.66615 0.6875 2.34973 0.6875 3.0625V24.5625C0.6875 25.2753 0.970646 25.9588 1.47465 26.4628C1.97865 26.9669 2.66223 27.25 3.375 27.25H14.125V32.625H8.75V35.3125H30.25V32.625H24.875V27.25H35.625C36.3378 27.25 37.0213 26.9669 37.5253 26.4628C38.0294 25.9588 38.3125 25.2753 38.3125 24.5625V3.0625C38.3125 2.34973 38.0294 1.66615 37.5253 1.16215C37.0213 0.658146 36.3378 0.375 35.625 0.375ZM22.1875 32.625H16.8125V27.25H22.1875V32.625ZM35.625 24.5625H3.375V3.0625H35.625V24.5625Z" fill="#442061"/>
</svg>
