<svg width="116" height="125" viewBox="0 0 116 125" fill="none" xmlns="http://www.w3.org/2000/svg">
<mask id="path-1-outside-1_5090_54102" maskUnits="userSpaceOnUse" x="29" y="69.0001" width="56" height="56" fill="black">
<rect fill="white" x="29" y="69.0001" width="56" height="56"/>
<path d="M82 94.7144V97.0144C81.9969 102.405 80.2512 107.651 77.0233 111.969C73.7954 116.287 69.2582 119.446 64.0884 120.974C58.9186 122.503 53.3931 122.319 48.3362 120.451C43.2792 118.583 38.9616 115.13 36.0274 110.607C33.0932 106.085 31.6995 100.735 32.0542 95.3552C32.4089 89.9758 34.493 84.8552 37.9957 80.7571C41.4984 76.659 46.232 73.8029 51.4905 72.6148C56.749 71.4267 62.2507 71.9703 67.175 74.1644"/>
</mask>
<path d="M82 97.0144L85 97.0161V97.0144H82ZM79 94.7144V97.0144H85V94.7144H79ZM79 97.0127C78.9973 101.757 77.4611 106.373 74.6205 110.173L79.4261 113.765C83.0414 108.929 84.9965 103.054 85 97.0161L79 97.0127ZM74.6205 110.173C71.7799 113.972 67.7872 116.752 63.2378 118.097L64.939 123.851C70.7292 122.139 75.8108 118.601 79.4261 113.765L74.6205 110.173ZM63.2378 118.097C58.6883 119.442 53.826 119.281 49.3758 117.637L47.2965 123.265C52.9603 125.357 59.1488 125.563 64.939 123.851L63.2378 118.097ZM49.3758 117.637C44.9257 115.993 41.1262 112.954 38.5441 108.974L33.5107 112.24C36.797 117.305 41.6327 121.172 47.2965 123.265L49.3758 117.637ZM38.5441 108.974C35.962 104.994 34.7355 100.286 35.0477 95.5526L29.0607 95.1578C28.6634 101.183 30.2243 107.175 33.5107 112.24L38.5441 108.974ZM35.0477 95.5526C35.3598 90.8188 37.1939 86.3126 40.2762 82.7063L35.7152 78.8079C31.7922 83.3979 29.458 89.1329 29.0607 95.1578L35.0477 95.5526ZM40.2762 82.7063C43.3586 79.0999 47.5241 76.5866 52.1516 75.541L50.8293 69.6886C44.9398 71.0192 39.6382 74.218 35.7152 78.8079L40.2762 82.7063ZM52.1516 75.541C56.7791 74.4955 61.6206 74.9739 65.954 76.9047L68.396 71.4241C62.8807 68.9667 56.7188 68.3579 50.8293 69.6886L52.1516 75.541Z" fill="white" mask="url(#path-1-outside-1_5090_54102)"/>
<path d="M57 102.04L55.9393 103.1C56.2207 103.382 56.6024 103.54 57.0004 103.54C57.3983 103.539 57.7799 103.381 58.0612 103.1L57 102.04ZM50.5607 93.4789C49.9749 92.8931 49.0251 92.8931 48.4393 93.4789C47.8536 94.0647 47.8536 95.0145 48.4393 95.6002L50.5607 93.4789ZM80.9388 75.9545L55.9388 100.979L58.0612 103.1L83.0612 78.0747L80.9388 75.9545ZM58.0607 100.979L50.5607 93.4789L48.4393 95.6002L55.9393 103.1L58.0607 100.979Z" fill="white"/>
<path d="M56.5959 60.3382L61.7411 28.9996M87.9346 60.3382L94.0152 51.4512M23.3863 60.3382L17.7734 51.4512" stroke="white" stroke-width="2" stroke-linecap="round"/>
<path d="M104.289 30.8324L104.831 36.6413L104.856 36.9114L105.096 37.0375L110.263 39.7481L104.906 42.0589L104.657 42.1664L104.611 42.4339L103.629 48.1849L99.7763 43.8042L99.5971 43.6004L99.3286 43.6397L93.5558 44.4834L96.5314 39.4652L96.6698 39.2317L96.5495 38.9885L93.9632 33.759L99.6553 35.0382L99.9201 35.0977L100.114 34.9081L104.289 30.8324Z" fill="white" stroke="white"/>
<path d="M9.1116 34.5963L12.9947 38.0935L13.1964 38.2751L13.4585 38.205L18.5069 36.8547L16.3808 41.6284L16.2704 41.8763L16.4181 42.104L19.2623 46.488L14.0652 45.9411L13.7953 45.9127L13.6244 46.1235L10.3339 50.1833L9.24802 45.0716L9.19163 44.8061L8.93833 44.7088L4.06046 42.8338L8.58644 40.2215L8.82147 40.0858L8.83579 39.8148L9.1116 34.5963Z" fill="white" stroke="white"/>
<path d="M64.5112 1.51289L67.4418 8.13219L67.5516 8.38033L67.8195 8.42343L74.9667 9.57314L69.5769 14.4057L69.3749 14.5869L69.4167 14.855L70.5318 22.0076L64.2702 18.375L64.0355 18.2388L63.7934 18.3615L57.3355 21.6323L58.8554 14.5546L58.9123 14.2893L58.7209 14.097L53.6145 8.96585L60.8155 8.22422L61.0854 8.19642L61.2092 7.95493L64.5112 1.51289Z" fill="white" stroke="white"/>
<circle cx="7.01538" cy="71.5644" r="3.20967" stroke="white" stroke-width="2"/>
<circle cx="78.5813" cy="43.9677" r="3.67741" stroke="white" stroke-width="2"/>
<circle cx="37.8861" cy="30.4024" r="5.08064" stroke="white" stroke-width="2"/>
<circle cx="111.79" cy="64.0805" r="3.20967" stroke="white" stroke-width="2"/>
<circle cx="42.5645" cy="48.1767" r="3.20967" stroke="white" stroke-width="2"/>
</svg>
