<svg width="39" height="31" viewBox="0 0 39 31" fill="none" xmlns="http://www.w3.org/2000/svg">
<path d="M16.5506 8.41417C16.3684 8.28442 16.154 8.20733 15.9308 8.19135C15.7077 8.17537 15.4845 8.22111 15.2856 8.32356C15.0867 8.42602 14.9199 8.58123 14.8034 8.7722C14.6868 8.96317 14.6251 9.18252 14.625 9.40623V21.5937C14.6251 21.8174 14.6868 22.0368 14.8034 22.2278C14.9199 22.4187 15.0867 22.5739 15.2856 22.6764C15.4845 22.7789 15.7077 22.8246 15.9308 22.8086C16.154 22.7926 16.3684 22.7155 16.5506 22.5858L25.0819 16.492C25.2399 16.3793 25.3686 16.2305 25.4575 16.0579C25.5463 15.8853 25.5927 15.6941 25.5927 15.5C25.5927 15.3059 25.5463 15.1146 25.4575 14.9421C25.3686 14.7695 25.2399 14.6207 25.0819 14.5079L16.5506 8.41417Z" fill="#442061"/>
<path d="M0 5.75C0 4.45707 0.513615 3.21709 1.42785 2.30285C2.34209 1.38861 3.58207 0.875 4.875 0.875H34.125C35.4179 0.875 36.6579 1.38861 37.5721 2.30285C38.4864 3.21709 39 4.45707 39 5.75V25.25C39 26.5429 38.4864 27.7829 37.5721 28.6971C36.6579 29.6114 35.4179 30.125 34.125 30.125H4.875C3.58207 30.125 2.34209 29.6114 1.42785 28.6971C0.513615 27.7829 0 26.5429 0 25.25V5.75ZM36.5625 5.75C36.5625 5.10353 36.3057 4.48355 35.8486 4.02643C35.3915 3.56931 34.7715 3.3125 34.125 3.3125H4.875C4.22853 3.3125 3.60855 3.56931 3.15143 4.02643C2.69431 4.48355 2.4375 5.10353 2.4375 5.75V25.25C2.4375 25.8965 2.69431 26.5165 3.15143 26.9736C3.60855 27.4307 4.22853 27.6875 4.875 27.6875H34.125C34.7715 27.6875 35.3915 27.4307 35.8486 26.9736C36.3057 26.5165 36.5625 25.8965 36.5625 25.25V5.75Z" fill="#442061"/>
</svg>
