<svg width="12" height="15" viewBox="0 0 12 15" fill="none" xmlns="http://www.w3.org/2000/svg">
<path d="M1.25 1L1.53234 0.587346C1.37926 0.482609 1.18079 0.471216 1.01673 0.55775C0.852675 0.644283 0.75 0.814521 0.75 1H1.25ZM1.25 14H0.75C0.75 14.1855 0.852675 14.3557 1.01673 14.4423C1.18079 14.5288 1.37926 14.5174 1.53234 14.4127L1.25 14ZM10.75 7.5L11.0323 7.91265C11.1686 7.81946 11.25 7.66504 11.25 7.5C11.25 7.33496 11.1686 7.18054 11.0323 7.08735L10.75 7.5ZM0.75 1V14H1.75V1H0.75ZM1.53234 14.4127L11.0323 7.91265L10.4677 7.08735L0.967658 13.5873L1.53234 14.4127ZM11.0323 7.08735L1.53234 0.587346L0.967658 1.41265L10.4677 7.91265L11.0323 7.08735Z" fill="white"/>
</svg>
