<svg width="27" height="31" viewBox="0 0 27 31" fill="none" xmlns="http://www.w3.org/2000/svg">
<path d="M26.9951 9.83373V9.82582C26.9951 9.1117 26.9924 8.39915 26.987 7.68818C26.987 5.50946 25.8551 4.38928 23.6383 4.24393C20.2896 4.0259 17.3807 2.87414 14.9342 0.610101C14.4734 0.181941 13.9834 -0.0218468 13.4935 0.00185211C13.0084 -0.017107 12.5136 0.181941 12.0528 0.610101C9.60635 2.8773 6.69743 4.02906 3.34871 4.24393C1.12701 4.38928 0.00808478 5.50788 0 7.68818C0 8.39915 0 9.11012 0 9.82582V9.83373C0.000805782 9.84794 0.000805782 9.86218 0 9.87639C0 11.856 0.0291194 13.8357 0.216686 15.798C0.903893 22.9361 4.69888 27.8717 11.5257 30.6019C12.1492 30.8645 12.821 31 13.5 31C14.1789 31 14.8508 30.8645 15.4743 30.6019C22.3011 27.8717 26.0977 22.9361 26.7833 15.798C26.9724 13.8357 27.0016 11.8481 26.9999 9.87797C26.9991 9.86315 26.9975 9.84838 26.9951 9.83373Z" fill="url(#paint0_linear_248_1050)"/>
<circle cx="13.5" cy="15.5" r="8" stroke="white"/>
<path d="M11.9062 19.2188L11.5221 19.5388C11.6121 19.6468 11.7433 19.7119 11.8836 19.7182C12.0239 19.7246 12.1605 19.6716 12.2598 19.5723L11.9062 19.2188ZM8.86589 16.3513L11.5221 19.5388L12.2904 18.8987L9.63411 15.7112L8.86589 16.3513ZM12.2598 19.5723L18.1036 13.7286L17.3964 13.0214L11.5527 18.8652L12.2598 19.5723Z" fill="white"/>
<path d="M26.9951 9.83373V9.82582C26.9951 9.1117 26.9924 8.39915 26.987 7.68818C26.987 5.50946 25.8551 4.38928 23.6383 4.24393C20.2896 4.0259 17.3807 2.87414 14.9342 0.610101C14.4734 0.181941 13.9834 -0.0218468 13.4935 0.00185211C13.0084 -0.017107 12.5136 0.181941 12.0528 0.610101C9.60635 2.8773 6.69743 4.02906 3.34871 4.24393C1.12701 4.38928 0.00808478 5.50788 0 7.68818C0 8.39915 0 9.11012 0 9.82582V9.83373C0.000805782 9.84794 0.000805782 9.86218 0 9.87639C0 11.856 0.0291194 13.8357 0.216686 15.798C0.903893 22.9361 4.69888 27.8717 11.5257 30.6019C12.1492 30.8645 12.821 31 13.5 31C14.1789 31 14.8508 30.8645 15.4743 30.6019C22.3011 27.8717 26.0977 22.9361 26.7833 15.798C26.9724 13.8357 27.0016 11.8481 26.9999 9.87797C26.9991 9.86315 26.9975 9.84838 26.9951 9.83373ZM13.1507 29.5338C7.36363 27.5257 3.47485 23.8287 2.15542 17.7997C1.4003 14.3381 1.54095 10.848 1.60725 7.34851C1.62503 6.3579 2.35107 5.82702 3.45546 5.74802C7.07905 5.48734 10.3356 4.34349 13.0052 1.85827C13.0532 1.77366 13.1235 1.70312 13.2088 1.65402C13.2941 1.60493 13.3913 1.57904 13.4903 1.57904C13.5893 1.57904 13.6865 1.60493 13.7718 1.65402C13.8571 1.70312 13.9274 1.77366 13.9753 1.85827C16.6449 4.34349 19.9015 5.49208 23.5251 5.74802C24.6295 5.82702 25.3555 6.3579 25.3733 7.34851C25.4396 10.8417 25.5803 14.3381 24.8251 17.7997C23.5089 23.8287 19.6202 27.5257 13.8298 29.5338C13.7189 29.5705 13.6025 29.5892 13.4854 29.5891C13.3715 29.5884 13.2585 29.5697 13.1507 29.5338Z" fill="white"/>
<defs>
<linearGradient id="paint0_linear_248_1050" x1="-3.67469e-09" y1="17.3336" x2="25.9521" y2="17.1682" gradientUnits="userSpaceOnUse">
<stop offset="0.385417" stop-color="#51A649"/>
<stop offset="0.598958" stop-color="#2BC71E"/>
</linearGradient>
</defs>
</svg>
