<svg width="49" height="48" viewBox="0 0 49 48" fill="none" xmlns="http://www.w3.org/2000/svg">
<g clip-path="url(#clip0_333_1272)">
<path d="M9.06934 22.3395C17.0317 22.3395 23.4847 28.6491 23.4847 36.433" stroke="white" stroke-width="2" stroke-miterlimit="10"/>
<path d="M9.06934 28.4731C10.1476 28.473 11.2154 28.6806 12.2116 29.084C13.2079 29.4874 14.1131 30.0787 14.8756 30.8241C15.638 31.5696 16.2428 32.4546 16.6555 33.4286C17.0681 34.4025 17.2804 35.4465 17.2803 36.5007" stroke="white" stroke-width="2" stroke-miterlimit="10"/>
<path d="M13.1328 36.3917C13.1329 35.8611 13.0261 35.3356 12.8184 34.8453C12.6108 34.3551 12.3063 33.9096 11.9226 33.5344C11.5388 33.1592 11.0831 32.8616 10.5817 32.6585C10.0802 32.4555 9.54276 32.3511 9 32.3512V36.3917H13.1328Z" fill="white"/>
<path d="M10.2197 18.1467V14.7072C10.2195 14.4148 10.2781 14.1251 10.3924 13.8549C10.5067 13.5846 10.6744 13.339 10.8858 13.1321C11.0972 12.9252 11.3483 12.7611 11.6246 12.6491C11.9009 12.5371 12.1971 12.4795 12.4963 12.4795H36.7206C37.0196 12.4795 37.3156 12.5371 37.5918 12.6489C37.868 12.7608 38.119 12.9247 38.3304 13.1314C38.5418 13.3381 38.7095 13.5834 38.8239 13.8535C38.9383 14.1235 38.9972 14.4129 38.9972 14.7052V33.0369C38.9972 33.3292 38.9383 33.6186 38.8239 33.8886C38.7095 34.1587 38.5418 34.404 38.3304 34.6107C38.119 34.8174 37.868 34.9813 37.5918 35.0932C37.3156 35.205 37.0196 35.2626 36.7206 35.2626H27.6594" stroke="white" stroke-width="2" stroke-miterlimit="10"/>
</g>
<defs>
<clipPath id="clip0_333_1272">
<rect width="31" height="25" fill="white" transform="translate(9 11.5)"/>
</clipPath>
</defs>
</svg>
