<svg width="132" height="138" viewBox="0 0 132 138" fill="none" xmlns="http://www.w3.org/2000/svg">
<path fill-rule="evenodd" clip-rule="evenodd" d="M27 75H103V127H27L27 75ZM25 75C25 73.8954 25.8954 73 27 73H103C104.105 73 105 73.8954 105 75V127C105 128.105 104.105 129 103 129H27C25.8954 129 25 128.105 25 127V75ZM34.2692 135.5C33.7169 135.5 33.2692 135.948 33.2692 136.5C33.2692 137.052 33.7169 137.5 34.2692 137.5H97.3085C97.8608 137.5 98.3085 137.052 98.3085 136.5C98.3085 135.948 97.8608 135.5 97.3085 135.5H34.2692Z" fill="white"/>
<path d="M65.5 64.5V28.5M99 64.5L108 42.5M30 64.5L18 45" stroke="white" stroke-width="2" stroke-linecap="round"/>
<path d="M116.913 19.7939L117.597 27.1186L124.111 30.5365L117.356 33.4503L116.118 40.702L111.26 35.1782L103.981 36.2421L107.733 29.9143L104.471 23.3201L111.649 24.9332L116.913 19.7939Z" fill="white"/>
<path d="M9.26546 25.8351L14.2487 30.3231L20.7273 28.5902L17.9988 34.7164L21.6489 40.3424L14.9794 39.6406L10.7566 44.8505L9.3631 38.2906L3.10329 35.8845L8.91151 32.532L9.26546 25.8351Z" fill="white"/>
<path d="M65.9934 0.376578L69.5795 8.47661L78.3254 9.88351L71.73 15.7971L73.0946 24.5497L65.4323 20.1045L57.5298 24.1071L59.3896 15.4461L53.141 9.16721L61.9527 8.25969L65.9934 0.376578Z" fill="white"/>
<circle cx="9" cy="68" r="4" stroke="white" stroke-width="2"/>
<circle cx="82" cy="63" r="4" stroke="white" stroke-width="2"/>
<circle cx="52.5" cy="46.5" r="5.5" stroke="white" stroke-width="2"/>
<circle cx="125.5" cy="50.5" r="5.5" stroke="white" stroke-width="2"/>
<circle cx="43.5" cy="21.5" r="3.5" stroke="white" stroke-width="2"/>
<path d="M65.1584 116.645L54.0328 105.02C51.473 102.342 51.2764 97.9747 53.7528 95.2129C54.3632 94.5295 55.099 93.9815 55.9163 93.6015C56.7337 93.2215 57.6159 93.0173 58.5103 93.0011C59.4048 92.9848 60.2933 93.1568 61.1228 93.5069C61.9523 93.857 62.7058 94.378 63.3386 95.0388L65.9683 97.7866H65.9883L68.4948 95.1677C71.0578 92.493 75.2375 92.2875 77.8839 94.8751C78.5377 95.5131 79.0619 96.2821 79.4253 97.1363C79.7887 97.9905 79.9838 98.9124 79.999 99.847C80.0143 100.782 79.8493 101.71 79.514 102.576C79.1787 103.443 78.6798 104.23 78.0472 104.891L66.7982 116.645C66.5807 116.872 66.2858 117 65.9783 117C65.6708 117 65.3759 116.872 65.1584 116.645Z" fill="white"/>
</svg>
