<svg width="160" height="167" viewBox="0 0 160 167" fill="none" xmlns="http://www.w3.org/2000/svg">
<path fill-rule="evenodd" clip-rule="evenodd" d="M32.3032 90.4844L125.273 90.4844V154.363H32.3032L32.3032 90.4844ZM30.3032 90.4844C30.3032 89.3798 31.1987 88.4844 32.3032 88.4844H125.273C126.377 88.4844 127.273 89.3798 127.273 90.4844V154.363C127.273 155.468 126.377 156.363 125.273 156.363H32.3032C31.1987 156.363 30.3032 155.468 30.3032 154.363V90.4844ZM41.5391 164.454C40.9869 164.454 40.5391 164.902 40.5391 165.454C40.5391 166.007 40.9869 166.454 41.5391 166.454H117.95C118.503 166.454 118.95 166.007 118.95 165.454C118.95 164.902 118.503 164.454 117.95 164.454H41.5391Z" fill="white"/>
<path d="M79.3939 78.1832V34.5469M120 78.1832L130.909 51.5166M36.3636 78.1832L21.8181 54.5469" stroke="white" stroke-width="2" stroke-linecap="round"/>
<path d="M141.712 23.9932L142.541 32.8716L150.438 37.0145L142.25 40.5464L140.75 49.3364L134.861 42.6408L126.037 43.9304L130.585 36.2604L126.632 28.2674L135.332 30.2226L141.712 23.9932Z" fill="white"/>
<path d="M11.2309 31.3146L17.2711 36.7546L25.1239 34.6542L21.8168 42.0798L26.241 48.8992L18.1568 48.0486L13.0384 54.3636L11.3492 46.4122L3.76157 43.4957L10.8018 39.4321L11.2309 31.3146Z" fill="white"/>
<path d="M79.9919 0.456458L84.3387 10.2747L94.9398 11.98L86.9453 19.148L88.5994 29.7573L79.3118 24.3691L69.7329 29.2207L71.9873 18.7226L64.4132 11.1118L75.0941 10.0117L79.9919 0.456458Z" fill="white"/>
<circle cx="10.909" cy="82.4239" r="5.06061" stroke="white" stroke-width="2"/>
<circle cx="99.3939" cy="76.3653" r="5.06061" stroke="white" stroke-width="2"/>
<circle cx="63.6366" cy="56.3632" r="6.87879" stroke="white" stroke-width="2"/>
<circle cx="152.121" cy="61.2128" r="6.87879" stroke="white" stroke-width="2"/>
<circle cx="52.7272" cy="26.062" r="4.45455" stroke="white" stroke-width="2"/>
<path d="M78.5054 133.562L67.9761 122.752C65.5535 120.262 65.3674 116.202 67.7111 113.634C68.2888 112.998 68.9851 112.489 69.7587 112.135C70.5322 111.782 71.3671 111.592 72.2137 111.577C73.0602 111.562 73.901 111.722 74.6861 112.048C75.4711 112.373 76.1843 112.857 76.7831 113.472L79.2719 116.027H79.2908L81.6629 113.592C84.0887 111.105 88.0443 110.914 90.5488 113.32C91.1676 113.913 91.6637 114.628 92.0076 115.422C92.3515 116.216 92.5362 117.073 92.5506 117.943C92.5651 118.812 92.4089 119.675 92.0916 120.48C91.7742 121.286 91.3021 122.018 90.7034 122.633L80.0574 133.562C79.8515 133.773 79.5724 133.891 79.2814 133.891C78.9904 133.891 78.7113 133.773 78.5054 133.562Z" fill="white"/>
</svg>
