<svg width="80" height="80" viewBox="0 0 80 80" fill="none" xmlns="http://www.w3.org/2000/svg">
<path d="M0 8C0 3.58172 3.58172 0 8 0H80L0 80V8Z" fill="#0085B4"/>
<path d="M8.92733 46.6695L13.4075 55.5249L11.6453 57.2872L6.59056 46.2552L7.71199 45.1338L8.92733 46.6695ZM17.4126 51.5198L8.55168 47.0452L6.99936 45.8464L8.13183 44.7139L19.1804 49.7521L17.4126 51.5198ZM14.319 48.6251L15.6172 49.9233L11.3691 54.1715L10.0709 52.8733L14.319 48.6251ZM23.5779 42.7692L24.8706 44.0618L20.8213 48.1111L19.5286 46.8185L23.5779 42.7692ZM13.3138 39.5319L21.3572 47.5753L19.6999 49.2326L11.6565 41.1892L13.3138 39.5319ZM21.8048 31.0409L23.4566 29.3892L28.771 34.7035C29.3897 35.3222 29.7782 35.9759 29.9366 36.6646C30.0986 37.3496 30.0544 38.031 29.804 38.7086C29.5572 39.3826 29.1337 40.0197 28.5334 40.62C27.9331 41.2203 27.2923 41.6475 26.611 41.9016C25.9333 42.1521 25.2502 42.1981 24.5615 42.0397C23.8765 41.8777 23.2246 41.4873 22.6059 40.8686L17.2915 35.5542L18.9488 33.897L24.2632 39.2113C24.6241 39.5722 24.9758 39.8098 25.3183 39.9239C25.6608 40.0381 25.9922 40.0418 26.3127 39.935C26.6367 39.8245 26.9461 39.6219 27.2407 39.3273C27.5427 39.0253 27.7453 38.716 27.8484 38.3992C27.9552 38.0788 27.9497 37.7492 27.8318 37.4104C27.7177 37.0679 27.4801 36.7162 27.1192 36.3553L21.8048 31.0409ZM34.8092 25.7153L37.9967 28.9028C38.0225 29.179 37.993 29.5362 37.9083 29.9745C37.8199 30.4091 37.6321 30.8952 37.3448 31.4329C37.0576 31.9706 36.6212 32.5322 36.0356 33.1178C35.5163 33.6371 34.9584 34.0256 34.3617 34.2834C33.7614 34.5376 33.1409 34.6536 32.5001 34.6315C31.8629 34.6057 31.2221 34.4363 30.5776 34.1232C29.9294 33.8065 29.296 33.3388 28.6773 32.7201L28.1746 32.2174C27.5558 31.5986 27.0844 30.9689 26.7603 30.3281C26.4399 29.6836 26.2632 29.0464 26.23 28.4167C26.1969 27.7869 26.3 27.1792 26.5394 26.5937C26.7788 26.0081 27.1507 25.463 27.6553 24.9585C28.355 24.2587 29.0437 23.7984 29.7214 23.5774C30.3953 23.3527 31.0509 23.3233 31.688 23.489C32.3251 23.6474 32.9291 23.9567 33.5 24.4171L31.8924 26.0247C31.5793 25.7926 31.2645 25.6324 30.9477 25.544C30.631 25.4557 30.3088 25.4612 29.981 25.5606C29.6569 25.6564 29.3273 25.8718 28.9921 26.207C28.7159 26.4832 28.5263 26.787 28.4231 27.1185C28.32 27.4425 28.3035 27.7869 28.3734 28.1515C28.4434 28.5161 28.5999 28.8973 28.843 29.295C29.0861 29.6928 29.4194 30.1034 29.8429 30.5269L30.3566 31.0407C30.7765 31.4605 31.189 31.792 31.5941 32.0351C31.9955 32.2744 32.3859 32.4254 32.7652 32.4881C33.1446 32.5433 33.5073 32.5083 33.8535 32.3831C34.1997 32.2579 34.5293 32.0387 34.8424 31.7257C35.1038 31.4642 35.299 31.2248 35.4279 31.0075C35.5605 30.7866 35.6489 30.5914 35.6931 30.422C35.7373 30.2452 35.7594 30.0979 35.7594 29.98L34.3341 28.5548L32.8205 30.0684L31.6383 28.8862L34.8092 25.7153ZM36.522 16.3238L38.1737 14.6721L43.4881 19.9864C44.1068 20.6051 44.4953 21.2588 44.6537 21.9475C44.8157 22.6325 44.7715 23.3139 44.5211 23.9915C44.2743 24.6655 43.8508 25.3026 43.2505 25.9029C42.6502 26.5032 42.0094 26.9304 41.3281 27.1845C40.6504 27.435 39.9673 27.481 39.2786 27.3226C38.5936 27.1606 37.9417 26.7702 37.323 26.1515L32.0086 20.8371L33.6659 19.1799L38.9803 24.4942C39.3412 24.8551 39.6929 25.0927 40.0354 25.2068C40.3779 25.321 40.7093 25.3247 41.0298 25.2179C41.3538 25.1074 41.6632 24.9048 41.9578 24.6102C42.2598 24.3082 42.4624 23.9989 42.5655 23.6821C42.6723 23.3617 42.6668 23.0321 42.5489 22.6933C42.4348 22.3508 42.1972 21.9991 41.8363 21.6382L36.522 16.3238ZM51.4598 14.8873L52.7525 16.18L48.4712 20.4613L47.1785 19.1686L51.4598 14.8873ZM40.9692 11.8766L49.0126 19.9199L47.3553 21.5772L39.3119 13.5338L40.9692 11.8766ZM47.4271 11.9705L48.6866 13.23L44.9633 16.9534L43.7037 15.6938L47.4271 11.9705ZM44.7036 8.14214L46.0018 9.44035L41.726 13.7161L40.4278 12.4179L44.7036 8.14214Z" fill="white"/>
</svg>
