<svg width="37" height="32" viewBox="0 0 37 32" fill="none" xmlns="http://www.w3.org/2000/svg">
<path d="M0 13.278V12.7751C0.16521 12.3621 0.389322 11.9742 0.861967 11.8967C1.16725 11.8464 1.49838 11.8967 1.81085 11.952C2.36179 12.0439 2.90769 12.1718 3.45504 12.2845L3.48522 12.1919C3.23884 11.9893 2.98241 11.7983 2.74824 11.5813C1.33533 10.2675 0.554522 8.62909 0.294495 6.73348C0.130214 5.59486 0.205327 4.43449 0.51502 3.32655C0.706089 2.64775 1.27067 2.27136 1.89057 2.46458C2.13838 2.54288 2.35891 2.73826 2.56291 2.91352C3.63031 3.8308 4.63379 4.83212 5.76153 5.6668C8.65127 7.80591 11.9124 9.10317 15.4587 9.67063C16.2193 9.79274 16.9915 9.84589 17.7874 9.93353C17.7723 9.77622 17.7709 9.68213 17.7544 9.59162C17.416 7.75635 17.6358 5.99003 18.5165 4.34799C19.8813 1.79728 22.0283 0.312545 24.9137 0.0381522C27.3653 -0.191706 29.4922 0.622132 31.2678 2.34247C31.3316 2.39419 31.4053 2.43213 31.4844 2.45389C31.5636 2.47565 31.6464 2.48076 31.7276 2.4689C32.8978 2.23245 34.0346 1.85297 35.1122 1.339C35.3794 1.21402 35.6553 1.09262 35.9024 1.35337C36.1688 1.6335 36.0216 1.91724 35.842 2.16362C35.4347 2.72102 35.0454 3.29854 34.5792 3.80351C34.164 4.25245 33.6548 4.61375 33.1872 5.01385C34.0987 4.87019 34.9987 4.65973 35.8959 4.43346C36.1832 4.36163 36.444 4.31782 36.6264 4.60801C36.8009 4.886 36.6688 5.11728 36.4684 5.30979C35.6064 6.13369 34.7444 6.95687 33.8695 7.76568C33.7079 7.91509 33.6174 8.04295 33.6253 8.27496C33.7503 11.9943 32.9688 15.5298 31.4072 18.8951C29.7853 22.3925 27.4687 25.3426 24.375 27.6584C20.7834 30.3514 16.7006 31.7126 12.2414 31.9618C8.49468 32.1716 4.89382 31.5193 1.47396 29.9549C0.961813 29.7207 0.491322 29.3946 0.000719007 29.1116V28.7524C0.232013 28.6576 0.461865 28.4859 0.694596 28.4809C3.32 28.4249 5.79457 27.7971 8.09314 26.5364C8.86963 26.1105 9.598 25.5976 10.3759 25.107C9.58579 24.9447 8.86029 24.8578 8.17502 24.643C6.25787 24.0403 4.799 22.8408 3.69712 21.1571C3.17419 20.3597 3.64109 19.5229 4.52676 19.5402C5.10141 19.5516 5.67605 19.4137 6.2507 19.3426L6.24351 19.2478C6.17168 19.2255 6.09409 19.2011 6.01795 19.1803C3.65903 18.5439 1.88195 17.1575 0.723321 15.0091C0.426661 14.4682 0.238477 13.8612 0 13.278Z" fill="white"/>
</svg>
