<svg width="120" height="110" viewBox="0 0 120 110" fill="none" xmlns="http://www.w3.org/2000/svg">
<path opacity="0.2" fill-rule="evenodd" clip-rule="evenodd" d="M0 14.0678V98.3364C1.62377 104.545 6.09425 107.52 11.8556 109.002H111.123C111.589 108.798 112.07 108.615 112.551 108.431C113.593 108.034 114.638 107.635 115.539 107.021C118.668 104.885 119.534 101.501 119.874 97.9237C119.932 97.3051 119.926 96.6804 119.921 96.0574C119.92 95.8767 119.918 95.6962 119.918 95.516C119.918 88.3239 119.908 81.1317 119.898 73.9396C119.871 55.1289 119.845 36.3181 120 17.5074C120.061 9.57238 114.051 2.86185 107.77 1.34157C107.517 1.25233 107.273 1.13708 107.043 0.99762H11.8556C7.88787 2.26681 4.47389 4.35804 2.39831 8.11401C1.68313 9.3919 1.18823 10.787 0.693482 12.1817C0.469135 12.8142 0.244816 13.4465 0 14.0678ZM113.175 74.6955C113.159 74.8499 113.141 75.0347 113.121 75.2674L90.7546 56.5633L73.3313 71.4874L54.1009 50.2964L6.84839 83.6874C6.83153 83.4974 6.8117 83.3187 6.79271 83.1475C6.75429 82.8012 6.7193 82.4859 6.7193 82.1706C6.7193 60.3869 6.7091 38.6032 6.68872 16.8195C6.63428 14.7512 7.26843 12.7244 8.48915 11.0651C10.0756 8.93262 12.073 7.78382 14.8314 7.78382C39.6635 7.80217 64.4957 7.81133 89.3279 7.81133C91.0206 7.81133 92.7118 7.80675 94.4031 7.80216C97.7862 7.79299 101.17 7.78382 104.567 7.81133C109.01 7.84917 113.202 11.9972 113.202 16.4893C113.213 35.6842 113.219 54.8813 113.219 74.0808C113.219 74.2548 113.201 74.4301 113.175 74.6955ZM72.6825 80.1481L90.7988 64.629C92.6372 66.1672 94.4631 67.704 96.2829 69.2356C101.165 73.3445 106.003 77.4167 110.923 81.3829C112.71 82.8241 113.396 84.2894 113.267 86.5698C113.146 88.668 113.16 90.7697 113.174 92.8715C113.184 94.3805 113.194 95.8895 113.155 97.3974C113.073 101.105 111.925 102.213 108.317 102.213C77.2187 102.238 46.1201 102.229 15.0216 102.185C13.5054 102.186 12.0006 101.92 10.5749 101.398C8.01016 100.445 6.86878 98.4877 6.6208 95.6088C6.34224 92.3585 7.49382 90.5115 10.1367 88.6885C20.4425 81.5681 30.6654 74.3226 40.8882 67.0772C44.5415 64.4878 48.1949 61.8985 51.852 59.3149C52.0951 59.144 52.3456 58.9807 52.6213 58.8008C52.7618 58.7092 52.9088 58.6134 53.0648 58.5101L72.6825 80.1481ZM92.5933 36.886C93.2132 35.3799 93.5305 33.7639 93.5267 32.1323C93.5316 30.5018 93.2185 28.8865 92.6053 27.3789C91.992 25.8714 91.0908 24.5013 89.9533 23.3473C88.8158 22.1933 87.4643 21.2781 85.9766 20.6543C84.4889 20.0305 82.8941 19.7103 81.2839 19.7121C78.0571 19.732 74.9683 21.0399 72.6882 23.3517C70.4081 25.6636 69.1207 28.7929 69.1056 32.06C69.0911 35.3259 70.3572 38.4641 72.6258 40.7856C74.8945 43.1072 77.9803 44.4223 81.2057 44.4423C82.817 44.4679 84.4171 44.1682 85.9127 43.5607C87.4083 42.9532 88.7694 42.05 89.9164 40.904C91.0634 39.758 91.9735 38.3921 92.5933 36.886ZM85.1898 28.1056C86.2238 29.1435 86.8134 30.5515 86.8312 32.0256C86.8497 33.4988 86.2969 34.9206 85.2914 35.9856C84.2859 37.0506 82.9081 37.6739 81.4537 37.7215C79.9938 37.7437 78.5843 37.1811 77.532 36.1562C76.4797 35.1314 75.8698 33.7271 75.835 32.2492C75.8119 31.5046 75.9359 30.7628 76.1997 30.0673C76.4635 29.3718 76.8617 28.7367 77.3711 28.1991C77.8806 27.6615 78.4909 27.2324 79.1662 26.9368C79.8416 26.6412 80.5685 26.4851 81.3042 26.4777C82.7603 26.483 84.1558 27.0677 85.1898 28.1056Z" fill="white"/>
</svg>
