<svg width="108" height="121" viewBox="0 0 108 121" fill="none" xmlns="http://www.w3.org/2000/svg">
<path fill-rule="evenodd" clip-rule="evenodd" d="M21 65.9995H86.6778V110.774H21V65.9995ZM19 65.9994C19 64.8949 19.8954 63.9995 21 63.9995H86.6778C87.7824 63.9995 88.6778 64.8949 88.6778 65.9995V110.774C88.6778 111.879 87.7824 112.774 86.6778 112.774H21C19.8954 112.774 19 111.879 19 110.774V65.9994ZM25.4935 118.665C24.9413 118.665 24.4935 119.112 24.4935 119.665C24.4935 120.217 24.9413 120.665 25.4935 120.665H80.3991C80.9514 120.665 81.3991 120.217 81.3991 119.665C81.3991 119.112 80.9514 118.665 80.3991 118.665H25.4935Z" fill="white"/>
<path d="M52.6923 56.9562L57.4826 27.7786M81.8698 56.9562L87.5312 48.682M21.7727 56.9562L16.5469 48.682" stroke="white" stroke-width="2" stroke-linecap="round"/>
<path d="M97.4694 28.4705L98.065 34.8501L103.739 37.827L97.8555 40.3649L96.7776 46.6809L92.5459 41.8698L86.2059 42.7964L89.4739 37.2851L86.6334 31.5418L92.8849 32.9467L97.4694 28.4705Z" fill="white"/>
<path d="M8.06997 31.9907L12.4102 35.8996L18.0529 34.3903L15.6765 39.7261L18.8556 44.6262L13.0466 44.0149L9.36875 48.5526L8.155 42.8391L2.70288 40.7435L7.76168 37.8235L8.06997 31.9907Z" fill="white"/>
<path d="M60.0944 1.10683L63.2178 8.16173L70.8352 9.38711L65.0908 14.5377L66.2793 22.161L59.6057 18.2893L52.7228 21.7754L54.3427 14.232L48.9003 8.76323L56.5751 7.9728L60.0944 1.10683Z" fill="white"/>
<circle cx="6.53266" cy="67.4081" r="2.91938" stroke="white" stroke-width="2"/>
<circle cx="73.1635" cy="41.7146" r="3.35487" stroke="white" stroke-width="2"/>
<circle cx="35.2727" cy="29.0848" r="4.66132" stroke="white" stroke-width="2"/>
<circle cx="104.081" cy="60.4404" r="2.91938" stroke="white" stroke-width="2"/>
<circle cx="39.6303" cy="45.6333" r="2.91938" stroke="white" stroke-width="2"/>
<path fill-rule="evenodd" clip-rule="evenodd" d="M64.5516 79.6699C64.9336 79.295 65.5429 79.2872 65.9343 79.6523L67.2641 80.8928C67.6697 81.2713 67.6898 81.9076 67.3088 82.3109L52.2661 98.2298C51.8018 98.7211 51.1557 98.9995 50.4797 98.9995C49.8732 98.9995 49.3035 98.7091 48.9471 98.2184L40.6421 86.7804C40.2971 86.3052 40.4339 85.6364 40.9377 85.3348L42.6723 84.2967C43.1165 84.0308 43.6901 84.1479 43.9946 84.5665L50.4797 93.4823L64.5516 79.6699Z" fill="white"/>
</svg>
