<svg width="37" height="22" viewBox="0 0 37 22" fill="none" xmlns="http://www.w3.org/2000/svg">
<path d="M0 1.0249V20.9749H37V1.0249H0Z" fill="white"/>
<path d="M6.37354 7.8824L8.28076 15.2697H10.4945L13.9393 6.71436H11.6937L9.52365 12.5232L8.63178 7.97736L6.37354 7.8824Z" fill="#005198"/>
<path d="M14.7775 6.68262L13.4548 15.2698H15.5467L16.8992 6.68262H14.7775Z" fill="#005198"/>
<path d="M23.0513 8.73477L23.3586 6.93664C22.7081 6.69274 22.0217 6.56456 21.3291 6.55762C20.2212 6.55762 17.8224 7.28388 17.8224 9.39786C17.8224 11.5118 20.8057 11.608 20.8057 12.7753C20.8057 13.9425 18.1302 13.8174 17.33 13.0605L16.9917 14.9222C16.9917 14.9222 18.1913 15.3962 19.2674 15.3962C20.3435 15.3962 23.0211 15.144 23.0211 12.3979C23.0211 9.99778 20.0374 10.4718 20.0374 9.01965C20.0374 9.01965 20.3439 7.56753 23.0513 8.73436V8.73477Z" fill="#005198"/>
<path d="M22.897 15.2699H25.2037L25.6043 14.0395H28.4332L28.6691 15.2597H30.6688L28.8343 6.7793H26.9886C26.9886 6.7793 26.3135 6.85836 26.0046 7.69466C25.7123 8.4898 22.8974 15.2707 22.8974 15.2707L22.897 15.2699Z" fill="#005198"/>
<path d="M28.0954 12.2712H26.2188L27.3882 9.11426L28.0954 12.2712Z" fill="white"/>
<path d="M9.2893 11.334L8.62974 7.97736C8.62974 7.97736 8.54079 6.7168 7.6656 6.7168H4.0918V6.89205C4.0918 6.89205 7.62589 7.49359 9.28692 11.3344L9.2893 11.334Z" fill="#005198"/>
<path d="M37 16.6001H0V21.5001H37V16.6001Z" fill="#F6A800"/>
<path d="M37 0.5H0V5.4H37V0.5Z" fill="#005198"/>
</svg>
