<svg width="58" height="47" viewBox="0 0 58 47" fill="none" xmlns="http://www.w3.org/2000/svg">
<path d="M34.513 0.0141602H3.5C1.84315 0.0141602 0.5 1.35731 0.5 3.01416V20.0142C0.5 21.671 1.84315 23.0142 3.5 23.0142H34.513C36.1699 23.0142 37.513 21.671 37.513 20.0142V3.01416C37.513 1.35731 36.1699 0.0141602 34.513 0.0141602Z" fill="#7A7A7A"/>
<path d="M33.0715 3.72363H4.20142V8.17524H33.0715V3.72363Z" fill="#3D3D3F"/>
<path d="M33.0715 12.627H4.20142V18.5625H33.0715V12.627Z" fill="white"/>
<g filter="url(#filter0_i_2_54)">
<mask id="mask0_2_54" style="mask-type:alpha" maskUnits="userSpaceOnUse" x="16" y="5" width="42" height="42">
<path d="M37.1428 5.20752H37.1427C25.8998 5.20752 16.7856 14.3217 16.7856 25.5646V25.6568C16.7856 36.8997 25.8998 46.0139 37.1427 46.0139H37.1428C48.3857 46.0139 57.4999 36.8997 57.4999 25.6568V25.5646C57.4999 14.3217 48.3857 5.20752 37.1428 5.20752Z" fill="#C4C4C4"/>
</mask>
<g mask="url(#mask0_2_54)">
<path d="M54.2849 5.20752H-5.3833C-7.04016 5.20752 -8.3833 6.55066 -8.3833 8.20752V43.0139C-8.3833 44.6708 -7.04016 46.0139 -5.3833 46.0139H54.2849C55.9418 46.0139 57.2849 44.6708 57.2849 43.0139V8.20752C57.2849 6.55066 55.9418 5.20752 54.2849 5.20752Z" fill="#7A7A7A"/>
<path d="M49.4048 11.7891H-1.81641V19.6871H49.4048V11.7891Z" fill="#3D3D3F"/>
<path d="M49.357 27.4658H-1.72095V37.8529H49.357V27.4658Z" fill="white"/>
<path d="M35.3472 29.2954V35.0142H34.6245V30.1978L33.1675 30.729V30.0767L35.2339 29.2954H35.3472ZM41.0387 34.4204V35.0142H37.3161V34.4946L39.1794 32.4204C39.4085 32.1652 39.5856 31.9491 39.7106 31.772C39.8382 31.5923 39.9268 31.4321 39.9762 31.2915C40.0283 31.1483 40.0544 31.0024 40.0544 30.854C40.0544 30.6665 40.0153 30.4972 39.9372 30.3462C39.8616 30.1925 39.7497 30.0701 39.6012 29.979C39.4528 29.8879 39.2731 29.8423 39.0622 29.8423C38.8096 29.8423 38.5986 29.8918 38.4294 29.9907C38.2627 30.0871 38.1377 30.2225 38.0544 30.397C37.971 30.5715 37.9294 30.772 37.9294 30.9985H37.2067C37.2067 30.6782 37.277 30.3853 37.4176 30.1196C37.5583 29.854 37.7666 29.6431 38.0426 29.4868C38.3187 29.328 38.6585 29.2485 39.0622 29.2485C39.4215 29.2485 39.7288 29.3123 39.984 29.4399C40.2393 29.5649 40.4346 29.742 40.57 29.9712C40.708 30.1978 40.777 30.4634 40.777 30.7681C40.777 30.9347 40.7484 31.104 40.6911 31.2759C40.6364 31.4451 40.5596 31.6144 40.4606 31.7837C40.3643 31.953 40.251 32.1196 40.1208 32.2837C39.9932 32.4478 39.8564 32.6092 39.7106 32.7681L38.1872 34.4204H41.0387ZM42.7069 31.8149H43.2225C43.4751 31.8149 43.6834 31.7733 43.8475 31.6899C44.0141 31.604 44.1378 31.4881 44.2186 31.3423C44.3019 31.1938 44.3436 31.0272 44.3436 30.8423C44.3436 30.6235 44.3071 30.4399 44.2342 30.2915C44.1613 30.1431 44.0519 30.0311 43.9061 29.9556C43.7602 29.88 43.5753 29.8423 43.3514 29.8423C43.1483 29.8423 42.9686 29.8826 42.8123 29.9634C42.6587 30.0415 42.5376 30.1535 42.449 30.2993C42.3631 30.4451 42.3201 30.617 42.3201 30.8149H41.5975C41.5975 30.5259 41.6704 30.2629 41.8162 30.0259C41.9621 29.7889 42.1665 29.6001 42.4295 29.4595C42.6951 29.3188 43.0024 29.2485 43.3514 29.2485C43.6951 29.2485 43.9959 29.3097 44.2537 29.4321C44.5115 29.5519 44.7121 29.7316 44.8553 29.9712C44.9985 30.2082 45.0701 30.5037 45.0701 30.8579C45.0701 31.0011 45.0363 31.1548 44.9686 31.3188C44.9035 31.4803 44.8006 31.6313 44.66 31.772C44.522 31.9126 44.3423 32.0285 44.1209 32.1196C43.8996 32.2082 43.6339 32.2524 43.324 32.2524H42.7069V31.8149ZM42.7069 32.4087V31.9751H43.324C43.686 31.9751 43.9855 32.0181 44.2225 32.104C44.4595 32.1899 44.6457 32.3045 44.7811 32.4478C44.9191 32.591 45.0154 32.7485 45.0701 32.9204C45.1274 33.0897 45.1561 33.259 45.1561 33.4282C45.1561 33.6938 45.1105 33.9295 45.0194 34.1353C44.9308 34.341 44.8045 34.5155 44.6404 34.6587C44.479 34.8019 44.2889 34.91 44.0701 34.9829C43.8514 35.0558 43.6131 35.0923 43.3553 35.0923C43.1079 35.0923 42.8748 35.0571 42.6561 34.9868C42.4399 34.9165 42.2485 34.8149 42.0819 34.6821C41.9152 34.5467 41.785 34.3813 41.6912 34.186C41.5975 33.9881 41.5506 33.7629 41.5506 33.5103H42.2733C42.2733 33.7082 42.3162 33.8813 42.4022 34.0298C42.4907 34.1782 42.6157 34.2941 42.7772 34.3774C42.9412 34.4582 43.1339 34.4985 43.3553 34.4985C43.5766 34.4985 43.7668 34.4608 43.9256 34.3853C44.0871 34.3071 44.2108 34.1899 44.2967 34.0337C44.3852 33.8774 44.4295 33.6808 44.4295 33.4438C44.4295 33.2069 44.38 33.0129 44.2811 32.8618C44.1821 32.7082 44.0415 32.5949 43.8592 32.522C43.6795 32.4465 43.4673 32.4087 43.2225 32.4087H42.7069Z" fill="black"/>
</g>
</g>
<defs>
<filter id="filter0_i_2_54" x="16.7856" y="5.20752" width="40.4993" height="44.8064" filterUnits="userSpaceOnUse" color-interpolation-filters="sRGB">
<feFlood flood-opacity="0" result="BackgroundImageFix"/>
<feBlend mode="normal" in="SourceGraphic" in2="BackgroundImageFix" result="shape"/>
<feColorMatrix in="SourceAlpha" type="matrix" values="0 0 0 0 0 0 0 0 0 0 0 0 0 0 0 0 0 0 127 0" result="hardAlpha"/>
<feOffset dy="4"/>
<feGaussianBlur stdDeviation="2"/>
<feComposite in2="hardAlpha" operator="arithmetic" k2="-1" k3="1"/>
<feColorMatrix type="matrix" values="0 0 0 0 0 0 0 0 0 0 0 0 0 0 0 0 0 0 0.25 0"/>
<feBlend mode="normal" in2="shape" result="effect1_innerShadow_2_54"/>
</filter>
</defs>
</svg>
