<svg width="143" height="41" viewBox="0 0 143 41" fill="none" xmlns="http://www.w3.org/2000/svg">
<path d="M56.8793 13.6094C55.457 13.6094 54.597 14.4694 54.597 15.8917V26.0131C54.597 29.1885 53.0094 30.7762 49.9332 30.7762C46.7909 30.7762 45.2033 29.1885 45.2033 26.0131V15.8917C45.2033 14.4694 44.3433 13.6094 42.921 13.6094C41.4987 13.6094 40.6387 14.4694 40.6387 15.8917V26.0131C40.6387 31.6031 44.1779 35.0762 49.8671 35.0762C55.5893 35.0762 59.1286 31.57 59.1286 26.0131V15.8917C59.1616 14.4694 58.3016 13.6094 56.8793 13.6094Z" fill="white"/>
<path d="M28.3667 8.48242C24.2983 8.48242 22.0491 10.6986 21.5529 15.0978L19.9983 28.6592C19.866 29.9823 19.1383 30.6438 17.8153 30.6438C16.4922 30.6438 15.7645 29.9492 15.6322 28.6592L14.0776 15.0978C13.5814 10.6986 11.3653 8.48242 7.26378 8.48242C3.19534 8.48242 0.648438 11.0293 0.648438 15.0978V32.7607C0.648438 34.183 1.50844 35.0761 2.93073 35.0761C4.35303 35.0761 5.21303 34.183 5.21303 32.7607V15.0978C5.21303 13.6755 6.03995 12.8155 7.39609 12.8155C8.71916 12.8155 9.38069 13.5762 9.57915 15.0978L11.1338 28.6592C11.6299 32.9261 13.9122 35.043 17.8483 35.043C21.7845 35.043 24.0668 32.9261 24.5629 28.6592L26.1175 15.0978C26.2829 13.6093 26.9775 12.8155 28.3006 12.8155C29.6567 12.8155 30.4836 13.6755 30.4836 15.0978V32.7607C30.4836 34.183 31.3436 35.0761 32.7659 35.0761C34.1882 35.0761 35.0482 34.183 35.0482 32.7607V15.0978C35.0151 11.0293 32.4682 8.48242 28.3667 8.48242Z" fill="white"/>
<path d="M67.1007 5.7373C65.6784 5.7373 64.8184 6.63037 64.8184 8.05267V32.761C64.8184 34.1833 65.6784 35.0763 67.1007 35.0763C68.5229 35.0763 69.3829 34.1833 69.3829 32.761V8.0196C69.3499 6.63038 68.4899 5.7373 67.1007 5.7373Z" fill="white"/>
<path d="M88.8642 30.3792C88.0373 30.3792 87.1773 30.7761 86.0527 30.7761C83.4066 30.7761 82.0504 29.3207 82.0504 26.4762V17.9424H88.4342C89.8565 17.9424 90.7165 17.1816 90.7165 15.8916C90.7165 14.6347 89.8565 13.8408 88.4342 13.8408H82.0504V10.7978C82.0504 9.37549 81.1904 8.48242 79.8343 8.48242C78.4781 8.48242 77.6181 9.37549 77.6181 10.7978V13.8408H75.0382C73.6159 13.8408 72.7559 14.6016 72.7559 15.8916C72.7559 17.1485 73.6159 17.9424 75.0382 17.9424H77.6181V26.4762C77.6181 31.8015 80.8266 35.1092 86.0527 35.1092C88.1365 35.1092 90.9481 34.5138 90.9481 32.5623C90.9481 31.3715 90.1873 30.3792 88.8642 30.3792Z" fill="white"/>
<path d="M97.8936 13.6094C96.4713 13.6094 95.6113 14.5024 95.6113 15.9247V32.7608C95.6113 34.1831 96.4713 35.0762 97.8936 35.0762C99.3159 35.0762 100.176 34.1831 100.176 32.7608V15.9247C100.176 14.5355 99.3159 13.6094 97.8936 13.6094Z" fill="white"/>
<path d="M97.8937 11.1619C99.5144 11.1619 100.672 10.0373 100.672 8.44959C100.672 6.86191 99.5475 5.7373 97.8937 5.7373C96.2729 5.7373 95.1152 6.86191 95.1152 8.44959C95.1152 10.0373 96.2729 11.1619 97.8937 11.1619Z" fill="white"/>
<path d="M127.531 24.0947H137.587C139.637 24.0947 141.324 22.474 141.357 20.4232C141.357 18.1079 139.902 16.6855 137.587 16.6855H127.564C127.564 18.7363 125.911 20.3571 123.86 20.3571C123.827 22.4409 125.481 24.0947 127.531 24.0947Z" fill="#FF8200"/>
<path d="M127.53 16.7186V6.66333C127.53 4.61257 125.91 2.92565 123.859 2.89258C121.543 2.89258 120.121 4.34796 120.121 6.66333V16.6856C122.172 16.6856 123.793 18.3394 123.793 20.3902C125.876 20.3902 127.53 18.7363 127.53 16.7186Z" fill="#EF426F"/>
<path d="M120.121 24.0948V34.1502C120.121 36.2009 121.742 37.8878 123.793 37.9209C126.108 37.9209 127.53 36.4655 127.53 34.1502V24.1279C125.48 24.1279 123.859 22.4741 123.859 20.4233C121.775 20.3903 120.121 22.0441 120.121 24.0948Z" fill="#643CB4"/>
<path d="M120.154 16.7188H110.099C108.048 16.7188 106.361 18.3395 106.328 20.3903C106.328 22.7056 107.783 24.1279 110.099 24.1279H120.121C120.121 22.0772 121.775 20.4564 123.826 20.4564C123.826 18.3395 122.172 16.7188 120.154 16.7188Z" fill="#14C850"/>
</svg>
