<svg width="210" height="210" viewBox="0 0 210 210" fill="none" xmlns="http://www.w3.org/2000/svg">
<path d="M202 0H8C3.58172 0 0 3.58172 0 8V202C0 206.418 3.58172 210 8 210H202C206.418 210 210 206.418 210 202V8C210 3.58172 206.418 0 202 0Z" fill="#2E303F"/>
<path d="M34.8506 118.692V118.702C34.8506 123.877 37.9746 126.996 43.3106 126.996C46.6559 126.985 49.9795 126.459 53.1646 125.436L51.3646 118.692H34.8506Z" fill="white"/>
<path d="M34.8506 102.057V117.257H44.4326C44.1672 117.03 43.9572 116.745 43.8185 116.425C43.6799 116.104 43.6163 115.756 43.6326 115.407V102.057H34.8506Z" fill="white"/>
<path d="M34.8506 100.617V85.631L43.6376 82.834V93.247H51.9296V100.617H34.8506Z" fill="white"/>
<path d="M63.6214 93.2461H54.7544V100.616H63.6214V93.2461Z" fill="white"/>
<path d="M55.5186 118.692C56.3033 121.108 57.8404 123.209 59.9048 124.688C61.9693 126.168 64.453 126.948 66.9926 126.914C70.6846 126.914 73.3926 125.848 75.5276 123.299V126.091H84.3996V118.691L55.5186 118.692Z" fill="white"/>
<path d="M63.6215 112.542V102.057H54.7545V113.777C54.7507 114.947 54.8737 116.113 55.1215 117.256H65.2795C64.686 116.632 64.2314 115.889 63.9456 115.077C63.6598 114.264 63.5494 113.4 63.6215 112.542Z" fill="white"/>
<path d="M84.3987 102.057H75.5267V112.13C75.582 113.14 75.3688 114.146 74.9087 115.046C74.4487 115.947 73.7582 116.709 72.9077 117.256H84.3977L84.3987 102.057Z" fill="white"/>
<path d="M75.5278 93.2461H84.3948V100.616H75.5278V93.2461Z" fill="white"/>
<path d="M87.5186 102.057V117.257H96.6335V107.865C96.5777 106.744 96.8321 105.63 97.3689 104.644C97.9056 103.659 98.7037 102.84 99.6756 102.279L100.05 102.057H87.5186Z" fill="white"/>
<path d="M87.5186 126.09H96.6335V118.69H87.5186V126.09Z" fill="white"/>
<path d="M87.5186 100.616V93.246H96.5515V96.531C99.2635 93.164 102.875 92.259 106.652 92.752V100.616H87.5186Z" fill="white"/>
<path d="M109.585 118.692V126.092H118.293V123.387C119.254 124.513 120.451 125.413 121.799 126.023C123.148 126.633 124.614 126.938 126.093 126.916C132.193 126.916 137.256 124.421 139.786 118.694L109.585 118.692Z" fill="white"/>
<path d="M121.019 102.057H109.585V117.257H121.113C119.329 115.873 118.176 113.406 118.176 109.669C118.176 105.729 119.31 103.356 121.019 102.058" fill="white"/>
<path d="M139.904 100.617C138.866 98.0189 137.056 95.8015 134.719 94.2638C132.381 92.7261 129.628 91.9419 126.831 92.017C125.249 91.9846 123.677 92.2736 122.209 92.8664C120.742 93.4592 119.41 94.3436 118.294 95.466V82.834H109.585V100.617H139.904Z" fill="white"/>
<path d="M129.824 102.057H140.456C141.191 104.357 141.552 106.76 141.527 109.175C141.575 111.915 141.179 114.644 140.353 117.256H129.7C131.486 115.851 132.656 113.256 132.656 109.013C132.656 105.767 131.622 103.413 129.824 102.057Z" fill="white"/>
<path d="M159.302 127.325C162.204 127.396 165.063 126.616 167.527 125.082C169.992 123.548 171.953 121.327 173.171 118.692H145.401C146.656 121.306 148.63 123.506 151.093 125.036C153.555 126.565 156.403 127.359 159.301 127.325" fill="white"/>
<path d="M159.303 91.7683C156.362 91.7538 153.478 92.5789 150.99 94.1465C148.502 95.7142 146.513 97.9594 145.257 100.618H173.297C172.054 97.9597 170.075 95.7131 167.595 94.1449C165.115 92.5767 162.236 91.7526 159.302 91.7703" fill="white"/>
<path d="M152.239 109.668C152.239 105.728 153.339 103.355 154.996 102.057H144.628C143.782 104.306 143.356 106.691 143.372 109.093C143.331 111.877 143.805 114.645 144.772 117.256H155.084C153.358 115.872 152.238 113.405 152.238 109.668" fill="white"/>
<path d="M163.534 102.057H173.921C174.748 104.283 175.164 106.639 175.149 109.013C175.19 111.821 174.725 114.613 173.776 117.256H163.417C165.147 115.851 166.279 113.256 166.279 109.013C166.279 105.767 165.279 103.413 163.534 102.057Z" fill="white"/>
<path d="M104.009 89.9732H102.431V87.1482L99.6807 82.8062H101.519L103.231 85.6862L104.973 82.8062H106.762L104.01 87.1182L104.009 89.9732Z" fill="white"/>
<path d="M93.5024 82.8062V89.9732H95.0784V87.6862H96.3224L97.8544 89.9782H99.6974L97.9504 87.4202C98.4164 87.2684 98.8195 86.9674 99.0971 86.5635C99.3748 86.1597 99.5116 85.6756 99.4864 85.1862C99.4864 83.6992 98.4694 82.8082 96.7784 82.8082H93.5024V82.8062ZM95.0784 84.2302H96.6474C97.4164 84.2302 97.8844 84.5692 97.8844 85.2642C97.8844 85.8792 97.4474 86.2862 96.6774 86.2862H95.0774L95.0784 84.2302Z" fill="white"/>
<path d="M92.2864 84.2072H88.4444V85.6632H91.8254V87.0692H88.4444V88.5692H92.3354V89.9692H86.8804V82.8062H92.2864V84.2072Z" fill="white"/>
<path d="M84.3107 82.8062H86.0108L83.1158 90.0242H81.7218L78.8228 82.8062H80.5648L82.4398 87.8542L84.3107 82.8062Z" fill="white"/>
<path d="M74.9333 82.6842C74.2041 82.7025 73.4965 82.9356 72.8991 83.3542C72.3017 83.7728 71.8411 84.3584 71.5749 85.0375C71.3087 85.7167 71.2489 86.4593 71.4028 87.1723C71.5567 87.8854 71.9176 88.5372 72.4403 89.046C72.9629 89.5549 73.6241 89.8983 74.341 90.0332C75.0579 90.168 75.7986 90.0884 76.4704 89.8042C77.1423 89.5201 77.7153 89.044 78.1179 88.4356C78.5204 87.8273 78.7345 87.1137 78.7333 86.3842C78.7324 85.8901 78.6328 85.4012 78.4402 84.9462C78.2477 84.4911 77.9661 84.0791 77.6121 83.7344C77.2581 83.3897 76.8388 83.1193 76.3787 82.9389C75.9187 82.7586 75.4273 82.672 74.9333 82.6842V82.6842ZM74.9173 84.1382C75.2097 84.1391 75.4989 84.1989 75.7677 84.314C76.0364 84.4291 76.2793 84.5972 76.4816 84.8082C76.684 85.0193 76.8417 85.2689 76.9455 85.5423C77.0492 85.8156 77.0968 86.1071 77.0853 86.3992C77.0982 86.6893 77.052 86.979 76.9496 87.2507C76.8472 87.5224 76.6907 87.7705 76.4896 87.98C76.2885 88.1894 76.047 88.3558 75.7796 88.4692C75.5123 88.5825 75.2247 88.6403 74.9343 88.6392C74.6423 88.6388 74.3533 88.5795 74.0847 88.4649C73.816 88.3503 73.5732 88.1828 73.3706 87.9724C73.1681 87.7619 73.0101 87.5129 72.9059 87.24C72.8017 86.9672 72.7536 86.6761 72.7643 86.3842C72.7509 86.0937 72.7967 85.8035 72.8988 85.5313C73.0009 85.259 73.1573 85.0103 73.3585 84.8002C73.5596 84.5902 73.8013 84.4232 74.069 84.3094C74.3366 84.1956 74.6245 84.1374 74.9153 84.1382H74.9173Z" fill="white"/>
<path d="M67.6754 90.0942C67.1888 90.1022 66.7056 90.012 66.2547 89.8289C65.8039 89.6459 65.3946 89.3737 65.0513 89.0287C64.7081 88.6837 64.4381 88.273 64.2573 87.8212C64.0765 87.3694 63.9888 86.8857 63.9994 86.3992C63.9896 85.9065 64.0799 85.417 64.2647 84.9602C64.4495 84.5034 64.725 84.0888 65.0746 83.7416C65.4242 83.3943 65.8406 83.1216 66.2987 82.9398C66.7567 82.7581 67.2468 82.6711 67.7394 82.6842C68.2612 82.6584 68.7826 82.7437 69.2691 82.9343C69.7555 83.125 70.196 83.4167 70.5614 83.7902L69.5614 84.9472C69.0813 84.4483 68.4245 84.1578 67.7324 84.1382C67.4465 84.1435 67.1646 84.2065 66.9036 84.3233C66.6426 84.4402 66.4079 84.6085 66.2135 84.8182C66.0191 85.0279 65.869 85.2747 65.7723 85.5438C65.6755 85.8129 65.634 86.0987 65.6504 86.3842C65.6328 86.6703 65.6732 86.9571 65.7692 87.2273C65.8651 87.4974 66.0147 87.7454 66.2088 87.9564C66.403 88.1674 66.6377 88.3369 66.899 88.4549C67.1603 88.573 67.4427 88.637 67.7294 88.6432C68.0833 88.6404 68.4328 88.5648 68.7562 88.4212C69.0796 88.2775 69.37 88.0689 69.6094 87.8082L70.6094 88.8202C70.2484 89.2414 69.7964 89.5752 69.2877 89.7964C68.779 90.0176 68.2266 90.1204 67.6724 90.0972" fill="white"/>
<path d="M60.9097 85.6843C62.3667 86.0653 63.1827 86.5843 63.1827 87.8453C63.1827 89.2783 62.0997 90.0783 60.5497 90.0783C59.4304 90.0819 58.3489 89.6732 57.5117 88.9303L58.4427 87.8123C59.0254 88.3531 59.7851 88.663 60.5797 88.6843C61.2277 88.6843 61.6157 88.4273 61.6157 87.9993C61.6157 87.5873 61.3697 87.3843 60.1727 87.0753C58.7277 86.7063 57.7967 86.3083 57.7967 84.8753C57.8046 84.5634 57.8774 84.2566 58.0106 83.9744C58.1437 83.6922 58.3342 83.4409 58.5699 83.2366C58.8057 83.0322 59.0814 82.8792 59.3796 82.7874C59.6778 82.6955 59.9918 82.6669 60.3017 82.7033C61.2683 82.689 62.2098 83.0114 62.9647 83.6153L62.1467 84.8033C61.6113 84.3874 60.9625 84.1434 60.2857 84.1033C59.6797 84.1033 59.3617 84.3793 59.3617 84.7343C59.3617 85.2133 59.6707 85.3683 60.9077 85.6883" fill="white"/>
<path d="M56.4447 89.9732H54.8667V82.8062H56.4447V89.9732Z" fill="white"/>
<path d="M47.0264 82.8063V89.9733H49.8264C50.3151 90.0028 50.8047 89.9319 51.2651 89.7651C51.7254 89.5984 52.1468 89.3392 52.5033 89.0035C52.8598 88.6679 53.1438 88.2629 53.338 87.8134C53.5321 87.3639 53.6323 86.8794 53.6323 86.3898C53.6323 85.9002 53.5321 85.4157 53.338 84.9662C53.1438 84.5167 52.8598 84.1117 52.5033 83.7761C52.1468 83.4404 51.7254 83.1812 51.2651 83.0145C50.8047 82.8477 50.3151 82.7769 49.8264 82.8063H47.0264V82.8063ZM48.6044 84.2303H49.8224C50.1107 84.216 50.3988 84.2625 50.6681 84.3666C50.9373 84.4707 51.1817 84.6302 51.3854 84.8348C51.5891 85.0393 51.7476 85.2844 51.8506 85.554C51.9536 85.8237 51.9988 86.112 51.9834 86.4003C51.9986 86.6876 51.9531 86.9748 51.8497 87.2433C51.7464 87.5117 51.5875 87.7553 51.3835 87.9582C51.1796 88.161 50.9351 88.3185 50.6661 88.4204C50.397 88.5222 50.1095 88.5662 49.8224 88.5493H48.6044V84.2303Z" fill="white"/>
</svg>
