<svg width="210" height="210" viewBox="0 0 210 210" fill="none" xmlns="http://www.w3.org/2000/svg">
<path d="M202 0H8C3.58172 0 0 3.58172 0 8V202C0 206.418 3.58172 210 8 210H202C206.418 210 210 206.418 210 202V8C210 3.58172 206.418 0 202 0Z" fill="#2E303F"/>
<path d="M56.2946 141.521C55.8856 141.481 54.1816 141.372 52.5076 141.277C50.2386 141.149 49.4156 141.028 49.2716 140.801C49.0434 139.813 49.0145 138.789 49.1866 137.789C49.2866 137.54 50.1396 137.506 54.3476 137.589C56.7486 137.67 59.1523 137.619 61.5476 137.435C68.7926 136.593 72.4476 133.802 73.9206 127.975C74.4546 125.875 74.9296 119.144 74.5966 118.413L74.3746 117.926L72.9256 118.331C70.2029 119.048 67.41 119.466 64.5966 119.577C51.3086 120.388 40.5146 116.287 36.6696 108.963C35.4023 106.58 34.8142 103.895 34.9696 101.201C34.8256 98.8486 35.199 96.4934 36.0636 94.301C38.1722 88.943 42.9332 85.435 50.3466 83.777C54.2246 82.907 56.0006 82.829 71.8746 82.829C85.5146 82.829 87.0606 82.863 87.1746 83.165C87.3936 83.735 87.3166 120.347 87.0906 123.313C86.9955 126.147 86.2966 128.928 85.0406 131.47C84.3789 132.927 83.4193 134.229 82.2236 135.293C78.5186 138.963 74.0346 140.657 66.1696 141.357C62.8847 141.635 59.5848 141.689 56.2926 141.521H56.2946ZM67.9826 115.102C69.9802 114.869 71.942 114.394 73.8246 113.687L74.5646 113.334L74.5096 100.154L74.4556 86.977L73.3936 86.796C69.2564 86.5172 65.1047 86.5316 60.9696 86.839C54.9276 87.731 50.8266 90.939 49.1476 96.086C48.3826 98.8249 48.2431 101.701 48.7396 104.501C49.4165 107.407 51.0607 109.997 53.4026 111.847C57.2306 114.725 62.1606 115.825 67.9846 115.102H67.9826ZM165.583 119.98C154.746 118.867 149.157 114.127 148.07 105.123C147.899 103.723 147.845 97.892 147.889 85.801L147.949 68.49L154.056 68.434L160.162 68.377V76.239C160.162 80.563 160.186 84.122 160.215 84.147C160.244 84.172 163.422 84.247 167.277 84.306L174.287 84.419L174.348 86.139C174.393 87.398 174.331 87.923 174.118 88.101C173.905 88.279 171.732 88.361 167.047 88.401L160.268 88.457L160.207 96.957C160.127 108.099 160.423 110.244 162.374 112.644C164.236 114.936 166.548 115.738 171.791 115.915L175.03 116.024V119.945L174.045 120.08C171.223 120.241 168.394 120.207 165.578 119.977L165.583 119.98ZM92.9276 118.462C92.8716 118.314 92.8496 110.262 92.8796 100.562L92.9346 82.932H109.503C127.632 82.932 127.636 82.932 131.774 84.239C138.228 86.274 141.907 90.628 143.05 97.585C143.344 99.376 143.389 101.192 143.337 109.161L143.276 118.613L137.07 118.677L130.862 118.733L130.752 118.252C130.691 117.987 130.614 112.944 130.579 107.044C130.524 97.655 130.47 96.163 130.152 95.079C128.676 90.065 125.49 87.714 118.982 86.84C114.639 86.61 110.286 86.6564 105.949 86.979C105.602 87.113 105.575 88.12 105.524 102.872L105.47 118.618L99.2516 118.674C94.3916 118.718 93.0106 118.674 92.9306 118.462H92.9276Z" fill="white"/>
</svg>
