<svg width="210" height="210" viewBox="0 0 210 210" fill="none" xmlns="http://www.w3.org/2000/svg">
<path d="M202 0H8C3.58172 0 0 3.58172 0 8V202C0 206.418 3.58172 210 8 210H202C206.418 210 210 206.418 210 202V8C210 3.58172 206.418 0 202 0Z" fill="#2E303F"/>
<path d="M67.772 125.243H63.272C63.606 127.409 65.605 128.575 68.772 128.243C72.436 128.41 74.272 127.243 74.602 125.078C74.602 123.913 73.769 123.078 72.27 122.578L68.605 121.578C68.105 121.578 67.772 121.411 67.772 121.078C67.772 120.745 68.105 120.578 68.938 120.578C69.604 120.578 69.938 120.745 69.938 121.411H74.103C73.937 119.245 72.271 118.246 68.939 118.411C65.4403 118.411 63.607 119.411 63.439 121.411C63.439 122.744 64.272 123.576 65.939 124.077L69.439 124.743L70.106 125.409C70.106 125.909 69.606 126.076 68.939 126.242L68.106 125.909L67.772 125.243ZM89.262 121.743C89.262 119.912 87.928 118.912 85.097 118.578H78.097V128.072H82.928V125.072H84.428C87.76 124.906 89.259 123.907 89.259 121.74L89.262 121.743ZM82.931 120.911H83.263C84.263 120.911 84.763 121.244 84.763 121.743C84.763 122.409 84.263 122.743 83.263 122.743H82.931V120.911ZM92.26 123.411C92.26 126.577 94.26 128.242 98.424 128.411C102.588 128.244 104.587 126.579 104.587 123.411C104.587 120.243 102.587 118.58 98.424 118.411C94.259 118.578 92.26 120.244 92.26 123.411V123.411ZM99.76 123.411C99.593 125.411 99.093 126.243 98.428 125.911C97.761 126.244 97.261 125.411 97.261 123.411C97.261 121.411 97.595 120.58 98.428 120.911C99.252 120.579 99.752 121.412 99.752 123.41L99.76 123.411ZM119.75 128.076L118.917 124.576C118.79 124.199 118.537 123.878 118.201 123.666C117.865 123.454 117.467 123.364 117.072 123.411C118.738 122.911 119.404 122.246 119.404 121.246C119.237 119.413 117.904 118.58 115.239 118.58H108.239V128.074H112.904V124.911H113.404C114.237 124.744 114.569 124.911 114.569 125.411L115.069 128.076H119.75ZM112.919 120.913H113.252C114.252 120.746 114.752 121.08 114.752 121.745C114.752 122.41 114.252 122.578 113.252 122.578H112.919V120.912V120.913ZM122.419 121.246H125.419V128.246H129.919V121.246H132.919V118.746H122.419V121.246ZM140.078 121.079C140.078 120.746 140.412 120.579 141.244 120.579C141.909 120.579 142.244 120.746 142.408 121.412H146.573C146.241 119.246 144.573 118.247 141.244 118.412C137.744 118.412 135.913 119.412 135.913 121.412C135.913 122.745 136.747 123.577 138.413 124.078L141.744 124.744L142.578 125.41C142.578 125.91 142.078 126.077 141.246 126.243L140.413 125.91L140.079 125.244H135.747C136.08 127.41 137.913 128.576 141.247 128.244C144.747 128.411 146.747 127.244 146.91 125.079C146.91 123.914 146.244 123.079 144.578 122.579L141.078 121.579C140.413 121.579 140.245 121.412 140.078 121.079V121.079ZM74.43 90.4266H86.425L85.757 80.7686H64.435V116.419H74.435V104.753H84.264V95.0906H74.43V90.4266ZM136.23 97.7556L145.897 80.7686H135.234L130.734 88.5976L126.406 80.7686H115.406L125.234 97.7596L114.744 116.248H125.572L130.572 107.086L135.736 116.248H146.898L136.234 97.7556H136.23Z" fill="white"/>
<path d="M103.083 81.2644C92.7552 82.2644 87.0912 88.0954 86.0912 98.5894C87.0912 109.089 92.7552 114.748 103.083 115.748C113.245 114.748 118.909 109.085 119.908 98.5894C118.909 88.0954 113.245 82.2644 103.083 81.2644ZM103.083 88.4274C103.871 88.4525 104.62 88.7766 105.177 89.3338C105.734 89.8911 106.058 90.6397 106.083 91.4274V105.587C106.096 105.978 106.03 106.367 105.889 106.732C105.748 107.097 105.535 107.429 105.263 107.71C104.991 107.991 104.666 108.214 104.306 108.367C103.946 108.519 103.559 108.598 103.168 108.598C102.777 108.598 102.39 108.519 102.03 108.367C101.67 108.214 101.344 107.991 101.072 107.71C100.8 107.429 100.588 107.097 100.447 106.732C100.306 106.367 100.24 105.978 100.252 105.587V91.4264C100.241 90.6563 100.53 89.912 101.059 89.3519C101.587 88.7919 102.314 88.4602 103.083 88.4274V88.4274ZM154.225 134.573C167.054 127.073 174.214 117.747 175.382 106.587H164.052C162.888 116.416 157.052 124.744 146.229 131.242C135.567 137.904 122.241 141.402 106.249 141.735V146.235C125.407 145.735 141.233 141.904 154.226 134.574L154.225 134.573ZM55.7722 134.573C68.5992 141.903 84.5922 145.735 103.749 146.234V141.734C87.9232 141.4 74.5972 137.903 63.9352 131.239C53.2732 124.739 47.2762 116.413 46.2762 106.584H34.6162C35.9502 117.746 42.9462 127.073 55.7722 134.573V134.573ZM103.749 68.2734V63.2734C84.4262 63.7734 68.1002 67.7734 55.2732 75.4344C42.2802 83.0974 35.4492 92.7594 34.6162 104.087H46.2772C47.2772 93.9254 52.9402 85.5954 63.6022 79.0994C74.4312 72.2734 87.7582 68.7734 103.749 68.2734ZM106.249 63.2734V68.2734C122.407 68.6054 135.735 72.2734 146.563 78.9354C157.225 85.5984 163.056 93.9284 164.054 104.09H175.384C174.716 92.7614 167.72 83.0994 154.892 75.4374C141.897 67.7734 125.738 63.7734 106.249 63.2734ZM159.556 134.905H160.888V134.073H157.557V134.905H158.723V138.237H159.556V134.905ZM162.716 134.073H161.384V138.237H162.218V134.905L163.051 138.237H163.885L164.551 134.905V138.237H165.385V134.073H164.216L163.383 137.404L162.716 134.073Z" fill="white"/>
</svg>
