<svg width="1253" height="182" viewBox="0 0 1253 182" fill="none" xmlns="http://www.w3.org/2000/svg">
<path d="M51.7822 35.3594V142H37.8662V35.3594H51.7822ZM86.0596 35.3594V46.9316H3.66211V35.3594H86.0596ZM169.629 130.501V142H113.159V130.501H169.629ZM116.016 35.3594V142H101.88V35.3594H116.016ZM162.158 81.209V92.708H113.159V81.209H162.158ZM168.896 35.3594V46.9316H113.159V35.3594H168.896ZM269.165 35.3594V142H254.956L201.27 59.749V142H187.134V35.3594H201.27L255.176 117.83V35.3594H269.165ZM363.867 81.209V92.708H306.152V81.209H363.867ZM308.35 35.3594V142H294.214V35.3594H308.35ZM376.172 35.3594V142H362.109V35.3594H376.172ZM442.09 44.8076L406.787 142H392.358L433.008 35.3594H442.31L442.09 44.8076ZM471.68 142L436.304 44.8076L436.084 35.3594H445.386L486.182 142H471.68ZM469.849 102.522V114.095H409.937V102.522H469.849Z" fill="white"/>
<path d="M51.7822 35.3594H52.2822V34.8594H51.7822V35.3594ZM51.7822 142V142.5H52.2822V142H51.7822ZM37.8662 142H37.3662V142.5H37.8662V142ZM37.8662 35.3594V34.8594H37.3662V35.3594H37.8662ZM86.0596 35.3594H86.5596V34.8594H86.0596V35.3594ZM86.0596 46.9316V47.4316H86.5596V46.9316H86.0596ZM3.66211 46.9316H3.16211V47.4316H3.66211V46.9316ZM3.66211 35.3594V34.8594H3.16211V35.3594H3.66211ZM51.2822 35.3594V142H52.2822V35.3594H51.2822ZM51.7822 141.5H37.8662V142.5H51.7822V141.5ZM38.3662 142V35.3594H37.3662V142H38.3662ZM37.8662 35.8594H51.7822V34.8594H37.8662V35.8594ZM85.5596 35.3594V46.9316H86.5596V35.3594H85.5596ZM86.0596 46.4316H3.66211V47.4316H86.0596V46.4316ZM4.16211 46.9316V35.3594H3.16211V46.9316H4.16211ZM3.66211 35.8594H86.0596V34.8594H3.66211V35.8594ZM169.629 130.501H170.129V130.001H169.629V130.501ZM169.629 142V142.5H170.129V142H169.629ZM113.159 142H112.659V142.5H113.159V142ZM113.159 130.501V130.001H112.659V130.501H113.159ZM116.016 35.3594H116.516V34.8594H116.016V35.3594ZM116.016 142V142.5H116.516V142H116.016ZM101.88 142H101.38V142.5H101.88V142ZM101.88 35.3594V34.8594H101.38V35.3594H101.88ZM162.158 81.209H162.658V80.709H162.158V81.209ZM162.158 92.708V93.208H162.658V92.708H162.158ZM113.159 92.708H112.659V93.208H113.159V92.708ZM113.159 81.209V80.709H112.659V81.209H113.159ZM168.896 35.3594H169.396V34.8594H168.896V35.3594ZM168.896 46.9316V47.4316H169.396V46.9316H168.896ZM113.159 46.9316H112.659V47.4316H113.159V46.9316ZM113.159 35.3594V34.8594H112.659V35.3594H113.159ZM169.129 130.501V142H170.129V130.501H169.129ZM169.629 141.5H113.159V142.5H169.629V141.5ZM113.659 142V130.501H112.659V142H113.659ZM113.159 131.001H169.629V130.001H113.159V131.001ZM115.516 35.3594V142H116.516V35.3594H115.516ZM116.016 141.5H101.88V142.5H116.016V141.5ZM102.38 142V35.3594H101.38V142H102.38ZM101.88 35.8594H116.016V34.8594H101.88V35.8594ZM161.658 81.209V92.708H162.658V81.209H161.658ZM162.158 92.208H113.159V93.208H162.158V92.208ZM113.659 92.708V81.209H112.659V92.708H113.659ZM113.159 81.709H162.158V80.709H113.159V81.709ZM168.396 35.3594V46.9316H169.396V35.3594H168.396ZM168.896 46.4316H113.159V47.4316H168.896V46.4316ZM113.659 46.9316V35.3594H112.659V46.9316H113.659ZM113.159 35.8594H168.896V34.8594H113.159V35.8594ZM269.165 35.3594H269.665V34.8594H269.165V35.3594ZM269.165 142V142.5H269.665V142H269.165ZM254.956 142L254.537 142.273L254.685 142.5H254.956V142ZM201.27 59.749L201.688 59.4757L200.77 58.0682V59.749H201.27ZM201.27 142V142.5H201.77V142H201.27ZM187.134 142H186.634V142.5H187.134V142ZM187.134 35.3594V34.8594H186.634V35.3594H187.134ZM201.27 35.3594L201.688 35.0858L201.54 34.8594H201.27V35.3594ZM255.176 117.83L254.757 118.104L255.676 119.509V117.83H255.176ZM255.176 35.3594V34.8594H254.676V35.3594H255.176ZM268.665 35.3594V142H269.665V35.3594H268.665ZM269.165 141.5H254.956V142.5H269.165V141.5ZM255.375 141.727L201.688 59.4757L200.851 60.0223L254.537 142.273L255.375 141.727ZM200.77 59.749V142H201.77V59.749H200.77ZM201.27 141.5H187.134V142.5H201.27V141.5ZM187.634 142V35.3594H186.634V142H187.634ZM187.134 35.8594H201.27V34.8594H187.134V35.8594ZM200.851 35.6329L254.757 118.104L255.594 117.557L201.688 35.0858L200.851 35.6329ZM255.676 117.83V35.3594H254.676V117.83H255.676ZM255.176 35.8594H269.165V34.8594H255.176V35.8594ZM363.867 81.209H364.367V80.709H363.867V81.209ZM363.867 92.708V93.208H364.367V92.708H363.867ZM306.152 92.708H305.652V93.208H306.152V92.708ZM306.152 81.209V80.709H305.652V81.209H306.152ZM308.35 35.3594H308.85V34.8594H308.35V35.3594ZM308.35 142V142.5H308.85V142H308.35ZM294.214 142H293.714V142.5H294.214V142ZM294.214 35.3594V34.8594H293.714V35.3594H294.214ZM376.172 35.3594H376.672V34.8594H376.172V35.3594ZM376.172 142V142.5H376.672V142H376.172ZM362.109 142H361.609V142.5H362.109V142ZM362.109 35.3594V34.8594H361.609V35.3594H362.109ZM363.367 81.209V92.708H364.367V81.209H363.367ZM363.867 92.208H306.152V93.208H363.867V92.208ZM306.652 92.708V81.209H305.652V92.708H306.652ZM306.152 81.709H363.867V80.709H306.152V81.709ZM307.85 35.3594V142H308.85V35.3594H307.85ZM308.35 141.5H294.214V142.5H308.35V141.5ZM294.714 142V35.3594H293.714V142H294.714ZM294.214 35.8594H308.35V34.8594H294.214V35.8594ZM375.672 35.3594V142H376.672V35.3594H375.672ZM376.172 141.5H362.109V142.5H376.172V141.5ZM362.609 142V35.3594H361.609V142H362.609ZM362.109 35.8594H376.172V34.8594H362.109V35.8594ZM442.09 44.8076L442.56 44.9783L442.588 44.9012L442.59 44.8192L442.09 44.8076ZM406.787 142V142.5H407.137L407.257 142.171L406.787 142ZM392.358 142L391.891 141.822L391.633 142.5H392.358V142ZM433.008 35.3594V34.8594H432.663L432.541 35.1813L433.008 35.3594ZM442.31 35.3594L442.809 35.371L442.821 34.8594H442.31V35.3594ZM471.68 142L471.21 142.171L471.33 142.5H471.68V142ZM436.304 44.8076L435.804 44.8192L435.806 44.9014L435.834 44.9786L436.304 44.8076ZM436.084 35.3594V34.8594H435.572L435.584 35.371L436.084 35.3594ZM445.386 35.3594L445.853 35.1807L445.73 34.8594H445.386V35.3594ZM486.182 142V142.5H486.908L486.649 141.821L486.182 142ZM469.849 102.522H470.349V102.022H469.849V102.522ZM469.849 114.095V114.595H470.349V114.095H469.849ZM409.937 114.095H409.437V114.595H409.937V114.095ZM409.937 102.522V102.022H409.437V102.522H409.937ZM441.62 44.6369L406.317 141.829L407.257 142.171L442.56 44.9783L441.62 44.6369ZM406.787 141.5H392.358V142.5H406.787V141.5ZM392.826 142.178L433.475 35.5375L432.541 35.1813L391.891 141.822L392.826 142.178ZM433.008 35.8594H442.31V34.8594H433.008V35.8594ZM441.81 35.3478L441.59 44.796L442.59 44.8192L442.809 35.371L441.81 35.3478ZM472.15 141.829L436.774 44.6366L435.834 44.9786L471.21 142.171L472.15 141.829ZM436.804 44.796L436.584 35.3478L435.584 35.371L435.804 44.8192L436.804 44.796ZM436.084 35.8594H445.386V34.8594H436.084V35.8594ZM444.919 35.538L485.715 142.179L486.649 141.821L445.853 35.1807L444.919 35.538ZM486.182 141.5H471.68V142.5H486.182V141.5ZM469.349 102.522V114.095H470.349V102.522H469.349ZM469.849 113.595H409.937V114.595H469.849V113.595ZM410.437 114.095V102.522H409.437V114.095H410.437ZM409.937 103.022H469.849V102.022H409.937V103.022Z" fill="white" fill-opacity="0.5"/>
<path d="M1238.13 36.9091L1237.07 115.318H1224.71L1223.64 36.9091H1238.13ZM1230.89 146.852C1228.26 146.852 1226.01 145.911 1224.12 144.029C1222.24 142.147 1221.3 139.892 1221.3 137.264C1221.3 134.636 1222.24 132.381 1224.12 130.499C1226.01 128.617 1228.26 127.676 1230.89 127.676C1233.52 127.676 1235.77 128.617 1237.65 130.499C1239.54 132.381 1240.48 134.636 1240.48 137.264C1240.48 139.004 1240.03 140.602 1239.15 142.058C1238.29 143.514 1237.14 144.686 1235.68 145.574C1234.26 146.426 1232.66 146.852 1230.89 146.852Z" fill="white"/>
<path d="M1238.13 36.9091L1238.63 36.9159L1238.64 36.4091H1238.13V36.9091ZM1237.07 115.318V115.818H1237.56L1237.57 115.325L1237.07 115.318ZM1224.71 115.318L1224.21 115.325L1224.22 115.818H1224.71V115.318ZM1223.64 36.9091V36.4091H1223.14L1223.14 36.9159L1223.64 36.9091ZM1224.12 144.029L1224.48 143.676L1224.12 144.029ZM1237.65 130.499L1238.01 130.146L1237.65 130.499ZM1239.15 142.058L1238.72 141.798L1238.71 141.806L1239.15 142.058ZM1235.68 145.574L1235.94 146.003L1235.94 146.001L1235.68 145.574ZM1237.63 36.9023L1236.57 115.311L1237.57 115.325L1238.63 36.9159L1237.63 36.9023ZM1237.07 114.818H1224.71V115.818H1237.07V114.818ZM1225.21 115.311L1224.14 36.9023L1223.14 36.9159L1224.21 115.325L1225.21 115.311ZM1223.64 37.4091H1238.13V36.4091H1223.64V37.4091ZM1230.89 146.352C1228.4 146.352 1226.27 145.465 1224.48 143.676L1223.77 144.383C1225.74 146.357 1228.13 147.352 1230.89 147.352V146.352ZM1224.48 143.676C1222.69 141.886 1221.8 139.758 1221.8 137.264H1220.8C1220.8 140.027 1221.8 142.408 1223.77 144.383L1224.48 143.676ZM1221.8 137.264C1221.8 134.771 1222.69 132.643 1224.48 130.853L1223.77 130.146C1221.8 132.12 1220.8 134.502 1220.8 137.264H1221.8ZM1224.48 130.853C1226.27 129.063 1228.4 128.176 1230.89 128.176V127.176C1228.13 127.176 1225.74 128.171 1223.77 130.146L1224.48 130.853ZM1230.89 128.176C1233.38 128.176 1235.51 129.063 1237.3 130.853L1238.01 130.146C1236.03 128.171 1233.65 127.176 1230.89 127.176V128.176ZM1237.3 130.853C1239.09 132.643 1239.98 134.771 1239.98 137.264H1240.98C1240.98 134.502 1239.98 132.12 1238.01 130.146L1237.3 130.853ZM1239.98 137.264C1239.98 138.914 1239.56 140.422 1238.72 141.798L1239.57 142.319C1240.51 140.783 1240.98 139.094 1240.98 137.264H1239.98ZM1238.71 141.806C1237.9 143.189 1236.81 144.302 1235.42 145.147L1235.94 146.001C1237.47 145.07 1238.68 143.839 1239.58 142.311L1238.71 141.806ZM1235.43 145.145C1234.09 145.947 1232.58 146.352 1230.89 146.352V147.352C1232.75 147.352 1234.44 146.905 1235.94 146.003L1235.43 145.145Z" fill="white" fill-opacity="0.5"/>
<path d="M941.081 74.68C941.091 74.758 941.081 147.388 941.081 147.388C941.081 148.363 940.476 149.354 939.594 149.354H930.526C925.226 149.364 920.819 144.442 920.81 138.591V74.939C920.41 61.168 911.523 53.891 900.625 53.912C889.727 53.933 880.865 61.519 880.498 75.292V147.476C880.539 147.923 880.405 148.369 880.123 148.719C879.84 149.068 879.433 149.294 878.987 149.348H869.918C864.618 149.358 860.211 144.203 860.202 138.357V75.032C859.798 61.261 850.918 53.984 840.018 54.005C829.118 54.026 820.257 61.319 819.89 75.095V147.569C819.91 147.785 819.886 148.004 819.82 148.211C819.755 148.418 819.648 148.61 819.508 148.776C819.367 148.941 819.195 149.077 819.001 149.176C818.807 149.274 818.596 149.332 818.379 149.348H809.311C804.011 149.358 799.628 144.623 799.619 138.772C799.619 138.772 799.619 75.001 799.619 74.938C800.143 46.987 818.008 32.153 839.994 32.119C852.059 32.098 862.894 36.543 870.315 45.174C877.718 36.519 888.536 32.05 900.602 32.029C922.564 32.003 940.462 46.764 941.081 74.68Z" fill="white"/>
<path d="M1149.99 147.956C1150.08 148.085 1150.13 148.235 1150.13 148.389C1150.14 148.543 1150.11 148.696 1150.04 148.834C1149.97 148.971 1149.87 149.088 1149.74 149.172C1149.61 149.256 1149.46 149.304 1149.3 149.312L1133.1 149.359C1129.3 149.369 1125.6 148.866 1122.32 143.843L1105.75 117.189C1104.45 115.101 1102.57 112.629 1099.9 112.629C1097.22 112.629 1095.34 115.101 1094.05 117.189L1077.47 143.843C1074.19 148.865 1070.49 149.369 1066.69 149.359H1050.49C1050.33 149.345 1050.18 149.291 1050.05 149.203C1049.92 149.114 1049.82 148.994 1049.75 148.853C1049.68 148.713 1049.65 148.556 1049.66 148.4C1049.67 148.243 1049.71 148.091 1049.8 147.959L1081.76 96.536C1082.65 95.0278 1083.12 93.3075 1083.12 91.555C1083.12 89.8026 1082.65 88.0823 1081.76 86.574L1049.8 35.149C1049.72 35.0187 1049.67 34.8686 1049.66 34.7136C1049.65 34.5587 1049.69 34.4042 1049.76 34.2657C1049.83 34.1271 1049.93 34.0092 1050.06 33.9237C1050.19 33.8381 1050.34 33.7879 1050.49 33.778H1066.69C1070.49 33.768 1074.19 34.24 1077.48 39.263L1094.05 65.917C1095.35 68.005 1097.23 70.477 1099.9 70.477C1102.57 70.477 1104.46 68.005 1105.75 65.917L1122.32 39.263C1125.61 34.24 1129.31 33.77 1133.11 33.778H1149.31C1149.46 33.7879 1149.61 33.8381 1149.74 33.9237C1149.87 34.0092 1149.98 34.1271 1150.05 34.2657C1150.11 34.4042 1150.15 34.5587 1150.14 34.7136C1150.13 34.8686 1150.08 35.0187 1150 35.149L1118.03 86.57C1117.14 88.0783 1116.67 89.7986 1116.67 91.551C1116.67 93.3035 1117.14 95.0238 1118.03 96.532L1149.99 147.956Z" fill="white"/>
<path d="M1043.44 33.929H1037.05C1035.29 33.9599 1033.57 34.4709 1032.08 35.4071C1030.58 36.3432 1029.37 37.669 1028.57 39.242L1026.21 43.721C1017.04 35.315 1005.14 32.044 995.308 32.044C965.574 32.044 945.784 54.899 945.784 91.092C945.784 127.575 965.907 150.14 995.07 150.14C1006.23 150.14 1017.3 146.123 1024.38 139.887C1024.49 142.409 1025.56 144.794 1027.38 146.546C1029.2 148.298 1031.62 149.283 1034.14 149.296H1043.4C1044.3 149.296 1045.03 148.871 1045.03 147.896L1045.07 35.709C1045.08 35.4846 1045.05 35.2602 1044.97 35.049C1044.89 34.8377 1044.78 34.6437 1044.62 34.4782C1044.47 34.3127 1044.29 34.1789 1044.09 34.0846C1043.88 33.9904 1043.66 33.9375 1043.44 33.929ZM994.875 128.156C977.968 128.156 965.575 114.466 965.575 91.087C965.575 67.708 977.964 54.018 994.875 54.018C1011.79 54.018 1024.17 67.708 1024.17 91.087C1024.17 114.466 1011.78 128.156 994.875 128.156Z" fill="white"/>
<path d="M576.664 76.766H557.964V33.766H528.274V149.358H557.965V104.51H576.665V149.357H605.469V33.772H576.664V76.766Z" fill="white"/>
<path d="M737.482 32C707.805 31.974 692.642 55.745 688.897 65.337C688.93 50.937 675.888 33.937 660.626 33.918H611.459V149.307L657.299 149.317C675.778 149.317 688.93 131.892 688.954 116.955C693.171 126.355 707.805 149.898 737.482 149.882C767.193 149.872 791.371 123.01 791.361 90.682C791.357 57.669 767.193 32.026 737.482 32ZM653.459 122.435H638.878V102.935H653.459C657.7 102.935 661.04 107.492 661.04 112.687C661.04 117.882 657.7 122.435 653.459 122.435ZM653.51 79.112H638.93V59.612H653.51C657.751 59.612 661.091 64.169 661.091 69.359C661.091 74.549 657.752 79.112 653.51 79.112ZM672.92 90.705C676.26 90.244 681.826 86.091 683.789 83.436C683.098 86.723 683.046 96.242 683.851 99.536C681.61 95.781 676.31 91.167 672.92 90.705ZM737.502 120.076C722.592 120.076 710.508 106.928 710.508 90.705C710.508 74.482 722.592 61.334 737.502 61.334C752.412 61.334 764.496 74.482 764.496 90.705C764.496 106.928 752.41 120.076 737.501 120.076H737.502Z" fill="white"/>
<path d="M737.501 69.478C733.304 69.4776 729.2 70.7219 725.71 73.0536C722.22 75.3852 719.5 78.6995 717.894 82.5772C716.287 86.4549 715.867 90.7219 716.685 94.8385C717.504 98.9552 719.525 102.737 722.493 105.705C725.461 108.672 729.243 110.694 733.359 111.512C737.476 112.331 741.743 111.911 745.621 110.304C749.498 108.698 752.813 105.978 755.144 102.488C757.476 98.9975 758.72 94.8943 758.72 90.697C758.72 87.9105 758.171 85.1512 757.105 82.5767C756.039 80.0022 754.476 77.663 752.505 75.6926C750.535 73.7222 748.196 72.1593 745.621 71.093C743.047 70.0267 740.287 69.4779 737.501 69.478Z" fill="white"/>
<path d="M1152.71 34.755H1154.17V38.967H1155.36V34.755H1156.87V33.773H1152.71L1152.71 34.755Z" fill="white"/>
<path d="M1161.59 33.773L1160.19 36.084L1158.78 33.773H1157.59V38.967H1158.78V35.951L1160.12 38.151H1160.25L1161.59 35.951V38.967H1162.78V33.773H1161.59Z" fill="white"/>
</svg>
