<svg width="160" height="56" viewBox="0 0 160 56" fill="none" xmlns="http://www.w3.org/2000/svg">
<path fill-rule="evenodd" clip-rule="evenodd" d="M159.349 24.7215C158.289 15.348 153.194 7.38489 145.417 3.17997C141.243 0.9242 136.543 0.0394212 131.787 0H80.0503C83.6905 0.687681 88.4428 0.87602 91.8702 1.82651C94.7391 2.56824 97.3781 4.02293 99.5459 6.05772C102.891 9.2596 104.759 13.8456 104.759 19.3383C104.759 24.9492 102.834 29.5965 99.3896 32.8335C95.9448 36.0704 90.9015 37.9364 84.7287 37.9364H70.6283V55.1021L65.9673 55.9781H130.957C137.399 55.8993 141.973 55.0364 147.029 52.1893C151.527 49.6585 155.225 45.8995 157.698 41.3441L145.179 37.7436C144.074 39.5548 142.584 41.0957 140.817 42.2548C139.049 43.4139 137.047 44.1621 134.958 44.4452C133.322 44.6703 131.664 44.6452 130.036 44.3708C124.584 43.3283 119.55 38.2955 119.107 32.6364H159.536C159.753 29.9937 159.7 27.3357 159.38 24.704L159.349 24.7215ZM119.693 21.8481C121.483 14.818 126.209 11.4803 131.648 11.3358C132.082 11.3358 132.555 11.3358 133.002 11.3358C138.433 11.5066 143.107 14.8399 144.887 21.8481H119.693Z" fill="url(#paint0_linear_7370_134866)"/>
<path d="M27.7361 36.942L16.1941 56H0L17.4366 27.9189L0.16942 0H16.3593L27.7361 18.8915L39.191 0H55.3851L38.1137 27.9189L55.5503 56H39.3604L27.7361 36.942Z" fill="white"/>
<path d="M85.318 0C97.8546 0 105.734 7.77473 105.734 19.3076C105.734 31.0945 97.5983 38.8649 84.7271 38.8649H71.6085V56H57.9077V0H85.318ZM83.7369 27.1963C89.0538 27.1963 92.29 24.1301 92.29 19.3777C92.29 14.8881 89.0538 11.7256 83.7369 11.7256H71.6085V27.1963H83.7369Z" fill="white"/>
<defs>
<linearGradient id="paint0_linear_7370_134866" x1="94.4091" y1="28" x2="159.665" y2="28" gradientUnits="userSpaceOnUse">
<stop offset="0.269481" stop-color="#7DDD00"/>
<stop offset="0.817428" stop-color="#AEDA00"/>
</linearGradient>
</defs>
</svg>
