<svg width="104" height="59" viewBox="0 0 104 59" fill="none" xmlns="http://www.w3.org/2000/svg">
<path d="M103.94 58.48C103.94 58.39 103.94 58.29 103.94 58.2V0.0500031H103.76H0V0H104C104 19.42 104 38.8433 104 58.27C104 58.33 104 58.42 103.94 58.48Z" fill="white"/>
<path d="M104 0.0500488H103.82H0V58.5H103.94C103.94 58.41 103.94 58.31 103.94 58.22V0.0500488H104ZM35 41.48V41.82H29.55L29.4 39.95C29.4 39.95 29.33 39.95 29.32 39.95C28.3016 40.6597 27.1825 41.2125 26 41.59C24.5182 42.1005 22.9668 42.3805 21.4 42.42C20.0397 42.4903 18.6803 42.2637 17.4163 41.756C16.1523 41.2483 15.0139 40.4717 14.08 39.48C13.0933 38.5104 12.4209 37.2666 12.15 35.91C11.8571 34.6263 11.9483 33.2847 12.4125 32.0524C12.8766 30.8201 13.693 29.7516 14.76 28.98C15.7409 28.273 16.8372 27.7418 18 27.41C19.2733 27.005 20.5827 26.7237 21.91 26.57C24.2626 26.2929 26.6316 26.1793 29 26.23H29.31C29.31 25.96 29.31 25.72 29.31 25.48C29.2605 24.4898 28.9118 23.5379 28.31 22.75C27.6562 21.8908 26.7031 21.3089 25.64 21.12C24.7501 20.9486 23.8385 20.9216 22.94 21.04C22.2901 21.1016 21.6531 21.2601 21.05 21.51C20.5142 21.7265 20.0334 22.0596 19.6425 22.4851C19.2516 22.9106 18.9603 23.4179 18.79 23.97L18.7 24.24H13C13 24 13 23.77 13.06 23.55C13.3471 21.493 14.4229 19.6282 16.06 18.35C17.197 17.4604 18.5142 16.8291 19.92 16.5C21.4322 16.1386 22.986 15.9805 24.54 16.03C25.8928 16.0401 27.2382 16.2318 28.54 16.6C30.0147 17.014 31.3445 17.8314 32.38 18.96C33.2178 19.9173 33.8417 21.0424 34.21 22.26C34.5241 23.2592 34.7352 24.2879 34.84 25.33C34.9498 26.4064 34.9999 27.4881 34.99 28.57C35 32.89 35 37.23 35 41.48ZM65.8 41.82H59.92V23.57H59.86L54.79 41.83H49.34C47.66 35.7634 45.9733 29.6867 44.28 23.6V41.79C44.08 41.85 38.74 41.87 38.37 41.79V16.67H47.37C48.95 22.67 50.55 28.67 52.09 34.67L56.77 16.67H65.77L65.8 41.82ZM92.48 32.42C91.9965 34.8459 90.8308 37.0835 89.12 38.8701C87.3813 40.7043 85.0793 41.9046 82.58 42.28C80.1538 42.6864 77.6612 42.3373 75.44 41.28C73.066 40.1265 71.1572 38.1966 70.03 35.81C69.3132 34.3608 68.8563 32.7971 68.68 31.19C68.3891 28.8358 68.6178 26.4464 69.35 24.19C70.0002 22.1572 71.1807 20.3346 72.77 18.91C74.3142 17.5337 76.2061 16.6068 78.24 16.23C79.389 16.0055 80.564 15.9449 81.73 16.05C84.6484 16.2631 87.3715 17.5959 89.33 19.77C90.9444 21.5332 92.0443 23.7053 92.51 26.05V26.23H86.84C86.84 26.14 86.77 26.05 86.73 25.96C86.2842 24.6654 85.4839 23.522 84.42 22.66C83.3067 21.7861 81.9202 21.3338 80.5057 21.3832C79.0912 21.4326 77.7396 21.9805 76.69 22.93C75.6094 23.9085 74.8437 25.1858 74.49 26.6C73.8425 28.839 74.0272 31.2367 75.01 33.35C75.5124 34.4415 76.2915 35.3827 77.27 36.08C78.4178 36.8855 79.8114 37.2635 81.2089 37.1484C82.6064 37.0333 83.9194 36.4324 84.92 35.45C85.7338 34.6435 86.3529 33.662 86.73 32.58C86.73 32.49 86.8 32.4 86.83 32.32V32.2701H92.49C92.4967 32.3198 92.5001 32.3699 92.5 32.42H92.48Z" fill="white"/>
<path d="M29.3292 30.8201C29.3336 30.89 29.3336 30.9601 29.3292 31.0301C29.3292 31.4601 29.3292 31.8901 29.3292 32.3201C29.3237 33.0414 29.1457 33.751 28.8099 34.3894C28.4741 35.0279 27.9905 35.5768 27.3992 35.9901C26.5188 36.6016 25.5211 37.0238 24.4692 37.2301C23.1196 37.5351 21.7189 37.5351 20.3692 37.2301C19.9991 37.1406 19.6402 37.0098 19.2992 36.8401C18.9912 36.7 18.7154 36.498 18.4891 36.2465C18.2627 35.995 18.0907 35.6996 17.9837 35.3786C17.8767 35.0576 17.837 34.718 17.8672 34.381C17.8975 34.0441 17.9969 33.7169 18.1592 33.4201C18.3804 32.944 18.7259 32.5364 19.1592 32.2401C19.8289 31.8103 20.5709 31.5054 21.3492 31.3401C22.1564 31.1666 22.9753 31.053 23.7992 31.0001C25.5492 30.8401 27.2992 30.8201 29.0492 30.8301C29.1427 30.8342 29.2363 30.8309 29.3292 30.8201Z" fill="white"/>
</svg>
