<svg width="320" height="180" viewBox="0 0 320 180" fill="none" xmlns="http://www.w3.org/2000/svg">
<g clip-path="url(#clip0_101_48)">
<rect width="320" height="180" fill="white"/>
<g clip-path="url(#clip1_101_48)">
<rect width="320" height="180" fill="#3C1450"/>
<g clip-path="url(#clip2_101_48)">
<path d="M142.708 81.7793C140.939 81.7793 139.853 82.889 139.853 84.696V97.7062C139.853 101.788 137.855 103.833 133.971 103.833C130.087 103.833 128.031 101.792 128.031 97.7062V84.696C128.031 82.889 126.944 81.7793 125.175 81.7793C123.406 81.7793 122.319 82.889 122.319 84.696V97.7062C122.319 104.883 126.773 109.373 133.913 109.373C141.052 109.373 145.564 104.883 145.564 97.7062V84.696C145.564 82.889 144.478 81.7793 142.708 81.7793Z" fill="white"/>
<path d="M106.838 75.1851C101.697 75.1851 98.8997 78.0422 98.2711 83.7012L96.3313 101.142C96.1606 102.834 95.2448 103.71 93.588 103.71C91.9312 103.71 91.0196 102.834 90.8448 101.142L88.9049 83.7012C88.2763 78.0422 85.479 75.1851 80.338 75.1851C75.197 75.1851 72 78.4546 72 83.7012V106.393C72 108.2 73.0865 109.369 74.8556 109.369C76.6248 109.369 77.7113 108.204 77.7113 106.393V83.7012C77.7113 81.8942 78.7395 80.7845 80.4545 80.7845C82.1696 80.7845 82.9688 81.7752 83.1978 83.7012L85.1376 101.142C85.7662 106.626 88.6218 109.369 93.5922 109.369C98.5625 109.369 101.418 106.626 102.047 101.142L103.987 83.7012C104.215 81.7752 105.073 80.7845 106.73 80.7845C108.387 80.7845 109.473 81.8942 109.473 83.7012V106.393C109.473 108.2 110.56 109.369 112.329 109.369C114.098 109.369 115.184 108.204 115.184 106.393V83.7012C115.184 78.4504 111.987 75.1851 106.846 75.1851H106.838Z" fill="white"/>
<path d="M155.559 71.6265C153.79 71.6265 152.703 72.7914 152.703 74.6027V106.397C152.703 108.204 153.79 109.373 155.559 109.373C157.328 109.373 158.414 108.208 158.414 106.397V74.6027C158.414 72.7957 157.328 71.6265 155.559 71.6265Z" fill="white"/>
<path d="M182.971 103.302C181.942 103.302 180.856 103.825 179.428 103.825C176.115 103.825 174.404 101.958 174.404 98.2847V87.3196H182.459C184.228 87.3196 185.314 86.3289 185.314 84.6963C185.314 83.0636 184.228 82.073 182.459 82.073H174.404V78.1656C174.404 76.3587 173.317 75.1895 171.606 75.1895C169.895 75.1895 168.809 76.3544 168.809 78.1656V82.073H165.554C163.784 82.073 162.698 83.0636 162.698 84.6963C162.698 86.3289 163.784 87.3196 165.554 87.3196H168.809V98.2847C168.809 105.109 172.863 109.369 179.432 109.369C182.059 109.369 185.601 108.612 185.601 106.104C185.601 104.586 184.632 103.302 182.975 103.302H182.971Z" fill="white"/>
<path d="M194.339 81.7796C192.57 81.7796 191.483 82.9446 191.483 84.7558V106.397C191.483 108.204 192.57 109.373 194.339 109.373C196.108 109.373 197.195 108.208 197.195 106.397V84.7516C197.195 82.9446 196.108 81.7754 194.339 81.7754V81.7796Z" fill="white"/>
<path d="M194.339 78.6292C196.395 78.6292 197.823 77.1708 197.823 75.13C197.823 73.0892 196.395 71.6309 194.339 71.6309C192.283 71.6309 190.855 73.0892 190.855 75.13C190.855 77.1708 192.283 78.6292 194.339 78.6292Z" fill="white"/>
<path d="M231.612 95.258H244.267C246.836 95.258 248.984 93.1704 249 90.5471C249.021 87.5709 247.152 85.7427 244.251 85.7427H231.629V85.7597C231.629 88.3787 229.552 90.5003 226.988 90.5003H226.971V90.5173C226.971 93.1364 229.048 95.258 231.612 95.258Z" fill="#FF8200"/>
<path d="M231.629 85.7595V72.8344C231.629 70.2111 229.585 68.0172 227.017 68.0002C224.103 67.9789 222.313 69.8879 222.313 72.8514V85.7425H222.329C224.894 85.7425 226.971 87.8641 226.971 90.4832V90.5002H226.988C229.552 90.5002 231.629 88.3786 231.629 85.7595Z" fill="#EF426F"/>
<path d="M222.313 95.2406V108.166C222.313 110.789 224.357 112.983 226.925 113C229.839 113.021 231.629 111.112 231.629 108.149V95.2577H231.612C229.048 95.2577 226.971 93.1361 226.971 90.517V90.5H226.954C224.39 90.5 222.313 92.6216 222.313 95.2406Z" fill="#643CB4"/>
<path d="M222.329 85.7427H209.675C207.106 85.7427 204.958 87.8303 204.942 90.4536C204.921 93.4298 206.79 95.258 209.691 95.258H222.313V95.241C222.313 92.6219 224.39 90.5003 226.954 90.5003H226.971V90.4833C226.971 87.8643 224.894 85.7427 222.329 85.7427Z" fill="#14C850"/>
</g>
</g>
</g>
<defs>
<clipPath id="clip0_101_48">
<rect width="320" height="180" fill="white"/>
</clipPath>
<clipPath id="clip1_101_48">
<rect width="320" height="180" fill="white"/>
</clipPath>
<clipPath id="clip2_101_48">
<rect width="177" height="45" fill="white" transform="translate(72 68)"/>
</clipPath>
</defs>
</svg>
