<svg width="104" height="64" viewBox="0 0 104 64" fill="none" xmlns="http://www.w3.org/2000/svg">
<path d="M78.4856 43.8422L78.3066 43.6475L79.2804 45.8214L79.0646 44.2896L78.4856 43.8422Z" fill="#FAFAFA"/>
<path d="M37.9299 44.2843C35.7559 44.2843 35.5875 44.0158 34.6242 41.8629L34.5558 41.7156C31.9608 35.9517 29.2868 30.1037 26.7023 24.4504L25.4021 21.608C25.2389 21.2553 25.0389 20.9131 24.8389 20.5815C24.7441 20.4184 24.6494 20.2604 24.5546 20.092C23.7335 17.8812 22.7228 15.7441 21.7385 13.6755C21.4964 13.1701 21.2543 12.6596 21.0174 12.149C20.5121 11.0646 20.2594 10.2961 20.5858 9.80133C20.9068 9.30654 21.7227 9.22232 22.9281 9.24337C23.1071 9.24337 23.2913 9.2539 23.4756 9.26443C23.9651 9.28548 24.4704 9.3118 24.9389 9.23284C26.6338 8.9486 27.8287 9.6171 28.5919 11.2962C29.1552 12.6069 29.7237 13.9176 30.2869 15.223C31.5344 18.1181 32.824 21.1132 34.1136 24.0451C35.2769 26.698 36.456 29.3404 37.6298 31.9881C38.8721 34.7779 40.1091 37.5624 41.3355 40.3575C41.7461 41.2997 41.704 42.2735 41.2145 43.0368C40.7249 43.8 39.8511 44.2527 38.8247 44.2685C38.4931 44.2685 38.1931 44.279 37.9246 44.279L37.9299 44.2843ZM22.6176 9.64342C21.6069 9.64342 21.0911 9.75922 20.9226 10.0224C20.7331 10.3119 20.8753 10.8962 21.3806 11.9858C21.6175 12.4964 21.8596 13.0017 22.1017 13.507C23.086 15.5809 24.102 17.7286 24.9178 19.9236C24.9968 20.0552 25.0915 20.2183 25.181 20.3762C25.381 20.7184 25.5916 21.0711 25.76 21.4395L27.0602 24.282C29.6447 29.9352 32.3187 35.7833 34.9137 41.5471L34.9822 41.6945C35.6489 43.1754 36.928 43.9018 38.8194 43.8737C39.7143 43.8579 40.467 43.4789 40.8828 42.8262C41.2987 42.1788 41.3303 41.3366 40.9723 40.5207C39.7459 37.7256 38.5036 34.9411 37.2666 32.1513C36.0876 29.5036 34.9137 26.8612 33.7504 24.2083C32.4608 21.2711 31.1712 18.276 29.9237 15.3809C29.3605 14.0755 28.7972 12.7648 28.234 11.4594C27.5445 9.94872 26.5233 9.3697 25.0073 9.62236C24.4967 9.70658 23.9704 9.68553 23.4598 9.65921C23.2808 9.64868 23.1018 9.64342 22.9229 9.63815C22.8176 9.63815 22.7123 9.63815 22.6176 9.63815V9.64342Z" fill="#FAFAFA"/>
<path d="M77.987 54.8908C76.8606 54.8908 75.9552 54.4065 75.2183 53.4274L75.1867 53.359C74.6392 51.3325 73.7286 49.4059 72.8496 47.5478C72.4864 46.774 72.1074 45.9739 71.76 45.1791C69.7703 40.6102 67.6805 35.9886 65.6645 31.5196C64.6855 29.3562 63.7117 27.1928 62.7431 25.0241C62.401 24.2609 62.4799 23.3397 62.9589 22.566C63.4327 21.7922 64.2117 21.3079 65.0434 21.2711C68.4596 21.1079 68.6017 21.1974 70.0229 24.3662C71.5442 27.7508 73.0759 31.1354 74.6077 34.5147C75.9552 37.4835 77.3027 40.4522 78.6397 43.4263C78.8029 43.7947 78.8871 43.9527 79.1503 44L79.0924 43.621L79.124 43.8158C79.0871 44.5527 79.5872 45.5686 79.9188 46.2319C80.0293 46.4582 80.1399 46.6793 80.2346 46.9056C80.74 48.09 81.3084 49.2691 81.8611 50.4113C82.1664 51.043 82.4717 51.6746 82.7665 52.3115C83.1402 53.1169 83.1929 53.7485 82.9139 54.1907C82.6349 54.6328 82.0348 54.8644 81.1347 54.875C80.8084 54.8802 80.482 54.8644 80.1609 54.8487C79.6188 54.8276 79.0608 54.8013 78.5292 54.8644C78.3449 54.8855 78.166 54.9013 77.9923 54.9013L77.987 54.8908ZM75.5604 53.2169C76.3184 54.217 77.2501 54.617 78.4765 54.4644C79.0398 54.396 79.6188 54.417 80.1767 54.4433C80.4926 54.4591 80.8136 54.4697 81.1295 54.4697C81.8875 54.4591 82.377 54.296 82.5823 53.9749C82.7823 53.6538 82.7244 53.1485 82.4086 52.4747C82.1138 51.843 81.8085 51.2114 81.5032 50.5797C80.9505 49.4322 80.3768 48.2479 79.8714 47.053C79.7767 46.8319 79.6714 46.6161 79.5609 46.4003C79.5135 46.3003 79.4661 46.2055 79.4135 46.1055C79.1503 45.5581 78.9187 44.9896 78.9134 44.3369C78.5608 44.2106 78.4239 43.9053 78.2923 43.6105C78.2239 43.4631 78.1607 43.3157 78.0923 43.1684C76.8079 40.3154 75.5288 37.4887 74.2445 34.6674C72.7127 31.288 71.1757 27.9034 69.6545 24.5188C68.7526 22.5081 67.2191 21.5536 65.0539 21.6553C64.3591 21.6869 63.6959 22.1028 63.2906 22.766C62.88 23.4292 62.8116 24.2135 63.0958 24.8557C64.0643 27.0244 65.0434 29.1825 66.0172 31.3512C68.0332 35.8201 70.1229 40.4417 72.1126 45.0159C72.46 45.8055 72.8338 46.6056 73.197 47.3741C74.076 49.2427 74.9867 51.1693 75.5499 53.2169H75.5604Z" fill="#FAFAFA"/>
<path d="M46.43 44.3579C44.5087 44.3579 43.6454 43.321 42.9717 41.7682C41.3452 38.0256 39.545 34.0831 37.15 28.9877C36.8762 28.4087 36.8341 27.956 37.0184 27.6034C37.2658 27.1296 37.8711 26.9717 38.3027 26.898C38.8186 26.8085 39.3502 26.8296 39.8608 26.8507C40.2345 26.8664 40.6135 26.8664 40.9504 26.8664C43.9981 26.8664 44.1402 27.0559 45.4614 30.1721L45.4983 30.2563C46.2931 32.1355 47.1301 34.0357 47.9354 35.8728C48.525 37.2203 49.1145 38.5625 49.6988 39.9101C50.2041 41.0786 50.2199 42.1156 49.7462 42.9051C49.2514 43.7263 48.2776 44.2211 46.9248 44.3316C46.7511 44.3474 46.5879 44.3527 46.43 44.3527V44.3579ZM39.1712 27.2296C38.8975 27.2296 38.6343 27.2454 38.3712 27.2875C37.8237 27.3823 37.4921 27.5455 37.3658 27.7876C37.2447 28.0192 37.2921 28.3666 37.5079 28.8246C39.9082 33.9252 41.7084 37.873 43.3349 41.6155C44.0139 43.1789 44.8509 44.1158 46.8879 43.9474C48.1091 43.8474 48.9829 43.421 49.404 42.7104C49.8093 42.0366 49.783 41.126 49.3303 40.0732C48.7513 38.7257 48.1618 37.3782 47.567 36.0359C46.7616 34.1989 45.9247 32.2987 45.1298 30.4142L45.093 30.33C44.2227 28.2771 42.7015 27.256 40.5293 27.2665C40.2977 27.2665 40.0714 27.256 39.8397 27.2454C39.6081 27.2349 39.3818 27.2244 39.1607 27.2244L39.1712 27.2296Z" fill="#FAFAFA"/>
<path d="M57.2374 44.6318H57.2321C56.9795 44.616 56.7268 44.6107 56.4794 44.6055C55.9057 44.5897 55.3109 44.5739 54.7318 44.4791C54.2318 44.4002 53.9002 44.2107 53.7475 43.9212C53.5896 43.6211 53.6212 43.2316 53.837 42.7526C55.2477 39.6786 56.6373 36.5993 58.0322 33.5147C59.0481 31.2671 60.0693 29.0142 61.0905 26.7666C61.1221 26.7034 61.1484 26.6244 61.1747 26.5507C61.2905 26.2296 61.4431 25.7875 61.9537 25.7822C62.4854 25.7875 62.5854 26.2244 62.6485 26.5244C62.6696 26.6244 62.6959 26.7192 62.7275 26.7929C63.0486 27.493 63.3592 28.2088 63.6592 28.9036C64.1013 29.9248 64.5593 30.9828 65.0594 31.9935C65.5331 32.9567 65.5278 33.8674 65.0383 34.957L64.8172 35.4465C63.9645 37.3362 63.0802 39.2943 62.2696 41.2419C60.8904 44.5476 60.801 44.6107 57.2584 44.637H57.2532L57.2374 44.6318ZM61.9485 26.177C61.7432 26.177 61.6642 26.3402 61.5379 26.6823C61.5063 26.7718 61.4747 26.856 61.4431 26.9297C60.422 29.1774 59.4008 31.425 58.3849 33.6779C56.99 36.7572 55.5951 39.8417 54.1897 42.9158C54.0265 43.2737 53.9896 43.5474 54.0897 43.7317C54.1844 43.9106 54.4213 44.0264 54.7897 44.0896C55.3424 44.1791 55.9267 44.1949 56.4899 44.2107C56.7426 44.2159 56.9953 44.2265 57.2479 44.237C59.4762 44.2194 61.0238 43.1685 61.8906 41.084C62.7012 39.1311 63.5908 37.173 64.4435 35.2781L64.6646 34.7885C65.1067 33.8042 65.1173 33.0199 64.6909 32.1672C64.1856 31.146 63.7276 30.088 63.2855 29.0616C62.9854 28.372 62.6801 27.6561 62.359 26.9613C62.3117 26.856 62.2801 26.735 62.2538 26.6192C62.1748 26.277 62.1274 26.1875 61.9485 26.1875V26.177Z" fill="#FAFAFA"/>
<path d="M50.9304 39.4943H50.9251C50.4093 39.4943 50.2619 39.0627 50.1514 38.7469C50.1251 38.6732 50.0987 38.5995 50.0724 38.5311C49.2407 36.673 48.4249 34.8622 47.6406 33.0567C47.53 32.7988 47.4774 32.5251 47.4511 32.3725C47.4458 32.3409 47.4405 32.3146 47.4353 32.2988V32.2514C47.4089 31.3302 47.6985 30.6828 47.9511 30.109C47.9932 30.0143 48.0353 29.9248 48.0722 29.8301C48.6723 28.4352 49.2828 27.0455 49.8934 25.6612C50.2619 24.8189 50.6356 23.982 50.9988 23.1345C51.4936 22.0028 52.3148 20.7237 54.315 20.9396C54.994 21.008 55.6941 20.9922 56.3784 20.9764C56.8521 20.9659 57.3417 20.9553 57.8207 20.9711C58.4892 20.9922 58.9103 21.1659 59.1103 21.4975C59.3103 21.8239 59.2787 22.266 59.005 22.8556C57.7049 25.6664 56.4153 28.4773 55.1204 31.2934C54.015 33.7042 52.9043 36.115 51.7937 38.5258C51.7621 38.589 51.7358 38.6627 51.7094 38.7364C51.6042 39.0364 51.441 39.4891 50.9251 39.4891L50.9304 39.4943ZM47.8195 32.2303C47.8195 32.2303 47.83 32.2777 47.8353 32.304C47.8616 32.4356 47.9037 32.683 47.9985 32.8988C48.7828 34.699 49.5934 36.515 50.4251 38.3679C50.4619 38.4468 50.4882 38.5311 50.5198 38.6153C50.6356 38.9469 50.7093 39.0943 50.9251 39.0943C51.1357 39.1048 51.2199 38.9469 51.341 38.6048C51.3726 38.5205 51.4041 38.4363 51.4357 38.3574C52.5464 35.9466 53.657 33.5358 54.7624 31.1249C56.0521 28.3088 57.3469 25.498 58.6471 22.6871C58.8576 22.2344 58.8998 21.9028 58.7734 21.7028C58.6471 21.4975 58.3207 21.387 57.8049 21.3659C57.3364 21.3501 56.8521 21.3607 56.3837 21.3712C55.6889 21.387 54.973 21.4028 54.2729 21.3343C52.8938 21.1869 52.02 21.7765 51.362 23.2977C50.9936 24.1399 50.6251 24.9821 50.2514 25.8243C49.6408 27.2087 49.0302 28.5983 48.4301 29.9932C48.388 30.088 48.3459 30.1827 48.3038 30.2775C48.0564 30.8302 47.7985 31.4039 47.8143 32.2251L47.8195 32.2303Z" fill="#FAFAFA"/>
<path d="M83.7661 30.6196C80.9869 23.9135 78.2076 17.2128 75.4441 10.5015C75.0862 9.63294 74.5388 9.10657 73.6492 8.7381C66.8958 5.95883 60.1581 3.13745 53.431 0.289756C52.452 -0.126082 51.5993 -0.0787081 50.6307 0.331866C44.1247 3.06902 37.6187 5.81145 31.0706 8.43807C29.602 9.02761 28.6966 9.84876 28.4176 11.3753C30.2547 15.6284 32.0759 19.8868 33.9393 24.1241C36.3343 29.5668 38.7767 34.9885 41.1665 40.4365C41.9823 42.2946 40.8296 44.0369 38.8346 44.0685C35.8027 44.1159 35.8553 44.0948 34.7447 41.6261C31.7233 34.9096 28.6492 28.214 25.5857 21.5185C25.3436 20.9869 25.0225 20.4974 24.733 19.9868C23.2697 23.4977 21.8063 27.0139 20.3483 30.5301C20.0114 31.3407 19.7429 32.1145 20.1377 33.0567C23.038 39.9365 25.8963 46.8373 28.7334 53.7433C29.0756 54.5803 29.602 55.0329 30.4389 55.3698C37.2923 58.1228 44.1352 60.9073 50.9623 63.734C51.8572 64.1024 52.5994 64.0814 53.4732 63.7129C60.1266 60.9284 66.7905 58.1596 73.4702 55.4435C74.5335 55.0119 75.1915 54.4066 75.381 53.2959C74.5967 50.4061 73.1281 47.8005 71.9437 45.0844C69.0065 38.3363 65.9325 31.646 62.9216 24.9295C62.2479 23.4293 63.4269 21.5238 65.0482 21.4501C68.4275 21.2922 68.4538 21.3448 69.8382 24.4294C72.6912 30.788 75.5968 37.1309 78.455 43.4895C78.6076 43.8264 78.7182 44.1106 79.1077 44.1791C80.6763 40.3997 82.2239 36.6098 83.8451 32.8567C84.203 32.0355 84.0662 31.3512 83.7609 30.6196H83.7661ZM53.3784 12.3385L54.2627 15.8916L55.1312 12.3385H56.863L55.526 17.9971H53.231L51.6203 12.3385H53.3731H53.3784ZM47.5672 12.3385H51.4361V14.144H49.3937V17.9971H47.5935V14.144H47.5672V12.3385ZM45.6091 12.3385H47.1724V14.144H45.6091V12.3385ZM46.9092 44.1422C44.8564 44.3106 43.9089 43.4211 43.1562 41.6946C41.2875 37.3993 39.3241 33.1462 37.3292 28.9089C36.7554 27.6824 37.3555 27.2666 38.3398 27.0981C39.0557 26.9771 39.8031 27.0718 40.5401 27.0718C43.9615 27.0613 43.9352 27.0718 45.3248 30.3406C46.6934 33.5726 48.1357 36.7729 49.5253 39.9944C50.5465 42.3631 49.4148 43.9369 46.9145 44.1422H46.9092ZM51.6203 38.4468C51.4677 38.7732 51.415 39.2995 50.9255 39.2943C50.4465 39.2943 50.3991 38.789 50.2465 38.4468C49.4306 36.6255 48.6147 34.8043 47.8146 32.9778C47.683 32.6725 47.6409 32.3303 47.6198 32.2514C47.5935 31.2302 47.9673 30.5775 48.2515 29.9142C49.2095 27.6771 50.2044 25.4506 51.1781 23.2187C51.773 21.8554 52.6204 20.9658 54.2943 21.1395C55.4576 21.2606 56.6419 21.129 57.8158 21.1711C58.879 21.208 59.3528 21.6396 58.8264 22.7713C56.4103 27.9877 54.0258 33.2199 51.615 38.4415L51.6203 38.4468ZM64.8745 32.0776C65.364 33.062 65.2745 33.9305 64.8482 34.8727C63.9059 36.9624 62.9532 39.0469 62.0742 41.1629C60.7424 44.3633 60.7108 44.4107 57.242 44.437C56.4156 44.3949 55.5734 44.4212 54.7575 44.2896C53.9574 44.1633 53.5942 43.7474 54.0101 42.8368C56.4472 37.5151 58.8369 32.1777 61.2635 26.8507C61.4162 26.5191 61.4793 25.9875 61.9478 25.9822C62.4584 25.9822 62.3952 26.556 62.5426 26.877C63.3375 28.6036 64.0323 30.3775 64.8745 32.0829V32.0776Z" fill="#FAFAFA"/>
</svg>
