<svg width="104" height="64" viewBox="0 0 104 64" fill="none" xmlns="http://www.w3.org/2000/svg">
<path d="M103.029 21.105L102.149 22.855L101.059 21.105H100.039L101.699 23.755L100.799 25.545H101.759L103.989 21.105H103.029Z" fill="#FAFAFA"/>
<path d="M86.7305 42.2649H83.4805V29.1849H86.7305V29.9349C87.0654 29.6096 87.4614 29.3537 87.8956 29.1821C88.3298 29.0105 88.7936 28.9265 89.2605 28.9349C89.8621 28.9592 90.453 29.1028 90.9986 29.3576C91.5442 29.6124 92.0336 29.9733 92.4385 30.419C92.8433 30.8648 93.1554 31.3866 93.3566 31.9542C93.5578 32.5217 93.6441 33.1236 93.6105 33.7248C93.6455 34.3269 93.5602 34.9299 93.3596 35.4986C93.1591 36.0673 92.8472 36.5903 92.4422 37.0372C92.0373 37.484 91.5473 37.8457 91.001 38.1012C90.4547 38.3566 89.863 38.5006 89.2605 38.5249C88.7936 38.5333 88.3298 38.4492 87.8956 38.2775C87.4614 38.1059 87.0654 37.8502 86.7305 37.5249V42.2649ZM89.2605 38.0549C89.7975 38.0348 90.3249 37.9067 90.8114 37.6783C91.2978 37.4499 91.7332 37.1258 92.0916 36.7254C92.45 36.325 92.7241 35.8565 92.8974 35.3479C93.0707 34.8392 93.1398 34.3008 93.1005 33.7649C93.1384 33.2297 93.0683 32.6924 92.8943 32.1849C92.7204 31.6774 92.4461 31.2101 92.0878 30.8108C91.7295 30.4114 91.2946 30.0883 90.8089 29.8606C90.3232 29.6328 89.7966 29.5049 89.2605 29.4848C88.1237 29.595 87.0619 30.1012 86.2605 30.9149V29.6949H84.0005V41.7548H86.2405V36.6349C87.0467 37.4433 88.1054 37.9514 89.2405 38.0748" fill="#FAFAFA"/>
<path d="M46.7794 38.635C46.1304 38.6795 45.4793 38.5861 44.8689 38.361C44.2585 38.1359 43.7027 37.7841 43.238 37.3289C42.7733 36.8736 42.4102 36.3251 42.1726 35.7195C41.935 35.1139 41.8283 34.4649 41.8594 33.8151C41.8217 33.1744 41.92 32.533 42.1477 31.933C42.3755 31.333 42.7276 30.788 43.1809 30.3338C43.6342 29.8795 44.1785 29.5263 44.778 29.2973C45.3775 29.0683 46.0187 28.9687 46.6594 29.005C47.2734 28.9591 47.8902 29.0417 48.4705 29.2475C49.0508 29.4532 49.5819 29.7776 50.0298 30.2001C50.4777 30.6226 50.8326 31.1339 51.0718 31.7012C51.3111 32.2685 51.4295 32.8794 51.4194 33.495C51.4149 33.8306 51.3814 34.1652 51.3194 34.495V34.705H45.1694C45.1678 34.9076 45.2095 35.1083 45.2919 35.2935C45.3742 35.4786 45.4952 35.6441 45.6468 35.7786C45.7984 35.9131 45.977 36.0136 46.1706 36.0734C46.3642 36.1331 46.5684 36.1507 46.7694 36.125C47.0589 36.1701 47.355 36.1129 47.6069 35.9633C47.8588 35.8136 48.0506 35.5809 48.1494 35.3051L48.2094 35.135H51.3894L51.3294 35.4351C50.9894 37.3551 49.2194 38.605 46.8094 38.605L46.7794 38.635ZM46.6894 29.485C46.1141 29.4414 45.5361 29.5228 44.9951 29.7237C44.4542 29.9245 43.9631 30.24 43.5556 30.6485C43.148 31.0569 42.8337 31.5488 42.6341 32.0902C42.4346 32.6316 42.3545 33.2098 42.3994 33.7851C42.3661 34.3684 42.4582 34.9521 42.6694 35.4968C42.8807 36.0416 43.2062 36.5347 43.6241 36.9431C44.0419 37.3515 44.5424 37.6656 45.0919 37.8643C45.6413 38.063 46.227 38.1417 46.8094 38.095C48.8094 38.095 50.3494 37.095 50.8094 35.645H48.5994C48.4406 35.9759 48.1833 36.2496 47.8629 36.4286C47.5424 36.6076 47.1745 36.6833 46.8094 36.645C46.5219 36.6634 46.2339 36.6195 45.9649 36.5163C45.696 36.413 45.4525 36.2528 45.2512 36.0468C45.0499 35.8407 44.8955 35.5936 44.7985 35.3223C44.7016 35.051 44.6644 34.762 44.6894 34.475V34.215H50.9194C50.9626 33.9741 50.9827 33.7297 50.9794 33.485C50.9958 32.9337 50.8951 32.3852 50.6838 31.8756C50.4726 31.3661 50.1557 30.9072 49.7541 30.5292C49.3524 30.1512 48.8751 29.8626 48.3538 29.6826C47.8324 29.5027 47.2788 29.4353 46.7294 29.485H46.6894ZM48.7894 33.125H44.6894V32.875C44.675 32.6086 44.7168 32.3421 44.8122 32.0929C44.9076 31.8437 45.0545 31.6174 45.2431 31.4287C45.4318 31.2401 45.6581 31.0932 45.9073 30.9978C46.1565 30.9024 46.423 30.8606 46.6894 30.875C46.9559 30.8606 47.2223 30.9024 47.4715 30.9978C47.7207 31.0932 47.947 31.2401 48.1357 31.4287C48.3244 31.6174 48.4712 31.8437 48.5666 32.0929C48.662 32.3421 48.7039 32.6086 48.6894 32.875L48.7894 33.125ZM45.2194 32.615H48.2194C48.1649 32.2587 47.9759 31.9368 47.6913 31.7155C47.4068 31.4941 47.0482 31.3902 46.6894 31.4251C46.3308 31.3853 45.9708 31.4875 45.6867 31.71C45.4026 31.9324 45.2169 32.2573 45.1694 32.615" fill="#FAFAFA"/>
<path d="M56.4892 38.6349C53.7692 38.6349 52.1992 37.4049 52.1992 35.2549V35.0049H55.3992V35.2549C55.3992 35.9449 55.7692 36.2549 56.5292 36.2549C57.2892 36.2549 57.4092 35.8348 57.4092 35.7048C57.4092 35.3348 57.0592 35.2048 55.8792 34.8448L55.2692 34.6549C53.9292 34.2349 52.4192 33.7549 52.4192 31.8949C52.4192 30.0349 53.8592 28.9849 56.4192 28.9849C58.9792 28.9849 60.5092 30.1749 60.5092 32.1649V32.4149H57.2892V32.1649C57.3073 32.047 57.2976 31.9265 57.2611 31.8129C57.2246 31.6993 57.1622 31.5957 57.0788 31.5104C56.9954 31.425 56.8933 31.3602 56.7805 31.321C56.6678 31.2819 56.5476 31.2696 56.4292 31.2849C56.2992 31.2849 55.6492 31.2849 55.6492 31.7849C55.6492 32.2849 55.9992 32.2549 57.0092 32.5649L57.6792 32.7849C59.1292 33.2149 60.6792 33.6548 60.6792 35.5948C60.6792 37.5348 59.1792 38.5948 56.5592 38.5948L56.4892 38.6349ZM52.7892 35.4648C52.9092 37.1548 54.2392 38.0848 56.5592 38.0848C57.9092 38.0848 60.1692 37.7548 60.1692 35.5748C60.1692 34.1248 59.1692 33.7249 57.5692 33.2549L56.8892 33.0349C55.8192 32.6949 55.1792 32.4949 55.1792 31.7649C55.1792 31.0349 55.6992 30.7649 56.4692 30.7649C56.6327 30.7498 56.7976 30.767 56.9545 30.8156C57.1113 30.8642 57.257 30.9432 57.3833 31.0481C57.5096 31.153 57.614 31.2818 57.6905 31.4271C57.767 31.5724 57.8142 31.7314 57.8292 31.8949H59.9992C59.8792 30.3549 58.5892 29.4749 56.4292 29.4749C55.1292 29.4749 52.9592 29.7849 52.9592 31.8749C52.9592 33.2649 53.9592 33.6749 55.4592 34.1449L56.0692 34.3348C57.3192 34.7248 57.9492 34.9149 57.9492 35.6849C57.9492 36.0049 57.8192 36.7449 56.5692 36.7449C56.3782 36.7714 56.1837 36.759 55.9976 36.7084C55.8115 36.6578 55.6375 36.57 55.4862 36.4504C55.3348 36.3309 55.2092 36.182 55.117 36.0126C55.0247 35.8432 54.9676 35.6568 54.9492 35.4648H52.7892Z" fill="#FAFAFA"/>
<path d="M66.4201 38.6349C65.7658 38.6864 65.1079 38.5985 64.49 38.377C63.8722 38.1554 63.3083 37.8053 62.8358 37.3497C62.3632 36.8942 61.9927 36.3436 61.7486 35.7343C61.5046 35.1249 61.3926 34.4708 61.4201 33.8149C61.3925 33.1595 61.5044 32.5056 61.7485 31.8967C61.9927 31.2878 62.3634 30.7379 62.8361 30.2831C63.3089 29.8283 63.8729 29.4791 64.4908 29.2588C65.1086 29.0384 65.7663 28.9519 66.4201 29.0049C68.5801 29.0049 70.8601 30.1949 71.0901 32.8649V33.1349H67.8401V32.9149C67.823 32.7527 67.7733 32.5956 67.6939 32.4531C67.6145 32.3106 67.5071 32.1856 67.3782 32.0857C67.2493 31.9857 67.1016 31.9128 66.9438 31.8715C66.786 31.8301 66.6215 31.821 66.4601 31.8449C66.208 31.842 65.9583 31.8941 65.7282 31.9973C65.4982 32.1005 65.2933 32.2525 65.1278 32.4428C64.9624 32.633 64.8402 32.8569 64.7698 33.099C64.6994 33.3411 64.6824 33.5955 64.7201 33.8449C64.6834 34.0981 64.7027 34.3564 64.7767 34.6014C64.8506 34.8465 64.9774 35.0722 65.148 35.2629C65.3187 35.4536 65.5291 35.6045 65.7645 35.7051C65.9998 35.8056 66.2543 35.8533 66.5101 35.8449C66.8216 35.8831 67.1359 35.8009 67.3888 35.615C67.6416 35.4291 67.8138 35.1536 67.8701 34.8449L67.9201 34.6749H71.1401V34.9548C70.8501 37.2048 69.0101 38.6649 66.4501 38.6649L66.4201 38.6349ZM66.4501 29.5449C65.8676 29.5023 65.2826 29.583 64.7334 29.782C64.1843 29.9809 63.6833 30.2936 63.2632 30.6995C62.8432 31.1053 62.5136 31.5953 62.2959 32.1373C62.0783 32.6794 61.9775 33.2612 62.0001 33.8449C61.976 34.4293 62.0757 35.0123 62.2927 35.5555C62.5098 36.0988 62.8392 36.5901 63.2594 36.9971C63.6796 37.4041 64.1811 37.7176 64.731 37.9171C65.2809 38.1167 65.8667 38.1977 66.4501 38.1549C68.6601 38.1549 70.2201 37.0249 70.5901 35.1549H68.3201C68.1941 35.5169 67.9502 35.8261 67.6274 36.0328C67.3046 36.2396 66.9217 36.3319 66.5401 36.2949C66.2187 36.3088 65.8981 36.2526 65.6006 36.1303C65.303 36.0079 65.0356 35.8224 64.8169 35.5865C64.5981 35.3507 64.4332 35.0701 64.3337 34.7642C64.2341 34.4583 64.2022 34.1344 64.2401 33.8149C64.1995 33.4992 64.2278 33.1783 64.3232 32.8745C64.4186 32.5708 64.5788 32.2913 64.7928 32.0555C65.0067 31.8197 65.2692 31.6332 65.5623 31.5088C65.8553 31.3844 66.1719 31.325 66.4901 31.3348C66.9023 31.2918 67.316 31.3999 67.6545 31.639C67.9929 31.8782 68.233 32.232 68.3301 32.6349H70.5801C70.3301 31.1349 69.1401 29.5149 66.4501 29.5149" fill="#FAFAFA"/>
<path d="M76.2795 38.565C75.677 38.5408 75.0853 38.3967 74.539 38.1413C73.9927 37.8858 73.5028 37.5242 73.0978 37.0773C72.6928 36.6304 72.381 36.1073 72.1804 35.5386C71.9798 34.9699 71.8945 34.367 71.9295 33.7649C71.8959 33.1637 71.9822 32.5617 72.1834 31.9942C72.3846 31.4266 72.6967 30.9048 73.1015 30.459C73.5064 30.0132 73.9958 29.6525 74.5414 29.3977C75.087 29.1429 75.6779 28.9991 76.2795 28.9749C77.2155 28.9633 78.118 29.3228 78.7895 29.9749V29.2249H81.9995V38.3949H78.7495V37.6649C78.065 38.2897 77.166 38.6263 76.2395 38.6049L76.2795 38.565ZM76.2395 29.5249C75.7034 29.545 75.1769 29.6728 74.6911 29.9005C74.2054 30.1283 73.7705 30.4515 73.4122 30.8509C73.0539 31.2502 72.7797 31.7175 72.6057 32.225C72.4317 32.7325 72.3616 33.2698 72.3995 33.805C72.3602 34.3409 72.4293 34.8792 72.6026 35.3878C72.7759 35.8965 73.05 36.3651 73.4084 36.7655C73.7668 37.1659 74.2022 37.49 74.6886 37.7184C75.1751 37.9468 75.7025 38.0748 76.2395 38.0949C76.8127 38.0688 77.3745 37.9259 77.8903 37.6748C78.4062 37.4238 78.8654 37.0699 79.2395 36.6349V37.8849H81.4795V29.7349H79.2995V30.9849C78.9289 30.5458 78.4706 30.1891 77.9539 29.9377C77.4373 29.6862 76.8738 29.5456 76.2995 29.5249H76.2395ZM76.9995 36.2749C76.6831 36.2713 76.3707 36.2038 76.0809 36.0764C75.7912 35.9491 75.5302 35.7646 75.3136 35.534C75.0969 35.3033 74.9291 35.0313 74.8201 34.7342C74.7112 34.437 74.6634 34.121 74.6795 33.805C74.6633 33.4894 74.7112 33.1738 74.8203 32.8772C74.9293 32.5807 75.0973 32.3093 75.3141 32.0794C75.5309 31.8495 75.792 31.6659 76.0817 31.5397C76.3713 31.4135 76.6836 31.3472 76.9995 31.3449C77.3155 31.3472 77.6277 31.4135 77.9174 31.5397C78.2071 31.6659 78.4682 31.8495 78.685 32.0794C78.9018 32.3093 79.0698 32.5807 79.1788 32.8772C79.2879 33.1738 79.3357 33.4894 79.3195 33.805C79.3302 34.1177 79.2783 34.4294 79.1669 34.7218C79.0555 35.0143 78.8867 35.2815 78.6706 35.5078C78.4545 35.7342 78.1954 35.9151 77.9084 36.0399C77.6215 36.1648 77.3125 36.2311 76.9995 36.2349V36.2749ZM76.9995 31.815C76.7464 31.8181 76.4966 31.8734 76.2658 31.9776C76.035 32.0817 75.8282 32.2323 75.6583 32.4201C75.4884 32.6078 75.3591 32.8286 75.2784 33.0686C75.1978 33.3086 75.1675 33.5627 75.1895 33.815C75.1644 34.0678 75.1925 34.323 75.272 34.5644C75.3515 34.8057 75.4807 35.0278 75.6512 35.2162C75.8217 35.4046 76.0297 35.5551 76.262 35.6582C76.4942 35.7614 76.7454 35.8148 76.9995 35.815C77.2536 35.8148 77.5049 35.7614 77.7371 35.6582C77.9693 35.5551 78.1774 35.4046 78.3479 35.2162C78.5184 35.0278 78.6476 34.8057 78.7271 34.5644C78.8066 34.323 78.8347 34.0678 78.8095 33.815C78.8316 33.5627 78.8013 33.3086 78.7207 33.0686C78.64 32.8286 78.5107 32.6078 78.3408 32.4201C78.1709 32.2323 77.9641 32.0817 77.7333 31.9776C77.5025 31.8734 77.2527 31.8181 76.9995 31.815" fill="#FAFAFA"/>
<path d="M88.5203 36.2349C88.2039 36.2312 87.8915 36.1637 87.6018 36.0364C87.312 35.9091 87.051 35.7246 86.8344 35.4939C86.6177 35.2632 86.4499 34.9912 86.3409 34.6941C86.232 34.397 86.1842 34.0809 86.2003 33.7649C86.1841 33.4493 86.232 33.1337 86.3411 32.8372C86.4501 32.5406 86.6181 32.2692 86.8349 32.0393C87.0517 31.8094 87.3128 31.6259 87.6025 31.4996C87.8921 31.3734 88.2044 31.3072 88.5203 31.3049C88.8363 31.3072 89.1486 31.3734 89.4382 31.4996C89.7279 31.6259 89.989 31.8094 90.2058 32.0393C90.4226 32.2692 90.5906 32.5406 90.6996 32.8372C90.8087 33.1337 90.8566 33.4493 90.8403 33.7649C90.8565 34.0809 90.8087 34.397 90.6998 34.6941C90.5908 34.9912 90.423 35.2632 90.2063 35.4939C89.9897 35.7246 89.7287 35.9091 89.4389 36.0364C89.1492 36.1637 88.8368 36.2312 88.5203 36.2349V36.2349ZM88.5203 31.8149C88.2663 31.8151 88.015 31.8684 87.7828 31.9716C87.5506 32.0747 87.3425 32.2253 87.172 32.4137C87.0015 32.6021 86.8723 32.8241 86.7928 33.0654C86.7133 33.3068 86.6852 33.5621 86.7103 33.8149C86.6852 34.0678 86.7133 34.323 86.7928 34.5643C86.8723 34.8057 87.0015 35.0278 87.172 35.2162C87.3425 35.4046 87.5506 35.5551 87.7828 35.6582C88.015 35.7613 88.2663 35.8148 88.5203 35.8149C88.7744 35.8148 89.0257 35.7613 89.2579 35.6582C89.4901 35.5551 89.6982 35.4046 89.8687 35.2162C90.0392 35.0278 90.1684 34.8057 90.2479 34.5643C90.3274 34.323 90.3555 34.0678 90.3303 33.8149C90.3555 33.5621 90.3274 33.3068 90.2479 33.0654C90.1684 32.8241 90.0392 32.6021 89.8687 32.4137C89.6982 32.2253 89.4901 32.0747 89.2579 31.9716C89.0257 31.8684 88.7744 31.8151 88.5203 31.8149" fill="#FAFAFA"/>
<path d="M99.3695 38.635C98.72 38.6794 98.0685 38.586 97.4577 38.361C96.8468 38.1359 96.2904 37.7843 95.8249 37.3292C95.3594 36.8741 94.9954 36.3259 94.7566 35.7202C94.5179 35.1146 94.4098 34.4654 94.4395 33.8151C94.4018 33.1744 94.5 32.533 94.7278 31.933C94.9555 31.333 95.3076 30.788 95.761 30.3338C96.2143 29.8795 96.7586 29.5263 97.3581 29.2973C97.9576 29.0683 98.5988 28.9687 99.2395 29.005C99.8535 28.9591 100.47 29.0417 101.051 29.2475C101.631 29.4532 102.162 29.7776 102.61 30.2001C103.058 30.6226 103.413 31.1339 103.652 31.7012C103.891 32.2685 104.01 32.8794 103.999 33.495C103.999 33.8303 103.969 34.1649 103.909 34.495V34.705H97.7695C97.7662 34.9081 97.8068 35.1096 97.8886 35.2956C97.9704 35.4815 98.0914 35.6476 98.2434 35.7825C98.3953 35.9173 98.5746 36.0178 98.769 36.0769C98.9634 36.136 99.1682 36.1524 99.3695 36.125C99.6588 36.1681 99.9541 36.1101 100.205 35.9607C100.457 35.8113 100.649 35.5798 100.749 35.3051L100.81 35.135H103.979V35.4351C103.639 37.3551 101.859 38.605 99.4595 38.605L99.3695 38.635ZM99.3295 29.485C98.7541 29.4414 98.1761 29.5228 97.6352 29.7237C97.0943 29.9245 96.6032 30.24 96.1956 30.6485C95.7881 31.0569 95.4738 31.5488 95.2742 32.0902C95.0746 32.6316 94.9946 33.2098 95.0395 33.7851C95.006 34.3693 95.0983 34.9539 95.3102 35.4994C95.522 36.0449 95.8484 36.5386 96.2674 36.9472C96.6864 37.3557 97.1882 37.6697 97.7388 37.8677C98.2895 38.0657 98.8763 38.1432 99.4595 38.095C101.459 38.095 102.989 37.095 103.459 35.645H101.26C101.101 35.9759 100.843 36.2496 100.523 36.4286C100.203 36.6076 99.8346 36.6833 99.4695 36.645C99.182 36.6634 98.8939 36.6195 98.625 36.5163C98.3561 36.413 98.1126 36.2528 97.9113 36.0468C97.71 35.8407 97.5556 35.5936 97.4586 35.3223C97.3616 35.051 97.3244 34.762 97.3495 34.475V34.215H103.579C103.615 33.9733 103.631 33.7293 103.629 33.485C103.646 32.9337 103.545 32.3852 103.334 31.8756C103.123 31.3661 102.806 30.9072 102.404 30.5292C102.002 30.1512 101.525 29.8626 101.004 29.6826C100.482 29.5027 99.9288 29.4353 99.3795 29.485H99.3295ZM101.449 33.125H97.3495V32.875C97.3351 32.6086 97.3769 32.3421 97.4723 32.0929C97.5677 31.8437 97.7145 31.6174 97.9032 31.4287C98.0919 31.2401 98.3182 31.0932 98.5674 30.9978C98.8166 30.9024 99.0831 30.8606 99.3495 30.875C99.62 30.8532 99.892 30.8895 100.147 30.9816C100.402 31.0737 100.635 31.2193 100.829 31.4088C101.024 31.5983 101.175 31.8273 101.273 32.0802C101.372 32.3331 101.415 32.6041 101.399 32.875L101.449 33.125ZM97.8695 32.615H100.869C100.817 32.2595 100.63 31.9377 100.347 31.7162C100.064 31.4947 99.7072 31.3905 99.3495 31.4251C98.9897 31.3852 98.6286 31.4871 98.3429 31.7094C98.0571 31.9316 97.8694 32.2565 97.8195 32.615" fill="#FAFAFA"/>
<path d="M0 29.445H2.75V30.695C3.03731 30.2054 3.45762 29.8074 3.9621 29.5472C4.46659 29.287 5.03454 29.1752 5.6 29.2249C6.0519 29.1917 6.5053 29.2649 6.92382 29.4385C7.34234 29.6122 7.71435 29.8815 8.01 30.2249C8.5554 31.032 8.79639 32.0066 8.69 32.9749V38.1049H5.94V33.6349C5.94 32.4149 5.57 31.535 4.43 31.535C3.29 31.535 2.75 32.3949 2.75 33.7249V38.065H0V29.445Z" fill="#FAFAFA"/>
<path d="M19.3206 29.4449V38.0948H16.5706V36.8748C16.2791 37.3376 15.8701 37.7148 15.3852 37.9678C14.9003 38.2208 14.3569 38.3406 13.8106 38.3149C13.2399 38.2934 12.6794 38.1577 12.1621 37.9157C11.6448 37.6738 11.1813 37.3305 10.799 36.9063C10.4168 36.4821 10.1235 35.9855 9.93651 35.4459C9.74954 34.9063 9.67271 34.3346 9.71056 33.7648C9.6741 33.1958 9.75197 32.6253 9.93957 32.0869C10.1272 31.5484 10.4207 31.0531 10.8028 30.6299C11.185 30.2068 11.648 29.8644 12.1646 29.6231C12.6811 29.3818 13.2408 29.2463 13.8106 29.2248C14.359 29.2001 14.904 29.3225 15.3893 29.5792C15.8745 29.8359 16.2824 30.2176 16.5706 30.6849V29.4449H19.3206ZM16.5706 33.7648C16.584 33.4841 16.5409 33.2036 16.4439 32.9398C16.3469 32.676 16.198 32.4344 16.0059 32.2292C15.8138 32.024 15.5824 31.8594 15.3256 31.7453C15.0687 31.6312 14.7916 31.5699 14.5106 31.5649C14.2287 31.5686 13.9505 31.629 13.6924 31.7425C13.4344 31.856 13.2019 32.0204 13.0087 32.2257C12.8156 32.4309 12.6657 32.673 12.5681 32.9374C12.4705 33.2019 12.4271 33.4833 12.4406 33.7648C12.4243 34.0475 12.4657 34.3306 12.5621 34.5969C12.6586 34.8631 12.8081 35.107 13.0017 35.3137C13.1953 35.5203 13.4289 35.6855 13.6883 35.7991C13.9476 35.9128 14.2274 35.9726 14.5106 35.9748C14.7929 35.9712 15.0716 35.9105 15.3298 35.7962C15.588 35.682 15.8203 35.5165 16.0128 35.31C16.2054 35.1035 16.354 34.8601 16.4499 34.5945C16.5458 34.329 16.5868 34.0467 16.5706 33.7648" fill="#FAFAFA"/>
<path d="M26.8391 38.0948C26.2276 38.194 25.6087 38.2408 24.9891 38.2349C23.7191 38.2349 21.9891 38.0749 21.9891 35.2349V31.5349H20.6191V29.5349H21.9891V26.9648H24.7191V29.5349H26.7191V31.5349H24.7191V34.6249C24.7191 35.9149 25.2191 36.0948 25.9691 36.0948C26.2766 36.0979 26.5839 36.0812 26.8891 36.0449L26.8391 38.0948Z" fill="#FAFAFA"/>
<path d="M36.6597 29.4451V38.095H33.9097V36.855C33.621 37.3427 33.2001 37.7387 32.6958 37.9971C32.1914 38.2555 31.6241 38.3657 31.0597 38.3151C30.608 38.3459 30.1553 38.2716 29.7372 38.0981C29.3191 37.9246 28.9468 37.6566 28.6497 37.3151C28.1129 36.5046 27.8792 35.5308 27.9897 34.5651V29.4351H30.7197V33.865C30.7197 35.105 31.0897 35.965 32.2397 35.965C33.3897 35.965 33.9097 35.105 33.9097 33.775V29.4351L36.6597 29.4451Z" fill="#FAFAFA"/>
<path d="M42.6509 31.9048C41.6009 32.1648 40.9609 33.0048 40.9609 34.7248V38.0948H38.2109V29.4449H41.0009V30.8448C41.2637 30.3687 41.651 29.973 42.1212 29.7C42.5915 29.427 43.1272 29.287 43.6709 29.2949C43.942 29.2876 44.2114 29.3388 44.4609 29.4449V29.7348C43.6854 30.2845 43.0736 31.0346 42.6909 31.9048" fill="#FAFAFA"/>
<path d="M75.5605 21.915H76.8605V25.545H77.7206V21.915H79.0005V21.105H75.5605V21.915Z" fill="#FAFAFA"/>
<path d="M80.7804 21.105H79.9004V25.545H80.7804V21.105Z" fill="#FAFAFA"/>
<path d="M85.01 24.005L82.84 21.105H82V25.545H82.86V22.655L85.04 25.545H85.88V21.105H85.01V24.005Z" fill="#FAFAFA"/>
<path d="M89.4194 24.0449H90.2494C90.1767 24.2874 90.0226 24.4974 89.8131 24.6395C89.6036 24.7816 89.3516 24.847 89.0994 24.8248C88.9044 24.8308 88.7103 24.7959 88.5295 24.7225C88.3488 24.6491 88.1853 24.5387 88.0498 24.3984C87.9142 24.2581 87.8094 24.0911 87.7422 23.9079C87.675 23.7248 87.6468 23.5295 87.6594 23.3348C87.6472 23.1429 87.6739 22.9506 87.7378 22.7693C87.8017 22.5879 87.9015 22.4213 88.0312 22.2794C88.161 22.1375 88.318 22.0231 88.493 21.9433C88.6679 21.8635 88.8572 21.8199 89.0494 21.8149C89.2626 21.8008 89.4747 21.8553 89.6546 21.9704C89.8346 22.0856 89.9729 22.2553 90.0494 22.4548V22.5748H90.9994V22.3849C90.8966 21.9675 90.6495 21.6 90.3017 21.3474C89.954 21.0948 89.528 20.9735 89.0994 21.0049C88.7962 21.0033 88.4959 21.0631 88.2164 21.1805C87.9369 21.298 87.684 21.4707 87.4729 21.6883C87.2618 21.9059 87.0969 22.1639 86.988 22.4469C86.8792 22.7298 86.8286 23.0318 86.8394 23.3348C86.8282 23.6399 86.88 23.944 86.9916 24.2281C87.1032 24.5122 87.2723 24.7703 87.4881 24.9862C87.704 25.202 87.962 25.371 88.2461 25.4826C88.5302 25.5943 88.8343 25.6461 89.1394 25.6349C89.6193 25.6641 90.0937 25.5195 90.4757 25.2275C90.8577 24.9355 91.1217 24.5157 91.2194 24.0449H91.6894V23.2348H89.4794L89.4194 24.0449Z" fill="#FAFAFA"/>
<path d="M94.8194 23.855C95.0403 23.7251 95.2231 23.5393 95.3495 23.3164C95.4759 23.0935 95.5414 22.8412 95.5394 22.585C95.5394 22.1942 95.3848 21.8193 95.1094 21.542C94.834 21.2647 94.4602 21.1076 94.0694 21.105H92.3594V25.535H93.2194V24.0651H93.9394L94.6094 25.545H95.6094L94.8194 23.855ZM94.0694 23.255H93.2194V21.915H94.0594C94.2371 21.915 94.4075 21.9856 94.5331 22.1112C94.6588 22.2369 94.7294 22.4073 94.7294 22.585C94.7294 22.7609 94.6602 22.9299 94.5367 23.0553C94.4132 23.1807 94.2453 23.2524 94.0694 23.255" fill="#FAFAFA"/>
<path d="M98.5305 21.1348H97.7705L96.2305 25.5747H97.1705L97.5005 24.5747H98.8005L99.1305 25.5747H100.07L98.5305 21.1348ZM97.6705 23.8247L98.1405 22.4148L98.6105 23.8247H97.6705Z" fill="#FAFAFA"/>
<path d="M73.9293 22.985L73.1293 22.8051C72.7993 22.7251 72.6293 22.575 72.6293 22.325C72.6293 22.075 72.9093 21.8051 73.3293 21.8051C73.503 21.7898 73.6766 21.834 73.822 21.9302C73.9673 22.0265 74.0756 22.1692 74.1293 22.335H74.9993C74.9261 21.9445 74.7084 21.5959 74.3896 21.3587C74.0709 21.1215 73.6744 21.0131 73.2793 21.0551C73.0856 21.033 72.8894 21.0509 72.703 21.1078C72.5165 21.1648 72.3438 21.2596 72.1956 21.3863C72.0473 21.5129 71.9268 21.6688 71.8414 21.844C71.756 22.0193 71.7076 22.2103 71.6993 22.4051C71.6993 23.1351 72.1793 23.465 72.8093 23.615L73.5993 23.7951C73.9793 23.8751 74.1393 24.0151 74.1393 24.2851C74.1393 24.5551 73.8393 24.835 73.3993 24.835C73.2107 24.8553 73.021 24.8095 72.8624 24.7056C72.7037 24.6017 72.586 24.446 72.5293 24.2651H71.5293C71.6139 24.6748 71.8484 25.0382 72.1869 25.2842C72.5253 25.5302 72.9434 25.641 73.3593 25.595C73.5579 25.6216 73.76 25.6065 73.9524 25.5506C74.1449 25.4946 74.3235 25.3991 74.477 25.2702C74.6304 25.1412 74.7552 24.9816 74.8434 24.8017C74.9316 24.6217 74.9813 24.4253 74.9893 24.225C74.9893 23.565 74.5493 23.155 73.8393 22.985" fill="#FAFAFA"/>
</svg>
