<svg width="104" height="64" viewBox="0 0 104 64" fill="none" xmlns="http://www.w3.org/2000/svg">
<path d="M39.1895 26.3401H42.1295V34.6101H44.1095V26.3401H47.0295V24.49H39.1895V26.3401Z" fill="#FAFAFA"/>
<path d="M51.0901 24.49H49.0801V34.6199H51.0901V24.49Z" fill="#FAFAFA"/>
<path d="M60.7294 31.1001L55.7794 24.49H53.8594V34.6101H55.8294V28.01L60.7794 34.6101H62.6994V24.49H60.7294V31.1001Z" fill="#FAFAFA"/>
<path d="M70.7693 31.2H72.6593C72.4971 31.752 72.1481 32.2304 71.6719 32.5533C71.1958 32.8762 70.6222 33.0235 70.0493 32.97C69.6046 32.9819 69.1623 32.9012 68.7505 32.7331C68.3386 32.565 67.9662 32.3131 67.6568 31.9934C67.3475 31.6737 67.108 31.2932 66.9535 30.876C66.799 30.4589 66.7329 30.0141 66.7593 29.5701C66.7337 29.1337 66.7961 28.6966 66.9428 28.2849C67.0895 27.8732 67.3175 27.4951 67.6132 27.1733C67.909 26.8514 68.2664 26.5923 68.6643 26.4114C69.0622 26.2304 69.4924 26.1314 69.9293 26.12C70.4218 26.0719 70.9164 26.1867 71.3374 26.4469C71.7583 26.707 72.0822 27.0981 72.2593 27.56L72.3393 27.8501H74.3393L74.2793 27.4101C73.9993 25.5901 72.1693 24.27 69.9393 24.27C69.2485 24.2682 68.5645 24.4059 67.9282 24.6749C67.2919 24.944 66.7165 25.3387 66.2365 25.8355C65.7565 26.3323 65.3818 26.921 65.1348 27.5661C64.8879 28.2113 64.7738 28.8997 64.7993 29.59C64.7703 30.2844 64.8843 30.9773 65.1344 31.6257C65.3844 32.2741 65.765 32.8643 66.2526 33.3594C66.7403 33.8545 67.3245 34.2441 67.969 34.504C68.6136 34.7639 69.3046 34.8885 69.9993 34.87C71.0908 34.9339 72.1688 34.6035 73.037 33.939C73.9053 33.2745 74.5058 32.3203 74.7293 31.25H75.7993V29.39H70.7993L70.7693 31.2Z" fill="#FAFAFA"/>
<path d="M101.82 24.49L99.81 28.47L97.31 24.49H95L98.78 30.53L96.72 34.6101H98.91L104 24.49H101.82Z" fill="#FAFAFA"/>
<path d="M83.0907 30.77C83.5913 30.4694 84.0054 30.0443 84.2928 29.5361C84.5802 29.0279 84.7311 28.4539 84.7307 27.87C84.7281 26.9795 84.3753 26.1258 83.7485 25.4934C83.1216 24.8609 82.2711 24.5005 81.3807 24.49H77.4707V34.61H79.4707V31.26H81.1107L82.6507 34.62H84.8707L83.0907 30.77ZM81.3807 29.39H79.4407V26.39H81.3607C81.757 26.3898 82.1377 26.5445 82.4216 26.821C82.7055 27.0974 82.8703 27.4738 82.8807 27.87C82.8807 28.2697 82.7233 28.6533 82.4426 28.9378C82.1619 29.2223 81.7804 29.3847 81.3807 29.39V29.39Z" fill="#FAFAFA"/>
<path d="M91.5605 24.57V24.48H89.8105L86.3105 34.61H88.4605L89.2105 32.35H92.2105L92.9605 34.61H95.0005L91.5605 24.57ZM89.5605 30.69L90.6305 27.47L91.6905 30.69H89.5605Z" fill="#FAFAFA"/>
<path d="M35.4592 28.7899L33.6292 28.3699C32.8792 28.1899 32.4992 27.8399 32.4992 27.2699C32.4992 26.6999 33.1392 26.0999 34.0892 26.0999C34.485 26.0628 34.8817 26.16 35.2155 26.3759C35.5493 26.5918 35.8007 26.9137 35.9292 27.2899H37.9992C37.6692 25.5899 36.3492 24.3799 34.0692 24.3799C31.9592 24.3799 30.4692 25.6599 30.4692 27.4699C30.4692 29.1099 31.5692 29.8799 33.0092 30.2099L34.7992 30.6099C35.6692 30.8099 36.0192 31.1399 36.0192 31.7399C36.0192 32.5399 35.3592 32.9999 34.3492 32.9999C33.9182 33.0486 33.4836 32.9467 33.1191 32.7116C32.7546 32.4765 32.4826 32.1226 32.3492 31.7099H30.1992C30.5492 33.6199 32.1292 34.7099 34.3592 34.7099C36.5892 34.7099 38.0792 33.5399 38.0792 31.5999C38.0792 30.0899 37.0892 29.1599 35.4592 28.7899Z" fill="#FAFAFA"/>
<path d="M36.8492 45.3201H35.4292V41.4401L34.0792 45.3201H32.9992L31.5992 41.4401V45.3201H30.1992V39.0601H31.8692L33.5492 43.42L35.1992 39.0601H36.8492V45.3201Z" fill="#FAFAFA"/>
<path d="M38.2598 39.0601H39.7098V43.17C39.7016 43.3063 39.7214 43.4429 39.7679 43.5712C39.8145 43.6995 39.8869 43.817 39.9806 43.9163C40.0743 44.0156 40.1873 44.0947 40.3127 44.1486C40.4381 44.2026 40.5732 44.2303 40.7098 44.23C40.8463 44.2303 40.9814 44.2026 41.1068 44.1486C41.2322 44.0947 41.3453 44.0156 41.439 43.9163C41.5326 43.817 41.605 43.6995 41.6516 43.5712C41.6982 43.4429 41.718 43.3063 41.7098 43.17V39.0601H43.1598V43.1801C43.1648 43.4955 43.1041 43.8086 42.9814 44.0993C42.8586 44.39 42.6767 44.6519 42.4471 44.8683C42.2175 45.0847 41.9453 45.2509 41.6479 45.3562C41.3505 45.4615 41.0344 45.5037 40.7198 45.48C40.4051 45.5037 40.089 45.4615 39.7916 45.3562C39.4942 45.2509 39.222 45.0847 38.9924 44.8683C38.7628 44.6519 38.5809 44.39 38.4582 44.0993C38.3355 43.8086 38.2747 43.4955 38.2798 43.1801L38.2598 39.0601Z" fill="#FAFAFA"/>
<path d="M45.7409 43.2501C45.7298 43.388 45.7475 43.5267 45.7928 43.6574C45.8381 43.7881 45.91 43.908 46.004 44.0095C46.0979 44.111 46.212 44.1919 46.3388 44.2471C46.4657 44.3023 46.6026 44.3305 46.7409 44.3301C46.8447 44.3411 46.9498 44.3307 47.0494 44.2993C47.149 44.268 47.2411 44.2165 47.3199 44.148C47.3987 44.0795 47.4625 43.9955 47.5075 43.9012C47.5524 43.807 47.5774 43.7045 47.5809 43.6001C47.5809 43.1001 47.1609 42.9201 46.5809 42.7201C45.4709 42.3101 44.4609 41.9301 44.4609 40.7201C44.4609 39.5101 45.5209 38.9101 46.6709 38.9101C46.9514 38.879 47.2353 38.9077 47.504 38.9942C47.7726 39.0807 48.0199 39.2231 48.2296 39.412C48.4393 39.6009 48.6066 39.8321 48.7206 40.0903C48.8346 40.3485 48.8926 40.6279 48.8909 40.9101H47.4409C47.4409 40.3601 47.1609 40.0101 46.6509 40.0101C46.5597 39.999 46.4672 40.0068 46.3792 40.0329C46.2911 40.0591 46.2094 40.1031 46.1391 40.1622C46.0687 40.2212 46.0113 40.2942 45.9703 40.3764C45.9293 40.4586 45.9057 40.5483 45.9009 40.6401C45.9009 41.0501 46.2309 41.2801 46.8009 41.4801C47.9109 41.8601 49.0009 42.2601 49.0009 43.5401C49.0047 43.832 48.9445 44.1211 48.8246 44.3873C48.7047 44.6534 48.5281 44.8901 48.307 45.0807C48.0859 45.2713 47.8257 45.4112 47.5448 45.4905C47.2639 45.5699 46.9691 45.5868 46.6809 45.5401C46.3718 45.5749 46.0588 45.5425 45.7633 45.4451C45.4679 45.3478 45.1969 45.1878 44.969 44.976C44.7411 44.7643 44.5617 44.5058 44.4429 44.2183C44.3241 43.9307 44.2689 43.6209 44.2809 43.3101L45.7409 43.2501Z" fill="#FAFAFA"/>
<path d="M50.2793 39.0601H51.7493V45.3201H50.2793V39.0601Z" fill="#FAFAFA"/>
<path d="M59.4303 43.0801C59.2867 43.7908 58.8906 44.4255 58.3152 44.8667C57.7397 45.308 57.024 45.5258 56.3003 45.48C55.8599 45.4993 55.4201 45.428 55.0084 45.2704C54.5967 45.1128 54.2217 44.8723 53.9067 44.5639C53.5917 44.2554 53.3434 43.8856 53.1771 43.4773C53.0109 43.0689 52.9303 42.6308 52.9403 42.1901C52.9217 41.7474 52.9956 41.3057 53.1571 40.8932C53.3187 40.4807 53.5644 40.1063 53.8786 39.7939C54.1928 39.4816 54.5687 39.2382 54.9822 39.0791C55.3957 38.92 55.8378 38.8488 56.2803 38.8701C57.0367 38.8133 57.7858 39.0511 58.371 39.5338C58.9562 40.0165 59.3321 40.7066 59.4203 41.4601H57.9103C57.8512 41.083 57.6533 40.7415 57.3554 40.5029C57.0576 40.2642 56.6812 40.1455 56.3003 40.17C56.0426 40.168 55.7872 40.2194 55.5502 40.3207C55.3132 40.4221 55.0998 40.5714 54.9232 40.7592C54.7467 40.947 54.6109 41.1693 54.5244 41.4121C54.4378 41.6549 54.4024 41.9129 54.4203 42.17C54.4052 42.4282 54.4433 42.6867 54.5322 42.9295C54.621 43.1723 54.7588 43.3944 54.9368 43.5819C55.1149 43.7693 55.3296 43.9182 55.5676 44.0194C55.8055 44.1206 56.0617 44.1719 56.3203 44.17C56.6674 44.1893 57.011 44.0914 57.2958 43.8919C57.5805 43.6924 57.7899 43.4029 57.8903 43.0701L59.4303 43.0801Z" fill="#FAFAFA"/>
<path opacity="0.5" d="M2 39.87L12.79 49.71C12.67 48.12 11.49 42.93 6.13 35.71C5.81 36.11 5.48 36.49 5.13 36.88C4.78 37.27 4.49 37.57 4.13 37.88C3.77 38.19 3.13 38.81 2.64 39.26C2.48 39.53 2.26 39.71 2 39.87Z" fill="#FAFAFA"/>
<path opacity="0.5" d="M23.6003 39.87L22.7903 39.18C22.2703 38.72 21.7903 38.25 21.3103 37.78C20.8303 37.31 20.5503 36.99 20.2003 36.59C19.8503 36.19 19.7103 36.02 19.4803 35.73C14.1203 42.93 12.9303 48.12 12.8203 49.73L23.6003 39.87Z" fill="#FAFAFA"/>
<path d="M0 29.24C2.29429 31.1723 4.36096 33.3598 6.16 35.76V35.76C9.77543 31.2122 12.0785 25.7623 12.82 20L0 29.24Z" fill="#FAFAFA"/>
<path d="M18.3296 34.2299L18.0996 33.8699L18.3296 34.2299Z" fill="#FAFAFA"/>
<path d="M17.4206 32.8699C17.3206 32.7199 17.2306 32.5599 17.1406 32.3999C17.2306 32.5199 17.3206 32.6799 17.4206 32.8699Z" fill="#FAFAFA"/>
<path d="M16.6001 31.44C16.5001 31.28 16.4101 31.11 16.3301 30.95L16.6001 31.44Z" fill="#FAFAFA"/>
<path d="M19.7898 35.877C19.3904 35.4032 19.0225 34.9193 18.6652 34.4355L18.5811 34.3347L18.3393 33.9718C18.0976 33.6391 17.8769 33.3165 17.6562 32.9637V32.9032C17.551 32.752 17.4565 32.5907 17.3514 32.4294L16.7943 31.502L16.5 30.9879C16.3213 30.6552 16.1426 30.3226 15.9745 29.9798L15.7748 29.5968C15.5646 29.1734 15.3754 28.7601 15.1862 28.3468L15.1231 28.1955C15.1231 28.1048 15.0495 28.0141 15.0075 27.9133C14.8919 27.6411 14.7868 27.379 14.6817 27.1169L14.5661 26.8548L14.503 26.6734C14.3559 26.2903 14.2192 25.9073 14.1036 25.5444V25.4939C13.9775 25.121 13.8724 24.7681 13.7673 24.4254C13.7718 24.3818 13.7718 24.3379 13.7673 24.2943V24.1431C13.6727 23.8206 13.5781 23.5081 13.5045 23.2056V23.0947L13.3784 22.5403V22.4899C13.1787 21.5927 13.0631 20.8669 13 20.3931C13 20.2419 13 20.1008 13 20C12.2206 25.8088 9.8 31.3026 6 35.8871C11.6336 43.1452 12.8844 48.377 13 50C13.1156 48.3972 14.3664 43.1653 20 35.8871L19.7898 35.877Z" fill="#FAFAFA"/>
<path d="M6.16016 35.76C11.5202 42.96 12.7002 48.15 12.8202 49.76C12.7102 48.17 11.5202 42.98 6.16016 35.76Z" fill="#FAFAFA"/>
<path opacity="0.8" d="M25.6403 29.24L12.8203 20C12.8203 20.1 12.8203 20.23 12.8203 20.39C12.8203 20.39 12.8203 20.45 12.8203 20.48C12.8203 20.51 12.8203 20.69 12.8203 20.81V20.97C12.8203 21.08 12.8203 21.18 12.8203 21.3C12.8803 21.65 12.9603 22.05 13.0503 22.48C13.0503 22.71 13.1503 22.94 13.2103 23.19C13.2703 23.44 13.3703 23.8 13.4603 24.12C13.4603 24.21 13.5103 24.3 13.5303 24.4C13.6303 24.74 13.7303 25.09 13.8503 25.46V25.51C13.9603 25.87 14.1003 26.25 14.2303 26.63L14.4003 27.07C14.5003 27.33 14.6003 27.6 14.7103 27.86C14.8203 28.12 14.8203 28.14 14.8803 28.29C14.9403 28.44 14.9703 28.48 15.0103 28.58C15.1503 28.9 15.2903 29.21 15.4403 29.53C15.5003 29.66 15.5603 29.79 15.6303 29.92C15.7903 30.25 15.9603 30.58 16.1403 30.92C16.2203 31.08 16.3103 31.25 16.4103 31.41C16.5103 31.57 16.7603 32.03 16.9503 32.34C17.0403 32.5 17.1303 32.66 17.2303 32.81V32.87C17.4403 33.19 17.6503 33.52 17.8803 33.87C17.9803 34.02 18.0803 34.18 18.1903 34.33C18.5303 34.81 18.8803 35.33 19.2603 35.76C19.5803 35.34 19.9103 34.91 20.2603 34.49C20.7803 33.86 21.3203 33.23 21.9103 32.6C22.5003 31.97 23.0103 31.44 23.6103 30.87C24.2103 30.3 25.0003 29.78 25.6403 29.24Z" fill="#FAFAFA"/>
<path d="M15.8209 29.9401C15.7509 29.8101 15.6909 29.68 15.6309 29.55L15.8209 29.9401Z" fill="#FAFAFA"/>
<path opacity="0.8" d="M15.8209 29.9401C15.7509 29.8101 15.6909 29.68 15.6309 29.55L15.8209 29.9401Z" fill="#FAFAFA"/>
<path d="M13.2202 22.5001C13.1302 22.0701 13.0502 21.6701 12.9902 21.3201C13.0502 21.6701 13.1302 22.0701 13.2202 22.5001Z" fill="#FAFAFA"/>
<path opacity="0.8" d="M13.2202 22.5001C13.1302 22.0701 13.0502 21.6701 12.9902 21.3201C13.0502 21.6701 13.1302 22.0701 13.2202 22.5001Z" fill="#FAFAFA"/>
<path d="M12.8607 20.39C12.8607 20.23 12.8607 20.1 12.8607 20C12.8307 20.1 12.8407 20.24 12.8607 20.39Z" fill="#FAFAFA"/>
<path opacity="0.8" d="M12.8607 20.39C12.8607 20.23 12.8607 20.1 12.8607 20C12.8307 20.1 12.8407 20.24 12.8607 20.39Z" fill="#FAFAFA"/>
<path d="M18.0992 33.8699C17.8692 33.5399 17.6592 33.2099 17.4492 32.8699C17.6592 33.2199 17.8692 33.5399 18.0992 33.8699Z" fill="#FAFAFA"/>
<path opacity="0.8" d="M18.0992 33.8699C17.8692 33.5399 17.6592 33.2099 17.4492 32.8699C17.6592 33.2199 17.8692 33.5399 18.0992 33.8699Z" fill="#FAFAFA"/>
<path d="M14.8998 27.8701C14.7898 27.6101 14.6898 27.3401 14.5898 27.0801C14.6898 27.3501 14.7898 27.6101 14.8998 27.8701Z" fill="#FAFAFA"/>
<path opacity="0.8" d="M14.8998 27.8701C14.7898 27.6101 14.6898 27.3401 14.5898 27.0801C14.6898 27.3501 14.7898 27.6101 14.8998 27.8701Z" fill="#FAFAFA"/>
<path d="M15.6292 29.5501C15.4792 29.2301 15.3392 28.9201 15.1992 28.6001C15.3392 28.9201 15.4792 29.2301 15.6292 29.5501Z" fill="#FAFAFA"/>
<path opacity="0.8" d="M15.6292 29.5501C15.4792 29.2301 15.3392 28.9201 15.1992 28.6001C15.3392 28.9201 15.4792 29.2301 15.6292 29.5501Z" fill="#FAFAFA"/>
<path d="M15.0698 28.3099L15.0098 28.1599L15.0698 28.3099Z" fill="#FAFAFA"/>
<path opacity="0.8" d="M15.0698 28.3099L15.0098 28.1599L15.0698 28.3099Z" fill="#FAFAFA"/>
<path d="M17.1298 32.3599C16.9432 32.0466 16.7632 31.7366 16.5898 31.4299L17.1298 32.3599Z" fill="#FAFAFA"/>
<path opacity="0.8" d="M17.1298 32.3599C16.9432 32.0466 16.7632 31.7366 16.5898 31.4299L17.1298 32.3599Z" fill="#FAFAFA"/>
<path d="M16.3205 30.9299C16.1405 30.5899 15.9705 30.2599 15.8105 29.9299C16.0005 30.2699 16.1505 30.5999 16.3205 30.9299Z" fill="#FAFAFA"/>
<path opacity="0.8" d="M16.3205 30.9299C16.1405 30.5899 15.9705 30.2599 15.8105 29.9299C16.0005 30.2699 16.1505 30.5999 16.3205 30.9299Z" fill="#FAFAFA"/>
<path d="M13.3809 23.21C13.4509 23.51 13.5409 23.82 13.6309 24.14C13.5409 23.87 13.4509 23.51 13.3809 23.21Z" fill="#FAFAFA"/>
<path opacity="0.8" d="M13.3809 23.21C13.4509 23.51 13.5409 23.82 13.6309 24.14C13.5409 23.87 13.4509 23.51 13.3809 23.21Z" fill="#FAFAFA"/>
<path d="M13.6992 24.4199C13.7992 24.7599 13.8992 25.1099 14.0192 25.4799C13.8992 25.1099 13.7992 24.7599 13.6992 24.4199Z" fill="#FAFAFA"/>
<path opacity="0.8" d="M13.6992 24.4199C13.7992 24.7599 13.8992 25.1099 14.0192 25.4799C13.8992 25.1099 13.7992 24.7599 13.6992 24.4199Z" fill="#FAFAFA"/>
<path d="M13.2195 22.4999C13.1295 22.0699 13.0495 21.6699 12.9895 21.3199C12.9895 21.1999 12.9895 21.0999 12.9895 20.9899V20.8299C12.9895 20.7099 12.9895 20.5999 12.9895 20.4999C12.9895 20.3999 12.9895 20.4399 12.9895 20.4199C12.9195 20.8699 12.9995 21.6099 13.2195 22.4999Z" fill="#FAFAFA"/>
<path opacity="0.8" d="M13.2195 22.4999C13.1295 22.0699 13.0495 21.6699 12.9895 21.3199C12.9895 21.1999 12.9895 21.0999 12.9895 20.9899V20.8299C12.9895 20.7099 12.9895 20.5999 12.9895 20.4999C12.9895 20.3999 12.9895 20.4399 12.9895 20.4199C12.9195 20.8699 12.9995 21.6099 13.2195 22.4999Z" fill="#FAFAFA"/>
<path d="M13.3494 23.1V23.21C13.2894 22.96 13.2395 22.73 13.1895 22.5V22.55L13.3494 23.1Z" fill="#FAFAFA"/>
<path opacity="0.8" d="M13.3494 23.1V23.21C13.2894 22.96 13.2395 22.73 13.1895 22.5V22.55L13.3494 23.1Z" fill="#FAFAFA"/>
<path d="M13.7009 24.4199C13.7009 24.3199 13.7009 24.2299 13.6309 24.1399V24.2899C13.6591 24.3305 13.6825 24.374 13.7009 24.4199Z" fill="#FAFAFA"/>
<path opacity="0.8" d="M13.7009 24.4199C13.7009 24.3199 13.7009 24.2299 13.6309 24.1399V24.2899C13.6591 24.3305 13.6825 24.374 13.7009 24.4199Z" fill="#FAFAFA"/>
<path d="M12.8691 20.5C12.8691 20.6 12.8691 20.71 12.8691 20.83C12.8991 20.71 12.8791 20.6 12.8691 20.5Z" fill="#FAFAFA"/>
<path opacity="0.8" d="M12.8691 20.5C12.8691 20.6 12.8691 20.71 12.8691 20.83C12.8991 20.71 12.8791 20.6 12.8691 20.5Z" fill="#FAFAFA"/>
<path d="M12.9395 20.99C12.9395 21.1 12.9395 21.2 12.9395 21.32C12.9995 21.2 12.9995 21.1 12.9395 20.99Z" fill="#FAFAFA"/>
<path opacity="0.8" d="M12.9395 20.99C12.9395 21.1 12.9395 21.2 12.9395 21.32C12.9995 21.2 12.9995 21.1 12.9395 20.99Z" fill="#FAFAFA"/>
<path d="M14.8998 27.8701C14.7898 27.6001 14.6898 27.3401 14.5898 27.0801C14.6898 27.3501 14.7898 27.6101 14.8998 27.8701Z" fill="#FAFAFA"/>
<path opacity="0.8" d="M14.8998 27.8701C14.7898 27.6001 14.6898 27.3401 14.5898 27.0801C14.6898 27.3501 14.7898 27.6101 14.8998 27.8701Z" fill="#FAFAFA"/>
<path d="M15.6303 29.55C15.4803 29.23 15.3403 28.9201 15.2003 28.6001C15.2003 28.5001 15.1103 28.4001 15.0703 28.3101C15.2503 28.7201 15.4303 29.13 15.6303 29.55Z" fill="#FAFAFA"/>
<path opacity="0.8" d="M15.6303 29.55C15.4803 29.23 15.3403 28.9201 15.2003 28.6001C15.2003 28.5001 15.1103 28.4001 15.0703 28.3101C15.2503 28.7201 15.4303 29.13 15.6303 29.55Z" fill="#FAFAFA"/>
<path d="M14 25.53C14.11 25.89 14.24 26.27 14.38 26.65C14.29 26.27 14.15 25.87 14 25.53Z" fill="#FAFAFA"/>
<path opacity="0.8" d="M14 25.53C14.11 25.89 14.24 26.27 14.38 26.65C14.29 26.27 14.15 25.87 14 25.53Z" fill="#FAFAFA"/>
<path d="M15.0704 28.3099C15.0104 28.1599 14.9604 28.0199 14.9004 27.8799C14.9004 27.9799 14.9704 28.0699 15.0104 28.1599L15.0704 28.3099Z" fill="#FAFAFA"/>
<path opacity="0.8" d="M15.0704 28.3099C15.0104 28.1599 14.9604 28.0199 14.9004 27.8799C14.9004 27.9799 14.9704 28.0699 15.0104 28.1599L15.0704 28.3099Z" fill="#FAFAFA"/>
<path d="M14.5899 27.0899L14.4199 26.6499L14.4799 26.8299L14.5899 27.0899Z" fill="#FAFAFA"/>
<path opacity="0.8" d="M14.5899 27.0899L14.4199 26.6499L14.4799 26.8299L14.5899 27.0899Z" fill="#FAFAFA"/>
<path d="M15.0006 28.1599C15.0006 28.0699 14.9306 27.9799 14.8906 27.8799C14.9406 27.9799 15.0006 28.0699 15.0006 28.1599Z" fill="#FAFAFA"/>
<path opacity="0.8" d="M15.0006 28.1599C15.0006 28.0699 14.9306 27.9799 14.8906 27.8799C14.9406 27.9799 15.0006 28.0699 15.0006 28.1599Z" fill="#FAFAFA"/>
<path d="M14.5905 27.0901L14.4805 26.8301L14.5905 27.0901Z" fill="#FAFAFA"/>
<path opacity="0.8" d="M14.5905 27.0901L14.4805 26.8301L14.5905 27.0901Z" fill="#FAFAFA"/>
<path d="M15.2003 28.6001C15.2003 28.5001 15.1103 28.4001 15.0703 28.3101C15.1103 28.4001 15.1603 28.5001 15.2003 28.6001Z" fill="#FAFAFA"/>
<path opacity="0.8" d="M15.2003 28.6001C15.2003 28.5001 15.1103 28.4001 15.0703 28.3101C15.1103 28.4001 15.1603 28.5001 15.2003 28.6001Z" fill="#FAFAFA"/>
</svg>
