<svg width="104" height="64" viewBox="0 0 104 64" fill="none" xmlns="http://www.w3.org/2000/svg">
<path d="M49.4746 15.3361H51.434V20.7445H52.7336V15.3361H54.6231V14.1064H49.4746V15.3361Z" fill="#FAFAFA"/>
<path d="M57.3313 14.1064H56.0117V20.7245H57.3313V14.1064Z" fill="#FAFAFA"/>
<path d="M63.6215 18.4651L60.3524 14.1064H59.1328V20.7445H60.4324V16.4157L63.6215 20.7445H64.9411V14.1064H63.6215V18.4651Z" fill="#FAFAFA"/>
<path d="M70.169 18.5251H71.4086C71.2961 18.8841 71.0642 19.1938 70.7514 19.4029C70.4387 19.612 70.0639 19.7079 69.6891 19.6747C69.4006 19.6822 69.1136 19.6296 68.8466 19.5202C68.5795 19.4107 68.3381 19.2469 68.1378 19.039C67.9375 18.8312 67.7827 18.584 67.6832 18.3131C67.5836 18.0421 67.5416 17.7535 67.5597 17.4654C67.5293 16.8996 67.7215 16.3444 68.0951 15.9185C68.4688 15.4925 68.9942 15.2296 69.5591 15.1861C69.891 15.1688 70.2199 15.2559 70.4996 15.4353C70.7793 15.6146 70.9958 15.877 71.1187 16.1858L71.2087 16.3458H72.5283L72.4383 16.0158C72.2828 15.3939 71.9078 14.8491 71.3824 14.4817C70.8571 14.1143 70.2167 13.9491 69.5791 14.0164C69.1251 14.016 68.6757 14.1075 68.2581 14.2856C67.8405 14.4637 67.4633 14.7247 67.1493 15.0527C66.8354 15.3807 66.5912 15.7688 66.4315 16.1938C66.2718 16.6188 66.1999 17.0718 66.2201 17.5254C66.2004 17.9814 66.2755 18.4365 66.4407 18.862C66.6059 19.2875 66.8576 19.6741 67.1799 19.9974C67.5022 20.3206 67.8881 20.5734 68.3131 20.7399C68.7381 20.9063 69.193 20.9828 69.6491 20.9644C70.3648 21.0035 71.0708 20.785 71.6393 20.3486C72.2077 19.9121 72.6011 19.2865 72.7482 18.5851H73.478V17.3554H70.199V18.5851L70.169 18.5251Z" fill="#FAFAFA"/>
<path d="M90.5336 14.1064L89.234 16.7457L87.5945 14.1064H86.0449L88.4942 18.0452L87.1946 20.7445H88.5842L91.9432 14.1064H90.5336Z" fill="#FAFAFA"/>
<path d="M78.2666 18.215C78.5873 18.0141 78.8525 17.7357 79.0376 17.4056C79.2228 17.0755 79.322 16.7041 79.3262 16.3256C79.3276 16.0364 79.2716 15.7498 79.1615 15.4823C79.0515 15.2149 78.8895 14.972 78.685 14.7675C78.4805 14.563 78.2376 14.401 77.9701 14.291C77.7027 14.1809 77.4161 14.1249 77.1269 14.1262H74.5977V20.7443H75.9073V18.5449H76.9769L77.9766 20.7443H79.4462L78.2666 18.215ZM77.1269 17.3153H75.8073V15.3159H77.1269C77.392 15.3159 77.6463 15.4212 77.8338 15.6087C78.0213 15.7962 78.1266 16.0505 78.1266 16.3156C78.1266 16.5807 78.0213 16.835 77.8338 17.0225C77.6463 17.21 77.392 17.3153 77.1269 17.3153Z" fill="#FAFAFA"/>
<path d="M83.8355 14.1962L82.6858 14.1062L80.3965 20.7242H81.7861L82.2759 19.2547H84.2753L84.7652 20.7242H86.1548L83.8355 14.1962ZM82.5358 18.195L83.2556 16.0656L83.9854 18.195H82.5358Z" fill="#FAFAFA"/>
<path d="M47.1053 16.8955L45.8757 16.6556C45.3859 16.5656 45.1459 16.3256 45.1459 15.9257C45.1459 15.5259 45.5658 15.196 46.2056 15.196C46.4724 15.1775 46.7377 15.2479 46.9602 15.3962C47.1826 15.5445 47.3497 15.7624 47.4352 16.0157H48.8248C48.6915 15.4111 48.3435 14.8754 47.8453 14.5078C47.3472 14.1401 46.7327 13.9655 46.1156 14.0163C45.8267 13.9802 45.5333 14.0042 45.2541 14.087C44.9749 14.1698 44.7158 14.3094 44.4932 14.4973C44.2707 14.6851 44.0894 14.917 43.9609 15.1783C43.8323 15.4397 43.7593 15.7248 43.7464 16.0157C43.7464 17.0754 44.4661 17.5753 45.3759 17.8252L46.5155 18.0651C47.0854 18.2251 47.3353 18.395 47.3353 18.7949C47.3353 19.1948 46.9154 19.6046 46.2756 19.6046C45.9961 19.6413 45.7126 19.581 45.4723 19.4335C45.2321 19.2861 45.0498 19.0606 44.956 18.7949H43.5664C43.6855 19.4069 44.03 19.9519 44.5317 20.3221C45.0333 20.6924 45.6557 20.8609 46.2756 20.7943C47.6552 20.7943 48.7349 20.0645 48.7349 18.7949C48.8248 17.7952 48.165 17.1454 47.1053 16.9055" fill="#FAFAFA"/>
<path d="M1.77014 41.8079C1.77014 41.8079 1.9201 41.648 2.25 41.2381C2.5799 40.8282 2.97978 40.2384 3.5696 39.6086C4.15943 38.9788 4.71926 38.219 5.45904 37.3193C6.19882 36.4196 6.9286 35.5998 7.74836 34.7001C7.76232 34.6815 7.78044 34.6663 7.80126 34.6559C7.82208 34.6455 7.84504 34.6401 7.86832 34.6401C7.8916 34.6401 7.91456 34.6455 7.93538 34.6559C7.9562 34.6663 7.97431 34.6815 7.98828 34.7001C8.13275 34.7691 8.24919 34.8855 8.31819 35.0299C8.41339 35.1764 8.46855 35.3454 8.47814 35.5198C8.47814 35.6698 8.47814 35.9297 8.31819 35.9997C8.11398 36.2567 7.8936 36.5004 7.65839 36.7294C7.32848 37.1493 6.9286 37.5392 6.51872 38.0491C6.10884 38.5589 5.61899 39.1087 5.03917 39.6786C4.45934 40.2484 4.03947 40.8182 3.65958 41.3081C3.2797 41.7979 2.83982 42.2078 2.59989 42.5377C2.35997 42.8676 2.18002 43.0176 2.12004 43.0176C2.06006 43.0176 2.03006 43.1075 1.96009 43.1075H1.63018C1.4849 43.1131 1.34055 43.0822 1.21031 43.0176C1.10805 43.0108 1.0095 42.9766 0.925055 42.9186C0.840606 42.8605 0.773384 42.7807 0.730457 42.6877C0.497073 42.4669 0.327796 42.1871 0.240598 41.8779C0.0732487 41.4585 -0.00833219 41.0098 0.000671834 40.5583C0.0203427 39.7519 0.161901 38.9531 0.420544 38.189C0.698121 37.3445 1.03211 36.5195 1.42025 35.7197C1.82699 34.9072 2.32326 34.1427 2.89981 33.4404C3.34948 32.7454 3.84021 32.0777 4.36937 31.441C4.85922 30.8712 5.18912 30.4413 5.50903 30.1214C5.82893 29.8015 5.99887 29.6316 6.08885 29.6316C6.3294 29.6443 6.56002 29.7317 6.74865 29.8815C6.9788 30.0265 7.17352 30.2212 7.31848 30.4513C7.48342 30.6776 7.621 30.9225 7.72836 31.1811C7.8173 31.3909 7.87132 31.6138 7.88831 31.8409C7.77415 32.1109 7.60767 32.3555 7.39846 32.5607C7.07856 32.8906 6.74866 33.3805 6.2588 33.8803C5.72476 34.4142 5.2334 34.9891 4.78924 35.5998C4.23269 36.2169 3.73719 36.8865 3.30968 37.5992C2.85383 38.2692 2.47172 38.9865 2.17002 39.7385C1.88005 40.3886 1.74324 41.0966 1.77014 41.8079V41.8079ZM9.76775 24.1332C9.97953 24.1579 10.1803 24.241 10.3476 24.3731C10.5847 24.5422 10.8056 24.733 11.0074 24.943C11.2245 25.1434 11.3893 25.394 11.4872 25.6727C11.5772 25.9127 11.7272 26.0926 11.7272 26.1626C11.6743 26.4038 11.5608 26.6274 11.3973 26.8124C11.1573 27.1423 10.9174 27.4722 10.5875 27.8721L9.68778 28.7719C9.48333 28.9705 9.23245 29.1148 8.95799 29.1917C8.78973 29.2035 8.62122 29.1725 8.46814 29.1017C8.31819 29.0217 8.05826 28.9518 7.98828 28.7719C7.81048 28.6803 7.66422 28.5375 7.56841 28.3619C7.48237 28.2376 7.43065 28.0928 7.41845 27.9421C7.43714 27.5854 7.55106 27.2402 7.74836 26.9424C7.92754 26.472 8.16967 26.0281 8.46814 25.6228C8.71807 25.2129 9.04797 24.813 9.2879 24.4831C9.33017 24.3803 9.39849 24.2903 9.48614 24.2219C9.57379 24.1536 9.67774 24.1092 9.78775 24.0933L9.76775 24.1332Z" fill="#FAFAFA"/>
<path d="M28.6817 21.1443C28.789 21.1356 28.8968 21.1528 28.996 21.1946C29.0951 21.2363 29.1828 21.3014 29.2515 21.3842C29.4082 21.5775 29.5208 21.8027 29.5814 22.044C29.6773 22.2759 29.7315 22.523 29.7414 22.7738V23.4336C29.7414 23.5835 29.5014 23.8434 29.0116 24.1634C28.4662 24.455 27.9448 24.7893 27.4521 25.1631C26.8773 25.5021 26.3525 25.9193 25.8925 26.4027C25.6762 26.5642 25.4984 26.7717 25.3722 27.0103C25.246 27.2489 25.1744 27.5126 25.1627 27.7823C25.1627 27.9422 25.1627 28.0222 25.0828 28.1122H24.9228C24.8063 28.116 24.6913 28.0847 24.5929 28.0222C24.4358 27.9402 24.2938 27.8321 24.173 27.7023C24.022 27.5197 23.8849 27.3258 23.7632 27.1225C23.6583 26.8654 23.604 26.5904 23.6032 26.3127V25.8229C23.6032 25.6729 23.6932 25.493 23.6932 25.3431C22.8013 25.4824 21.9434 25.7875 21.1639 26.2427C20.0131 26.8094 18.9157 27.4786 17.8849 28.2422C16.6836 29.1553 15.5385 30.1401 14.4559 31.1913C13.3113 32.2937 12.2737 33.5021 11.3569 34.8002C10.4707 36.0341 9.70414 37.3497 9.06756 38.729C8.50502 39.9889 8.19916 41.3483 8.16783 42.7278C8.13346 42.975 8.17771 43.2268 8.29433 43.4475C8.41095 43.6682 8.59402 43.8466 8.81764 43.9575C9.38066 44.11 9.9741 44.11 10.5371 43.9575C11.3526 43.7541 12.1487 43.4798 12.9164 43.1377C13.8161 42.7278 14.6259 42.238 15.5256 41.7581C16.4254 41.2783 17.1551 40.6984 17.9949 40.1286C18.8346 39.5588 19.3745 38.979 19.9943 38.4991C20.333 38.5013 20.6696 38.5518 20.994 38.6491C21.0878 38.6937 21.168 38.7627 21.226 38.8488C21.284 38.935 21.3178 39.0352 21.3239 39.1389C21.2401 39.4942 21.0394 39.811 20.7541 40.0386C19.8879 40.8732 18.966 41.6481 17.9949 42.3579C16.9323 43.1747 15.8094 43.9099 14.6359 44.5573C13.5073 45.1915 12.3307 45.7363 11.117 46.1868C10.0941 46.5566 9.01558 46.7494 7.9279 46.7566C7.06669 46.7212 6.24996 46.3645 5.63859 45.7569C4.98514 44.8993 4.66541 43.8335 4.73885 42.7578C4.76033 40.9257 5.15136 39.1168 5.88851 37.4394C6.69596 35.6652 7.7021 33.9883 8.88761 32.4409C10.1563 30.8572 11.5795 29.4037 13.1363 28.1022C14.6594 26.842 16.2733 25.6959 17.9649 24.6732C19.477 23.7648 21.07 22.9985 22.7235 22.3839C23.9984 21.881 25.3521 21.6069 26.7223 21.5742H27.0522C27.2121 21.5742 27.2921 21.5742 27.3821 21.6542C27.7783 21.4019 28.2196 21.2288 28.6817 21.1443V21.1443Z" fill="#FAFAFA"/>
<path d="M34.8393 35.8796C34.9192 35.7897 34.9892 35.7897 35.1692 35.8796C35.3165 35.979 35.4285 36.1225 35.4891 36.2895C35.5824 36.4659 35.6369 36.6601 35.649 36.8593C35.6665 36.9618 35.6612 37.0668 35.6335 37.167C35.6059 37.2672 35.5566 37.3601 35.4891 37.4392C35.1692 37.7591 34.8393 38.159 34.4894 38.5788C34.09 39.0033 33.6478 39.3852 33.1698 39.7185C32.6699 40.0484 32.27 40.3783 31.8502 40.6282C31.51 40.857 31.1184 40.9978 30.7105 41.0381C30.4866 41.0576 30.2612 41.0269 30.0507 40.9481C29.8682 40.8742 29.7019 40.7656 29.5609 40.6282C29.2661 40.9978 28.9307 41.3331 28.5612 41.6279C28.2808 41.9256 27.9766 42.1998 27.6514 42.4477C27.3366 42.6682 27.0019 42.859 26.6517 43.0175C26.2551 43.1825 25.8382 43.2934 25.4121 43.3474C25.0071 43.4372 24.5874 43.4372 24.1825 43.3474C23.7653 43.2642 23.3638 43.1157 22.9928 42.9075C22.6523 42.6865 22.3486 42.4132 22.0931 42.0977C21.8628 41.7597 21.7472 41.3568 21.7632 40.9481C21.766 39.9973 21.9317 39.0539 22.253 38.1589C22.6046 37.2726 23.0468 36.4251 23.5726 35.6297C24.1025 34.8421 24.705 34.1057 25.3721 33.4304C25.9996 32.8133 26.6675 32.2389 27.3715 31.7109C27.9126 31.2896 28.484 30.9087 29.081 30.5712C29.4577 30.3484 29.8763 30.2055 30.3106 30.1514C30.6586 30.1569 31.0007 30.2424 31.3103 30.4013C31.5672 30.5437 31.7919 30.7377 31.9701 30.9711C32.1301 30.7311 32.3 30.5512 32.46 30.5512C32.673 30.5666 32.8742 30.6549 33.0298 30.8011C33.2262 31.0146 33.3881 31.2575 33.5097 31.521C33.6696 31.7709 33.7596 32.1008 33.9295 32.4307C34.0291 32.7548 34.0829 33.0913 34.0895 33.4304C34.0768 33.7605 33.9614 34.0785 33.7596 34.3401C33.5707 34.7799 33.3254 35.1932 33.0298 35.5697C32.7608 36.0267 32.4602 36.4643 32.1301 36.8793C31.8002 37.3692 31.4703 37.789 31.2304 38.1089C31.0236 38.4674 30.7789 38.8025 30.5006 39.1087C30.3944 39.2865 30.3136 39.4783 30.2606 39.6785C30.2606 39.8384 30.5006 39.8384 30.8305 39.5985C31.1604 39.3586 31.5603 38.9387 32.0601 38.5388L33.5297 37.0693C34.0429 36.7664 34.4887 36.3615 34.8393 35.8796V35.8796ZM24.1025 42.5177C24.4048 42.502 24.6933 42.3859 24.9222 42.1877C25.3159 41.9351 25.6725 41.6289 25.9819 41.278C26.3118 40.8681 26.7917 40.5582 27.1216 40.1384C27.5003 39.7512 27.8542 39.3404 28.1813 38.9087V38.2489C28.255 37.4511 28.4788 36.6743 28.8411 35.9596C29.2994 34.9968 29.8204 34.0651 30.4006 33.1704C29.7245 33.5629 29.114 34.0588 28.5911 34.64C27.9534 35.2326 27.3525 35.8636 26.7917 36.5294C26.2268 37.1595 25.7057 37.8275 25.2321 38.5288C24.7523 39.2586 24.4224 39.8484 24.0925 40.4183C23.8862 40.8652 23.7222 41.3304 23.6026 41.8079C23.6226 42.3377 23.7826 42.5177 24.1025 42.5177Z" fill="#FAFAFA"/>
<path d="M39.8083 29.6517C40.283 29.6369 40.7557 29.7185 41.1979 29.8917C41.5278 30.0516 41.7678 30.3115 41.7678 30.5514C41.7678 30.7914 41.6078 30.8014 41.3479 31.1313C41.088 31.4612 40.7781 31.7811 40.4482 32.131C40.116 32.4879 39.815 32.8724 39.5484 33.2806C39.3305 33.5364 39.1885 33.8481 39.1385 34.1803C39.1385 34.2703 39.1385 34.2703 39.2185 34.3303C39.2985 34.3903 39.3085 34.4203 39.3785 34.3303C39.6075 34.1897 39.8132 34.0143 39.9883 33.8105C40.4082 33.4806 40.798 33.0807 41.3779 32.5809C41.9577 32.081 42.5175 31.5212 43.1773 30.9513L45.0668 29.3218C45.6366 28.842 46.1265 28.4221 46.5363 28.0922C46.7504 27.8918 46.9973 27.7294 47.2661 27.6123C47.5278 27.6181 47.7818 27.7016 47.9959 27.8522C48.2612 28.0465 48.5058 28.2676 48.7257 28.5121C48.9478 28.7399 49.1123 29.0176 49.2055 29.3218C49.3586 29.5353 49.4455 29.7891 49.4555 30.0516C49.3821 30.508 49.1811 30.9342 48.8756 31.2812C48.4658 31.851 48.0659 32.5108 47.4961 33.2806C46.9262 34.0504 46.2664 34.9101 45.6066 35.8099C44.9256 36.7038 44.2948 37.635 43.7172 38.599C43.1591 39.4783 42.6934 40.4131 42.3276 41.3882C41.9492 42.2094 41.7547 43.1033 41.7578 44.0074C41.7578 44.1674 41.9077 44.0974 42.2376 43.7675C42.5675 43.4376 42.9674 43.0377 43.4673 42.4479C43.9671 41.8581 44.467 41.2183 45.0968 40.4485C45.7266 39.6787 46.2464 39.0689 46.7263 38.4491C47.2061 37.8293 47.726 37.2194 48.1159 36.7296C48.5057 36.2397 48.7757 35.9199 48.8456 35.8299C48.9156 35.7399 48.9956 35.7399 49.1755 35.8299C49.3201 35.9346 49.434 36.0761 49.5054 36.2397C49.6016 36.4466 49.6527 36.6715 49.6554 36.8996C49.6722 37.0013 49.6675 37.1055 49.6417 37.2053C49.6159 37.3052 49.5695 37.3985 49.5054 37.4793C49.4155 37.6293 49.1755 37.8892 48.7757 38.4791C48.3758 39.0689 47.9559 39.5388 47.3861 40.1986C46.8163 40.8584 46.2464 41.5182 45.6766 42.198C45.1068 42.8778 44.447 43.5776 43.8671 44.1974C43.3971 44.7375 42.8747 45.2298 42.3076 45.6669C42.0458 45.9631 41.695 46.1666 41.3079 46.2467C41.1358 46.2256 40.9694 46.1713 40.818 46.0868C40.5941 46.0001 40.3974 45.8551 40.2482 45.6669C40.0636 45.4672 39.8995 45.2496 39.7584 45.0171C39.5979 44.7085 39.5156 44.3653 39.5184 44.0174C39.515 43.1634 39.626 42.3127 39.8483 41.4882C40.0216 40.5971 40.2657 39.7212 40.5781 38.8689C40.8268 38.0574 41.1273 37.2627 41.4778 36.4897C41.8077 35.7499 42.1376 35.1101 42.3776 34.4903C42.575 34.0395 42.7952 33.599 43.0374 33.1706C43.2073 32.8407 43.2773 32.6808 43.1973 32.6808C43.1174 32.6808 42.8674 32.8408 42.5375 33.2506C42.0302 33.6674 41.5648 34.1329 41.1479 34.6402L39.3485 36.4397C38.6887 37.0995 38.1189 37.7593 37.539 38.4391C37.0435 38.9973 36.6048 39.6034 36.2294 40.2485C35.9309 40.6 35.7308 41.0242 35.6496 41.4782C35.6496 41.5581 35.5696 41.6281 35.4996 41.7181C35.4329 41.7762 35.3551 41.8204 35.271 41.8479C35.1868 41.8753 35.098 41.8856 35.0098 41.8781C34.7698 41.8781 34.5299 41.7181 34.28 41.2982C34.016 40.7371 33.9023 40.117 33.9501 39.4988C33.9338 38.9261 34.0149 38.3548 34.19 37.8093C34.4389 37.0775 34.743 36.3656 35.0998 35.6799C35.4297 34.9501 35.9095 34.2103 36.3294 33.4805C36.7499 32.7877 37.2105 32.1201 37.709 31.4811C38.1089 30.9816 38.5503 30.5168 39.0286 30.0916C39.1229 29.9703 39.2404 29.8689 39.3743 29.7934C39.5082 29.7178 39.6557 29.6697 39.8083 29.6517V29.6517Z" fill="#FAFAFA"/>
<path d="M56.4339 29.9116C56.8419 29.8734 57.2491 29.9913 57.5736 30.2415C57.7042 30.3524 57.8094 30.4902 57.8819 30.6455C57.9543 30.8008 57.9924 30.9699 57.9935 31.1413C58.0482 31.4966 58.0174 31.8599 57.9035 32.2009C57.8029 32.5685 57.6621 32.9239 57.4836 33.2606C57.3137 33.5905 57.1537 33.9204 57.0038 34.1603C56.8538 34.4002 56.6739 34.4902 56.5839 34.4902C55.5685 34.5348 54.5827 34.8451 53.7247 35.39C52.696 35.9865 51.782 36.7617 51.0255 37.6793C50.2031 38.5657 49.5281 39.5783 49.0261 40.6784C48.5392 41.607 48.2595 42.6303 48.2064 43.6775C48.2064 43.9174 48.3663 44.0074 48.7862 44.0074C49.2574 43.8781 49.7185 43.7143 50.1658 43.5176C50.7456 43.1877 51.3954 42.8577 52.2152 42.3779C53.0349 41.898 53.7747 41.3182 54.6744 40.6584C55.5742 39.9986 56.3939 39.2788 57.2037 38.529C58.0135 37.7792 58.8332 36.9695 59.663 36.0698C59.7529 35.9798 59.8229 35.9798 59.9929 36.0698C60.1499 36.1877 60.291 36.3255 60.4127 36.4796C60.5086 36.6659 60.5889 36.8599 60.6527 37.0595C60.6303 37.2848 60.58 37.5064 60.5027 37.7192C60.2438 37.9747 60.0001 38.245 59.7729 38.529C59.3531 38.9489 58.7732 39.5288 58.1434 40.0886C57.5136 40.6484 56.6639 41.3182 55.8541 42.088C55.0167 42.7659 54.1423 43.3966 53.2349 43.9774C52.3698 44.5284 51.468 45.0194 50.5357 45.447C49.769 45.8199 48.929 46.0179 48.0764 46.0268C47.8384 46.0025 47.611 45.9163 47.4166 45.7768C47.1506 45.618 46.9054 45.4267 46.6868 45.2071C46.4457 44.9233 46.2252 44.6226 46.027 44.3073C45.8718 43.9754 45.79 43.614 45.7871 43.2476C45.811 42.1824 46.0348 41.1312 46.4469 40.1486C46.8546 39.0945 47.3777 38.0886 48.0064 37.1495C48.6429 36.1943 49.355 35.2916 50.1358 34.4503C50.8799 33.6695 51.6712 32.935 52.5051 32.2509C53.181 31.6728 53.9225 31.1763 54.7144 30.7714C55.156 30.2747 55.7717 29.9669 56.4339 29.9116V29.9116Z" fill="#FAFAFA"/>
<path d="M70.3294 35.9597C70.4194 35.8797 70.4894 35.8797 70.6593 35.9597C70.8293 36.0397 70.8993 36.1996 71.0792 36.3795C71.1711 36.5643 71.2512 36.7546 71.3191 36.9494C71.3444 37.1812 71.2878 37.4146 71.1592 37.6092C71.0792 37.6991 70.8293 37.9391 70.4294 38.4189C70.0295 38.8988 69.4297 39.4186 68.7999 39.9784C68.1701 40.5383 67.4203 41.2081 66.6005 41.8679C65.7808 42.5277 65.041 43.1875 64.2312 43.7573C63.5543 44.2691 62.8429 44.7334 62.1019 45.1469C61.6017 45.4426 61.0478 45.6363 60.4724 45.7167C60.0895 45.7506 59.7087 45.6321 59.4127 45.3869C59.0967 45.1289 58.8205 44.8257 58.5929 44.4871C58.3437 44.085 58.1803 43.6357 58.1131 43.1675C58.0103 42.6303 57.9568 42.0849 57.9531 41.538C57.9552 40.587 58.1209 39.6436 58.443 38.7488C58.7945 37.8625 59.2367 37.0149 59.7626 36.2196C60.2925 35.4319 60.8949 34.6956 61.562 34.0203C62.1947 33.4089 62.8623 32.8348 63.5614 32.3007C64.1026 31.8795 64.674 31.4986 65.2709 31.1611C65.6482 30.9395 66.0665 30.7967 66.5006 30.7412C66.8486 30.7468 67.1906 30.8323 67.5003 30.9911C67.7572 31.1335 67.9818 31.3276 68.1601 31.561C68.328 31.787 68.4689 32.0319 68.5799 32.2907C68.6578 32.4722 68.7083 32.6643 68.7299 32.8606C68.4267 32.8885 68.126 32.9386 67.8302 33.0106C68.2036 33.1625 68.5434 33.3867 68.8299 33.6703C69.0698 33.9203 69.1598 34.0902 69.1598 34.1602C69.1584 34.7795 68.9587 35.3821 68.5899 35.8797C68.1691 36.5233 67.6214 37.0743 66.9804 37.4992C66.2305 38.0384 65.4007 38.4567 64.5212 38.7388C63.4562 39.0649 62.3547 39.2564 61.2421 39.3087C60.9912 39.753 60.7707 40.214 60.5823 40.6882C60.4224 41.2681 60.2524 41.7479 60.1625 42.2578C60.0653 42.6871 60.0383 43.1294 60.0825 43.5674C60.0825 43.8973 60.2324 44.1372 60.4124 44.1372C60.8817 44.087 61.3314 43.9222 61.722 43.6573C62.3529 43.2899 62.9576 42.8791 63.5315 42.4277C64.1913 41.9379 64.8411 41.368 65.5309 40.7982C66.2207 40.2284 66.8405 39.5686 67.5303 38.9988C68.2201 38.4289 68.7599 37.8491 69.2397 37.3692C69.6896 36.6894 70.0895 36.2896 70.3294 35.9597ZM66.1707 33.6703C65.4417 34.1665 64.771 34.7433 64.1713 35.3898C63.5261 36.0601 62.925 36.7713 62.3718 37.5192C63.024 37.4136 63.6594 37.222 64.2612 36.9494C64.7307 36.7348 65.1269 36.3872 65.4009 35.9497C65.6723 35.6149 65.8699 35.2265 65.9807 34.81C66.0667 34.4342 66.1301 34.0537 66.1707 33.6703V33.6703Z" fill="#FAFAFA"/>
<path d="M81.6949 35.8797C81.7849 35.7897 81.8548 35.7897 82.0248 35.8797C82.1947 35.9697 82.2747 36.1196 82.4447 36.2896C82.5389 36.4732 82.6191 36.6636 82.6846 36.8594C82.7014 36.9611 82.6967 37.0653 82.6709 37.1651C82.6451 37.265 82.5987 37.3584 82.5346 37.4392C82.4447 37.5192 82.2047 37.8491 81.8049 38.249C81.405 38.6489 80.9851 39.2487 80.4853 39.8085C79.9854 40.3684 79.4256 41.0382 78.8557 41.8079C78.2859 42.5777 77.7161 43.1275 77.1363 43.6974C76.6715 44.1864 76.181 44.6503 75.6667 45.087C75.4183 45.3974 75.0607 45.6012 74.667 45.6567C74.3064 45.6604 73.9548 45.5444 73.6673 45.3269C73.3374 45.087 73.0975 44.837 72.7676 44.5971C72.5495 44.3159 72.3587 44.0147 72.1977 43.6974C72.0696 43.4727 71.9881 43.2244 71.9578 42.9675C72.0212 42.4983 72.1849 42.0483 72.4377 41.648C72.7676 40.9882 73.0975 40.3384 73.5873 39.5186C74.0772 38.6989 74.487 37.8891 75.0569 36.9894C75.6267 36.0896 76.0566 35.2698 76.5264 34.5301C76.9963 33.7903 77.3462 33.1405 77.6761 32.5307C77.9017 32.211 78.0645 31.8514 78.1559 31.471C77.826 31.561 77.4362 31.631 76.9263 31.8009C76.4165 31.9709 75.9266 32.0408 75.3668 32.2208C75.0369 32.6306 74.707 33.1205 74.3671 33.6004C73.9527 34.0965 73.5688 34.6173 73.2174 35.1599C72.7976 35.6497 72.4876 36.1596 72.1577 36.5495C71.8278 36.9394 71.4979 37.2793 71.348 37.5492C71.198 37.8191 71.0181 37.8791 70.8581 37.7891C70.7102 37.688 70.5954 37.5454 70.5282 37.3793C70.4628 37.1418 70.4358 36.8955 70.4483 36.6495C70.4458 36.4078 70.5311 36.1733 70.6882 35.9897C71.2253 35.43 71.7167 34.8283 72.1577 34.1902C72.5776 33.6104 72.8875 33.1305 73.2174 32.7107H72.5576C72.4452 32.6975 72.3366 32.6614 72.2386 32.6046C72.1406 32.5479 72.0552 32.4717 71.9878 32.3807C71.7684 32.1843 71.6002 31.9372 71.4979 31.6609C71.3652 31.4383 71.2833 31.1891 71.258 30.9312C71.258 30.6812 71.348 30.6012 71.5879 30.6012C71.9501 30.5677 72.3063 30.4871 72.6476 30.3613C73.1275 30.2014 73.6473 30.0314 74.2071 29.7815C74.767 29.5316 75.4368 29.3017 76.0066 29.0517C76.5921 28.8423 77.166 28.6021 77.7261 28.332C78.2059 28.082 78.7258 27.9121 79.0457 27.7521C79.251 27.6444 79.4694 27.5637 79.6955 27.5122C80.0069 27.56 80.2945 27.7073 80.5152 27.9321C80.8595 28.2225 81.1623 28.5589 81.415 28.9318C81.6639 29.3254 81.8844 29.7363 82.0748 30.1614C82.2147 30.4773 82.296 30.8161 82.3147 31.1611C82.2246 31.5862 82.0286 31.9817 81.7449 32.3108C81.415 32.8806 80.9351 33.6304 80.3553 34.4401C79.7755 35.2499 79.2156 36.1596 78.5558 37.0593C77.896 37.9591 77.1662 38.9488 76.6664 39.7585C76.1665 40.5683 75.6667 41.388 75.2768 42.0478C74.9926 42.5282 74.7994 43.0569 74.707 43.6074C74.797 43.6074 74.9469 43.4574 75.2768 43.1275C75.6067 42.7976 76.0066 42.3978 76.4265 41.8979C76.8463 41.3981 77.4262 40.8382 77.986 40.2684C78.5458 39.6986 79.0457 39.0388 79.5455 38.4589C80.0454 37.8791 80.5452 37.4592 80.9351 36.8994C81.325 36.3396 81.5449 36.1196 81.6949 35.8797Z" fill="#FAFAFA"/>
<path d="M92.752 27.1223C93.3687 27.3033 93.9731 27.5236 94.5615 27.7821C95.0413 27.942 95.2813 28.112 95.2813 28.262C95.2537 28.4604 95.2034 28.655 95.1313 28.8418C95.1014 28.9456 95.0359 29.0355 94.9463 29.0958C94.8568 29.1561 94.7489 29.183 94.6415 29.1717C94.2899 29.1666 93.9391 29.1366 93.5918 29.0818C92.932 28.9918 92.2022 28.9218 91.3025 28.8418C90.1528 30.1514 88.9232 31.541 87.6935 33.1705C86.4639 34.8 85.3242 36.3596 84.2646 38.0091C83.2561 39.5658 82.3799 41.2044 81.6453 42.9076C81.0235 44.3562 80.6842 45.9103 80.6456 47.4862C80.6396 47.5305 80.6446 47.5757 80.6603 47.6175C80.676 47.6594 80.7019 47.6967 80.7356 47.7261C80.7474 47.7261 80.7591 47.7285 80.77 47.733C80.781 47.7376 80.7909 47.7441 80.7992 47.7525C80.8076 47.7609 80.8142 47.7708 80.8187 47.7817C80.8233 47.7926 80.8256 47.8043 80.8256 47.8161C81.2755 47.6561 81.673 47.3761 81.9752 47.0064C82.5451 46.5165 83.2049 45.8567 84.0246 45.007C84.8444 44.1572 85.5842 43.3775 86.4839 42.3878C87.3836 41.3981 88.1934 40.4983 88.9432 39.5986C89.6929 38.6988 90.4127 37.9691 90.9926 37.2193C91.5724 36.4695 92.0422 36.0797 92.2222 35.8397C92.4021 35.5998 92.3721 35.7498 92.5521 35.8397L93.0319 36.0797C93.1647 36.2227 93.2759 36.3843 93.3618 36.5595C93.4518 36.7195 93.3618 36.8894 93.2019 37.1393C93.1219 37.2193 92.962 37.4592 92.6321 37.7891C92.3022 38.119 91.9023 38.6989 91.4024 39.2687C90.9026 39.8385 90.3427 40.4983 89.6829 41.2681L87.6835 43.5574C86.9538 44.2872 86.294 45.117 85.5542 45.7568C84.8144 46.3966 84.1646 47.1463 83.5048 47.7562C82.845 48.366 82.3651 48.7559 81.8753 49.1458C81.5451 49.4046 81.1515 49.5703 80.7356 49.6256C80.4318 49.6031 80.1306 49.5529 79.8359 49.4756C79.5212 49.3946 79.2366 49.2245 79.0161 48.9858C78.7593 48.7339 78.5642 48.426 78.4463 48.0861C78.275 47.6156 78.1936 47.117 78.2064 46.6165C78.2104 45.0068 78.453 43.4065 78.9262 41.8679C79.4412 40.1966 80.1105 38.5767 80.9256 37.0293C81.7624 35.4227 82.6938 33.8672 83.7147 32.3707C84.7744 30.8912 85.7641 29.5116 86.8238 28.192C86.094 28.102 85.5042 27.9521 85.0143 27.8621C84.5245 27.7721 84.2946 27.6222 84.2946 27.4422C84.2867 27.2228 84.3137 27.0034 84.3745 26.7924C84.4444 26.5676 84.5279 26.3473 84.6245 26.1326C84.7617 25.9216 84.9227 25.7271 85.1043 25.5528C85.3725 25.3825 85.6866 25.2987 86.004 25.3129C86.265 25.4167 86.543 25.4709 86.8238 25.4728C87.083 25.5693 87.357 25.62 87.6336 25.6228C87.9942 25.6709 88.3491 25.7547 88.6932 25.8727C89.857 24.5585 91.1132 23.329 92.4521 22.1938C93.5118 21.2941 94.1716 20.8042 94.5015 20.8042C94.6393 20.8059 94.7753 20.8361 94.9009 20.8929C95.0265 20.9496 95.139 21.0318 95.2313 21.1341C95.4594 21.345 95.6518 21.5915 95.8011 21.8639C95.9366 22.1261 96.0471 22.4006 96.131 22.6836C96.1877 22.8681 96.2147 23.0605 96.211 23.2535C95.9363 23.681 95.5993 24.0651 95.2113 24.3932C94.5615 25.1629 93.7217 26.0626 92.752 27.1223Z" fill="#FAFAFA"/>
<path d="M92.9707 42.2579C92.8041 42.2962 92.6404 42.3462 92.4809 42.4078C92.2343 42.5008 92.0097 42.6438 91.8211 42.8277C91.6425 42.9409 91.4809 43.0789 91.3412 43.2376C91.2512 43.3975 91.2512 43.4875 91.4212 43.4875C92.0522 43.6329 92.713 43.577 93.3106 43.3276C93.9526 43.1132 94.5616 42.8103 95.1201 42.4278C95.67 41.9996 96.191 41.5353 96.6796 41.0382C97.1537 40.589 97.5853 40.0971 97.9692 39.5687C98.2883 39.161 98.56 38.7182 98.779 38.2491C98.8822 38.0141 98.9625 37.7697 99.0189 37.5193C99.0189 37.4494 98.779 37.4394 98.3691 37.5193C97.9592 37.5993 97.4594 37.7592 96.8896 37.9392C96.3197 38.1191 95.7499 38.2691 95.0901 38.419C94.5831 38.5687 94.059 38.6527 93.5306 38.6689C93.4406 38.6689 93.3706 38.579 93.2007 38.3391C93.0199 38.0767 92.8563 37.8028 92.7108 37.5193C92.5608 37.1894 92.3809 36.9495 92.3009 36.7096C92.2186 36.529 92.1647 36.3368 92.141 36.1397C92.141 35.9798 92.3009 35.7198 92.6308 35.4099C92.9607 35.1 93.3606 34.6802 93.8605 34.2603C94.4319 33.7861 95.033 33.3487 95.6599 32.9507C96.3484 32.4629 97.0855 32.0475 97.8593 31.7111C98.651 31.3396 99.474 31.0385 100.319 30.8113C101.142 30.5599 101.997 30.4221 102.858 30.4015C103.002 30.3844 103.148 30.3968 103.287 30.4381C103.427 30.4793 103.556 30.5485 103.668 30.6414C103.82 30.8371 103.933 31.0614 103.997 31.3012C104.008 31.6037 103.978 31.9064 103.907 32.2009C103.817 32.5075 103.706 32.808 103.578 33.1006C103.428 33.3405 103.248 33.5905 103.168 33.7604C103.088 33.9304 102.928 34.0004 102.748 34.0004C101.728 33.9995 100.715 34.1649 99.7487 34.4902C98.8747 34.7645 98.028 35.1193 97.2195 35.5499C96.6485 35.8356 96.1033 36.1701 95.5899 36.5496C95.1901 36.8795 95.1001 37.0394 95.1701 37.0394C95.24 37.0394 95.5 36.9495 95.8998 36.8795C96.2997 36.8095 96.7996 36.6396 97.2894 36.5496C97.7793 36.4596 98.4291 36.3096 98.9989 36.2197C99.5391 36.1396 100.088 36.1396 100.628 36.2197C101.07 36.2893 101.49 36.4568 101.858 36.7096C102.033 36.8599 102.169 37.0502 102.254 37.2643C102.339 37.4784 102.371 37.7099 102.348 37.9392C102.269 38.5933 102.017 39.2145 101.618 39.7386C101.054 40.6122 100.382 41.4115 99.6187 42.1179C98.7358 42.9448 97.7225 43.6204 96.6196 44.1173C95.4869 44.7094 94.2288 45.0213 92.9507 45.027C92.507 45.0125 92.0655 44.959 91.6311 44.8671C91.2399 44.8032 90.8735 44.6339 90.5714 44.3773C90.2735 44.2352 90.0234 44.0093 89.8517 43.7274C89.698 43.4808 89.6118 43.1981 89.6017 42.9077C89.5972 42.59 89.6839 42.2778 89.8517 42.008C90.0196 41.6994 90.2394 41.4221 90.5015 41.1882C90.757 40.974 91.0314 40.7833 91.3212 40.6184C91.571 40.4817 91.8471 40.3999 92.131 40.3785C92.2209 40.3785 92.2909 40.4684 92.3809 40.6184C92.4709 40.7683 92.5309 40.9483 92.6208 41.1082C92.7166 41.2836 92.7713 41.4785 92.7808 41.6781C92.8299 41.7813 92.8571 41.8937 92.8608 42.008C92.8608 42.008 93.0807 42.2579 92.9707 42.2579Z" fill="#FAFAFA"/>
</svg>
