<svg width="104" height="64" viewBox="0 0 104 64" fill="none" xmlns="http://www.w3.org/2000/svg">
<path d="M56.9805 18.2999H58.8805V23.6398H60.1505V18.2999H62.0405V17.1099H56.9805V18.2999Z" fill="#FAFAFA"/>
<path d="M64.6496 17.1099H63.3496V23.6398H64.6496V17.1099Z" fill="#FAFAFA"/>
<path d="M70.8794 21.3698L67.6895 17.1099H66.4395V23.6398H67.7195V19.3998L70.9095 23.6398H72.1395V17.1099H70.8794V21.3698Z" fill="#FAFAFA"/>
<path d="M77.3601 21.4398H78.5701C78.4668 21.7959 78.2425 22.1047 77.9357 22.3128C77.6289 22.521 77.2591 22.6154 76.8901 22.5798C76.6037 22.5885 76.3187 22.5376 76.053 22.4305C75.7873 22.3234 75.5467 22.1623 75.3465 21.9574C75.1463 21.7524 74.9908 21.5082 74.8898 21.2401C74.7889 20.972 74.7447 20.6858 74.7601 20.3997C74.7425 20.1209 74.7805 19.8415 74.8718 19.5775C74.9631 19.3135 75.1059 19.0702 75.292 18.8618C75.478 18.6534 75.7036 18.484 75.9556 18.3635C76.2076 18.243 76.4811 18.1738 76.7601 18.1597C77.0801 18.1282 77.4017 18.2033 77.6747 18.3733C77.9478 18.5432 78.1571 18.7986 78.2701 19.0997V19.2898H79.5401V19.0097C79.3898 18.3985 79.0261 17.8611 78.5145 17.4943C78.0029 17.1276 77.3772 16.9558 76.7501 17.0097C76.3042 17.0094 75.8629 17.0991 75.4526 17.2735C75.0423 17.4479 74.6715 17.7035 74.3623 18.0247C74.0532 18.346 73.8122 18.7264 73.6537 19.1431C73.4952 19.5599 73.4225 20.0043 73.4401 20.4498C73.4247 20.8978 73.5016 21.3442 73.6661 21.7612C73.8305 22.1782 74.0789 22.5569 74.3959 22.8739C74.7129 23.1908 75.0916 23.4393 75.5087 23.6037C75.9257 23.7682 76.372 23.8451 76.8201 23.8298C77.522 23.8586 78.2117 23.6401 78.7691 23.2125C79.3265 22.7849 79.7161 22.1751 79.8701 21.4897H80.5701V20.2898H77.3301V21.4697L77.3601 21.4398Z" fill="#FAFAFA"/>
<path d="M97.3805 17.1099L96.0805 19.6898L94.4705 17.1099H92.9805L95.4205 21.0098L94.0805 23.6398H95.5105L98.7805 17.1099H97.3805Z" fill="#FAFAFA"/>
<path d="M84.1902 20.2797H82.9402V18.2797H84.1902C84.4554 18.2797 84.7097 18.385 84.8973 18.5725C85.0848 18.76 85.1902 19.0144 85.1902 19.2797C85.1902 19.5449 85.0848 19.7993 84.8973 19.9868C84.7097 20.1744 84.4554 20.2797 84.1902 20.2797V20.2797ZM85.3002 21.1597C85.6215 20.9649 85.887 20.6903 86.071 20.3627C86.255 20.035 86.3511 19.6654 86.3502 19.2897C86.3476 18.7148 86.1202 18.1637 85.7165 17.7544C85.3128 17.3451 84.7649 17.1101 84.1902 17.0996H81.6602V23.6196H82.9202V21.4597H84.0002L85.0002 23.6196H86.4402L85.3002 21.1597Z" fill="#FAFAFA"/>
<path d="M89.4909 21.1499L90.1909 19.0699L90.8809 21.1499H89.4909ZM90.7609 17.1499V17.0898H89.6309L87.3809 23.6299H88.7709L89.2509 22.1699H91.1609L91.6409 23.6299H93.0009L90.7609 17.1499Z" fill="#FAFAFA"/>
<path d="M54.5692 19.8799L53.3992 19.6199C52.9192 19.4999 52.6792 19.2899 52.6792 18.9099C52.6792 18.5299 53.0892 18.1399 53.6792 18.1399C53.9354 18.1151 54.1924 18.1777 54.4084 18.3175C54.6245 18.4573 54.7869 18.6661 54.8692 18.9099H56.2092C56.0996 18.3373 55.7784 17.8271 55.3096 17.4806C54.8408 17.1341 54.2587 16.9767 53.6792 17.0399C53.3932 17.0065 53.1034 17.0329 52.8282 17.1173C52.5529 17.2017 52.2981 17.3425 52.0801 17.5305C51.862 17.7185 51.6853 17.9498 51.5612 18.2096C51.4371 18.4694 51.3684 18.7521 51.3592 19.0399C51.3592 20.0999 52.0692 20.5999 52.9992 20.8099L54.1592 21.0699C54.7192 21.1899 54.9392 21.3999 54.9392 21.7899C54.9392 22.1799 54.5092 22.6099 53.8692 22.6099C53.593 22.6395 53.315 22.5731 53.0819 22.422C52.8489 22.2708 52.6749 22.0442 52.5892 21.7799H51.1992C51.3249 22.3805 51.6705 22.9124 52.1681 23.2713C52.6658 23.6303 53.2797 23.7902 53.8892 23.7198C55.2592 23.7198 56.2792 22.9598 56.2792 21.7198C56.2554 21.26 56.0679 20.8239 55.7507 20.4901C55.4334 20.1563 55.0073 19.947 54.5492 19.8999" fill="#FAFAFA"/>
<path d="M84.9992 40.8698V35.4998L81.5692 40.8698H84.9992ZM84.9992 44.7297H77.1992V41.1498L84.8592 30.2297H88.9392V40.9298H91.3492V44.7898H88.9392V47.3597H84.9992V44.7297Z" fill="#FAFAFA"/>
<path d="M91.9902 30.1897H95.8402V39.1197L99.4402 34.4797H104L99.1602 40.1097L103.86 47.3197H99.5102L95.8402 41.1297V47.3197H91.9902V30.1897Z" fill="#FAFAFA"/>
<path d="M1.47 34.5098H0V31.5098H1.47V30.9398C1.47 27.0898 4.32 26.7598 7.11 26.7598V29.7598C6.36 29.7598 5.44 29.7598 5.44 31.0298V31.5298H7.11V34.5298H5.44V44.7698H1.44L1.47 34.5098Z" fill="#FAFAFA"/>
<path d="M13.4903 34.3898C14.1557 34.3331 14.82 34.5111 15.3679 34.8929C15.9159 35.2746 16.3129 35.836 16.4903 36.4798H10.5603C10.7342 35.8339 11.1305 35.2702 11.6793 34.8879C12.2281 34.5055 12.8942 34.3291 13.5603 34.3898H13.4903ZM15.8403 40.8199C15.5759 41.1581 15.2325 41.4263 14.8401 41.6006C14.4478 41.775 14.0186 41.8503 13.5903 41.8199C12.8917 41.8591 12.2026 41.6435 11.6509 41.2132C11.0992 40.7828 10.7224 40.1669 10.5903 39.4798H20.4503C20.654 38.3519 20.5929 37.1922 20.2718 36.092C19.9508 34.9917 19.3786 33.9811 18.6003 33.1398C17.957 32.4636 17.1807 31.9279 16.3201 31.5664C15.4596 31.205 14.5336 31.0257 13.6003 31.0398C12.6726 31.0397 11.7541 31.2241 10.8982 31.5821C10.0424 31.9401 9.26621 32.4646 8.61488 33.1253C7.96355 33.7859 7.45004 34.5695 7.10419 35.4303C6.75835 36.2912 6.58707 37.2122 6.60032 38.1398C6.60032 39.9963 7.33782 41.7768 8.65058 43.0895C9.96333 44.4023 11.7438 45.1398 13.6003 45.1398C14.9543 45.1517 16.2773 44.7352 17.3803 43.9499C18.5076 43.137 19.4037 42.0444 19.9803 40.7798L15.8403 40.8199Z" fill="#FAFAFA"/>
<path d="M32.4092 34.5098H30.4492V31.4898H32.4092V26.8098H36.3692V31.4898H38.2692V34.5098H36.3692V44.7498H32.4092V34.5098Z" fill="#FAFAFA"/>
<path d="M42.6399 31.4897H38.6699V44.7298H42.6399V31.4897Z" fill="#FAFAFA"/>
<path d="M51.2395 44.7498H47.4395L42.6895 31.4897H46.7995L49.3695 39.7598L51.9095 31.4897H56.0195L51.2395 44.7498Z" fill="#FAFAFA"/>
<path d="M58.9991 38.1498C58.9964 38.5844 59.0799 39.0152 59.2447 39.4173C59.4095 39.8194 59.6523 40.185 59.9591 40.4927C60.266 40.8005 60.6307 41.0444 61.0323 41.2104C61.434 41.3764 61.8645 41.4612 62.2991 41.4599C62.85 41.4843 63.3973 41.3608 63.8844 41.1023C64.3715 40.8439 64.7805 40.4597 65.0691 39.9898C65.3897 39.4771 65.5786 38.8932 65.6191 38.2898C65.6695 37.6874 65.5554 37.0826 65.2891 36.5398C65.0289 35.9694 64.6045 35.4896 64.07 35.1618C63.5356 34.834 62.9155 34.6732 62.2891 34.6999C61.8428 34.6979 61.4009 34.787 60.9902 34.9617C60.5796 35.1365 60.209 35.3933 59.901 35.7162C59.593 36.0392 59.3542 36.4216 59.1991 36.84C59.044 37.2585 58.976 37.7042 58.9991 38.1498ZM69.5791 44.7198H65.5791V43.2798C65.1449 43.907 64.5555 44.4107 63.8685 44.742C63.1814 45.0733 62.4201 45.2207 61.6591 45.1698C57.4591 45.1698 54.9991 41.8799 54.9991 38.0799C54.9475 37.1724 55.0813 36.2639 55.3924 35.4098C55.7035 34.5558 56.1854 33.7742 56.8086 33.1126C57.4319 32.451 58.1834 31.9233 59.0174 31.5618C59.8513 31.2003 60.7502 31.0124 61.6591 31.0098C62.4163 30.9643 63.1727 31.111 63.8581 31.4362C64.5434 31.7614 65.1354 32.2545 65.5791 32.8698V31.4599H69.5791V44.7198Z" fill="#FAFAFA"/>
<path d="M74.9993 26.8098H71.0293V44.7299H74.9993V26.8098Z" fill="#FAFAFA"/>
<path d="M26.4308 36.4098C25.3808 36.0998 24.4308 35.6997 24.4308 35.0997C24.4308 34.7297 24.7008 34.2098 25.5508 34.2098C26.7308 34.2098 26.7708 34.9198 26.8008 35.2098H30.6808C30.3508 31.7198 27.3408 31.0298 25.6008 31.0298C22.8708 31.0298 20.4708 32.7798 20.4708 35.5198C20.4708 37.3098 21.9108 38.4297 23.6308 38.9897C26.1608 39.9897 27.1308 40.0797 27.1308 40.9897C27.1308 41.6297 26.4208 41.9897 25.7408 41.9897C25.3827 42.0163 25.0279 41.9063 24.7478 41.6818C24.4676 41.4573 24.2829 41.135 24.2308 40.7798H20.3008C20.6608 44.2598 23.7008 45.1598 25.6908 45.1598C28.6208 45.1598 31.0808 43.4498 31.0808 40.5298C31.0808 37.6098 28.6908 36.9998 26.4508 36.3698" fill="#FAFAFA"/>
</svg>
