<svg width="104" height="64" viewBox="0 0 104 64" fill="none" xmlns="http://www.w3.org/2000/svg">
<path d="M10.2 21.4807L18.38 19.9507V43.1306H20.56V43.7705H12.33V41.6406C11.8531 42.2834 11.2914 42.8586 10.66 43.3506C9.92289 43.9378 9.00209 44.2461 8.06 44.2207C6.83906 44.2461 5.62944 43.9822 4.53 43.4507C3.56 42.9711 2.7041 42.2891 2.02 41.4507C1.33507 40.5848 0.819415 39.5974 0.5 38.5405C0.169232 37.4649 0.000712634 36.3461 0 35.2207C0.0006614 34.0986 0.169193 32.9829 0.5 31.9106C0.823945 30.8648 1.33935 29.8881 2.02 29.0305C2.7041 28.1921 3.56 27.5101 4.53 27.0305C5.62944 26.499 6.83906 26.2353 8.06 26.2607C9.00992 26.2197 9.95419 26.4263 10.8 26.8606C11.4479 27.2156 11.9792 27.7505 12.33 28.4006V21.8206L10.2 22.2207V21.4807ZM6.93 37.1606C6.93 38.4506 6.93 39.4807 7.03 40.2507C7.06664 40.8455 7.1775 41.4334 7.36 42.0007C7.4547 42.3405 7.67678 42.6304 7.98 42.8105C8.29448 42.9502 8.63599 43.0187 8.98 43.0107C9.33165 43.0035 9.6757 42.9071 9.98 42.7307C10.3179 42.5296 10.6273 42.2841 10.9 42.0007C11.2016 41.6943 11.4729 41.3594 11.71 41.0007C11.9292 40.7001 12.1296 40.386 12.31 40.0605V29.6606C11.9373 28.9898 11.4691 28.3767 10.92 27.8406C10.6587 27.5781 10.3465 27.3717 10.0026 27.2341C9.65866 27.0966 9.29027 27.0307 8.92 27.0405C8.56505 27.0223 8.21389 27.1207 7.92 27.3206C7.61774 27.5842 7.40173 27.9326 7.3 28.3206C7.11001 28.9211 6.9925 29.5422 6.95 30.1707C6.89 30.9507 6.85 31.9306 6.85 33.1106L6.93 37.1606Z" fill="#FAFAFA"/>
<path d="M30.3503 50.3105C29.905 51.7286 29.177 53.0418 28.2103 54.1707C27.2668 55.2366 26.0988 56.0802 24.7903 56.6406C23.3551 57.2483 21.8085 57.548 20.2503 57.5205C18.9115 57.5801 17.5863 57.2313 16.4503 56.5205C15.9633 56.2082 15.5655 55.7751 15.2956 55.2634C15.0257 54.7517 14.893 54.1788 14.9103 53.6006C14.8944 53.1828 14.9704 52.7666 15.1328 52.3813C15.2952 51.9961 15.5401 51.651 15.8503 51.3706C16.4098 50.8261 17.1595 50.5211 17.9403 50.5205C18.7138 50.4984 19.4685 50.762 20.0603 51.2607C20.3547 51.5384 20.5836 51.8779 20.7306 52.2549C20.8777 52.6319 20.939 53.037 20.9103 53.4407C20.9196 53.8407 20.8267 54.2365 20.6403 54.5906C20.4623 54.9067 20.2285 55.188 19.9503 55.4207C19.6859 55.6313 19.3886 55.7969 19.0703 55.9106C18.7952 56.0152 18.5044 56.0726 18.2103 56.0806C18.6338 56.4142 19.1614 56.5877 19.7003 56.5706C20.0659 56.5668 20.4293 56.5131 20.7803 56.4106C21.144 56.3034 21.4836 56.1268 21.7803 55.8906C22.1048 55.6203 22.3616 55.2778 22.5303 54.8906C22.7445 54.3993 22.847 53.8664 22.8303 53.3306V20.1907L19.8303 20.6306V19.7407L31.0603 17.9807V45.3406C31.0806 47.0367 30.8274 48.7251 30.3103 50.3406" fill="#FAFAFA"/>
<path d="M49.7808 19.7308C51.0603 19.9429 52.2803 20.4233 53.3608 21.1407C54.2651 21.7869 54.9604 22.6839 55.3608 23.7208C55.8165 24.9762 56.0335 26.3056 56.0008 27.6407V39.2007C55.9732 39.9033 56.0749 40.6048 56.3008 41.2706C56.427 41.5275 56.6316 41.7377 56.8851 41.8707C57.1385 42.0037 57.4277 42.0529 57.7108 42.0108C57.9612 42.0386 58.2144 41.9962 58.4422 41.8885C58.67 41.7808 58.8634 41.6119 59.0008 41.4007C59.2546 40.9573 59.4305 40.4737 59.5208 39.9708C59.5208 39.6408 59.7108 39.4808 59.9608 39.4808C60.2108 39.4808 60.2908 39.6207 60.2908 39.9207C60.286 40.3672 60.2221 40.8111 60.1008 41.2408C59.9557 41.751 59.6677 42.2088 59.2708 42.5606C58.7532 43.0255 58.1481 43.3825 57.4908 43.6107C56.4777 43.9387 55.4151 44.0876 54.3508 44.0506C52.8678 44.1318 51.3885 43.8361 50.0508 43.1907C49.1848 42.7587 48.4828 42.0567 48.0508 41.1907C47.7126 41.5214 47.3553 41.8318 46.9808 42.1207C46.5209 42.4737 46.0326 42.7881 45.5208 43.0606C44.9183 43.3727 44.2803 43.6111 43.6208 43.7706C42.8187 43.9639 41.9958 44.058 41.1708 44.0506C39.9264 44.071 38.6879 43.8749 37.5108 43.4708C36.5423 43.132 35.6539 42.5975 34.9008 41.9007C34.2048 41.2515 33.6676 40.4508 33.3308 39.5606C32.9785 38.6588 32.7987 37.699 32.8008 36.7308C32.8071 35.7583 32.9936 34.7952 33.3508 33.8907C33.7247 32.9464 34.2977 32.0937 35.0308 31.3907C35.8415 30.6161 36.7962 30.008 37.8408 29.6007C39.0965 29.1156 40.435 28.8813 41.7808 28.9107H47.7208V24.5008C47.7745 23.4406 47.5686 22.3832 47.1208 21.4207C46.7108 20.6907 45.8308 20.3206 44.4708 20.3206C43.4349 20.2675 42.3969 20.3687 41.3908 20.6207C40.8408 20.8307 40.5708 21.0707 40.5708 21.3707C40.5762 21.4888 40.6146 21.603 40.6818 21.7003C40.749 21.7975 40.8422 21.8739 40.9508 21.9207C41.2788 22.1365 41.544 22.435 41.7196 22.7862C41.8952 23.1374 41.9749 23.5288 41.9508 23.9207C41.9417 24.2003 41.9049 24.4785 41.8408 24.7508C41.7625 25.0827 41.6123 25.3932 41.4008 25.6607C41.1479 25.9558 40.8385 26.1971 40.4908 26.3707C40.0175 26.5979 39.4953 26.7045 38.9708 26.6807C38.2259 26.6898 37.4999 26.4467 36.9108 25.9908C36.587 25.7097 36.3353 25.3548 36.177 24.9564C36.0186 24.5579 35.9582 24.1274 36.0008 23.7007C36.0092 22.9739 36.2412 22.2672 36.6652 21.6768C37.0893 21.0864 37.6847 20.6409 38.3708 20.4007C40.2687 19.6077 42.315 19.2324 44.3708 19.3006C46.1495 19.277 47.9268 19.4144 49.6808 19.7108L49.7808 19.7308ZM45.4108 29.8707C44.7493 29.8288 44.0902 29.9843 43.517 30.3172C42.9439 30.6501 42.4823 31.1455 42.1908 31.7408C41.4773 33.2729 41.1347 34.9515 41.1908 36.6407C41.1068 38.1406 41.3035 39.6429 41.7708 41.0706C41.9117 41.4827 42.1833 41.8377 42.5443 42.0814C42.9053 42.325 43.3359 42.4441 43.7708 42.4207C44.1187 42.3908 44.4579 42.2958 44.7708 42.1407C45.2317 41.9501 45.6764 41.7228 46.1008 41.4608C46.5164 41.2015 46.8934 40.8849 47.2208 40.5206C47.4927 40.2547 47.6596 39.8996 47.6908 39.5206V29.8907L45.4108 29.8707Z" fill="#FAFAFA"/>
<path d="M81.5099 21.0806L69.3999 42.5007H74.6299C75.5105 42.5652 76.3947 42.4436 77.2252 42.1438C78.0556 41.844 78.8136 41.3728 79.4499 40.7607C80.5924 39.4751 81.3116 37.869 81.5099 36.1606H82.0599V43.3806H60.9199V42.1606L73.3699 20.6406H68.6299C67.1481 20.6286 65.7086 21.1343 64.5599 22.0706C63.9306 22.5994 63.4193 23.2546 63.0593 23.9937C62.6993 24.7327 62.4985 25.539 62.4699 26.3606H61.9099V19.7507H81.5099V21.0806Z" fill="#FAFAFA"/>
<path d="M103.449 21.0806L91.3394 42.5007H96.5694C97.4485 42.5663 98.3315 42.4451 99.1605 42.1453C99.9895 41.8454 100.746 41.3736 101.379 40.7607C102.529 39.4786 103.252 37.8712 103.449 36.1606H103.999V43.3806H82.8594V42.1606L95.2994 20.6406H90.5694C89.0845 20.6288 87.6419 21.1343 86.4894 22.0706C85.8615 22.6007 85.3512 23.2561 84.9913 23.9949C84.6314 24.7336 84.4298 25.5394 84.3994 26.3606H83.8494V19.7507H103.449V21.0806Z" fill="#FAFAFA"/>
<path d="M28.9993 14.8706C28.6878 15.1911 28.3145 15.4451 27.9019 15.6169C27.4894 15.7888 27.0462 15.8751 26.5993 15.8706C26.1537 15.8761 25.7118 15.7902 25.3007 15.6182C24.8896 15.4462 24.5182 15.1918 24.2093 14.8706C23.8874 14.5602 23.6325 14.187 23.4605 13.7742C23.2885 13.3614 23.203 12.9179 23.2093 12.4707C23.203 12.0235 23.2885 11.5798 23.4605 11.167C23.6325 10.7542 23.8874 10.381 24.2093 10.0706C24.5182 9.74939 24.8896 9.495 25.3007 9.323C25.7118 9.15101 26.1537 9.06505 26.5993 9.07056C27.0462 9.06604 27.4894 9.15233 27.9019 9.32422C28.3145 9.49612 28.6878 9.75004 28.9993 10.0706C29.3217 10.3806 29.5769 10.7536 29.7489 11.1665C29.921 11.5794 30.0062 12.0235 29.9993 12.4707C30.0062 12.918 29.921 13.3618 29.7489 13.7747C29.5769 14.1876 29.3217 14.5606 28.9993 14.8706" fill="#FAFAFA"/>
<path d="M56.7207 7.52065H58.8707V13.5507H60.3007V7.52065H62.4407V6.17065H56.7207V7.52065Z" fill="#FAFAFA"/>
<path d="M65.3997 6.17065H63.9297V13.5607H65.3997V6.17065Z" fill="#FAFAFA"/>
<path d="M72.4299 10.9907L68.8199 6.17065H67.4199V13.5507H68.8599V8.74065L72.4699 13.5507H73.8699V6.17065H72.4299V10.9907Z" fill="#FAFAFA"/>
<path d="M79.7597 11.0605H81.1397C81.021 11.4648 80.7657 11.8153 80.4174 12.0524C80.0691 12.2895 79.6493 12.3984 79.2297 12.3605C78.9052 12.3694 78.5825 12.3107 78.2819 12.1882C77.9814 12.0656 77.7096 11.8818 77.4839 11.6486C77.2582 11.4154 77.0835 11.1378 76.9708 10.8334C76.8582 10.529 76.8101 10.2045 76.8297 9.88054C76.8108 9.56223 76.8561 9.24327 76.9628 8.9428C77.0696 8.64232 77.2356 8.36657 77.4511 8.13152C77.6665 7.89646 77.9271 7.70705 78.2171 7.57463C78.5072 7.44221 78.8209 7.36934 79.1397 7.36052C79.5002 7.32495 79.8625 7.40824 80.1713 7.59783C80.48 7.78741 80.7183 8.07292 80.8497 8.41057V8.62053H82.2797V8.30046C82.1124 7.60276 81.7007 6.98818 81.1191 6.56804C80.5375 6.1479 79.8246 5.95024 79.1097 6.01067C78.6061 6.01036 78.1076 6.1115 77.6439 6.30803C77.1803 6.50456 76.761 6.79236 76.411 7.15447C76.061 7.51657 75.7876 7.94537 75.6069 8.41545C75.4263 8.88554 75.3422 9.38726 75.3597 9.89055C75.3444 10.3972 75.4331 10.9017 75.6202 11.3727C75.8074 11.8438 76.0892 12.2714 76.4481 12.6293C76.8069 12.9873 77.2354 13.2678 77.7069 13.4538C78.1784 13.6397 78.6831 13.7272 79.1897 13.7106C79.9869 13.756 80.7739 13.5132 81.4072 13.0268C82.0405 12.5403 82.4779 11.8425 82.6397 11.0605H83.4197V9.71062H79.7497L79.7597 11.0605Z" fill="#FAFAFA"/>
<path d="M102.41 6.17065L100.94 9.08065L99.1097 6.17065H97.4297L100.19 10.5807L98.6897 13.5507H100.28L104 6.17065H102.41Z" fill="#FAFAFA"/>
<path d="M88.7404 10.7507C89.1079 10.5327 89.412 10.2222 89.6226 9.85034C89.8331 9.47845 89.9426 9.05795 89.9404 8.63062C89.9404 7.9807 89.6843 7.35689 89.2276 6.89453C88.7708 6.43217 88.1503 6.16854 87.5004 6.16064H84.6504V13.5405H86.0804V11.1006H87.2804L88.4004 13.5505H90.0004L88.7404 10.7507ZM87.5004 9.75073H86.0804V7.53052H87.4904C87.783 7.53315 88.0628 7.65125 88.2688 7.85913C88.4748 8.06701 88.5904 8.34796 88.5904 8.64062C88.5917 8.78508 88.5646 8.92829 88.5105 9.06226C88.4564 9.19622 88.3765 9.31831 88.2753 9.42139C88.1741 9.52446 88.0535 9.60659 87.9206 9.66309C87.7876 9.71958 87.6448 9.74943 87.5004 9.75073" fill="#FAFAFA"/>
<path d="M94.9198 6.23071V6.16064H93.6498L91.0898 13.5505H92.6598L93.1998 11.9006H95.3698L95.9098 13.5505H97.4798L94.9198 6.23071ZM93.4898 10.6907L94.2598 8.35059L95.0398 10.6907H93.4898Z" fill="#FAFAFA"/>
<path d="M53.9999 9.31061L52.6699 9.0008C52.1199 8.8708 51.8499 8.62075 51.8499 8.20075C51.8499 7.78075 52.3199 7.34064 52.9999 7.34064C53.2902 7.31167 53.5817 7.38186 53.8268 7.53986C54.072 7.69786 54.2564 7.93448 54.3499 8.21076H55.8599C55.7356 7.56131 55.3713 6.98254 54.8394 6.58966C54.3076 6.19679 53.6472 6.01852 52.9899 6.09064C52.6674 6.05472 52.341 6.08534 52.0309 6.18073C51.7207 6.27612 51.4335 6.43439 51.1869 6.64533C50.9403 6.85627 50.7397 7.11541 50.5975 7.40705C50.4552 7.69869 50.3744 8.01648 50.3599 8.34064C50.3599 9.54064 51.1699 10.1006 52.2199 10.3406L53.5299 10.6407C54.1599 10.7807 54.4199 11.0208 54.4199 11.4608C54.4199 11.9008 53.9299 12.3707 53.1999 12.3707C52.8867 12.4063 52.5709 12.3319 52.3064 12.1605C52.042 11.989 51.8452 11.7312 51.7499 11.4307H50.1699C50.3077 12.1044 50.6912 12.7026 51.2456 13.1092C51.8001 13.5158 52.486 13.7017 53.1699 13.6307C54.7099 13.6307 55.8799 12.7807 55.8799 11.3607C55.8799 10.2607 55.1499 9.58066 53.9599 9.36066" fill="#FAFAFA"/>
</svg>
