<svg width="104" height="64" viewBox="0 0 104 64" fill="none" xmlns="http://www.w3.org/2000/svg">
<path d="M53.7051 18.619H55.9944V25.0371H57.5239V18.619H59.7933V17.1794H53.7051V18.619Z" fill="#FAFAFA"/>
<path d="M62.9423 17.1794H61.3828V25.0371H62.9423V17.1794Z" fill="#FAFAFA"/>
<path d="M70.4202 22.318L66.5814 17.1796H65.0918V25.0373H66.6213V19.9187L70.4602 25.0373H71.9498V17.1796H70.4202V22.318Z" fill="#FAFAFA"/>
<path d="M78.2187 22.3881H79.6883C79.562 22.8113 79.2949 23.1788 78.9313 23.4296C78.5678 23.6805 78.1294 23.7997 77.6889 23.7675C77.3435 23.7764 77.0001 23.7136 76.6803 23.583C76.3605 23.4525 76.0712 23.257 75.8307 23.009C75.5902 22.761 75.4038 22.4659 75.2831 22.1422C75.1624 21.8185 75.1102 21.4733 75.1296 21.1284C75.1094 20.7897 75.1576 20.4503 75.2712 20.1306C75.3848 19.8108 75.5616 19.5173 75.7911 19.2673C76.0206 19.0173 76.298 18.816 76.6069 18.6754C76.9157 18.5349 77.2497 18.458 77.5889 18.4492C77.9728 18.412 78.3582 18.5014 78.6867 18.7035C79.0151 18.9056 79.2685 19.2094 79.4084 19.5688L79.4584 19.7887H81.0079L80.9579 19.4589C80.7795 18.7166 80.3423 18.0623 79.7248 17.6134C79.1073 17.1645 78.35 16.9505 77.5889 17.0097C77.0527 17.0094 76.5218 17.1169 76.028 17.326C75.5342 17.535 75.0874 17.8412 74.7144 18.2263C74.3413 18.6115 74.0495 19.0679 73.8564 19.5681C73.6632 20.0684 73.5727 20.6025 73.5901 21.1384C73.572 21.6777 73.6649 22.2147 73.8629 22.7166C74.061 23.2184 74.3601 23.6743 74.7415 24.0558C75.123 24.4373 75.5788 24.7362 76.0807 24.9343C76.5825 25.1324 77.1197 25.2253 77.6589 25.2072C78.5082 25.2562 79.3469 24.9985 80.0221 24.4811C80.6974 23.9636 81.1643 23.2209 81.3378 22.3881H82.1675V20.9484H78.2587L78.2187 22.3881Z" fill="#FAFAFA"/>
<path d="M102.3 17.1794L100.741 20.2786L98.8012 17.1794H97.0117L99.9508 21.8781L98.3513 25.0371H100.051L104 17.1794H102.3Z" fill="#FAFAFA"/>
<path d="M87.7738 22.058C88.1629 21.8252 88.4853 21.4959 88.7095 21.1017C88.9337 20.7076 89.0522 20.2621 89.0534 19.8087C89.0535 19.1165 88.7806 18.4523 88.294 17.9601C87.8074 17.4679 87.1463 17.1873 86.4542 17.1794H83.4551V25.0271H84.9846V22.4279H86.2542L87.4439 25.0371H89.1734L87.7738 22.058ZM86.4442 20.9884H84.9446V18.6191H86.4342C86.5899 18.6191 86.7442 18.6498 86.8879 18.7097C87.0317 18.7697 87.1622 18.8575 87.2719 18.9681C87.3816 19.0787 87.4682 19.2099 87.5269 19.3542C87.5856 19.4985 87.6152 19.6529 87.6138 19.8087C87.6113 20.119 87.4875 20.416 87.269 20.6364C87.0505 20.8568 86.7545 20.9832 86.4442 20.9884" fill="#FAFAFA"/>
<path d="M94.3418 17.2495V17.1794H93.0022L90.293 25.0371H91.9525L92.5323 23.2876H94.8316L95.4114 25.0371H97.001L94.3418 17.2495ZM92.8222 21.9981L93.642 19.4988L94.4717 21.9981H92.8222Z" fill="#FAFAFA"/>
<path d="M50.8166 20.5185L49.397 20.1886C48.8172 20.0586 48.5273 19.7888 48.5273 19.3489C48.5273 18.909 49.0171 18.4391 49.7469 18.4391C50.0543 18.4072 50.3633 18.4809 50.6232 18.648C50.883 18.8152 51.0782 19.066 51.1765 19.3589H52.786C52.6544 18.6682 52.2677 18.0522 51.7028 17.6336C51.1378 17.215 50.436 17.0244 49.7369 17.0996C49.3932 17.0608 49.0453 17.0933 48.7147 17.1949C48.3841 17.2965 48.0779 17.4651 47.8154 17.6902C47.5528 17.9153 47.3393 18.192 47.1883 18.5032C47.0373 18.8144 46.9521 19.1533 46.9378 19.4989C46.9378 20.7785 47.7975 21.3683 48.9372 21.6282L50.3267 21.9381C50.9965 22.088 51.2765 22.338 51.2765 22.8078C51.2765 23.4376 50.7566 23.8075 49.9769 23.8075C49.6433 23.8428 49.3076 23.7629 49.0258 23.581C48.7439 23.3992 48.5327 23.1263 48.4273 22.8078H46.7578C46.9205 23.5277 47.3429 24.1622 47.9442 24.5901C48.5455 25.018 49.2834 25.2093 50.0168 25.1272C51.6564 25.1272 52.896 24.2174 52.896 22.7079C52.8891 22.1613 52.6816 21.6362 52.313 21.2326C51.9444 20.829 51.4403 20.5748 50.8966 20.5185" fill="#FAFAFA"/>
<path d="M19.5649 29.9458H24.3435V31.7652C24.6117 31.3006 24.9683 30.8931 25.3932 30.5656C26.4537 29.7345 27.7759 29.3092 29.1221 29.366C29.8513 29.3493 30.5759 29.4857 31.2492 29.7664C31.9225 30.0471 32.5294 30.4658 33.0309 30.9955C33.4339 31.4156 33.7709 31.8941 34.0306 32.415C34.3721 31.8688 34.7857 31.3712 35.2602 30.9355C36.4062 29.8989 37.904 29.3377 39.449 29.366C40.2763 29.3393 41.1007 29.4785 41.8733 29.7755C42.646 30.0726 43.3513 30.5214 43.9476 31.0955C45.5472 32.785 45.7971 33.9246 45.7971 37.7135V47.0507H40.6786V37.9634C40.7278 37.1465 40.6157 36.3278 40.3487 35.5541C40.1759 35.1016 39.8567 34.7198 39.4418 34.4698C39.0269 34.2198 38.5402 34.1159 38.0594 34.1745C37.5533 34.1209 37.0432 34.2283 36.6017 34.4814C36.1602 34.7345 35.8097 35.1204 35.6001 35.5841C35.3211 36.2579 35.1948 36.9851 35.2302 37.7135V47.0507H30.1118V37.7435C30.1397 37.0248 30.0381 36.3069 29.8119 35.6241C29.6471 35.1697 29.3379 34.7818 28.9316 34.52C28.5253 34.2582 28.0444 34.1368 27.5625 34.1745C27.0352 34.1243 26.5056 34.2436 26.0507 34.5151C25.5958 34.7866 25.2394 35.1961 25.0333 35.6841C24.7527 36.4098 24.6267 37.1862 24.6634 37.9634V47.0507H19.5449L19.5649 29.9458Z" fill="#FAFAFA"/>
<path d="M63.1121 47.0507H58.3435V45.2313C57.8492 46.0299 57.1447 46.677 56.3071 47.1019C55.4696 47.5269 54.5313 47.7132 53.5949 47.6405C47.8066 47.6405 47.2168 42.9519 47.2168 40.6426V29.9458H52.3353V39.283C52.3353 41.1624 52.7352 42.832 55.0445 42.832C57.6037 42.832 58.0436 41.0126 58.0436 39.2531V29.9458H63.152L63.1121 47.0507Z" fill="#FAFAFA"/>
<path d="M72.5583 34.7544C72.5583 34.3845 72.4684 33.4647 70.9588 33.4647C69.8791 33.4647 69.5093 34.1445 69.5093 34.6044C69.5093 35.3742 70.7789 35.894 72.1285 36.2938C75.0276 37.0936 78.1267 37.9633 78.1267 41.6622C78.1267 45.3611 74.9576 47.6604 71.1288 47.6604C68.5395 47.6604 64.6207 46.4809 64.1309 41.9822H69.2093C69.2719 42.4538 69.5156 42.8824 69.8889 43.1773C70.2621 43.4722 70.7355 43.61 71.2088 43.5617C72.0685 43.5617 72.9882 43.0619 72.9882 42.2321C72.9882 41.0625 71.7286 40.9124 68.4596 39.6428C66.2402 38.933 64.4008 37.4835 64.4008 35.1742C64.4008 31.6352 67.4799 29.386 71.0188 29.386C73.2681 29.386 77.147 30.2756 77.5869 34.7743L72.5583 34.7544Z" fill="#FAFAFA"/>
<path d="M79.127 29.9457H84.2354V47.0506H79.127V29.9457Z" fill="#FAFAFA"/>
<path d="M18.3949 38.3232C18.4208 40.394 17.7423 42.4122 16.4709 44.0469C15.1995 45.6816 13.4104 46.8358 11.397 47.3205C10.2316 47.6267 9.01675 47.6973 7.8237 47.5281C6.63064 47.3589 5.48334 46.9533 4.449 46.3351C3.41466 45.7169 2.51407 44.8986 1.79998 43.928C1.08589 42.9574 0.572658 41.854 0.290345 40.6825C-0.00932436 39.5317 -0.0778771 38.3329 0.0886533 37.1554C0.255184 35.9779 0.653492 34.8451 1.26055 33.8225C1.8676 32.7999 2.67136 31.9077 3.62533 31.1977C4.57931 30.4876 5.66458 29.9738 6.8184 29.6858C8.85285 29.126 11.0189 29.294 12.9427 30.161C14.8664 31.0279 16.4271 32.5394 17.3553 34.4344L12.3567 35.704C11.8938 35.0653 11.2448 34.5852 10.4987 34.3293C9.75248 34.0734 8.94548 34.0542 8.18799 34.2744C7.64362 34.375 7.12896 34.5972 6.68238 34.9243C6.2358 35.2515 5.86882 35.6751 5.60876 36.1638C5.10389 37.1956 4.9971 38.3774 5.30885 39.4829C5.39845 40.0363 5.60344 40.5648 5.91049 41.0338C6.21754 41.5029 6.61979 41.9022 7.09114 42.2057C7.56249 42.5093 8.09241 42.7103 8.64649 42.7958C9.20057 42.8813 9.76643 42.8493 10.3074 42.7019C11.0571 42.5315 11.7406 42.1453 12.2736 41.5911C12.8065 41.0368 13.1656 40.3387 13.3065 39.5829L18.3949 38.3232Z" fill="#FAFAFA"/>
<path d="M103.609 38.3232C103.635 40.394 102.957 42.4122 101.685 44.0469C100.414 45.6816 98.6249 46.8358 96.6115 47.3205C95.4454 47.6268 94.23 47.6975 93.0362 47.5284C91.8425 47.3593 90.6945 46.9538 89.6593 46.3357C88.6242 45.7176 87.7227 44.8993 87.0077 43.9286C86.2926 42.9579 85.7783 41.8544 85.4948 40.6825C85.1953 39.531 85.1272 38.3316 85.2943 37.1535C85.4615 35.9755 85.8607 34.8423 86.4687 33.8196C87.0768 32.7968 87.8816 31.9049 88.8367 31.1953C89.7918 30.4858 90.8781 29.9727 92.0329 29.6858C94.0673 29.126 96.2334 29.294 98.1571 30.161C100.081 31.0279 101.642 32.5394 102.57 34.4344L97.5712 35.704C97.1082 35.0653 96.4593 34.5852 95.7131 34.3293C94.967 34.0734 94.1599 34.0542 93.4025 34.2744C92.8571 34.3722 92.3412 34.5932 91.8942 34.9207C91.4472 35.2481 91.0809 35.6733 90.8232 36.1638C90.3196 37.1956 90.2094 38.3757 90.5133 39.4829C90.6101 40.0328 90.8195 40.5568 91.1285 41.0219C91.4374 41.487 91.8393 41.883 92.3087 42.1854C92.7781 42.4877 93.305 42.6897 93.8563 42.7786C94.4075 42.8675 94.9712 42.8413 95.5118 42.7019C96.2616 42.5315 96.9451 42.1453 97.478 41.5911C98.011 41.0368 98.37 40.3387 98.5109 39.5829L103.609 38.3232Z" fill="#FAFAFA"/>
</svg>
