<svg width="104" height="64" viewBox="0 0 104 64" fill="none" xmlns="http://www.w3.org/2000/svg">
<path d="M61.2891 20.3181H63.2291V25.7682H64.5291V20.3181H66.4591V19.0981H61.2891V20.3181Z" fill="#FAFAFA"/>
<path d="M69.1405 19.0981H67.8105V25.7682H69.1405V19.0981Z" fill="#FAFAFA"/>
<path d="M75.4909 23.4582L72.2209 19.0981H70.9609V25.7682H72.2609V21.4282L75.5209 25.7682H76.7909V19.0981H75.4909V23.4582Z" fill="#FAFAFA"/>
<path d="M82.1099 23.518H83.3499C83.2427 23.8819 83.0127 24.1973 82.6991 24.4106C82.3855 24.6239 82.0076 24.7219 81.6299 24.688C81.3369 24.6953 81.0456 24.642 80.7743 24.5311C80.503 24.4202 80.2577 24.2543 80.0538 24.0438C79.8498 23.8333 79.6918 23.5827 79.5896 23.3081C79.4873 23.0334 79.4432 22.7406 79.4599 22.448C79.4423 22.1604 79.483 21.8722 79.5795 21.6007C79.676 21.3292 79.8264 21.08 80.0215 20.868C80.2167 20.656 80.4527 20.4856 80.7153 20.367C80.9779 20.2485 81.2618 20.1841 81.5499 20.1779C81.8811 20.1505 82.212 20.2338 82.4908 20.4148C82.7695 20.5958 82.9802 20.8642 83.0899 21.1779L83.1399 21.368H84.4299V21.078C84.2755 20.4501 83.9033 19.8975 83.3795 19.5184C82.8558 19.1393 82.2145 18.9585 81.5699 19.008C81.1149 19.0064 80.6642 19.0966 80.245 19.2733C79.8257 19.45 79.4464 19.7095 79.1299 20.0363C78.8133 20.3632 78.566 20.7506 78.4028 21.1753C78.2395 21.6 78.1637 22.0533 78.1799 22.508C78.1647 22.9626 78.2426 23.4154 78.4088 23.8388C78.5749 24.2623 78.8258 24.6474 79.146 24.9704C79.4662 25.2934 79.849 25.5477 80.271 25.7175C80.693 25.8873 81.1452 25.9691 81.5999 25.958C82.3205 26.0017 83.0326 25.7841 83.6057 25.3451C84.1788 24.906 84.5744 24.2751 84.7199 23.568H85.4199V22.348H82.1099V23.518Z" fill="#FAFAFA"/>
<path d="M102.56 19.0981L101.24 21.7281L99.5903 19.0981H98.0703L100.56 23.0882L99.2003 25.7682H100.64L104 19.0981H102.56Z" fill="#FAFAFA"/>
<path d="M90.2195 23.2382C90.5489 23.0399 90.8215 22.7598 91.0107 22.4252C91.1999 22.0905 91.2994 21.7126 91.2995 21.3281C91.2996 20.7419 91.0688 20.1792 90.657 19.7618C90.2453 19.3445 89.6857 19.106 89.0995 19.0981H86.5195V25.7582H87.8195V23.5581H88.8995L89.8995 25.7682H91.3595L90.2195 23.2382ZM89.0995 22.3281H87.8195V20.3281H89.0795C89.3447 20.3281 89.5991 20.4334 89.7866 20.621C89.9742 20.8085 90.0795 21.0629 90.0795 21.3281C90.0795 21.5933 89.9742 21.8477 89.7866 22.0353C89.5991 22.2228 89.3447 22.3281 89.0795 22.3281" fill="#FAFAFA"/>
<path d="M95.7998 19.1581V19.0981H94.6498L92.3398 25.7682H93.7598L94.2498 24.2781H96.1998L96.6998 25.7682H98.1098L95.7998 19.1581ZM94.4998 23.1581L95.2098 21.0381L95.9098 23.1581H94.4998Z" fill="#FAFAFA"/>
<path d="M58.8301 21.9581L57.6301 21.6781C57.1301 21.5581 56.8901 21.3281 56.8901 20.9581C56.8901 20.5881 57.3101 20.1781 57.8901 20.1781C58.1514 20.1535 58.4133 20.2182 58.6331 20.3617C58.8529 20.5052 59.0175 20.719 59.1001 20.9681H60.4701C60.3559 20.3826 60.0268 19.8609 59.5476 19.5056C59.0683 19.1503 58.4735 18.9871 57.8801 19.0481C57.591 19.015 57.2982 19.0411 57.0196 19.125C56.741 19.2089 56.4824 19.3487 56.2596 19.5359C56.0368 19.7231 55.8546 19.9537 55.724 20.2137C55.5934 20.4738 55.5172 20.7576 55.5001 21.0481C55.5001 22.1281 56.2301 22.6381 57.1801 22.8481L58.3601 23.1182C58.9301 23.2482 59.1701 23.4582 59.1701 23.8582C59.1701 24.2582 58.7301 24.6881 58.0601 24.6881C57.7774 24.7181 57.493 24.65 57.2545 24.4952C57.016 24.3405 56.8379 24.1085 56.7501 23.8381H55.3301C55.4538 24.4538 55.8038 25.0008 56.3111 25.3711C56.8183 25.7414 57.446 25.908 58.0701 25.8381C59.4701 25.8381 60.5201 25.0581 60.5201 23.7781C60.5201 22.7781 59.8701 22.1681 58.7901 21.9281" fill="#FAFAFA"/>
<path d="M22.7709 43.6682V22.4883H22.2409V22.5682C21.7119 23.335 21.0312 23.9851 20.2409 24.4783C19.4521 24.9803 18.5528 25.2823 17.6209 25.3583H17.4609V25.9382H17.8309C17.9909 25.9382 18.0809 25.9383 18.0809 26.2283V43.6482C18.0809 43.8382 18.0209 43.9082 17.8309 43.9082H17.4609V44.5083H23.3909V43.9082H23.0009C22.8509 43.9582 22.7709 43.8882 22.7709 43.6682Z" fill="#FAFAFA"/>
<path d="M39.7004 31.798C38.8479 31.3127 38.1055 30.6555 37.5204 29.8681V29.798H37.0004V31.9381C36.3472 31.2795 35.573 30.7533 34.7204 30.3881C33.7714 29.9878 32.7503 29.7869 31.7204 29.798C30.7333 29.7948 29.7562 29.9957 28.8504 30.3881C27.9739 30.7565 27.1762 31.2894 26.5004 31.9581C25.8356 32.6374 25.2972 33.4298 24.9104 34.298C24.5192 35.169 24.318 36.1133 24.3204 37.0681C24.3159 38.0735 24.5237 39.0686 24.9304 39.9881C25.323 40.8659 25.8758 41.6628 26.5604 42.3381C27.2437 43.007 28.048 43.5397 28.9304 43.908C29.815 44.2885 30.7675 44.4858 31.7304 44.4881C32.7647 44.5023 33.7892 44.2872 34.7304 43.8581C35.5622 43.4792 36.3258 42.9656 36.9904 42.3381V43.6281C36.9904 43.8181 36.9204 43.8881 36.7304 43.8881H36.3504V44.4881H42.7604V43.8881H42.3804C42.1304 43.8881 42.0804 43.7881 42.0804 43.6281V33.5181C42.0804 33.3581 42.0804 33.2681 42.3804 33.2681H42.7604V32.6781H42.6004C41.5824 32.5929 40.594 32.293 39.7004 31.798V31.798ZM29.7004 41.3881C29.6204 40.3881 29.5904 39.2381 29.6104 37.9581V36.3681C29.6104 35.1081 29.6404 33.9681 29.7004 32.9481C29.6929 32.1829 29.9549 31.4396 30.4404 30.8481C30.5974 30.6957 30.7841 30.5771 30.9887 30.4997C31.1934 30.4223 31.4118 30.3877 31.6304 30.398H31.6904C32.6144 30.3934 33.5297 30.5772 34.3804 30.9381C35.2171 31.2956 35.9725 31.8196 36.6004 32.4781C36.708 32.5827 36.7922 32.7091 36.8474 32.8487C36.9026 32.9883 36.9275 33.1381 36.9204 33.288V41.028C36.9294 41.1825 36.9026 41.3369 36.8418 41.4792C36.7811 41.6215 36.6882 41.7478 36.5704 41.8481C35.9474 42.4893 35.2074 43.0053 34.3904 43.3681C33.5402 43.744 32.6199 43.9348 31.6904 43.9281H31.6304C31.195 43.9429 30.77 43.793 30.4404 43.5081C29.973 42.9015 29.7261 42.1538 29.7404 41.3881H29.7004Z" fill="#FAFAFA"/>
<path d="M71.1009 43.6681V29.7981H70.6009L70.5509 29.8782C70.0277 30.6526 69.346 31.3069 68.5509 31.7981C67.7357 32.2955 66.8205 32.6063 65.8709 32.7081H65.7109V33.2881H66.0809C66.2309 33.2881 66.3209 33.2881 66.3209 33.5381V43.6481C66.3209 43.8681 66.2309 43.9081 66.0809 43.9081H65.7109V44.5082H71.7609V43.9081H71.3809C71.1709 43.9581 71.1009 43.8581 71.1009 43.6681Z" fill="#FAFAFA"/>
<path d="M102.811 33.3082H103.201V32.7182H103.001C101.994 32.6197 101.019 32.3096 100.141 31.8082C99.2881 31.3228 98.5457 30.6656 97.9606 29.8782V29.8082H97.4506V31.9482C96.7955 31.2872 96.0176 30.7606 95.1606 30.3981C94.2304 30.0053 93.2303 29.8046 92.2206 29.8082C91.2302 29.8047 90.2498 30.0055 89.3406 30.3981C88.4679 30.7635 87.6735 31.2932 87.0006 31.9582C86.3327 32.635 85.7939 33.428 85.4106 34.2981C85.0194 35.1691 84.8182 36.1134 84.8206 37.0682C84.8118 38.074 85.0198 39.07 85.4306 39.9882C85.8196 40.8655 86.369 41.6625 87.0506 42.3382C87.7375 43.0026 88.5409 43.5348 89.4206 43.9081C90.3087 44.2886 91.2644 44.4859 92.2306 44.4882C93.2648 44.5024 94.2894 44.2873 95.2306 43.8582C96.0624 43.4793 96.826 42.9657 97.4906 42.3382V43.6282C97.4906 43.8182 97.4206 43.8882 97.2306 43.8882H96.8406V44.4882H103.261V43.8882H102.871C102.631 43.8882 102.581 43.7882 102.581 43.6282V33.5182C102.521 33.3982 102.571 33.3082 102.811 33.3082ZM91.0006 43.5082C90.5195 42.9059 90.2552 42.1591 90.2506 41.3882C90.1706 40.3882 90.1506 39.2382 90.1706 37.9582V36.3682C90.1706 35.1082 90.1706 33.9682 90.2506 32.9482C90.253 32.1847 90.5138 31.4445 90.9906 30.8482C91.1486 30.6972 91.3354 30.5795 91.5399 30.5022C91.7443 30.4249 91.9622 30.3895 92.1806 30.3981H92.2506C93.1714 30.3934 94.0834 30.5772 94.9306 30.9382C95.7689 31.2981 96.5271 31.8217 97.1606 32.4782C97.2663 32.5843 97.3491 32.7109 97.4042 32.8501C97.4592 32.9894 97.4852 33.1384 97.4806 33.2881V41.0281C97.4884 41.1834 97.46 41.3384 97.3975 41.4808C97.335 41.6231 97.2402 41.7489 97.1206 41.8482C96.5039 42.4922 95.7666 43.0087 94.9506 43.3682C94.1001 43.7432 93.18 43.934 92.2506 43.9281H92.1806C91.7483 43.9424 91.3266 43.7924 91.0006 43.5082V43.5082Z" fill="#FAFAFA"/>
<path d="M15.9402 26.9581C15.0931 26.3497 14.1638 25.8649 13.1802 25.5181C12.1594 25.1535 11.0842 24.9641 10.0002 24.9581C8.66215 24.9527 7.33755 25.2252 6.1102 25.7581C4.9292 26.2673 3.854 26.993 2.9402 27.898C2.04034 28.8119 1.32108 29.8874 0.820198 31.0681C0.281231 32.2942 0.00203489 33.6187 0.000198234 34.9581C-0.00836615 36.2922 0.260666 37.6135 0.790199 38.8381C1.28872 40.02 2.00827 41.096 2.9102 42.0081C3.824 42.9131 4.8992 43.6389 6.0802 44.148C7.31717 44.6839 8.65217 44.9564 10.0002 44.9481C11.0826 44.9527 12.1578 44.7735 13.1802 44.418C14.1657 44.0757 15.0956 43.5906 15.9402 42.9781H16.0002H16.1302V42.1981L15.8402 42.4281C15.0384 43.0469 14.1485 43.5424 13.2002 43.898C12.1821 44.273 11.1051 44.4627 10.0202 44.4581H9.8602C8.97347 44.4904 8.08929 44.3442 7.2602 44.028C6.79501 43.855 6.36229 43.6048 5.9802 43.288C5.69721 42.9716 5.48876 42.5957 5.3702 42.1881C5.21353 41.6596 5.10968 41.117 5.0602 40.5681C4.9902 39.9581 4.9602 39.2781 4.9502 38.5681C4.9402 37.8581 4.9502 37.0681 4.9502 36.2681V33.778C4.9502 32.968 4.9502 32.2081 4.9502 31.4781C4.9502 30.7481 4.9502 30.0781 5.0602 29.4781C5.11064 28.9293 5.21447 28.3868 5.3702 27.8581C5.48887 27.4535 5.69739 27.0809 5.9802 26.7681C6.35718 26.4441 6.79126 26.193 7.2602 26.028C8.08852 25.7082 8.97278 25.5586 9.8602 25.5881H10.0202C11.1051 25.5835 12.1821 25.7731 13.2002 26.148C14.149 26.5072 15.0388 27.0061 15.8402 27.6281L16.1302 27.8581V27.0681H16.0002L15.9402 26.9581Z" fill="#FAFAFA"/>
<path d="M53.3799 38.7682C53.0628 38.1872 52.6767 37.6465 52.2299 37.1581C51.7686 36.6468 51.2813 36.1595 50.7699 35.6982C50.2599 35.2382 49.7699 34.7682 49.3299 34.3182C48.9188 33.9027 48.5502 33.4471 48.2299 32.9582C47.9698 32.559 47.8277 32.0946 47.8199 31.6182C47.8177 31.4707 47.8521 31.3248 47.9202 31.1939C47.9883 31.063 48.0878 30.9511 48.2099 30.8682C48.4915 30.6393 48.8474 30.5218 49.2099 30.5381C49.6969 30.5379 50.1815 30.6053 50.6499 30.7382C51.0884 30.8632 51.5062 31.0518 51.8899 31.2981C52.0361 31.3877 52.1704 31.4953 52.2899 31.6182L52.4599 31.7881L52.6699 32.1382C52.769 32.3186 52.8174 32.5225 52.8099 32.7282V33.7282H53.3399V30.7981H52.8099V31.3882L52.6499 31.2182C52.5028 31.079 52.342 30.955 52.1699 30.8482C51.7501 30.5682 51.2873 30.3588 50.7999 30.2282C50.2751 30.0864 49.7336 30.0158 49.1899 30.0182C48.5882 30.0139 47.989 30.0947 47.4099 30.2582C46.8902 30.4022 46.3995 30.6356 45.9599 30.9482C45.5531 31.2241 45.2117 31.586 44.9599 32.0082C44.7079 32.4315 44.5765 32.9155 44.5799 33.4081C44.5836 33.998 44.7572 34.5744 45.0799 35.0682C45.436 35.6011 45.8447 36.097 46.2999 36.5481C46.7799 37.0181 47.2999 37.5482 47.8499 37.9782C48.3861 38.4331 48.8969 38.9172 49.3799 39.4281C49.8135 39.8912 50.1895 40.405 50.4999 40.9582C50.7961 41.4684 50.9514 42.0483 50.9499 42.6382C50.9636 42.9378 50.8944 43.2354 50.7499 43.4982C50.6312 43.7042 50.4583 43.8737 50.2499 43.9882C50.0405 44.0986 49.814 44.1729 49.5799 44.2082C49.3519 44.2463 49.1211 44.2664 48.8899 44.2682C48.4107 44.2713 47.9332 44.2107 47.4699 44.0882C47.0464 43.9799 46.6394 43.8151 46.2599 43.5982C45.9095 43.3986 45.5924 43.1455 45.3199 42.8482C45.2261 42.7405 45.1393 42.627 45.0599 42.5082L44.9999 42.4281H44.4199L44.5999 42.7082C44.8513 43.0947 45.1697 43.4333 45.5399 43.7082C45.9965 44.0502 46.5068 44.3138 47.0499 44.4882C47.6437 44.6832 48.265 44.781 48.8899 44.7781C49.5471 44.7848 50.2014 44.6905 50.8299 44.4982C51.4038 44.3324 51.9403 44.0573 52.4099 43.6882C52.8556 43.3336 53.2147 42.8822 53.4599 42.3682C53.7236 41.8197 53.8538 41.2166 53.8399 40.6082C53.8458 39.9593 53.6876 39.3195 53.3799 38.7482V38.7682Z" fill="#FAFAFA"/>
<path d="M62.8 37.1582C62.35 36.6582 61.85 36.1582 61.34 35.6982C60.83 35.2382 60.34 34.7782 59.9 34.3182C59.486 33.9053 59.1172 33.4494 58.8 32.9582C58.5353 32.5613 58.3927 32.0954 58.39 31.6183C58.3877 31.4707 58.4222 31.3249 58.4903 31.1939C58.5584 31.063 58.6579 30.9511 58.78 30.8683C59.0484 30.6507 59.3845 30.5339 59.73 30.5382C60.2169 30.538 60.7015 30.6054 61.17 30.7383C61.6061 30.8612 62.0209 31.05 62.4 31.2982C62.5508 31.3853 62.6888 31.4931 62.81 31.6183L62.98 31.7882L63.19 32.1383C63.2891 32.3187 63.3375 32.5225 63.33 32.7282V33.7282H63.86V30.7982H63.33V31.3883L63.17 31.2182C63.021 31.0813 62.8604 30.9575 62.69 30.8482C62.2702 30.5683 61.8074 30.3589 61.32 30.2282C60.7952 30.0865 60.2536 30.0159 59.71 30.0183C59.1083 30.0133 58.5089 30.0941 57.93 30.2583C57.4071 30.4021 56.9131 30.6355 56.47 30.9482C56.0648 31.2261 55.7238 31.5876 55.47 32.0083C55.2166 32.4309 55.085 32.9154 55.09 33.4082C55.0937 33.9981 55.2673 34.5744 55.59 35.0682C55.9398 35.6058 56.349 36.1022 56.81 36.5482C57.29 37.0182 57.81 37.5482 58.36 37.9782C58.896 38.4333 59.4068 38.9174 59.89 39.4282C60.3411 39.8884 60.734 40.4023 61.06 40.9582C61.3562 41.4685 61.5115 42.0483 61.51 42.6383C61.5237 42.9379 61.4545 43.2355 61.31 43.4983C61.1882 43.7019 61.016 43.8706 60.81 43.9883C60.6006 44.0987 60.3741 44.173 60.14 44.2082C59.9119 44.2464 59.6812 44.2665 59.45 44.2683C58.9675 44.2707 58.4868 44.2101 58.02 44.0882C57.5977 43.9764 57.1911 43.8118 56.81 43.5982C56.4627 43.3984 56.1489 43.1454 55.88 42.8482C55.7831 42.7431 55.6961 42.6293 55.62 42.5083L55.56 42.4282H55L55.18 42.7082C55.4314 43.0948 55.7497 43.4334 56.12 43.7082C56.5766 44.0502 57.0869 44.3138 57.63 44.4883C58.2237 44.6833 58.8451 44.7811 59.47 44.7782C60.124 44.7856 60.7751 44.6912 61.4 44.4983C61.9778 44.3346 62.518 44.0594 62.99 43.6882C63.4357 43.3336 63.7948 42.8823 64.04 42.3683C64.2988 41.8181 64.4287 41.2162 64.42 40.6083C64.4259 39.9594 64.2676 39.3196 63.96 38.7483C63.6384 38.1737 63.249 37.6398 62.8 37.1582V37.1582Z" fill="#FAFAFA"/>
<path d="M80.1992 29.958C79.2188 29.9566 78.2485 30.1575 77.3492 30.548C76.4519 30.9241 75.6341 31.467 74.9392 32.148C74.2496 32.8365 73.6936 33.6469 73.2992 34.538C72.9358 35.3657 72.7323 36.2546 72.6992 37.158V37.158V37.678C72.7323 38.5813 72.9358 39.4703 73.2992 40.298C73.6911 41.1905 74.2475 42.0012 74.9392 42.688C75.6345 43.3711 76.452 43.9172 77.3492 44.298C78.2507 44.6805 79.2199 44.8778 80.1992 44.8781C81.6482 44.8919 83.0685 44.4741 84.2792 43.678H84.3592V42.948L84.0692 43.1381C82.9314 43.9214 81.5806 44.3367 80.1992 44.328C79.9745 44.3375 79.7502 44.3007 79.5404 44.2199C79.3305 44.139 79.1395 44.0159 78.9792 43.858C78.4888 43.2642 78.2201 42.5183 78.2192 41.7481C78.1392 40.7481 78.1092 39.578 78.1292 38.288V36.648C78.1292 35.368 78.1292 34.198 78.2192 33.188C78.2201 32.4178 78.4888 31.6719 78.9792 31.078C79.1403 30.922 79.3317 30.8007 79.5415 30.7216C79.7514 30.6424 79.9752 30.6072 80.1992 30.618C81.5789 30.6109 82.9283 31.0223 84.0692 31.798L84.3592 31.988V31.2581H84.2792C83.0797 30.4266 81.6586 29.9738 80.1992 29.958V29.958Z" fill="#FAFAFA"/>
</svg>
