<svg width="104" height="64" viewBox="0 0 104 64" fill="none" xmlns="http://www.w3.org/2000/svg">
<path d="M91.1194 39.1717C91.5207 38.9625 91.8591 38.6503 92.0999 38.2672C92.3406 37.8841 92.4751 37.4438 92.4896 36.9915V36.9915L93.5897 42.2419L94.6797 36.9915C95.2958 37.7212 95.6481 38.6372 95.6798 39.5917C95.6949 39.8809 95.7802 40.1622 95.9286 40.411C96.0769 40.6597 96.2837 40.8686 96.531 41.0194C96.7784 41.1702 97.0588 41.2583 97.3479 41.2761C97.637 41.294 97.9261 41.241 98.1901 41.1218C98.1901 41.1218 96.4799 40.9219 97.05 38.7817C97.1865 38.3473 97.2038 37.8841 97.1 37.4407C96.9962 36.9974 96.7751 36.5901 96.4599 36.2614V36.2614L100.95 39.2617L98 34.7713C98.9506 34.86 99.8428 35.2691 100.53 35.9314C100.746 36.1281 101.006 36.2685 101.289 36.3402C101.572 36.4119 101.868 36.4126 102.151 36.3424C102.434 36.2721 102.695 36.133 102.911 35.9374C103.128 35.7418 103.292 35.4958 103.391 35.2213C103.391 35.2213 102.06 36.2914 100.93 34.3712C100.721 33.97 100.409 33.6316 100.026 33.3908C99.6427 33.15 99.2024 33.0155 98.7501 33.0011V33.0011L104.001 31.9111L98.7501 30.821C99.4771 30.1937 100.4 29.84 101.36 29.8209C101.651 29.8066 101.934 29.7211 102.183 29.5722C102.433 29.4233 102.643 29.2154 102.794 28.9667C102.945 28.718 103.033 28.4362 103.05 28.1457C103.066 27.8553 103.012 27.5651 102.89 27.3007C102.89 27.3007 102.7 29.0209 100.55 28.4508C100.118 28.3127 99.6572 28.2937 99.2154 28.3957C98.7736 28.4978 98.3676 28.7173 98.04 29.0308V29.0308L100.98 24.5404L97.33 26.8906L96.4899 27.4207C96.5854 26.472 96.9935 25.5819 97.65 24.8904C97.8467 24.6751 97.9871 24.4145 98.0588 24.1318C98.1305 23.8492 98.1313 23.5532 98.061 23.2702C97.9907 22.9871 97.8516 22.7258 97.6561 22.5095C97.4605 22.2932 97.2145 22.1286 96.9399 22.0302C96.9399 22.0302 98.02 23.3703 96.0899 24.4904C95.6917 24.7049 95.3566 25.02 95.118 25.4043C94.8793 25.7885 94.7455 26.2286 94.7298 26.6806L93.6297 21.4202L92.5396 26.6806C91.9166 25.9472 91.5636 25.0224 91.5395 24.0604C91.5244 23.7711 91.4391 23.4899 91.2907 23.2411C91.1424 22.9923 90.9356 22.7834 90.6883 22.6327C90.4409 22.4819 90.1606 22.3938 89.8715 22.3759C89.5823 22.3581 89.2933 22.4111 89.0293 22.5302C89.0293 22.5302 90.7394 22.7202 90.1694 24.8704C90.0328 25.3048 90.0155 25.768 90.1193 26.2114C90.2231 26.6547 90.4442 27.062 90.7594 27.3907V27.3907L86.269 24.3904L89.2193 28.8808C88.2687 28.7921 87.3765 28.383 86.6891 27.7206C86.4737 27.524 86.2131 27.3836 85.9305 27.3119C85.6478 27.2402 85.3518 27.2395 85.0688 27.3097C84.7857 27.38 84.5244 27.5191 84.3081 27.7147C84.0918 27.9102 83.9271 28.1562 83.8288 28.4308C83.8288 28.4308 85.1589 27.3607 86.289 29.2808C86.5014 29.6795 86.8144 30.0157 87.1968 30.256C87.5792 30.4964 88.0179 30.6325 88.4692 30.651V30.651L83.2188 31.741L88.4692 32.8312C87.7383 33.4585 86.812 33.8121 85.849 33.8313C85.5593 33.8472 85.2778 33.9336 85.0292 34.0831C84.7805 34.2327 84.5722 34.4408 84.4223 34.6893C84.2725 34.9377 84.1856 35.2191 84.1693 35.5088C84.153 35.7985 84.2078 36.0877 84.3288 36.3514C84.3288 36.3514 84.5189 34.6313 86.6691 35.2014C87.1016 35.3404 87.5638 35.3588 88.0061 35.2549C88.4484 35.1509 88.854 34.9284 89.1793 34.6113V34.6113L86.239 39.1016L88.6092 37.5416L90.7294 36.1614C90.6349 37.1124 90.2227 38.0038 89.5593 38.6917C89.365 38.908 89.2267 39.1685 89.1564 39.4507C89.0861 39.7328 89.086 40.0278 89.156 40.31C89.2261 40.5922 89.3642 40.853 89.5583 41.0695C89.7523 41.2859 89.9965 41.4516 90.2694 41.5519C90.2694 41.6419 89.1993 40.2818 91.1194 39.1717" fill="#FAFAFA"/>
<path d="M79.5369 35.6513H79.4169V35.0413H79.1969V34.9413H79.7669V35.0413H79.5369V35.6513ZM80.537 35.6513H80.417V35.0813V35.2013L80.277 35.6713H80.177L80.017 35.2013V35.0813V35.6513H79.897V34.9413H79.967L80.137 35.4913L80.307 34.9413H80.487L80.537 35.6513ZM0.410032 29.6508C0.670054 30.4108 1.48013 32.181 3.18028 32.181C3.45214 32.1964 3.72413 32.153 3.97781 32.0541C4.23149 31.9551 4.46094 31.8029 4.65062 31.6075C4.8403 31.4121 4.98577 31.1783 5.07718 30.9218C5.16859 30.6653 5.20381 30.3921 5.18045 30.1208C5.18045 28.7507 4.18036 28.1907 3.10027 27.6906C2.57022 27.4306 0.400036 26.6905 0.400036 24.7603C0.397779 24.3388 0.48436 23.9215 0.65414 23.5357C0.82392 23.1499 1.07309 22.8043 1.38541 22.5213C1.69772 22.2382 2.06617 22.024 2.46676 21.8929C2.86735 21.7618 3.29107 21.7165 3.71032 21.7601C4.16109 21.7614 4.60923 21.8288 5.04044 21.9602C5.23948 22.0339 5.4433 22.094 5.65049 22.1401C5.7205 22.6902 5.8105 23.3303 5.95052 24.3003L5.55048 24.3603C5.27045 23.3602 4.82042 22.2801 3.36029 22.2801C3.14028 22.2694 2.92035 22.3028 2.71346 22.3784C2.50657 22.454 2.31691 22.5703 2.15567 22.7204C1.99442 22.8704 1.86485 23.0512 1.77459 23.2521C1.68433 23.4531 1.63522 23.6701 1.63014 23.8903V24.0603C1.63014 25.2604 2.48022 25.7805 3.71032 26.3305C4.77041 26.8006 6.45056 27.4606 6.45056 29.4508C6.44106 29.9015 6.33961 30.3455 6.15241 30.7556C5.96522 31.1657 5.69622 31.5333 5.36193 31.8358C5.02763 32.1382 4.63508 32.3692 4.20834 32.5146C3.7816 32.6599 3.32966 32.7166 2.88025 32.6811C2.36031 32.6778 1.84406 32.5934 1.35012 32.431C0.950081 32.301 0.660059 32.171 0.470042 32.111C0.350032 31.6909 0.160014 30.5509 0 29.6808L0.420035 29.6107L0.410032 29.6508ZM8.60075 27.2906C8.60075 26.2905 8.60075 26.2905 7.51066 26.1805V25.8804C8.30224 25.7117 9.08357 25.498 9.85086 25.2404V26.4405C10.1609 26.2305 10.4909 26.0004 10.941 25.7304C11.3704 25.4327 11.8786 25.2691 12.4011 25.2604C12.7972 25.2517 13.1861 25.3678 13.5127 25.5921C13.8393 25.8164 14.0872 26.1376 14.2212 26.5105C14.6042 26.2141 15.0087 25.9467 15.4313 25.7105C15.8527 25.4293 16.3451 25.2732 16.8515 25.2604C17.1285 25.2488 17.4048 25.2971 17.6615 25.4019C17.9182 25.5067 18.1493 25.6655 18.3391 25.8676C18.5289 26.0697 18.673 26.3104 18.7614 26.5732C18.8498 26.836 18.8806 27.1148 18.8516 27.3906V30.9809C18.8516 31.8809 18.9416 31.981 19.8517 32.051V32.421H16.4414V32.051C17.5015 31.951 17.5815 31.8809 17.5815 30.9809V27.8906C17.5815 26.9605 17.2715 26.1605 16.0914 26.1605C15.4226 26.1943 14.7894 26.4718 14.3112 26.9406C14.3112 27.1106 14.3112 27.2506 14.3112 27.3906V31.0009C14.3112 31.9009 14.4013 32.001 15.3113 32.071V32.431H11.961V32.071C12.9611 31.971 13.0911 31.9009 13.0911 31.0009V27.8406C13.0911 26.9005 12.7411 26.1605 11.651 26.1605C10.9795 26.2037 10.3419 26.4714 9.84085 26.9206V30.9809C9.84085 31.8809 9.93086 31.981 10.8409 32.051V32.421H7.36064V32.051C8.47074 31.951 8.56074 31.8809 8.56074 30.9809V27.2906H8.60075ZM23.032 31.0009C23.032 31.9009 23.122 32.001 24.1921 32.071V32.431H20.6618V32.071C21.7219 31.971 21.8019 31.9009 21.8019 31.0009V27.2906C21.8019 26.2905 21.8019 26.2905 20.7118 26.1805V25.8804C21.504 25.7142 22.2855 25.5005 23.052 25.2404V31.0009H23.032ZM23.262 22.3601C23.2647 22.4717 23.2453 22.5829 23.205 22.687C23.1648 22.7912 23.1043 22.8864 23.0273 22.9672C22.9502 23.048 22.8579 23.1128 22.7558 23.1579C22.6536 23.203 22.5436 23.2276 22.432 23.2302V23.2302C22.3203 23.2276 22.2103 23.203 22.1081 23.1579C22.006 23.1128 21.9137 23.048 21.8367 22.9672C21.7596 22.8864 21.6992 22.7912 21.6589 22.687C21.6186 22.5829 21.5992 22.4717 21.6019 22.3601C21.5965 22.1337 21.6806 21.9142 21.836 21.7495C21.9914 21.5847 22.2056 21.4879 22.432 21.48C22.544 21.4813 22.6547 21.5049 22.7574 21.5496C22.8602 21.5943 22.953 21.6591 23.0303 21.7402C23.1077 21.8213 23.168 21.9171 23.2078 22.0218C23.2476 22.1266 23.266 22.2381 23.262 22.3501V22.3601ZM27.1624 30.3508C27.1624 31.6009 27.7524 31.821 28.1624 31.821C28.5182 31.8128 28.8646 31.7054 29.1625 31.5109L29.3126 31.8609L28.0024 32.521C27.847 32.5919 27.6818 32.6391 27.5124 32.6611C26.5123 32.6611 25.9123 32.001 25.9123 30.6609V26.0505H24.7422L24.6721 25.9005L25.1322 25.4505H25.9023V24.4504L26.9023 23.3902H27.1124V25.4704H28.9625C29.0213 25.5681 29.0426 25.684 29.0223 25.7962C29.0021 25.9084 28.9417 26.0095 28.8525 26.0805H27.1624V30.3109V30.3508ZM32.0828 26.3905C32.683 25.7473 33.4974 25.3455 34.373 25.2604C34.6782 25.2378 34.9846 25.2829 35.2703 25.3924C35.5561 25.5018 35.8142 25.6729 36.0262 25.8935C36.2383 26.1141 36.399 26.3788 36.497 26.6687C36.595 26.9586 36.6279 27.2666 36.5932 27.5706V30.9909C36.5932 31.8909 36.6832 31.9909 37.6533 31.9909V32.371H34.233V32.011C35.2331 31.911 35.3331 31.841 35.3331 30.9409V28.0106C35.3331 26.8405 34.913 26.1004 33.7329 26.1004C33.4206 26.1051 33.1124 26.1732 32.827 26.3004C32.5417 26.4276 32.2851 26.6113 32.0728 26.8405V30.9409C32.0728 31.841 32.1528 31.941 33.0729 32.011V32.371H29.6826V32.011C30.6827 31.911 30.7727 31.841 30.7727 30.9409V22.9402C30.7727 21.9401 30.7727 21.9401 29.6226 21.8801V21.5501C30.3927 21.4101 31.4127 21.15 32.0228 21V26.3705L32.0828 26.3905ZM38.8834 30.1508C39.1434 31.0909 39.8835 32.151 40.8136 32.151C40.9602 32.155 41.1061 32.1299 41.243 32.0771C41.3798 32.0244 41.5049 31.9451 41.6109 31.8437C41.7169 31.7424 41.8018 31.621 41.8606 31.4866C41.9194 31.3523 41.9511 31.2076 41.9537 31.0609V30.9509C41.9537 30.3009 41.5936 29.8308 40.7035 29.4508C39.7035 28.9808 38.7834 28.4506 38.7834 27.3706C38.7971 27.0739 38.8706 26.783 38.9992 26.5154C39.1279 26.2477 39.3092 26.0087 39.5323 25.8127C39.7554 25.6166 40.0158 25.4676 40.2977 25.3744C40.5797 25.2812 40.8776 25.2459 41.1736 25.2704C41.6376 25.2642 42.0977 25.3562 42.5237 25.5404C42.7029 26.041 42.8204 26.5615 42.8737 27.0905L42.4937 27.1906C42.0037 26.1305 41.4936 25.7704 40.8836 25.7704C40.7473 25.7622 40.6107 25.7821 40.4824 25.8287C40.354 25.8752 40.2366 25.9475 40.1373 26.0412C40.038 26.1349 39.9589 26.248 39.9049 26.3734C39.8509 26.4988 39.8232 26.634 39.8235 26.7705V26.8505C39.8235 27.5105 40.5135 27.9606 41.2236 28.2606C42.4037 28.7407 43.1638 29.3708 43.1638 30.4409C43.1424 30.7561 43.0583 31.0638 42.9163 31.346C42.7743 31.6282 42.5773 31.8792 42.3369 32.0842C42.0965 32.2892 41.8175 32.4441 41.5164 32.5397C41.2153 32.6353 40.8982 32.6697 40.5835 32.641C39.9145 32.6403 39.2617 32.4344 38.7134 32.051C38.58 31.4774 38.5162 30.8898 38.5234 30.3009L38.8834 30.1809V30.1508ZM44.2239 29.1808C44.1955 28.691 44.266 28.2006 44.4309 27.7386C44.5959 27.2766 44.8521 26.8525 45.1842 26.4914C45.5163 26.1304 45.9176 25.8398 46.3643 25.6369C46.8109 25.434 47.2938 25.323 47.7842 25.3104C48.6985 25.2997 49.5799 25.6513 50.2358 26.2884C50.8916 26.9256 51.2687 27.7965 51.2845 28.7108V28.8907C51.3128 29.3708 51.2442 29.8516 51.0826 30.3045C50.921 30.7575 50.6699 31.1733 50.3441 31.527C50.0184 31.8808 49.6247 32.1653 49.1866 32.3635C48.7485 32.5618 48.2749 32.6698 47.7942 32.6811C46.8665 32.6972 45.9702 32.3454 45.3012 31.7026C44.6322 31.0598 44.2449 30.1783 44.2239 29.2507C44.2239 29.2507 44.2239 29.2508 44.2239 29.1808V29.1808ZM49.8243 29.1808C49.8243 27.4006 49.0643 25.7504 47.5841 25.7504C46.5141 25.7504 45.694 26.8605 45.694 28.5407C45.694 30.5409 46.5841 32.131 47.9842 32.131C48.9843 32.131 49.8243 31.3509 49.8243 29.1307V29.1808ZM54.8248 26.3805C55.1348 26.1505 55.4848 25.9305 55.8949 25.6705C56.3022 25.381 56.7856 25.2175 57.285 25.2004C57.5661 25.1813 57.848 25.224 58.1109 25.3255C58.3737 25.4269 58.6112 25.5846 58.8066 25.7876C59.0019 25.9907 59.1505 26.2339 59.2418 26.5005C59.3332 26.767 59.365 27.0505 59.3352 27.3306V30.9209C59.3352 31.821 59.4152 31.9209 60.3353 31.9909V32.361H56.965V31.9909C58.0151 31.8909 58.1051 31.821 58.1051 30.9209V27.8307C58.1051 26.9006 57.795 26.1004 56.6149 26.1004C55.9593 26.1359 55.3383 26.4057 54.8648 26.8605V30.9209C54.8648 31.821 54.9548 31.9209 55.8649 31.9909V32.361H52.3946V31.9909C53.5047 31.8909 53.5947 31.821 53.5947 30.9209V27.2106C53.5947 26.2105 53.5947 26.2104 52.5046 26.1004V25.8005C53.2968 25.6343 54.0783 25.4205 54.8448 25.1604V26.3805H54.8248ZM63.6155 30.9409C63.6155 31.841 63.7056 31.941 64.7756 32.011V32.371H61.2253V32.011C62.2854 31.911 62.3654 31.841 62.3654 30.9409V27.2305C62.3654 26.2304 62.3654 26.2305 61.2753 26.1204V25.8205C62.0675 25.6543 62.849 25.4405 63.6155 25.1804V30.9409ZM63.8256 22.3002C63.8282 22.4118 63.8089 22.5228 63.7686 22.627C63.7283 22.7311 63.6679 22.8263 63.5908 22.9071C63.5137 22.9879 63.4215 23.0528 63.3193 23.098C63.2172 23.1431 63.1071 23.1676 62.9955 23.1702C62.8838 23.1676 62.7738 23.1431 62.6717 23.098C62.5695 23.0528 62.4773 22.9879 62.4002 22.9071C62.3231 22.8263 62.2627 22.7311 62.2224 22.627C62.1821 22.5228 62.1628 22.4118 62.1654 22.3002C62.16 22.0737 62.2442 21.8543 62.3996 21.6895C62.555 21.5247 62.7691 21.4279 62.9955 21.4201C63.1075 21.4213 63.2182 21.445 63.321 21.4897C63.4237 21.5343 63.5165 21.5992 63.5939 21.6802C63.6712 21.7613 63.7315 21.857 63.7713 21.9618C63.8111 22.0665 63.8296 22.1782 63.8256 22.2902V22.3002ZM70.2961 32.5611C70.0721 32.4889 69.8714 32.3581 69.7149 32.1822C69.5584 32.0064 69.4518 31.7919 69.406 31.561C68.8366 31.9866 68.2061 32.3238 67.5359 32.5611C67.0351 32.5639 66.5531 32.371 66.1925 32.0235C65.8319 31.676 65.6214 31.2014 65.6057 30.7009C65.6059 30.3339 65.7248 29.9767 65.9447 29.6829C66.1647 29.3891 66.4737 29.1744 66.8258 29.0708C67.7127 28.7584 68.5751 28.3807 69.406 27.9407V27.3906C69.406 26.3905 68.936 25.8604 68.0859 25.8604C67.2359 25.8604 66.9658 26.5405 66.7858 27.2205C66.77 27.3054 66.7257 27.3824 66.6602 27.4388C66.5948 27.4951 66.5121 27.5275 66.4258 27.5306C66.1658 27.5306 65.7357 27.2705 65.7357 26.9705C65.7357 26.6705 65.9257 26.5405 66.2858 26.2805C67.0235 25.7372 67.8693 25.3587 68.766 25.1704C69.217 25.1731 69.6577 25.305 70.0361 25.5504C70.2562 25.7415 70.426 25.9837 70.5306 26.2557C70.6353 26.5277 70.6715 26.8212 70.6362 27.1105V30.7408C70.6362 31.3209 70.8462 31.6009 71.0862 31.6009C71.3325 31.5851 71.5719 31.5133 71.7863 31.3909L71.9263 31.7409L70.2961 32.5611V32.5611ZM69.406 28.4806C69.056 28.6206 68.0859 29.0508 67.7759 29.2108C67.531 29.3043 67.3204 29.4701 67.1721 29.6863C67.0238 29.9025 66.9449 30.1587 66.9458 30.4209C66.9293 30.5733 66.944 30.7276 66.9889 30.8742C67.0339 31.0207 67.1083 31.1567 67.2074 31.2736C67.3066 31.3905 67.4285 31.4861 67.5658 31.5544C67.7031 31.6227 67.8528 31.6624 68.0059 31.671C68.5215 31.5994 69.0066 31.3846 69.406 31.0509V28.4806ZM74.9065 26.3705C75.2165 26.1404 75.5666 25.9205 75.9766 25.6604C76.3839 25.3709 76.8673 25.2075 77.3667 25.1904C77.6438 25.1789 77.9201 25.227 78.1768 25.3318C78.4335 25.4366 78.6646 25.5955 78.8544 25.7977C79.0442 25.9998 79.1882 26.2405 79.2767 26.5033C79.3651 26.7661 79.3959 27.0449 79.3669 27.3206V30.9109C79.3669 31.811 79.4569 31.9109 80.367 31.9809V32.351H76.9667V31.9809C78.0268 31.8809 78.1168 31.811 78.1168 30.9109V27.8207C78.1168 26.8906 77.8068 26.0904 76.6267 26.0904C75.9711 26.1259 75.35 26.3956 74.8765 26.8505V30.9109C74.8765 31.811 74.9565 31.9109 75.8766 31.9809V32.351H72.4063V31.9809C73.5164 31.8809 73.6064 31.811 73.6064 30.9109V27.2006C73.6064 26.2005 73.6064 26.2004 72.5163 26.0904V25.7905C73.3079 25.6217 74.0892 25.408 74.8565 25.1504V26.3705H74.9065ZM37.6133 37.4615C37.6067 37.121 37.6675 36.7825 37.7923 36.4656C37.9172 36.1487 38.1035 35.8597 38.3406 35.6152C38.5776 35.3706 38.8608 35.1754 39.1737 35.0409C39.4865 34.9063 39.8229 34.8352 40.1635 34.8313H40.2835C40.655 34.8113 41.0264 34.8724 41.3718 35.0106C41.7173 35.1488 42.0284 35.3606 42.2837 35.6313L41.5736 36.4614C41.4072 36.2828 41.2061 36.14 40.9825 36.042C40.7589 35.9439 40.5176 35.8927 40.2735 35.8913C39.8721 35.8992 39.4901 36.0656 39.2109 36.3541C38.9317 36.6427 38.778 37.03 38.7834 37.4315V37.5014C38.7614 37.9025 38.898 38.2961 39.1637 38.5974C39.4293 38.8986 39.8028 39.0833 40.2035 39.1116V39.1116C40.4555 39.1108 40.7045 39.0579 40.9351 38.9564C41.1657 38.8549 41.3729 38.7068 41.5436 38.5215L42.2537 39.2516C41.9953 39.553 41.6723 39.7922 41.3087 39.9515C40.9451 40.1108 40.5502 40.1861 40.1535 40.1717C39.4709 40.1824 38.8118 39.9221 38.3207 39.4479C37.8296 38.9736 37.5464 38.3241 37.5333 37.6415V37.6415C37.5395 37.5883 37.5395 37.5346 37.5333 37.4814L37.6133 37.4615ZM44.0138 34.9213H45.1439V36.9214H47.2241V34.9213H48.3542V40.0117H47.2241V38.0115H45.2639V40.0117H44.1338L44.0138 34.9213ZM52.2045 34.8612H53.2046L55.3848 40.0117H54.3647L53.8947 38.8716H51.7345L51.2645 40.0117H50.1344L52.2045 34.8612ZM53.3746 37.8615L52.7046 36.2014L52.0245 37.8615H53.3746ZM57.105 34.8612H58.1051L60.4953 38.0115V34.8612H61.6054V39.9517H60.6553L58.1751 36.6914V39.9517H57.065L57.105 34.8612ZM63.8356 34.8612H64.8357L67.2259 38.0115V34.8612H68.336V39.9517H67.3359L64.8556 36.6914V39.9517H63.9656L63.8356 34.8612ZM70.5562 34.8612H74.4065V35.8613H71.6862V36.8614H74.0965V37.8615H71.6862V38.9316H74.4665V39.9317H70.5562V34.8612ZM76.4567 34.8612H77.5868V38.9516H80.127V39.9517H76.4567V34.8612Z" fill="#FAFAFA"/>
</svg>
