<svg width="104" height="64" viewBox="0 0 104 64" fill="none" xmlns="http://www.w3.org/2000/svg">
<path d="M82.91 23.7C82.1853 21.001 81.1095 18.4089 79.71 15.99V15.99C78.2998 13.5631 76.5786 11.3308 74.59 9.34998V9.34998C72.6224 7.38009 70.4032 5.67877 67.99 4.29004V4.29004C65.5623 2.88942 62.9596 1.81668 60.25 1.09998C57.5595 0.37639 54.7861 0.00663257 52 0H51.79C49.058 0.0188753 46.3396 0.385113 43.7 1.08997V1.08997C41.0103 1.81395 38.4255 2.88287 36.01 4.27002V4.27002C33.5779 5.66892 31.3418 7.38381 29.36 9.37V9.37C27.3895 11.3494 25.6821 13.5744 24.28 15.99C22.8846 18.4109 21.809 21.0025 21.08 23.7V23.7C20.3616 26.4081 19.9985 29.1982 20 32V32C19.9979 34.7893 20.3644 37.5667 21.09 40.26V40.26C21.8128 42.9707 22.8922 45.5734 24.3 48V48C25.6967 50.4189 27.4083 52.6416 29.39 54.61V54.61C31.3691 56.5781 33.5942 58.2822 36.01 59.6801V59.6801C38.4276 61.0868 41.0245 62.1598 43.73 62.87V62.87C46.4257 63.6054 49.2059 63.9853 52 64V64C54.7955 63.9965 57.5788 63.6302 60.28 62.91V62.91C62.9797 62.1783 65.5718 61.0956 67.99 59.6899V59.6899C70.4019 58.2873 72.6206 56.5763 74.59 54.6V54.6C76.5645 52.6167 78.2722 50.3845 79.67 47.96V47.96C81.0672 45.5459 82.1366 42.9565 82.85 40.26V40.26C83.5953 37.5693 83.982 34.792 84 32V32C84.0057 29.1973 83.6391 26.4062 82.91 23.7V23.7ZM31.67 44.88C29.5087 44.8734 27.368 44.4595 25.36 43.66C25.13 43.58 24.94 43.4799 24.94 43.1899V38.79C24.9328 38.7173 24.9413 38.6438 24.9649 38.5746C24.9886 38.5054 25.0268 38.442 25.0771 38.3889C25.1274 38.3358 25.1885 38.2941 25.2563 38.2667C25.3241 38.2393 25.397 38.2268 25.47 38.23C25.6485 38.2371 25.8229 38.285 25.98 38.37C27.8277 39.2001 29.8163 39.6718 31.84 39.76C33.37 39.76 34.68 39.22 34.68 37.85C34.68 37.11 34.43 36.8501 34.11 36.6801C33.7398 36.4791 33.3554 36.3053 32.96 36.16C31.96 35.77 30.87 35.59 29.79 35.16C28.578 34.7571 27.4544 34.1257 26.48 33.3C25.8812 32.7397 25.4111 32.0561 25.102 31.2965C24.793 30.5369 24.6524 29.7192 24.69 28.9C24.69 24.44 28.34 21.6801 32.89 21.6801C34.7525 21.6916 36.6005 22.0091 38.36 22.62C38.59 22.7 38.83 22.78 38.83 23.04V27.34C38.83 27.67 38.68 27.91 38.39 27.91C38.218 27.8853 38.0499 27.8382 37.89 27.77C36.3665 27.1733 34.7619 26.8091 33.13 26.6899C30.96 26.6899 30.13 27.6899 30.13 28.6899C30.13 29.6899 31.04 29.9 32.25 30.29C33.6087 30.6206 34.9448 31.0382 36.25 31.54C37.4242 32.008 38.4258 32.8264 39.1182 33.8839C39.8107 34.9414 40.1605 36.1865 40.12 37.45C40.1 41.53 37.11 44.88 31.67 44.88V44.88ZM53.67 44.88C52.0455 44.8731 50.4405 44.5251 48.959 43.8584C47.4775 43.1917 46.1526 42.2213 45.07 41.01C43.36 39.01 42.38 37.01 42.38 32.25V10.5699C42.3771 10.514 42.386 10.4581 42.4061 10.4059C42.4262 10.3536 42.457 10.3062 42.4966 10.2666C42.5362 10.227 42.5837 10.1962 42.6359 10.1761C42.6882 10.1561 42.7441 10.1472 42.8 10.15H47.58C47.6355 10.1487 47.6908 10.1586 47.7423 10.1792C47.7939 10.1998 47.8408 10.2307 47.88 10.27C47.9193 10.3093 47.9502 10.3561 47.9708 10.4077C47.9915 10.4593 48.0014 10.5144 48 10.5699V24C49.7405 22.72 51.8396 22.0203 54 22C56.989 22.0729 59.8316 23.3091 61.9232 25.4456C64.0149 27.582 65.1905 30.4501 65.2 33.4399C65.1737 36.4788 63.9486 39.3845 61.7913 41.5249C59.6341 43.6653 56.719 44.8675 53.68 44.87L53.67 44.88ZM79 26.88C79.0045 26.9429 78.9954 27.0059 78.9733 27.0649C78.9513 27.124 78.9168 27.1776 78.8722 27.2222C78.8277 27.2667 78.7741 27.3013 78.715 27.3234C78.656 27.3454 78.5929 27.3544 78.53 27.35H74.43V35.25C74.43 36.01 74.43 37.65 75.33 38.49C76.269 39.1453 77.4099 39.4464 78.55 39.34C78.609 39.3372 78.6679 39.3467 78.7231 39.3677C78.7783 39.3887 78.8285 39.4208 78.8708 39.462C78.913 39.5033 78.9462 39.5528 78.9685 39.6075C78.9907 39.6622 79.0014 39.721 79 39.78V44.36C79.003 44.4207 78.9931 44.4815 78.9709 44.5381C78.9487 44.5947 78.9147 44.6459 78.8712 44.6885C78.8277 44.731 78.7757 44.7638 78.7187 44.7848C78.6616 44.8057 78.6007 44.8144 78.54 44.8101H77.85C74.23 44.8101 72.24 43.52 71.08 42.36C69.49 40.72 68.81 38.71 68.81 35.41V27.35H65.56C65.5007 27.3543 65.4411 27.346 65.3852 27.3256C65.3293 27.3051 65.2784 27.273 65.2358 27.2314C65.1933 27.1898 65.1601 27.1396 65.1384 27.0842C65.1167 27.0288 65.107 26.9695 65.11 26.91V22.28C65.11 22.173 65.1518 22.0701 65.2265 21.9935C65.3013 21.9169 65.403 21.8726 65.51 21.87H68.81V15.39C68.8055 15.3298 68.8141 15.2693 68.8351 15.2126C68.8562 15.156 68.8892 15.1046 68.9319 15.0619C68.9746 15.0192 69.026 14.9861 69.0826 14.9651C69.1393 14.9441 69.1998 14.9355 69.26 14.9399H74C74.0599 14.9371 74.1196 14.9468 74.1755 14.9684C74.2314 14.99 74.2822 15.0231 74.3246 15.0654C74.3669 15.1078 74.4 15.1586 74.4216 15.2145C74.4432 15.2704 74.4529 15.3302 74.45 15.39V21.87H78.52C78.5867 21.8622 78.6542 21.8695 78.7178 21.8912C78.7813 21.913 78.8391 21.9486 78.887 21.9956C78.935 22.0426 78.9718 22.0997 78.9948 22.1627C79.0178 22.2258 79.0264 22.2932 79.02 22.36L79 26.88Z" fill="#FAFAFA"/>
<path d="M53.649 27.48C52.8791 27.464 52.1138 27.6021 51.3979 27.886C50.6821 28.1699 50.0302 28.5941 49.4806 29.1334C48.931 29.6728 48.4946 30.3166 48.1973 31.027C47.8999 31.7374 47.7475 32.5 47.749 33.27C47.7169 34.0589 47.8434 34.8462 48.1211 35.5854C48.3987 36.3245 48.8219 37.0003 49.3656 37.5729C49.9093 38.1455 50.5623 38.603 51.2861 38.9186C52.0098 39.2342 52.7895 39.4013 53.579 39.4101C54.3703 39.4222 55.156 39.2753 55.8894 38.9781C56.6229 38.6808 57.2891 38.2393 57.8487 37.6797C58.4083 37.1201 58.8498 36.4538 59.1471 35.7204C59.4443 34.9869 59.5912 34.2013 59.579 33.4101C59.5898 32.6283 59.4438 31.8524 59.1496 31.1281C58.8554 30.4038 58.419 29.7457 57.8662 29.1929C57.3134 28.6401 56.6554 28.2036 55.931 27.9094C55.2067 27.6153 54.4308 27.4692 53.649 27.48V27.48Z" fill="#FAFAFA"/>
</svg>
