<svg width="104" height="64" viewBox="0 0 104 64" fill="none" xmlns="http://www.w3.org/2000/svg">
<path d="M78.7906 37.5706C79.0217 37.3823 79.1703 37.1478 79.3354 36.9264C79.6622 36.4838 79.9462 36.0181 80.174 35.516C80.2764 35.288 80.349 35.2517 80.5306 35.2715C80.6363 35.2847 80.6726 35.3343 80.6297 35.4334C80.1443 36.5763 79.5335 37.63 78.5066 38.3799C77.975 38.7663 77.3939 38.9843 76.717 38.9183C76.225 38.8687 75.8915 38.5847 75.8453 38.0991C75.8189 37.8018 75.8222 37.5012 75.8717 37.2039C76.0104 36.4078 76.1953 35.6217 76.4099 34.8454C76.4363 34.7562 76.476 34.6604 76.4099 34.5712C76.3241 34.5911 76.3241 34.6604 76.3043 34.7133C75.9972 35.549 75.6406 36.3583 75.1255 37.0916C74.6236 37.8051 73.9996 38.3766 73.1939 38.7399C72.7383 38.9447 72.2628 38.9744 71.7874 38.8919C71.4109 38.8258 71.1633 38.5549 71.0312 38.1916C70.9586 37.9934 70.9157 37.7919 70.9058 37.5772C70.8463 36.0412 71.1468 34.5812 71.8666 33.2202C72.3685 32.2689 73.0586 31.4827 73.9897 30.9179C74.7887 30.4323 75.6505 30.211 76.5816 30.2473C77.2552 30.2738 77.9024 30.4224 78.5363 30.6371C78.6684 30.6801 78.7807 30.6834 78.9127 30.6371C79.3717 30.4786 79.8372 30.3266 80.2995 30.1747C80.3457 30.1582 80.3919 30.1383 80.4415 30.1317C80.5669 30.1152 80.6132 30.1549 80.5835 30.2804C80.5207 30.5413 80.4514 30.8023 80.3787 31.0599C80.1872 31.7503 79.9891 32.4407 79.7976 33.131C79.6193 33.7719 79.4377 34.416 79.2693 35.0601C79.0745 35.8232 78.8896 36.5862 78.741 37.3592C78.7311 37.4186 78.7212 37.4781 78.7807 37.5739L78.7906 37.5706ZM74.1911 36.0214C74.1911 36.2229 74.1911 36.3517 74.1911 36.4838C74.1911 36.606 74.1911 36.7282 74.31 36.8042C74.4519 36.8901 74.5576 36.791 74.6633 36.7249C74.8283 36.6258 74.9538 36.4805 75.0727 36.3352C75.4524 35.8694 75.7562 35.3508 76.0104 34.8091C76.5156 33.7322 76.8722 32.5992 77.1231 31.4398C77.1793 31.1888 77.0967 30.941 76.9448 30.7362C76.8293 30.5777 76.6609 30.5314 76.4661 30.581C76.2415 30.6404 76.0797 30.7825 75.9279 30.9443C75.5779 31.3209 75.3269 31.7635 75.1156 32.2293C74.8383 32.8371 74.6269 33.468 74.4717 34.1187C74.3133 34.7694 74.2373 35.4334 74.1878 36.028L74.1911 36.0214Z" fill="#FAFAFA"/>
<path d="M95.7846 36.5069C95.8077 35.1559 96.0916 33.904 96.7982 32.7743C97.4421 31.7437 98.3171 30.9939 99.476 30.5843C100.539 30.2077 101.616 30.1383 102.712 30.3729C103.118 30.462 103.478 30.6536 103.739 30.9972C103.894 31.202 103.99 31.42 103.996 31.6842C104.009 32.1995 103.996 32.6983 103.699 33.1542C103.389 33.6298 102.966 33.9668 102.471 34.2211C101.837 34.5448 101.157 34.7199 100.457 34.8421C100.06 34.9115 99.6675 34.9577 99.268 34.9643C99.1161 34.9676 99.0501 35.037 99.0501 35.1823C99.0501 35.5028 99.0369 35.8199 99.0567 36.1403C99.0963 36.7183 99.4562 37.0784 100.047 37.085C100.856 37.0949 101.573 36.8306 102.16 36.2559C102.491 35.9355 102.794 35.5919 103.052 35.2088C103.118 35.113 103.174 34.9974 103.3 34.9577C103.369 34.9346 103.442 34.9214 103.494 34.9842C103.541 35.037 103.508 35.0965 103.481 35.1493C103.333 35.4433 103.164 35.7274 102.976 35.9982C102.401 36.824 101.705 37.5342 100.85 38.0694C100.298 38.4162 99.7071 38.6606 99.0699 38.8159C98.5449 38.9447 98.0199 38.9579 97.4982 38.9018C96.7388 38.8159 96.1478 38.3865 95.91 37.6069C95.7978 37.2369 95.7846 36.8604 95.7812 36.5135L95.7846 36.5069ZM101.107 31.9287C101.107 31.7965 101.107 31.7173 101.107 31.638C101.117 31.3969 101.081 31.159 100.998 30.9344C100.899 30.6702 100.718 30.6041 100.483 30.756C100.348 30.8419 100.242 30.9641 100.15 31.0963C99.8755 31.4827 99.7071 31.9155 99.552 32.3581C99.3208 33.0187 99.2086 33.7058 99.093 34.3929C99.0831 34.4622 99.0798 34.5316 99.0765 34.601C99.0765 34.7067 99.1326 34.743 99.2317 34.7133C99.2713 34.7034 99.3109 34.6968 99.3472 34.6836C99.9482 34.4622 100.427 34.0923 100.734 33.5208C101.008 33.0088 101.14 32.4638 101.104 31.932L101.107 31.9287Z" fill="#FAFAFA"/>
<path d="M85.4794 33.6628C85.6115 33.6331 85.6148 33.501 85.6511 33.4085C85.9714 32.5992 86.361 31.8296 86.8761 31.126C87.127 30.7857 87.4044 30.4785 87.8072 30.3068C88.3124 30.0888 88.8143 30.32 88.9695 30.8452C89.1907 31.6049 89.1081 32.3416 88.7977 33.0617C88.6591 33.3854 88.4709 33.6761 88.2034 33.9073C88.0152 34.0691 87.9723 34.079 87.8534 33.8809C87.5332 33.3589 86.5921 33.349 86.153 33.7785C85.737 34.1881 85.4662 34.6802 85.2582 35.212C84.9874 35.8991 84.7728 36.5994 84.6209 37.3228C84.545 37.6829 84.4624 38.0429 84.3931 38.403C84.3502 38.6276 84.3337 38.6375 84.1025 38.6606C83.4884 38.7168 82.871 38.7597 82.2568 38.8324C81.9002 38.8753 81.5436 38.8951 81.1837 38.915C81.0351 38.9249 80.9922 38.8753 81.0384 38.7432C81.1903 38.3105 81.3158 37.8744 81.438 37.4318C81.5766 36.9231 81.7186 36.4177 81.8573 35.909C81.9629 35.5259 82.0686 35.1427 82.1677 34.7562C82.27 34.3499 82.3625 33.9436 82.4615 33.5373C82.5276 33.2565 82.6035 32.9791 82.6596 32.6983C82.7191 32.4076 82.7653 32.1136 82.8148 31.8196C82.8247 31.7635 82.8346 31.6908 82.762 31.6677C82.6927 31.6446 82.653 31.7073 82.6167 31.7503C82.1677 32.292 81.7946 32.8767 81.5139 33.5208C81.471 33.6199 81.4181 33.719 81.3785 33.8181C81.3521 33.8809 81.3059 33.9106 81.2498 33.9337C81.088 33.9932 80.9823 33.9106 81.0252 33.7454C81.0582 33.61 81.1078 33.4779 81.1672 33.3523C81.5601 32.543 81.9993 31.7635 82.6695 31.1425C83.0757 30.7659 83.5214 30.4521 84.0629 30.3035C84.3964 30.2143 84.7365 30.1912 85.07 30.2704C85.5686 30.3894 85.7402 30.6272 85.7931 31.1656C85.8393 31.6148 85.7502 32.0608 85.661 32.5001C85.595 32.8205 85.519 33.1409 85.4497 33.4613C85.4365 33.5274 85.4101 33.6001 85.4827 33.6595L85.4794 33.6628Z" fill="#FAFAFA"/>
<path d="M92.384 37.6465C92.493 37.673 92.5491 37.5871 92.6151 37.5342C93.0708 37.1709 93.4274 36.7117 93.7807 36.2559C94.0812 35.8694 94.3321 35.4499 94.5863 35.0337C94.626 34.9676 94.6524 34.8851 94.7316 34.852C94.8142 34.8157 94.9066 34.7761 94.9859 34.8421C95.0717 34.9148 94.9925 34.9974 94.9628 35.0568C94.6986 35.5688 94.4146 36.0742 94.0646 36.5367C93.5 37.2799 92.8694 37.9537 92.0703 38.4558C91.5057 38.8093 90.9015 38.991 90.2279 38.9117C89.8185 38.8621 89.4949 38.5781 89.4487 38.1685C89.4157 37.8613 89.4322 37.5541 89.485 37.2469C89.627 36.4211 89.8449 35.6118 90.0628 34.8058C90.2576 34.0758 90.4954 33.3557 90.7166 32.6323C90.776 32.4308 90.8421 32.2326 90.8982 32.0311C90.9576 31.8197 90.9378 31.7932 90.71 31.7866C90.4921 31.78 90.2708 31.7866 90.0496 31.7866C90.0001 31.7866 89.9506 31.7866 89.901 31.7866C89.6798 31.78 89.6468 31.7437 89.6996 31.5422C89.7425 31.377 89.7954 31.2152 89.8416 31.0533C89.8548 31.0071 89.8746 30.9575 89.8878 30.9113C89.9649 30.6316 90.1509 30.4918 90.4458 30.4918C90.7067 30.4918 90.9642 30.4918 91.2251 30.4918C91.3604 30.4918 91.4397 30.4488 91.4925 30.3101C91.6378 29.9302 91.8095 29.5603 91.9548 29.1771C92.034 28.9624 92.1529 28.8831 92.3939 28.8699C93.0906 28.8303 93.7873 28.8137 94.4873 28.7972C95.0585 28.784 94.9495 28.7774 94.8076 29.2531C94.7052 29.5966 94.5797 29.9335 94.4741 30.2738C94.4179 30.4587 94.4378 30.4852 94.6293 30.4885C95.0288 30.4951 95.4283 30.4885 95.8278 30.4885C95.8972 30.4885 95.9665 30.4885 96.0391 30.4885C96.1415 30.4918 96.191 30.5545 96.1613 30.647C96.0557 30.9575 95.9863 31.2812 95.9038 31.5984C95.8642 31.747 95.7585 31.7866 95.6066 31.7866C95.1675 31.7767 94.7283 31.7833 94.2892 31.7866C94.025 31.7866 94.0019 31.8065 93.926 32.0443C93.6453 32.9461 93.3548 33.8478 93.0906 34.7562C92.8298 35.6547 92.559 36.5499 92.3939 37.4748C92.384 37.5309 92.351 37.5871 92.3906 37.6465H92.384Z" fill="#FAFAFA"/>
<path d="M21.9913 34.6572C22.4602 33.6001 22.8927 32.5299 23.6588 31.6479C24.2333 30.9906 24.9102 30.4786 25.7918 30.3002C26.0889 30.2408 26.3828 30.2276 26.68 30.3101C27.1653 30.4456 27.4229 30.7957 27.4724 31.2582C27.545 31.9915 27.5318 32.7281 27.3998 33.4614C27.2677 34.1815 27.0729 34.8785 26.7658 35.5424C26.2639 36.6226 25.554 37.5277 24.5404 38.1784C23.6885 38.7234 22.7607 38.9513 21.7569 38.9084C20.6046 38.8556 19.5249 38.5417 18.5244 37.9637C18.2834 37.825 18.2801 37.8183 18.3197 37.5409C18.3923 36.9958 18.531 36.4673 18.6499 35.9322C18.7489 35.4863 18.8381 35.037 18.9404 34.5911C19.0395 34.1551 19.1485 33.7191 19.2508 33.283C19.3466 32.8668 19.439 32.4473 19.5315 32.0311C19.6338 31.5753 19.7329 31.1161 19.8319 30.6603C19.9673 30.0591 20.1027 29.4546 20.2381 28.8534C20.2711 28.7114 20.2315 28.6123 20.1159 28.5165C19.9178 28.3513 19.7362 28.163 19.5546 27.9781C19.3565 27.7799 19.3598 27.7601 19.6173 27.6775C20.0631 27.5354 20.5121 27.4 20.9579 27.2646C21.7965 27.0135 22.6385 26.7658 23.4772 26.518C23.8569 26.4057 23.8602 26.4123 23.7743 26.7922C23.5333 27.8724 23.2956 28.9525 23.0479 30.0294C22.7541 31.3209 22.4536 32.6125 22.1498 33.904C22.0904 34.1551 22.0178 34.3995 21.9946 34.6572H21.9913ZM24.2828 32.8536C24.2828 32.7909 24.2828 32.7413 24.2828 32.6918C24.2762 32.5695 24.2663 32.4407 24.1507 32.3779C24.0187 32.3053 23.9031 32.3945 23.7908 32.4539C23.7743 32.4638 23.7611 32.4804 23.7446 32.4936C23.5531 32.6686 23.3583 32.8437 23.2064 33.0551C22.5196 33.9866 22.064 35.0337 21.7008 36.1271C21.539 36.6094 21.4465 37.1115 21.2946 37.5937C21.2088 37.8646 21.2418 38.1024 21.3607 38.3436C21.4862 38.6012 21.7437 38.6937 22.0145 38.588C22.1861 38.5219 22.3248 38.4129 22.4536 38.2874C22.8069 37.9406 23.0545 37.5211 23.2692 37.0817C23.6026 36.4013 23.8371 35.6878 24.0154 34.9479C24.1838 34.2542 24.2267 33.5506 24.2861 32.8602L24.2828 32.8536Z" fill="#FAFAFA"/>
<path d="M13.7052 34.6374C13.56 34.8785 13.5005 35.1196 13.4048 35.3443C13.0878 36.0908 12.7246 36.8109 12.2062 37.4385C11.7571 37.9835 11.2289 38.4328 10.5784 38.7201C10.1194 38.9249 9.63737 38.9976 9.14869 38.8919C8.70625 38.7961 8.45861 38.4823 8.33644 38.0595C8.23078 37.6995 8.22088 37.3295 8.24069 36.9595C8.30342 35.7539 8.54115 34.5878 9.07275 33.4978C9.58784 32.4374 10.3043 31.5456 11.3213 30.9179C12.1336 30.4192 13.0184 30.1978 13.9694 30.2375C14.6132 30.2639 15.2307 30.4093 15.8382 30.6174C15.9868 30.6669 16.1189 30.6801 16.2708 30.624C16.7099 30.4654 17.1557 30.3234 17.5981 30.1747C17.6344 30.1615 17.6707 30.1384 17.7104 30.1318C17.7863 30.1186 17.8722 30.0723 17.9349 30.145C17.991 30.2111 17.9316 30.2771 17.9118 30.3399C17.6906 31.1261 17.4693 31.9122 17.2514 32.6984C17.0632 33.3788 16.8684 34.0593 16.6934 34.7464C16.4656 35.6349 16.251 36.5235 16.0727 37.422C16.0627 37.4682 16.0627 37.5211 16.1024 37.5772C16.4193 37.313 16.6439 36.9727 16.875 36.6391C17.116 36.2857 17.324 35.9124 17.509 35.5259C17.5585 35.4202 17.5915 35.2749 17.7632 35.2617C17.9514 35.2485 18.0141 35.3112 17.9415 35.483C17.8292 35.7473 17.717 36.0148 17.5783 36.2692C17.2052 36.9562 16.7627 37.5937 16.1684 38.1157C15.7887 38.4493 15.3727 38.7135 14.8873 38.8589C14.5274 38.9646 14.1543 38.9646 13.7944 38.8754C13.4114 38.7796 13.1802 38.4063 13.1604 37.9241C13.1439 37.4913 13.2331 37.0685 13.3156 36.649C13.4312 36.0743 13.5864 35.5061 13.7217 34.9314C13.7416 34.8455 13.7911 34.7629 13.6986 34.6341L13.7052 34.6374ZM11.5326 36.2592C11.5326 36.3583 11.526 36.4607 11.5326 36.5565C11.5557 36.8076 11.701 36.8836 11.9222 36.7712C12.0411 36.7118 12.1303 36.6193 12.2227 36.5268C12.6685 36.0743 12.9887 35.5358 13.2661 34.971C13.8043 33.8776 14.1675 32.7215 14.4481 31.539C14.4911 31.3507 14.4713 31.1657 14.4184 30.9774C14.2963 30.5216 13.8967 30.4456 13.56 30.6768C13.2793 30.8684 13.0944 31.136 12.9095 31.4101C12.4307 32.1203 12.1468 32.9131 11.909 33.729C11.668 34.5548 11.5623 35.4004 11.526 36.2592H11.5326Z" fill="#FAFAFA"/>
<path d="M27.885 36.1039C27.9081 34.6307 28.3538 33.316 29.2915 32.1632C30.008 31.2846 30.9127 30.6933 31.999 30.3993C32.7255 30.2044 33.4717 30.1714 34.2212 30.3134C34.5745 30.3795 34.9113 30.4852 35.2249 30.6702C35.8325 31.0269 36.1429 31.5851 36.2452 32.2491C36.4895 33.8049 36.1131 35.2385 35.2613 36.5433C34.6174 37.5309 33.7226 38.2345 32.6165 38.6408C31.9495 38.8853 31.2495 38.9744 30.5297 38.9249C30.0972 38.8952 29.6812 38.8357 29.2783 38.6771C28.684 38.4459 28.2977 38.0165 28.0798 37.4285C27.9213 37.0024 27.8817 36.5565 27.885 36.1039ZM33.3495 32.4242C33.3396 31.9947 33.366 31.5653 33.2736 31.1425C33.2306 30.9443 33.2108 30.7197 32.9863 30.6602C32.7783 30.6041 32.6429 30.7792 32.5108 30.9146C32.1773 31.2581 31.9858 31.6875 31.7976 32.1137C31.4443 32.9296 31.2165 33.7818 31.0481 34.6571C30.8599 35.6316 30.817 36.6126 30.8401 37.6003C30.8434 37.7688 30.8698 37.9372 30.9094 38.1024C30.9491 38.2742 30.9689 38.4889 31.1769 38.5351C31.3717 38.5814 31.5071 38.4261 31.6292 38.2973C31.8505 38.0628 32.0123 37.7886 32.1542 37.5012C32.9434 35.9024 33.3099 34.2013 33.3495 32.4275V32.4242Z" fill="#FAFAFA"/>
<path d="M5.63842 30.2408C6.16011 30.2408 6.67189 30.2804 7.16057 30.4786C7.89027 30.7726 8.14121 31.648 7.67235 32.2855C7.35868 32.7116 6.93604 32.9792 6.41765 33.0915C6.12379 33.1542 6.08086 33.1047 6.04124 32.8074C5.95209 32.1203 5.75728 31.4828 5.21578 31.0038C4.99786 30.8122 4.74692 30.7098 4.45306 30.7098C3.92146 30.7065 3.6342 31.1954 3.83231 31.7008C3.95448 32.0146 4.1757 32.2624 4.40023 32.5002C4.80966 32.9362 5.26531 33.326 5.70776 33.729C6.21624 34.1947 6.69831 34.6968 6.94595 35.3542C7.19358 36.0148 7.16057 36.6556 6.70161 37.2436C6.27237 37.7985 5.70445 38.1487 5.0771 38.4262C4.30117 38.7664 3.48232 38.9282 2.64035 38.9415C2.04271 38.9514 1.44508 38.915 0.880467 38.6772C0.49085 38.512 0.177175 38.2412 0.0715161 37.8481C-0.0440483 37.4187 -0.0473501 36.9595 0.272928 36.5731C0.649338 36.1172 1.15452 35.9058 1.71583 35.8001C1.85451 35.7737 1.90734 35.8496 1.92055 35.9851C1.95356 36.3319 1.97668 36.6788 2.09224 37.0124C2.28375 37.5574 2.52808 38.0661 3.0861 38.3337C3.41628 38.4922 3.75967 38.5186 4.10306 38.3997C4.32098 38.3238 4.46296 38.1619 4.49928 37.9175C4.54221 37.6136 4.45966 37.346 4.30447 37.0917C4.11957 36.7812 3.89505 36.5037 3.6375 36.2493C3.21157 35.8298 2.77572 35.4169 2.35639 34.9908C1.94696 34.5746 1.60357 34.1089 1.42197 33.5473C1.18093 32.8107 1.25688 32.1467 1.8413 31.5687C2.40592 31.0104 3.0861 30.69 3.83561 30.4786C4.42664 30.3135 5.02428 30.2309 5.63842 30.2408V30.2408Z" fill="#FAFAFA"/>
<path d="M41.0149 34.8091C41.2659 34.1617 41.4937 33.511 41.7909 32.89C42.1673 32.0939 42.5899 31.3275 43.2272 30.6999C43.4088 30.5216 43.6135 30.3861 43.8545 30.3036C44.3432 30.1417 44.7922 30.3498 44.9408 30.842C45.1752 31.6182 45.0861 32.378 44.746 33.1113C44.6106 33.4053 44.4224 33.6629 44.1847 33.8776C44.0295 34.0164 43.9635 34.0263 43.8413 33.8644C43.4616 33.3458 42.5965 33.2269 41.989 33.8116C41.6456 34.1419 41.3979 34.5383 41.1998 34.9644C40.8003 35.8364 40.5362 36.7547 40.3413 37.6928C40.2918 37.9274 40.239 38.1619 40.1862 38.3931C40.1498 38.555 40.0574 38.6409 39.8758 38.6574C38.981 38.7268 38.0895 38.8126 37.1947 38.8886C36.7258 38.9282 36.7159 38.9216 36.8645 38.4757C37.2112 37.4352 37.4919 36.3749 37.7923 35.3244C38.0631 34.3764 38.2777 33.4152 38.5088 32.4539C38.5683 32.2128 38.598 31.9651 38.6409 31.7173C38.6475 31.6711 38.6673 31.6149 38.6079 31.5852C38.5517 31.5588 38.5154 31.6017 38.4791 31.6347C38.2843 31.8065 38.1192 32.0113 37.9673 32.2194C37.6636 32.6422 37.3961 33.0849 37.1914 33.5638C37.1551 33.6464 37.1121 33.7257 37.0659 33.8017C37.0065 33.9008 36.9041 33.9305 36.8051 33.8842C36.6961 33.8314 36.7456 33.7356 36.7787 33.6497C37.1353 32.7942 37.5942 32.0014 38.2447 31.3408C38.7895 30.7858 39.4267 30.363 40.2258 30.254C40.5626 30.2078 40.8861 30.2573 41.1965 30.3729C41.4937 30.4852 41.5828 30.7561 41.6324 31.0402C41.6786 31.2879 41.6555 31.5357 41.6258 31.7834C41.5432 32.4077 41.4078 33.0188 41.246 33.6266C41.1536 33.9701 41.0942 34.3269 40.9687 34.6605C40.9522 34.7001 40.9456 34.7563 41.0116 34.7992L41.0149 34.8091Z" fill="#FAFAFA"/>
<path d="M59.2482 24.9325C59.3076 24.8136 59.344 24.7343 59.3869 24.6616C59.7864 23.9779 60.0968 23.2578 60.2784 22.4881C60.3048 22.3824 60.3213 22.2701 60.318 22.1611C60.2982 21.6821 60.2255 21.2065 60.0274 20.7638C59.7402 20.1329 59.2515 19.7597 58.5614 19.6176C57.66 19.4326 56.8412 19.6077 56.0916 20.1197C55.5766 20.4732 55.2035 20.9554 55.0615 21.5764C54.9558 22.0356 55.0318 22.4881 55.2233 22.9208C55.5832 23.7301 56.1676 24.3709 56.8048 24.9655C57.9572 26.0424 59.1987 27.0102 60.4666 27.945C61.6685 28.8336 62.8835 29.7056 64.0755 30.6041C64.5675 30.9741 65.033 31.387 65.4788 31.8164C65.9476 32.2689 66.3835 32.7413 66.7665 33.2665C67.3806 34.1088 67.7802 35.0469 67.9915 36.0643C68.2424 37.2766 68.2127 38.4889 67.8858 39.6813C67.4929 41.1249 66.7764 42.39 65.6703 43.4107C65.2146 43.8302 64.6731 44.1407 64.1316 44.4347C63.3425 44.8608 62.517 45.1944 61.6453 45.4256C61.0477 45.5842 60.4369 45.6668 59.8359 45.789C59.0105 45.9575 58.1949 45.865 57.3463 45.8881C57.4223 45.7229 57.5346 45.68 57.6534 45.6271C58.4161 45.2935 59.0831 44.8278 59.5223 44.1011C59.8954 43.4833 60.0241 42.8194 59.8954 42.0927C59.7204 41.0984 59.2449 40.2561 58.6506 39.4732C57.6501 38.1553 56.7223 36.7844 55.778 35.4235C55.2233 34.6208 54.6983 33.7983 54.1667 32.9758C53.5558 32.0278 53.0507 31.0236 52.6247 29.9798C52.354 29.3159 52.1096 28.642 51.9247 27.9516C51.6177 26.7988 51.4592 25.6229 51.5516 24.4304C51.5912 23.9052 51.7101 23.3899 51.8587 22.8812C52.0601 22.2007 52.3342 21.5566 52.704 20.9488C53.1167 20.265 53.6384 19.6804 54.2657 19.1948C54.7709 18.805 55.319 18.478 55.9332 18.2765C56.0586 18.2369 56.1841 18.2038 56.3096 18.1873C57.0459 18.1047 57.7921 18.0486 58.5152 18.2104C59.5322 18.4351 60.2916 19.0396 60.7538 19.9843C60.9255 20.3311 60.9586 20.7209 60.942 21.0942C60.9255 21.4971 60.9321 21.9067 60.8199 22.3097C60.6251 23.01 60.318 23.6508 59.8888 24.2322C59.76 24.4106 59.618 24.5757 59.4826 24.7508C59.4298 24.8235 59.3671 24.8796 59.2383 24.9325H59.2482Z" fill="#FAFAFA"/>
<path d="M58.0657 41.1381C57.9073 41.3826 57.6893 41.4982 57.5011 41.627C56.6955 42.1853 55.8337 42.6378 54.896 42.9318C54.0177 43.206 53.1196 43.315 52.2083 43.1927C51.2937 43.0705 50.4715 42.7072 49.722 42.1687C48.7744 41.485 48.0083 40.646 47.5032 39.5889C47.1994 38.9547 47.0244 38.2875 46.9484 37.5839C46.856 36.7416 46.9286 35.9124 47.1069 35.0899C47.3084 34.1551 47.731 33.326 48.3517 32.5993C49.1772 31.6282 50.1843 30.8949 51.3069 30.3036C51.3432 30.2838 51.3729 30.2606 51.4323 30.2706C50.2041 32.7447 50.1942 35.2188 51.5974 37.6103C53.0238 40.0349 55.2823 41.049 58.069 41.1348L58.0657 41.1381Z" fill="#FAFAFA"/>
<path d="M67.0567 31.0434C67.0336 30.9708 67.0567 30.9245 67.0832 30.8849C67.3275 30.4918 67.235 29.8675 66.8652 29.4744C66.644 29.2366 66.3634 29.0846 66.0926 28.9195C65.8186 28.7543 65.5577 28.5792 65.3266 28.3546C64.5275 27.585 64.3591 25.8706 65.3365 24.8863C66.2643 23.9481 67.8426 23.968 68.711 24.7112C69.0775 25.025 69.3086 25.4247 69.4638 25.8772C69.8468 27.0102 69.6322 28.0838 69.0742 29.0946C68.6416 29.8774 68.077 30.5612 67.2548 30.9807C67.1954 31.0104 67.1492 31.0798 67.0567 31.0434V31.0434Z" fill="#FAFAFA"/>
</svg>
