<svg width="104" height="64" viewBox="0 0 104 64" fill="none" xmlns="http://www.w3.org/2000/svg">
<path d="M52.3068 21.3999C50.6927 17.6276 49.1066 13.8413 47.4646 10.0784C47.1251 9.30622 46.6879 8.53409 46.125 7.91545C45.3296 7.04099 43.9342 7.18053 43.297 8.12942C42.99 8.58525 42.776 9.12017 42.5993 9.65043C41.7434 12.2366 40.9201 14.8321 40.0689 17.4183C39.6642 18.6369 39.2224 19.8417 38.7433 21.2092C37.9804 20.2882 37.3478 19.5207 36.6734 18.7067C38.4595 16.781 38.9061 14.6646 38.0316 12.6599C37.1013 10.5156 35.2082 9.26901 32.636 9.44111C30.5614 9.58065 28.4962 9.97137 26.4496 10.3528C25.7379 10.483 25.0402 10.8319 24.4123 11.2133C23.6308 11.6924 23.4169 12.4785 23.6355 13.3669C23.8634 14.3018 24.5937 14.5391 25.417 14.6042C25.8868 14.6414 26.3659 14.6088 26.8403 14.6088C26.9287 15.167 27.0264 15.6089 27.0682 16.0508C27.3845 19.2463 27.6776 22.4418 28.0078 25.6373C28.0543 26.0699 28.2125 26.5118 28.4078 26.9025C28.8776 27.8467 29.7056 28.0793 30.6777 27.8746C31.622 27.6746 32.0499 27.0048 32.0731 26.0978C32.0917 25.3908 32.008 24.6838 31.9476 23.9768C31.8545 22.8418 31.7429 21.7069 31.6266 20.451C32.9941 20.637 33.5383 21.6557 34.25 22.4092C35.4268 23.6512 36.4734 25.028 37.7199 26.1908C38.6967 27.1025 39.534 26.8374 40.6736 26.242C42.2272 25.428 42.6923 24.0651 43.0923 22.572C43.7947 19.9393 43.8179 19.9254 46.5576 19.9393C46.5948 19.9393 46.6413 19.9207 46.6693 19.9393C46.9949 20.1626 47.4553 20.3254 47.6135 20.637C48.1158 21.6324 48.4368 22.7209 48.9577 23.707C49.5159 24.7535 50.4648 24.9861 51.5393 24.5117C52.7812 23.9628 53.0045 23.0279 52.3068 21.3999V21.3999ZM33.6221 15.7484C33.2174 16.2973 32.3011 16.474 31.5987 16.7764C31.5475 16.7996 31.2684 16.4926 31.2452 16.3205C31.1103 15.4182 31.0266 14.5065 30.901 13.3762C31.6685 13.4971 32.3569 13.4739 32.9197 13.7297C33.7709 14.1158 34.1663 15.0181 33.6267 15.7484H33.6221ZM45.3436 16.8461C43.8924 16.8461 43.897 14.5949 45.3436 14.5949C46.7902 14.5949 46.7902 16.8461 45.3436 16.8461V16.8461Z" fill="#FAFAFA"/>
<path d="M77.1321 51.7596C74.9273 55.0621 74.8343 55.0714 71.7551 52.1456C71.7551 52.7317 71.7923 53.1503 71.7504 53.5597C71.5318 55.6249 71.3551 57.6948 71.0341 59.7414C70.9039 60.574 70.3503 61.2577 69.3643 61.2763C68.2851 61.295 67.7735 60.4856 67.6665 59.6437C67.42 57.732 67.22 55.7923 67.2804 53.8713C67.3548 51.5689 67.6944 49.2711 67.9828 46.9779C68.0665 46.3267 68.3037 45.6755 68.5782 45.0662C69.4387 43.1405 71.3876 42.8986 72.7412 44.5452C73.1598 45.0569 73.4761 45.6476 73.9319 46.336C74.2482 45.4895 74.4482 44.7406 74.7971 44.0661C75.8297 42.0567 77.6298 41.8707 78.8996 43.7266C79.602 44.7499 80.1648 45.9407 80.5044 47.1361C81.3602 50.1409 82.0905 53.1876 82.7882 56.2389C82.9371 56.8994 82.8533 57.6669 82.6766 58.332C82.4068 59.3507 81.2346 59.7367 80.4579 59.0251C79.7927 58.4111 79.1834 57.6296 78.8392 56.8017C78.174 55.2016 77.7182 53.5178 77.1321 51.7549V51.7596Z" fill="#FAFAFA"/>
<path d="M57.3583 29.3354C57.7025 28.4702 57.9164 27.8004 58.2327 27.1817C59.284 25.1351 61.1864 25.0002 62.3632 26.9957C63.0702 28.1958 63.5446 29.5679 63.9074 30.9215C64.5493 33.3309 65.061 35.7822 65.5587 38.2288C65.7122 38.987 65.7959 39.8196 65.6285 40.5545C65.4982 41.122 65.0145 41.8337 64.5168 42.0151C64.0842 42.1732 63.2423 41.8244 62.8841 41.429C61.5445 39.9359 61.1724 37.9916 60.7259 36.1078C60.6096 35.6101 60.5445 35.1031 60.4747 34.731C59.6933 35.4845 58.9863 36.7218 58.1304 36.8334C57.2373 36.9497 56.2047 35.9822 55.1814 35.4612C55.1116 36.4148 55.0837 37.5869 54.9163 38.7358C54.7395 39.9452 54.5535 41.1871 54.1069 42.3081C53.879 42.8802 53.1208 43.4989 52.5115 43.6105C51.637 43.7687 51.0742 42.9686 50.9579 42.1593C50.7626 40.8011 50.5347 39.4056 50.6695 38.0567C50.9905 34.8426 51.4556 31.6331 51.9859 28.4469C52.1487 27.4562 52.7487 26.5306 53.9395 26.4003C55.1582 26.2654 56.0001 26.898 56.5954 27.9027C56.7489 28.1585 56.8652 28.433 57.0001 28.6981C57.0838 28.8563 57.1722 29.0098 57.3583 29.3447V29.3354Z" fill="#FAFAFA"/>
<path d="M55.5863 55.9693C55.1817 54.6203 54.1723 53.4575 53.4374 52.2063C53.2792 52.0714 53.4048 51.7969 53.4885 51.5179C54.0653 49.5829 53.1118 47.4804 51.2698 47.1595C48.1208 46.6106 44.9579 46.7641 41.8693 47.6758C41.046 47.9177 40.4879 48.541 40.5902 49.4247C40.7065 50.3969 41.3158 51.062 42.3484 51.169C42.9345 51.2295 43.5345 51.1783 44.2136 51.1783C44.2602 51.6667 44.2974 52.1039 44.3485 52.5458C44.7207 55.8018 45.1021 59.0578 45.4602 62.3184C45.5905 63.4952 46.2184 64.072 47.3906 63.9929C48.5395 63.9139 49.7023 63.8673 50.8279 63.6487C54.3537 62.9603 56.6283 59.4206 55.591 55.9693H55.5863ZM49.5163 50.1178C50.9675 50.1178 50.9628 52.3691 49.5163 52.3691C48.0697 52.3691 48.0697 50.1178 49.5163 50.1178ZM49.0976 60.1462C49.0186 58.5787 48.9395 57.0716 48.8604 55.5785C50.7489 55.2902 51.8327 56.0297 51.921 57.5461C52.0187 59.2578 51.107 60.1509 49.0976 60.1462Z" fill="#FAFAFA"/>
<path d="M66.6151 54.1133C66.643 56.5785 66.3919 58.4018 65.229 59.9926C63.387 62.509 60.3869 62.6114 58.4147 60.2019C56.6611 58.0576 56.182 55.4436 55.7867 52.8155C55.4983 50.9131 55.5029 49.0153 56.3216 47.2152C56.5169 46.7826 56.7867 46.3501 57.1216 46.0245C58.131 45.0384 59.6427 45.3919 59.8706 46.7826C60.0985 48.1548 59.9822 49.5921 59.9776 51.0015C59.9683 52.4806 59.8566 53.9598 59.9031 55.4389C59.9171 55.8715 60.2334 56.3506 60.5311 56.7087C61.2567 57.5832 62.373 57.4716 62.9452 56.4855C63.6243 55.318 63.6429 54.0574 63.2475 52.8062C62.8428 51.5271 62.3451 50.2758 61.9405 49.0014C61.7498 48.4013 61.6335 47.7687 61.5637 47.1454C61.4567 46.15 61.7684 45.3593 62.8521 45.1035C63.9173 44.8523 64.7825 45.2663 65.1127 46.257C65.6151 47.7687 66.0011 49.3316 66.2988 50.8991C66.5314 52.1411 66.5547 53.4202 66.6198 54.1226L66.6151 54.1133Z" fill="#FAFAFA"/>
<path d="M35.2357 33.0191C34.324 33.0191 33.5426 33.0098 32.7658 33.0191C31.9285 33.0284 31.3192 32.5772 31.2541 31.8237C31.2076 31.2516 31.5704 30.633 31.8029 30.0562C31.8588 29.912 32.082 29.8143 32.2495 29.7399C35.1892 28.4468 38.2451 27.7026 41.4779 28.0096C42.7291 28.1305 43.4221 29.1724 42.9105 30.2143C42.6407 30.7585 42.05 31.2237 41.4965 31.526C40.9243 31.8377 40.222 31.9074 39.4498 32.1168C39.4824 32.5586 39.4917 33.0238 39.5568 33.4843C39.9196 36.0704 40.315 38.6473 40.6453 41.2382C40.729 41.894 40.6639 42.5778 40.5941 43.2383C40.4964 44.1546 40.1196 44.9686 39.101 45.0709C38.1428 45.1686 37.3986 44.5965 37.1427 43.7127C36.6962 42.1824 36.3334 40.6242 36.0636 39.0567C35.7194 37.0519 35.5008 35.0192 35.231 33.0284L35.2357 33.0191Z" fill="#FAFAFA"/>
<path d="M49.1396 41.1404C49.1396 41.6986 49.1629 42.2614 49.135 42.8149C49.0885 43.6243 48.7861 44.2941 47.8884 44.4336C47 44.5685 46.279 44.1638 46.0185 43.3498C45.572 41.973 45.172 40.5683 44.9487 39.1403C44.5208 36.3774 44.2045 33.5958 43.8975 30.819C43.8231 30.1631 43.7952 29.4096 44.051 28.8328C44.3161 28.2281 44.8557 27.5537 45.4371 27.3304C46.3116 26.9862 47.0698 27.5909 47.3721 28.4235C47.7256 29.3956 47.9861 30.4282 48.1163 31.4562C48.535 34.675 48.8699 37.9077 49.242 41.1311L49.1443 41.1451L49.1396 41.1404Z" fill="#FAFAFA"/>
<path d="M25.8035 3.67342C26.0407 4.71068 26.2872 5.74329 26.5198 6.78055C26.6035 7.14336 26.6872 7.51082 26.7151 7.88294C26.7663 8.56669 26.4733 9.18068 25.7755 9.13416C25.3058 9.1016 24.6034 8.68763 24.4639 8.28296C24.008 6.98987 23.7661 5.62235 23.4126 4.16181C23.0266 4.24089 22.6359 4.44555 22.3335 4.34787C21.887 4.20833 21.3242 3.93855 21.1614 3.57108C21.0404 3.29665 21.3893 2.50126 21.673 2.41289C23.3754 1.88728 25.1151 1.45004 26.864 1.11514C27.1663 1.05468 27.6687 1.56168 27.9431 1.91519C28.4222 2.53382 28.799 3.23618 29.2176 3.90599L29.5385 3.78505C29.6316 2.98966 29.7106 2.18962 29.813 1.39423C29.92 0.580231 30.2362 -0.136085 31.2084 0.0220629C32.0736 0.161605 32.255 0.836059 32.1294 1.65005C31.8782 3.26874 31.7526 4.91999 31.3944 6.51077C31.2642 7.08755 30.6828 7.82712 30.1618 7.97131C29.7339 8.09225 28.9478 7.55734 28.5757 7.10615C27.8175 6.19448 27.2407 5.13396 26.5709 4.14321C26.4221 3.92459 26.2035 3.74784 26.0174 3.55248L25.8128 3.66876L25.8035 3.67342Z" fill="#FAFAFA"/>
<path d="M48.3158 2.93382C48.1903 4.47343 47.5391 5.38976 46.4739 5.98049C45.5203 6.5061 44.7482 6.01305 44.7761 4.92927C44.8087 3.68735 45.4227 2.7152 46.446 2.08261C46.7948 1.86865 47.4367 1.81283 47.7763 1.99889C48.1065 2.17564 48.2182 2.75241 48.3112 2.93382H48.3158Z" fill="#FAFAFA"/>
</svg>
