<svg width="104" height="64" viewBox="0 0 104 64" fill="none" xmlns="http://www.w3.org/2000/svg">
<path d="M85.3537 16.5446C82.6489 12.9091 79.152 10.1863 75.1912 8.08995C67.3149 3.91834 58.9686 1.17744 50.0742 0.225649C46.6345 -0.141814 43.2039 -0.0755599 39.7883 0.535874C34.2522 1.52682 29.4903 3.99364 25.7464 8.20139C18.4272 16.4211 14.6773 26.0595 14.5749 37.0864C14.5538 39.4839 15.0207 41.8001 15.9363 44.02C17.4152 47.6042 19.8459 50.4596 22.8006 52.8993C26.3849 55.8631 30.4541 57.9986 34.7221 59.7787C41.1136 62.4473 47.7399 64.0015 55.288 63.9985C57.3331 64.0226 59.9415 63.7515 62.5318 63.2726C65.339 62.7546 67.9775 61.8359 70.3359 60.1612C76.8418 55.5378 81.9019 49.6524 85.6518 42.6345C87.7301 38.743 89.1156 34.6196 89.3837 30.1859C89.6879 25.1649 88.3626 20.6018 85.3507 16.5536L85.3537 16.5446ZM81.5586 25.6077C81.5556 25.6378 81.5224 25.6619 81.5043 25.689C81.176 31.3606 79.5375 36.7249 77.6189 42.017C77.0948 43.4658 76.4864 44.8844 75.9322 46.3181C75.3659 47.785 74.7485 49.2277 74.143 50.6765C73.0949 53.1825 71.7666 55.5077 69.7576 57.3902C67.4173 59.5829 64.6372 60.8209 61.4716 61.2335C57.4807 61.7546 53.6494 61.0046 49.8784 59.7938C47.4056 59.0016 45.0472 57.9354 42.731 56.7667C42.24 56.5197 41.6948 56.3782 41.2491 56.0408C36.6287 53.815 32.1047 51.4235 27.906 48.4567C25.2012 46.547 22.635 44.4748 20.3429 42.0773C19.2043 40.8875 18.1772 39.6134 17.2977 38.2129C15.9634 36.0864 15.7104 33.8334 16.361 31.4389C16.9122 29.4149 17.7616 27.5233 18.9182 25.7703C19.0085 25.6348 19.0688 25.4631 19.2435 25.3969C20.1832 24.0204 21.3338 22.8276 22.5627 21.7132C24.644 19.8216 27.0174 18.3578 29.5023 17.0717C32.948 15.2886 36.5956 14.0175 40.2973 12.8911C40.9539 12.6923 41.6256 12.5356 42.2912 12.3579C43.8906 11.8037 45.5442 11.4483 47.1857 11.0387C50.5501 10.2044 53.9476 9.53269 57.3783 9.04173C61.2276 8.49355 65.095 8.17429 68.9835 8.51164C71.6069 8.73754 74.1972 9.1562 76.5376 10.4694C79.4291 12.0929 81.1218 14.5537 81.5736 17.8548C81.926 20.4421 81.8778 23.0234 81.5616 25.6077H81.5586Z" fill="#FAFAFA"/>
<path d="M34.8725 30.0775C33.8575 30.0413 32.8424 30.0684 31.8244 30.0684V30.0534C31.1316 30.0534 30.4358 30.0745 29.7431 30.0504C27.9419 29.9841 27.9208 30.2431 27.9539 31.8786C27.969 32.6286 28.2612 32.9268 29.0081 32.9268C30.8183 32.9268 32.6316 32.9268 34.4418 32.9268C34.7339 32.9268 35.017 32.8937 35.2942 32.8184C35.9387 32.6407 36.2821 32.1828 36.2942 31.5202C36.3092 30.6678 35.7972 30.1106 34.8725 30.0775V30.0775Z" fill="#FAFAFA"/>
<path d="M73.7233 12.5748C71.4251 11.5959 68.8499 11.0266 65.618 10.7796C61.5036 10.4664 57.1423 10.5688 52.2869 11.0959C49.1334 11.4362 45.9527 11.9904 42.8383 12.7344C42.7088 12.7645 42.5823 12.7765 42.4709 12.7886C42.4377 12.7916 42.4046 12.7946 42.3714 12.7976C42.1726 12.8519 41.9708 12.9031 41.769 12.9543C41.3233 13.0687 40.8655 13.1862 40.4257 13.3187C37.1818 14.3066 33.3716 15.5717 29.7091 17.4692C26.8356 18.9572 24.661 20.412 22.8658 22.0445C21.4743 23.3125 20.4502 24.439 19.658 25.5896C19.5526 25.942 19.3779 26.2341 19.2062 26.5173C19.1309 26.6438 19.0557 26.7703 18.9864 26.8998C17.625 29.5443 17.6069 32.1015 18.9291 34.7099C20.1791 37.1737 21.902 39.5562 24.3447 42.2037C28.2904 46.4777 32.977 50.3481 38.2751 53.7065C38.995 54.1643 39.745 54.6101 40.4679 55.0438C40.8052 55.2456 41.1426 55.4474 41.4799 55.6522L41.516 55.6763C41.76 55.8601 42.0522 55.9805 42.3624 56.107C42.5492 56.1823 42.7389 56.2637 42.9287 56.357C45.6244 57.7185 47.8744 58.6733 50.0099 59.357C54.4676 60.7877 57.9826 61.2274 61.4042 60.7786C64.5367 60.369 67.2414 59.116 69.4402 57.0528C71.1631 55.4354 72.5215 53.3511 73.7172 50.4927L74.0666 49.6584C74.5486 48.5108 75.0455 47.3241 75.5033 46.1464C75.7172 45.5982 75.9341 45.0531 76.1539 44.5049C76.5033 43.6374 76.8648 42.7428 77.1871 41.8543C78.9943 36.8664 80.7111 31.4539 81.0454 25.6528C81.1087 23.2312 80.9069 21.3969 80.3948 19.7222C79.3738 16.3849 77.1901 14.0446 73.7172 12.5687L73.7233 12.5748ZM39.992 39.8092C39.8565 40.0501 39.5793 40.005 39.3474 40.008C38.6697 40.014 37.989 40.014 37.3113 40.008C36.6366 40.0019 36.1095 39.7278 35.721 39.1646C35.1547 38.3393 34.5704 37.5291 34.0011 36.7038C33.6036 36.1285 33.0764 35.8424 32.3716 35.8484C31.2361 35.8635 30.0976 35.8484 28.9621 35.8544C28.2603 35.8574 27.9711 36.1345 27.9591 36.8363C27.947 37.5472 27.9621 38.261 27.95 38.9748C27.938 39.7098 27.6549 39.9929 26.932 40.008C26.4049 40.017 25.8808 40.02 25.3537 40.008C24.6911 39.9899 24.3748 39.6917 24.3718 39.0411C24.3628 35.3936 24.3628 31.7461 24.3718 28.0985C24.3718 27.4419 24.7001 27.1287 25.3447 27.1287C28.3476 27.1287 31.3506 27.1227 34.3535 27.1347C35.2722 27.1377 36.1758 27.2853 37.0493 27.5925C39.0583 28.3004 40.0884 30.0142 39.7962 32.1286C39.5974 33.5653 38.8745 34.6135 37.5673 35.252C37.4649 35.3032 37.3625 35.3605 37.239 35.4267C38.1005 36.6737 38.9498 37.8996 39.7962 39.1254C39.9408 39.3333 40.1426 39.5471 39.992 39.8122V39.8092ZM46.8864 35.7791C46.0973 35.7791 45.8292 36.0532 45.8292 36.8544C45.8292 37.6164 45.787 38.3845 45.8413 39.1435C45.8804 39.6917 45.5702 39.8995 45.1575 39.9598C44.4196 40.0682 43.6666 40.0531 42.9257 39.9658C42.4528 39.9086 42.257 39.5501 42.257 39.0863C42.257 38.1014 42.257 37.1195 42.257 36.1345C42.257 33.49 42.257 30.8425 42.257 28.1979C42.257 27.4028 42.5341 27.1227 43.3172 27.1227C45.2178 27.1227 47.1153 27.1227 49.0159 27.1227C50.9315 27.1227 52.8502 27.1227 54.7658 27.1227C55.4826 27.1227 55.7929 27.4269 55.8049 28.1317C55.811 28.472 55.82 28.8124 55.8019 29.1497C55.7658 29.7943 55.317 30.1407 54.6724 30.0624C54.4556 30.0353 54.2327 30.0563 54.0128 30.0563C51.6544 30.0563 49.299 30.0563 46.9406 30.0563C46.0792 30.0563 45.8352 30.3093 45.8352 31.1828C45.8352 31.4208 45.8352 31.6587 45.8352 31.8937C45.8382 32.6527 46.1184 32.9418 46.8684 32.9418C48.9195 32.9418 50.9737 32.9418 53.0248 32.9418C53.9074 32.9418 54.1815 33.2159 54.1845 34.0894C54.1905 35.7611 54.1724 35.7791 52.4918 35.7791C50.6273 35.7791 48.7599 35.7791 46.8955 35.7791H46.8864ZM68.627 50.3572C68.5125 50.5168 68.3288 50.6102 68.13 50.6102C67.9342 50.6102 67.7475 50.5138 67.633 50.3541L62.615 43.3091H57.7025V50.3692H56.4796V43.3091H52.0038V42.0862H62.9313C63.1301 42.0862 63.3138 42.1826 63.4283 42.3423L68.133 48.9506L72.8889 42.3423L73.8799 43.0561L68.627 50.3572V50.3572ZM76.3527 38.9236C76.3497 39.7068 76.0575 39.9959 75.2774 40.008C74.8708 40.014 74.4642 40.008 74.0546 40.008C72.9703 39.9989 72.7685 39.8001 72.7654 38.7339C72.7654 36.6134 72.7654 34.493 72.7654 32.3695C72.7654 32.1346 72.7654 31.8967 72.7654 31.6617C72.7233 31.6437 72.6841 31.6256 72.6419 31.6105C71.7986 32.6437 70.9583 33.6737 70.1149 34.7069C69.3228 35.6797 68.5336 36.6556 67.7384 37.6285C67.2535 38.2219 66.865 38.2188 66.3831 37.6285C64.8379 35.737 63.2927 33.8454 61.7416 31.9569C61.6422 31.8364 61.5819 31.6587 61.3199 31.6226V32.3304C61.3199 34.4689 61.3199 36.6074 61.3199 38.7429C61.3199 39.8001 61.106 40.008 60.0277 40.008C59.6362 40.008 59.2476 40.011 58.8561 40.008C57.9615 39.9959 57.5338 39.508 57.6995 38.6435C57.7356 38.4568 57.7416 38.2761 57.7416 38.0953C57.7446 34.8213 57.7416 31.5473 57.7446 28.2702C57.7446 27.3847 58.0097 27.1227 58.8952 27.1196C59.5398 27.1196 60.1844 27.1347 60.8289 27.1166C61.5879 27.0925 62.1572 27.4028 62.6241 27.9901C63.856 29.5443 65.103 31.0895 66.3469 32.6376C66.8861 33.3093 67.2173 33.3123 67.7505 32.6497C68.9884 31.1196 70.2293 29.5955 71.4492 28.0504C71.9492 27.4178 72.5486 27.0805 73.3709 27.1166C73.9973 27.1437 74.6269 27.1197 75.2533 27.1227C76.0606 27.1227 76.3437 27.4088 76.3467 28.2341C76.3467 30.5744 76.3467 32.9177 76.3467 35.2581C76.3467 36.4809 76.3497 37.7008 76.3467 38.9236H76.3527Z" fill="#FAFAFA"/>
</svg>
