<svg width="104" height="64" viewBox="0 0 104 64" fill="none" xmlns="http://www.w3.org/2000/svg">
<path d="M103.996 14.0558C102.463 18.0902 99.4164 21.1111 96.4704 24.2114C92.4002 28.5002 88.3801 32.8288 84.3141 37.1256C83.6915 37.7854 83.0605 38.795 81.9656 38.3895C80.8415 37.9762 81.1925 36.8235 81.2009 35.945C81.2761 28.7983 81.4433 21.6517 81.4642 14.505C81.4809 8.65406 83.5327 4.15062 89.8552 2.21887H94.4311C96.4536 2.54083 98.4093 2.93036 100.135 4.15062C102.287 5.67297 103.599 7.60075 104.001 10.1049V14.0479L103.996 14.0558Z" fill="#FAFAFA"/>
<path d="M76.875 61.7813C70.4689 61.7693 65.2495 56.6657 65.2913 50.4491C65.3331 44.3677 70.5482 39.5383 77.0547 39.5582C83.6322 39.578 88.7889 44.4988 88.7512 50.7194C88.7136 56.8445 83.3982 61.7932 76.875 61.7813V61.7813Z" fill="#FAFAFA"/>
<path d="M71.9321 30.9805C72.864 29.5217 73.7959 28.0669 74.7278 26.6082C75.129 25.9762 75.5844 25.3561 76.4244 25.2885C77.1557 25.2289 78.075 24.911 78.5681 25.5588C79.0696 26.2147 78.2547 26.7354 77.9037 27.2481C75.6764 30.4876 73.4156 33.7111 71.1758 36.9427C70.7537 37.5548 70.3358 38.1788 69.5335 38.3617C68.6058 38.5723 67.8076 38.4292 67.8285 37.3044C67.8954 33.6952 67.9915 30.0901 68.1002 26.485C68.1419 25.1057 69.241 25.2726 70.2104 25.2289C71.2802 25.1812 71.7273 25.6065 71.6103 26.64C71.5184 27.419 71.5351 28.21 71.5059 28.997C71.5017 29.6887 70.7829 30.5154 71.9405 30.9765L71.9321 30.9805Z" fill="#FAFAFA"/>
<path d="M58.2667 28.4525C57.6148 28.4207 57.1927 28.4525 56.7999 28.369C56.1522 28.2299 54.9654 28.8301 54.9947 27.7211C55.0197 26.6917 55.2496 25.3084 56.8208 25.2647C59.792 25.1773 62.7673 25.2329 65.7384 25.2329C66.2274 25.2329 66.8876 25.2687 66.758 25.8728C66.5658 26.795 66.5366 27.9238 65.3247 28.2856C64.8149 28.4366 64.2173 28.4286 63.6782 28.3611C62.5541 28.218 62.107 28.7347 61.7894 29.6887C60.9996 32.0616 60.1179 34.4067 59.2403 36.7479C58.7013 38.1828 57.0214 38.8704 55.6048 38.314C54.7356 37.9721 55.049 37.4196 55.2538 36.8552C56.2358 34.1365 57.2053 31.4137 58.2667 28.4445V28.4525Z" fill="#FAFAFA"/>
<path d="M71.9298 30.9805C71.8045 31.1832 71.7335 31.4853 71.5454 31.5727C71.1902 31.7476 71.1191 31.4416 71.14 31.1872C71.1902 30.4479 71.0649 29.6807 71.4953 28.9971C71.8756 29.6092 71.1985 30.432 71.9298 30.9765V30.9805Z" fill="#FAFAFA"/>
<path d="M36.6746 25.2688C35.5087 25.1734 34.3219 25.3165 33.156 25.2171C31.5639 25.082 30.7699 25.7537 30.2977 27.1528C29.3992 29.8279 28.3587 32.4632 27.4017 35.1263C26.2317 38.3737 26.2442 38.3776 30.2099 38.3776C31.4677 38.481 33.1016 38.3657 34.6353 37.6383C38.5049 35.806 39.6541 32.3916 40.1263 28.7388C40.3686 26.8547 38.7681 25.4476 36.6704 25.2727L36.6746 25.2688ZM36.0979 30.0624C35.6131 31.3502 35.1117 32.6301 34.5893 33.906C34.2258 34.7964 33.4694 35.1819 32.3369 35.2495C31.6098 35.3369 31.38 34.9792 31.6683 34.2081C32.291 32.5506 32.9261 30.9011 33.4903 29.2277C33.8538 28.1545 34.6645 28.2658 35.471 28.4804C36.3611 28.7149 36.3486 29.3867 36.0937 30.0624H36.0979Z" fill="#FAFAFA"/>
<path d="M45.9009 33.278C47.142 33.3217 48.3956 33.3614 49.6284 33.2502C51.7972 33.0554 53.1804 31.2429 53.1094 28.8381C53.055 26.9104 51.5046 25.3483 49.4612 25.2449C46.4608 25.0899 44.2251 26.4294 42.8002 28.7984C41.7805 30.4916 41.1997 32.4234 40.8278 34.3551C40.4182 36.5015 41.7429 38.0875 44.0287 38.3379C44.7767 38.4214 45.5457 38.3498 46.3062 38.3538C47.2047 38.3538 48.1156 38.4492 48.9974 38.3339C50.4014 38.1471 50.648 36.9268 50.7065 35.957C50.7776 34.848 49.6242 35.2972 48.9765 35.2495C47.9443 35.174 46.9038 35.2415 45.8716 35.2256C45.2615 35.2177 44.5135 35.3051 44.5636 34.4068C44.6054 33.6516 45.0233 33.2462 45.9051 33.278H45.9009ZM48.4625 28.4049C49.0977 28.4645 49.4487 28.9932 49.1854 29.5695C48.5335 30.9964 47.259 29.8477 46.2185 30.44C46.3605 28.7904 47.2005 28.2896 48.4625 28.4049Z" fill="#FAFAFA"/>
<path d="M19.6737 33.278C20.848 33.3217 22.0264 33.3456 23.1965 33.27C25.4906 33.1269 27.0285 31.3025 26.97 28.8779C26.924 26.9223 25.2441 25.3244 23.1087 25.237C20.2713 25.1217 18.1276 26.4175 16.7318 28.5877C15.591 30.3645 14.9767 32.4393 14.6215 34.5062C14.2663 36.5572 15.5994 38.0756 17.8016 38.3299C18.6165 38.4253 19.4564 38.3459 20.2838 38.3459V38.3657C21.0444 38.3657 21.8049 38.3896 22.5613 38.3618C24.1659 38.2982 24.4459 37.0103 24.5003 35.9888C24.5671 34.7487 23.2968 35.325 22.6031 35.2535C21.6462 35.1541 20.6725 35.2455 19.703 35.2217C19.1096 35.2097 18.3323 35.3489 18.3658 34.4346C18.3908 33.6914 18.7711 33.2422 19.6737 33.278V33.278ZM22.2228 28.4009C22.8371 28.4486 23.255 28.858 23.0335 29.4741C22.4359 31.1356 21.0528 29.7643 19.9955 30.5036C20.1794 28.8381 20.965 28.3055 22.2228 28.4009V28.4009Z" fill="#FAFAFA"/>
<path d="M10.536 25.237C9.84651 25.2171 9.15278 25.237 8.4591 25.237C7.69855 25.237 6.93384 25.2727 6.17747 25.229C5.04918 25.1654 4.32627 25.6185 3.95854 26.6162C2.68399 30.0822 1.40522 33.5443 0.151575 37.0143C-0.0197576 37.4913 -0.203583 38.0239 0.561143 38.318C1.98613 38.8745 3.67855 38.1908 4.21762 36.7758C4.56864 35.8497 4.85278 34.9037 5.23305 33.9895C5.66765 32.9401 6.66223 33.3694 7.39352 33.4409C8.37973 33.5403 7.96182 34.2995 7.83227 34.8321C7.72362 35.2773 7.51468 35.6986 7.36006 36.1319C6.57862 38.2624 6.97565 38.6956 9.33251 38.3737C10.1892 38.2584 10.6196 37.8371 10.9539 37.0818C11.401 36.0683 11.7061 35.015 11.9944 33.9577C12.2493 32.5188 10.8745 32.332 10.8745 32.332C12.1908 32.2962 12.7591 31.3263 12.7591 31.3263V31.3383C12.9973 30.6228 13.2773 29.9113 13.645 29.2197C14.8277 26.9898 13.2481 25.3204 10.5402 25.2409L10.536 25.237ZM9.9175 29.2356C9.28232 30.8772 7.89498 30.0663 6.7667 30.2492C6.66641 28.3731 7.80302 28.1942 9.19039 28.3492C9.72528 28.4089 10.1599 28.6076 9.9175 29.2356V29.2356Z" fill="#FAFAFA"/>
</svg>
