<svg width="104" height="64" viewBox="0 0 104 64" fill="none" xmlns="http://www.w3.org/2000/svg">
<path d="M73.0191 63.4149C72.5652 63.7953 72.072 64.0629 71.4528 63.9658C70.8809 63.8766 70.4454 63.6353 70.3457 62.9925C70.6395 62.9295 70.9229 62.8299 71.1485 63.1316C71.2508 63.268 71.4187 63.3073 71.5761 63.3178C71.8726 63.3362 72.2136 63.3467 72.2792 62.9715C72.3422 62.6121 72.0169 62.5649 71.7598 62.5019C71.5289 62.4468 71.2876 62.418 71.0593 62.3524C70.6186 62.2291 70.4113 61.9484 70.4165 61.4735C70.4218 61.0092 70.6317 60.7153 71.0383 60.55C71.8463 60.2195 72.6203 60.5605 72.8721 61.3843C72.5888 61.5443 72.3737 61.4552 72.1061 61.2794C71.6339 60.9672 71.4659 61.0354 71.0672 61.6021C71.6391 62.069 72.5311 61.8434 73.0217 62.4547V63.4149H73.0191Z" fill="#FAFAFA"/>
<path d="M66.4302 62.2843C66.6322 61.7176 66.745 61.1194 67.0756 60.5055C67.6475 61.0748 67.5819 61.8619 67.9833 62.4574C68.3007 61.8593 68.3139 61.1772 68.6182 60.5764C68.8333 60.4452 69.0616 60.5318 69.3895 60.516C69.0196 61.6127 68.6759 62.6306 68.3296 63.6511C68.2457 63.903 68.0725 63.9686 67.7839 63.8741L67.1832 62.2948C66.6585 62.7513 66.9365 63.6747 66.0865 64C65.6615 62.8221 65.2418 61.7281 64.9453 60.5921C65.1919 60.461 65.3965 60.4924 65.6248 60.5501C65.8871 61.0355 65.9842 61.5864 66.1338 62.119C66.2098 62.2161 66.2335 62.4076 66.4328 62.279L66.4302 62.2843Z" fill="#FAFAFA"/>
<path d="M59.5241 62.3525V60.6682C59.7314 60.4006 59.9413 60.5606 60.1669 60.5029V63.9502C59.3563 63.4465 58.9496 62.6148 58.1337 62.1006V63.8085C57.895 63.9633 57.7035 63.9449 57.4805 63.861V60.4452C58.2754 60.9541 58.7345 61.7149 59.5241 62.3525V62.3525Z" fill="#FAFAFA"/>
<path d="M41.3899 61.6022C41.0594 61.7202 40.8101 61.6468 40.532 61.3975C40.0992 61.0093 39.5246 61.088 39.1941 61.4998C38.874 61.9012 38.895 62.607 39.2413 62.9769C39.6086 63.3704 40.1385 63.3756 40.5924 62.99C40.7935 62.8186 41.0419 62.7355 41.3375 62.7408C41.2614 63.5304 40.7708 63.9318 39.8998 63.924C39.0078 63.9161 38.3519 63.3258 38.2339 62.4207C38.1184 61.5497 38.6773 60.7049 39.4774 60.5344C40.4193 60.335 41.104 60.718 41.3873 61.6022H41.3899Z" fill="#FAFAFA"/>
<path d="M36.8308 61.8828C36.9489 62.056 36.941 62.2265 36.8623 62.4075C36.5081 62.5466 36.1225 62.3656 35.7631 62.5203C35.7001 62.7486 35.6922 62.9716 35.7814 63.2313H36.9148C37.1903 63.4386 37.0171 63.6511 37.1063 63.9239H35.0469V60.558H36.9673C37.1509 60.6734 36.9935 60.8728 37.046 61.0433C36.6315 61.2716 36.1802 61.0433 35.7867 61.2086C35.6765 61.3896 35.7185 61.568 35.7552 61.7595C36.0936 61.9484 36.4872 61.749 36.8335 61.8828H36.8308Z" fill="#FAFAFA"/>
<path d="M63.729 60.5475C63.8156 60.7548 63.8104 60.907 63.7133 61.088C63.3591 61.2349 62.9499 61.0801 62.559 61.1824C62.3963 61.3556 62.4461 61.5523 62.5039 61.7701C62.858 61.9249 63.2411 61.7753 63.6057 61.8724C63.771 62.0141 63.7028 62.2003 63.6871 62.3866C63.3145 62.5598 62.8974 62.3577 62.5012 62.5178C62.4252 62.7381 62.433 62.9585 62.5144 63.2445H63.7185C63.8969 63.4675 63.8445 63.6433 63.7973 63.8663C63.1571 63.9791 62.5013 63.903 61.8008 63.9161V60.5449H63.7264L63.729 60.5475Z" fill="#FAFAFA"/>
<path d="M66.4292 62.2843C66.458 62.3919 66.4475 62.4863 66.3452 62.5545C66.1432 62.4758 66.0855 62.3263 66.1327 62.1243C66.2272 62.1846 66.2849 62.3184 66.4318 62.2843H66.4292Z" fill="#FAFAFA"/>
<path d="M68.7982 13.9465C68.7352 15.4078 68.2866 16.7562 67.6439 18.0549C67.1848 18.9888 66.542 19.8047 65.9727 20.6678C64.9994 21.7146 64.0261 22.7614 63.0528 23.8055C62.0427 24.6215 61.0353 25.4347 60.0253 26.2506C58.8447 26.896 57.7428 27.6778 56.5071 28.2235C55.3974 28.68 54.2746 29.1024 53.1307 29.4697C52.0603 29.6271 50.99 29.7845 49.9196 29.9419C49.0801 29.9261 48.3009 30.1596 47.5689 30.5505C46.9419 30.8837 46.5248 31.4084 46.572 32.1351C46.6113 32.7333 46.7871 33.3052 47.2436 33.78C47.9887 34.5566 48.8833 35 49.9248 35.1941C50.1347 35.2282 50.342 35.2728 50.5518 35.2912C51.4858 35.383 52.4224 35.4853 53.3511 35.2912C53.4351 35.2912 53.5269 35.2676 53.6239 35.2256C54.7415 35.2335 55.8198 35.0393 56.8482 34.5959C57.9816 34.3441 59.0519 33.9427 60.0305 33.3078C60.083 33.2895 60.1354 33.2711 60.1879 33.2527C60.2797 33.2658 60.3217 33.2107 60.3506 33.1347C60.403 33.1163 60.4555 33.1006 60.5106 33.0822C60.5998 33.0979 60.6391 33.0402 60.668 32.972C60.7231 32.9536 60.7782 32.9353 60.8333 32.9169C60.9172 32.93 60.9566 32.8776 60.9855 32.812C61.9378 32.2899 62.8402 31.7022 63.5932 30.91C64.7449 29.955 65.6763 28.8164 66.4266 27.5257C66.5158 27.4365 66.6023 27.3473 66.6076 27.2108C66.6784 27.182 66.7335 27.1452 66.7204 27.056C66.7624 27.0193 66.7807 26.9721 66.7781 26.917C66.8594 26.8829 66.9093 26.8278 66.9014 26.736C66.9381 26.7071 66.9539 26.6678 66.9513 26.6205C67.0405 26.5812 67.0824 26.513 67.0719 26.4159C67.106 26.3844 67.1192 26.3477 67.1113 26.3031C67.2005 26.2638 67.2425 26.1955 67.232 26.0958C69.2468 22.2288 69.601 18.1598 68.7982 13.9438V13.9465Z" fill="#FAFAFA"/>
<path d="M44.8806 3.50498C45.3817 3.54958 45.888 3.51023 46.3917 3.5076C47.3546 3.67026 48.3174 3.83292 49.2802 3.99295C50.4582 4.42058 51.6335 4.84558 52.8114 5.27321C52.8508 5.2942 52.8954 5.3047 52.94 5.29945C52.9767 5.37815 53.037 5.42537 53.1288 5.4175C53.1734 5.44111 53.2207 5.45423 53.2731 5.45423C53.3046 5.53294 53.3571 5.58541 53.4515 5.57754C54.1468 5.96057 54.842 6.3436 55.5398 6.724C55.5661 6.79484 55.6054 6.85256 55.692 6.84206C56.3348 7.28281 56.9775 7.72617 57.6203 8.16692C57.6465 8.24563 57.6885 8.30334 57.7829 8.30072C58.3653 8.80181 58.9451 9.30289 59.5275 9.80136C60.2333 10.5281 60.9416 11.2548 61.6473 11.9841C62.3872 12.9574 63.1191 13.9412 64.1921 14.5918C65.1182 15.3658 65.9288 15.1218 66.5768 14.6522C66.9468 14.3846 67.2144 14.0173 67.4085 13.6054C68.0303 12.2884 68.004 11.0055 67.2091 9.76201C67.2249 9.67018 67.1724 9.62033 67.0963 9.58623C67.1015 9.52851 67.0858 9.48129 67.0438 9.44194C67.057 9.35274 67.0018 9.31076 66.931 9.2819L66.8707 9.12187C66.8812 9.04055 66.8313 9.00119 66.7657 8.97496V8.96971C66.1728 7.73404 65.3779 6.65055 64.3889 5.70347C63.9193 5.01349 63.2739 4.49929 62.6206 3.99558C62.5892 3.909 62.5314 3.85653 62.4396 3.84079C62.416 3.75684 62.3635 3.70174 62.2717 3.69125H62.2691C61.789 3.23476 61.2538 2.85436 60.6556 2.5684C60.632 2.50281 60.5979 2.45297 60.514 2.46346C60.4615 2.44247 60.409 2.42148 60.3566 2.40049C60.3277 2.32441 60.2857 2.26407 60.1913 2.27457L60.0444 2.19586C59.3518 1.70789 58.6014 1.34585 57.7829 1.12023C57.0877 0.734582 56.3321 0.558808 55.5503 0.472233C55.469 0.348929 55.3536 0.32794 55.2172 0.356799C55.0598 0.341058 54.8997 0.327937 54.7423 0.312196C54.3724 -0.0445987 53.8215 0.343677 53.4489 0H50.2404C49.3851 0.167903 48.5273 0.333184 47.672 0.501087C47.5356 0.477476 47.4175 0.503708 47.3467 0.637506C47.2942 0.634882 47.2444 0.637513 47.1945 0.653254C45.707 0.991684 44.3611 1.65542 43.0625 2.42935C42.2702 2.90158 41.4753 3.37118 40.9375 4.15823C42.2178 3.73585 43.5033 3.37381 44.8806 3.49973V3.50498Z" fill="#FAFAFA"/>
<path d="M40.9395 4.16614H40.9316V4.17401C40.9316 4.17401 40.9316 4.17401 40.9343 4.17401L40.9395 4.16876V4.16614Z" fill="#FAFAFA"/>
<path d="M44.2611 31.6969C44.269 31.6077 44.2139 31.5684 44.1431 31.5395L43.9516 31.2168C43.9647 31.1224 43.9122 31.0699 43.8309 31.0384C43.8335 30.9886 43.8204 30.9466 43.7863 30.9125C43.1147 29.3384 42.3749 27.7879 42.0286 26.0932C42.06 25.9541 42.0338 25.8361 41.9131 25.7495L41.8633 25.293C41.8948 25.1566 41.8764 25.0359 41.7504 24.952C41.7609 24.9047 41.7557 24.8601 41.7373 24.8155C41.719 24.5243 41.719 24.2305 41.6796 23.9419C41.5642 23.0762 41.4173 22.213 41.4094 21.3342C41.3989 20.0329 41.3753 18.7343 41.5458 17.4383L41.5852 16.827C41.7504 16.6932 41.7347 16.5148 41.7111 16.3312C41.7242 16.179 41.7347 16.0242 41.7478 15.8721C41.8685 15.7855 41.8895 15.6674 41.8606 15.5336C41.8764 15.3788 41.8921 15.2241 41.9078 15.0693C42.0259 14.9827 42.0495 14.8673 42.0233 14.7308C42.2778 13.7575 42.5244 12.779 42.792 11.8083C43.0543 10.8638 43.44 9.94035 43.5895 8.97753C43.8414 7.37983 43.4347 6.53507 42.2043 6.15991C41.8895 6.06284 41.572 6.07595 41.2546 6.09169C40.6276 6.01299 40.0662 6.2491 39.4969 6.45111C38.5236 6.82102 38.0618 7.67104 37.566 8.48957C36.8813 9.53634 36.2989 10.6329 35.963 11.845C35.2573 13.524 34.9845 15.3028 34.8481 17.0972C34.7615 18.2621 34.7746 19.4452 35.0055 20.5943C35.2495 21.8038 35.3544 23.0525 35.9368 24.1754C36.2779 25.3874 36.7685 26.5287 37.5371 27.5387C37.9962 28.4359 38.5734 29.244 39.3342 29.9156C39.9245 30.6685 40.6118 31.3192 41.4173 31.8386C42.06 32.3869 42.7448 32.8749 43.5056 33.2474C44.673 33.9846 45.9244 34.5172 47.2913 34.8005C46.0608 33.9636 45.0692 32.9142 44.2611 31.6891V31.6969Z" fill="#FAFAFA"/>
<path d="M40.9287 4.17395C40.8868 4.19231 40.7792 4.1687 40.8684 4.27364C40.8894 4.23954 40.9077 4.20806 40.9287 4.17395Z" fill="#FAFAFA"/>
<path d="M73.0188 54.7732L72.9427 54.7627L72.8718 54.7916C72.5623 54.5004 72.6016 54.1121 72.6016 53.7474C72.5911 50.5887 72.5911 47.4327 72.6016 44.274C72.6016 43.9093 72.5623 43.5211 72.8692 43.2299C72.9164 43.2587 72.9663 43.264 73.0188 43.2482V54.7732Z" fill="#FAFAFA"/>
<path d="M72.8701 43.2298C72.8701 47.0837 72.8701 50.9376 72.8701 54.7915C72.2825 56.7224 70.2991 57.4727 68.6148 56.3866C67.8042 55.8645 67.1326 55.1666 66.4216 54.5239C63.3154 51.7141 60.2275 48.886 57.1266 46.071C56.88 45.848 56.6727 45.5516 56.3395 45.4729C56.1454 45.5594 56.1742 45.7037 56.1742 45.8297C56.1716 49.0277 56.1743 52.2283 56.1664 55.4264C56.1664 56.1006 55.7781 56.6489 55.1983 56.8326C54.608 57.0188 53.9469 56.7644 53.5954 56.2265C53.4248 55.9668 53.396 55.6861 53.3986 55.387C53.4065 52.0263 53.4353 48.6683 53.4012 45.3076C53.3881 44.0063 53.9338 43.0829 55.0698 42.5555C56.2057 42.0256 57.2682 42.3221 58.1786 43.1327C60.0491 44.8013 61.9013 46.4908 63.7666 48.1672C65.75 49.9512 67.7386 51.7273 69.7246 53.506C69.819 53.5926 69.9003 53.7106 70.1548 53.7001C70.1548 52.9472 70.1496 52.189 70.1548 51.4308C70.1706 48.8991 70.1129 46.3675 70.2047 43.8358C70.2362 43.0015 70.5641 42.5398 71.2803 42.3614C71.9335 42.1988 72.4582 42.4873 72.8701 43.2324V43.2298Z" fill="#FAFAFA"/>
<path d="M49.93 54.091C48.9567 53.3014 47.9335 52.5825 46.7372 51.7692C46.9969 51.7456 47.094 51.7378 47.1937 51.7273C49.3135 51.457 50.8692 49.5786 50.7459 47.674C50.7118 47.1414 50.7538 46.6062 50.7249 46.0736C50.6147 43.9749 48.9095 42.3247 46.8028 42.3194C42.0438 42.3063 37.2848 42.3142 32.5258 42.3194C31.5971 42.3194 30.9858 42.8809 30.9832 43.7807C30.9727 47.674 30.9832 51.5646 30.9832 55.4579C30.9832 55.7622 31.0671 56.035 31.2429 56.2816C31.6023 56.7801 32.2477 57.0083 32.8012 56.8352C33.3653 56.6594 33.7641 56.1583 33.7772 55.5077C33.7955 54.6026 33.7772 53.6949 33.8611 52.7924C33.9215 52.1444 34.2311 51.7614 34.8476 51.7535C36.5266 51.7273 38.2109 51.6617 39.8742 52.0316C42.0149 52.5091 43.9406 53.4588 45.7481 54.6577C46.7031 55.29 47.6239 55.9747 48.5658 56.6332C49.0852 56.9979 49.6178 56.969 50.1373 56.6358C50.6462 56.3105 50.7931 55.8173 50.7249 55.248C50.662 54.7285 50.2999 54.4006 49.9274 54.0963L49.93 54.091ZM43.1666 48.8493C40.1759 48.8519 37.1851 48.8493 34.1943 48.8493C34.0894 48.8493 33.9871 48.8388 33.8218 48.8283V45.3863C33.9818 45.2105 34.1497 45.2551 34.3045 45.2551C36.6787 45.2341 39.0556 45.2026 41.4299 45.2C43.164 45.2 44.8981 45.2289 46.6323 45.2525C47.6213 45.2656 47.9834 45.6277 48.0017 46.5957C48.007 46.8607 48.0148 47.1283 48.0096 47.3933C47.9886 48.4138 47.6423 48.7863 46.6087 48.8178C45.4622 48.8519 44.3131 48.8467 43.164 48.8493H43.1666Z" fill="#FAFAFA"/>
<path d="M44.2504 60.4557C43.2902 60.4767 42.6003 61.2191 42.6055 62.2292C42.6107 63.2891 43.2325 63.9187 44.274 63.9213C45.2893 63.9239 45.9583 63.2602 45.9662 62.237C45.9741 61.1955 45.2395 60.4321 44.2478 60.4531L44.2504 60.4557ZM44.3186 63.2786C43.7074 63.2917 43.3165 62.8614 43.3322 62.1898C43.3453 61.5707 43.7388 61.1509 44.3055 61.1562C44.8669 61.1614 45.2631 61.5995 45.2578 62.2082C45.2552 62.8352 44.8748 63.2654 44.3186 63.2759V63.2786Z" fill="#FAFAFA"/>
<path d="M33.0639 62.759C33.0482 62.6279 33.1558 62.5754 33.2213 62.5019C33.5965 62.0743 33.6621 61.5995 33.405 61.101C33.1584 60.6209 32.7229 60.4766 32.2008 60.5028C31.8283 60.5238 31.4558 60.5055 31.0098 60.5055V63.8871C31.2275 63.9212 31.4085 63.9606 31.5817 63.8635C31.7522 63.5487 31.6263 63.1814 31.768 62.8692C32.0985 62.857 32.5034 63.1998 32.9826 63.8976C33.1925 63.9081 33.426 63.9658 33.6726 63.8504C33.5703 63.428 33.2109 63.1473 33.0639 62.7564V62.759ZM32.778 61.9326C32.4737 62.3498 32.0697 62.0848 31.7076 62.1766C31.6735 62.0218 31.6447 61.951 31.642 61.8749C31.6342 61.6677 31.642 61.463 31.642 61.2059C32.0513 61.1403 32.4317 61.0433 32.7518 61.3581C32.917 61.5207 32.9275 61.7306 32.7832 61.93L32.778 61.9326Z" fill="#FAFAFA"/>
<path d="M53.0025 60.5659C52.462 60.4845 51.9006 60.4845 51.3418 60.5921V63.8951C51.8822 63.8951 52.3623 63.9344 52.8319 63.8872C53.5954 63.8111 54.1306 63.1605 54.1673 62.342C54.2093 61.4631 53.7318 60.6787 53.0025 60.5685V60.5659ZM52.058 63.2261V61.227C53.0287 61.1535 53.4537 61.4552 53.4616 62.1951C53.4694 62.9428 53.0523 63.2681 52.058 63.2287V63.2261Z" fill="#FAFAFA"/>
<path d="M49.3678 62.7197C49.4622 62.6121 49.5331 62.5334 49.5987 62.4521C49.924 62.0375 49.9922 61.5863 49.7456 61.1115C49.5094 60.6576 49.1055 60.5028 48.6175 60.5081C48.2213 60.5133 47.8226 60.5081 47.3398 60.5081C47.3398 61.5863 47.3398 62.5701 47.3398 63.5513C47.3398 63.6536 47.3556 63.7559 47.3661 63.8609C47.5943 63.9422 47.7884 63.9658 48.0088 63.811C48.0088 63.6694 48.0009 63.512 48.0088 63.3545C48.0193 63.1735 47.9616 62.982 48.077 62.8141C48.4111 62.8141 48.8116 63.1613 49.2786 63.8556C49.5147 63.8976 49.7613 63.9658 50.0499 63.8373C49.8007 63.4333 49.5803 63.0738 49.3625 62.717L49.3678 62.7197ZM49.0949 61.9457C48.8195 62.3051 48.4364 62.1399 48.0429 62.1373V61.1692C48.4259 61.198 48.809 61.0301 49.0897 61.3581C49.234 61.526 49.2314 61.7647 49.0949 61.9457Z" fill="#FAFAFA"/>
</svg>
