<svg width="104" height="64" viewBox="0 0 104 64" fill="none" xmlns="http://www.w3.org/2000/svg">
<path fill-rule="evenodd" clip-rule="evenodd" d="M17 63.96V56.2348H23.336C26.8838 56.2348 27.3335 60.4522 23.7857 61.0019L26.2942 64H23.9257L21.9869 61.5216H18.9888V64L17 63.96ZM18.9987 59.6726V57.8638H23.446C23.5728 57.8545 23.7002 57.8718 23.8199 57.9147C23.9396 57.9576 24.049 58.0252 24.1409 58.1131C24.2329 58.2009 24.3054 58.3072 24.3538 58.4248C24.4022 58.5424 24.4254 58.6687 24.4219 58.7959C24.4184 58.923 24.3882 59.0479 24.3334 59.1627C24.2786 59.2775 24.2003 59.3794 24.1037 59.4621C24.007 59.5447 23.894 59.6062 23.7721 59.6425C23.6503 59.6788 23.5221 59.689 23.396 59.6726H18.9987ZM26.6839 63.95H33.6196V62.4209H28.203V60.8119H32.7401V59.3429H28.203V57.8538H33.6695V56.2348H26.7339V63.95H26.6839ZM44.4228 63.95H51.3584V62.4209H45.8919V60.8119H50.439V59.3429H45.9019V57.8538H51.3684V56.2348H44.4328V63.95H44.4228ZM34.509 63.95V56.2248H39.6658C40.1895 56.1982 40.7133 56.2783 41.2051 56.4604C41.6969 56.6425 42.1466 56.9227 42.5267 57.284C42.9069 57.6453 43.2095 58.0802 43.4164 58.5621C43.6232 59.0441 43.7299 59.563 43.7299 60.0874C43.7299 60.6119 43.6232 61.1308 43.4164 61.6127C43.2095 62.0946 42.9069 62.5295 42.5267 62.8908C42.1466 63.2521 41.6969 63.5323 41.2051 63.7144C40.7133 63.8965 40.1895 63.9766 39.6658 63.95H34.509ZM36.0081 62.4209V57.8538H40.1155C43.7232 57.8538 43.1136 62.4209 39.7357 62.4209H36.0081ZM67.3484 63.95V56.2248H72.5052C73.0289 56.1982 73.5527 56.2783 74.0445 56.4604C74.5363 56.6425 74.986 56.9227 75.3661 57.284C75.7462 57.6453 76.0489 58.0802 76.2558 58.5621C76.4626 59.0441 76.5693 59.563 76.5693 60.0874C76.5693 60.6119 76.4626 61.1308 76.2558 61.6127C76.0489 62.0946 75.7462 62.5295 75.3661 62.8908C74.986 63.2521 74.5363 63.5323 74.0445 63.7144C73.5527 63.8965 73.0289 63.9766 72.5052 63.95H67.3484ZM69.607 61.8113V58.2935H72.8749C75.0736 58.3635 75.0436 61.7614 73.0149 61.8813L69.587 61.8013L69.607 61.8113ZM51.9281 56.2248L56.7351 63.95H58.414L63.181 56.2248H60.3028L57.5745 61.0518L54.7563 56.2248H51.9281ZM63.7707 56.2248V63.95H66.1192V56.2248H63.7707ZM75.923 63.94L80.5601 56.2248H82.349L86.9561 63.96H84.2478L83.7381 62.9606H79.091L78.6313 63.96L75.923 63.94ZM81.4496 59.0031L82.8287 61.2617H79.9605L81.3996 59.0031H81.4496Z" fill="#FAFAFA"/>
<path fill-rule="evenodd" clip-rule="evenodd" d="M52.2683 25.1541V0L55.3663 20.1573L73.6349 12.6122L52.2683 25.1241V25.1541ZM51.6886 25.1541V0L48.5906 20.1573L30.3121 12.6122L51.6886 25.1341V25.1541ZM52.688 25.8837L74.0846 13.5015L58.5044 26.2235L74.2645 38.216L52.688 25.8539V25.8837ZM51.3089 25.8837L29.9123 13.5015L45.4925 26.2135L29.7324 38.256L51.3089 25.8837V25.8837ZM52.3083 26.5234L73.6649 39.0156L55.2964 31.7201L52.3782 51.4877L52.3083 26.5034V26.5234ZM51.6087 26.5234L30.2721 38.9755L48.6306 31.6801L51.5587 51.4477L51.6287 26.4634L51.6087 26.5234Z" fill="#FAFAFA"/>
</svg>
