<svg width="104" height="64" viewBox="0 0 104 64" fill="none" xmlns="http://www.w3.org/2000/svg">
<path d="M84 0V64H20C20 63.51 20.08 63 20.08 62.52C20.08 42.1934 20.08 21.86 20.08 1.52002C20.08 1.08002 20.08 0.629956 20.14 0.0799561H82.51C83 0.0799561 83.51 0 84 0ZM32.62 35.5601L39.08 45.62H47.78L39.61 34.92C43.92 33.42 45.75 30.69 45.35 26.49C44.95 22.29 42.6 19.62 38.35 19.3C34.21 18.99 30.04 19.2001 25.89 19.1801C25.89 19.1801 25.78 19.2599 25.71 19.3199V45.62H32.71L32.62 35.5601ZM62.67 28.67C61.2854 27.9888 59.83 27.4623 58.33 27.1C53.42 26.45 49.99 28.8 48.45 33.58C47.7695 35.5429 47.7292 37.6712 48.3347 39.6586C48.9403 41.6459 50.1605 43.39 51.82 44.64C53.4158 45.8018 55.3464 46.4126 57.32 46.38C59.3454 46.2729 61.2512 45.3881 62.64 43.91L62.77 45.62H69V27.62H62.73L62.67 28.67ZM79.51 27.6H73.15V45.66H79.51V27.6ZM76.35 24.38C77.3165 24.3566 78.2357 23.9567 78.9119 23.2656C79.588 22.5745 79.9677 21.6469 79.97 20.6801C79.9771 20.1907 79.8846 19.7049 79.6981 19.2523C79.5117 18.7998 79.2351 18.3898 78.8853 18.0475C78.5355 17.7052 78.1197 17.4376 77.6632 17.261C77.2068 17.0843 76.7191 17.0023 76.23 17.02C75.7511 17.0291 75.2787 17.1326 74.8399 17.3246C74.4011 17.5166 74.0045 17.7933 73.6728 18.1389C73.3412 18.4845 73.081 18.8922 72.9072 19.3385C72.7334 19.7848 72.6494 20.2611 72.66 20.74C72.6808 21.7075 73.0778 22.6289 73.7667 23.3085C74.4556 23.9881 75.3823 24.3724 76.35 24.38V24.38Z" fill="#FAFAFA"/>
<path d="M32.6602 30.9399V24.43C34.4302 24.43 36.1901 24.15 37.4501 25.76C37.8055 26.3131 38.0034 26.9526 38.0228 27.6097C38.0422 28.2669 37.8822 28.9169 37.5602 29.49C36.3402 31.21 34.5202 30.9999 32.6602 30.9399Z" fill="#FAFAFA"/>
<path d="M54.8003 36.67C54.7627 36.1318 54.8399 35.5918 55.0266 35.0857C55.2134 34.5795 55.5055 34.1189 55.8837 33.7341C56.2618 33.3493 56.7174 33.0494 57.2201 32.8538C57.7229 32.6583 58.2615 32.5717 58.8003 32.5999C59.341 32.5776 59.8803 32.6695 60.3831 32.8696C60.8859 33.0697 61.3409 33.3736 61.7183 33.7614C62.0957 34.1493 62.3872 34.6123 62.5736 35.1203C62.76 35.6284 62.8373 36.17 62.8003 36.7099C62.8323 37.2436 62.7509 37.778 62.5612 38.2778C62.3715 38.7776 62.078 39.2315 61.6999 39.6096C61.3219 39.9876 60.868 40.2812 60.3681 40.4709C59.8683 40.6606 59.3339 40.742 58.8003 40.7099C58.2716 40.7099 57.7482 40.6052 57.2602 40.4017C56.7723 40.1982 56.3296 39.8999 55.9576 39.5243C55.5856 39.1486 55.2918 38.7029 55.0932 38.213C54.8945 37.723 54.795 37.1986 54.8003 36.67Z" fill="#FAFAFA"/>
</svg>
