<svg width="104" height="64" viewBox="0 0 104 64" fill="none" xmlns="http://www.w3.org/2000/svg">
<path d="M46.7959 32.9048C46.5359 32.7948 46.126 32.3349 46.7959 31.0351L48.3956 27.6856C48.3956 27.5857 48.3256 27.4657 48.2556 27.5457L46.8559 28.9554C46.114 29.903 45.4455 30.9057 44.8562 31.955L43.1565 34.7645C43.197 34.7631 43.2372 34.7724 43.273 34.7916C43.3088 34.8107 43.3389 34.839 43.3602 34.8735C43.3815 34.908 43.3933 34.9476 43.3944 34.9881C43.3955 35.0287 43.3859 35.0688 43.3664 35.1045L41.8067 37.7241C41.4267 38.364 42.1166 38.8239 42.2066 38.7239C44.6462 34.7845 46.066 35.0945 46.066 35.0945L46.8859 33.2048C46.9079 33.1818 46.9234 33.1533 46.9309 33.1224C46.9383 33.0914 46.9374 33.0591 46.9283 33.0286C46.9191 32.9981 46.902 32.9706 46.8788 32.9488C46.8555 32.9271 46.8269 32.9119 46.7959 32.9048V32.9048Z" fill="#FAFAFA"/>
<path d="M52.3937 0C45.6848 0 39.2506 2.66511 34.5067 7.40903C29.7628 12.153 27.0977 18.5871 27.0977 25.296C27.0932 30.6971 28.8287 35.956 32.0469 40.2937C32.8697 39.9303 33.5831 39.3581 34.1166 38.6339L38.8258 32.6349C38.924 32.5057 39.0553 32.4055 39.2058 32.3449L39.9156 32.045L47.6544 22.2165L48.7842 21.3366L51.0839 18.1271C51.1469 18.0442 51.2209 17.9702 51.3039 17.9072L52.3037 17.1773C52.4251 17.0916 52.5701 17.0457 52.7186 17.0457C52.8672 17.0457 53.0122 17.0916 53.1336 17.1773L54.3534 18.0372C55.0029 18.4903 55.5287 19.0987 55.8831 19.8069L60.7824 28.4055C60.8633 28.5685 60.9973 28.6989 61.1623 28.7755C62.2454 29.1632 63.2099 29.8245 63.9619 30.6952C64.5518 31.3351 67.1214 34.2046 70.7208 38.6939C71.2393 39.4021 71.9267 39.9692 72.7205 40.3436C75.929 36.0022 77.6571 30.7444 77.6497 25.346C77.6563 22.0232 77.0081 18.7317 75.7423 15.6595C74.4765 12.5873 72.6179 9.79455 70.2725 7.44083C67.9271 5.0871 65.141 3.21852 62.0733 1.9418C59.0056 0.665082 55.7164 0.00524689 52.3937 0V0ZM33.9166 26.6958L32.2768 26.1559L31.277 27.5557V25.8259L29.6373 25.296L31.277 24.7661V22.9964L32.2768 24.3961L33.9166 23.8662L32.9167 25.256L33.9166 26.6958ZM33.5367 32.3349L32.9967 33.9746L32.4668 32.3349H30.6971L32.0869 31.3351L31.557 29.6953L32.9467 30.6952L34.3465 29.6953L33.8066 31.3351L35.2064 32.3349H33.5367ZM33.8566 19.277L34.3965 20.9167L32.9967 19.9169L31.607 20.9167L32.1369 19.277L30.7471 18.2771H32.3968L32.9267 16.6374L33.4667 18.2771H35.1864L33.8566 19.277ZM36.6262 15.5676L35.6263 14.1678L33.9866 14.7077L34.9864 13.3079L33.9866 11.9181L35.6263 12.448L36.6262 11.0483V12.778L38.2659 13.3079L36.6262 13.8378V15.5676ZM40.9455 9.5685L40.4056 11.2082L39.8757 9.5685H38.1559L39.5457 8.56866L39.0158 6.9289L40.4056 7.92874L41.8054 6.9289L41.2654 8.56866L42.6652 9.5685H40.9455ZM46.3746 6.79893L45.3748 8.1987V6.46898L43.735 5.93907L45.3748 5.40915V3.67941L46.3746 5.0792L48.0144 4.54929L47.0145 5.93907L48.0144 7.33884L46.3746 6.79893ZM53.2535 5.21918L53.7935 6.85892L52.3937 5.85908L51.0039 6.85892L51.5338 5.21918L50.134 4.21934H51.8638L52.3937 2.5796L52.9236 4.21934H54.6533L53.2535 5.21918ZM59.4326 6.46898V8.1987L58.4327 6.79893L56.793 7.33884L57.7928 5.93907L56.793 4.54929L58.3927 4.99921L59.3926 3.59944V5.32916L61.0323 5.85908L59.4326 6.46898ZM70.8708 23.9462L72.5105 24.4761L73.5104 23.0764V24.8061L75.1501 25.336L73.5104 25.8659V27.5957L72.5105 26.1959L70.8708 26.7358L71.8706 25.336L70.8708 23.9462ZM64.3818 11.2082L63.8519 9.5685H62.1221L63.5219 8.56866L62.992 6.9289L64.3818 7.92874L65.7816 6.9289L65.2417 8.56866L66.6414 9.5685H64.9117L64.3818 11.2082ZM68.1612 15.6075V13.8778L66.5215 13.3479L68.1612 12.818V11.0882L69.161 12.488L70.8008 11.9581L69.8009 13.3479L70.8008 14.7477L69.161 14.2078L68.1612 15.6075ZM71.2607 18.2971L71.7906 16.6574L72.3205 18.2971H74.0503L72.6505 19.297L73.1904 20.9367L71.7906 19.9369L70.4008 20.9367L70.9308 19.297L69.531 18.2971H71.2607ZM72.3205 32.3749L71.7906 34.0146L71.2607 32.3749H69.531L70.9308 31.3751L70.4008 29.7353L71.7906 30.7352L73.1904 29.7353L72.6505 31.3751L74.0503 32.3749H72.3205Z" fill="#FAFAFA"/>
<path d="M61.5125 39.9138C61.6403 39.6737 61.7071 39.4059 61.7071 39.1339C61.7071 38.8619 61.6403 38.5941 61.5125 38.354L60.3927 35.3545C60.2327 34.9745 60.5726 34.7446 60.7926 34.9945C61.7337 36.0862 62.6021 37.2385 63.3922 38.444L64.442 40.1737C65.3319 40.2337 67.8115 40.3037 70.2011 40.3037C69.9597 40.0634 69.7358 39.8062 69.5312 39.5338C65.4619 34.5346 62.8823 31.6851 62.8623 31.6551C62.3724 31.055 61.7399 30.5875 61.0226 30.2953L60.7326 30.1653V30.9252C60.7326 31.0351 60.6126 31.0851 60.5526 30.9252L54.5536 20.4168C54.3043 19.9219 53.9369 19.496 53.4837 19.177L52.8938 18.7671L50.0443 25.3461C50.1467 25.3481 50.2471 25.3751 50.3367 25.4246C50.4264 25.4742 50.5026 25.5449 50.5587 25.6306C50.6149 25.7163 50.6493 25.8144 50.6589 25.9164C50.6686 26.0184 50.6532 26.1212 50.6142 26.2159L47.9746 32.315H50.3942C51.3308 32.3134 52.2584 32.4969 53.1238 32.8549L53.7637 33.1148C53.7637 33.1148 51.834 37.1142 51.834 39.1139C51.8366 39.4959 51.8905 39.8759 51.994 40.2437H56.4333L56.2233 38.9939C57.9677 39.3994 59.7336 39.7065 61.5125 39.9138V39.9138Z" fill="#FAFAFA"/>
<path d="M27.2773 46.3328C27.2773 42.2634 22.958 40.3337 17.8288 40.3337C12.3397 40.3337 7.30049 42.7634 5.45078 46.5328C4.9405 47.5397 4.67663 48.6534 4.6809 49.7822C4.65452 50.7554 4.92288 51.7138 5.45078 52.5318C5.94461 53.1858 6.59611 53.7039 7.34445 54.0379C8.09279 54.3719 8.91356 54.5107 9.73011 54.4415C12.2797 54.4415 14.2994 53.0417 14.2994 50.6121C14.3017 50.5152 14.283 50.4189 14.2445 50.33C14.206 50.241 14.1486 50.1614 14.0764 50.0968C14.0041 50.0321 13.9187 49.984 13.826 49.9555C13.7333 49.9271 13.6356 49.9192 13.5395 49.9322C12.8996 49.9322 12.7296 50.3822 12.7496 50.6121C12.8126 51.0456 12.7799 51.4876 12.6538 51.9071C12.5276 52.3266 12.3112 52.7134 12.0195 53.0403C11.7279 53.3671 11.3683 53.6262 10.9658 53.7992C10.5634 53.9722 10.128 54.0549 9.69011 54.0416C7.43047 54.0416 6.49061 52.1219 6.49061 50.0422C6.49061 45.8329 9.66011 43.0433 12.9596 41.8335C14.5038 41.2571 16.1406 40.969 17.7888 40.9836C21.5182 40.9836 24.5778 42.4234 24.5778 46.2728C24.5279 47.8517 23.8957 49.3564 22.8029 50.4971C21.7101 51.6379 20.234 52.3342 18.6587 52.4518L18.7887 52.0219C19.351 49.6059 20.2925 47.2943 21.5782 45.173C21.6582 45.063 21.7882 44.873 21.9382 44.6831L21.7482 44.4631C21.466 44.6313 21.1954 44.8184 20.9383 45.023C14.7493 49.8522 14.5593 63.4301 6.32064 63.4301C6.03653 63.4336 5.75252 63.4169 5.47078 63.3801C4.73275 63.3115 4.0493 62.962 3.56174 62.4037C3.07418 61.8454 2.81979 61.1211 2.85119 60.3806C2.85119 60.0606 2.96117 59.6307 2.96117 59.3807C2.96383 59.2718 2.94499 59.1633 2.90572 59.0616C2.86645 58.9599 2.80753 58.8669 2.73232 58.788C2.65711 58.7091 2.56709 58.6457 2.4674 58.6016C2.3677 58.5575 2.26029 58.5335 2.1513 58.5309H2.05132C1.32143 58.5309 1.05147 59.1208 1.00148 59.9507C0.941488 62.3403 2.71121 63.7401 5.45078 64C5.75074 64 6.05069 64 6.37064 64C12.8096 64 16.749 59.1308 18.4287 53.2317C19.2788 53.1264 20.1183 52.9492 20.9383 52.7018C23.9179 51.8619 27.2773 49.8622 27.2773 46.3328Z" fill="#FAFAFA"/>
<path d="M88.5371 47.7524H86.2775L85.7676 48.9423L84.8777 50.9419H83.8779L83.5579 51.6118H84.6477L83.3279 54.5414C82.3881 56.5411 80.9083 58.6107 80.0685 58.6107C79.8785 58.6107 79.7585 58.5407 79.7585 58.3508C79.7936 58.0402 79.8851 57.7387 80.0285 57.4609C80.2884 56.841 80.7284 55.9312 81.0283 55.2713C81.5999 54.2823 82.0116 53.2093 82.2481 52.0918C82.2578 51.9098 82.2279 51.728 82.1605 51.5587C82.0931 51.3894 81.9897 51.2368 81.8576 51.1113C81.7255 50.9859 81.5677 50.8906 81.3952 50.832C81.2227 50.7734 81.0395 50.7529 80.8583 50.772C80.3056 50.8208 79.7684 50.9806 79.2788 51.2417C78.7892 51.5028 78.3573 51.86 78.0088 52.2917L78.5687 50.9419H76.389L74.6593 54.9413C73.9594 56.3311 72.5396 58.6507 71.6598 58.6507C71.4698 58.6507 71.3898 58.5407 71.3898 58.3508C71.4096 58.1821 71.4533 58.0171 71.5198 57.8608C71.5998 57.6909 72.6396 55.2613 72.6396 55.2613L74.5193 50.9419H72.2197L70.39 55.1413C69.8301 56.4511 68.3903 58.6507 67.4704 58.6507C67.4323 58.6549 67.3938 58.6514 67.357 58.6406C67.3202 58.6297 67.286 58.6117 67.2562 58.5875C67.2265 58.5633 67.2018 58.5335 67.1837 58.4997C67.1655 58.466 67.1542 58.4289 67.1505 58.3908V58.3108C67.2021 57.9841 67.3032 57.6671 67.4505 57.3709L68.4503 55.2613L70.45 50.9419H68.1703L67.7204 51.9418C67.5797 52.3236 67.3362 52.6592 67.0169 52.9115C66.6976 53.1638 66.3148 53.323 65.9107 53.3716C65.7678 53.3909 65.6224 53.3692 65.4914 53.309C65.3604 53.2489 65.2492 53.1526 65.1708 53.0316C65.169 52.7243 65.1039 52.4207 64.9796 52.1396C64.8554 51.8586 64.6746 51.6061 64.4486 51.3979C64.2226 51.1897 63.9561 51.0302 63.6658 50.9294C63.3755 50.8286 63.0676 50.7886 62.7612 50.812C61.9201 50.8344 61.099 51.0734 60.3774 51.5061C59.6557 51.9387 59.0579 52.5503 58.6418 53.2816C58.0601 54.218 57.603 55.2264 57.2821 56.2811C56.4722 57.6209 55.6223 58.6607 54.9524 58.6607C54.7824 58.6607 54.6625 58.5607 54.6625 58.3308C54.7261 58.0135 54.8267 57.7047 54.9624 57.4109L56.4522 54.2414C56.8298 53.5407 57.0675 52.7733 57.1521 51.9818C57.1569 51.8208 57.1276 51.6606 57.0661 51.5118C57.0045 51.3629 56.9122 51.2288 56.795 51.1183C56.6779 51.0078 56.5386 50.9233 56.3865 50.8705C56.2343 50.8177 56.0727 50.7978 55.9123 50.812C55.3001 50.8547 54.7031 51.0222 54.158 51.3042C53.6129 51.5862 53.1313 51.9767 52.7428 52.4517C52.7628 52.289 52.7628 52.1245 52.7428 51.9618C52.7692 51.804 52.7574 51.6421 52.7083 51.4898C52.6592 51.3375 52.5742 51.1992 52.4606 51.0866C52.347 50.9739 52.2079 50.8902 52.0552 50.8424C51.9025 50.7946 51.7405 50.7842 51.583 50.812C51.0077 50.8619 50.4497 51.034 49.9462 51.3168C49.4428 51.5995 49.0054 51.9865 48.6634 52.4517L49.2633 50.9819H47.1936L45.4339 54.9813C44.6041 56.851 43.2743 58.7007 42.5144 58.7007C42.3444 58.7007 42.2344 58.6007 42.2344 58.3708C42.3478 57.8173 42.5292 57.28 42.7743 56.771L45.104 51.5119C45.2639 51.1119 44.1541 50.872 42.7443 50.872C41.2635 50.9478 39.8528 51.5262 38.745 52.5117C38.303 52.9824 37.7441 53.3274 37.1252 53.5115C36.9753 53.5115 36.9153 53.4316 36.9153 53.3416C36.9153 53.0216 37.6851 52.1118 37.6851 51.4119C37.6851 51.0919 37.5152 50.8919 37.0852 50.8919C36.0667 51.0905 35.1621 51.6697 34.5556 52.5117L35.1555 51.0619H33.1559L31.3961 55.0613C30.5663 56.931 29.1965 58.8707 28.3966 58.8707C28.2266 58.8707 28.1167 58.7807 28.1167 58.5507C28.2333 57.9672 28.4284 57.4022 28.6966 56.871L31.0162 51.5918C31.1862 51.1919 30.0763 50.9519 28.6666 50.9519C27.646 50.9871 26.6455 51.2452 25.7352 51.7081C24.8249 52.171 24.027 52.8275 23.3974 53.6315C22.2904 54.9291 21.5944 56.5266 21.3977 58.2208C21.363 58.4543 21.3821 58.6926 21.4535 58.9176C21.5249 59.1425 21.6467 59.3482 21.8097 59.5189C21.9727 59.6897 22.1726 59.8209 22.394 59.9026C22.6154 59.9843 22.8526 60.0144 23.0874 59.9905C23.6641 59.9245 24.2194 59.7339 24.7149 59.4317C25.2105 59.1296 25.6343 58.7232 25.957 58.2408C25.9207 58.3889 25.894 58.5392 25.877 58.6907C25.877 59.4406 26.177 59.9905 27.1068 59.9905C27.6595 59.8995 28.188 59.6976 28.6606 59.3969C29.1331 59.0962 29.5399 58.7029 29.8564 58.2408L29.1565 59.8405H31.3961L33.5658 54.9213C34.2857 53.3116 35.0955 52.4817 35.3155 52.4817C35.5355 52.4817 35.4355 52.4817 35.4355 52.5817C35.4355 52.6817 35.0955 53.2016 35.0955 53.5815C35.0955 53.9615 35.3155 54.3214 35.9254 54.3214C36.4543 54.2811 36.9623 54.0979 37.3952 53.7915C36.3493 55.04 35.6985 56.5714 35.5255 58.1908C35.4868 58.4229 35.5015 58.6607 35.5684 58.8863C35.6354 59.1119 35.7528 59.3193 35.9118 59.4927C36.0707 59.6661 36.2671 59.8011 36.4861 59.8874C36.705 59.9736 36.9406 60.0089 37.1752 59.9905C38.365 59.9905 39.4749 58.8607 40.0848 58.1008C40.0741 58.2773 40.0741 58.4543 40.0848 58.6307C40.0666 58.802 40.0845 58.9751 40.1375 59.139C40.1905 59.3028 40.2772 59.4537 40.3922 59.5819C40.5072 59.7101 40.6479 59.8127 40.805 59.8831C40.9622 59.9535 41.1324 59.9901 41.3046 59.9905C42.3044 59.9905 43.0043 59.4106 43.9442 58.2608L43.2543 59.8405H45.5139L47.5936 55.1413C48.4934 53.1416 49.7232 52.0118 50.3232 52.0118C50.3594 52.0076 50.3961 52.0109 50.4311 52.0213C50.4661 52.0318 50.4986 52.0492 50.5266 52.0726C50.5546 52.096 50.5776 52.1248 50.5942 52.1573C50.6108 52.1898 50.6206 52.2253 50.6231 52.2617C50.5979 52.5183 50.5196 52.7669 50.3931 52.9916L47.3936 59.8805H49.7132L51.8329 55.0913C52.7328 53.0316 53.7326 52.0318 54.4925 52.0318C54.7125 52.0318 54.8124 52.1417 54.8124 52.3917C54.7901 52.6526 54.7188 52.907 54.6025 53.1416L52.6028 57.4809C52.4163 57.8987 52.3013 58.3448 52.2628 58.8007C52.2628 59.4606 52.6228 60.0505 53.6426 60.0505C54.9624 60.0505 55.9623 59.0507 57.0921 57.5609V57.8808C57.0942 58.197 57.1629 58.5091 57.2937 58.7968C57.4245 59.0846 57.6145 59.3416 57.8513 59.551C58.0881 59.7605 58.3663 59.9176 58.6679 60.0123C58.9695 60.107 59.2877 60.137 59.6017 60.1005C61.6814 60.1005 63.3611 58.6707 64.3709 56.3911C64.7602 55.5893 65.0104 54.7271 65.1108 53.8415C65.3385 53.9598 65.5949 54.0118 65.8507 53.9915C66.1992 54 66.5439 53.9173 66.8505 53.7515L66.4906 54.5214C66.0707 55.3912 65.6207 56.3511 65.2608 57.161C65.0355 57.6417 64.9032 58.1608 64.8709 58.6907C64.851 58.8768 64.8726 59.065 64.934 59.2418C64.9954 59.4186 65.0951 59.5796 65.226 59.7133C65.3568 59.8471 65.5157 59.9503 65.6911 60.0155C65.8665 60.0807 66.0542 60.1063 66.2406 60.0905C66.8833 59.9804 67.4957 59.7366 68.0382 59.3749C68.5807 59.0132 69.0413 58.5417 69.3901 57.9908C69.3261 58.2459 69.2926 58.5077 69.2902 58.7707C69.2902 59.4406 69.5001 60.0905 70.44 60.0905C71.5398 60.0905 72.3897 59.2906 73.2195 58.2908L72.5197 59.8805H74.7993L76.629 55.7312C77.6288 53.3916 78.7087 51.9718 79.6285 51.9718C79.7084 51.9714 79.7856 52.001 79.8448 52.0547C79.904 52.1083 79.941 52.1822 79.9485 52.2617V52.3117C79.6907 53.2013 79.3282 54.0572 78.8687 54.8613C78.3987 55.8612 78.0388 56.6011 77.7988 57.181C77.5704 57.6753 77.4348 58.2074 77.3989 58.7507C77.3878 58.9207 77.4139 59.0912 77.4755 59.25C77.5371 59.4089 77.6327 59.5524 77.7555 59.6705C77.8784 59.7886 78.0255 59.8784 78.1867 59.9337C78.3479 59.989 78.5192 60.0084 78.6887 59.9905C80.0185 59.9905 81.3483 58.7107 82.0681 57.7509C81.9077 58.2111 81.82 58.6934 81.8082 59.1806C81.7748 59.4426 81.8001 59.7087 81.8823 59.9596C81.9645 60.2105 82.1015 60.44 82.2833 60.6315C82.4652 60.8229 82.6874 60.9715 82.9338 61.0664C83.1802 61.1613 83.4446 61.2003 83.7079 61.1803C84.449 61.1769 85.17 60.9389 85.7676 60.5004C86.6121 59.8486 87.3391 59.0574 87.9172 58.1608L87.5173 57.7809C87.0354 58.5357 86.4382 59.2104 85.7476 59.7805C85.4159 60.052 85.0058 60.2097 84.5778 60.2305C84.1078 60.2305 83.8079 59.9805 83.8079 59.3806C83.9056 58.5109 84.1454 57.6631 84.5178 56.871C84.5178 56.871 85.1577 55.4612 85.7476 54.1214C86.2375 52.9816 86.7474 51.8918 86.8274 51.6618H88.3172L88.6171 50.9919H87.1473L88.5371 47.7524ZM24.1973 58.6307C23.8773 58.6307 23.6474 58.5208 23.6474 58.1008C23.948 56.394 24.6697 54.7891 25.747 53.4316C26.0659 52.9035 26.5025 52.4563 27.0229 52.125C27.5432 51.7937 28.1332 51.5873 28.7466 51.5219L27.3068 54.7314C26.237 57.141 25.0671 58.6307 24.1973 58.6307ZM38.305 58.6307C38.2313 58.6438 38.1554 58.6393 38.0837 58.6178C38.0119 58.5962 37.9462 58.5582 37.8917 58.5067C37.8373 58.4552 37.7957 58.3916 37.7702 58.3211C37.7448 58.2507 37.7362 58.1752 37.7451 58.1008C38.0412 56.3944 38.7596 54.7892 39.8348 53.4316C40.1536 52.9035 40.5903 52.4563 41.1107 52.125C41.631 51.7937 42.2209 51.5873 42.8343 51.5219L41.3946 54.7314C40.3047 57.201 39.1949 58.6307 38.305 58.6307ZM63.3911 52.3917C63.0323 54.5408 62.2138 56.5871 60.9915 58.3908C60.4815 59.1107 60.0516 59.3106 59.6717 59.3106C59.2917 59.3106 58.9918 58.8807 59.0718 58.2408C59.4445 56.2481 60.2351 54.3569 61.3914 52.6917C61.9713 51.8818 62.3912 51.5419 62.8212 51.5419C63.2511 51.5419 63.3911 51.9218 63.3911 52.3917Z" fill="#FAFAFA"/>
<path d="M98.5665 50.9421L100.636 46.1428H98.1865L96.1068 50.9421H90.8777L90.0078 52.9518H95.237L93.1573 57.7509H95.6169L97.6966 52.9518H102.916L103.786 50.9421H98.5665Z" fill="#FAFAFA"/>
</svg>
