<svg width="104" height="64" viewBox="0 0 104 64" fill="none" xmlns="http://www.w3.org/2000/svg">
<path fill-rule="evenodd" clip-rule="evenodd" d="M57.7178 1.55378C57.6552 1.01808 57.5256 0.494994 57.3331 0L46.0717 0.0196723C45.9541 0.515829 45.8751 1.02256 45.8357 1.53412V10.9846C45.8861 11.9514 45.63 12.907 45.1129 13.6813C44.5957 14.4556 43.8512 14.9984 43.0116 15.2133C41.4815 15.6656 40.3099 14.9379 39.2345 13.7775C37.0128 11.3955 34.7808 9.02129 32.5492 6.6475C31.2153 5.22857 29.8815 3.80982 28.5502 2.38968C28.0145 1.75899 27.3167 1.33265 26.5547 1.1704C25.7927 1.00816 25.0047 1.11815 24.301 1.48495C23.5799 1.80073 22.9679 2.36875 22.5555 3.1053C22.1431 3.84184 21.9519 4.70794 22.0103 5.57592V62.2889C22.0103 63.8623 22.124 64 23.5579 64H32.1874C33.8312 64 33.8924 63.9312 33.8924 62.1217V21.2809C33.8846 20.7935 33.9168 20.3062 33.9886 19.8254C34.1025 19.1321 34.3746 18.4839 34.7782 17.9444C35.1818 17.4048 35.7031 16.9925 36.2909 16.7476C36.8788 16.5028 37.5132 16.4338 38.1318 16.5475C38.7505 16.6613 39.3323 16.9538 39.8203 17.3964C40.3267 17.8536 40.8026 18.3678 41.279 18.8826C41.4278 19.0434 41.5766 19.2041 41.7263 19.3632L51.1866 29.4235C51.7243 30.0543 52.4246 30.4791 53.1887 30.6379C53.9527 30.7967 54.7418 30.6815 55.4445 30.3085C56.1638 29.9859 56.7725 29.4129 57.1815 28.6733C57.5905 27.9337 57.7785 27.0663 57.7178 26.1979V1.55378ZM81.1765 1.45545C81.1113 0.954309 80.9878 0.464964 80.8093 0H69.5392C69.3787 0.553329 69.2674 1.12323 69.207 1.7013V19.7074V43.2305C69.2668 44.2383 68.9798 45.2333 68.4052 46.0096C67.8306 46.7858 67.0126 47.2837 66.1206 47.4001C64.6517 47.7148 63.5676 46.8691 62.5621 45.7972C59.024 42.0209 55.4859 38.2545 51.9478 34.4979C51.41 33.8671 50.7097 33.4422 49.9456 33.2834C49.1816 33.1246 48.3925 33.2398 47.6898 33.6128C46.9839 33.9238 46.3841 34.4791 45.9771 35.1985C45.57 35.9179 45.3768 36.7642 45.4253 37.6152V62.4856C45.4253 63.5378 45.7488 63.9902 46.7018 63.9902H56.1271C57.0189 63.9902 57.3424 63.5378 57.3424 62.5544C57.2899 59.3682 57.2812 56.1819 57.3424 52.9957C57.3429 52.1769 57.5199 51.3704 57.8582 50.6454C59.126 48.0983 61.7839 47.9017 63.8211 50.0652C66.238 52.6248 68.6469 55.1933 71.0586 57.7648C72.2327 59.0167 73.4074 60.2692 74.5841 61.5218C75.1251 62.1727 75.8377 62.6109 76.6168 62.772C77.396 62.9331 78.2005 62.8086 78.912 62.4167C79.6169 62.0984 80.215 61.5386 80.6214 60.8167C81.0278 60.0949 81.222 59.2475 81.1765 58.3946V1.45545Z" fill="#FAFAFA"/>
</svg>
