<svg width="105" height="64" viewBox="0 0 105 64" fill="none" xmlns="http://www.w3.org/2000/svg">
<path fill-rule="evenodd" clip-rule="evenodd" d="M10.003 39.3979H6.24297V34.6679C6.24297 33.6679 5.82297 32.9979 5.07297 32.9679C4.32297 32.9379 3.84296 33.7579 3.84296 34.5779V39.3979H0.00296849V35.0779C-0.0363208 33.9009 0.31532 32.744 1.00297 31.7879C1.44413 31.2257 1.99916 30.7632 2.63164 30.4305C3.26412 30.0979 3.95977 29.9028 4.67297 29.8579C5.33098 29.814 5.99101 29.9058 6.61204 30.1277C7.23306 30.3496 7.80182 30.6969 8.28297 31.1479C8.77043 31.5489 9.17347 32.0426 9.46872 32.6005C9.76397 33.1583 9.94556 33.7693 10.003 34.3979V39.3979ZM48.513 27.9479C48.5611 27.4175 48.541 26.8832 48.453 26.3579C48.3662 26.0938 48.2254 25.8507 48.0394 25.644C47.8535 25.4374 47.6265 25.2719 47.373 25.1579C46.9079 24.9686 46.3875 24.9671 45.9212 25.1536C45.455 25.3401 45.0792 25.7001 44.873 26.1579C44.739 26.7751 44.7019 27.4093 44.763 28.0379V39.3979H48.513V27.9479ZM60.643 31.6779C59.9732 32.4399 59.5542 33.3895 59.443 34.3979C59.3753 35.1143 59.4696 35.8368 59.7188 36.5119C59.9681 37.187 60.3659 37.7974 60.883 38.2979C61.6789 39.1256 62.7412 39.6461 63.883 39.7679C65.1724 39.8817 66.4557 39.491 67.463 38.6779C68.3854 37.9548 69.02 36.9266 69.253 35.7779C69.337 35.0277 69.3671 34.2724 69.343 33.5179V26.6679C69.3081 26.3188 69.1736 25.9871 68.9555 25.7123C68.7375 25.4375 68.445 25.2311 68.113 25.1179C67.8204 25.01 67.506 24.9755 67.197 25.0172C66.888 25.0588 66.594 25.1755 66.3405 25.357C66.087 25.5385 65.8818 25.7793 65.7428 26.0584C65.6037 26.3374 65.5352 26.6462 65.543 26.9579C65.543 27.7279 65.543 29.9579 65.543 29.9579C64.6418 29.7357 63.6956 29.7778 62.8177 30.0793C61.9399 30.3808 61.1675 30.9289 60.593 31.6579L60.643 31.6779ZM64.333 32.6179C65.163 32.4679 65.593 33.6179 65.663 34.4679C65.743 35.6179 65.343 36.9479 64.663 37.0779C63.663 37.2479 63.213 35.7779 63.283 34.6079C63.243 33.7679 63.563 32.7179 64.283 32.5979L64.333 32.6179ZM34.403 32.5679C34.5117 32.3283 34.5721 32.0696 34.5806 31.8066C34.5892 31.5436 34.5458 31.2815 34.4529 31.0353C34.36 30.7892 34.2194 30.5638 34.0393 30.372C33.8591 30.1803 33.6429 30.026 33.403 29.9179C33.113 29.8079 32.8015 29.7668 32.493 29.7979C31.493 29.8979 31.083 30.6579 30.693 31.3479C30.303 32.0379 29.343 33.7279 29.343 33.7279V31.5579C29.3293 31.3119 29.266 31.0713 29.1571 30.8504C29.0482 30.6295 28.8958 30.4328 28.709 30.2722C28.5223 30.1116 28.305 29.9903 28.0703 29.9157C27.8356 29.8411 27.5882 29.8146 27.343 29.8379C26.8513 29.8536 26.3855 30.0612 26.0452 30.4164C25.705 30.7716 25.5175 31.2461 25.523 31.7379V39.3979H29.303V36.3979L31.303 39.3979H34.253C35.063 39.3979 35.143 38.6979 34.823 38.2079C34.243 37.3279 32.823 35.2079 32.823 35.2079L34.403 32.5679ZM21.863 30.2379C20.9712 29.8722 19.9927 29.7719 19.0453 29.9493C18.0979 30.1268 17.222 30.5743 16.523 31.2379C15.6431 32.0671 15.1016 33.1929 15.003 34.3979C14.9316 35.1146 15.0242 35.8381 15.2736 36.5138C15.5231 37.1895 15.923 37.7996 16.443 38.2979C17.2292 39.1388 18.2967 39.6618 19.443 39.7679C20.4634 39.8675 21.4897 39.6511 22.383 39.1479C23.3283 38.6213 24.0709 37.7943 24.493 36.7979C24.7181 36.3193 24.8569 35.8048 24.903 35.2779H21.113C21.033 36.0779 20.673 37.0679 19.943 37.0679C19.213 37.0679 18.793 35.9479 18.743 35.0079C18.6959 34.3356 18.8379 33.6636 19.153 33.0679C19.2366 32.9269 19.3512 32.8069 19.488 32.7168C19.6249 32.6267 19.7805 32.569 19.943 32.5479C20.1288 32.5692 20.3056 32.6397 20.455 32.7523C20.6045 32.8648 20.7211 33.0151 20.793 33.1879C20.9841 33.5425 21.0934 33.9355 21.113 34.3379H24.903C24.8101 33.4354 24.4735 32.5753 23.9292 31.8495C23.3849 31.1237 22.6533 30.5597 21.813 30.2179L21.863 30.2379ZM42.993 31.3179C42.5037 30.8101 41.9088 30.4162 41.2504 30.1639C40.592 29.9116 39.8862 29.8071 39.183 29.8579C38.2457 29.9129 37.3437 30.2349 36.5835 30.786C35.8234 31.3371 35.2368 32.0942 34.893 32.9679C34.4967 33.9559 34.4164 35.0424 34.663 36.0779C34.9521 37.1318 35.5684 38.0667 36.423 38.7479C37.1985 39.3602 38.138 39.7291 39.123 39.8079C40.0388 39.8833 40.9566 39.6886 41.763 39.2479C42.4205 38.9416 42.9862 38.4684 43.4038 37.8753C43.8214 37.2823 44.0762 36.5901 44.143 35.8679H40.793C40.473 36.3779 40.163 37.0879 39.443 37.0479C38.723 37.0079 38.443 36.0479 38.333 35.3479H44.203C44.3098 34.6216 44.252 33.8805 44.0339 33.1795C43.8158 32.4785 43.443 31.8355 42.943 31.2979L42.993 31.3179ZM40.593 33.9379H38.393C38.463 33.1279 39.273 32.0779 40.033 32.7579C40.3087 33.0889 40.4855 33.491 40.543 33.9179L40.593 33.9379ZM51.893 30.3579C51.3932 30.5886 50.9366 30.9031 50.543 31.2879C49.6628 32.0986 49.1142 33.2065 49.003 34.3979C48.9254 35.1661 49.0309 35.9417 49.3108 36.6613C49.5906 37.3808 50.0368 38.0239 50.613 38.5379C51.5846 39.418 52.8631 39.8812 54.173 39.8279C55.441 39.7899 56.6422 39.2504 57.513 38.3279C57.9812 37.8789 58.3544 37.3403 58.6104 36.7442C58.8663 36.1481 58.9998 35.5066 59.003 34.8579C59.0133 34.1828 58.8825 33.513 58.619 32.8914C58.3556 32.2697 57.9652 31.71 57.473 31.2479C56.9822 30.7641 56.3937 30.3908 55.747 30.1528C55.1003 29.9148 54.4102 29.8177 53.723 29.8679C53.0705 29.8922 52.4302 30.0523 51.843 30.3379L51.893 30.3579ZM53.893 32.6179C54.893 32.4079 55.323 34.0079 55.243 35.1679C55.183 36.0679 54.773 36.9779 54.243 37.0779C54.1335 37.093 54.0225 37.093 53.913 37.0779C53.173 36.9579 52.793 35.6279 52.913 34.5479C52.9178 33.8998 53.1556 33.2751 53.583 32.7879C53.6558 32.7118 53.7402 32.6477 53.833 32.5979L53.893 32.6179ZM77.003 30.3279C76.2546 29.9631 75.4236 29.8011 74.593 29.8579C73.3883 29.9207 72.2537 30.4432 71.423 31.3179C70.8852 31.8255 70.4726 32.4509 70.2175 33.145C69.9625 33.8391 69.8719 34.5829 69.953 35.3179C70.0491 36.2089 70.3829 37.0577 70.9194 37.7755C71.456 38.4932 72.1756 39.0536 73.003 39.3979C73.9919 39.7942 75.0815 39.8643 76.113 39.5979C77.0092 39.4081 77.8221 38.939 78.4349 38.2579C79.0476 37.5769 79.4286 36.7191 79.523 35.8079H76.173C75.873 36.3179 75.573 37.0279 74.853 36.9879C74.133 36.9479 73.853 35.9879 73.743 35.2879H79.613C79.7731 34.2801 79.5988 33.2476 79.1166 32.3483C78.6345 31.4489 77.871 30.7322 76.943 30.3079L77.003 30.3279ZM76.003 33.9679H73.823C73.953 33.2679 74.313 32.4279 75.143 32.5979C75.583 32.6879 75.863 33.3979 76.003 33.9479V33.9679ZM81.453 31.5279C80.9978 32.0235 80.6507 32.6084 80.4337 33.2454C80.2168 33.8824 80.1348 34.5575 80.193 35.2279C80.2854 36.5062 80.874 37.6977 81.833 38.5479C82.3335 38.9956 82.9191 39.338 83.5547 39.5544C84.1904 39.7709 84.8632 39.8571 85.533 39.8079C86.1663 39.7648 86.7848 39.5969 87.3529 39.3137C87.921 39.0305 88.4274 38.6377 88.843 38.1579C89.3061 37.6724 89.6613 37.0943 89.8854 36.4619C90.1094 35.8294 90.1972 35.1567 90.143 34.4879C90.0849 33.8236 89.8945 33.1775 89.583 32.5879C89.1591 31.7065 88.4761 30.9756 87.6254 30.4931C86.7747 30.0106 85.797 29.7994 84.823 29.8879C84.1744 29.9199 83.5385 30.0794 82.9517 30.3574C82.3649 30.6354 81.8386 31.0263 81.403 31.5079L81.453 31.5279ZM85.003 32.5979C85.813 32.4579 86.243 33.5379 86.323 34.3279C86.443 35.4779 86.053 36.9179 85.323 37.0579C85.1121 37.0735 84.9018 37.0219 84.7221 36.9105C84.5425 36.7991 84.4027 36.6336 84.323 36.4379C84.0461 35.8527 83.9298 35.2045 83.986 34.5596C84.0422 33.9147 84.269 33.2963 84.643 32.7679C84.747 32.6821 84.8707 32.6237 85.003 32.5979V32.5979ZM100.513 34.3979C100.409 33.1463 99.816 31.986 98.863 31.1679C98.3822 30.7164 97.8135 30.3688 97.1923 30.1469C96.5712 29.9249 95.911 29.8333 95.253 29.8779C94.5403 29.9252 93.8455 30.1215 93.2134 30.4539C92.5813 30.7863 92.0259 31.2476 91.583 31.8079C90.8994 32.7659 90.5482 33.9215 90.583 35.0979V39.3979H94.363V34.5779C94.363 33.7579 94.853 32.9379 95.603 32.9679C96.353 32.9979 96.773 33.7179 96.773 34.6679V39.3979H100.533L100.513 34.3979ZM14.443 34.0679C14.4612 33.4703 14.4378 32.8722 14.373 32.2779C14.2766 31.7668 14.0127 31.3023 13.623 30.9579C13.373 30.7079 12.953 30.3979 12.943 30.0179C12.933 29.6379 13.313 29.3679 13.563 29.1079C13.8418 28.8704 14.0964 28.6057 14.323 28.3179C14.5779 27.9038 14.6878 27.4167 14.6353 26.9332C14.5828 26.4498 14.3709 25.9976 14.033 25.6479C13.5843 25.2446 12.9957 25.0328 12.393 25.0579C11.8465 25.0989 11.3377 25.352 10.9752 25.7631C10.6128 26.1741 10.4253 26.7105 10.453 27.2579C10.4882 27.6156 10.6013 27.9612 10.7844 28.2704C10.9676 28.5797 11.2163 28.8451 11.513 29.0479C11.783 29.3179 12.163 29.7079 12.153 30.0479C12.143 30.3879 11.763 30.6979 11.513 30.9579C11.2531 31.203 11.0367 31.4904 10.873 31.8079C10.6684 32.5324 10.594 33.2874 10.653 34.0379V39.3979H14.443V34.0679ZM101.353 38.1679H102.523V38.3279H102.003V39.3979H101.803V38.3079H101.323L101.353 38.1679ZM103.813 38.1679H104.003V39.3979H103.803V38.3979L103.373 38.8779L102.943 38.3979V39.3979H102.743V38.1479H102.933L103.393 38.6579L103.813 38.1679Z" fill="#FAFAFA"/>
</svg>
