<svg width="104" height="64" viewBox="0 0 104 64" fill="none" xmlns="http://www.w3.org/2000/svg">
<path d="M9.24 26.9202C6.79179 26.9206 4.44359 27.8915 2.71 29.6202C1.85057 30.4786 1.16885 31.4981 0.703835 32.6203C0.238823 33.7426 -0.00035041 34.9454 3.85323e-07 36.1602V44.5902H7V36.3002C6.98687 35.4108 7.21126 34.5339 7.65 33.7602C7.80462 33.4662 8.03003 33.2153 8.30588 33.0302C8.58173 32.8452 8.89933 32.7317 9.23 32.7002C9.56048 32.7279 9.87832 32.8399 10.1532 33.0255C10.428 33.2111 10.6507 33.464 10.8 33.7602C11.2467 34.5307 11.4717 35.4098 11.45 36.3002V44.5902H18.45V36.1602C18.4501 33.7089 17.4793 31.3574 15.75 29.6202C14.0164 27.8915 11.6682 26.9206 9.22 26.9202" fill="#FAFAFA"/>
<path d="M25.9998 24.7C26.3627 24.3381 26.6503 23.9078 26.846 23.4341C27.0417 22.9604 27.1415 22.4526 27.1398 21.94C27.1492 21.4205 27.0529 20.9044 26.857 20.4231C26.661 19.9418 26.3694 19.5053 25.9998 19.14C25.6379 18.7771 25.2076 18.4895 24.7339 18.2939C24.2602 18.0982 23.7524 17.9983 23.2398 18C22.7287 17.998 22.2224 18.0977 21.7502 18.2935C21.2781 18.4892 20.8496 18.777 20.4898 19.14C20.1263 19.4995 19.8383 19.9278 19.6425 20.4001C19.4468 20.8723 19.3473 21.3788 19.3498 21.89C19.3441 22.4124 19.4439 22.9305 19.6432 23.4134C19.8425 23.8962 20.1373 24.3339 20.5098 24.7L21.3698 25.56C22.7998 27 22.9098 27.38 21.5398 28.75L20.7598 29.53C20.4364 29.8601 20.1815 30.2509 20.0098 30.68C19.8382 31.1091 19.7532 31.5679 19.7598 32.03V44.64H26.8498V31.98C26.8588 31.0475 26.4995 30.1491 25.8498 29.48L24.9998 28.7C23.6298 27.33 23.7298 26.95 25.1698 25.51L25.9998 24.7Z" fill="#FAFAFA"/>
<path d="M38.5802 39.1002C38.455 39.4295 38.2411 39.7177 37.9623 39.933C37.6835 40.1483 37.3505 40.2823 37.0002 40.3202C36.3702 40.3202 35.8402 39.8702 35.4202 39.1002C34.9783 38.1875 34.7557 37.1841 34.7702 36.1702C34.7545 35.1529 34.9771 34.146 35.4202 33.2302C35.8402 32.4702 36.3702 32.0102 37.0002 32.0102C37.3484 32.0509 37.6787 32.1861 37.9555 32.4011C38.2322 32.6162 38.4448 32.9029 38.5702 33.2302C38.8965 33.8772 39.0999 34.579 39.1702 35.3002H46.1702C45.9698 33.1584 45.0292 31.1534 43.5102 29.6302C41.7766 27.9015 39.4284 26.9306 36.9802 26.9302C34.532 26.9306 32.1838 27.9015 30.4502 29.6302C28.7154 31.3646 27.7406 33.7171 27.7402 36.1702C27.7435 37.3856 27.9873 38.5883 28.4575 39.709C28.9278 40.8298 29.6152 41.8464 30.4802 42.7002C31.3352 43.5581 32.3514 44.2383 33.4704 44.7017C34.5894 45.1651 35.7891 45.4025 37.0002 45.4002C39.1996 45.4118 41.3297 44.6308 43.0002 43.2002C44.8424 41.6476 45.9962 39.4298 46.2102 37.0302H39.2102C39.1399 37.7513 38.9365 38.4532 38.6102 39.1002" fill="#FAFAFA"/>
<path d="M64.7502 43.37C64.7485 43.1444 64.6864 42.9234 64.5702 42.73L60.7302 36.92L63.3902 32.09C63.8606 31.2903 63.9942 30.3365 63.7617 29.4383C63.5292 28.5401 62.9495 27.771 62.1502 27.3C61.7544 27.0651 61.3161 26.9105 60.8605 26.8452C60.4049 26.7799 59.9409 26.8051 59.495 26.9194C59.0492 27.0336 58.6302 27.2347 58.2622 27.5111C57.8941 27.7874 57.5842 28.1337 57.3502 28.53L54.1702 34.21V30.43C54.1702 29.4991 53.8004 28.6063 53.1421 27.948C52.4838 27.2898 51.5911 26.92 50.6602 26.92C49.731 26.9226 48.8408 27.2936 48.1847 27.9516C47.5286 28.6095 47.1602 29.5008 47.1602 30.43V44.59H54.1602V39.05L57.8602 44.59H63.5202C63.8437 44.59 64.154 44.4614 64.3828 44.2327C64.6116 44.0039 64.7402 43.6935 64.7402 43.37" fill="#FAFAFA"/>
<path d="M79.4801 38.2202C79.4801 42.5002 77.4001 45.2202 72.4001 45.2202H72.2101C70.5583 45.2446 68.9296 44.8305 67.4901 44.0202C65.4901 42.7402 64.2101 40.6401 65.4901 38.4301C66.7701 36.2201 70.9401 35.9901 71.5701 39.5701C71.7901 40.8201 72.4501 40.6602 72.4501 39.5002V30.9901C72.4501 28.4501 74.0201 26.8801 75.9601 26.8801C76.8883 26.8801 77.7786 27.2489 78.4349 27.9053C79.0913 28.5616 79.4601 29.4519 79.4601 30.3801V38.1801L79.4801 38.2202ZM76.0001 25.8201C76.4553 25.8201 76.906 25.7303 77.3265 25.5558C77.7469 25.3813 78.1288 25.1256 78.4502 24.8032C78.7716 24.4809 79.0263 24.0982 79.1996 23.6773C79.3729 23.2564 79.4614 22.8054 79.4601 22.3501C79.4614 21.8954 79.3728 21.4449 79.1994 21.0245C79.026 20.6041 78.7712 20.2222 78.4496 19.9006C78.1281 19.5791 77.7461 19.3242 77.3257 19.1508C76.9053 18.9774 76.4548 18.8888 76.0001 18.8902C75.5449 18.8888 75.0939 18.9774 74.6729 19.1506C74.252 19.3239 73.8694 19.5786 73.547 19.9C73.2247 20.2214 72.9689 20.6033 72.7944 21.0238C72.6199 21.4442 72.5301 21.8949 72.5301 22.3501C72.5301 23.2704 72.8957 24.1531 73.5464 24.8038C74.1972 25.4546 75.0798 25.8201 76.0001 25.8201Z" fill="#FAFAFA"/>
<path d="M88.2209 44.6002V35.1702C88.2192 34.7391 88.3299 34.315 88.5421 33.9397C88.7543 33.5644 89.0606 33.2509 89.4309 33.0302C90.2599 32.8452 91.1281 32.9809 91.8609 33.4102C94.7609 34.5202 97.0309 33.0502 97.3809 31.1502C97.5474 30.2367 97.3452 29.2945 96.8186 28.5298C96.2919 27.7651 95.4837 27.2403 94.5709 27.0702C92.2409 26.6302 90.5709 27.3702 88.6809 28.8402L88.0509 29.3602C87.8262 28.653 87.3825 28.0355 86.784 27.5969C86.1854 27.1584 85.463 26.9214 84.7209 26.9202C83.7918 26.9202 82.9005 27.2886 82.2425 27.9447C81.5846 28.6008 81.2136 29.491 81.2109 30.4202V44.6002H88.2209Z" fill="#FAFAFA"/>
<path d="M94.2005 44.7901C94.6557 44.7901 95.1064 44.7003 95.5269 44.5258C95.9473 44.3513 96.3292 44.0955 96.6506 43.7732C96.972 43.4508 97.2267 43.0682 97.4 42.6473C97.5733 42.2263 97.6618 41.7753 97.6605 41.3201C97.6618 40.8649 97.5733 40.4139 97.4 39.993C97.2267 39.572 96.972 39.1894 96.6506 38.8671C96.3292 38.5447 95.9473 38.2889 95.5269 38.1144C95.1064 37.9399 94.6557 37.8501 94.2005 37.8501C93.2802 37.8501 92.3976 38.2157 91.7468 38.8664C91.0961 39.5172 90.7305 40.3998 90.7305 41.3201C90.7305 42.2404 91.0961 43.123 91.7468 43.7738C92.3976 44.4245 93.2802 44.7901 94.2005 44.7901Z" fill="#FAFAFA"/>
<path d="M101.581 28.01H101.651L102.801 29.28L103.931 28.01H104.001V30.4H103.571V28.92L102.831 29.8H102.761L102.011 28.92V30.4H101.581V28.01ZM99.9307 28.41H99.2207V28.05H101.081V28.41H100.361V30.41H99.9307V28.41Z" fill="#FAFAFA"/>
</svg>
