<svg width="104" height="64" viewBox="0 0 104 64" fill="none" xmlns="http://www.w3.org/2000/svg">
<path d="M85.5513 12.1436C86.2769 12.2228 87.0099 12.2674 87.7306 12.3863C88.9366 12.5844 90.1402 12.7949 91.3314 13.0648C92.8569 13.4115 94.318 13.9588 95.7346 14.6225C97.7009 15.5438 99.5063 16.7102 101.116 18.1713C102.201 19.157 103.169 20.2466 103.944 21.4973C104.014 21.6112 104.021 21.6979 103.957 21.8068C103.335 22.8593 102.751 23.9317 102.092 24.9594C99.9645 28.2853 97.6886 31.5122 95.3805 34.7143C93.9812 36.6559 92.535 38.5677 91.1085 40.4895C91.0268 40.5984 90.9401 40.7099 90.8336 40.7916C90.6405 40.9402 90.5513 40.9031 90.4795 40.6752C90.2814 40.0363 90.0956 39.3949 89.8876 38.7584C89.1224 36.4132 88.3126 34.0828 87.2774 31.8391C86.631 30.4374 85.7667 29.1769 84.7415 28.0253C83.2457 26.3438 81.4774 25.0164 79.4715 24.006C78.2729 23.4017 77.0148 22.9435 75.7146 22.6142C75.3977 22.5349 75.3704 22.473 75.5611 22.2154C76.3585 21.1332 77.1386 20.0386 77.9633 18.9762C78.4858 18.3001 79.0554 17.6587 79.6374 17.0321C80.368 16.2496 81.106 15.4695 81.891 14.7414C82.8296 13.8746 83.8227 13.0648 84.7959 12.2352C84.843 12.1931 84.9222 12.1757 84.9891 12.1733C85.1748 12.1658 85.3631 12.1708 85.5513 12.1708V12.1485V12.1436ZM85.3408 12.312L85.2888 12.364C85.3754 12.5249 85.4522 12.6958 85.5537 12.8469C85.6924 13.0574 85.8509 13.253 86.002 13.4561C87.894 16.0267 89.2511 18.8524 90.0882 21.9307C90.5018 23.4438 90.8014 24.9792 90.9921 26.5369C91.2447 28.5949 91.3661 30.6628 91.324 32.7356C91.2769 35.0239 91.1209 37.3047 90.8212 39.5732C90.7915 39.806 90.7668 40.0412 90.742 40.2616L91.0045 40.3409C91.1457 40.17 91.2967 40.0041 91.428 39.8283C92.2675 38.7064 93.112 37.5846 93.9391 36.4553C94.687 35.435 95.43 34.4072 96.1581 33.372C96.9951 32.1858 97.8149 30.9897 98.642 29.7985C99.1447 29.0753 99.6598 28.3621 100.145 27.6266C101.022 26.3041 101.889 24.9743 102.741 23.637C103.085 23.0971 103.382 22.53 103.701 21.9752C103.82 21.7672 103.843 21.5864 103.674 21.3734C103.243 20.8311 102.859 20.2466 102.411 19.7216C101.978 19.2139 101.51 18.7285 101.01 18.2902C100.398 17.7553 99.749 17.2575 99.0903 16.782C98.5008 16.3561 97.8842 15.9623 97.2576 15.5933C96.745 15.2912 96.2051 15.0311 95.6653 14.7761C95.2443 14.5755 94.8134 14.3947 94.3775 14.2288C93.8327 14.0183 93.2804 13.8226 92.7257 13.6394C92.2205 13.471 91.7128 13.3075 91.1977 13.1812C90.5488 13.0252 89.8926 12.9014 89.2363 12.78C88.6271 12.6686 88.0179 12.5621 87.4037 12.4878C86.844 12.4209 86.2769 12.3986 85.7147 12.3565C85.5884 12.3466 85.4646 12.3293 85.3383 12.3169L85.3408 12.312Z" fill="#FAFAFA"/>
<path d="M26.5999 42.124C26.7658 42.1784 26.8946 42.2354 27.0333 42.2651C27.6648 42.4038 28.2467 42.6366 28.7792 43.0204C29.3884 43.4613 29.7871 44.0284 30.0447 44.7292C30.3022 45.4375 30.3196 46.1656 30.2626 46.8887C30.218 47.4682 30.0818 48.0452 29.8069 48.5752C29.5122 49.1473 29.1259 49.6574 28.6232 50.0487C28.0957 50.4574 27.5261 50.8164 26.8624 50.9898C26.3844 51.1136 25.9139 51.2597 25.4335 51.3687C25.166 51.4281 24.8837 51.4554 24.6088 51.4603C22.1026 51.49 19.5939 51.5099 17.0877 51.5321C16.793 51.5346 16.793 51.5321 16.793 51.2399C16.793 45.5514 16.793 39.8604 16.793 34.1719C16.793 33.9821 16.8854 33.8863 17.0703 33.8847C19.4032 33.8847 21.7336 33.8772 24.0664 33.8921C24.4131 33.8921 24.7598 33.9862 25.109 34.0382C25.275 34.063 25.4409 34.1001 25.6093 34.1175C26.32 34.1992 26.9738 34.4567 27.588 34.8034C28.2344 35.17 28.7445 35.6826 29.0541 36.3587C29.1928 36.6633 29.225 37.015 29.329 37.3394C29.4825 37.8173 29.4033 38.3077 29.3909 38.7881C29.381 39.115 29.2671 39.4444 29.1556 39.7589C28.9649 40.3062 28.6628 40.8015 28.2319 41.1878C27.7911 41.5866 27.3032 41.9258 26.6989 42.0497C26.6766 42.0546 26.6568 42.0819 26.5999 42.124V42.124ZM20.9238 46.121C20.9238 46.8045 20.9287 47.488 20.9213 48.1715C20.9213 48.3201 20.9634 48.3771 21.1144 48.3697C21.3671 48.3598 21.6172 48.3697 21.8698 48.3672C22.7886 48.3672 23.7123 48.4217 24.6013 48.1171C24.8936 48.018 25.1982 47.9165 25.4458 47.7431C26.0352 47.3271 26.2829 46.7154 26.2953 46.0071C26.2977 45.8387 26.2779 45.6604 26.221 45.5044C26.1219 45.2369 26.0278 44.9447 25.8545 44.7268C25.3492 44.0928 24.5964 43.9343 23.8534 43.8798C22.9644 43.8154 22.0704 43.8625 21.1788 43.8525C20.9782 43.8501 20.9213 43.9268 20.9213 44.1151C20.9287 44.7837 20.9238 45.4524 20.9238 46.121V46.121ZM22.3032 37.0595V37.0447C21.9292 37.0447 21.5553 37.0571 21.1813 37.0397C20.9758 37.0298 20.9213 37.1091 20.9213 37.2973C20.9262 38.4464 20.9262 39.5979 20.9213 40.747C20.9213 40.8981 20.9832 40.9253 21.1144 40.9253C21.5974 40.9204 22.0778 40.9179 22.5607 40.9253C23.0387 40.9328 23.5216 40.9402 23.9698 40.752C24.2621 40.6306 24.5741 40.5093 24.8069 40.3087C25.322 39.8629 25.4978 39.2512 25.4235 38.59C25.3889 38.2705 25.275 37.9635 25.0347 37.7084C24.5989 37.2502 24.0194 37.1536 23.4448 37.0694C23.0709 37.015 22.6845 37.0595 22.3032 37.0595V37.0595Z" fill="#FAFAFA"/>
<path d="M49.7785 42.7975C49.6868 42.5102 49.615 42.2601 49.5234 42.0174C49.4095 41.7202 49.2163 41.4899 48.9389 41.3116C48.3892 40.9575 47.7725 40.96 47.1757 41.0318C46.6259 41.0986 46.0761 41.2472 45.5734 41.5246C45.1598 41.75 44.7314 41.9481 44.3104 42.1611C44.1915 42.2205 44.1172 42.2329 44.0404 42.0843C43.6591 41.3587 43.2628 40.6405 42.8715 39.9223C42.8369 39.8604 42.7948 39.8034 42.7551 39.744C42.6586 39.5979 42.6907 39.4716 42.8492 39.3874C43.2925 39.1521 43.7284 38.902 44.1816 38.689C44.7537 38.4215 45.3356 38.1789 45.9622 38.0625C46.4005 37.9807 46.8364 37.8693 47.2772 37.8346C47.983 37.7801 48.6962 37.7257 49.3996 37.7801C49.8751 37.8148 50.3555 37.9436 50.8235 38.1194C51.5318 38.3869 52.1138 38.8079 52.5942 39.3676C52.884 39.7068 53.1316 40.0882 53.2604 40.5315C53.3397 40.8064 53.4585 41.0664 53.5427 41.3389C53.5947 41.5048 53.6195 41.6781 53.6492 41.8515C53.7012 42.1388 53.7508 42.4285 53.7978 42.7183C53.8077 42.7752 53.8077 42.8322 53.8077 42.8891C53.8077 45.695 53.8077 48.5009 53.8127 51.3043C53.8127 51.4999 53.7532 51.542 53.565 51.5395C52.6586 51.5271 51.7522 51.5296 50.8434 51.5296C50.4496 51.5296 50.4496 51.5197 50.3852 51.121C50.3357 50.8164 50.2614 50.5143 50.1896 50.175C50.1202 50.2295 50.0633 50.2765 50.0063 50.3161C49.62 50.591 49.2535 50.8981 48.8424 51.1284C48.4486 51.3513 48.0177 51.5098 47.5917 51.6683C47.4035 51.7401 47.1905 51.755 46.9875 51.7773C46.7126 51.8095 46.4327 51.8441 46.1578 51.8392C45.4818 51.8268 44.8255 51.698 44.2287 51.3711C43.617 51.0343 43.1217 50.5786 42.7849 49.9521C42.5298 49.4766 42.3812 48.9838 42.292 48.4489C42.1187 47.4137 42.2747 46.4503 42.817 45.5687C43.0276 45.2269 43.3495 44.9422 43.6665 44.6871C43.9983 44.4171 44.3649 44.1695 44.7537 43.9912C45.2415 43.7683 45.7616 43.6073 46.2767 43.4513C46.7621 43.3052 47.2574 43.1913 47.7502 43.0749C47.9434 43.0303 48.1415 43.013 48.3372 42.9832C48.7086 42.9288 49.0776 42.8743 49.4491 42.8223C49.5457 42.8099 49.6447 42.8074 49.7785 42.7975V42.7975ZM49.7562 45.2988C49.3674 45.378 49.0108 45.4622 48.6517 45.5241C48.1489 45.6083 47.671 45.7643 47.2203 46.007C46.7547 46.2572 46.3361 46.5568 46.1702 47.0917C46.0489 47.483 46.0984 47.852 46.3659 48.1715C46.7274 48.6049 47.2227 48.6866 47.7502 48.6717C47.8394 48.6693 47.9261 48.6148 48.0152 48.6049C48.3396 48.5702 48.6269 48.4464 48.8869 48.2507C49.0727 48.1121 49.2733 47.9882 49.4466 47.8347C49.568 47.7257 49.7388 47.5796 49.7438 47.4434C49.7735 46.7475 49.7587 46.0491 49.7587 45.3012L49.7562 45.2988Z" fill="#FAFAFA"/>
<path d="M62.1481 51.8442C61.6999 51.8442 61.2467 51.8764 60.8034 51.8367C60.1348 51.7748 59.4735 51.6881 58.8222 51.4851C58.1511 51.2746 57.5196 50.9972 56.9079 50.6629C56.6231 50.5069 56.3532 50.3211 56.0882 50.1329C55.8777 49.9818 55.895 49.8456 56.0783 49.6079C56.3358 49.2711 56.5736 48.917 56.8237 48.5752C57.0788 48.226 57.3314 47.8744 57.6013 47.5351C57.74 47.3617 57.8168 47.4013 58 47.5202C58.4111 47.7902 58.8321 48.0477 59.268 48.2805C59.5652 48.439 59.8772 48.5826 60.2016 48.6668C60.7217 48.803 61.269 48.8179 61.7965 48.7386C62.0986 48.6941 62.3983 48.5529 62.6286 48.3028C62.8391 48.0749 62.9084 47.5227 62.6236 47.2329C62.1729 46.7723 61.6157 46.5296 61.0337 46.3117C60.5558 46.1309 60.0753 45.9551 59.6147 45.7322C59.1318 45.4994 58.6563 45.2394 58.2056 44.9496C57.6558 44.598 57.2249 44.1175 56.9351 43.5331C56.6355 42.9288 56.5166 42.2775 56.5884 41.6039C56.6429 41.0838 56.7444 40.5588 56.997 40.1006C57.2496 39.6474 57.5344 39.2116 57.9827 38.8921C58.2947 38.6692 58.5969 38.4389 58.9436 38.2804C59.4512 38.0501 59.9812 37.8693 60.5434 37.8347C61.2145 37.795 61.8881 37.7703 62.5592 37.7703C62.7995 37.7703 63.0422 37.8495 63.2774 37.9114C63.6712 38.013 64.0699 38.1021 64.4463 38.2457C64.8277 38.3894 65.1893 38.585 65.5484 38.7782C65.8208 38.9243 66.0709 39.1076 66.3359 39.2685C66.4771 39.3527 66.539 39.5187 66.4498 39.6474C66.3087 39.853 66.1576 40.0511 66.009 40.2492C65.6326 40.7569 65.2537 41.2646 64.8772 41.7723C64.7757 41.911 64.6098 41.9233 64.4686 41.8169C63.9486 41.4256 63.3839 41.1234 62.7598 40.9303C62.4082 40.8238 62.054 40.7445 61.69 40.7866C61.3136 40.8312 60.9297 40.8807 60.6424 41.1878C60.3676 41.4825 60.3651 41.9679 60.6474 42.2676C60.9545 42.5969 61.3359 42.7753 61.7519 42.9164C62.1036 43.0353 62.4503 43.169 62.792 43.3151C63.3814 43.5653 63.9709 43.8129 64.5454 44.0903C65.0481 44.333 65.5038 44.6599 65.848 45.0982C66.1452 45.4771 66.3656 45.8981 66.4944 46.3785C66.6182 46.8491 66.6727 47.3147 66.6306 47.7852C66.5935 48.2037 66.5068 48.6173 66.3582 49.0259C66.1328 49.6549 65.744 50.1428 65.266 50.5737C64.9045 50.9006 64.4959 51.1681 64.0179 51.3117C63.6291 51.4281 63.2527 51.5792 62.8614 51.6857C62.6311 51.7501 62.3859 51.76 62.1481 51.7946V51.8442V51.8442Z" fill="#FAFAFA"/>
<path d="M81.7571 48.5207C81.7918 48.8352 81.8116 49.1175 81.8586 49.3949C81.923 49.7812 82.0146 50.1601 82.0766 50.5465C82.1236 50.8313 82.1509 51.121 82.1632 51.4083C82.1657 51.4752 82.0766 51.594 82.0122 51.6064C81.6432 51.6782 81.2717 51.7352 80.8978 51.7748C80.551 51.812 80.1994 51.8466 79.8502 51.8318C79.1667 51.8021 78.4956 51.6609 77.9284 51.2622C77.4951 50.9551 77.1558 50.5465 76.9354 50.0437C76.6902 49.4865 76.554 48.912 76.5317 48.3077C76.3484 43.1269 76.5045 37.9436 76.45 32.7603C76.45 32.5746 76.5094 32.5325 76.6828 32.5325C77.8715 32.5399 79.0577 32.5399 80.2464 32.5325C80.452 32.5325 80.5114 32.582 80.5114 32.795C80.5065 37.6563 80.504 42.5202 80.5114 47.3815C80.5114 47.6341 80.5733 47.9041 80.6749 48.1344C80.7789 48.3746 80.9943 48.5306 81.2866 48.5232C81.4351 48.5207 81.5862 48.5232 81.7521 48.5232L81.7571 48.5207Z" fill="#FAFAFA"/>
<path d="M36.1169 38.075C36.1516 38.3771 36.1789 38.657 36.216 38.9343C36.2631 39.281 36.3274 39.6253 36.3745 39.9695C36.3894 40.0809 36.3745 40.1949 36.3745 40.3757C36.5553 40.1008 36.6865 39.8704 36.8475 39.6624C37.1274 39.3058 37.3899 38.9442 37.7663 38.6619C38.0758 38.4316 38.373 38.1815 38.7296 38.0477C39.1011 37.9091 39.4974 37.8224 39.8911 37.7654C40.1858 37.7209 40.4954 37.7357 40.795 37.763C41.1021 37.7902 41.4043 37.8571 41.7064 37.9289C41.7633 37.9413 41.8401 38.0601 41.8327 38.122C41.8005 38.4341 41.746 38.7436 41.694 39.0532C41.6668 39.2117 41.6271 39.3677 41.5999 39.5262C41.5429 39.8779 41.4959 40.232 41.4389 40.5837C41.3943 40.8511 41.3423 41.1186 41.278 41.3836C41.268 41.4282 41.1715 41.4851 41.1219 41.4802C40.904 41.4604 40.6885 41.3984 40.4681 41.391C40.0595 41.3762 39.6435 41.3415 39.2423 41.4034C38.5835 41.5074 38.0684 41.9012 37.6474 42.3989C37.3106 42.7977 37.0283 43.2385 36.8574 43.7412C36.8351 43.8056 36.8475 43.8824 36.8475 43.9542C36.8475 46.391 36.8475 48.8304 36.8475 51.2673C36.8475 51.5422 36.8475 51.5273 36.5726 51.5273C35.4062 51.5199 34.2422 51.5223 33.0758 51.5223C32.8893 51.5223 32.796 51.4274 32.796 51.2375C32.796 46.9384 32.796 42.6367 32.791 38.3375C32.791 38.1097 32.8604 38.0651 33.0709 38.0676C34.0788 38.0775 35.0842 38.0725 36.1169 38.0725V38.075Z" fill="#FAFAFA"/>
<path d="M73.1392 38.075V38.3474C73.1392 42.6342 73.1392 46.9185 73.1392 51.2053C73.1392 51.5124 73.102 51.5347 72.7826 51.5322C71.6459 51.5248 70.5091 51.5322 69.3724 51.5273C68.9911 51.5273 69.0232 51.5867 69.0232 51.188C69.0232 46.9878 69.0232 42.7902 69.0232 38.5901C69.0232 38.5108 69.0232 38.4316 69.0208 38.3523C69.0059 38.075 69.0059 38.075 69.2709 38.075C70.472 38.075 71.6731 38.075 72.8767 38.075H73.1417H73.1392Z" fill="#FAFAFA"/>
<path d="M9.1869 45.2963C9.26615 44.9694 9.3454 44.6425 9.42464 44.3156C9.50885 43.9714 9.58809 43.6272 9.67972 43.2854C9.80355 42.8273 9.93233 42.3716 10.0636 41.9134C10.2146 41.3835 10.3682 40.8535 10.5242 40.326C10.653 39.8926 10.6555 39.8926 11.1136 39.8926C11.5965 39.8926 12.077 39.8926 12.5599 39.8926C12.7531 39.8926 12.815 39.962 12.758 40.1403C12.6144 40.5687 12.4534 40.9897 12.3147 41.4181C12.1636 41.8812 12.0373 42.3493 11.8912 42.8124C11.7823 43.1566 11.6609 43.4984 11.5445 43.8401C11.4232 44.2017 11.3018 44.5658 11.1805 44.9273C11.0616 45.2839 10.9353 45.6356 10.8189 45.9922C10.7223 46.2968 10.6356 46.6039 10.5465 46.9085C10.497 47.072 10.4375 47.1933 10.2196 47.1884C9.5138 47.1735 8.808 47.1735 8.10467 47.1884C7.91151 47.1933 7.83474 47.1066 7.78273 46.9531C7.29982 45.4895 6.81938 44.0234 6.33151 42.5623C6.05414 41.7326 5.76439 40.908 5.47959 40.0808C5.43749 39.957 5.47217 39.8877 5.6158 39.8901C6.26217 39.8901 6.91101 39.8852 7.55737 39.8976C7.63166 39.8976 7.74558 39.9892 7.76787 40.061C7.91151 40.5192 8.03781 40.9798 8.16163 41.4429C8.25326 41.7871 8.32013 42.1363 8.40928 42.4781C8.46872 42.7059 8.5554 42.9263 8.61979 43.1542C8.68913 43.4018 8.74113 43.6544 8.80552 43.9045C8.89468 44.2488 8.98878 44.5905 9.07794 44.9348C9.10765 45.0487 9.12994 45.1651 9.15471 45.2815L9.18938 45.2914L9.1869 45.2963Z" fill="#FAFAFA"/>
<path d="M1.09469 39.8654C1.15165 39.3602 1.21356 38.8674 1.26557 38.3721C1.30024 38.0452 1.34729 37.9932 1.66428 37.9932C2.10262 37.9932 2.54096 37.9982 2.98178 37.9907C3.13037 37.9907 3.18237 38.0328 3.1799 38.1864C3.17247 38.6891 3.1799 39.1918 3.17247 39.697C3.17247 39.8481 3.21704 39.9001 3.36811 39.8951C3.7272 39.8877 4.08877 39.9001 4.44786 39.8877C4.59893 39.8828 4.69056 39.9298 4.73761 40.0685C4.87629 40.4845 5.02488 40.8956 5.15118 41.3167C5.22795 41.5693 5.15366 41.646 4.87877 41.646C4.32651 41.646 3.77425 41.646 3.19971 41.646C3.1898 41.7698 3.17742 41.8763 3.17742 41.9804C3.17742 42.7926 3.15513 43.6049 3.18732 44.4172C3.19971 44.7268 3.2319 45.0735 3.49441 45.3038C3.71482 45.497 3.96247 45.6431 4.27946 45.5118C4.37604 45.4722 4.48253 45.4549 4.58902 45.44C4.73018 45.4202 4.83419 45.4103 4.854 45.6282C4.88372 45.9229 4.99516 46.2077 5.06451 46.4975C5.10165 46.6535 5.14623 46.812 5.15614 46.9705C5.16852 47.1785 4.95059 47.1414 4.854 47.1661C4.30918 47.3147 3.74949 47.3964 3.18485 47.3395C2.60287 47.28 2.04319 47.1315 1.62466 46.6857C1.35472 46.3959 1.19375 46.0393 1.10707 45.648C0.834658 44.4271 1.01544 43.1914 0.965912 41.963C0.953529 41.646 0.965912 41.646 0.653874 41.646C0.495379 41.646 0.336883 41.6411 0.178387 41.646C0.0520863 41.651 -0.00239589 41.6064 8.0604e-05 41.4727C0.00503359 41.0269 0.00503359 40.5811 8.0604e-05 40.1354C8.0604e-05 40.0165 0.0397039 39.9769 0.161052 39.967C0.46566 39.9422 0.767793 39.9001 1.09964 39.8605L1.09469 39.8654Z" fill="#FAFAFA"/>
<path d="M71.1078 36.1803C70.6372 36.2273 70.2113 36.1406 69.8175 35.9401C69.3272 35.6924 68.9532 35.3061 68.8021 34.7786C68.7006 34.4244 68.6783 34.053 68.7452 33.6617C68.8319 33.149 69.0696 32.7528 69.4559 32.4606C69.7061 32.2699 70.0255 32.1411 70.3326 32.0668C70.657 31.9876 71.0087 31.9702 71.3455 31.9876C71.9225 32.0173 72.4624 32.208 72.8611 32.6339C73.1731 32.9683 73.3985 33.3744 73.3762 33.8672C73.3663 34.0604 73.3911 34.256 73.3713 34.4492C73.3168 34.9396 73.1013 35.3754 72.7224 35.6726C72.2544 36.0441 71.7046 36.2645 71.1053 36.1803H71.1078Z" fill="#FAFAFA"/>
</svg>
