<svg width="104" height="64" viewBox="0 0 104 64" fill="none" xmlns="http://www.w3.org/2000/svg">
<path d="M81.58 0H22.42C21.7782 0 21.1626 0.254964 20.7088 0.708802C20.255 1.16264 20 1.77818 20 2.42V61.58C20 62.2218 20.255 62.8374 20.7088 63.2912C21.1626 63.745 21.7782 64 22.42 64H81.58C82.2218 64 82.8374 63.745 83.2912 63.2912C83.745 62.8374 84 62.2218 84 61.58V2.42C84 1.77818 83.745 1.16264 83.2912 0.708802C82.8374 0.254964 82.2218 0 81.58 0V0ZM74.7 6.59L77.61 8.33V9.78C77.61 11.26 77.61 12.78 77.61 14.23C77.6167 14.3928 77.591 14.5553 77.5343 14.7081C77.4777 14.8609 77.3912 15.0009 77.28 15.12C76.4574 16.0041 75.6957 16.9429 75 17.93C74.9062 18.0423 74.806 18.1491 74.7 18.25V6.59ZM45.7 6.68L47.52 7.48L50.58 8.79C50.9334 8.9022 51.2305 9.14554 51.41 9.47C51.1921 9.78012 50.9368 10.0622 50.65 10.31C50.41 10.57 50.14 10.82 49.84 11.12C48.45 9.65 47.05 8.19 45.66 6.73L45.7 6.68ZM26.36 6.68C26.86 6.58 39.76 6.55 43.85 6.68L45.85 8.78C46.17 9.12 46.51 9.45 46.85 9.78L49.49 12.54C49.61 12.67 49.73 12.82 49.87 12.99C49.968 12.905 50.0615 12.8149 50.15 12.72L53.56 9.18C54.2 8.52 54.83 7.84 55.47 7.18C55.61 7.03 55.74 6.87 55.88 6.69H73.54V7.17C73.54 11.35 73.54 15.52 73.54 19.7C73.5463 20.0086 73.4592 20.3119 73.29 20.57C72.3548 22.0941 71.5197 23.6775 70.79 25.31C70.44 26.07 70.18 26.87 69.86 27.64C69.779 27.8666 69.6752 28.0844 69.55 28.29C69.511 28.3794 69.4466 28.4555 69.3649 28.5088C69.2831 28.5621 69.1876 28.5903 69.09 28.59C68.77 28.59 68.66 28.54 68.54 28.23C68.4849 28.0879 68.4446 27.9404 68.42 27.79C68.42 27.32 68.35 26.86 68.3 26.39C68.25 25.92 68.17 25.55 68.11 25.13C68.05 24.71 68.03 24.48 68 24.13C67.9289 23.5039 67.7914 22.8871 67.59 22.29C67.5127 21.9347 67.3194 21.6151 67.0406 21.3816C66.7619 21.1481 66.4134 21.0139 66.05 21C65.5147 20.9368 64.9749 21.0733 64.5339 21.3833C64.093 21.6932 63.7818 22.1549 63.66 22.68C63.5442 23.3052 63.575 23.9487 63.75 24.56C64.1249 26.0647 64.6129 27.5389 65.21 28.97C65.72 30.31 66.21 31.66 66.72 32.97C66.95 33.57 67.19 34.18 67.45 34.77C67.6601 35.2083 68.0176 35.5587 68.4601 35.7598C68.9026 35.9609 69.4017 35.9999 69.87 35.87L70.32 35.75C70.5681 35.6464 70.7881 35.4854 70.962 35.2803C71.1358 35.0752 71.2585 34.8318 71.32 34.57C71.6 33.8 71.81 33.01 72.07 32.23C72.4767 30.97 72.8967 29.71 73.33 28.45C73.3801 28.3285 73.4403 28.2114 73.51 28.1V38.17C73.07 38.26 64.05 38.29 62.58 38.17C62.4633 37.7398 62.4061 37.2957 62.41 36.85C62.2851 35.5697 62.2851 34.2803 62.41 33C62.41 31.95 62.48 30.91 62.41 29.87C62.4098 29.0235 62.3496 28.178 62.23 27.34C62.2238 27.3239 62.2238 27.3061 62.23 27.29C62.23 26.53 62.23 25.77 62.11 25.01C62.0298 24.2628 61.9931 23.5115 62 22.76C62 22.59 62.05 22.42 62.06 22.25C62.0751 22.077 62.0751 21.903 62.06 21.73C62.06 21.5 61.99 21.26 61.95 21.01L63.83 19.9C64.8916 19.3196 65.923 18.6855 66.92 18C67.2249 17.798 67.4619 17.5087 67.6 17.17C67.6657 17.0264 67.6938 16.8684 67.6815 16.7109C67.6693 16.5535 67.6171 16.4017 67.53 16.27C67.3824 16.0303 67.184 15.826 66.9487 15.6715C66.7134 15.5171 66.447 15.4162 66.1684 15.3761C65.8898 15.3361 65.6057 15.3577 65.3364 15.4396C65.0671 15.5215 64.8191 15.6616 64.61 15.85C64.34 16.09 64.06 16.32 63.8 16.58C63.3175 16.996 62.791 17.3582 62.23 17.66C61.77 17.96 61.23 18.21 60.79 18.49C60.1788 18.1579 59.4658 18.0652 58.79 18.23C58.4773 18.2746 58.1927 18.435 57.9927 18.6795C57.7927 18.924 57.6918 19.2347 57.71 19.55C57.735 19.7258 57.735 19.9042 57.71 20.08C57.7107 20.2331 57.6713 20.3838 57.5959 20.5171C57.5205 20.6504 57.4116 20.7617 57.28 20.84C56.82 21.09 56.4 21.39 55.96 21.65C55.12 22.15 54.26 22.65 53.42 23.14C52.6201 23.6369 51.7552 24.0206 50.85 24.28C50.4297 24.3812 50.0518 24.6121 49.77 24.94C49.6233 25.0964 49.5224 25.2901 49.4783 25.5C49.4342 25.7098 49.4486 25.9278 49.52 26.13C49.5982 26.4396 49.7541 26.7242 49.9728 26.9569C50.1915 27.1896 50.4658 27.3627 50.77 27.46C51.0538 27.5448 51.3562 27.5448 51.64 27.46C52.0728 27.3486 52.4802 27.1551 52.84 26.89C53.63 26.31 54.41 25.72 55.21 25.15C55.83 24.72 56.47 24.31 57.1 23.89C57.3066 23.7634 57.5487 23.7073 57.79 23.73C57.912 23.7145 58.0356 23.742 58.1396 23.8077C58.2436 23.8734 58.3215 23.9732 58.36 24.09C58.4821 24.3182 58.5505 24.5713 58.56 24.83C58.56 26.54 58.56 28.25 58.56 29.96C58.5602 30.5478 58.5302 31.1353 58.47 31.72C58.36 32.5 58.47 33.29 58.36 34.06C58.25 34.83 58.31 35.86 58.29 36.77C58.29 37.14 58.35 37.52 58.37 37.9C58.375 37.9933 58.375 38.0867 58.37 38.18H55.46V29.38C53.56 30.94 51.77 32.5 49.94 34.02L44.5 29.44C44.499 29.4567 44.499 29.4733 44.5 29.49V38.11L44.44 38.17H26.44L26.36 6.68ZM54.22 32.89C54.2794 33.1445 54.248 33.4118 54.1311 33.6455C54.0142 33.8793 53.8193 34.0648 53.58 34.17H51.64L54.18 32C54.1902 32.0931 54.1902 32.1869 54.18 32.28C54.1899 32.4709 54.21 32.6612 54.24 32.85L54.22 32.89ZM38 58.07H26.33V42.76H30.57V54.35H38V58.07ZM44.74 58.07H40.47V42.76H44.74V58.07ZM45.57 32L47.94 34V38.23H45.57V32ZM57.19 58.19H53.25L47 42.76H51.74L55.22 52.45L58.7 42.76H63.36L57.19 58.19ZM77.64 58.08H65.23V42.76H77.53V46.37H69.41V48.69H76.76V52H69.41V54.42H77.64V58.08ZM77.64 38.22H74.73V37.67C74.73 33.74 74.73 29.82 74.73 25.89C74.7236 25.5803 74.7958 25.2741 74.94 25C75.45 24.13 75.94 23.25 76.49 22.39C76.83 21.83 77.21 21.3 77.58 20.74C77.64 21.16 77.68 36.48 77.59 38.21L77.64 38.22Z" fill="#FAFAFA"/>
</svg>
