<svg width="104" height="64" viewBox="0 0 104 64" fill="none" xmlns="http://www.w3.org/2000/svg">
<path d="M56.2643 51.9229C56.2411 51.7345 56.2077 51.5475 56.1643 51.3627L51.0723 55.6744H54.9938C55.4761 55.4599 55.8682 55.0834 56.1021 54.6102C56.336 54.1369 56.3969 53.5968 56.2743 53.0833C56.2509 52.697 56.2476 52.3096 56.2643 51.9229V51.9229Z" fill="#FAFAFA"/>
<path d="M95.1573 63.8277V43.4797C95.0224 43.7017 94.9021 43.9323 94.7971 44.17C93.9368 46.721 93.0865 49.2619 92.2561 51.8129C91.7359 53.3836 91.3158 54.9842 90.7456 56.5248C90.6261 57.0536 90.3822 57.5464 90.0343 57.9622C89.6863 58.378 89.2443 58.7049 88.7448 58.9157C88.4525 59.0143 88.1553 59.0978 87.8544 59.1658C86.9066 59.4258 85.8977 59.346 85.0025 58.9404C84.1073 58.5348 83.3821 57.8289 82.9525 56.945C82.4423 55.7345 81.9521 54.524 81.4819 53.3035C80.4815 50.5925 79.4811 47.8714 78.4807 45.1803C77.268 42.2849 76.2651 39.3061 75.4796 36.2669C75.1345 35.0293 75.0729 33.73 75.2995 32.4654C75.5478 31.406 76.1779 30.4753 77.0694 29.8515C77.9609 29.2276 79.0511 28.9544 80.1314 29.084C80.8497 29.1155 81.5385 29.3793 82.0941 29.8357C82.6497 30.2921 83.0422 30.9165 83.2126 31.615C83.6077 32.8284 83.8792 34.0786 84.0229 35.3465C84.0829 35.9967 84.153 36.657 84.243 37.3473C84.3631 38.1976 84.5331 39.0479 84.6332 39.9083C84.7332 40.7686 84.7832 41.789 84.8833 42.7194C84.9244 43.0253 85.0051 43.3246 85.1233 43.6097C85.3734 44.24 85.5735 44.33 86.2338 44.34C86.429 44.3407 86.6202 44.2842 86.7838 44.1776C86.9473 44.0709 87.0761 43.9187 87.1542 43.7398C87.3999 43.3071 87.6106 42.8555 87.7844 42.3893C88.4146 40.8186 88.9449 39.208 89.6551 37.6874C91.1236 34.387 92.8113 31.1886 94.7071 28.1137C95.0463 27.5863 95.2204 26.9698 95.2073 26.343C95.2073 17.9197 95.2073 9.49303 95.2073 1.06306V0.0626646H59.5533C59.2532 0.412802 58.9931 0.742931 58.713 1.06306C57.4325 2.42359 56.152 3.78412 54.8615 5.12465C52.5673 7.51892 50.273 9.90319 47.9788 12.2775L47.4086 12.8177C47.1185 12.4775 46.8984 12.1774 46.6383 11.9073C44.8642 10.0466 43.0902 8.18919 41.3162 6.33513C40.6559 5.65486 39.9657 4.9846 39.3154 4.33434L35.3138 0.0926751C27.0706 -0.0773915 1.0204 0.00264045 0 0.202719C0 21.4244 0 42.6794 0 63.9677H36.1542C36.1836 63.9763 36.2148 63.9763 36.2442 63.9677L36.3542 63.8577V46.4408C36.3466 46.4113 36.3466 46.3803 36.3542 46.3508C36.3542 46.3508 36.3542 46.3008 36.4343 46.2708L47.4386 55.5144C51.13 52.4432 54.7615 49.302 58.603 46.1407V63.8977H64.4753C64.4857 63.7111 64.4857 63.5241 64.4753 63.3375C64.4252 62.5772 64.3052 61.8069 64.3152 61.0466C64.2635 59.2248 64.3069 57.4016 64.4452 55.5844C64.6353 54.0238 64.4452 52.4432 64.6653 50.8626C64.7971 49.6833 64.8639 48.4978 64.8654 47.3112C64.9755 43.8598 64.8654 40.3985 64.9254 36.9471C64.9005 36.4261 64.7604 35.917 64.5153 35.4565C64.4312 35.2261 64.2745 35.0293 64.0688 34.8958C63.8631 34.7622 63.6195 34.6992 63.3748 34.7163C62.8823 34.6835 62.3911 34.7985 61.9643 35.0464C60.6938 35.8967 59.4133 36.717 58.1628 37.5974C56.5422 38.7478 54.9615 39.9383 53.3609 41.1188C52.6371 41.655 51.8143 42.0426 50.94 42.2592C50.3702 42.4388 49.759 42.4388 49.1893 42.2592C48.5774 42.0606 48.0255 41.7108 47.5848 41.2421C47.1441 40.7735 46.8289 40.2011 46.6683 39.5781C46.5226 39.1707 46.4922 38.7309 46.5805 38.3073C46.6688 37.8837 46.8722 37.4926 47.1685 37.1772C47.7374 36.5134 48.5001 36.0446 49.3493 35.8367C51.1795 35.3173 52.9273 34.5427 54.5414 33.5358C56.232 32.5354 57.9627 31.535 59.6634 30.5346C60.5637 30.0044 61.4141 29.3942 62.3244 28.904C62.5925 28.7434 62.8144 28.5163 62.9687 28.2445C63.123 27.9728 63.2043 27.6658 63.2048 27.3534C63.2498 27.0047 63.2498 26.6516 63.2048 26.303C63.1629 25.6649 63.3631 25.0345 63.7655 24.5376C64.1679 24.0406 64.7428 23.7137 65.3756 23.6219C66.7544 23.2784 68.212 23.4677 69.4572 24.1521C70.4576 23.5919 71.458 23.0917 72.3584 22.4815C73.4973 21.8723 74.5644 21.1374 75.5396 20.2906C76.0598 19.7704 76.63 19.2902 77.1702 18.82C77.5923 18.4377 78.0936 18.1532 78.6383 17.9868C79.183 17.8205 79.7576 17.7763 80.3213 17.8575C80.885 17.9387 81.4238 18.1433 81.8994 18.4567C82.375 18.77 82.7755 19.1844 83.0725 19.6704C83.2451 19.9365 83.3484 20.2416 83.3728 20.5579C83.3973 20.8742 83.3422 21.1915 83.2126 21.4811C82.9329 22.1621 82.4599 22.7463 81.8521 23.1617C79.8604 24.5389 77.8003 25.8144 75.6797 26.9832L71.8782 29.2241C71.9582 29.7343 72.0582 30.2245 72.1083 30.6947C72.1361 31.0276 72.1361 31.3622 72.1083 31.6951C72.1083 32.0452 71.9882 32.3853 71.9882 32.6955C71.9481 34.2343 71.9982 35.7742 72.1383 37.3073C72.2983 38.8379 72.3183 40.3885 72.3984 41.9191C72.3933 41.9556 72.3933 41.9926 72.3984 42.0291C72.6563 43.7173 72.78 45.4233 72.7685 47.1311C72.7685 49.2319 72.7685 51.3328 72.6685 53.4436C72.4588 56.0422 72.4957 58.6549 72.7785 61.2466C72.771 62.1483 72.8854 63.0467 73.1186 63.9177C76.0598 64.0677 94.2769 63.9977 95.1573 63.8277Z" fill="#FAFAFA"/>
<path d="M43.5553 55.3642C42.0047 54.0637 40.4441 52.7432 38.7734 51.3626V63.8975H43.5553V55.3642Z" fill="#FAFAFA"/>
<path d="M103.46 3.57387L97.5879 0.0524902V23.6117C97.8002 23.4101 98.0006 23.1963 98.1881 22.9715C99.5963 20.9758 101.134 19.0743 102.79 17.2792C103.018 17.0441 103.195 16.7647 103.31 16.4584C103.425 16.1521 103.476 15.8254 103.46 15.4985C103.46 12.4974 103.46 9.49619 103.46 6.49502V3.57387Z" fill="#FAFAFA"/>
<path d="M103.309 28.6038C102.549 29.7442 101.779 30.8146 101.098 31.9451C100.028 33.6858 99.0075 35.4564 97.9771 37.2271C97.6692 37.7725 97.517 38.3919 97.5369 39.0178C97.5369 46.941 97.5369 54.8641 97.5369 62.7872V63.8976H103.399C103.599 60.4062 103.519 29.4941 103.309 28.6038Z" fill="#FAFAFA"/>
<path d="M49.0822 7.56541C49.6563 7.0669 50.17 6.50284 50.6128 5.88476C50.2449 5.23063 49.6453 4.73807 48.9322 4.50422C46.8714 3.63388 44.8106 2.74353 42.7598 1.85319L39.0783 0.242554L38.9883 0.342584L47.4416 9.20606C48.0418 8.61583 48.582 8.10563 49.0822 7.56541Z" fill="#FAFAFA"/>
</svg>
