<svg width="104" height="64" viewBox="0 0 104 64" fill="none" xmlns="http://www.w3.org/2000/svg">
<path d="M56.8397 3C57.6897 3.17 58.5397 3.32002 59.3797 3.52002C61.1534 3.93153 62.8442 4.64162 64.3797 5.62L62.9997 13.13C62.0997 12.71 61.2797 12.29 60.4297 11.96C57.9118 10.8187 55.0577 10.6617 52.4297 11.52C50.3645 12.2796 48.6189 13.7188 47.4795 15.6014C46.3402 17.484 45.8748 19.698 46.1597 21.88C46.4084 24.0012 47.3735 25.9739 48.8954 27.4722C50.4173 28.9705 52.405 29.9046 54.5297 30.12C57.0197 30.36 59.5297 30.25 62.0797 30.29H63.1597C63.1597 30.5 63.1597 30.64 63.1597 30.76L61.7897 37.89C61.7323 37.9337 61.6722 37.9738 61.6097 38.01C57.6097 38.07 53.6097 38.23 49.7197 36.78C45.9402 35.4135 42.7615 32.7617 40.7397 29.2883C38.7178 25.815 37.9816 21.7413 38.6597 17.78C39.8797 10.54 43.9197 5.71003 51.0697 3.66003C52.1297 3.35003 53.2497 3.23002 54.3297 3.02002L56.8397 3Z" fill="#FAFAFA"/>
<path d="M6.75 3.17993H10.54L20.07 24.4L29.68 3.18994H33.4L40.09 37.9899H32.09L29.54 24.7999H29.32L20.04 44.8699C16.88 38.0599 13.82 31.4399 10.75 24.8199H10.52L8 37.9899H0L6.75 3.17993Z" fill="#FAFAFA"/>
<path d="M103.559 37.9999H95.5592L93.0092 24.83L92.7792 24.77C89.7192 31.39 86.6492 38.01 83.4992 44.83C80.3492 38.05 77.2892 31.42 74.2192 24.83H73.9992L71.4492 38.03H63.4492C65.6992 26.41 67.9492 14.8599 70.1992 3.23993H73.9992C77.1292 10.2399 80.2792 17.2399 83.5192 24.4299C86.7892 17.2099 89.9592 10.22 93.1292 3.20996H96.8492C99.0992 14.75 101.319 26.3199 103.559 37.9999Z" fill="#FAFAFA"/>
<path d="M80.6309 41.11L82.4209 44.98C82.3209 45.98 82.1909 46.74 82.1809 47.48C82.1809 49.67 82.1809 51.86 82.1809 54.05C82.1357 54.3475 82.1883 54.6517 82.3307 54.9167C82.4732 55.1818 82.6978 55.3935 82.9709 55.52C83.1678 55.617 83.3861 55.6621 83.6053 55.6512C83.8245 55.6402 84.0373 55.5735 84.2235 55.4573C84.4098 55.3412 84.5633 55.1794 84.6695 54.9874C84.7758 54.7954 84.8314 54.5795 84.8309 54.36C84.8809 51.68 84.8309 49 84.8309 46.36C84.7686 46.014 84.661 45.6778 84.5109 45.36L86.4409 41.22C87.3255 41.467 88.1098 41.9863 88.6825 42.7043C89.2551 43.4224 89.5869 44.3027 89.6309 45.22C89.7309 48.73 89.7709 52.22 89.6309 55.76C89.5309 58.3 87.2709 60.23 84.4609 60.34C83.1965 60.3997 81.9312 60.2407 80.7209 59.87C79.7411 59.5948 78.8809 59.001 78.2761 58.1826C77.6713 57.3641 77.3563 56.3674 77.3809 55.35C77.3009 52.1 77.3209 48.86 77.3809 45.61C77.3762 44.6124 77.6884 43.6391 78.2725 42.8304C78.8566 42.0216 79.6824 41.4192 80.6309 41.11V41.11Z" fill="#FAFAFA"/>
<path d="M75.7104 40.9V45.37H72.0004V59.85H67.1204V45.4H63.4004V40.9H75.7104Z" fill="#FAFAFA"/>
<path d="M103.879 45.1799C103.693 44.0536 103.128 43.0248 102.276 42.2644C101.425 41.504 100.339 41.0578 99.1991 40.9999C96.7191 40.7699 94.1991 40.9999 91.6191 40.9999V59.9199H96.4691V53.5199C97.1291 53.5199 97.6691 53.5199 98.2091 53.5199C99.3407 53.5199 100.448 53.1921 101.397 52.5763C102.347 51.9606 103.098 51.0831 103.559 50.0499C103.729 49.6599 103.849 49.2499 103.999 48.8499V45.4399C103.999 45.3099 103.889 45.2499 103.879 45.1799ZM99.1591 48.1799C98.5391 49.1799 97.5391 48.9599 96.4991 48.9299V45.4299C97.4991 45.3299 98.4991 45.1899 99.1391 46.1099C99.3573 46.4119 99.4764 46.7742 99.48 47.1468C99.4836 47.5193 99.3715 47.8838 99.1591 48.1899V48.1799Z" fill="#FAFAFA"/>
</svg>
