<svg width="104" height="64" viewBox="0 0 104 64" fill="none" xmlns="http://www.w3.org/2000/svg">
<path d="M35.9097 25.2027C32.4755 25.2027 29.7031 26.3826 29.7031 31.1023C29.7031 35.822 32.4755 37.0211 35.9097 37.0211C39.3439 37.0211 42.1163 35.8411 42.1163 31.1023C42.1163 26.3634 39.3439 25.2027 35.9097 25.2027Z" fill="#FAFAFA"/>
<path d="M34.0788 44.1101C32.1603 44.1101 30.5391 44.7816 30.5391 47.4676C30.5391 50.1536 32.1123 50.8347 34.0788 50.8347C36.0454 50.8347 37.5994 50.1632 37.5994 47.4676C37.5994 44.772 36.0166 44.1101 34.0788 44.1101Z" fill="#FAFAFA"/>
<path d="M83.5683 27.5626C81.1126 7.12983 70.3494 1 56.7563 1C54.01 1.03079 51.2692 1.25519 48.5545 1.67151C30.8365 3.82031 17.5216 11.4946 20.3899 35.6302C23.2677 59.9 38.2901 64.1688 55.6436 61.8282C71.5197 59.9096 84 53.3002 84 34.1528C83.9903 31.9494 83.8461 29.7485 83.5683 27.5626V27.5626ZM37.8489 39.074C37.3117 39.2275 37.1198 39.5248 37.187 39.9373C37.3308 40.3882 38.2134 40.7335 39.1535 41.0885L39.4892 41.2515L39.6331 41.3283C41.2159 42.23 42.252 43.9376 42.252 46.9977C42.252 52.2737 39.1535 53.5879 35.3259 53.5879C31.4984 53.5879 28.4191 52.2737 28.4191 46.9977C28.4191 43.1605 30.0787 41.405 32.4769 40.7527C33.8966 40.2251 33.2635 39.5728 32.6975 39.4673C29.1865 39.1411 26.4622 37.1458 25.8098 31.7163C24.9753 24.6655 28.8604 22.4112 34.0405 21.7877C39.2206 21.1642 43.4031 22.2386 44.2665 29.366C45.0435 35.6397 42.0889 38.1722 37.8489 39.1028V39.074ZM60.6318 30.7474C60.6318 37.4144 58.1185 39.4577 53.159 39.4577C48.5928 39.4577 45.926 37.4144 45.926 30.7474V22.6031H48.967V31.3134C49.0917 35.9659 51.4611 36.7525 53.7634 36.7525C56.8906 36.7525 58.4639 35.352 58.3296 30.3541V22.6031H60.6318V30.7474ZM65.4283 39.074H62.9917V17.7875H66.1285L65.4283 39.074ZM70.5413 39.074H68.4788L68.6131 17.0776H71.6924L70.5413 39.074ZM76.297 39.074H73.6973L74.2249 22.5647H76.9397L76.297 39.074ZM76.9589 20.5214H74.081V17.7587H77.1603L76.9589 20.5214Z" fill="#FAFAFA"/>
</svg>
