<svg width="104" height="64" viewBox="0 0 104 64" fill="none" xmlns="http://www.w3.org/2000/svg">
<path d="M98.8227 13C98.9427 13.9999 99.0627 14.9299 99.1926 15.8898C99.4726 17.9497 99.7626 20.0096 100.043 22.0694C100.323 24.1293 100.633 26.429 100.933 28.5988C101.232 30.7687 101.552 33.2286 101.872 35.5384C102.192 37.8482 102.502 40.1381 102.812 42.4479C103.122 44.7577 103.442 47.0475 103.752 49.3573C103.832 49.9073 103.912 50.4573 103.982 51.0072C104.007 51.1023 104.007 51.2021 103.982 51.2972L103.682 50.5073C101.189 43.9811 98.706 37.4549 96.2329 30.9287L89.5134 13.24C89.4854 13.1614 89.4621 13.0813 89.4434 13H98.8227Z" fill="#FAFAFA"/>
<path d="M49.2764 38.1482H57.6258C57.9558 38.1482 57.9558 38.1482 57.9558 38.4882V40.868H42.5769C42.5348 40.8751 42.4918 40.8738 42.4502 40.864C42.4087 40.8542 42.3695 40.8362 42.335 40.811C42.3006 40.7858 42.2715 40.7541 42.2495 40.7175C42.2275 40.6809 42.213 40.6402 42.2069 40.598C41.967 39.8381 41.707 39.0881 41.467 38.3382C41.4547 38.2647 41.4146 38.1989 41.355 38.1542C41.2954 38.1095 41.221 38.0895 41.147 38.0982H35.1475C35.0776 38.0891 35.0069 38.1068 34.9494 38.1476C34.892 38.1884 34.852 38.2493 34.8375 38.3183C34.5975 39.0582 34.3375 39.7881 34.0875 40.5281C34.0875 40.618 34.0175 40.708 33.9576 40.868C33.9076 40.738 33.8676 40.658 33.8376 40.588C33.2676 39.1481 32.6876 37.7183 32.1177 36.2784C32.078 36.1446 32.078 36.0021 32.1177 35.8684L35.5174 26.739C35.5362 26.6711 35.579 26.6124 35.6379 26.5738C35.6967 26.5351 35.7677 26.5193 35.8374 26.5291H40.1071C40.1806 26.5227 40.2539 26.5436 40.3129 26.5879C40.3719 26.6322 40.4126 26.6967 40.4271 26.7691L44.4268 37.5783C44.4561 37.6533 44.5042 37.7195 44.5665 37.7706C44.6288 37.8216 44.7032 37.8559 44.7825 37.8699C44.8618 37.884 44.9434 37.8774 45.0194 37.8509C45.0955 37.8243 45.1634 37.7786 45.2167 37.7182C46.5033 36.3183 47.7899 34.9151 49.0764 33.5086L52.9562 29.2789L53.1661 29.0389H44.9867V26.5491H45.2267H57.6258C57.8658 26.5491 57.9158 26.619 57.9158 26.849C57.9158 27.479 57.9158 28.1189 57.9158 28.7489C57.9101 28.881 57.8609 29.0076 57.7758 29.1089C55.7759 31.2587 53.6961 33.3986 51.6563 35.5484C50.8963 36.3384 50.1464 37.1383 49.3864 37.9383L49.2764 38.1482ZM37.9973 30.0088L35.9274 35.3684H40.1371L37.9973 30.0088Z" fill="#FAFAFA"/>
<path d="M5.99956 31.4887L0 15.6899H21.2384C21.82 15.6881 22.3895 15.8553 22.8777 16.1713C23.3659 16.4873 23.7517 16.9384 23.9882 17.4697C24.2306 17.9331 24.4185 18.423 24.5482 18.9296C24.7782 19.6896 24.9582 20.4695 25.1782 21.3095H23.6483H15.1689C14.249 21.3095 13.319 21.3795 12.3991 21.3095C11.2295 21.2504 10.0665 21.5169 9.03934 22.0794C8.39416 22.3749 7.81743 22.8011 7.34578 23.3313C6.87413 23.8615 6.51785 24.484 6.29954 25.1592C6.15976 25.6639 6.08912 26.1854 6.08955 26.7091C6.08955 28.189 6.08955 29.7088 6.08955 31.1487V31.4287L5.99956 31.4887Z" fill="#FAFAFA"/>
<path d="M9.49023 40.628C9.74859 40.8469 10.0477 41.0126 10.3703 41.1156C10.6929 41.2186 11.0327 41.2567 11.3701 41.2279C15.3198 41.2279 19.2695 41.2279 23.2292 41.2279C24.092 41.2474 24.9462 41.0531 25.7156 40.6623C26.485 40.2714 27.1458 39.6963 27.6389 38.9881C28.5994 37.6547 29.1799 36.0858 29.3188 34.4485C29.3788 33.8785 29.3988 33.3086 29.4688 32.7086C31.1886 37.3483 32.8985 41.9779 34.6284 46.7076H13.8599C13.1968 46.7097 12.5561 46.4676 12.06 46.0276C11.3197 45.3744 10.7441 44.5555 10.3802 43.6377C9.98903 42.7745 9.70042 41.8684 9.52023 40.938C9.51023 40.828 9.51023 40.7679 9.49023 40.628Z" fill="#FAFAFA"/>
<path d="M98.4824 40.918H95.0926C95.0565 40.9252 95.0193 40.9253 94.9832 40.9182C94.947 40.9111 94.9126 40.8969 94.882 40.8765C94.8513 40.856 94.825 40.8297 94.8045 40.7991C94.784 40.7684 94.7698 40.7341 94.7626 40.698C94.4927 39.9081 94.2027 39.1181 93.9327 38.3282C93.9183 38.2645 93.8805 38.2086 93.8267 38.1716C93.773 38.1345 93.7073 38.119 93.6427 38.1281H87.7932C87.7245 38.1193 87.6551 38.1372 87.5992 38.1782C87.5434 38.2191 87.5054 38.2799 87.4932 38.3481C87.2432 39.138 86.9832 39.9181 86.7232 40.708C86.7232 40.838 86.6432 40.928 86.4732 40.928H82.9935H82.8535C82.8535 40.848 82.8535 40.768 82.9235 40.698C84.71 36.0317 86.4999 31.3953 88.2931 26.789C88.3124 26.7006 88.3643 26.6228 88.4384 26.5709C88.5125 26.519 88.6034 26.4969 88.6931 26.509C90.053 26.509 91.4029 26.509 92.7628 26.509C92.847 26.4998 92.9316 26.5224 93.0001 26.5723C93.0685 26.6223 93.1158 26.696 93.1328 26.779C94.8993 31.412 96.6658 36.0417 98.4324 40.668C98.453 40.7505 98.4697 40.8339 98.4824 40.918V40.918ZM90.6929 30.1487H90.6229L88.6231 35.4084H92.8328L90.6929 30.1487Z" fill="#FAFAFA"/>
<path d="M70.3662 32.3486V34.7885H63.2568C63.0068 34.7885 62.9468 34.8584 62.9568 35.0984C62.9568 36.0383 62.9568 36.9783 62.9568 37.9182V38.1982H63.2768C65.9866 38.1982 68.7064 38.1982 71.4262 38.1982C71.6962 38.1982 71.7761 38.2882 71.7761 38.5382C71.7761 39.2981 71.7761 40.058 71.7761 40.8479H59.707V26.5291H71.8161V29.1989H62.9268V32.3586L70.3662 32.3486Z" fill="#FAFAFA"/>
<path d="M85.5432 26.519V29.0389H80.8936V40.878H80.7236H77.7238C77.4738 40.878 77.5138 40.7181 77.5138 40.5781V29.0589H72.9941V26.489L85.5432 26.519Z" fill="#FAFAFA"/>
<path d="M27.7196 28.0089H15.4205C15.3011 27.9992 15.1812 28.0162 15.0692 28.0584C14.9572 28.1007 14.856 28.1672 14.7728 28.2533C14.6896 28.3393 14.6265 28.4427 14.5881 28.5561C14.5497 28.6694 14.5368 28.7899 14.5505 28.9088C14.5505 30.3087 14.5505 31.7186 14.5505 33.1185C14.5505 33.7284 14.8405 33.9984 15.4504 33.9984H23.6099C23.6099 34.5284 23.6099 34.9984 23.6099 35.5183C23.5932 35.6674 23.527 35.8066 23.4218 35.9136C23.3167 36.0205 23.1787 36.089 23.0299 36.1083C22.9037 36.123 22.7762 36.123 22.6499 36.1083H12.6507C12.4237 36.1029 12.2012 36.0448 12.0007 35.9384C11.8461 35.8631 11.7166 35.7446 11.6279 35.5973C11.5391 35.45 11.495 35.2802 11.5007 35.1083C11.5007 35.0083 11.5007 34.9084 11.5007 34.8084V27.549C11.4947 27.3288 11.5252 27.1092 11.5907 26.899C11.655 26.7017 11.779 26.5294 11.9457 26.4057C12.1123 26.2821 12.3132 26.2134 12.5207 26.2091H26.7696C26.8637 26.1947 26.9597 26.2182 27.0365 26.2744C27.1134 26.3306 27.1648 26.4149 27.1796 26.509C27.3396 27.009 27.5296 27.4789 27.7196 28.0089Z" fill="#FAFAFA"/>
</svg>
