<svg width="104" height="64" viewBox="0 0 104 64" fill="none" xmlns="http://www.w3.org/2000/svg">
<path d="M78.9991 31C78.8099 31.0052 78.6304 31.0848 78.4994 31.2214C78.3684 31.358 78.2964 31.5407 78.2991 31.73C78.2965 31.8246 78.3124 31.9187 78.3462 32.0071C78.3799 32.0955 78.4308 32.1763 78.4958 32.2451C78.5608 32.3138 78.6387 32.369 78.7251 32.4076C78.8114 32.4462 78.9046 32.4674 78.9991 32.47C79.0924 32.4674 79.1842 32.4465 79.2693 32.4084C79.3545 32.3703 79.4313 32.3158 79.4954 32.248C79.5595 32.1802 79.6096 32.1004 79.6428 32.0133C79.676 31.9261 79.6918 31.8333 79.6891 31.74C79.6945 31.5507 79.6252 31.3669 79.496 31.2284C79.3669 31.0899 79.1883 31.0078 78.9991 31V31ZM79.2091 32.23C79.1763 32.1538 79.156 32.0727 79.1491 31.99C79.1481 31.9645 79.1416 31.9395 79.1301 31.9166C79.1186 31.8938 79.1024 31.8737 79.0825 31.8576C79.0627 31.8415 79.0396 31.8298 79.0149 31.8233C78.9901 31.8169 78.9643 31.8157 78.9391 31.82H78.8391V32.23H78.6791V31.23H78.9491C79.054 31.2212 79.159 31.2457 79.2491 31.3C79.2814 31.3221 79.3076 31.3521 79.3251 31.3871C79.3426 31.4221 79.3508 31.4609 79.3491 31.5C79.3463 31.5563 79.3253 31.6101 79.2892 31.6534C79.2531 31.6967 79.204 31.7271 79.1491 31.74V31.74C79.2391 31.74 79.2991 31.83 79.3091 31.98C79.3229 32.0582 79.3429 32.1351 79.3691 32.21L79.2091 32.23Z" fill="#FAFAFA"/>
<path d="M79.0006 32H78.8906V32.32H79.0006C79.1306 32.32 79.2306 32.32 79.2306 32.16C79.2306 32 79.1206 32 79.0006 32Z" fill="#FAFAFA"/>
<path d="M20 1V62.74H84V1H20ZM24.15 5.17999L31.36 12.39V13.87H25.65V16.16H31.36V17.7H25.65V20.7L24.15 19.2V12.48H29.28L24.15 7.34998V5.17999ZM24.15 26.93H26.62V33.48H28.91V26.93L31.37 29.4V33.48H33.66V26.93H36.12V35.93H26.6L24.14 33.46L24.15 26.93ZM36.15 58.56H26.65L24.18 56.1V49.55H26.65V56.1H28.94V49.55L31.4 52.01V56.1H36.15V58.56ZM36.15 45.07L33.69 47.53H24.19V45.07H33.69V40.65H24.19V38.18H36.19L36.15 45.07ZM36.15 24.84H24.15V22.37H33.65V14.68L36.12 17.15L36.15 24.84ZM39.49 30.47L64.79 5.17999V20.76L39.49 46.05V30.47ZM41.86 48.42L74.94 15.33V30.87L49.65 56.16L41.86 48.42ZM52 58.56L64.78 45.78L77.56 58.56H52ZM79 58.56C78.8862 58.56 78.7736 58.5374 78.6686 58.4936C78.5636 58.4497 78.4683 58.3855 78.3883 58.3046C78.3083 58.2237 78.2452 58.1277 78.2026 58.0222C78.1599 57.9167 78.1387 57.8038 78.14 57.69C78.1387 57.5762 78.1599 57.4633 78.2026 57.3578C78.2452 57.2523 78.3083 57.1563 78.3883 57.0754C78.4683 56.9945 78.5636 56.9303 78.6686 56.8864C78.7736 56.8426 78.8862 56.82 79 56.82C79.1129 56.8213 79.2245 56.8449 79.3284 56.8893C79.4322 56.9337 79.5263 56.9982 79.6052 57.0789C79.6841 57.1597 79.7464 57.2553 79.7884 57.3601C79.8304 57.465 79.8513 57.5771 79.85 57.69C79.8513 57.8025 79.8303 57.9141 79.7882 58.0183C79.7461 58.1226 79.6837 58.2175 79.6046 58.2975C79.5255 58.3775 79.4314 58.441 79.3276 58.4843C79.2238 58.5277 79.1125 58.55 79 58.55V58.56Z" fill="#FAFAFA"/>
</svg>
