<svg width="104" height="64" viewBox="0 0 104 64" fill="none" xmlns="http://www.w3.org/2000/svg">
<path d="M103.67 19.23C103.411 18.6459 103.01 18.1359 102.503 17.7464C101.997 17.3569 101.401 17.1003 100.77 17H3.13C2.4165 17.0883 1.75035 17.4039 1.23 17.9C0.527567 18.5254 0.0880807 19.3937 0 20.33V43.23C0.0753263 43.6875 0.195919 44.1364 0.360001 44.57C0.611983 45.1402 1.01009 45.6338 1.51405 46.0008C2.01801 46.3678 2.60995 46.5952 3.23 46.66H100.77C101.18 46.6278 101.578 46.5118 101.941 46.3191C102.304 46.1264 102.624 45.8613 102.88 45.54C103.572 44.8041 103.971 43.8399 104 42.83V20.83C103.98 20.282 103.868 19.7413 103.67 19.23V19.23ZM18.58 23.7C18.58 24.61 18.42 24.77 17.52 24.77H9.89C9.14 24.77 8.99 24.92 8.99 25.66C8.99 26.4 8.99 27.41 8.99 28.28C8.99 28.65 9.09 28.71 9.44 28.71H17.51C17.7406 28.7158 17.9694 28.7528 18.19 28.82C18.3098 28.8481 18.4157 28.9179 18.4889 29.0167C18.5622 29.1156 18.598 29.2373 18.59 29.36C18.59 30.47 18.59 31.58 18.59 32.69C18.59 33.13 18.26 33.35 17.64 33.35H14.91C13.08 33.35 11.25 33.35 9.41 33.35C9.08 33.35 9 33.44 9 33.77C9 36.63 9 39.48 9 42.34C9 43.23 8.78 43.45 7.89 43.45H4.71C4.15 43.45 3.95 43.25 3.95 42.67V33.67C3.95 30.72 3.95 27.76 3.95 24.8C3.93433 24.1912 4.04436 23.5858 4.2732 23.0214C4.50204 22.4571 4.84477 21.946 5.28 21.52C6.02976 20.8543 6.97958 20.4568 7.98 20.39C11.2045 20.1584 14.4387 20.0916 17.67 20.19C18.22 20.19 18.67 20.42 18.59 21.13C18.53 21.95 18.58 22.83 18.58 23.7ZM25.75 42.93C25.7162 43.0847 25.6255 43.221 25.4958 43.3118C25.3661 43.4026 25.2069 43.4413 25.05 43.42H21.42C20.95 43.42 20.8 43.14 20.8 42.71V31.83C20.8 28.25 20.8 24.67 20.8 21.09C20.781 20.9719 20.7894 20.8509 20.8246 20.7365C20.8598 20.6221 20.9208 20.5174 21.003 20.4304C21.0852 20.3433 21.1863 20.2764 21.2985 20.2347C21.4107 20.1931 21.5309 20.1777 21.65 20.19C22.75 20.19 23.84 20.19 24.93 20.19C25.51 20.19 25.79 20.53 25.86 21.19C25.86 21.29 25.86 21.4 25.86 21.5V42.27C25.8481 42.4934 25.8112 42.7148 25.75 42.93V42.93ZM44.43 37.93C44.5049 39.1704 44.1152 40.3943 43.3369 41.363C42.5586 42.3318 41.4474 42.976 40.22 43.17C39.6081 43.3193 38.9797 43.3899 38.35 43.38H29.35C28.63 43.38 28.45 43.2 28.45 42.51V39.64C28.45 39.04 28.66 38.84 29.26 38.84H37.84C38.2158 38.8174 38.588 38.7537 38.95 38.65C39.23 38.65 39.23 38.46 39.26 38.24C39.3533 37.0558 39.3866 35.8676 39.36 34.68C39.36 33.68 39.43 33.26 37.97 33.29C36.71 33.29 35.44 33.29 34.19 33.29C32.9707 33.3088 31.7643 33.038 30.67 32.5C29.9035 32.1352 29.2582 31.5574 28.8113 30.8357C28.3644 30.1139 28.1349 29.2788 28.15 28.43C28.15 27.23 28.15 26.04 28.15 24.85C28.1664 23.9442 28.4557 23.0644 28.9803 22.3257C29.5049 21.5871 30.2402 21.0239 31.09 20.71C32.0349 20.3742 33.0275 20.1919 34.03 20.17C36.85 20.01 39.67 20.17 42.49 20.09C43.38 20.09 43.6 20.31 43.6 21.19C43.6 22.07 43.55 22.9 43.6 23.76C43.65 24.62 43.17 24.76 42.6 24.76H38.41C36.93 24.76 35.41 24.76 33.96 24.76C33.48 24.76 33.15 24.89 33.11 25.4C33.045 26.3189 33.045 27.2412 33.11 28.16C33.11 28.56 33.44 28.71 33.85 28.71C35.07 28.71 36.31 28.64 37.53 28.71C38.4872 28.7031 39.4425 28.7969 40.38 28.99C41.1097 29.1655 41.7958 29.4885 42.396 29.9391C42.9962 30.3897 43.4978 30.9583 43.87 31.61C44.2187 32.3152 44.3935 33.0935 44.38 33.88C44.45 35.25 44.44 36.61 44.43 37.98V37.93ZM63.01 31.83V42.47C63.01 43.21 62.84 43.38 62.11 43.38C61.11 43.38 60.02 43.38 58.98 43.38C58.27 43.38 57.98 43.18 57.98 42.38C57.98 39.7133 57.98 37.0467 57.98 34.38C57.98 33.96 58.17 33.38 57.9 33.18C57.63 32.98 57.13 33.11 56.73 33.11C55.16 33.11 53.6 33.11 52.03 33.11C51.7 33.11 51.62 33.2 51.62 33.53C51.62 36.5234 51.62 39.5234 51.62 42.53C51.62 43.27 51.44 43.44 50.71 43.44C49.64 43.44 48.56 43.44 47.48 43.44C46.88 43.44 46.64 43.15 46.57 42.54C46.565 42.4568 46.565 42.3733 46.57 42.29V21.36C46.57 20.42 46.86 20.13 47.78 20.13H50.61C51.37 20.13 51.61 20.38 51.61 21.13C51.61 23.4433 51.61 25.7467 51.61 28.04C51.61 28.41 51.68 28.52 52.07 28.51C53.9 28.51 55.74 28.51 57.57 28.51C57.89 28.51 57.99 28.43 57.99 28.1C57.99 25.81 57.99 23.53 57.99 21.24C57.99 20.33 58.2 20.17 59.1 20.14C60 20.11 60.99 20.14 61.93 20.14C62.87 20.14 63.05 20.46 63.04 21.24C63 24.83 63 28.34 63 31.88L63.01 31.83ZM98.35 43.39C88.1567 43.39 77.9733 43.39 67.8 43.39C67.5671 43.4098 67.3327 43.3802 67.112 43.3032C66.8914 43.2261 66.6895 43.1033 66.5196 42.9428C66.3497 42.7823 66.2155 42.5878 66.126 42.3719C66.0365 42.156 65.9935 41.9236 66 41.69C66 35.15 66 28.6134 66 22.08C65.986 21.7017 66.0796 21.3272 66.27 21C66.3838 20.7613 66.5643 20.5606 66.7897 20.4222C67.015 20.2838 67.2756 20.2136 67.54 20.22C72.67 20.22 77.8 20.22 82.93 20.22H98.38C98.5992 20.1886 98.8227 20.2084 99.0329 20.278C99.2431 20.3476 99.4343 20.4651 99.5913 20.6212C99.7484 20.7773 99.867 20.9677 99.938 21.1775C100.009 21.3873 100.03 21.6106 100 21.83C100 28.5 100 35.18 100 41.83C99.9896 42.2607 99.8111 42.6701 99.5028 42.9709C99.1945 43.2718 98.7808 43.4401 98.35 43.44V43.39Z" fill="#FAFAFA"/>
<path d="M88.7394 37.0599C89.3194 34.8899 89.8894 32.7599 90.4694 30.6299C91.0494 28.4999 91.6894 26.1799 92.2794 23.9499C92.2903 23.857 92.3199 23.7673 92.3666 23.6862C92.4132 23.6052 92.4759 23.5344 92.5507 23.4783C92.6255 23.4222 92.7109 23.3819 92.8018 23.3598C92.8927 23.3377 92.9871 23.3344 93.0794 23.3499C94.0794 23.3499 95.0794 23.3499 96.0094 23.3499C96.6694 23.3499 96.8194 23.5799 96.6494 24.2099C95.9594 26.6599 95.2894 29.1199 94.6494 31.5799C94.0794 33.5799 93.4994 35.6699 92.9094 37.7199C92.7301 38.6713 92.2785 39.5502 91.6094 40.2499C90.9911 40.8598 90.1672 41.2165 89.2994 41.2499C88.5251 41.3334 87.7418 41.2551 86.9994 41.0199C86.4917 40.8229 86.0358 40.5122 85.6666 40.1118C85.2974 39.7114 85.0247 39.2319 84.8694 38.7099C84.2494 36.7099 83.7094 34.7099 83.1394 32.7099C82.6694 31.0699 82.1394 29.4299 81.7394 27.7899C81.7312 27.721 81.7087 27.6545 81.6733 27.5947C81.638 27.5349 81.5906 27.4831 81.5341 27.4426C81.4777 27.4022 81.4134 27.3739 81.3455 27.3597C81.2775 27.3454 81.2073 27.3456 81.1394 27.3599C80.2594 27.3599 79.3894 27.3599 78.5094 27.3599C78.0694 27.3599 77.9794 27.5099 77.9794 27.9099C77.9794 32.0299 77.9794 36.1499 77.9794 40.2699C77.9794 40.8999 77.7994 41.0899 77.1494 41.0899H74.5994C73.8894 41.0899 73.8094 40.9999 73.8094 40.2899C73.8094 36.1699 73.8094 32.0499 73.8094 27.9299C73.8094 27.4799 73.6394 27.3599 73.2294 27.3699C72.1594 27.3699 71.0794 27.3699 69.9994 27.3699C69.4994 27.3699 69.3594 27.1599 69.3594 26.7199C69.3594 25.8499 69.3594 24.9699 69.3594 24.0999C69.3594 23.5799 69.5094 23.4299 70.0294 23.4299H77.0994C79.5094 23.4299 81.9094 23.4299 84.3194 23.4299C84.412 23.4172 84.5062 23.423 84.5966 23.4469C84.6869 23.4707 84.7717 23.5121 84.8461 23.5688C84.9204 23.6255 84.9828 23.6963 85.0297 23.7771C85.0766 23.858 85.1071 23.9473 85.1194 24.0399C85.6094 25.8899 86.1194 27.7399 86.6194 29.5899C87.2394 31.8599 87.8394 34.1299 88.4694 36.3999C88.5164 36.6351 88.6081 36.8591 88.7394 37.0599V37.0599Z" fill="#FAFAFA"/>
</svg>
