<svg width="104" height="64" viewBox="0 0 104 64" fill="none" xmlns="http://www.w3.org/2000/svg">
<path fill-rule="evenodd" clip-rule="evenodd" d="M39.4782 21.1919H104.001V42.7601C103.946 42.7654 103.89 42.7724 103.835 42.7795C103.722 42.7938 103.61 42.8081 103.498 42.8081H39.9963C39.6381 42.8081 39.459 42.6354 39.459 42.2899V21.5405C39.459 21.4633 39.4647 21.3846 39.4705 21.3064L39.4705 21.3062L39.4705 21.3061L39.4705 21.3059L39.4705 21.3057L39.4705 21.3055L39.4705 21.3054L39.4705 21.3052C39.4733 21.2672 39.4761 21.2294 39.4782 21.1919ZM45.5985 30.3636L45.5984 30.3637C45.3109 30.5425 45.0272 30.719 44.7559 30.9125C43.8763 31.549 43.1086 32.2975 42.7631 33.3562C42.1042 35.3713 43.067 37.7831 44.9222 38.8578C46.5119 39.779 48.22 39.8206 49.928 39.3952C50.5126 39.2479 51.067 38.9753 51.64 38.6936C51.9009 38.5653 52.1657 38.4351 52.4389 38.314C52.4777 38.3632 52.5256 38.421 52.5791 38.4853C52.6889 38.6175 52.8217 38.7774 52.9443 38.9474C53.1106 39.1777 53.2994 39.2736 53.5968 39.2704C54.5628 39.2598 55.5303 39.2605 56.4972 39.2612H56.4973H56.4974H56.4975H56.4976H56.4977H56.4978H56.4979C56.9811 39.2615 57.4642 39.2619 57.9469 39.2608C58.0225 39.2608 58.098 39.2547 58.1928 39.2469L58.1929 39.2469L58.1933 39.2469C58.2509 39.2422 58.3155 39.2369 58.3916 39.232L57.3217 37.9486C56.6119 37.097 55.9165 36.2626 55.2153 35.4225C56.1877 34.3158 56.8082 33.0811 57.013 31.6034C56.7459 31.6034 56.4822 31.603 56.2212 31.6027C55.3191 31.6016 54.4484 31.6006 53.5776 31.613C53.4817 31.613 53.3569 31.7505 53.2994 31.8529C53.1877 32.0516 53.0901 32.2582 52.9836 32.4834C52.9376 32.5808 52.8899 32.6816 52.8388 32.7869C52.4197 32.2655 52.0647 31.8241 51.6905 31.3603L51.8139 31.2813L51.814 31.2812C51.9094 31.2201 51.9935 31.1662 52.0775 31.114C52.7716 30.679 53.3537 30.1288 53.8271 29.4603C54.969 27.8514 54.7963 24.9695 52.5125 23.8915C50.7245 23.0471 48.8597 22.9511 47.0365 23.8467C45.4084 24.6464 44.6151 26.1753 44.8678 27.9665C44.9862 28.8046 45.4372 29.4891 45.9714 30.1288L45.9777 30.1256C45.8511 30.2065 45.7245 30.2853 45.5985 30.3636ZM63.9987 31.421C64.2482 30.5606 64.4081 30.2663 64.8783 30.0265C65.9467 29.4827 67.0438 29.4987 68.1217 29.9881C68.5887 30.1992 68.8542 30.7621 68.7966 31.2547C68.7327 31.8081 68.432 32.1695 67.885 32.2847C67.5541 32.3546 67.2198 32.4101 66.8854 32.4655C66.6542 32.5039 66.4231 32.5422 66.193 32.5853C65.8842 32.6432 65.572 32.6909 65.2598 32.7386C64.5369 32.8491 63.8142 32.9595 63.1351 33.1963C61.008 33.9447 60.3395 36.574 61.7821 38.2917C62.5465 39.2001 63.5989 39.5263 64.7472 39.5615C66.2505 39.6063 67.6387 39.2448 68.8446 38.2597C69.0525 39.0529 69.5707 39.5103 70.3512 39.5295C70.8199 39.5441 71.2905 39.472 71.7602 39.4L71.7603 39.4L71.7604 39.4L71.7605 39.4L71.7607 39.3999L71.7608 39.3999L71.7609 39.3999C71.9095 39.3771 72.058 39.3544 72.2063 39.3344C72.2767 39.3248 72.3855 39.2001 72.3887 39.1233C72.4011 38.7139 72.4 38.3027 72.3989 37.885V37.8848V37.8847V37.8845V37.8844V37.8842V37.8841V37.8832C72.3986 37.763 72.3983 37.6422 72.3983 37.5208C72.3522 37.5208 72.3127 37.5199 72.2774 37.5191H72.2774C72.2172 37.5178 72.1696 37.5168 72.1232 37.5208C71.3683 37.5912 71.2212 37.46 71.2116 36.702V36.3885V30.9988C71.2116 29.7674 70.6774 28.859 69.5899 28.2704C68.7199 27.8002 67.7763 27.6339 66.8007 27.6243C65.534 27.6115 64.293 27.7394 63.1831 28.4207C62.0731 29.0989 61.555 30.116 61.4942 31.421H63.9987ZM97.0947 28.2512C98.2275 28.8575 98.8287 29.8139 98.9999 31.1364L98.5791 31.1365C97.8819 31.137 97.2089 31.1374 96.5382 31.1268C96.455 31.1236 96.3239 31.018 96.3015 30.9349C96.0776 30.1544 95.4954 29.8089 94.7565 29.6842C94.0784 29.5691 93.4035 29.6042 92.7542 29.8665C92.3864 30.0201 92.0985 30.2536 92.0665 30.6854C92.0345 31.1204 92.2168 31.4786 92.6071 31.6417C93.202 31.888 93.8161 32.1055 94.4431 32.2623C94.7032 32.3275 94.9642 32.3874 95.225 32.4471L95.2251 32.4472C96.1023 32.6483 96.9763 32.8487 97.8048 33.2506C99.9063 34.2774 99.7464 37.2329 98.1822 38.41C97.1715 39.1713 96.0136 39.4815 94.7853 39.5519C93.4931 39.6255 92.2296 39.4751 91.0749 38.8226C89.9074 38.1637 89.1654 36.8235 89.3125 35.576L89.6995 35.5759H89.6996H89.6997H89.6997H89.6998H89.6999H89.6999H89.7C90.3459 35.5754 90.994 35.575 91.6443 35.5856C91.7051 35.5888 91.8042 35.7104 91.8202 35.7871C92.0569 36.9642 92.8693 37.4728 93.9761 37.5048C94.6414 37.524 95.3227 37.3992 95.9752 37.2521C96.4454 37.1466 96.7557 36.7755 96.8132 36.2733C96.8708 35.7712 96.6501 35.3649 96.2151 35.1346C95.8313 34.9299 95.409 34.7668 94.9868 34.6548C94.4894 34.5253 93.9881 34.4101 93.4867 34.295L93.4866 34.295C92.9852 34.1798 92.4839 34.0647 91.9865 33.9352C91.6379 33.8456 91.302 33.6825 90.9854 33.5065C89.0438 32.4414 88.9511 29.6778 90.819 28.4847C92.0121 27.7235 93.3523 27.5795 94.7309 27.6403C95.5626 27.6755 96.3558 27.8546 97.0947 28.2512ZM83.1168 29.8569V30.3463C83.1168 30.8996 83.1163 31.4532 83.1157 32.0069V32.0072V32.0075V32.0079V32.0082V32.0085V32.0089V32.0092C83.1144 33.3944 83.1131 34.7803 83.12 36.1646C83.12 36.5932 83.152 37.0218 83.2128 37.4472C83.3311 38.3044 83.7789 38.9218 84.6361 39.1745C85.7109 39.4911 86.7952 39.4016 87.8923 39.2225V37.2873C87.8093 37.2931 87.7287 37.2996 87.6497 37.3059L87.6495 37.306C87.4699 37.3203 87.2989 37.334 87.1279 37.3385C85.922 37.3609 85.6757 37.1178 85.6725 35.9183V30.2568V29.8345H87.8891V27.9186H85.6533V24.5408C85.3877 24.5408 85.1273 24.5412 84.87 24.5416C84.3652 24.5423 83.8728 24.543 83.3791 24.5408C83.136 24.5408 83.1104 24.6784 83.1136 24.8703C83.1179 25.252 83.1164 25.6337 83.115 26.0154C83.1143 26.2062 83.1136 26.3971 83.1136 26.5879V27.9346C82.9578 27.9346 82.8063 27.9357 82.6581 27.9367C82.298 27.9393 81.9565 27.9418 81.6166 27.9282C81.3352 27.9154 81.2104 27.9953 81.2264 28.296C81.2488 28.699 81.2456 29.1021 81.2264 29.5051C81.2136 29.7802 81.3096 29.8729 81.5847 29.8633C81.9407 29.8518 82.2985 29.8536 82.6724 29.8555H82.6726H82.6728H82.673H82.6733H82.6735C82.8165 29.8562 82.9618 29.8569 83.1104 29.8569H83.1168ZM80.2285 30.068V27.7011C79.336 27.5731 78.5076 27.6147 77.7303 28.0593C76.9819 28.4879 76.4125 29.0829 76.0223 29.8633C75.9935 29.3164 75.9839 28.7822 75.9967 28.248C76.0031 28.0113 75.9263 27.925 75.6864 27.9314C75.1395 27.9442 74.5893 27.9538 74.0423 27.9314C73.7033 27.9154 73.5977 28.0049 73.5977 28.36C73.6084 31.2789 73.608 34.1979 73.6075 37.1169L73.6073 38.8674C73.6073 38.9472 73.6119 39.0255 73.6169 39.1097V39.1098C73.6191 39.147 73.6214 39.1854 73.6233 39.2257H76.1534V38.7746C76.1534 38.3366 76.1529 37.8983 76.1524 37.4598V37.4595V37.4591V37.4588V37.4585V37.4581C76.1511 36.3605 76.1498 35.2622 76.1566 34.1655C76.1598 33.6985 76.1918 33.2283 76.2558 32.7677C76.4413 31.3827 77.3753 30.3207 78.6771 30.0904C79.0099 30.0317 79.3559 30.0469 79.7143 30.0627C79.883 30.0701 80.0544 30.0776 80.2285 30.0776V30.068ZM29.2812 39.4688H29.278V38.9698C29.278 38.4298 29.2773 37.8898 29.2766 37.3498C29.2747 35.9099 29.2728 34.4699 29.2844 33.03C29.2908 32.5662 29.326 32.0928 29.4219 31.6386C29.6363 30.615 30.3559 29.9145 31.7697 30.0489C32.7997 30.1448 33.3914 30.7589 33.4074 31.9072C33.432 33.5663 33.4347 35.2254 33.4374 36.8844C33.4386 37.5955 33.4397 38.3066 33.4426 39.0178V39.472H36.5804C36.5868 39.4452 36.5937 39.4236 36.5996 39.4048C36.6087 39.3763 36.6156 39.3543 36.6156 39.3312C36.6156 38.5596 36.6191 37.7879 36.6226 37.0164C36.6311 35.1173 36.6396 33.2188 36.5964 31.3219C36.5516 29.326 35.5761 28.1457 33.7305 27.7011C32.2623 27.3492 30.8805 27.5252 29.697 28.5615C29.4981 28.7346 29.2967 28.9052 29.0982 29.0733L29.0979 29.0735L29.0978 29.0736L29.0974 29.074L29.0972 29.0742L29.0971 29.0742C28.9768 29.1761 28.8576 29.2771 28.7406 29.3771C28.1137 27.9857 26.8471 27.5763 25.3853 27.5539C23.8852 27.5315 22.7401 28.2544 21.8348 29.4283L21.7421 29.3675V27.8898H18.793V39.4688H21.9308V39.0178C21.9308 38.4578 21.9301 37.8975 21.9294 37.3372V37.3368V37.3365V37.3362V37.3359V37.3355V37.3352V37.3349V37.3339V37.3336V37.3333V37.333V37.3327V37.3324V37.3321C21.9275 35.8362 21.9256 34.3394 21.9372 32.8444C21.9404 32.419 21.9756 31.9776 22.0939 31.5746C22.433 30.4199 23.4214 29.8793 24.7392 30.0744C25.5964 30.2024 26.073 30.8837 26.0826 32.0704C26.0975 33.8641 26.0989 35.6559 26.1003 37.4488V37.4491V37.4494C26.1007 37.9614 26.1011 38.4735 26.1018 38.9858V39.4688H29.278V39.4752L29.2812 39.4688ZM7.03331 25.7652C7.18709 25.7655 7.34648 25.7659 7.51426 25.7659C7.51426 25.6064 7.51477 25.4465 7.51528 25.2865V25.2862V25.286V25.2858V25.2856V25.2853V25.2851V25.2851V25.2851V25.2851V25.285V25.285V25.285C7.51698 24.749 7.5187 24.2106 7.50147 23.674C7.50147 23.6004 7.31595 23.4789 7.21039 23.4757C7.07773 23.4708 6.94484 23.4651 6.81182 23.4593C6.24249 23.4346 5.67095 23.4098 5.10571 23.4565C4.03737 23.5461 3.12897 23.9779 2.51483 24.9087C1.99346 25.6955 1.9103 26.5783 1.94548 27.4836C1.95508 27.7714 1.86872 27.8738 1.57125 27.861C1.21731 27.8453 0.863366 27.8485 0.492945 27.8517H0.492937H0.492927H0.492918H0.492909H0.492899H0.49289C0.334415 27.8532 0.172924 27.8546 0.0071253 27.8546C0.0071253 28.0324 0.0082095 28.2057 0.00927326 28.3756C0.0118638 28.7896 0.014333 29.1841 0.000728084 29.5786C-0.00886774 29.8633 0.0742961 29.9753 0.374965 29.9625C0.728924 29.9468 1.08288 29.9499 1.45332 29.9532L1.4536 29.9532C1.61198 29.9546 1.77338 29.9561 1.93909 29.9561V30.9317V38.9346C1.93909 38.9916 1.93855 39.0427 1.93806 39.0887C1.93594 39.2903 1.93487 39.3916 1.98499 39.4419C2.03563 39.4928 2.13851 39.4916 2.34532 39.4892L2.34565 39.4892H2.34566H2.34568H2.3457H2.34573C2.39577 39.4886 2.4519 39.4879 2.51483 39.4879C2.9938 39.4901 3.47135 39.4894 3.94936 39.4886H3.94972H3.95007H3.95042H3.95078H3.95113H3.95148C4.19102 39.4883 4.43068 39.4879 4.6707 39.4879C4.76419 39.4879 4.85768 39.482 4.96523 39.4752C5.0159 39.472 5.0697 39.4686 5.1281 39.4655V29.9753C5.19743 29.9727 5.25981 29.969 5.31807 29.9655L5.3181 29.9655C5.40229 29.9605 5.4779 29.9561 5.55351 29.9561C5.71878 29.955 5.88404 29.9554 6.04931 29.9557H6.04939C6.37988 29.9564 6.71038 29.9571 7.04087 29.9465C7.14002 29.9433 7.31915 29.8409 7.31915 29.7802C7.33447 29.2746 7.33348 28.771 7.33246 28.25V28.2497V28.2494V28.2491V28.2488V28.2485V28.2481C7.3322 28.1171 7.33194 27.985 7.33194 27.8514H6.13886C5.41811 27.8514 5.08332 27.4878 5.1345 26.7607C5.17928 26.1305 5.55671 25.7755 6.19963 25.7659C6.46976 25.7638 6.74126 25.7645 7.03298 25.7652H7.03303H7.03308H7.03314H7.03319H7.03325H7.03331ZM13.8691 23.4149H16.9526V39.456H13.8691V23.4149ZM8.9082 39.4752H12.0173V27.8866H8.9082V39.4752ZM12.0508 26.009C11.8466 26.009 11.645 26.0093 11.4453 26.0095C10.6563 26.0106 9.89817 26.0115 9.14004 25.9962C9.05368 25.9962 8.89694 25.8331 8.89375 25.7435C8.87136 25.0558 8.87136 24.3649 8.89375 23.6772C8.89694 23.5813 9.06647 23.4085 9.15923 23.4085C10.0197 23.3862 10.8833 23.3862 11.7437 23.4085C11.8493 23.4085 12.0348 23.5653 12.038 23.6548C12.0551 24.2406 12.0535 24.8281 12.0518 25.4421V25.4421V25.4421V25.4422C12.0513 25.6296 12.0508 25.8193 12.0508 26.0122V26.009ZM48.9992 33.987L48.9968 33.9841C48.7436 33.676 48.4838 33.3598 48.2133 33.03C48.109 33.1072 48.0045 33.1804 47.9015 33.2525C47.6632 33.4191 47.4333 33.58 47.2346 33.772C46.5085 34.4693 46.6972 35.5121 47.6024 35.9631C48.3093 36.3181 49.4032 35.9567 49.9726 35.173C49.6533 34.783 49.3319 34.3919 48.9992 33.987ZM49.2458 28.4761L49.2457 28.4759L49.2456 28.4759C49.0667 28.2381 48.8972 28.013 48.7542 27.7746C48.4919 27.3364 48.5655 26.8886 48.8982 26.5624C49.2436 26.2233 49.7746 26.1401 50.2 26.3576C50.5998 26.5624 50.7917 26.991 50.6894 27.4836C50.5551 28.1265 50.0881 28.4847 49.5091 28.8302L49.5059 28.827C49.4183 28.7053 49.3309 28.5893 49.2458 28.4761ZM68.6269 34.2374C68.6284 34.0853 68.6299 33.9362 68.6299 33.7912H68.6267C68.3522 33.8388 68.0789 33.8845 67.8067 33.93C67.2923 34.016 66.782 34.1012 66.2757 34.1975C66.2122 34.2098 66.1485 34.222 66.0848 34.2343C65.5871 34.3298 65.0856 34.4261 64.6093 34.5877C63.96 34.8084 63.6017 35.4289 63.6177 36.1198C63.6305 36.6892 63.9759 37.089 64.6604 37.3321C65.5944 37.6647 66.5124 37.6136 67.4017 37.2009C68.2013 36.8299 68.6715 36.2318 68.6331 35.3042C68.6198 34.9424 68.6234 34.5822 68.6269 34.2374Z" fill="#FAFAFA"/>
</svg>
