<svg width="104" height="64" viewBox="0 0 104 64" fill="none" xmlns="http://www.w3.org/2000/svg">
<path d="M43.968 45.5386H36.1161L36.0061 44.9785C35.636 45.7487 35.0059 45.5686 34.4558 45.5686C30.7849 45.5686 27.114 45.5686 23.4532 45.5686C23.2747 45.5951 23.0928 45.5516 22.9456 45.4473C22.7984 45.3429 22.6972 45.1857 22.663 45.0085C22.1436 43.496 21.8833 41.9066 21.8928 40.3074C21.8928 36.6666 21.8928 33.0257 21.8928 29.3849C21.8928 25.744 21.8928 22.2432 21.8928 18.6724C21.8928 18.1722 22.0029 18.0122 22.533 18.0122C24.9736 18.0122 27.4208 18.0122 29.8747 18.0122C30.2848 18.0122 30.4148 18.1222 30.4148 18.5423C30.4148 24.7238 30.4148 30.8986 30.4148 37.0667C30.4148 38.0069 30.4648 38.9471 30.4948 39.8873C30.4899 39.9706 30.4899 40.0541 30.4948 40.1374C30.5025 40.6191 30.6652 41.0856 30.9589 41.4676C31.2526 41.8496 31.6616 42.1267 32.1252 42.2579C32.664 42.3661 33.2233 42.298 33.7204 42.0639C34.2175 41.8297 34.6261 41.4418 34.8859 40.9576C35.3189 40.0638 35.5608 39.0895 35.596 38.0969C35.596 37.6768 35.596 37.2567 35.596 36.8366V18.7324C35.596 18.0422 35.596 18.0422 36.3062 18.0422C38.6867 18.0422 41.0673 18.0422 43.4479 18.0422C43.898 18.0422 44.018 18.1622 44.008 18.6023C44.008 27.4111 44.008 36.2198 44.008 45.0285C43.968 45.1886 43.968 45.3486 43.968 45.5386Z" fill="#FAFAFA"/>
<path d="M70.9754 41.0874C70.9754 42.3977 70.9754 43.658 70.9754 44.9083C70.9604 44.9748 70.9286 45.0363 70.8831 45.0871C70.8376 45.1378 70.7798 45.1762 70.7154 45.1983C69.078 45.6037 67.3729 45.6548 65.7142 45.3484C64.8324 45.2065 64.0266 44.7649 63.4326 44.098C62.8386 43.4311 62.4927 42.5797 62.4534 41.6875C62.3267 40.5348 62.2599 39.3763 62.2534 38.2167C62.2534 35.106 62.2534 31.9852 62.2534 28.8645C62.2534 28.4044 62.1133 28.2744 61.6732 28.3044C61.2331 28.3344 60.573 28.3044 60.0629 28.3044L59.9628 28.1844C59.8628 27.4042 59.8628 27.4042 59.0426 27.3242C58.9126 27.3242 58.7726 27.3242 58.6425 27.3242C56.272 27.2041 55.0417 28.1444 54.7016 30.5049C54.5483 31.7023 54.4748 32.9086 54.4816 34.1157C54.4816 37.7066 54.4816 41.2974 54.4816 44.8882V45.5584H53.9714C51.5209 45.5584 49.0803 45.5584 46.6297 45.5584C46.2096 45.5584 46.0996 45.4284 46.0996 45.0083C46.0996 36.3863 46.0996 27.7643 46.0996 19.1423C46.0996 18.9822 46.0996 18.8222 46.0996 18.6021H46.6297C48.8303 18.6021 51.0208 18.6021 53.2213 18.6021C53.6614 18.6021 53.8114 18.7121 53.7914 19.1622C53.7914 20.1625 53.7914 21.1627 53.7914 22.1629C53.7901 22.3329 53.8172 22.502 53.8714 22.6631C55.4818 20.2725 57.4323 18.4121 60.543 18.082V18.7122C60.543 20.2925 60.543 21.8629 60.543 23.4433C60.543 23.8334 60.663 23.9634 61.0531 23.9534C62.2334 23.9534 62.2334 23.9534 62.2334 22.8031C62.2334 21.3728 62.2334 19.9524 62.2334 18.5221C62.2334 18.182 62.3234 18.052 62.6835 18.052C64.3739 18.052 66.0743 18.052 67.7647 18.052C68.1347 18.052 68.2048 18.202 68.2048 18.5321C68.2048 20.1625 68.2048 21.7829 68.2048 23.4132C68.2048 23.8333 68.3248 23.9734 68.7449 23.9534C69.4751 23.9534 70.2152 23.9534 71.0354 23.9534V24.8836C71.0354 25.8838 71.0354 26.884 71.0354 27.8843C71.0354 28.2144 70.9354 28.3344 70.6053 28.3244C69.9552 28.3244 69.295 28.3244 68.6049 28.3244C68.2748 28.3244 68.1648 28.4344 68.1648 28.7645C68.1648 32.1653 68.1648 35.5761 68.2248 38.9769C68.2248 40.6673 68.9049 41.1874 70.6153 41.1074L70.9754 41.0874Z" fill="#FAFAFA"/>
<path d="M72.2245 27.4443C72.024 25.7174 72.3796 23.9715 73.2394 22.4605C74.0992 20.9495 75.4186 19.7521 77.0056 19.0423C78.233 18.5387 79.533 18.2348 80.8565 18.1421C83.1806 17.8906 85.5308 18.0532 87.7981 18.6223C89.6061 19.0215 91.1941 20.0945 92.2391 21.623C92.8552 22.6243 93.1999 23.7688 93.2394 24.9437C93.3094 26.064 93.3494 27.1943 93.3594 28.3145C93.3594 32.8556 93.3594 37.4066 93.4394 41.9577C93.4394 43.138 93.6395 44.3182 93.7495 45.5785H93.1994C90.9989 45.5785 88.8083 45.5785 86.6078 45.5785C86.0577 45.5785 85.7576 45.4585 85.7476 44.8684C85.7301 44.7553 85.6999 44.6446 85.6576 44.5383C85.4078 44.7912 85.1368 45.0221 84.8474 45.2285C84.5993 45.4069 84.3105 45.5204 84.0072 45.5585C80.6364 45.5585 77.2656 45.5585 73.8949 45.5585C73.7396 45.5647 73.5853 45.5323 73.4457 45.4642C73.306 45.3961 73.1854 45.2945 73.0947 45.1684C71.7206 43.2817 71.1387 40.9325 71.4732 38.6225C71.8078 36.3126 73.0322 34.225 74.8851 32.8056C76.1242 32.0195 77.4334 31.3498 78.796 30.8051C80.0363 30.235 81.3766 29.8549 82.6069 29.2647C83.3718 28.8877 84.0764 28.3989 84.6974 27.8144C85.0611 27.4665 85.2996 27.0081 85.3755 26.5106C85.4515 26.013 85.3608 25.5043 85.1175 25.0638C84.9459 24.6682 84.6552 24.3361 84.2858 24.1138C83.9164 23.8914 83.4868 23.7899 83.057 23.8235C81.3266 23.7434 80.3464 24.5937 80.0563 26.4041C80.0563 26.7642 80.0563 27.2843 79.8663 27.4043C79.6762 27.5243 79.1261 27.4843 78.746 27.4843H72.1945L72.2245 27.4443ZM85.2275 33.4457C83.177 34.0759 81.2866 34.746 80.0163 36.4464C79.4299 37.2619 79.1825 38.273 79.3261 39.2671C79.339 39.6325 79.4303 39.9908 79.5938 40.3179C79.7573 40.6449 79.9892 40.933 80.2737 41.1625C80.5583 41.3921 80.8889 41.5578 81.2432 41.6484C81.5974 41.739 81.967 41.7524 82.3268 41.6876C82.9919 41.6027 83.6093 41.2975 84.0807 40.8207C84.552 40.3439 84.8501 39.723 84.9274 39.057C85.2099 37.1975 85.3104 35.3148 85.2275 33.4357V33.4457Z" fill="#FAFAFA"/>
<path d="M21.1619 28.3845H20.6718C18.3913 28.3845 16.1207 28.3845 13.8402 28.3845C13.4301 28.3845 13.3401 28.2545 13.3201 27.8644C13.2839 26.763 13.1871 25.6644 13.03 24.5736C12.9759 24.0914 12.7556 23.643 12.407 23.3054C12.0585 22.9678 11.6033 22.762 11.1196 22.7232C10.6413 22.6471 10.1516 22.747 9.74138 23.0045C9.33118 23.2621 9.02834 23.6597 8.88907 24.1235C8.50781 25.0809 8.28811 26.0949 8.23891 27.1242C8.1789 30.445 8.23891 33.7658 8.23891 37.1266C8.24145 38.208 8.49843 39.2736 8.98909 40.2373C9.15159 40.5993 9.4181 40.9049 9.75473 41.115C10.0914 41.3252 10.4829 41.4305 10.8795 41.4175C11.2758 41.3959 11.6566 41.257 11.9737 41.0183C12.2907 40.7796 12.5296 40.452 12.6599 40.0772C13.1208 38.9011 13.3089 37.6357 13.2101 36.3764C13.2101 35.1561 13.1601 35.1561 14.3903 35.1561C16.4508 35.1561 18.5113 35.1561 20.5718 35.1561C21.0419 35.1561 21.1819 35.3061 21.1919 35.7462C21.3332 37.9309 20.9917 40.1199 20.1917 42.1577C19.7333 43.3748 18.9643 44.4507 17.9612 45.2785C17.739 45.4482 17.4703 45.5459 17.191 45.5585C12.95 45.5585 8.70903 45.5585 4.46804 45.5585C4.19142 45.5478 3.9253 45.4498 3.70786 45.2785C2.64669 44.3889 1.84791 43.227 1.39732 41.9177C0.649169 39.7926 0.224333 37.5673 0.137026 35.3162C-0.145419 31.8697 0.00917559 28.4014 0.597132 24.9937C0.821858 23.2532 1.45601 21.5907 2.44756 20.1426C3.07029 19.4128 3.76015 18.743 4.50805 18.1421C4.67545 18.0379 4.8714 17.9889 5.06818 18.0021C8.90907 18.0021 12.75 18.0021 16.5909 18.0021C16.8533 17.994 17.1107 18.0751 17.321 18.2322C17.9775 18.7177 18.5751 19.2783 19.1014 19.9026C20.9619 22.4431 21.1419 25.3538 21.1619 28.3845Z" fill="#FAFAFA"/>
<path d="M103.981 18.072C103.981 18.3021 103.981 18.4821 103.981 18.6622C104.065 21.812 103.857 24.9628 103.361 28.0744C102.911 31.0751 102.551 34.1658 102.151 37.2065C102.041 38.0667 102.151 37.9467 101.32 37.9567C100.27 37.9567 99.21 37.9567 98.1598 37.9567C97.8297 37.9567 97.6896 37.8666 97.6396 37.5166C96.9695 32.8055 96.2193 28.1044 95.6392 23.3733C95.5247 21.7087 95.5047 20.039 95.5792 18.3721C95.5792 17.992 95.8392 18.052 96.0593 18.052H103.551L103.981 18.072Z" fill="#FAFAFA"/>
<path d="M103.981 41.7376V44.1781C103.981 45.5685 103.981 45.5685 102.601 45.5685C100.481 45.5685 98.3501 45.5685 96.2296 45.5685C95.8395 45.5685 95.6995 45.4685 95.7095 45.0584C95.7095 44.0581 95.7095 43.0579 95.7095 42.0577C95.7095 41.7876 95.7095 41.6176 96.0896 41.6176H103.721C103.811 41.6501 103.898 41.6902 103.981 41.7376V41.7376Z" fill="#FAFAFA"/>
</svg>
