<svg width="104" height="64" viewBox="0 0 104 64" fill="none" xmlns="http://www.w3.org/2000/svg">
<path d="M61.0012 0C61.0012 0.139859 61.0012 0.28964 61.0012 0.4295V18.0217C61.0012 18.4612 61.0012 18.4614 60.5712 18.4614H43.3812C42.9512 18.4614 42.9512 18.4612 42.9512 18.0217V0.4295C42.9512 0.28964 42.9512 0.139859 42.9512 0H61.0012Z" fill="#FAFAFA"/>
<path d="M15 57.8317C15.07 57.4921 15.12 57.1424 15.19 56.8328C15.4491 55.6928 16.0591 54.6626 16.9343 53.8867C17.8096 53.1109 18.9062 52.6283 20.07 52.507C20.9859 52.3699 21.9211 52.4467 22.8024 52.7309C23.6838 53.0152 24.4872 53.4993 25.15 54.1455L25.25 54.2553C25.25 54.2553 25.25 54.2554 25.31 54.3653L23.85 56.0435C23.304 55.6472 22.7328 55.2867 22.14 54.9645C21.6857 54.7383 21.1843 54.6227 20.6767 54.627C20.1692 54.6312 19.6698 54.7554 19.2193 54.9891C18.7689 55.2229 18.3802 55.5596 18.0848 55.972C17.7895 56.3845 17.596 56.8609 17.52 57.3622C17.3662 58.0102 17.391 58.6877 17.5918 59.3227C17.7925 59.9577 18.1616 60.5263 18.66 60.9685C19.1637 61.4024 19.7886 61.6716 20.4503 61.7394C21.1119 61.8073 21.7785 61.6708 22.36 61.3482C22.873 61.0402 23.3703 60.7068 23.85 60.3492L25.33 61.7777C25.23 61.8976 25.17 62.0076 25.08 62.0975C24.5359 62.6939 23.8735 63.1707 23.1349 63.4974C22.3964 63.8242 21.5978 63.9938 20.79 63.9955C19.3579 64.0535 17.9595 63.5519 16.8916 62.597C15.8237 61.642 15.1703 60.309 15.07 58.8807C15.0573 58.7916 15.0338 58.7044 15 58.621V57.8317Z" fill="#FAFAFA"/>
<path d="M33.1103 20.4294C36.2103 20.4294 39.3003 20.3295 42.3903 20.4294C44.0286 20.4063 45.6391 20.8533 47.0306 21.7174C48.4221 22.5816 49.5361 23.8265 50.2403 25.3044C50.7525 26.3549 51.0548 27.4951 51.1303 28.6611C51.1303 29.4004 51.1903 30.1296 51.1903 30.8689C51.1903 36.3633 51.1903 41.8578 51.1903 47.3623C51.1903 47.8218 51.1903 47.8218 50.7503 47.8218H42.6303C42.2103 47.8218 42.2103 47.8218 42.2103 47.3923V29.8599C42.2103 29.3803 42.2103 29.3804 41.7503 29.3804C38.2503 29.3804 34.7503 29.3804 31.2603 29.3804C28.7203 29.3804 26.1803 29.3803 23.6403 29.3204C23.4003 29.3204 23.3203 29.2504 23.3203 29.0106C23.3203 26.2467 23.3203 23.483 23.3203 20.7192C23.3203 20.4394 23.4403 20.3994 23.6803 20.3994L33.1103 20.4294Z" fill="#FAFAFA"/>
<path d="M70.8805 20.4294H80.2905C80.7205 20.4294 80.7205 20.4294 80.7205 20.8689V28.9209C80.7205 29.3405 80.7205 29.3404 80.2905 29.3404H73.9305H62.2805C61.8205 29.3404 61.8205 29.3404 61.8205 29.7999V47.3323C61.8205 47.7819 61.8205 47.7818 61.3905 47.7818C58.6705 47.7818 55.9605 47.7818 53.2405 47.7818C52.9505 47.7818 52.8305 47.722 52.8305 47.3923C52.8305 41.3983 52.8305 35.4044 52.8305 29.4104C52.8015 28.152 53.0406 26.9018 53.5319 25.7427C54.0233 24.5836 54.7556 23.5421 55.6805 22.6872C56.9922 21.5055 58.6302 20.7463 60.3805 20.5092C61.0894 20.4106 61.8049 20.3673 62.5205 20.3794C65.3005 20.3794 68.0705 20.3794 70.8505 20.3794L70.8805 20.4294Z" fill="#FAFAFA"/>
<path d="M73.571 59.57L76.481 63.696H76.141C75.441 63.696 74.731 63.696 74.021 63.696C73.9152 63.7043 73.8092 63.6823 73.7154 63.6328C73.6216 63.5833 73.5437 63.5082 73.491 63.4162C72.761 62.3573 72.011 61.3082 71.281 60.2492C71.2328 60.1607 71.1599 60.0881 71.0711 60.0402C70.9824 59.9923 70.8816 59.9712 70.781 59.9795C70.321 59.9795 69.861 59.9795 69.401 59.9795C69.171 59.9795 69.091 60.0495 69.101 60.2792C69.101 61.2782 69.101 62.3273 69.101 63.3462V63.696C69.0312 63.7033 68.9608 63.7033 68.891 63.696H66.981C66.811 63.696 66.721 63.6957 66.721 63.456C66.721 59.8896 66.721 56.3132 66.721 52.7468C66.718 52.6969 66.718 52.6469 66.721 52.597H71.901C72.5361 52.5903 73.167 52.7021 73.761 52.9268C74.495 53.2158 75.1096 53.7439 75.5053 54.4258C75.9011 55.1076 76.0546 55.9031 75.941 56.683C75.8814 57.3045 75.6387 57.8942 75.2435 58.3778C74.8484 58.8615 74.3185 59.2174 73.721 59.4002L73.571 59.57ZM69.071 54.7348V57.2923C69.071 58.0615 68.991 57.9318 69.721 57.9318C70.451 57.9318 71.321 57.9318 72.111 57.9318C72.4245 57.9126 72.7249 57.7991 72.9729 57.6066C73.2209 57.4141 73.405 57.1515 73.501 56.8528C73.5901 56.6409 73.6278 56.411 73.6111 56.1818C73.5943 55.9526 73.5236 55.7305 73.4047 55.5338C73.2858 55.3371 73.122 55.1711 72.9267 55.0496C72.7314 54.9282 72.5102 54.8546 72.281 54.8348C71.241 54.7349 70.181 54.7747 69.071 54.7348V54.7348Z" fill="#FAFAFA"/>
<path d="M64.8812 52.597C64.8812 52.7269 64.8812 52.8169 64.8812 52.9068C64.8812 54.9047 64.8812 56.9625 64.8812 58.9905C64.8709 59.6676 64.7666 60.34 64.5712 60.9885C64.3243 61.7827 63.8406 62.4829 63.1848 62.9952C62.529 63.5076 61.7324 63.8077 60.9012 63.8557C60.0897 63.976 59.2619 63.9248 58.4712 63.7057C57.67 63.5206 56.9454 63.0935 56.3961 62.4821C55.8467 61.8707 55.4993 61.1049 55.4012 60.2892C55.3216 59.787 55.2814 59.2792 55.2812 58.7707C55.2812 56.8427 55.2812 54.9146 55.2812 52.9965V52.597H57.6512V52.9765C57.6512 55.0344 57.6512 57.1026 57.6512 59.1705C57.629 59.5198 57.6817 59.8699 57.8059 60.1973C57.9301 60.5246 58.1228 60.8216 58.3713 61.0685C58.8108 61.4483 59.3607 61.6774 59.9401 61.7224C60.5196 61.7673 61.0982 61.6257 61.5912 61.3182C61.8966 61.0991 62.1419 60.8067 62.3044 60.468C62.4669 60.1293 62.5415 59.7553 62.5212 59.3802C62.5212 57.2723 62.5212 55.1644 62.5212 53.0565C62.5212 52.4771 62.5212 52.587 63.0012 52.587L64.8812 52.597Z" fill="#FAFAFA"/>
<path d="M88.7605 63.7456H86.4205C86.3405 63.7456 86.2305 63.6058 86.1805 63.5159C85.8805 62.8166 85.5805 62.1274 85.3005 61.4281C85.2772 61.3455 85.2251 61.2738 85.1536 61.2262C85.082 61.1786 84.9958 61.158 84.9105 61.1684C83.5205 61.1684 82.1205 61.1684 80.7305 61.1684C80.6461 61.1562 80.5601 61.1761 80.4898 61.2242C80.4194 61.2724 80.3697 61.3451 80.3505 61.4281C80.0605 62.1274 79.7405 62.8166 79.4505 63.5159C79.4314 63.5936 79.3838 63.6615 79.3172 63.7059C79.2505 63.7503 79.1696 63.7679 79.0905 63.7556C78.4105 63.7556 77.7205 63.7556 76.9805 63.7556C76.9805 63.6158 77.0605 63.506 77.1005 63.4161C78.6605 59.8597 80.2305 56.3031 81.7805 52.7467C81.8012 52.6807 81.8448 52.6243 81.9035 52.5877C81.9622 52.551 82.032 52.5366 82.1005 52.5469C82.5905 52.5469 83.1005 52.5469 83.5805 52.5469C83.6739 52.5337 83.7689 52.5548 83.848 52.6062C83.9271 52.6576 83.9848 52.736 84.0105 52.8267C85.0571 55.2509 86.1138 57.6752 87.1805 60.0994C87.6505 61.1883 88.1305 62.2772 88.6005 63.3561C88.6505 63.456 88.6905 63.5658 88.7605 63.7456ZM82.8505 55.6039L81.3905 59.0004H84.3305L82.8505 55.6039Z" fill="#FAFAFA"/>
<path d="M26.6914 52.597H28.8814C28.8814 52.597 29.0014 52.6868 29.0214 52.7467C29.0316 52.8364 29.0316 52.9269 29.0214 53.0165C29.0214 54.9146 29.0214 56.8029 29.0214 58.701C29.026 59.0689 29.0561 59.4359 29.1114 59.7997C29.1617 60.1087 29.2739 60.4043 29.4412 60.6689C29.6086 60.9336 29.8276 61.162 30.0853 61.3401C30.3429 61.5183 30.6339 61.6426 30.9408 61.7057C31.2477 61.7689 31.5642 61.7695 31.8714 61.7077C32.1762 61.6898 32.4741 61.6093 32.7463 61.4711C33.0186 61.333 33.2594 61.1404 33.4536 60.905C33.6479 60.6697 33.7915 60.3967 33.8754 60.1034C33.9594 59.8101 33.9818 59.5028 33.9414 59.2005C33.9414 57.1325 33.9414 55.0644 33.9414 52.9965V52.597H36.1114C36.1114 52.597 36.2214 52.6968 36.2714 52.7667C36.3214 52.8367 36.2714 52.8468 36.2714 52.8867C36.2714 55.1045 36.3314 57.3322 36.2714 59.55C36.286 60.1036 36.1913 60.6548 35.9927 61.1719C35.794 61.6889 35.4953 62.1618 35.1136 62.5635C34.7319 62.9652 34.2747 63.2879 33.7682 63.513C33.2616 63.7381 32.7156 63.8614 32.1614 63.8757C31.0474 64.0268 29.9136 63.8351 28.9114 63.3262C28.3135 63.0039 27.8061 62.5369 27.4357 61.9679C27.0653 61.3989 26.8438 60.7461 26.7914 60.0695C26.7348 59.572 26.7081 59.0716 26.7114 58.571V52.577L26.6914 52.597Z" fill="#FAFAFA"/>
<path d="M44.6702 54.8347V52.667H53.7702V54.8147H53.4302C52.5302 54.8147 51.6202 54.8147 50.7202 54.8147C50.4302 54.8147 50.3602 54.9148 50.3602 55.1945C50.3602 57.9217 50.3602 60.6589 50.3602 63.3862C50.3602 63.7858 50.3602 63.7857 49.9602 63.7857C49.5602 63.7857 48.8902 63.7857 48.3602 63.7857C48.0702 63.7857 48.0002 63.6959 48.0002 63.4262C48.0002 60.7489 48.0002 58.0816 48.0002 55.4342C48.0002 54.7449 48.0602 54.8547 47.4202 54.8447H44.6602L44.6702 54.8347Z" fill="#FAFAFA"/>
<path d="M46.5315 61.5679C46.5315 62.2772 46.5315 62.9366 46.5315 63.5659C46.5315 63.6359 46.4315 63.7057 46.3515 63.7457C46.2715 63.7856 46.2115 63.7457 46.1415 63.7457C43.7315 63.7457 41.3315 63.7457 38.9215 63.7457C38.6215 63.7457 38.5215 63.6759 38.5215 63.3562C38.5215 59.8697 38.5215 56.3633 38.5215 52.9067V52.557H40.8815V52.9367C40.8815 55.6607 40.8815 58.3945 40.8815 61.1384C40.8815 61.4381 40.9515 61.5279 41.2715 61.5279C42.8915 61.5279 44.5115 61.5279 46.1315 61.5279L46.5315 61.5679Z" fill="#FAFAFA"/>
</svg>
