<svg width="104" height="64" viewBox="0 0 104 64" fill="none" xmlns="http://www.w3.org/2000/svg">
<path d="M0.0355776 7C-0.044472 7.35022 0.0355776 46.3544 0.0355776 46.5545H29.704C29.844 46.4845 29.814 46.3544 29.814 46.2543C29.814 45.5639 29.744 44.8734 29.704 44.183C29.704 43.8728 29.704 43.5626 29.704 43.2625C29.704 42.9623 29.704 42.3619 29.6439 41.9116C29.6439 41.6215 29.744 41.5314 30.0342 41.5214H30.9547L34.0366 41.3713H35.0373C35.7477 41.3212 36.4581 41.2912 37.1686 41.2512L39.0898 41.1512L41.8715 41.001L43.8727 40.891L47.465 40.7009L50.727 40.5308L53.959 40.3607L57.201 40.1805L60.433 40.0104L63.7651 39.8404L67.0371 39.6703L69.9589 39.5302H70.8995C71.72 39.5302 72.5405 39.4101 73.361 39.4101C73.7012 39.4101 73.7813 39.5001 73.7813 39.8404C73.7813 40.4107 73.7813 40.991 73.7813 41.5714C73.7813 41.8916 73.7813 42.2218 73.8313 42.572C73.8313 43.2525 73.9114 43.9429 73.9414 44.5733C73.9714 45.2037 74.0214 45.724 74.0414 46.3044C74.0414 46.4245 74.0414 46.5845 74.1915 46.6546H90.6617C95.0044 46.6546 99.3371 46.6546 103.67 46.6546C103.777 46.689 103.893 46.689 104 46.6546V7.11005L0.0355776 7ZM92.683 35.5577H56.1503V30.2444H52.2179C52.1231 30.4197 52.046 30.6041 51.9878 30.7948C51.6576 31.6453 51.4074 32.5258 51.0472 33.3663C50.9171 33.6565 50.767 33.9367 50.6269 34.2169C50.4314 34.5876 50.1455 34.903 49.7956 35.1338C49.4458 35.3647 49.0434 35.5036 48.6257 35.5377C48.3561 35.5626 48.0848 35.5626 47.8152 35.5377H41.8115C41.74 35.5418 41.6692 35.5224 41.6096 35.4827C41.55 35.443 41.505 35.3851 41.4813 35.3175C40.6007 33.6265 39.6901 31.9355 38.8296 30.2344C38.5662 29.786 38.172 29.4287 37.6999 29.2105C37.2278 28.9924 36.7002 28.9236 36.188 29.0136V35.5277H29.2937C29.2937 34.2669 29.2937 33.0261 29.2937 31.8053C29.3605 31.7545 29.4402 31.7233 29.5238 31.7153C29.8116 31.6627 30.071 31.5085 30.2546 31.2808C30.4383 31.0531 30.534 30.767 30.5245 30.4746V23.8304C29.0836 23.8304 27.6627 23.8304 26.2418 23.8304C26.2029 23.7135 26.2029 23.5871 26.2418 23.4702C26.2568 23.2403 26.2568 23.0097 26.2418 22.7798C26.2503 22.686 26.2389 22.5914 26.2083 22.5023C26.1778 22.4132 26.1289 22.3316 26.0647 22.2627C26.0005 22.1938 25.9225 22.1391 25.8358 22.1024C25.749 22.0656 25.6556 22.0475 25.5614 22.0493C25.001 22.0493 24.4407 22.0493 23.8803 22.0493C23.8003 22.1494 23.8803 22.2495 23.8803 22.3495V30.4746C23.8558 30.759 23.9342 31.0427 24.1014 31.2741C24.2685 31.5056 24.5132 31.6692 24.7909 31.7354L25.1211 31.8454V35.5377C25.0511 35.6178 24.971 35.5977 24.891 35.5977H21.5089C20.7071 35.5576 19.9458 35.2335 19.361 34.6836C18.7762 34.1336 18.4061 33.3937 18.3169 32.5959C18.3169 32.2256 18.3169 31.8554 18.3169 31.4852V22.1494C18.2921 22.1218 18.2608 22.1009 18.2258 22.0887C18.1908 22.0765 18.1533 22.0732 18.1168 22.0794H16.6359C16.5425 22.068 16.4478 22.0781 16.3588 22.1088C16.2699 22.1396 16.1892 22.1901 16.1226 22.2566C16.0561 22.3231 16.0056 22.4038 15.9749 22.4928C15.9442 22.5817 15.9341 22.6764 15.9454 22.7698C15.9454 23.12 15.9454 23.4602 15.8954 23.7704C15.8978 23.797 15.8978 23.8238 15.8954 23.8505H11.4827V18.3471C11.5527 18.287 11.6428 18.3471 11.7328 18.3471H39.0097C40.4887 18.3156 41.9628 18.5286 43.3724 18.9775C44.3646 19.2614 45.2407 19.8536 45.874 20.6684C46.2934 21.2583 46.5489 21.9489 46.6144 22.6697C46.7431 23.5594 46.7058 24.4653 46.5044 25.3414C46.2291 26.3923 45.5492 27.2916 44.6132 27.8429L44.0829 28.1731C44.0859 28.2164 44.0859 28.2599 44.0829 28.3032C44.3931 28.8935 44.6532 29.494 44.9334 30.1043C44.9938 30.2578 45.094 30.3925 45.2236 30.4945C45.2953 30.5627 45.3822 30.6131 45.477 30.6415C45.5719 30.6699 45.6721 30.6756 45.7695 30.658C45.867 30.6405 45.9589 30.6002 46.0379 30.5405C46.1169 30.4808 46.1807 30.4034 46.2242 30.3144C46.3472 30.0962 46.4446 29.8646 46.5144 29.624C47.2348 27.5027 47.9619 25.3847 48.6957 23.2701C49.056 22.1761 49.6158 21.1583 50.3468 20.2682C50.7696 19.75 51.2921 19.3218 51.8834 19.009C52.4746 18.6962 53.1225 18.5051 53.7889 18.4471C54.6194 18.357 55.4499 18.4471 56.2704 18.4471H61.4836C61.5652 18.4223 61.6523 18.4223 61.7338 18.4471C61.7588 18.5422 61.7588 18.6421 61.7338 18.7373V29.644C61.7313 30.0092 61.8064 30.3707 61.9539 30.7047C62.0114 30.8384 62.1109 30.9498 62.2372 31.022C62.3636 31.0942 62.51 31.1233 62.6544 31.105C62.7951 31.1002 62.9308 31.0513 63.0422 30.965C63.1535 30.8788 63.2349 30.7597 63.2748 30.6246C63.4449 30.0265 63.5159 29.4046 63.4849 28.7835C63.4849 27.0024 63.4849 25.2113 63.4849 23.4302C63.4697 22.4104 63.7728 21.4113 64.3521 20.5719C64.9314 19.7326 65.758 19.0947 66.7169 18.7473C67.8491 18.323 69.0411 18.0799 70.2491 18.0269C70.8957 17.992 71.5437 17.992 72.1903 18.0269C73.6931 18.0335 75.1783 18.3503 76.553 18.9574C77.0316 19.2044 77.49 19.4887 77.9238 19.8079V18.4971C82.8369 18.4071 87.7299 18.4971 92.653 18.4371V23.9605C91.162 24.0506 89.6511 23.9605 88.1702 23.9605V23.3101C88.1702 23.14 88.1702 22.9799 88.1702 22.8198C88.174 22.722 88.1564 22.6245 88.1185 22.5342C88.0806 22.444 88.0234 22.3631 87.9509 22.2973C87.8784 22.2315 87.7924 22.1823 87.6989 22.1533C87.6054 22.1243 87.5067 22.1161 87.4097 22.1294H84.0376C83.8923 22.1005 83.7427 22.1005 83.5974 22.1294V24.9812H86.9494V28.6834H83.6074V31.7053C83.6651 31.7287 83.7297 31.7287 83.7875 31.7053C84.9882 31.7053 86.179 31.7653 87.3797 31.7053C87.95 31.7053 88.2002 31.4551 88.2202 30.8848C88.2202 30.5646 88.2202 30.2444 88.2202 29.8842C89.7111 29.7841 91.2221 29.8842 92.703 29.8842L92.683 35.5577Z" fill="#FAFAFA"/>
<path d="M65.8962 45.8242L66.0463 48.5859C66.0463 49.5065 66.1464 50.4271 66.1864 51.3677C65.586 51.4377 64.9857 51.3677 64.4153 51.5077C64.3494 51.4777 64.2937 51.4291 64.2552 51.3677C64.1051 48.4659 63.945 45.5741 63.7949 42.6523C64.6254 42.5922 65.4259 42.5922 66.2464 42.5022L69.3384 48.1957H69.3984C69.3283 46.2745 69.2183 44.3533 69.0982 42.4121C69.7625 42.3363 70.4309 42.3028 71.0994 42.312L71.5497 51.0975L69.0882 51.2376C68.0275 49.4265 67.0269 47.5753 65.8962 45.8242Z" fill="#FAFAFA"/>
<path d="M32.6174 44.2931C33.2878 44.2331 33.9182 44.2931 34.5486 44.153C34.6136 44.2937 34.6412 44.4488 34.6287 44.6033C34.7287 46.4845 34.8188 48.3657 34.9188 50.2468C34.9188 50.5122 35.0243 50.7667 35.2119 50.9544C35.3996 51.142 35.6541 51.2474 35.9195 51.2474C36.1882 51.2873 36.4613 51.2873 36.73 51.2474C36.964 51.215 37.1759 51.0919 37.32 50.9048C37.4641 50.7176 37.5289 50.4813 37.5004 50.2468C37.5004 49.5564 37.4304 48.866 37.4004 48.1755L37.1902 44.173C37.1902 44.173 37.1902 44.103 37.1902 44.0329L39.1915 43.9529C39.1915 44.213 39.1915 44.4632 39.1915 44.7134C39.2815 46.4845 39.3516 48.2656 39.4716 50.0367C39.5166 50.3752 39.4942 50.7192 39.4057 51.049C39.3173 51.3788 39.1645 51.6879 38.9562 51.9585C38.7479 52.229 38.4882 52.4558 38.192 52.6257C37.8958 52.7956 37.569 52.9053 37.2303 52.9484C36.3203 53.1912 35.3586 53.1564 34.4685 52.8484C34.0062 52.6921 33.6025 52.3987 33.3111 52.0072C33.0197 51.6158 32.8545 51.1448 32.8375 50.657C32.7175 48.5958 32.6074 46.5345 32.5273 44.4732L32.6174 44.2931Z" fill="#FAFAFA"/>
<path d="M78.1448 29.0235H74.0323C74.0323 29.2737 74.0323 29.5138 73.9622 29.754C73.9591 30.0504 73.8901 30.3424 73.7603 30.6089C73.6305 30.8754 73.4432 31.1097 73.2118 31.295C72.9162 31.5085 72.5725 31.6459 72.2112 31.6952C71.6361 31.7787 71.0499 31.7413 70.4901 31.5851C70.1137 31.463 69.7844 31.227 69.5478 30.9098C69.3112 30.5925 69.179 30.2096 69.1693 29.814C69.1493 29.4374 69.1493 29.0599 69.1693 28.6833V24.4007C69.1663 24.0376 69.2204 23.6763 69.3294 23.33C69.4145 23.028 69.5793 22.7545 69.8063 22.5379C70.0334 22.3214 70.3145 22.17 70.6202 22.0993C71.25 21.9344 71.9116 21.9344 72.5414 22.0993C72.9677 22.1906 73.3501 22.425 73.6249 22.7635C73.8998 23.102 74.0506 23.5244 74.0523 23.9604C74.0523 24.1905 74.0523 24.4106 74.1023 24.6808H78.1048L78.1448 29.0235Z" fill="#FAFAFA"/>
<path d="M36.2188 25.2114V22.0795C36.2503 22.0657 36.2844 22.0586 36.3188 22.0586C36.3532 22.0586 36.3873 22.0657 36.4189 22.0795C37.1293 22.0795 37.8398 22.0795 38.5602 22.0795C39.0018 22.0849 39.4402 22.1558 39.861 22.2896C40.0681 22.3543 40.2585 22.4636 40.4187 22.61C40.5789 22.7563 40.705 22.9361 40.7881 23.1365C40.8711 23.337 40.9091 23.5532 40.8993 23.77C40.8896 23.9867 40.8323 24.1987 40.7315 24.3909C40.6047 24.6155 40.4258 24.8062 40.2099 24.9473C39.994 25.0883 39.7474 25.1755 39.4908 25.2014C39.1951 25.266 38.8929 25.2962 38.5902 25.2915H36.4989C36.4002 25.2891 36.3038 25.2615 36.2188 25.2114V25.2114Z" fill="#FAFAFA"/>
<path d="M56.1316 22.6998V26.4722C55.191 26.5322 54.2704 26.4722 53.3398 26.4722C53.3398 26.4722 53.3398 26.4021 53.3398 26.3821C53.6019 25.6416 53.906 24.9167 54.2504 24.2108C54.4432 23.8114 54.7001 23.4464 55.0109 23.1301C55.1584 22.9856 55.3339 22.8729 55.5267 22.7989C55.7194 22.7249 55.9253 22.6912 56.1316 22.6998V22.6998Z" fill="#FAFAFA"/>
<path fill-rule="evenodd" clip-rule="evenodd" d="M44.6819 50.7172L46.0127 52.4283C46.8432 52.3883 47.6237 52.3682 48.4542 52.3582L46.2028 49.4965L46.513 49.2763C46.7478 49.1111 46.9419 48.8946 47.0806 48.6432C47.2193 48.3918 47.299 48.1121 47.3135 47.8254C47.3687 47.0463 47.3284 46.2633 47.1934 45.494C47.1383 45.0988 46.9627 44.7301 46.6905 44.4382C46.4184 44.1464 46.0629 43.9456 45.6725 43.863C45.3686 43.7838 45.0559 43.7434 44.7419 43.7429C43.9631 43.7502 43.1843 43.7998 42.4055 43.8494C42.1137 43.868 41.8218 43.8866 41.5299 43.903H40.5293C40.6435 45.5076 40.7223 47.1034 40.8009 48.6967C40.8669 50.0344 40.9328 51.3704 41.0196 52.7084L43.0208 52.6384L42.8808 49.9067C43.2125 49.8632 43.5468 49.8432 43.8814 49.8467C43.9209 49.8523 43.9586 49.867 43.9916 49.8896C44.0246 49.9121 44.0519 49.9419 44.0715 49.9768L44.6819 50.7172ZM42.675 46.3967C42.6928 46.9654 42.7105 47.531 42.7907 48.1055C43.423 48.12 44.0555 48.0832 44.6819 47.9955C45.0621 47.9154 45.2723 47.7553 45.2723 47.3851C45.334 46.9244 45.3102 46.4563 45.2022 46.0042C45.1836 45.8905 45.1304 45.7853 45.0498 45.7029C44.9692 45.6206 44.8652 45.5651 44.7519 45.544C44.0489 45.499 43.3437 45.499 42.6406 45.544C42.6573 45.8299 42.6661 46.1137 42.675 46.3967Z" fill="#FAFAFA"/>
<path fill-rule="evenodd" clip-rule="evenodd" d="M54.0215 47.385C54.0215 47.432 54.0801 47.4475 54.1338 47.4616C54.1601 47.4686 54.1852 47.4752 54.2016 47.4851C54.5136 47.5985 54.7829 47.8054 54.9727 48.0776C55.1626 48.3499 55.2637 48.6741 55.2623 49.006V50.0767C55.2704 50.4547 55.1612 50.826 54.9498 51.1396C54.7384 51.4531 54.4351 51.6935 54.0816 51.8277C53.7638 51.9631 53.4256 52.0443 53.0809 52.0679C52.2268 52.115 51.3681 52.153 50.508 52.1912H50.508C50.0884 52.2098 49.6685 52.2284 49.2486 52.248H49.0985C48.9517 49.3196 48.805 46.3944 48.6582 43.4726H48.7783C49.4002 43.4726 50.0222 43.4301 50.6452 43.3876C51.3053 43.3425 51.9667 43.2974 52.6307 43.3025C52.9458 43.2967 53.2598 43.3406 53.5612 43.4325C53.9149 43.5331 54.2244 43.7496 54.4404 44.0472C54.6563 44.3447 54.766 44.7062 54.752 45.0736V45.9341C54.7836 46.201 54.7405 46.4714 54.6274 46.7153C54.5143 46.9591 54.3357 47.1667 54.1116 47.3149L54.0215 47.385ZM51.0202 50.497L50.9101 48.5558C51.0986 48.5243 51.2893 48.5075 51.4804 48.5057C51.8701 48.4757 52.2615 48.4757 52.6512 48.5057C52.7928 48.5022 52.9306 48.5515 53.0379 48.644C53.1451 48.7364 53.2142 48.8655 53.2315 49.0061C53.2664 49.2447 53.2865 49.4854 53.2916 49.7265C53.31 49.8676 53.2751 50.0104 53.1936 50.1271C53.1122 50.2437 52.9901 50.3257 52.8513 50.3569C52.5954 50.4552 52.3248 50.5093 52.0508 50.517L51.0202 50.497ZM50.7802 44.9836C50.7739 45.6321 50.8073 46.2804 50.8803 46.9248L51.5607 46.9148C51.8181 46.9266 52.0756 46.8927 52.3211 46.8147C52.4424 46.783 52.5504 46.7136 52.6295 46.6165C52.7087 46.5193 52.7549 46.3995 52.7614 46.2744C52.8114 46.0065 52.8114 45.7317 52.7614 45.4639C52.7564 45.3867 52.736 45.3113 52.7014 45.2421C52.6668 45.1729 52.6187 45.1113 52.56 45.061C52.5013 45.0106 52.433 44.9726 52.3594 44.949C52.2857 44.9254 52.2081 44.9167 52.131 44.9236C51.8697 44.9003 51.6117 44.9243 51.3512 44.9485C51.1629 44.966 50.9733 44.9836 50.7802 44.9836Z" fill="#FAFAFA"/>
<path fill-rule="evenodd" clip-rule="evenodd" d="M55.6387 51.9377L57.6399 51.8176C57.8534 51.2389 58.0305 50.6474 58.1702 50.0466L61.062 49.9165C61.1465 50.1354 61.2177 50.3558 61.2887 50.5753C61.4027 50.9279 61.5159 51.2784 61.6824 51.6176C62.0775 51.5298 62.4923 51.5206 62.9168 51.5112C63.1696 51.5055 63.4259 51.4999 63.6837 51.4775L60.5417 42.8321C60.0633 42.8213 59.5849 42.851 59.105 42.8808C58.6915 42.9064 58.2768 42.9321 57.86 42.9321L55.6387 51.9377ZM59.2118 44.8534L58.4513 48.3756L60.4025 48.2655C60.3401 48.075 60.2785 47.8851 60.2171 47.6957C59.9043 46.7312 59.5965 45.7819 59.2118 44.8534Z" fill="#FAFAFA"/>
</svg>
