<svg width="104" height="64" viewBox="0 0 104 64" fill="none" xmlns="http://www.w3.org/2000/svg">
<path d="M15.61 14.01C12.4312 14.0121 9.31024 14.8597 6.56711 16.4658C3.82398 18.072 1.55745 20.3789 0 23.15L3.77 25.27C4.95073 23.1613 6.67397 21.4067 8.76109 20.1882C10.8482 18.9697 13.2232 18.3316 15.64 18.34C17.426 18.3387 19.1947 18.6892 20.8453 19.3714C22.4958 20.0537 23.9958 21.0543 25.2596 22.3163C26.5234 23.5782 27.5263 25.0767 28.2109 26.7263C28.8956 28.3758 29.2487 30.144 29.25 31.93C29.25 35.5396 27.8161 39.0014 25.2637 41.5537C22.7114 44.1061 19.2496 45.54 15.64 45.54C13.2247 45.5411 10.8525 44.8999 8.7667 43.6822C6.68086 42.4644 4.95637 40.7139 3.77 38.61L0.0299988 40.73C1.58811 43.4983 3.85559 45.8014 6.59917 47.4026C9.34276 49.0038 12.4634 49.8451 15.64 49.84C17.9933 49.8413 20.3238 49.3791 22.4985 48.4798C24.6731 47.5804 26.6493 46.2615 28.3143 44.5984C29.9792 42.9353 31.3003 40.9606 32.2021 38.7869C33.1039 36.6133 33.5687 34.2833 33.57 31.93C33.5515 27.1682 31.6469 22.6078 28.2732 19.2473C24.8996 15.8868 20.3318 14 15.57 14" fill="#FAFAFA"/>
<path d="M19.7899 34.2902C19.3709 35.0366 18.7592 35.6568 18.0186 36.086C17.2781 36.5152 16.4358 36.7377 15.5799 36.7302C14.9483 36.7302 14.3228 36.6058 13.7392 36.364C13.1556 36.1223 12.6254 35.768 12.1787 35.3214C11.7321 34.8747 11.3778 34.3444 11.1361 33.7609C10.8943 33.1773 10.7699 32.5518 10.7699 31.9202C10.7673 31.2873 10.8898 30.6602 11.1305 30.0748C11.3712 29.4895 11.7252 28.9575 12.1722 28.5096C12.6193 28.0616 13.1505 27.7065 13.7353 27.4646C14.3202 27.2227 14.9471 27.0988 15.5799 27.1002C16.4376 27.1019 17.2794 27.3316 18.0191 27.7656C18.7588 28.1996 19.37 28.8224 19.7899 29.5702L23.5299 27.4502C22.7388 26.0242 21.5787 24.8374 20.1712 24.014C18.7637 23.1906 17.1606 22.761 15.5299 22.7702C13.1137 22.7755 10.7981 23.7383 9.09049 25.4478C7.38289 27.1573 6.42256 29.4739 6.41992 31.8902C6.41992 34.3063 7.37972 36.6235 9.08818 38.3319C10.7966 40.0404 13.1138 41.0002 15.5299 41.0002C17.1549 41.005 18.752 40.5778 20.1577 39.7625C21.5634 38.9472 22.7272 37.7731 23.5299 36.3602L19.7899 34.2902Z" fill="#FAFAFA"/>
<path d="M93.41 47.2101L92.97 45.4101H89.26L88.82 47.2101H86L90 33.3101H92.23L96.23 47.2101H93.41ZM90.8 38.9301L89.8 43.0201H92.38L91.38 38.9301C91.32 38.6701 91.26 38.3201 91.17 37.9301C91.08 37.5401 91.06 37.2601 91.06 37.0601C91.06 37.2601 91 37.5501 90.97 37.9001C90.94 38.2501 90.85 38.6001 90.77 38.9001" fill="#FAFAFA"/>
<path d="M40.8008 19.6101C40.3608 20.1301 40.1008 21.0301 40.1008 22.8301V24.3701C40.1008 26.1401 40.3608 27.0401 40.8008 27.5301C40.9682 27.7241 41.1778 27.8772 41.4135 27.9777C41.6493 28.0783 41.9049 28.1235 42.1608 28.1101C42.5969 28.1328 43.0285 28.0122 43.3896 27.7667C43.7508 27.5211 44.0216 27.164 44.1608 26.7501L46.5908 27.7501C46.2644 28.6435 45.6597 29.4086 44.8657 29.9324C44.0718 30.4563 43.1306 30.7114 42.1808 30.6601C41.0934 30.6962 40.0291 30.3414 39.1808 29.6601C37.9408 28.6601 37.3008 26.9301 37.3008 24.2901V22.6901C37.3008 20.1101 37.9408 18.4201 39.1808 17.4101C40.0368 16.7432 41.0958 16.3902 42.1808 16.4101C43.1433 16.3566 44.0966 16.6214 44.8936 17.1636C45.6906 17.7058 46.287 18.4952 46.5908 19.4101L44.1608 20.4101C44.0379 19.9793 43.774 19.6023 43.4114 19.3394C43.0488 19.0765 42.6084 18.9429 42.1608 18.9601C41.9044 18.9631 41.6513 19.0188 41.4174 19.1237C41.1834 19.2287 40.9735 19.3806 40.8008 19.5701" fill="#FAFAFA"/>
<path d="M49.6791 29.7701C48.4291 28.7701 47.7891 27.0401 47.7891 24.4001V22.7201C47.7891 20.1301 48.4291 18.4501 49.6791 17.4401C50.5403 16.783 51.5958 16.4312 52.6791 16.4401C53.7666 16.4032 54.8312 16.758 55.6791 17.4401C56.9291 18.4401 57.5591 20.1301 57.5591 22.7201V24.4901C57.5591 27.0701 56.9291 28.8101 55.6791 29.7701C54.8317 30.453 53.7667 30.808 52.6791 30.7701C51.5911 30.8098 50.5256 30.4546 49.6791 29.7701V29.7701ZM51.2691 19.6101C50.8391 20.1301 50.5791 21.0301 50.5791 22.8301V24.4001C50.5791 26.1401 50.8391 27.0701 51.2691 27.5601C51.4385 27.7543 51.6499 27.9075 51.8872 28.0079C52.1246 28.1084 52.3817 28.1536 52.6391 28.1401C52.895 28.1536 53.1506 28.1083 53.3863 28.0078C53.622 27.9072 53.8316 27.7541 53.9991 27.5601C54.4391 27.0701 54.6991 26.1401 54.6991 24.4001V22.8301C54.6991 21.0601 54.4391 20.1301 53.9991 19.6101C53.8289 19.4195 53.6188 19.2687 53.3837 19.1685C53.1487 19.0682 52.8944 19.021 52.6391 19.0301C52.3822 19.0209 52.1265 19.068 51.8898 19.1682C51.6531 19.2684 51.4412 19.4193 51.2691 19.6101" fill="#FAFAFA"/>
<path d="M64.5109 30.52L62.4209 22.9202L61.5509 30.52H58.9609L60.5909 16.6301H63.2009L65.5809 25.4202L67.9909 16.6301H70.5709L72.2009 30.52H69.6409L68.7709 22.9202L66.6809 30.52H64.5109Z" fill="#FAFAFA"/>
<path d="M74.3398 16.6301H81.7398V19.24H77.1298V22.1702H81.1298V24.78H77.1298V27.9399H81.7398V30.52H74.3398V16.6301Z" fill="#FAFAFA"/>
<path d="M84.0591 16.6201H88.4991C89.1623 16.6063 89.8203 16.74 90.4256 17.0115C91.0309 17.2831 91.5683 17.6856 91.9991 18.1901C92.9008 19.3229 93.3626 20.7436 93.2991 22.1901V24.6501C93.368 26.1835 92.9092 27.6941 91.9991 28.9301C91.572 29.4475 91.0336 29.8619 90.4242 30.1423C89.8147 30.4228 89.1499 30.5622 88.4791 30.5501H84.0391L84.0591 16.6201ZM88.1891 27.9301C88.5305 27.9471 88.8709 27.8793 89.1797 27.7328C89.4886 27.5862 89.7563 27.3654 89.9591 27.0901C90.4078 26.2863 90.6096 25.368 90.5391 24.4501V22.2501C90.6086 21.4582 90.4191 20.6651 89.9991 19.9901C89.7876 19.7284 89.5166 19.521 89.2087 19.3853C88.9008 19.2497 88.5649 19.1896 88.2291 19.2101H86.8591V27.9301H88.2291H88.1891Z" fill="#FAFAFA"/>
<path d="M97.2103 23.8501L93.3203 16.6301H96.3103L98.6003 21.04L100.87 16.6301H103.88L99.9703 23.8501V30.52H97.2103V23.8501Z" fill="#FAFAFA"/>
<path d="M40.8008 36.3001C40.3608 36.8201 40.1008 37.7201 40.1008 39.4901V41.0601C40.1008 42.8301 40.3608 43.7301 40.8008 44.2201C40.9682 44.4141 41.1778 44.5672 41.4135 44.6678C41.6493 44.7683 41.9049 44.8136 42.1608 44.8001C42.5969 44.8229 43.0285 44.7023 43.3896 44.4567C43.7508 44.2111 44.0216 43.8541 44.1608 43.4401L46.5908 44.4401C46.2627 45.3317 45.6573 46.0945 44.8635 46.6165C44.0697 47.1385 43.1294 47.3921 42.1808 47.3401C41.0934 47.3762 40.0291 47.0214 39.1808 46.3401C37.9408 45.3401 37.3008 43.6201 37.3008 40.9801V39.2901C37.3008 36.7101 37.9408 35.0301 39.1808 34.0101C40.0364 33.3425 41.0957 32.9894 42.1808 33.0101C43.1436 32.9549 44.0977 33.219 44.8951 33.7614C45.6924 34.3039 46.2885 35.0943 46.5908 36.0101L44.1608 37.0901C44.0379 36.6594 43.774 36.2823 43.4114 36.0194C43.0488 35.7565 42.6084 35.6229 42.1608 35.6401C41.9046 35.6243 41.6483 35.6686 41.4122 35.7693C41.1761 35.8699 40.9667 36.0243 40.8008 36.2201" fill="#FAFAFA"/>
<path d="M48.0801 33.3101H55.1001V35.8901H50.8401V38.8501H54.4701V41.4399H50.8401V44.6001H55.1001V47.21H48.0801V33.3101Z" fill="#FAFAFA"/>
<path d="M57.1406 33.3101H59.5706L63.3206 41.4399V33.3101H65.8406V47.21H63.4006L59.6906 39.1702V47.21H57.1406V33.3101Z" fill="#FAFAFA"/>
<path d="M69.8205 35.8901H67.2305V33.3101H75.1905V35.8901H72.6005V47.21H69.8205V35.8901Z" fill="#FAFAFA"/>
<path d="M79.4206 47.2101H76.6406V33.3101H81.0806C81.6686 33.3182 82.2487 33.4461 82.7856 33.6858C83.3226 33.9255 83.8051 34.2721 84.2037 34.7044C84.6023 35.1367 84.9086 35.6456 85.1041 36.2002C85.2996 36.7548 85.3801 37.3434 85.3406 37.9301V38.2501C85.3673 39.0405 85.1888 39.8244 84.8225 40.5254C84.4563 41.2263 83.9147 41.8205 83.2506 42.2501L85.2506 47.2501H82.4406L80.6406 42.8401H79.3606V47.2501L79.4206 47.2101ZM80.7606 40.2101C81.7606 40.2101 82.5606 39.5701 82.5606 38.0301C82.5606 36.6401 81.8006 35.9401 80.7606 35.9401H79.4206V40.2401L80.7606 40.2101Z" fill="#FAFAFA"/>
<path d="M97.2109 33.3101H99.9709V44.6001H104.001V47.21H97.2109V33.3101Z" fill="#FAFAFA"/>
</svg>
