<svg width="105" height="64" viewBox="0 0 105 64" fill="none" xmlns="http://www.w3.org/2000/svg">
<path d="M23.136 25.3137C23.136 23.4943 23.8587 21.7495 25.1452 20.4631C26.4317 19.1766 28.1765 18.4539 29.9958 18.4539H35.201V14.5684H29.9489C27.1095 14.579 24.3893 15.7116 22.3815 17.7194C20.3737 19.7272 19.2411 22.4474 19.2305 25.2868C19.2411 28.1263 20.3737 30.8464 22.3815 32.8542C24.3893 34.862 27.1095 35.9947 29.9489 36.0053H40.0511C40.3154 35.988 40.5645 35.8752 40.7518 35.6878C40.9392 35.5005 41.052 35.2514 41.0693 34.987V15.0775C41.0567 14.5628 41.2139 14.0583 41.5166 13.6418C41.8193 13.2253 42.2506 12.92 42.7441 12.7731C43.3166 12.6393 43.9177 12.7052 44.4477 12.9599C44.9777 13.2145 45.4048 13.6426 45.6581 14.1732L51.9887 25.039L58.0848 35.5498C58.3997 36.0924 58.8351 36.347 59.2505 36.2197C59.4224 36.1709 59.5723 36.0642 59.6748 35.9178C59.7773 35.7713 59.8262 35.594 59.8132 35.4158V15.0708C59.8041 14.5529 59.9668 14.0466 60.2759 13.6309C60.5849 13.2152 61.0229 12.9136 61.5214 12.7731C62.0924 12.6367 62.6928 12.7007 63.2222 12.9544C63.7515 13.2081 64.1775 13.636 64.4288 14.1665L70.2704 24.215L76.8287 35.523C77.1436 36.0723 77.5857 36.3202 77.9944 36.1929C78.165 36.1419 78.3134 36.0347 78.4155 35.8888C78.5177 35.7429 78.5676 35.5668 78.5571 35.389V9.02165H74.6917V24.7375L67.9056 13.108C63.7723 6.09416 55.9612 8.94795 55.9612 15.0374V24.838L49.1483 13.108C45.015 6.09416 37.2107 8.94795 37.2107 15.0374V31.115C37.2143 31.3982 37.1057 31.6712 36.9086 31.8746C36.7115 32.0779 36.442 32.195 36.1589 32.2003H30.0092C29.1047 32.2029 28.2087 32.0265 27.3727 31.6812C26.5367 31.3359 25.7774 30.8285 25.1384 30.1884C24.4995 29.5482 23.9936 28.7878 23.6499 27.9512C23.3062 27.1145 23.1316 26.2181 23.136 25.3137Z" fill="#FAFAFA"/>
<path d="M24.1984 25.2317C24.1984 21.4599 27.2156 18.405 30.9377 18.405H36.0497V14.5359H30.8948C25.0753 14.5359 20.3398 19.3345 20.3398 25.2317C20.3398 31.1288 25.0753 35.9274 30.8948 35.9274H40.818C41.3739 35.9274 41.8186 35.3743 41.8186 34.916V15.1069C41.8186 14.0161 42.4959 13.0943 43.5016 12.8152C44.3607 12.5796 45.5635 12.8177 46.3671 14.203C46.405 14.267 48.8435 18.5254 52.558 25.0166C55.4741 30.1122 58.4912 35.382 58.5443 35.4768C58.8551 36.0145 59.2847 36.268 59.6915 36.1553C59.9493 36.0862 60.2474 35.8327 60.2474 35.3564V15.1069C60.2474 14.0135 60.9196 13.0917 61.9228 12.8152C62.7744 12.5796 63.9721 12.8203 64.7757 14.203C64.8111 14.2645 66.9665 18.0312 70.5143 24.2253C73.6502 29.7051 76.8948 35.3718 76.9554 35.4768C77.2688 36.0145 77.6983 36.268 78.1026 36.1553C78.3604 36.0862 78.6586 35.8327 78.6586 35.359V9.12016H74.8328V24.7426C74.8328 24.7426 68.4422 13.5859 68.1466 13.0789C64.0934 6.09349 56.4242 8.97933 56.4242 14.9917V24.7426C56.4242 24.7426 50.0311 13.5859 49.738 13.0789C45.6823 6.09349 38.0131 8.97933 38.0131 14.9917V30.9701C38.0131 31.5513 37.5835 32.0583 36.9569 32.0583H30.9377C27.2156 32.0583 24.1984 29.0009 24.1984 25.2291V25.2317Z" fill="#FAFAFA"/>
<path d="M80.1894 9.12016V35.359C80.1894 36.4498 79.5122 37.3716 78.5065 37.6508C78.322 37.702 78.1199 37.7301 77.9127 37.7301C77.1495 37.7301 76.2752 37.3486 75.6435 36.2603C75.6106 36.2014 73.0686 31.7639 69.1973 25.0012C66.4051 20.1232 63.5168 15.0788 63.4637 14.9866C63.1529 14.4488 62.7284 14.1953 62.3292 14.3054C62.0765 14.3746 61.7783 14.6281 61.7783 15.1044V35.359C61.7783 36.4498 61.1036 37.3716 60.0979 37.6508C59.2387 37.8863 58.0359 37.6482 57.2324 36.2629C57.1995 36.2066 54.8368 32.0814 51.241 25.795C48.2264 20.5303 45.1107 15.0864 45.0552 14.9891C44.7418 14.4514 44.3148 14.1979 43.9079 14.3106C43.6527 14.3823 43.352 14.6332 43.352 15.1095V34.916C43.352 36.2808 42.1694 37.4741 40.8226 37.4741H30.8968C24.2334 37.4741 18.8131 31.9815 18.8131 25.2317C18.8131 18.4818 24.2334 12.9893 30.8968 12.9893H36.0517V9.12016H30.9019C22.1183 9.12016 15 16.3335 15 25.2317C15 34.1299 22.1183 41.3432 30.8994 41.3432H40.9211C44.7292 41.3457 47.1803 39.0847 47.1752 34.9109V25.7208C47.1752 25.7208 53.5658 36.88 53.8615 37.3844C57.9197 44.3699 65.5864 41.484 65.5864 35.4691V25.7208C65.5864 25.7208 71.9795 36.88 72.2726 37.3844C76.3308 44.3699 84 41.484 84 35.4691V9.12016H80.1919H80.1894Z" fill="#FAFAFA"/>
<path d="M28.4626 51.4346V54.003H30.8733C31.3357 54.003 31.6844 53.8903 31.9219 53.665C32.1569 53.4396 32.2757 53.1247 32.2757 52.7201C32.2757 52.3155 32.1569 52.0005 31.9219 51.7752C31.6844 51.5499 31.3357 51.4372 30.8733 51.4372H28.4626V51.4346ZM28.4626 47.5297V49.7523H30.5726C30.9895 49.7523 31.3079 49.6576 31.5252 49.4681C31.7425 49.2786 31.8512 49.002 31.8512 48.6333C31.8512 48.2646 31.7425 48.0008 31.5252 47.8114C31.3079 47.6219 30.9895 47.5271 30.5726 47.5271H28.4626V47.5297ZM33.1475 46.4798C33.6731 46.9023 33.9384 47.5143 33.9384 48.3158C33.9384 48.8049 33.8247 49.2274 33.5973 49.5859C33.3698 49.9444 33.0515 50.226 32.6446 50.4283V50.4411C33.7969 50.8099 34.373 51.6062 34.373 52.8276C34.373 53.4345 34.2239 53.9518 33.9232 54.3794C33.6225 54.807 33.2182 55.1322 32.7053 55.3524C32.1923 55.5726 31.6136 55.6827 30.9693 55.6827H26.3652V45.8422H30.8177C31.8436 45.8422 32.6194 46.0548 33.1475 46.4773V46.4798Z" fill="#FAFAFA"/>
<path d="M41.8859 48.8945C41.8859 47.9829 41.3603 47.5271 40.3066 47.5271H38.2901V50.2593H40.3066C41.3603 50.2593 41.8859 49.8035 41.8859 48.8919V48.8945ZM44.2208 55.0759C44.2612 55.2961 44.3219 55.4984 44.4053 55.6827H42.2548C42.1639 55.4164 42.083 54.9939 42.0097 54.4127L41.8455 53.158C41.7899 52.7252 41.6534 52.4154 41.4361 52.2259C41.2188 52.0364 40.8726 51.9417 40.4001 51.9417H38.2901V55.6827H36.1523V45.8422H40.6048C41.7672 45.8422 42.6263 46.0829 43.1848 46.5669C43.7432 47.0508 44.0212 47.732 44.0212 48.6154C44.0212 49.1941 43.8973 49.6909 43.6522 50.1057C43.4071 50.5205 43.0382 50.8329 42.5505 51.0454C42.9775 51.1939 43.2934 51.4193 43.5031 51.7214C43.7129 52.0262 43.8493 52.4205 43.9125 52.9096L44.0768 54.1233C44.1323 54.5381 44.1778 54.8557 44.2208 55.0759V55.0759Z" fill="#FAFAFA"/>
<path d="M50.4348 47.4042L49.1536 51.7931H51.8777L50.5283 47.4042H50.4323H50.4348ZM52.3148 53.4755H48.6937L48.014 55.6827H45.7246L48.9388 45.8422H52.0444L55.3269 55.6827H53.0249L52.3173 53.4755H52.3148Z" fill="#FAFAFA"/>
<path d="M62.0554 45.9139C62.6138 46.1444 63.0535 46.4773 63.3769 46.9151C63.7004 47.353 63.8596 47.8702 63.8596 48.4669H61.7218C61.6763 48.0905 61.5146 47.8011 61.2392 47.6039C60.9612 47.4068 60.5695 47.3069 60.0616 47.3069C59.5537 47.3069 59.1671 47.4144 58.8765 47.6321C58.5859 47.8498 58.4419 48.1263 58.4419 48.4669C58.4419 48.7434 58.5227 48.9636 58.6794 49.1301C58.8386 49.2965 59.0534 49.4066 59.3263 49.4604L61.8052 49.9981C63.4022 50.3489 64.2032 51.2682 64.2032 52.7585C64.2032 53.3935 64.0466 53.9466 63.7332 54.4152C63.4199 54.8838 62.9752 55.2474 62.399 55.5061C61.8229 55.7621 61.1482 55.8927 60.3775 55.8927C59.1241 55.8927 58.126 55.6187 57.3806 55.0707C56.6351 54.5228 56.2637 53.7623 56.2637 52.7867V52.6766H58.4014V52.7585C58.4014 53.1733 58.5632 53.5088 58.8841 53.7648C59.205 54.0235 59.6851 54.1515 60.3219 54.1515C60.9208 54.1515 61.3655 54.0414 61.6561 53.8212C61.9467 53.6009 62.0907 53.309 62.0907 52.9505C62.0907 52.6279 61.9897 52.377 61.7926 52.1926C61.5929 52.0082 61.2468 51.8623 60.7565 51.7496L58.6592 51.2938C57.1077 50.9635 56.3319 50.0647 56.3319 48.6026C56.3319 47.9573 56.4987 47.4068 56.8348 46.9459C57.1708 46.4849 57.6282 46.1418 58.2094 45.9114C58.7906 45.6809 59.4451 45.5657 60.1703 45.5657C60.8955 45.5657 61.4969 45.6809 62.0579 45.9114L62.0554 45.9139Z" fill="#FAFAFA"/>
<path d="M68.3511 55.6853H66.1855V45.8448H68.3511V55.6853Z" fill="#FAFAFA"/>
<path d="M73.0171 53.8903H77.5934V55.6853H70.8516V45.8448H73.0171V53.8903Z" fill="#FAFAFA"/>
</svg>
