<svg width="104" height="64" viewBox="0 0 104 64" fill="none" xmlns="http://www.w3.org/2000/svg">
<path d="M83.9512 9.94769C84.0448 7.93534 83.4604 5.94977 82.2914 4.30899C80.5417 1.98953 78.432 0.309954 75.3724 0.0900058C75.1385 0.120342 74.9008 0.0893069 74.6825 0H74.4325C74.2117 0.0796446 73.9739 0.100318 73.7426 0.0599835H30.1086C29.8773 0.100318 29.6395 0.0796446 29.4187 0H29.0388C28.9688 0.059986 28.8788 7.32221e-06 28.7988 0.069991C27.8964 0.103217 27.0038 0.26825 26.1492 0.559867C25.0484 1.02631 24.0342 1.67533 23.1496 2.47946C21.5337 3.8646 20.4692 5.78404 20.15 7.88817C20.1656 8.29029 20.1149 8.69223 20 9.0779V9.70775C20.0792 9.92867 20.0999 10.1663 20.06 10.3976C20.06 24.7609 20.06 39.1275 20.06 53.4975C20.1003 53.7288 20.0797 53.9665 20 54.1874V54.8272C20.0862 55.1094 20.1333 55.402 20.14 55.697C20.1544 56.2819 20.2555 56.8614 20.4399 57.4166C21.1829 59.337 22.4899 60.9875 24.1889 62.151C25.8879 63.3145 27.8994 63.9365 29.9586 63.9351C44.6066 63.8751 59.2646 63.9351 73.9526 63.9351C75.0576 63.998 76.1649 63.8626 77.2221 63.5351C79.198 62.8266 80.9059 61.5234 82.1109 59.8047C83.3158 58.086 83.9588 56.0363 83.9512 53.9374C83.9512 39.2408 83.9512 24.5743 83.9512 9.94769ZM76.7422 29.3831C75.8636 30.4197 74.803 31.2871 73.6126 31.9425C71.568 33.1333 69.3023 33.8953 66.9536 34.182C66.3936 34.252 66.2336 34.442 66.2436 34.9719C66.2436 36.6515 66.2436 38.3311 66.2436 40.0207C66.2436 43.02 66.2436 45.9393 66.2436 48.8986C66.2795 49.2016 66.2068 49.5075 66.0383 49.7619C65.8699 50.0164 65.6167 50.2028 65.3238 50.2882C63.4424 51.0434 61.4741 51.5606 59.4646 51.8279C57.0953 52.1888 54.7021 52.3692 52.3056 52.3678C47.76 52.4969 43.2199 51.9648 38.8274 50.7881C38.1875 50.6082 37.5876 50.3282 36.9677 50.1183C36.7118 50.05 36.4899 49.89 36.3443 49.6688C36.1986 49.4476 36.1394 49.1806 36.1778 48.9186C36.1778 44.3996 36.1778 39.9207 36.1778 35.3717C36.1778 34.422 36.1778 34.372 35.2479 34.282C33.2537 34.071 31.3258 33.4443 29.5887 32.4424C28.2402 31.683 27.1018 30.6 26.2762 29.291C25.4506 27.982 24.9637 26.4882 24.8593 24.9442C24.6363 23.1252 24.8522 21.2792 25.4889 19.5607C26.1255 17.8423 27.1645 16.3012 28.5188 15.0665C31.9584 11.9172 36.0378 11.1974 40.5172 12.3971C41.5909 12.6769 42.623 13.0971 43.5868 13.6468C43.7669 13.7733 43.9816 13.8412 44.2017 13.8412C44.4218 13.8412 44.6365 13.7733 44.8166 13.6468C46.4833 12.6125 48.345 11.9319 50.2858 11.6473C52.2687 11.4526 54.268 11.78 56.085 12.5971C56.817 12.8659 57.5232 13.2006 58.1948 13.5969C58.4347 13.7468 58.6947 13.8668 58.9546 13.5969C60.3219 12.446 62.0289 11.7751 63.814 11.6873C66.6339 11.2938 69.5077 11.681 72.1228 12.807C73.8496 13.5423 75.3512 14.7213 76.475 16.2243C77.5989 17.7273 78.3051 19.5009 78.522 21.365C78.807 22.7447 78.7939 24.1694 78.4835 25.5436C78.1731 26.9178 77.5726 28.2099 76.7222 29.3332L76.7422 29.3831Z" fill="#FAFAFA"/>
<path d="M53.7172 22.0451C53.8172 22.305 53.9672 22.3751 54.2572 22.2851C55.5903 21.8519 56.9235 21.4419 58.2566 21.0553C58.3642 21.0206 58.4597 20.9562 58.5322 20.8695C58.6047 20.7829 58.6513 20.6774 58.6666 20.5655C58.7565 20.2555 59.0365 20.1056 59.2165 20.3955C59.3965 20.6855 59.6664 20.6254 59.9264 20.5455C61.5301 20.05 63.1588 19.6395 64.8057 19.3158C65.1618 19.2408 65.5295 19.2408 65.8856 19.3158C66.3555 19.4357 66.4555 19.7257 66.0955 20.0356C65.395 20.6388 64.5003 20.9689 63.5759 20.9654C63.4259 20.9654 63.2159 20.9054 63.2459 20.7354C63.3459 20.2755 63.0959 20.3755 62.836 20.4455C61.8361 20.7454 60.7563 21.0454 59.7064 21.3253C59.6393 21.3327 59.5743 21.3534 59.5152 21.3862C59.4561 21.419 59.4041 21.4631 59.3622 21.5161C59.3204 21.5691 59.2895 21.63 59.2713 21.695C59.2532 21.7601 59.2481 21.8281 59.2565 21.8952C59.2298 24.1969 59.3534 26.4979 59.6264 28.7836C59.6517 29.2955 59.8331 29.7875 60.1463 30.1932C60.2129 30.277 60.2622 30.3732 60.2914 30.4761C60.3206 30.5791 60.329 30.6868 60.3163 30.7931C60.3163 31.123 60.3163 31.5029 59.9064 31.5729C59.4964 31.6429 59.4364 31.263 59.3465 30.983C58.9869 29.6244 58.7856 28.2288 58.7465 26.824C58.6117 25.2983 58.5616 23.7663 58.5966 22.2351C58.5966 21.7252 58.4466 21.6752 58.0166 21.8152C56.8868 22.1851 55.747 22.525 54.6071 22.8849C54.3771 22.9549 54.0672 22.9649 54.0972 23.3348C53.8972 23.5448 53.6772 23.4048 53.4673 23.3348C52.9773 23.2749 52.5874 23.5748 52.1375 23.6747C51.8575 23.7347 51.4775 24.0647 51.3376 23.5948C51.1976 23.1249 51.6775 23.1449 51.9475 23.0349C52.3774 22.855 52.8174 22.705 53.2473 22.535C53.4273 22.4451 53.3873 22.0651 53.7172 22.0451Z" fill="#FAFAFA"/>
<path d="M53.4277 23.3647C53.6277 23.1448 53.8376 23.0748 54.0576 23.3647C54.5475 25.2843 55.0574 27.1938 55.5072 29.1134C55.6172 29.6032 55.7672 29.8632 56.3371 29.7732C56.8041 29.7067 57.2802 29.7512 57.7267 29.9032C57.9067 29.9732 58.0866 30.0831 58.0467 30.3131C58.0067 30.543 57.7967 30.563 57.6068 30.543L56.3271 30.4231C55.9571 30.4231 55.8572 30.4931 55.9671 30.893C56.3751 32.4375 56.6 34.0247 56.637 35.6219C56.6522 35.7881 56.6522 35.9555 56.637 36.1217C56.637 36.3417 56.497 36.5416 56.2371 36.5616C55.9771 36.5816 55.8272 36.3617 55.7872 36.1217C55.7622 35.8691 55.7622 35.6146 55.7872 35.3619C55.8383 33.872 55.6869 32.3821 55.3373 30.9329C55.2673 30.583 55.1173 30.4831 54.7774 30.5231C54.4453 30.5622 54.1098 30.5622 53.7777 30.5231C53.7288 30.5239 53.6803 30.5138 53.6358 30.4936C53.5913 30.4734 53.5519 30.4436 53.5203 30.4063C53.4887 30.369 53.4658 30.3251 53.4533 30.2779C53.4407 30.2306 53.4388 30.1812 53.4477 30.1331C53.4476 30.0846 53.4575 30.0365 53.4769 29.9919C53.4964 29.9474 53.5248 29.9074 53.5606 29.8745C53.5963 29.8416 53.6385 29.8164 53.6845 29.8007C53.7305 29.785 53.7792 29.7791 53.8276 29.7832H54.2675C55.0773 29.8432 55.0673 29.8432 54.8674 29.0334C54.3575 27.1139 53.8976 25.2343 53.4277 23.3647Z" fill="#FAFAFA"/>
<path d="M45.3361 29.7434C45.7135 29.1982 46.1207 28.6742 46.5558 28.1737C47.1756 27.5939 47.6455 27.6639 47.9954 28.4237C48.2346 29.2025 48.7455 29.8695 49.4351 30.3033C49.4754 30.319 49.5117 30.3433 49.5417 30.3745C49.5717 30.4056 49.5947 30.4429 49.6089 30.4838C49.6231 30.5246 49.6284 30.568 49.6243 30.611C49.6202 30.6541 49.6068 30.6957 49.5851 30.7331C49.4751 30.9631 49.2651 30.9231 49.0852 30.8432C48.4401 30.5461 47.9375 30.0075 47.6855 29.3435C47.5755 29.0636 47.5755 28.6137 47.2056 28.5937C46.8357 28.5737 46.7657 29.0036 46.5858 29.2535C46.4058 29.5034 46.1459 29.9333 45.9059 30.2533C45.666 30.5732 45.486 30.7032 45.1461 30.6132C44.8062 30.5232 44.7662 30.2333 44.7162 29.9634C44.5796 29.0134 44.5328 28.0528 44.5762 27.094C44.5762 24.9046 44.5762 22.715 44.5762 20.5156C44.5621 20.3693 44.5621 20.2219 44.5762 20.0757C44.5762 19.9757 44.6662 19.8757 44.7962 19.8857C44.8508 19.8916 44.902 19.9154 44.9418 19.9534C44.9815 19.9913 45.0077 20.0414 45.0161 20.0957C45.0313 20.2853 45.0313 20.4758 45.0161 20.6655C45.0161 23.4248 45.0161 26.1942 45.1661 28.9636C45.2961 29.1735 45.3061 29.3835 45.3361 29.7434Z" fill="#FAFAFA"/>
<path d="M41.6783 30.0632H43.6778C43.8778 30.0632 44.1377 30.0632 44.1577 30.3332C44.1777 30.6031 43.9578 30.663 43.7678 30.673C41.945 30.8767 40.1021 30.8094 38.2991 30.4731C37.5593 30.2832 37.3593 29.8632 37.5593 29.1134C37.7076 28.6398 38.0337 28.2421 38.469 28.0037C39.3955 27.4778 40.3738 27.049 41.3884 26.724C41.5583 26.664 41.7983 26.584 41.9082 26.7939C42.0182 27.0039 41.7783 27.1639 41.6083 27.2539C40.9085 27.6038 40.1886 27.9337 39.4788 28.2536C39.12 28.3916 38.7958 28.6066 38.529 28.8835C38.3491 29.0934 38.1291 29.3134 38.2391 29.6133C38.3491 29.9132 38.639 29.9133 38.8889 29.9632C39.8131 30.0894 40.7475 30.1229 41.6783 30.0632V30.0632Z" fill="#FAFAFA"/>
<path d="M53.7166 22.0452C53.7166 22.3551 53.5566 22.5651 53.2067 22.5651C52.9186 21.6513 52.7538 20.7031 52.7168 19.7457C52.7168 17.5062 54.3064 16.4165 56.4159 17.2063C57.2561 17.5836 57.9758 18.1856 58.4954 18.9459C58.5559 19.0092 58.5897 19.0933 58.5897 19.1809C58.5897 19.2684 58.5559 19.3525 58.4954 19.4158C58.4627 19.4506 58.4232 19.4783 58.3794 19.4973C58.3355 19.5163 58.2883 19.526 58.2405 19.526C58.1927 19.526 58.1455 19.5163 58.1016 19.4973C58.0578 19.4783 58.0183 19.4506 57.9856 19.4158C57.7056 19.1558 57.4457 18.876 57.1858 18.586C56.9713 18.3202 56.7043 18.1013 56.4016 17.9431C56.0989 17.7849 55.7669 17.6906 55.4262 17.6662C55.1561 17.6201 54.879 17.636 54.6159 17.7126C54.3528 17.7892 54.1106 17.9246 53.9075 18.1085C53.7043 18.2924 53.5456 18.52 53.4432 18.7741C53.3409 19.0283 53.2976 19.3024 53.3167 19.5758C53.3578 20.4112 53.4919 21.2394 53.7166 22.0452V22.0452Z" fill="#FAFAFA"/>
<path d="M61.0058 26.5341C61.3458 26.5341 61.3958 26.8441 61.4557 27.094C61.6636 28.0292 62.0506 28.9153 62.5955 29.7034C62.7154 29.8933 62.8554 30.1533 63.1054 30.1233C63.3553 30.0933 63.3853 29.7834 63.4253 29.5634C63.6141 28.6292 63.9806 27.7399 64.505 26.944C64.6025 26.7803 64.7238 26.6321 64.8649 26.5041C64.9431 26.4296 65.0469 26.3879 65.1549 26.3879C65.2629 26.3879 65.3667 26.4296 65.4448 26.5041C65.4882 26.5357 65.5235 26.577 65.5478 26.6248C65.5722 26.6725 65.5848 26.7255 65.5848 26.7791C65.5848 26.8327 65.5722 26.8856 65.5478 26.9333C65.5235 26.9811 65.4882 27.0224 65.4448 27.054C64.6459 27.7999 64.1212 28.793 63.9552 29.8733C63.9552 29.9333 63.9552 30.0033 63.9052 30.0633C63.7352 30.4632 63.6352 31.0031 63.1353 31.0631C62.6355 31.123 62.4955 30.5832 62.2656 30.2432C61.5663 29.3034 61.0724 28.227 60.8159 27.084C60.7559 26.8641 60.6959 26.6341 61.0058 26.5341Z" fill="#FAFAFA"/>
<path d="M52.2242 29.5738C51.6179 29.5899 51.014 29.4916 50.4442 29.2838C50.9153 29.2265 51.3743 29.0948 51.8042 28.8938C52.0425 28.7657 52.2241 28.5528 52.3129 28.2973C52.4018 28.0417 52.3916 27.7621 52.2842 27.5138C52.1957 27.272 52.0174 27.0737 51.7865 26.9601C51.5555 26.8465 51.2896 26.8263 51.0442 26.9038C50.7208 26.9746 50.4189 27.1213 50.1634 27.3316C49.9078 27.542 49.7059 27.81 49.5742 28.1137C49.4925 28.2714 49.4443 28.4443 49.4325 28.6214C49.4208 28.7986 49.4457 28.9763 49.5058 29.1434C49.5659 29.3105 49.6598 29.4634 49.7817 29.5925C49.9036 29.7216 50.0508 29.8242 50.2142 29.8938C50.8446 30.165 51.5287 30.2882 52.2142 30.2537C52.4542 30.2537 52.6442 30.1538 52.6642 29.9038C52.6842 29.6538 52.4442 29.5838 52.2242 29.5738ZM50.1342 28.6538C50.1576 28.382 50.2673 28.1248 50.4472 27.9197C50.6271 27.7146 50.8678 27.5724 51.1342 27.5138C51.3842 27.4338 51.6042 27.4338 51.7342 27.6938C51.7642 27.7511 51.7822 27.814 51.7868 27.8786C51.7914 27.9431 51.7827 28.008 51.7611 28.069C51.7395 28.13 51.7055 28.1859 51.6613 28.2332C51.6171 28.2805 51.5636 28.3181 51.5042 28.3438C51.0807 28.5602 50.6096 28.6668 50.1342 28.6538V28.6538Z" fill="#FAFAFA"/>
</svg>
