<svg width="105" height="26" viewBox="0 0 105 26" fill="none" xmlns="http://www.w3.org/2000/svg">
<path fill-rule="evenodd" clip-rule="evenodd" d="M95.6417 13.6581L95.6415 13.6581L94.2336 13.4455C94.211 13.5738 94.1899 13.7018 94.1688 13.8293L94.1688 13.8295C94.1235 14.1037 94.0786 14.376 94.0204 14.6454C93.5402 16.8604 91.896 18.4488 89.7685 18.7621C86.9539 19.1772 84.6684 17.758 83.9198 15.0308C83.3496 12.9584 83.5012 10.9188 84.7774 9.11583C86.0457 7.32224 87.881 6.70662 90.0149 7.0763C92.1029 7.43972 93.3475 8.77748 93.9524 10.7465C93.9761 10.8233 93.9967 10.9 94.0156 10.9768C94.1262 11.4227 94.4073 11.6138 94.859 11.5501C95.049 11.5232 95.2389 11.4967 95.4288 11.4701L95.4291 11.4701L95.4294 11.4701C96.0131 11.3885 96.5963 11.3071 97.1777 11.2149C97.4636 11.1695 97.5662 11.2478 97.5678 11.5423C97.57 11.9892 97.5885 12.4362 97.607 12.8825C97.6149 13.0729 97.6228 13.2632 97.6294 13.4534C97.6324 13.5454 97.6316 13.638 97.6306 13.748V13.7485V13.7493C97.63 13.8112 97.6294 13.8787 97.6294 13.9546L97.6278 13.9578C96.9501 13.8557 96.2958 13.7569 95.6443 13.6585L95.6417 13.6581ZM92.4567 11.8947C92.3193 10.9737 92.0113 10.1544 91.4316 9.45105C90.574 8.41092 89.4447 8.1086 88.1559 8.36863C87.0013 8.60047 86.2747 9.36646 85.812 10.3941C85.2828 11.572 85.1739 12.8064 85.3871 14.0705C85.5403 14.9744 85.8767 15.8015 86.5022 16.4907C87.7452 17.8614 89.8948 17.9131 91.2042 16.6051C91.8834 15.9268 92.234 15.0825 92.4109 14.1598C92.4515 13.9455 92.4748 13.7276 92.4984 13.5071V13.507L92.4984 13.5066L92.4985 13.5063L92.4985 13.506C92.5097 13.4013 92.5209 13.296 92.5341 13.1902L91.2117 12.9861L91.2091 12.9858C90.3071 12.8467 89.4222 12.7102 88.5381 12.573L88.5395 12.5621C88.5437 12.5284 88.5479 12.4957 88.5507 12.4618L92.4551 11.8932L92.4567 11.8947ZM69.2698 15.059C69.1322 15.4679 68.9945 15.8774 68.855 16.2871V16.2855C68.851 16.2747 68.8467 16.2636 68.8422 16.2523L68.8314 16.225L68.8313 16.2249C68.8162 16.1871 68.8004 16.1473 68.7871 16.1069C67.8142 13.2278 66.8413 10.3486 65.8746 7.46791C65.8067 7.26427 65.6977 7.17812 65.4766 7.18595L65.411 7.18821C65.0202 7.20172 64.6256 7.21537 64.2367 7.18125C63.8608 7.14835 63.7708 7.31283 63.7518 7.64179C63.6982 8.57739 63.632 9.51413 63.5658 10.4501L63.5658 10.4504L63.5307 10.947C63.4781 11.6921 63.4252 12.4373 63.3722 13.1826L63.3721 13.1851L63.3719 13.1874L63.3718 13.1894L63.3716 13.1913L63.3715 13.1931L63.3713 13.1956L63.3712 13.1979L63.3711 13.1982L63.3711 13.1986L63.3711 13.1991L63.371 13.1996L63.371 13.2002L63.371 13.2008L63.3709 13.2015L63.3709 13.2022C63.2605 14.7555 63.1502 16.3092 63.0427 17.8629C63.0321 18.0258 63.035 18.1893 63.0381 18.3615V18.3616V18.3618V18.3619V18.362V18.3621V18.3623V18.3624V18.3625V18.3627C63.0396 18.4469 63.0411 18.5333 63.0411 18.6227C63.1736 18.6227 63.3015 18.6216 63.4262 18.6206C63.7014 18.6183 63.9612 18.6161 64.2209 18.6258C64.4468 18.6352 64.521 18.5396 64.5321 18.3282C64.6215 16.6797 64.7136 15.0312 64.8058 13.3827L64.8062 13.376L64.8062 13.3758L64.8062 13.3756L64.8062 13.3753L64.8062 13.3749L64.8063 13.3745L64.8063 13.3741L64.8063 13.3738L64.8063 13.3734C64.8524 12.5484 64.8986 11.7234 64.9443 10.8985C64.9664 10.501 64.984 10.1035 65.0019 9.69715C65.0123 9.463 65.0228 9.22592 65.0344 8.98424C65.0718 9.12083 65.1063 9.25452 65.1402 9.3859C65.2093 9.65381 65.276 9.91205 65.3597 10.1654L65.501 10.5938C66.2846 12.9698 67.0681 15.3455 67.8726 17.7141C67.9308 17.8852 67.9721 18.0221 68.005 18.1315L68.0051 18.1317C68.0728 18.3565 68.1056 18.4653 68.1787 18.5167C68.2472 18.5648 68.3511 18.5627 68.5523 18.5585C68.6784 18.5558 68.8427 18.5524 69.0604 18.56C69.2768 18.5678 69.3936 18.4973 69.4663 18.289C70.4504 15.5052 71.4399 12.7242 72.4299 9.94201L72.4321 9.93571L72.6536 9.3132C72.6708 9.26505 72.6906 9.2169 72.7109 9.16752L72.7111 9.16702C72.7225 9.13945 72.7339 9.11149 72.7452 9.08293L72.8034 10.2671L72.8034 10.268L72.8035 10.2693L72.8036 10.2715L72.8038 10.275C72.8881 11.9933 72.972 13.7021 73.058 15.4099C73.0744 15.7333 73.0925 16.0565 73.1106 16.3796L73.1106 16.3799L73.1106 16.3803L73.1107 16.3807L73.1107 16.3811L73.1107 16.3815L73.1107 16.3818L73.1108 16.3822L73.1108 16.3826C73.1449 16.9912 73.179 17.5994 73.2017 18.2076C73.2127 18.5161 73.2996 18.6665 73.6424 18.6321C73.9156 18.6039 74.1936 18.6133 74.4684 18.6305C74.729 18.6477 74.8111 18.5506 74.7922 18.2953C74.7511 17.7644 74.7187 17.2328 74.6864 16.7011L74.6863 16.7008L74.6863 16.7006L74.6863 16.7004L74.6863 16.7002L74.6862 16.7L74.6862 16.6997L74.6862 16.6995L74.6862 16.6993C74.6688 16.4142 74.6514 16.129 74.6327 15.8438C74.5887 15.1632 74.5438 14.4826 74.499 13.802C74.4391 12.8942 74.3793 11.9864 74.3215 11.0786C74.2449 9.88777 74.1776 8.69541 74.1104 7.50456L74.1103 7.50416L74.1103 7.50375L74.1103 7.50333L74.1103 7.50289L74.1102 7.50244L74.1102 7.50196L74.1102 7.50148L74.1102 7.50098L74.1083 7.46791C74.0972 7.26897 74.0151 7.18595 73.8098 7.18908C73.3375 7.19848 72.8668 7.20318 72.3962 7.18751C72.1687 7.17968 72.0755 7.27837 72.0029 7.47574C71.7744 8.0968 71.5422 8.71639 71.31 9.33596L71.3098 9.33654L71.3095 9.33714C70.9544 10.2846 70.5994 11.232 70.2576 12.1845C69.9162 13.1376 69.5935 14.0969 69.2698 15.059ZM33.3603 14.2618L33.3612 14.2592L33.3617 14.258C34.1757 12.0263 34.9897 9.7947 35.7944 7.56034C35.8971 7.27524 36.0345 7.16403 36.3377 7.18439C36.7152 7.20945 37.099 7.21728 37.4749 7.18282C37.8524 7.14836 37.944 7.31127 37.9567 7.64649C37.9755 8.15654 38.0105 8.66581 38.0456 9.17486L38.0456 9.17498L38.0456 9.1751L38.0456 9.17522L38.0456 9.17534L38.0456 9.17546L38.0456 9.17558L38.0456 9.1757L38.0456 9.17583C38.0606 9.39344 38.0756 9.611 38.0893 9.82857L38.5963 18.0118C38.5997 18.0655 38.6022 18.1192 38.6047 18.1729C38.6081 18.2445 38.6115 18.3161 38.6169 18.3877C38.6311 18.5631 38.5553 18.6336 38.3768 18.6289C38.3255 18.6276 38.2741 18.6261 38.2227 18.6245C37.9637 18.6167 37.7035 18.6088 37.4465 18.6336C37.1101 18.665 37.0437 18.5115 37.0343 18.2185C37.0195 17.7643 36.9923 17.3101 36.9652 16.8559L36.9652 16.8557C36.9489 16.5831 36.9326 16.3106 36.919 16.038L36.9166 15.9914L36.9165 15.9908L36.9165 15.9902L36.9165 15.9896L36.9165 15.9891L36.9164 15.9885L36.9164 15.9879L36.9164 15.9874L36.9163 15.9868C36.8193 14.0834 36.7223 12.1816 36.6347 10.2781C36.6208 9.99136 36.6242 9.70315 36.6279 9.38774L36.6279 9.38735C36.6296 9.23427 36.6315 9.07478 36.6315 8.90593C36.5077 9.27438 36.3883 9.63484 36.2709 9.9894C36.0065 10.788 35.752 11.5566 35.4785 12.3192C35.0644 13.4746 34.6407 14.6267 34.217 15.7788L34.2168 15.7795C33.9133 16.6047 33.6098 17.4299 33.3099 18.2561C33.2262 18.4848 33.1109 18.5694 32.8614 18.5663L32.8223 18.566C31.997 18.5602 31.9822 18.5601 31.7162 17.758C30.8144 15.0355 29.9188 12.3114 29.0233 9.58577C29.0128 9.55418 29.003 9.52243 28.9931 9.49061L28.9931 9.49046C28.9599 9.38346 28.9266 9.27566 28.8669 9.17066C28.8585 9.34552 28.8507 9.52038 28.8428 9.69524L28.8427 9.69713C28.8269 10.048 28.8111 10.3988 28.7911 10.7497C28.7509 11.4608 28.7103 12.1719 28.6696 12.883C28.5679 14.661 28.4662 16.439 28.3726 18.217C28.3552 18.5365 28.2478 18.6634 27.9193 18.6305C27.6571 18.6054 27.3901 18.6133 27.1264 18.6289C26.8958 18.6415 26.8231 18.5506 26.8405 18.3297C26.8754 17.8674 26.9066 17.4045 26.9378 16.9417L26.9378 16.9416L26.9378 16.9416L26.9378 16.9415L26.9378 16.9415L26.9378 16.9414L26.9378 16.9414L26.9378 16.9413L26.9378 16.9413C26.9602 16.6093 26.9826 16.2773 27.0063 15.9456C27.0463 15.3882 27.0875 14.8313 27.1287 14.2745C27.1688 13.7312 27.209 13.1881 27.248 12.6451C27.3585 11.1146 27.4691 9.58264 27.5781 8.05221C27.5781 8.04531 27.5793 8.03841 27.5807 8.03113C27.5814 8.02683 27.5822 8.02239 27.5828 8.01775C27.6355 7.46635 27.9456 7.19066 28.5131 7.19066C28.5903 7.19066 28.6677 7.19226 28.745 7.19387C28.9209 7.19753 29.0968 7.20119 29.2713 7.18596C29.5287 7.16403 29.6314 7.27994 29.7103 7.50551C29.9793 8.27769 30.2577 9.04682 30.5362 9.81599L30.5362 9.816L30.5362 9.81602C31.2959 11.9148 32.0558 14.0139 32.6244 16.1759C32.6291 16.1943 32.6354 16.2123 32.6426 16.2302C32.8817 15.574 33.121 14.9179 33.3603 14.2618ZM39.1289 18.453C39.1153 18.5064 39.1008 18.5635 39.0841 18.6258V18.6274C39.2185 18.6274 39.3482 18.6258 39.4743 18.6242C39.7617 18.6207 40.0314 18.6173 40.3003 18.6337C40.5877 18.6509 40.7283 18.56 40.8167 18.2765C40.964 17.8014 41.1208 17.3296 41.2776 16.8579L41.2778 16.8576L41.2779 16.8572L41.278 16.8567L41.2781 16.8565C41.4406 16.3676 41.6031 15.8788 41.7549 15.3864C41.8386 15.1138 41.9682 15.0371 42.2398 15.0402C43.3423 15.0543 44.4447 15.0559 45.5472 15.0386C45.8078 15.0339 45.9026 15.1279 45.9768 15.3566C46.3022 16.3513 46.6433 17.3413 46.9877 18.3298C47.024 18.4363 47.1172 18.6039 47.1898 18.607C47.5732 18.6248 47.9575 18.6229 48.3543 18.6209C48.4823 18.6202 48.6115 18.6196 48.7424 18.6196C48.7331 18.58 48.7258 18.5475 48.7196 18.5199C48.7069 18.4633 48.6988 18.4272 48.6871 18.3924L48.3375 17.3715L48.3369 17.3699L48.3364 17.3683L48.3358 17.3667L48.3353 17.3651L48.3341 17.3618C47.9832 16.3369 47.6324 15.3126 47.2799 14.2883C47.0141 13.5154 46.7479 12.7428 46.4816 11.9704L46.4803 11.9665L46.4785 11.9614L46.4772 11.9575L46.477 11.9569L46.4768 11.9564L46.4767 11.956L46.4767 11.956L46.4766 11.9559L46.4766 11.9558C45.9659 10.474 45.4552 8.99233 44.9486 7.50866C44.8712 7.28152 44.7685 7.17187 44.5111 7.18597C44.1225 7.2079 43.7292 7.20946 43.3407 7.18597C43.0627 7.16874 42.9348 7.27056 42.8463 7.53059C41.931 10.2195 41.0103 12.9075 40.0896 15.5952L40.0888 15.5975L40.0882 15.5991L40.0877 15.6006L40.0869 15.6031L40.084 15.6114C39.7928 16.4616 39.5015 17.3119 39.2104 18.1621C39.1798 18.2522 39.1562 18.3451 39.1289 18.453ZM44.6294 11.1891L44.638 11.2154L44.6473 11.2434L44.6572 11.2737L44.6675 11.3048C44.936 12.1208 45.2101 12.9534 45.4856 13.7917H42.2509C42.7021 12.3965 43.1492 11.017 43.5755 9.70137L43.576 9.69987L43.5763 9.69909L43.8556 8.83702C44.1048 9.59512 44.3632 10.3804 44.6272 11.1823L44.6278 11.1842L44.6294 11.1891ZM61.8066 13.2936H57.3826V17.3021H57.7854C58.1451 17.3021 58.5048 17.3028 58.8644 17.3034C59.883 17.3052 60.9013 17.307 61.9203 17.2943C62.2457 17.2896 62.3294 17.3961 62.3263 17.7032L62.3259 17.7359C62.3215 18.1788 62.3192 18.4013 62.2068 18.5131C62.0934 18.6258 61.868 18.6258 61.4149 18.6258H56.247H55.811C55.8075 18.5728 55.8031 18.5243 55.799 18.4788L55.799 18.4784L55.7989 18.4783C55.792 18.4016 55.7858 18.3333 55.7858 18.2655L55.786 16.3206C55.7864 13.4052 55.7869 10.4898 55.7779 7.57443C55.7779 7.27994 55.8505 7.18282 56.1601 7.18438C58.0096 7.19848 59.8576 7.19692 61.7071 7.18438C62.0009 7.18282 62.0751 7.28777 62.0783 7.56033L62.0785 7.58334C62.0831 8.0448 62.0855 8.27791 61.9701 8.39567C61.8523 8.51587 61.6118 8.51587 61.1259 8.51587C60.8266 8.51587 60.5274 8.51642 60.2281 8.51696C59.3902 8.51848 58.5522 8.52 57.7143 8.50961C57.4395 8.50647 57.3321 8.56913 57.3384 8.86519C57.3557 9.80977 57.3526 10.7559 57.3384 11.7005C57.3352 11.9574 57.4173 12.0326 57.6732 12.031C58.2793 12.0257 58.8849 12.0259 59.4906 12.0261C60.1367 12.0263 60.7827 12.0265 61.4291 12.02C61.7119 12.0169 61.8256 12.1015 61.8082 12.3882C61.795 12.5904 61.7979 12.7934 61.8008 13.0055V13.0055V13.0056V13.0057V13.0057V13.0058C61.8021 13.0992 61.8035 13.1944 61.8035 13.292L61.8066 13.2936ZM77.6831 14.1449V14.5373C77.6831 14.8682 77.6827 15.199 77.6822 15.5299C77.681 16.4397 77.6797 17.3495 77.6879 18.2593C77.691 18.5318 77.6247 18.6556 77.3262 18.6321C77.0403 18.6086 76.7512 18.6133 76.4654 18.6321C76.2079 18.6493 76.1289 18.5569 76.1321 18.3031C76.1412 17.5146 76.1396 16.7252 76.1381 15.9362V15.9361V15.9359V15.9357V15.9356C76.1374 15.6323 76.1368 15.3291 76.1368 15.0261C76.1368 14.4583 76.1372 13.8905 76.1375 13.3226V13.3225V13.3224V13.3222V13.3221C76.1387 11.4772 76.1398 9.63189 76.1289 7.78748C76.1274 7.46792 76.1984 7.31911 76.5412 7.27994C77.9358 7.12173 79.3321 6.98232 80.7172 7.30657C82.2382 7.66373 83.1733 8.68976 83.3044 10.087C83.4607 11.7537 82.7405 13.0523 81.2937 13.7087C80.226 14.1927 79.1015 14.2444 77.9564 14.1489C77.9279 14.1465 77.8995 14.1422 77.8711 14.1379C77.8426 14.1336 77.8142 14.1293 77.7858 14.1269C77.7727 14.126 77.7596 14.1289 77.738 14.1337C77.7241 14.1368 77.7065 14.1407 77.6831 14.1449ZM77.6821 11.1209C77.6826 10.9643 77.6831 10.8076 77.6831 10.651H77.6815C77.6815 10.4992 77.6811 10.3474 77.6806 10.1956V10.1948C77.6792 9.70931 77.6778 9.22382 77.691 8.73832C77.6942 8.6412 77.8047 8.47515 77.8821 8.46419C78.645 8.35453 79.411 8.31067 80.1692 8.51431C81.0442 8.74928 81.6096 9.3508 81.7107 10.1575C81.8465 11.24 81.4596 12.1046 80.6146 12.5385C79.7396 12.9881 78.8014 12.9803 77.86 12.8315C77.7858 12.8189 77.6942 12.6357 77.691 12.5291C77.6792 12.0604 77.6806 11.5908 77.6821 11.1209ZM15.4748 17.0279C15.5021 17.1366 15.5301 17.2415 15.5575 17.3438L15.5575 17.3439L15.5575 17.3439L15.5575 17.344C15.6268 17.6031 15.6918 17.8461 15.7291 18.0931C15.7433 18.1824 15.6075 18.3657 15.5111 18.3891C15.4289 18.4099 15.3466 18.431 15.2641 18.4521L15.2639 18.4522C14.737 18.5871 14.2062 18.7229 13.6695 18.7839C12.6381 18.9014 11.6083 18.8528 10.6085 18.516C8.93273 17.9505 7.82396 16.8243 7.30906 15.1591C6.83364 13.624 6.85102 12.0763 7.43226 10.5678C8.25357 8.43273 10.2784 7.05582 12.6318 6.99002C13.5779 6.96339 14.5145 7.01352 15.4148 7.34404C15.8255 7.49442 15.8365 7.52262 15.6991 7.94243C15.642 8.11535 15.5836 8.28762 15.5277 8.45249C15.497 8.54302 15.467 8.63131 15.4385 8.71626C15.2532 8.67531 15.0722 8.6305 14.8939 8.58633C14.5265 8.49536 14.17 8.40707 13.8085 8.36068C11.2672 8.03799 9.09542 9.28802 8.7353 12.0387C8.58367 13.1995 8.65317 14.3352 9.19966 15.3956C9.82986 16.6175 10.8739 17.2503 12.2243 17.4399C13.3283 17.595 14.3913 17.4305 15.4748 17.0279ZM47.3484 8.52058H50.351V8.97798L50.3508 10.6989C50.3506 12.9939 50.3503 15.2895 50.3541 17.5841C50.3541 17.6651 50.3491 17.7526 50.3441 17.8415C50.3282 18.1203 50.3116 18.4123 50.4457 18.5584C50.5579 18.6799 50.8312 18.6593 51.0986 18.6391L51.0987 18.6391C51.2039 18.6312 51.3081 18.6234 51.4013 18.6242C51.9099 18.6289 51.9099 18.6258 51.9099 18.1339L51.9101 16.2846V16.2812C51.9106 13.814 51.9111 11.3461 51.9036 8.8793C51.902 8.5989 51.9778 8.50805 52.2684 8.51431C52.9249 8.52774 53.5807 8.52518 54.2368 8.52262C54.4993 8.5216 54.7619 8.52058 55.0245 8.52058C55.1077 8.52058 55.1901 8.51559 55.2834 8.50993C55.3284 8.50721 55.3759 8.50433 55.4273 8.50178C55.4273 8.40448 55.4252 8.30989 55.4231 8.21737L55.4231 8.217C55.4184 8.01177 55.414 7.81668 55.4336 7.62456C55.47 7.27681 55.3483 7.18125 54.9961 7.18282C53.1695 7.19457 51.3437 7.1931 49.5181 7.19163C48.9097 7.19114 48.3012 7.19065 47.6927 7.19065C47.121 7.19065 46.8356 7.47053 46.8367 8.03028C46.8377 8.35714 47.0083 8.52058 47.3484 8.52058ZM18.2289 17.3021C18.7216 17.3021 19.2081 17.3018 19.6905 17.3014H19.6908C20.6432 17.3007 21.5794 17.3001 22.5155 17.3021C22.5945 17.3023 22.6635 17.3012 22.7238 17.3002C22.9223 17.297 23.0267 17.2953 23.081 17.3466C23.1413 17.4035 23.1401 17.5256 23.1374 17.783C23.137 17.827 23.1365 17.8749 23.1363 17.9272C23.1359 18.0147 23.1367 18.0915 23.1373 18.1587C23.1397 18.4061 23.1409 18.5249 23.0821 18.5808C23.0278 18.6324 22.9221 18.6302 22.7187 18.6258C22.6436 18.6242 22.555 18.6222 22.4508 18.6227C21.7299 18.6252 21.0089 18.6247 20.2877 18.6242H20.2877C19.2059 18.6234 18.1241 18.6227 17.0427 18.6321C16.7158 18.6352 16.6416 18.5271 16.6416 18.2232C16.651 14.683 16.651 11.1428 16.6416 7.60263C16.6416 7.26898 16.7426 7.15776 17.0712 7.18596C17.3555 7.21102 17.6445 7.20005 17.932 7.18909C18.1357 7.18126 18.2336 7.25488 18.2273 7.46165C18.2243 7.53435 18.2258 7.60642 18.2272 7.67867V7.6787C18.2281 7.72007 18.2289 7.7615 18.2289 7.80314V16.887V17.3021ZM23.8853 11.5446C23.8849 11.9857 23.8846 12.4266 23.8846 12.8675L23.883 12.8691C23.883 13.2615 23.8828 13.6541 23.8826 14.0467C23.882 15.2243 23.8814 16.4027 23.8861 17.581C23.8861 17.6608 23.8814 17.7469 23.8766 17.8343C23.8611 18.1139 23.8449 18.4074 23.9809 18.5553C24.0936 18.6784 24.3688 18.6582 24.6373 18.6385C24.7413 18.6309 24.8443 18.6234 24.9365 18.6242C25.4593 18.6305 25.4593 18.6258 25.4593 18.1089V7.6935C25.4593 7.67046 25.4589 7.64743 25.4586 7.62446C25.4579 7.57868 25.4572 7.53314 25.4593 7.48829C25.4687 7.27839 25.3913 7.175 25.1592 7.18753C24.8606 7.2032 24.5606 7.20946 24.2636 7.18596C23.9556 7.1609 23.8767 7.27839 23.8782 7.57445C23.8877 8.8974 23.8865 10.2212 23.8853 11.5446Z" fill="#FAFAFA"/>
</svg>
