<svg width="104" height="64" viewBox="0 0 104 64" fill="none" xmlns="http://www.w3.org/2000/svg">
<path d="M86.1298 0.0528467L86.7787 0.170945C87.9489 0.3187 89.0428 0.831258 89.9052 1.63589C89.9612 1.69404 90.032 1.73559 90.11 1.75639C90.188 1.77719 90.2702 1.77631 90.3477 1.75375C90.6885 1.66831 91.0449 1.66568 91.387 1.74607C91.729 1.82646 92.0469 1.98751 92.3141 2.21582C92.6544 2.47339 92.9233 2.81373 93.0953 3.20429C93.2674 3.59486 93.3369 4.02274 93.2972 4.44768C93.2847 4.52172 93.2961 4.598 93.3297 4.66516C93.3632 4.73232 93.4173 4.78701 93.484 4.82142C93.872 5.05445 94.1905 5.38706 94.4066 5.78469C94.6227 6.18232 94.7285 6.63052 94.713 7.08281C94.7149 7.50353 94.6104 7.91777 94.4093 8.28732C94.2082 8.65686 93.917 8.96965 93.5627 9.19658C93.3096 9.36253 93.0469 9.5135 92.7762 9.64881C92.5402 9.78645 92.5402 9.80605 92.5697 10.0715C92.6798 10.9836 92.5644 11.9088 92.2335 12.7659C91.9027 13.623 91.3665 14.3859 90.6721 14.9875C90.4942 15.1541 90.2998 15.3025 90.092 15.4301L75.9144 24.9768L60.3997 35.4281L52.5341 40.7571C51.6787 41.3698 50.7379 41.8535 49.7419 42.1925C48.5504 42.5796 47.2926 42.72 46.0451 42.6054C44.2184 42.4585 42.4732 41.7862 41.02 40.6697C39.5668 39.5532 38.4676 38.0403 37.8551 36.3131C37.1865 34.4352 36.5769 32.5475 35.8887 30.6794C35.583 29.7204 35.0306 28.8585 34.2868 28.1804C33.5431 27.5022 32.6342 27.0314 31.6511 26.8153C30.7836 26.5937 29.8763 26.5789 29.002 26.7718C28.1277 26.9648 27.3109 27.3603 26.6172 27.9264L26.2731 28.2017C26.1449 28.2927 25.9968 28.3515 25.8412 28.3734C25.6856 28.3953 25.5271 28.3795 25.3788 28.3275C25.2305 28.2755 25.0968 28.1888 24.989 28.0745C24.8811 27.9602 24.8023 27.8218 24.759 27.6708C24.6927 27.4247 24.7171 27.163 24.8278 26.9334C25.1039 26.306 25.2957 25.6448 25.398 24.967C25.4687 24.5044 25.5147 24.0382 25.5357 23.5707C25.5357 23.0988 25.5357 22.5876 25.5357 22.1451C25.5601 20.7046 25.9591 19.2954 26.6935 18.0559C27.4279 16.8164 28.4723 15.7894 29.7241 15.076C30.7016 14.4784 31.7998 14.1055 32.9391 13.9846C35.0495 13.697 37.1891 14.2399 38.9071 15.4987C39.674 16.0493 40.3917 16.6786 41.1193 17.2784L45.052 20.5426C46.0382 21.3646 47.2392 21.8866 48.5129 22.047C49.8006 22.2576 51.1214 22.1061 52.3281 21.6096C53.5347 21.1131 54.5796 20.2908 55.3461 19.2349C56.2809 18.0395 56.924 16.6424 57.224 15.1548C57.2876 14.782 57.451 14.4335 57.6969 14.1461C57.9427 13.8588 58.2617 13.6432 58.6201 13.5225L65.5614 10.9172L74.6363 7.50551L84.1831 3.91672L87.4079 2.70742L87.7914 2.54035C87.6242 2.45186 87.5357 2.38309 87.4374 2.34376C86.7526 2.04756 85.9899 1.98205 85.2646 2.15701C84.3994 2.38314 83.5342 2.63877 82.6788 2.8944L74.9804 5.15555L67.6949 7.30892L60.0752 9.54079L59.269 9.78659C58.7559 9.96116 58.1954 9.93186 57.7032 9.70497C57.211 9.47809 56.8247 9.07072 56.6242 8.5672C55.6479 6.2635 53.8847 4.38187 51.6493 3.25806C50.5428 2.68029 49.3398 2.31052 48.0999 2.16685C46.0412 1.89817 43.9489 2.24005 42.0828 3.15004C41.0919 3.63583 40.1802 4.2689 39.379 5.02785L35.7805 8.40997C35.3475 8.81422 34.8332 9.12143 34.2721 9.31131C33.7109 9.50119 33.1157 9.56949 32.5262 9.51126C32.192 9.47259 31.8626 9.40015 31.543 9.29499L26.3812 7.80052C25.0852 7.42999 23.7311 7.30647 22.3895 7.43662C19.6001 7.63818 16.9793 8.84723 15.0155 10.8384C13.2397 12.566 12.0792 14.8282 11.712 17.2784C11.4025 19.0927 11.529 20.9547 12.0812 22.7104C12.6334 24.4662 13.5954 26.0653 14.8877 27.3758C15.1053 27.573 15.2535 27.835 15.3105 28.123C15.3306 28.3236 15.2885 28.5254 15.19 28.7013C15.0915 28.8771 14.9414 29.0185 14.7599 29.1062C14.5722 29.2041 14.3579 29.2388 14.1488 29.2051C13.9398 29.1714 13.7472 29.0714 13.5997 28.9195C13.125 28.4308 12.6786 27.9153 12.2626 27.3758C10.9273 25.6226 10.0489 23.565 9.7063 21.3881C9.55095 20.5354 9.48832 19.6685 9.5195 18.8024C9.56583 16.4201 10.2333 14.0912 11.4559 12.0461C12.6785 10.0009 14.4139 8.31028 16.4903 7.14162C17.9692 6.26591 19.6124 5.70375 21.3178 5.48992C21.9363 5.39482 22.5603 5.33907 23.1859 5.32286C24.6654 5.31717 26.1373 5.53588 27.5512 5.97168C29.1342 6.45344 30.7269 6.90563 32.3197 7.36773C32.7196 7.48066 33.1428 7.4818 33.5433 7.37085C33.9438 7.2599 34.3061 7.04122 34.5909 6.7386L36.9112 4.5461C37.6289 3.87753 38.3172 3.16963 39.1037 2.57972C40.7671 1.32751 42.7112 0.500654 44.7669 0.170945C45.6339 0.0252916 46.5139 -0.0275973 47.392 0.0134806C49.7806 0.119149 52.0896 0.903633 54.0482 2.27487C54.1344 2.3431 54.2349 2.39097 54.3422 2.41481C54.4494 2.43865 54.5607 2.43798 54.6677 2.41265L59.9474 1.31136C61.4615 1.00657 62.956 0.672353 64.4701 0.39706C64.8164 0.337159 65.1714 0.350125 65.5125 0.435226C65.8535 0.520326 66.173 0.675697 66.4506 0.891296C66.7282 1.10689 66.9578 1.3779 67.1246 1.68726C67.2915 1.99661 67.392 2.33734 67.4197 2.68773C67.4638 3.21429 67.3581 3.74264 67.1149 4.21173C66.9477 4.52635 66.8101 4.8508 66.6626 5.19492C66.6626 5.26374 66.6134 5.35227 66.5643 5.48008L66.8789 5.48992L73.0927 3.66108L80.8009 1.39993C81.9316 1.06565 83.0721 0.7117 84.2126 0.416743C84.6747 0.288928 85.1957 0.229898 85.6185 0.131579C85.6972 0.131579 85.7758 0.082352 85.8643 0.0626882L86.1298 0.0528467ZM90.4755 10.927L89.9052 11.2318L86.4444 13.1982L79.975 16.836L72.8469 20.8475C70.5396 22.1584 68.2455 23.4693 65.9645 24.7803C65.8094 24.8822 65.6405 24.9616 65.4631 25.0162C65.2923 25.0684 65.1106 25.073 64.9374 25.0297C64.7642 24.9864 64.606 24.8968 64.4799 24.7704C64.3484 24.6474 64.2532 24.4906 64.2046 24.3172C64.1561 24.1439 64.1561 23.9606 64.2046 23.7872C64.2484 23.6374 64.3224 23.498 64.4222 23.378C64.522 23.2579 64.6454 23.1594 64.7847 23.089L70.9001 19.6478L78.2839 15.4987L85.0679 11.6939L92.2452 7.6529C92.3187 7.59577 92.3847 7.52976 92.4419 7.45631C92.5429 7.37191 92.6104 7.25421 92.632 7.12434C92.6537 6.99446 92.6281 6.86105 92.5599 6.74844C92.4988 6.63137 92.3976 6.54009 92.2749 6.49136C92.1522 6.44263 92.016 6.43968 91.8913 6.48296C91.7693 6.52192 91.6509 6.57116 91.5373 6.63034L83.2589 10.4551L73.0238 15.1843L63.9883 19.3727L63.0051 19.8348C62.8757 19.8947 62.7348 19.9255 62.5922 19.9255C62.4496 19.9255 62.3087 19.8947 62.1792 19.8348C62.0123 19.7623 61.8687 19.6447 61.7646 19.4954C61.6604 19.3461 61.5997 19.1709 61.5893 18.9891C61.5649 18.7939 61.5997 18.5958 61.6891 18.4205C61.7785 18.2452 61.9184 18.1008 62.0908 18.0059C62.2793 17.9043 62.4729 17.8124 62.6708 17.7306L71.7457 13.5324L77.4974 10.868L85.2154 7.29908L89.4038 5.3327L90.9081 4.63443C90.9736 4.61249 91.0339 4.5776 91.0855 4.5317C91.1371 4.4858 91.1788 4.42999 91.2082 4.36751C91.2376 4.30503 91.2541 4.23729 91.2566 4.16828C91.2591 4.09928 91.2475 4.03036 91.2227 3.96593C91.1959 3.9024 91.1568 3.84476 91.1076 3.79646C91.0584 3.74816 91.0001 3.71021 90.9361 3.68461C90.8721 3.659 90.8036 3.64636 90.7347 3.6474C90.6657 3.64844 90.5977 3.66308 90.5345 3.69061C90.4558 3.69061 90.3575 3.74969 90.269 3.78902L75.6195 9.42269L59.5345 15.4594C59.4385 15.4904 59.353 15.5473 59.2871 15.6236C59.2212 15.6998 59.1776 15.7928 59.1608 15.8922C58.907 16.9832 58.5068 18.0348 57.9712 19.0186C57.2851 20.3501 56.3151 21.5147 55.1298 22.4303C53.6627 23.5283 51.9054 24.1712 50.0761 24.2788C49.2987 24.3264 48.5184 24.27 47.7558 24.1115C46.3183 23.8457 44.9679 23.2314 43.8231 22.3223C42.6629 21.3391 41.5224 20.4246 40.372 19.4709C39.5167 18.763 38.6711 18.0453 37.7961 17.3571C36.6869 16.5106 35.3274 16.0574 33.9321 16.0691C33.1902 16.0591 32.453 16.1891 31.7593 16.4524C30.7268 16.8114 29.8053 17.4323 29.0849 18.2544C28.3644 19.0765 27.8699 20.0716 27.6495 21.1423C27.5546 21.6286 27.4987 22.1218 27.4824 22.617C27.4824 23.3643 27.4824 24.1214 27.4136 24.8686C27.4136 24.9571 27.4136 25.0555 27.4136 25.1833C27.5611 25.1833 27.6692 25.1242 27.7774 25.0849C29.1015 24.6519 30.5178 24.584 31.8773 24.8883C33.2196 25.1568 34.467 25.776 35.4927 26.6826C36.5184 27.5891 37.286 28.7509 37.7174 30.05C38.3958 31.9181 39.0251 33.796 39.6838 35.6739C40.2921 37.4359 41.5369 38.9071 43.1741 39.7984C44.8113 40.6898 46.7225 40.937 48.5325 40.4916C49.4168 40.2831 50.2561 39.9166 51.0102 39.41L58.2366 34.5433L76.7108 22.047L88.9515 13.7978C89.3531 13.518 89.6947 13.1608 89.9564 12.7472C90.2181 12.3336 90.3946 11.8718 90.4755 11.3891C90.4863 11.2352 90.4863 11.0808 90.4755 10.927V10.927ZM58.4923 7.97743L58.8167 7.8987L60.0457 7.53504L63.5754 6.55185C63.6548 6.53448 63.7291 6.49865 63.7923 6.44743C63.8554 6.39621 63.9057 6.33098 63.9392 6.25684C64.2538 5.57844 64.5782 4.89997 64.9223 4.22157C65.0502 3.93644 65.2075 3.64159 65.3254 3.34663C65.3637 3.25928 65.3778 3.16309 65.3661 3.06843C65.3545 2.97377 65.3175 2.88416 65.2592 2.80871C65.2008 2.73326 65.1232 2.67482 65.0346 2.63973C64.9459 2.60463 64.8494 2.59415 64.7552 2.60924L64.4897 2.65845L60.3505 3.50386L56.4177 4.31014L56.1719 4.39848C57.1429 5.44441 57.9396 6.63954 58.5316 7.93806L58.4923 7.97743Z" fill="#FAFAFA"/>
<path d="M103.258 58.9365C103.222 58.9941 103.195 59.0571 103.179 59.1232C103.143 59.3058 103.051 59.4723 102.915 59.5994C102.779 59.7265 102.607 59.8077 102.422 59.8311C102.236 59.8769 102.039 59.8615 101.862 59.7871C101.685 59.7128 101.537 59.5834 101.439 59.4182C101.377 59.3236 101.321 59.225 101.272 59.1232C101.18 59.1579 101.091 59.2005 101.006 59.2509C100.111 59.7573 99.0776 59.9641 98.0567 59.8409C97.0374 59.7566 96.0755 59.3345 95.3234 58.6414C95.0681 58.4091 94.8629 58.127 94.7204 57.8126C94.5779 57.4982 94.501 57.158 94.4946 56.8128C94.4881 56.4677 94.5522 56.1247 94.6829 55.8052C94.8136 55.4856 95.0081 55.1962 95.2546 54.9545C95.8176 54.3821 96.535 53.9857 97.3193 53.8138C98.3368 53.5751 99.3816 53.4727 100.426 53.5092C100.878 53.5092 100.878 53.509 100.878 53.0666C100.876 52.856 100.82 52.6497 100.715 52.4672C100.61 52.2847 100.46 52.1324 100.279 52.0246C99.8829 51.7902 99.4309 51.6678 98.971 51.6705C98.2132 51.6297 97.4631 51.8407 96.8375 52.2704C96.7051 52.3668 96.5672 52.4554 96.4246 52.5359C96.2978 52.6111 96.1542 52.653 96.0069 52.6578C95.8596 52.6627 95.7135 52.6302 95.5821 52.5635C95.4507 52.4968 95.3383 52.3981 95.2552 52.2764C95.1722 52.1547 95.1212 52.0138 95.1071 51.8671C95.0906 51.7207 95.1117 51.5727 95.1685 51.4367C95.2253 51.3008 95.3158 51.1815 95.4315 51.0904C95.7743 50.7889 96.1668 50.5493 96.5917 50.3825C97.3605 50.0532 98.1934 49.901 99.0289 49.9367C99.8645 49.9725 100.681 50.1955 101.419 50.5892C101.877 50.8262 102.277 51.162 102.589 51.5724C102.962 52.0547 103.15 52.6544 103.12 53.2634C103.133 53.4155 103.156 53.5665 103.189 53.7156L103.258 58.9365ZM100.947 56.0752C100.947 55.8294 100.947 55.5836 100.947 55.3477C100.947 55.1117 100.947 55.092 100.701 55.0723H100.495C99.8144 55.0522 99.1334 55.0918 98.4598 55.1904C98.0197 55.2469 97.606 55.4316 97.2701 55.7214C97.1157 55.8325 96.9889 55.9776 96.8995 56.1455C96.8102 56.3135 96.7608 56.4998 96.7551 56.6899C96.7494 56.8801 96.7876 57.069 96.8667 57.242C96.9457 57.4151 97.0636 57.5677 97.2111 57.6878C97.5892 58.0327 98.0685 58.2463 98.5778 58.2972C98.8847 58.353 99.1997 58.3461 99.5039 58.2768C99.808 58.2076 100.095 58.0774 100.348 57.8942C100.54 57.7572 100.695 57.5754 100.802 57.3647C100.908 57.154 100.961 56.9208 100.957 56.6849C100.937 56.4489 100.947 56.262 100.947 56.0752V56.0752Z" fill="#FAFAFA"/>
<path d="M65.5924 50.9131C65.5924 51.0311 65.5924 51.1394 65.5924 51.2475C65.5924 53.6957 65.5924 56.1634 65.5924 58.5919C65.6066 58.7358 65.6066 58.8806 65.5924 59.0245C65.5295 59.2931 65.3712 59.5299 65.1471 59.6908C64.9229 59.8517 64.648 59.926 64.3733 59.8996C64.0932 59.8755 63.8319 59.7487 63.6395 59.5437C63.4472 59.3386 63.3373 59.0696 63.3311 58.7885V48.2389C63.3063 48.0463 63.3063 47.8513 63.3311 47.6587C63.3935 47.4077 63.5284 47.1809 63.719 47.0061C63.9095 46.8312 64.1474 46.7161 64.4028 46.6755C64.6459 46.6155 64.9013 46.6284 65.1373 46.7123C65.3733 46.7962 65.5794 46.9476 65.7301 47.1477C65.9759 47.4328 66.1823 47.7572 66.4085 48.062L71.8062 55.4851L72.0323 55.7602C72.0719 55.6927 72.1017 55.6199 72.1208 55.5439C72.1259 55.449 72.1259 55.354 72.1208 55.259V47.9734C72.1013 47.8101 72.1013 47.6451 72.1208 47.4818C72.1924 47.2149 72.3584 46.9831 72.5881 46.8294C72.8178 46.6757 73.0954 46.6106 73.3695 46.6462C73.6365 46.6892 73.8804 46.8234 74.0597 47.026C74.2389 47.2285 74.3425 47.4868 74.3527 47.7571V47.934C74.3527 51.4211 74.3527 54.9083 74.3527 58.3953C74.3567 58.6196 74.32 58.8427 74.2445 59.054C74.1578 59.2964 74.0014 59.5079 73.7951 59.6618C73.5887 59.8157 73.3414 59.9053 73.0844 59.9193C72.8403 59.9454 72.5938 59.9052 72.3706 59.8031C72.1475 59.7011 71.9559 59.5408 71.816 59.3392L69.4564 56.1044L65.8284 51.1885C65.7643 51.1029 65.6918 51.0238 65.6121 50.9525L65.5924 50.9131Z" fill="#FAFAFA"/>
<path d="M18.5347 59.1131L18.1906 59.2998C17.3854 59.7273 16.4771 59.9225 15.5673 59.8634C14.6574 59.8044 13.782 59.4934 13.0387 58.9655C12.4773 58.6133 12.0699 58.0621 11.8982 57.422C11.7888 56.9848 11.7947 56.5265 11.9154 56.0922C12.036 55.6579 12.2672 55.2625 12.5864 54.9444C13.148 54.3824 13.8569 53.9903 14.6315 53.8135C15.6458 53.5756 16.6872 53.4733 17.7285 53.5089C18.2201 53.5089 18.23 53.509 18.2005 53.037C18.191 52.836 18.1311 52.6404 18.0263 52.4686C17.9215 52.2968 17.7751 52.1542 17.6007 52.0538C17.2132 51.8255 16.7723 51.7033 16.3226 51.6998C15.5555 51.659 14.7961 51.8697 14.1595 52.2996C14.0171 52.3993 13.8694 52.491 13.7171 52.5747C13.5955 52.643 13.4591 52.6809 13.3196 52.6851C13.1802 52.6893 13.0418 52.6598 12.9162 52.599C12.7907 52.5381 12.6817 52.4479 12.5986 52.3359C12.5155 52.2238 12.4607 52.0932 12.439 51.9554C12.4047 51.8069 12.4144 51.6516 12.4667 51.5085C12.5191 51.3653 12.6119 51.2405 12.7339 51.1491C12.9974 50.9183 13.2879 50.7203 13.5991 50.5594C14.3825 50.1574 15.2503 49.9475 16.1308 49.9475C17.0113 49.9475 17.8792 50.1574 18.6626 50.5594C19.3544 50.8937 19.9099 51.4561 20.2357 52.152C20.3708 52.4349 20.4445 52.7431 20.452 53.0565C20.452 54.9737 20.452 56.891 20.452 58.8082C20.4601 59.0289 20.3938 59.2458 20.2636 59.4242C20.1334 59.6025 19.9469 59.732 19.7342 59.7914C19.5376 59.852 19.3264 59.8452 19.1341 59.7722C18.9417 59.6992 18.7793 59.5642 18.6724 59.3884L18.5347 59.1131ZM18.2005 56.0651V55.308C18.2005 55.1605 18.1316 55.0917 17.994 55.0721H17.817C17.107 55.0474 16.3962 55.087 15.6933 55.1902C15.1944 55.2518 14.7322 55.4846 14.3857 55.8488C14.2678 55.96 14.174 56.0942 14.1098 56.243C14.0456 56.3917 14.0125 56.5521 14.0125 56.7142C14.0125 56.8762 14.0456 57.0363 14.1098 57.1851C14.174 57.3339 14.2678 57.468 14.3857 57.5792C14.7679 57.9622 15.2725 58.1987 15.8113 58.2477C16.1292 58.3055 16.4558 58.2952 16.7694 58.2173C17.0829 58.1393 17.3764 57.9954 17.6302 57.7955C17.8081 57.6597 17.9516 57.4839 18.049 57.2823C18.1463 57.0808 18.1949 56.8592 18.1906 56.6354C18.2005 56.4388 18.2005 56.2519 18.2005 56.0651Z" fill="#FAFAFA"/>
<path d="M47.3326 59.123L47.1065 59.2212C46.2304 59.7228 45.2212 59.9426 44.2159 59.8506C43.215 59.7729 42.2663 59.3725 41.5121 58.7099C41.2209 58.4635 40.9883 58.1553 40.8312 57.8076C40.6741 57.46 40.5965 57.0817 40.604 56.7003C40.6116 56.3189 40.704 55.9441 40.8747 55.6029C41.0454 55.2617 41.29 54.9629 41.5908 54.7282C42.1261 54.2817 42.7595 53.9682 43.4392 53.8136C44.4625 53.5694 45.5145 53.4671 46.5657 53.509C46.9787 53.509 46.9688 53.5089 46.9787 53.1255C46.9917 52.859 46.9184 52.5956 46.7696 52.3741C46.6208 52.1527 46.4044 51.9851 46.1528 51.8965C45.6271 51.6812 45.0536 51.6099 44.4912 51.69C43.8914 51.7688 43.3205 51.9951 42.8296 52.3487L42.5052 52.5455C42.3142 52.6469 42.0928 52.6747 41.8827 52.624C41.6726 52.5733 41.4883 52.4475 41.3647 52.2702C41.2439 52.0862 41.1951 51.864 41.2278 51.6464C41.2604 51.4287 41.3722 51.2306 41.5416 51.0902C42.1078 50.6081 42.7826 50.2707 43.508 50.107C44.8728 49.752 46.3217 49.9314 47.5588 50.6084C48.2595 50.9676 48.8024 51.5737 49.0827 52.3096C49.1864 52.6036 49.2428 52.9122 49.2498 53.2239C49.2498 55.0919 49.2498 56.9698 49.2498 58.8379C49.2604 59.0018 49.2296 59.1658 49.1605 59.3148C49.0913 59.4638 48.9859 59.5932 48.8539 59.691C48.7219 59.7887 48.5675 59.8518 48.4048 59.8746C48.2421 59.8973 48.0763 59.8789 47.9225 59.8211C47.7282 59.7464 47.5652 59.6077 47.4604 59.4279C47.4309 59.3099 47.3818 59.2312 47.3326 59.123ZM46.9787 56.0849C46.9787 55.8292 46.9787 55.5736 46.9787 55.3278C46.9787 55.082 46.9787 55.0918 46.7427 55.0722H46.6247C45.9049 55.0477 45.1844 55.0873 44.4715 55.1903C44.1903 55.2238 43.9188 55.3142 43.6737 55.4562C43.4285 55.5982 43.2149 55.7887 43.0459 56.016C42.9122 56.1918 42.8334 56.4031 42.8194 56.6235C42.8054 56.8439 42.8569 57.0635 42.9673 57.2548C43.107 57.5237 43.3223 57.746 43.5867 57.894C43.8884 58.0746 44.2223 58.1947 44.5699 58.2478C44.888 58.306 45.2148 58.2978 45.5296 58.2234C45.8443 58.1489 46.1402 58.0099 46.3986 57.8153C46.5744 57.682 46.7166 57.5095 46.8139 57.3115C46.9113 57.1134 46.9609 56.8955 46.959 56.6749C46.9688 56.4684 46.9787 56.2815 46.9787 56.0849Z" fill="#FAFAFA"/>
<path d="M7.0225 46.6073C8.2006 46.5945 9.36653 46.8465 10.4342 47.3447C10.581 47.414 10.7084 47.5184 10.805 47.6489C10.9016 47.7793 10.9644 47.9318 10.9878 48.0924C11.0112 48.2531 10.9944 48.417 10.939 48.5696C10.8835 48.7222 10.7912 48.8587 10.6701 48.9669C10.5324 49.0746 10.3668 49.141 10.1928 49.1584C10.0187 49.1758 9.84334 49.1436 9.68695 49.0653C9.20929 48.8493 8.70761 48.6909 8.1925 48.5934C7.41569 48.4264 6.60737 48.4843 5.86234 48.7605C5.41187 48.9483 5.00485 49.2267 4.66657 49.5785C4.32829 49.9303 4.06599 50.3481 3.89595 50.8056C3.63171 51.4567 3.48203 52.1484 3.45352 52.8505C3.38433 53.8148 3.53215 54.7825 3.88612 55.6822C4.0776 56.2175 4.39872 56.6969 4.82078 57.0777C5.24284 57.4586 5.75269 57.7291 6.30477 57.8648C6.82685 57.9862 7.36694 58.0096 7.89754 57.9337C8.51618 57.8601 9.12167 57.7013 9.69678 57.4618C9.81809 57.4104 9.94849 57.3838 10.0802 57.3838C10.212 57.3838 10.3424 57.4104 10.4637 57.4618C10.6154 57.5177 10.7479 57.6159 10.8455 57.7448C10.9431 57.8738 11.0017 58.0281 11.0143 58.1894C11.0436 58.3636 11.0177 58.5424 10.9401 58.7011C10.8625 58.8598 10.7372 58.9903 10.5817 59.0741C10.0053 59.4059 9.37154 59.626 8.71359 59.723C8.16698 59.8127 7.61534 59.8687 7.06183 59.8903C5.72682 59.964 4.40923 59.5595 3.34537 58.7496C2.61741 58.1857 2.03712 57.4536 1.65428 56.6162C1.24296 55.6482 1.02262 54.6099 1.00537 53.5583C0.967409 52.5144 1.13098 51.473 1.48713 50.4909C1.75344 49.6763 2.20301 48.9336 2.80128 48.32C3.39955 47.7064 4.13057 47.2381 4.93814 46.9513C5.60606 46.7102 6.31252 46.5937 7.0225 46.6073V46.6073Z" fill="#FAFAFA"/>
<path d="M80.4778 59.9391C79.8064 59.9504 79.139 59.8338 78.5114 59.5951C78.0017 59.4039 77.5388 59.1058 77.1538 58.7209C76.7689 58.3359 76.4708 57.873 76.2796 57.3632C75.6803 55.8744 75.6803 54.2114 76.2796 52.7226C76.5486 51.9905 77.0172 51.3484 77.6323 50.8688C78.2474 50.3892 78.9845 50.0914 79.7601 50.009C80.5016 49.8896 81.2591 49.9131 81.9919 50.0779C82.6713 50.2165 83.302 50.5324 83.82 50.9934C84.338 51.4544 84.7249 52.0442 84.9415 52.7029C85.2761 53.6649 85.3838 54.6912 85.2561 55.7017C85.173 56.5185 84.8967 57.3036 84.4499 57.9924C84.1163 58.4919 83.6812 58.9156 83.173 59.2358C82.6648 59.5559 82.0949 59.7655 81.5003 59.8507C81.1562 59.8999 80.8219 59.9096 80.4778 59.9391ZM82.9358 54.8167C82.9412 54.1391 82.8003 53.4684 82.5228 52.8503C82.3347 52.4077 81.9823 52.0553 81.5396 51.8671C81.2578 51.743 80.9532 51.679 80.6452 51.6789C80.3372 51.6788 80.0325 51.7427 79.7506 51.8666C79.4686 51.9905 79.2154 52.1716 79.0072 52.3985C78.799 52.6255 78.6402 52.8931 78.5409 53.1847C78.4061 53.5689 78.3202 53.9686 78.2853 54.3743C78.2034 55.1618 78.2975 55.9578 78.5606 56.7046C78.6371 56.9634 78.7641 57.2044 78.9343 57.4139C79.1045 57.6234 79.3144 57.7972 79.5521 57.9252C79.7897 58.0531 80.0503 58.1327 80.3189 58.1594C80.5875 58.1862 80.8587 58.1595 81.1169 58.0809C81.4761 58.0064 81.8092 57.838 82.0821 57.5927C82.355 57.3474 82.558 57.0342 82.6703 56.6849C82.8786 56.0852 82.9687 55.4507 82.9358 54.8167Z" fill="#FAFAFA"/>
<path d="M59.8007 54.9545C59.8308 55.7451 59.6795 56.5319 59.3583 57.255C59.0786 57.9388 58.6246 58.5375 58.0415 58.9912C57.4585 59.4449 56.7667 59.7378 56.0351 59.8409C55.2398 59.9902 54.4216 59.9667 53.6361 59.772C52.9297 59.6142 52.2805 59.2645 51.7601 58.7615C51.2397 58.2584 50.8682 57.6215 50.6866 56.9209C50.4244 56.0722 50.3375 55.1789 50.4309 54.2956C50.4907 53.5591 50.7015 52.843 51.0503 52.1917C51.361 51.6176 51.8006 51.1234 52.3346 50.7481C52.8686 50.3727 53.4824 50.1265 54.1277 50.0287C55.0098 49.8614 55.9186 49.9016 56.7823 50.1465C57.4604 50.3271 58.0779 50.6858 58.5706 51.1854C59.0633 51.6851 59.4133 52.3076 59.5844 52.9881C59.7667 53.6267 59.8398 54.2915 59.8007 54.9545V54.9545ZM57.4411 54.8757C57.4637 54.2437 57.3531 53.6141 57.1166 53.0275C56.9366 52.5511 56.5876 52.1573 56.1361 51.9216C55.6847 51.6859 55.1623 51.6247 54.6685 51.7493C54.2909 51.8109 53.9376 51.9756 53.6479 52.2255C53.3581 52.4754 53.1431 52.8005 53.0266 53.165C52.8705 53.5844 52.7809 54.0257 52.7611 54.4727C52.6993 55.2126 52.7828 55.9574 53.0069 56.6652C53.1477 57.0468 53.3848 57.3855 53.6951 57.6484C53.9436 57.839 54.2295 57.9752 54.5341 58.0481C54.8387 58.121 55.1553 58.1289 55.4631 58.0714C55.771 58.0139 56.0633 57.8923 56.3211 57.7144C56.5789 57.5365 56.7963 57.3062 56.9593 57.0387C57.3029 56.371 57.4688 55.6262 57.4411 54.8757V54.8757Z" fill="#FAFAFA"/>
<path d="M24.2477 50.9626L24.6017 50.7168C25.4452 50.1431 26.4426 49.8381 27.4628 49.8419C27.8345 49.8461 28.2042 49.8955 28.5639 49.9893C28.9604 50.0796 29.3277 50.2682 29.6318 50.538C29.936 50.8078 30.1672 51.1501 30.3042 51.533C30.502 51.9996 30.6056 52.5009 30.609 53.0077C30.609 54.9053 30.609 56.793 30.609 58.6808C30.618 58.9266 30.5458 59.1684 30.4037 59.3692C30.2615 59.57 30.0573 59.7185 29.8224 59.7917C29.5913 59.8802 29.337 59.8876 29.1012 59.8126C28.8654 59.7375 28.6621 59.5846 28.5246 59.3788C28.4214 59.2136 28.3513 59.0299 28.3181 58.838C28.2983 58.655 28.2983 58.4703 28.3181 58.2874V54.0793C28.3217 53.8064 28.3052 53.5338 28.269 53.2634C28.2649 53.0479 28.2124 52.836 28.1153 52.6436C28.0182 52.4512 27.879 52.2831 27.7081 52.1518C27.5371 52.0205 27.3388 51.9292 27.1278 51.8851C26.9169 51.8409 26.6987 51.8449 26.4894 51.8966C25.9343 51.9504 25.3992 52.1322 24.9261 52.4276C24.7167 52.5435 24.5435 52.715 24.4255 52.9232C24.3075 53.1315 24.2494 53.3682 24.2576 53.6074V58.5233C24.2623 58.6892 24.2424 58.8549 24.1986 59.0149C24.1242 59.2949 23.9477 59.537 23.7039 59.6935C23.4601 59.85 23.1666 59.9096 22.8811 59.8606C22.6124 59.8172 22.3673 59.6816 22.1878 59.477C22.0084 59.2724 21.9059 59.0116 21.8979 58.7396V51.1691C21.8828 50.8626 21.9888 50.5626 22.1929 50.3335C22.3246 50.1829 22.4927 50.0684 22.6813 50.0013C22.8698 49.9342 23.0723 49.9166 23.2696 49.9501C23.4669 49.9837 23.6522 50.0672 23.808 50.1928C23.9637 50.3184 24.0847 50.4819 24.1592 50.6676C24.1592 50.7168 24.1887 50.8348 24.2477 50.9626Z" fill="#FAFAFA"/>
<path d="M35.6527 59.9486L35.3578 59.8602C34.5158 59.7655 33.727 59.4014 33.1087 58.8221C32.4904 58.2428 32.0758 57.4792 31.9264 56.6452C31.6191 55.4487 31.6635 54.1891 32.0543 53.0172C32.2713 52.2797 32.6854 51.6152 33.2519 51.0955C33.8184 50.5758 34.5159 50.2205 35.2693 50.0677C36.5875 49.772 37.9658 49.9063 39.2021 50.451C39.3808 50.5069 39.5363 50.6199 39.6446 50.7727C39.753 50.9254 39.8082 51.1095 39.8018 51.2967C39.8052 51.419 39.7804 51.5405 39.7293 51.6517C39.6782 51.7629 39.6021 51.8608 39.507 51.9378C39.4119 52.0148 39.3003 52.0688 39.1809 52.0957C39.0616 52.1227 38.9376 52.1216 38.8186 52.0929C38.5237 52.024 38.2385 51.9257 37.9436 51.8667C37.5854 51.7807 37.2201 51.7281 36.8522 51.7095C36.2657 51.6667 35.6832 51.8355 35.2106 52.1855C34.7379 52.5355 34.4064 53.0433 34.2763 53.6169C34.0034 54.5481 34.0275 55.5414 34.3451 56.4584C34.4963 56.9733 34.8158 57.4225 35.2525 57.7345C35.6892 58.0464 36.2178 58.2029 36.7539 58.179C37.29 58.1662 37.8221 58.0835 38.3369 57.9332C38.5138 57.884 38.7006 57.8643 38.8776 57.8151C39.0103 57.7743 39.1525 57.7773 39.2835 57.8233C39.4144 57.8693 39.5272 57.9559 39.6052 58.0707C39.6973 58.1791 39.758 58.3105 39.7806 58.451C39.8031 58.5914 39.7866 58.7355 39.733 58.8672C39.691 58.9768 39.6264 59.0763 39.5434 59.1593C39.4604 59.2423 39.3609 59.307 39.2512 59.3489C38.8016 59.5557 38.3299 59.7107 37.8453 59.811C37.4716 59.8798 37.4323 59.9389 37.4028 60.3518L37.7371 60.509C38.0193 60.62 38.2695 60.7994 38.4652 61.0311C38.6609 61.2628 38.7958 61.5396 38.8579 61.8364C38.9393 62.1606 38.9166 62.5021 38.7931 62.8127C38.6696 63.1232 38.4515 63.3871 38.1697 63.5669C37.8189 63.8021 37.4153 63.9467 36.995 63.9879C36.5747 64.0291 36.1506 63.9656 35.7609 63.8028C35.6434 63.7672 35.5389 63.6979 35.4603 63.6036C35.3816 63.5093 35.3324 63.3939 35.3185 63.2719C35.3043 63.1955 35.3067 63.117 35.3256 63.0417C35.3445 62.9663 35.3794 62.8959 35.4279 62.8352C35.4764 62.7746 35.5374 62.7252 35.6067 62.6903C35.6761 62.6553 35.7521 62.6358 35.8297 62.6329C35.9729 62.6081 36.1192 62.6081 36.2623 62.6329C36.4295 62.6329 36.5868 62.7114 36.7539 62.7409C36.8682 62.7556 36.9838 62.7556 37.098 62.7409C37.2285 62.7205 37.3479 62.6554 37.4358 62.5568C37.5236 62.4582 37.5745 62.3321 37.5798 62.2001C37.5567 62.0637 37.4892 61.9388 37.3879 61.8446C37.2866 61.7504 37.1571 61.6922 37.0194 61.679C36.832 61.6646 36.6452 61.7132 36.4885 61.8168C36.3964 61.8808 36.2922 61.9251 36.1822 61.9471C36.0723 61.9691 35.959 61.9682 35.8494 61.9445C35.7218 61.9175 35.6023 61.8612 35.5004 61.7798C35.3985 61.6984 35.3171 61.5944 35.2626 61.4759C35.2081 61.3574 35.1822 61.2279 35.1867 61.0976C35.1913 60.9673 35.2263 60.8397 35.289 60.7253L35.5839 60.1257C35.6113 60.0685 35.6343 60.0092 35.6527 59.9486V59.9486Z" fill="#FAFAFA"/>
<path d="M90.1318 56.3701L90.2596 56.0652C90.6431 54.7379 91.2428 53.4696 91.6656 52.1324C91.8229 51.69 91.9999 51.2576 92.167 50.8151C92.167 50.7168 92.2358 50.6184 92.285 50.5201C92.407 50.2657 92.6212 50.0672 92.8841 49.9649C93.147 49.8627 93.439 49.8643 93.7008 49.9695C93.9732 50.0576 94.2 50.2493 94.3324 50.5031C94.4648 50.7569 94.4922 51.0526 94.4087 51.3264C94.2612 51.818 94.0548 52.3096 93.8679 52.7717C93.0617 54.8233 92.249 56.8781 91.4296 58.9363C91.387 59.097 91.3105 59.2467 91.2054 59.3756C91.1003 59.5044 90.9689 59.6094 90.8201 59.6835C90.6442 59.7743 90.4513 59.8272 90.2538 59.8388C90.0563 59.8505 89.8585 59.8207 89.6732 59.7512C89.4879 59.6817 89.3192 59.5742 89.1781 59.4356C89.0369 59.2969 88.9264 59.1302 88.8537 58.9461C88.4604 57.9629 88.0376 56.9207 87.6345 55.9178L85.8943 51.6999C85.7525 51.4208 85.7109 51.1016 85.7763 50.7954C85.8323 50.57 85.957 50.3675 86.1332 50.216C86.3093 50.0645 86.5282 49.9715 86.7595 49.9498C87.0004 49.9127 87.2469 49.9539 87.4628 50.0672C87.6786 50.1804 87.8525 50.3599 87.959 50.5792C88.077 50.825 88.1556 51.0708 88.2539 51.3166C88.7062 52.4866 89.1683 53.6564 89.6107 54.8264C89.7582 55.2197 89.8762 55.6227 90.0138 56.016C90.0138 56.1143 90.0532 56.2029 90.1318 56.3701Z" fill="#FAFAFA"/>
<path d="M44.0008 46.5873C44.227 46.6463 44.4728 46.6954 44.6989 46.774C44.925 46.8527 45.2888 47.0296 45.5739 47.1574C45.7045 47.2254 45.8495 47.2611 45.9967 47.2611C46.1439 47.2611 46.289 47.2254 46.4195 47.1574L47.2159 46.7839C47.3048 46.7338 47.4031 46.7026 47.5046 46.6924C47.6062 46.6823 47.7087 46.6933 47.8058 46.7248C47.9239 46.7657 48.0291 46.8371 48.1107 46.9317C48.1923 47.0264 48.2474 47.1409 48.2703 47.2637C48.2933 47.3865 48.2834 47.5135 48.2415 47.6312C48.1996 47.7489 48.1273 47.8534 48.0319 47.9341C47.5486 48.3152 46.9884 48.5869 46.39 48.7306C46.0986 48.787 45.7967 48.742 45.5346 48.6029L44.9742 48.3079C44.7974 48.2022 44.5973 48.1415 44.3916 48.1312C44.1859 48.1209 43.9808 48.1614 43.7944 48.2488L43.0471 48.5733C42.8456 48.6564 42.6194 48.6564 42.4179 48.5733C42.3058 48.5301 42.2065 48.4589 42.1295 48.3667C42.0524 48.2744 42.0001 48.164 41.9775 48.046C41.9549 47.928 41.9627 47.8061 42.0002 47.6919C42.0376 47.5777 42.1036 47.4752 42.1918 47.3936C42.3874 47.2205 42.6057 47.0748 42.8407 46.9608C43.1972 46.7568 43.5923 46.6297 44.0008 46.5873Z" fill="#FAFAFA"/>
<path d="M33.9036 20.8865C33.9062 21.0878 33.8687 21.2877 33.7931 21.4743C33.7176 21.661 33.6056 21.8306 33.4637 21.9734C33.3218 22.1162 33.1528 22.2293 32.9667 22.3061C32.7806 22.3828 32.581 22.4217 32.3797 22.4203C31.9711 22.4178 31.58 22.2544 31.291 21.9655C31.0021 21.6765 30.8386 21.2852 30.8361 20.8767C30.8335 20.6744 30.8709 20.4736 30.9462 20.2859C31.0215 20.0982 31.1332 19.9274 31.2748 19.783C31.4165 19.6387 31.5853 19.5237 31.7715 19.4448C31.9578 19.3659 32.1578 19.3247 32.36 19.3234C32.5663 19.3164 32.7718 19.3522 32.9635 19.4285C33.1553 19.5048 33.3292 19.6201 33.4742 19.767C33.6192 19.9138 33.7322 20.0891 33.8062 20.2818C33.8801 20.4746 33.9132 20.6803 33.9036 20.8865V20.8865Z" fill="#FAFAFA"/>
</svg>
