<svg width="104" height="64" viewBox="0 0 104 64" fill="none" xmlns="http://www.w3.org/2000/svg">
<path fill-rule="evenodd" clip-rule="evenodd" d="M0.220703 20H4.6907C7.1407 20 8.0307 20.23 9.1507 21.57C9.45524 21.8982 9.6909 22.2841 9.84377 22.7049C9.99663 23.1257 10.0636 23.5729 10.0407 24.02C10.0599 24.5964 9.89876 25.1645 9.57967 25.6449C9.26057 26.1253 8.79948 26.4942 8.2607 26.7C9.01428 26.9276 9.66771 27.4054 10.1131 28.0544C10.5586 28.7035 10.7693 29.485 10.7107 30.27C10.7299 30.8565 10.6198 31.4401 10.3882 31.9792C10.1566 32.5184 9.80925 33.0001 9.3707 33.39C8.0307 34.51 7.37071 34.73 4.91071 34.73H0.220703V20ZM5.1307 25.58C5.5807 25.58 6.4707 25.58 6.4707 24.47C6.4707 23.36 5.5807 23.35 5.1307 23.35H4.0007V25.58H5.1307ZM4.0207 31.39H5.5807C6.0307 31.39 7.1407 31.39 7.1407 30.05C7.1407 28.71 6.0007 28.72 5.5807 28.72H4.0007V31.4L4.0207 31.39Z" fill="#FAFAFA"/>
<path fill-rule="evenodd" clip-rule="evenodd" d="M11.6087 20.01H14.9487V34.73H11.6087V20.01Z" fill="#FAFAFA"/>
<path fill-rule="evenodd" clip-rule="evenodd" d="M21.8683 23.35C22.6375 23.322 23.4042 23.4528 24.1205 23.7344C24.8369 24.016 25.4875 24.4422 26.0318 24.9865C26.576 25.5307 27.0023 26.1813 27.2838 26.8977C27.5654 27.614 27.6963 28.3808 27.6683 29.15C27.698 29.929 27.5697 30.706 27.2913 31.4342C27.0129 32.1624 26.5901 32.8267 26.0482 33.3872C25.5064 33.9477 24.8568 34.3929 24.1384 34.6958C23.4201 34.9987 22.6479 35.1532 21.8683 35.15C20.277 35.15 18.7509 34.5178 17.6256 33.3926C16.5004 32.2674 15.8683 30.7412 15.8683 29.15C15.8678 28.3712 16.0242 27.6002 16.3281 26.8832C16.632 26.1661 17.0772 25.5176 17.6372 24.9764C18.1971 24.4351 18.8603 24.0121 19.5872 23.7327C20.3142 23.4533 21.09 23.3231 21.8683 23.35ZM21.8683 32.0499C22.2241 32.0317 22.5724 31.9409 22.8917 31.783C23.2111 31.6251 23.4947 31.4034 23.7252 31.1317C23.9556 30.8601 24.128 30.5441 24.2318 30.2032C24.3355 29.8624 24.3683 29.504 24.3283 29.15C24.3471 28.8119 24.2979 28.4736 24.1836 28.1549C24.0693 27.8363 23.8923 27.5438 23.6629 27.2948C23.4335 27.0458 23.1564 26.8454 22.8482 26.7054C22.5399 26.5655 22.2067 26.4888 21.8683 26.48C21.5134 26.466 21.1595 26.5254 20.8287 26.6545C20.4979 26.7836 20.1973 26.9796 19.9457 27.2302C19.6941 27.4808 19.497 27.7807 19.3667 28.111C19.2364 28.4414 19.1756 28.7951 19.1883 29.15C19.1515 29.5212 19.1938 29.8961 19.3124 30.2499C19.431 30.6036 19.6233 30.9282 19.8765 31.2023C20.1298 31.4763 20.4382 31.6935 20.7815 31.8396C21.1248 31.9857 21.4952 32.0574 21.8683 32.0499Z" fill="#FAFAFA"/>
<path fill-rule="evenodd" clip-rule="evenodd" d="M34.3676 23.3499C35.1459 23.3231 35.9217 23.4533 36.6486 23.7327C37.3756 24.0121 38.0388 24.4351 38.5987 24.9764C39.1587 25.5176 39.6039 26.1661 39.9078 26.8832C40.2117 27.6002 40.3681 28.3711 40.3676 29.1499C40.3676 30.7412 39.7355 32.2674 38.6102 33.3926C37.485 34.5178 35.9589 35.1499 34.3676 35.1499C32.7763 35.1499 31.2502 34.5178 30.125 33.3926C28.9997 32.2674 28.3676 30.7412 28.3676 29.1499C28.3685 28.3715 28.5259 27.6013 28.8302 26.8849C29.1346 26.1684 29.5799 25.5205 30.1395 24.9795C30.6992 24.4385 31.3618 24.0155 32.0882 23.7355C32.8145 23.4556 33.5896 23.3245 34.3676 23.3499ZM34.3676 32.0499C34.7349 32.0384 35.0963 31.9539 35.4306 31.8013C35.765 31.6488 36.0656 31.4312 36.315 31.1613C36.5645 30.8914 36.7577 30.5746 36.8835 30.2293C37.0092 29.8839 37.065 29.517 37.0476 29.1499C37.0372 28.4433 36.7512 27.7687 36.2506 27.2699C35.7499 26.7712 35.0743 26.4877 34.3676 26.48C33.661 26.4877 32.9853 26.7712 32.4846 27.2699C31.984 27.7687 31.698 28.4433 31.6876 29.1499C31.6702 29.517 31.726 29.8839 31.8517 30.2293C31.9775 30.5746 32.1707 30.8914 32.4202 31.1613C32.6696 31.4312 32.9702 31.6488 33.3046 31.8013C33.6389 31.9539 34.0003 32.0384 34.3676 32.0499Z" fill="#FAFAFA"/>
<path fill-rule="evenodd" clip-rule="evenodd" d="M41.0583 23.8H44.1883V24.91C44.515 24.3885 44.9789 23.967 45.5293 23.6919C46.0796 23.4167 46.6952 23.2984 47.3083 23.35C47.961 23.3738 48.5955 23.5717 49.1459 23.9234C49.6963 24.2751 50.1425 24.7677 50.4383 25.35C50.7923 24.7209 51.3127 24.2015 51.9425 23.8487C52.5722 23.4959 53.287 23.3234 54.0083 23.35C55.0805 23.3505 56.1141 23.7497 56.9083 24.47C57.7983 25.58 58.0283 26.25 58.0283 28.71V34.71H54.6783V28.91C54.6783 28.02 54.6783 26.46 53.1183 26.46C51.1183 26.46 51.1183 28.02 51.1183 28.69V34.69H47.9983V28.69C47.9983 28.24 47.9983 26.46 46.2183 26.46C44.4383 26.46 44.4283 28.24 44.4283 28.91V34.72H41.0783V23.8H41.0583Z" fill="#FAFAFA"/>
<path fill-rule="evenodd" clip-rule="evenodd" d="M59.3562 20H62.7062V24.72C63.0945 24.2768 63.5773 23.9264 64.119 23.6945C64.6606 23.4626 65.2474 23.3551 65.8362 23.38C66.5944 23.3557 67.3493 23.4909 68.052 23.7767C68.7547 24.0626 69.3896 24.4928 69.9156 25.0395C70.4416 25.5862 70.8469 26.2372 71.1054 26.9505C71.3639 27.6637 71.4697 28.4233 71.4162 29.18C71.4651 29.9453 71.3575 30.7127 71.0999 31.435C70.8422 32.1573 70.44 32.8195 69.9177 33.3811C69.3954 33.9427 68.7641 34.3919 68.0623 34.7012C67.3605 35.0105 66.6031 35.1734 65.8362 35.18C65.2282 35.1863 64.6274 35.0482 64.0833 34.777C63.5391 34.5058 63.0671 34.1092 62.7062 33.62H62.4862V34.72H59.3562V20ZM65.3562 32.05C65.7239 32.0398 66.0859 31.9562 66.4209 31.8041C66.7559 31.652 67.0571 31.4345 67.3068 31.1643C67.5565 30.8941 67.7496 30.5767 67.8749 30.2308C68.0001 29.8849 68.055 29.5174 68.0362 29.15C68.0258 28.4434 67.7398 27.7688 67.2391 27.27C66.7385 26.7712 66.0628 26.4878 65.3562 26.48C65.0009 26.4645 64.6464 26.5229 64.3149 26.6514C63.9834 26.78 63.6822 26.976 63.4303 27.2269C63.1784 27.4778 62.9813 27.7783 62.8515 28.1093C62.7217 28.4404 62.662 28.7947 62.6762 29.15C62.6393 29.5213 62.6817 29.8962 62.8003 30.2499C62.9189 30.6037 63.1112 30.9283 63.3644 31.2023C63.6177 31.4763 63.9261 31.6935 64.2694 31.8397C64.6127 31.9858 64.9831 32.0575 65.3562 32.05Z" fill="#FAFAFA"/>
<path fill-rule="evenodd" clip-rule="evenodd" d="M83.6866 31.39C83.124 32.4165 82.3665 33.3234 81.4566 34.0599C80.4777 34.761 79.3104 35.1512 78.1066 35.1799C76.5503 35.128 75.075 34.473 73.9927 33.3534C72.9104 32.2338 72.3058 30.7372 72.3066 29.1799C72.3324 27.6497 72.9517 26.1894 74.0339 25.1072C75.1161 24.025 76.5764 23.4057 78.1066 23.3799C78.885 23.3809 79.6553 23.5382 80.3717 23.8426C81.0881 24.147 81.7361 24.5922 82.2771 25.1519C82.8181 25.7115 83.2411 26.3742 83.521 27.1005C83.801 27.8268 83.9321 28.602 83.9066 29.3799V30.2699H75.6566C75.7512 30.8446 76.0524 31.3649 76.5035 31.7332C76.9546 32.1014 77.5247 32.2923 78.1066 32.2699C78.486 32.2853 78.8638 32.2129 79.2106 32.0586C79.5575 31.9042 79.8641 31.672 80.1066 31.3799L83.6866 31.39ZM80.7866 28.0399C80.6249 27.4566 80.2738 26.9436 79.7887 26.5816C79.3036 26.2195 78.7119 26.029 78.1066 26.0399C77.538 26.0673 76.9931 26.2763 76.5521 26.6363C76.1111 26.9963 75.7972 27.4883 75.6566 28.0399H80.7866Z" fill="#FAFAFA"/>
<path fill-rule="evenodd" clip-rule="evenodd" d="M85.2454 23.7998H88.3754V24.9098C88.8154 24.6898 90.1554 23.5698 91.4954 23.7998V26.9198C90.1554 26.9198 88.5954 26.9198 88.5954 28.7098V34.7098H85.2454V23.7998Z" fill="#FAFAFA"/>
<path fill-rule="evenodd" clip-rule="evenodd" d="M103.994 33.3899C104.043 34.9802 103.816 36.5669 103.324 38.0798C102.707 38.9489 101.852 39.6216 100.863 40.0171C99.873 40.4127 98.7902 40.5143 97.7441 40.3099C93.9541 40.0899 92.8341 38.3098 92.6141 36.5198H96.1841C96.333 36.8701 96.5873 37.1653 96.9117 37.3642C97.2361 37.5632 97.6145 37.656 97.9941 37.6299C99.7841 37.6299 100.674 37.4099 100.674 33.8399V33.6199C100.301 34.0933 99.8276 34.4786 99.2883 34.7482C98.749 35.0179 98.1569 35.1652 97.5541 35.1799C96.0475 35.1431 94.6163 34.5133 93.5715 33.4273C92.5266 32.3413 91.9526 30.8867 91.9741 29.3799C91.9741 25.5799 94.6541 23.3799 97.5541 23.3799C98.1381 23.346 98.7219 23.4496 99.2585 23.6824C99.7952 23.9151 100.27 24.2704 100.644 24.7199V23.8298H103.994V33.4199V33.3899ZM97.9941 32.0498C98.3494 32.0653 98.7039 32.007 99.0354 31.8784C99.3669 31.7499 99.6682 31.5539 99.92 31.303C100.172 31.052 100.369 30.7515 100.499 30.4205C100.629 30.0895 100.688 29.7351 100.674 29.3799C100.711 29.0086 100.669 28.6337 100.55 28.2799C100.431 27.9262 100.239 27.6016 99.9859 27.3276C99.7326 27.0535 99.4242 26.8363 99.0809 26.6902C98.7376 26.5441 98.3672 26.4724 97.9941 26.4799C97.2892 26.4902 96.6161 26.7748 96.1176 27.2733C95.6191 27.7718 95.3345 28.4449 95.3241 29.1499C95.3053 29.5164 95.3599 29.8831 95.4845 30.2284C95.6091 30.5737 95.8014 30.8906 96.05 31.1607C96.2987 31.4307 96.5987 31.6484 96.9325 31.8011C97.2663 31.9538 97.6272 32.0384 97.9941 32.0498Z" fill="#FAFAFA"/>
<path fill-rule="evenodd" clip-rule="evenodd" d="M3.12 43.2191H1.56V38.0792H0V36.5191H4.69V38.0792H3.12V43.2191Z" fill="#FAFAFA"/>
<path fill-rule="evenodd" clip-rule="evenodd" d="M11.1586 38.0792V39.1993H13.1686V40.5391H11.1586V41.6493H13.1686V43.2191H9.36864V36.5191H13.1686V38.0792H11.1586Z" fill="#FAFAFA"/>
<path fill-rule="evenodd" clip-rule="evenodd" d="M20.0885 41.6493H22.0885V43.2191H18.5185V36.5191H20.0885V41.6493Z" fill="#FAFAFA"/>
<path fill-rule="evenodd" clip-rule="evenodd" d="M28.5685 38.0792V39.1993H30.5685V40.5391H28.5685V41.6493H30.5685V43.2191H26.9985V36.5191H30.5685V38.0792H28.5685Z" fill="#FAFAFA"/>
<path fill-rule="evenodd" clip-rule="evenodd" d="M38.6079 40.5391L40.3979 36.5191H42.1779L39.2779 43.2191H37.9379L35.2579 36.5191H37.0479L38.6079 40.5391Z" fill="#FAFAFA"/>
<path fill-rule="evenodd" clip-rule="evenodd" d="M46.8666 36.5191H48.4266V43.2191H46.8666V36.5191Z" fill="#FAFAFA"/>
<path fill-rule="evenodd" clip-rule="evenodd" d="M57.3577 38.2993C57.0485 38.0241 56.6514 37.8681 56.2377 37.8593C56.0177 37.8593 55.5677 38.0793 55.5677 38.2993C55.5772 38.4738 55.6509 38.6388 55.7745 38.7624C55.8982 38.886 56.0631 38.9597 56.2377 38.9693L56.6877 39.1993C57.5777 39.4193 58.4677 39.8693 58.4677 40.9793C58.4894 41.3295 58.4186 41.6792 58.2623 41.9934C58.1061 42.3076 57.87 42.5752 57.5777 42.7693C57.061 43.1433 56.4188 43.3012 55.7877 43.2093C54.9921 43.2282 54.2111 42.9936 53.5577 42.5393L54.2277 41.1993C54.4226 41.4186 54.6634 41.5922 54.933 41.708C55.2026 41.8238 55.4944 41.8789 55.7877 41.8693C56.2377 41.8693 56.6877 41.6493 56.6877 41.1993C56.6877 40.7493 56.0177 40.5393 55.5677 40.5393C54.4477 40.0893 53.7877 39.8693 53.7877 38.5393C53.7877 37.2093 54.6777 36.5393 56.0177 36.5393C56.7153 36.4468 57.4232 36.6026 58.0177 36.9793L57.3477 38.3193L57.3577 38.2993Z" fill="#FAFAFA"/>
<path fill-rule="evenodd" clip-rule="evenodd" d="M63.3774 36.5191H64.9374V43.2191H63.3774V36.5191Z" fill="#FAFAFA"/>
<path fill-rule="evenodd" clip-rule="evenodd" d="M77.2161 39.6391C77.2389 40.1442 77.1561 40.6484 76.9732 41.1198C76.7903 41.5911 76.5112 42.0192 76.1537 42.3767C75.7962 42.7342 75.3681 43.0133 74.8968 43.1962C74.4255 43.3791 73.9212 43.4618 73.4161 43.4391C72.9282 43.4372 72.4457 43.3359 71.9982 43.1413C71.5507 42.9467 71.1476 42.6629 70.8135 42.3072C70.4794 41.9516 70.2213 41.5316 70.055 41.0728C69.8886 40.6141 69.8176 40.1262 69.8461 39.6391C69.9205 38.7386 70.3271 37.8979 70.987 37.2806C71.6468 36.6632 72.5127 36.3134 73.4161 36.2991C74.3552 36.2693 75.2705 36.5979 75.9762 37.2181C76.6819 37.8384 77.1252 38.704 77.2161 39.6391ZM71.6361 39.6391C71.6112 39.8895 71.6385 40.1422 71.7162 40.3815C71.7939 40.6208 71.9204 40.8414 72.0876 41.0293C72.2549 41.2173 72.4593 41.3685 72.688 41.4735C72.9166 41.5784 73.1646 41.6348 73.4161 41.6391C73.6837 41.6585 73.9524 41.62 74.2038 41.5263C74.4552 41.4326 74.6836 41.286 74.8733 41.0963C75.063 40.9065 75.2097 40.6782 75.3034 40.4268C75.397 40.1753 75.4355 39.9067 75.4161 39.6391C75.4161 38.7491 74.5261 38.0791 73.4161 38.0791C72.9761 38.0618 72.5463 38.214 72.2151 38.5042C71.884 38.7945 71.6768 39.2007 71.6361 39.6391Z" fill="#FAFAFA"/>
<path fill-rule="evenodd" clip-rule="evenodd" d="M82.1264 36.5191H83.6864L86.8064 40.5391V36.5191H88.5964V43.2191H86.8064L83.6864 39.1993V43.2191H82.1264V36.5191Z" fill="#FAFAFA"/>
</svg>
