<svg width="104" height="64" viewBox="0 0 104 64" fill="none" xmlns="http://www.w3.org/2000/svg">
<g clip-path="url(#clip0_1947_12558)">
<path d="M16.5699 19H21.3199L25.4899 28.79H21.3799L20.9699 27.67H16.9399L16.5299 28.79H12.4199L16.5699 19ZM18.9599 21.96H18.9299L17.7799 25.28H20.1099L18.9599 21.96V21.96Z" fill="#FAFAFA"/>
<path d="M1.26953 19H10.0795C12.0795 19 12.9695 19.88 12.9695 21.44C12.9695 22.3 12.5395 23.06 11.7995 23.35V23.38C13.0595 23.71 13.4695 24.89 13.4695 25.62C13.4695 27.54 12.5095 28.8 9.63953 28.8H1.26953V19ZM5.04953 22.65H7.96953C8.74953 22.65 8.92953 22.39 8.92953 22.01C8.92953 21.65 8.74953 21.39 7.96953 21.39H5.04953V22.65V22.65ZM5.04953 26.41H8.34953C9.11953 26.41 9.34953 26.08 9.34953 25.64C9.34953 25.2 9.11953 24.87 8.34953 24.87H5.04953V26.41V26.41Z" fill="#FAFAFA"/>
<path d="M24.9395 19H29.3595L33.2795 24.43H33.3195V19H37.0295V28.79H32.7895L28.6695 23.31H28.6495V28.79H24.9395V19Z" fill="#FAFAFA"/>
<path d="M37.9004 19H45.4304C48.7504 19 50.5004 20.29 50.5004 23.9C50.5004 27.51 48.7604 28.8 45.5104 28.8H37.9004V19ZM41.7704 26.32H43.9904C45.7604 26.32 46.4704 25.44 46.4704 23.89C46.4704 22.34 45.7604 21.46 43.9904 21.46H41.7704V26.32Z" fill="#FAFAFA"/>
<path d="M4.04 38.36C1.32 37.95 0.2 36.37 0.2 34.4C0.2 30.75 3.77 29.77 8.34 29.77C14.61 29.77 17.19 31.4 17.38 34.38H10.92C10.92 33.81 10.58 33.45 10.07 33.26C9.58 33.04 8.95 32.96 8.34 32.96C6.68 32.96 6.11 33.37 6.11 33.97C6.11 34.36 6.29 34.62 6.84 34.7L13.48 35.69C16.28 36.1 18.01 37.4 18.01 39.79C18.01 43.22 15.21 44.83 8.97 44.83C4.69 44.82 0.02 44.23 0 40.09H6.7C6.72 40.56 6.9 40.88 7.29 41.09C7.7 41.29 8.31 41.39 9.18 41.39C10.91 41.39 11.39 40.92 11.39 40.25C11.39 39.84 11.13 39.42 10.38 39.3L4.03 38.35L4.04 38.36Z" fill="#FAFAFA"/>
<path d="M17.9199 30.26H29.3899C33.3299 30.26 34.7899 32.03 34.7899 35.17C34.7899 37.87 33.3699 39.96 29.4299 39.96H23.4799V44.34H17.9199V30.26ZM23.4799 36.53H27.0699C28.4699 36.53 28.9999 36.1 28.9999 35.07C28.9999 34.04 28.4699 33.57 27.0699 33.57H23.4799V36.53Z" fill="#FAFAFA"/>
<path d="M44.0595 29.77C47.4295 29.77 53.6795 30.01 53.6795 37.3C53.6795 44.59 47.4295 44.83 44.0595 44.83C40.6895 44.83 34.4395 44.59 34.4395 37.3C34.4395 30.01 40.6895 29.77 44.0595 29.77ZM44.0595 41.28C46.3295 41.28 47.7595 40.16 47.7595 37.3C47.7595 34.44 46.3195 33.32 44.0595 33.32C41.7995 33.32 40.3595 34.44 40.3595 37.3C40.3595 40.16 41.7995 41.28 44.0595 41.28Z" fill="#FAFAFA"/>
<path d="M53.6191 30.26H65.3291C66.9291 30.26 67.8891 30.4 68.6591 30.77C69.6991 31.28 70.5691 32.64 70.5691 34.18C70.5691 35.5 70.0191 36.92 68.3991 37.39V37.43C69.2291 37.67 69.8991 38.38 69.9991 39.6L70.2391 42.67C70.2991 43.3 70.5691 43.89 70.9291 44.33H64.8591C64.6591 43.92 64.6591 43.31 64.5591 41.67C64.4991 40.63 64.1491 40 63.1191 40H59.1791V44.34H53.6191V30.26V30.26ZM59.1791 36.45H63.1191C64.1991 36.45 64.6591 36.02 64.6591 35.13C64.6591 34.07 63.9691 33.81 63.0391 33.81H59.1791V36.45Z" fill="#FAFAFA"/>
<path d="M75.5894 33.8H70.4395V30.26H86.2895V33.8H81.1495V44.33H75.5894V33.8Z" fill="#FAFAFA"/>
<path d="M90.0302 38.36C87.3102 37.95 86.1902 36.37 86.1902 34.4C86.1902 30.75 89.7602 29.77 94.3302 29.77C100.6 29.77 103.18 31.4 103.37 34.38H96.9102C96.9102 33.81 96.5702 33.45 96.0602 33.26C95.5702 33.04 94.9402 32.96 94.3302 32.96C92.6702 32.96 92.1002 33.37 92.1002 33.97C92.1002 34.36 92.2802 34.62 92.8302 34.7L99.4702 35.69C102.27 36.1 104 37.4 104 39.79C104 43.22 101.2 44.83 94.9602 44.83C90.6802 44.83 86.0102 44.24 85.9902 40.1H92.6902C92.7102 40.57 92.8902 40.89 93.2802 41.1C93.6902 41.3 94.3002 41.4 95.1702 41.4C96.9002 41.4 97.3802 40.93 97.3802 40.26C97.3802 39.85 97.1202 39.43 96.3702 39.31L90.0202 38.36H90.0302Z" fill="#FAFAFA"/>
</g>
<defs>
<clipPath id="clip0_1947_12558">
<rect width="104" height="25.82" fill="white" transform="translate(0 19)"/>
</clipPath>
</defs>
</svg>
