<svg width="104" height="78" viewBox="0 0 104 78" fill="none" xmlns="http://www.w3.org/2000/svg">
<path d="M2.38497 36.4H0.888672V56.3644H2.38497V60.437H4.54655V19.8842H2.38497V36.4Z" fill="#FAFAFA"/>
<path d="M41.0481 25.884H40.9944L38.7363 32.3888H43.3062L41.0481 25.884Z" fill="#FAFAFA"/>
<path d="M21.4191 25.9646C21.4191 25.2658 21.0701 24.7549 19.5377 24.7549H13.8125V27.2275H19.5377C21.0701 27.2275 21.4191 26.7173 21.4191 25.9643" fill="#FAFAFA"/>
<path d="M94.9595 29.6738C94.9595 26.6364 93.562 24.9161 90.0946 24.9161H85.7402V34.4315H90.0946C93.562 34.4315 94.9595 32.7113 94.9595 29.6738" fill="#FAFAFA"/>
<path d="M102.238 46.6964C102.025 43.4795 99.9041 41.4821 95.7542 40.589L95.668 40.5701V39.497L95.7311 39.4872C98.2134 39.1031 100.104 38.1047 101.349 36.5203C102.642 34.8748 103.271 32.6352 103.271 29.6742C103.271 23.7302 100.874 20.6106 95.7272 19.8575L95.6684 19.8488V17.9212H71.2745V18.7532H42.058V17.5153H13.3111V19.67H5.98397V39.6783H13.3111V40.991H5.93359V60.4682H13.8064V57.0174H18.4991L18.7324 57.3291L20.9642 60.3048L21.087 60.4682H29.7749V57.0174H30.6768V60.4682H51.3299V57.0174H53.7453L53.798 57.1984L54.6647 60.1741L54.7499 60.4682H57.2722V60.8322H84.0499C86.0675 61.2586 88.3117 61.3526 90.3722 61.3526C99.0536 61.3526 103.097 59.0402 103.097 54.0752C103.097 52.9341 102.814 51.9282 102.264 51.0783L102.238 46.6964H102.238ZM78.1609 20.0782H92.9172C99.4224 20.0782 102.863 22.6048 102.863 29.6738C102.863 36.7429 99.4494 39.2695 93.0791 39.2695H78.1609V20.0782ZM29.3671 60.0597H21.2911L13.4508 49.6054H13.3982V60.0597H6.34147V41.3992H14.757L22.2327 51.7488H22.3107V41.3992H29.3674V60.0597H29.3671ZM28.2006 39.2698L29.147 37.0458C28.0342 38.4531 26.0423 39.2698 22.816 39.2698H6.39282V20.0782H23.6493C27.5737 20.0782 29.3212 21.7981 29.3212 24.8629C29.3212 26.5561 28.4879 28.0345 27.0368 28.5991V28.6527C29.5091 29.2978 30.3157 31.6095 30.3157 33.034C30.3157 33.5878 30.2738 34.1133 30.1861 34.6073L36.3718 20.0785H45.672L52.7781 36.7676V20.0782H61.4332L69.1211 30.7223H69.2013V20.0782H76.4589V39.2698H68.1532L60.0893 28.5181H60.036V39.2698H45.7802L44.9739 37.0656H37.0718L36.2655 39.2698H28.2016H28.2006ZM62.986 58.9752L63.4297 57.1822L63.4706 57.0174H66.2799L66.3202 57.1812L66.7593 58.9752H62.986V58.9752ZM75.4283 58.9752L75.9487 57.1987L76.0013 57.0174H78.2539L78.3839 57.2702C78.7277 57.9417 79.199 58.5039 79.7668 58.9752H75.4283V58.9752ZM90.3728 60.944C84.5504 60.944 78.1915 60.139 78.1645 54.5042H87.2876C87.3142 55.148 87.556 55.5773 88.0926 55.8727C88.6562 56.1409 89.4885 56.2751 90.6689 56.2751C93.03 56.2751 93.6742 55.6313 93.6742 54.719C93.6742 54.1554 93.3251 53.5922 92.3056 53.431L83.6655 52.143C80.174 51.6117 78.6156 49.6724 78.4489 47.203L74.6864 60.0597H67.4463L64.9113 49.7101H64.859L62.298 60.0597H55.058L50.923 45.8644V45.9466H38.4567V48.4556H50.0345V53.0033H38.4567V55.5123H50.923V60.0597H31.0857V41.3992H56.7564L59.1611 52.7943H59.2131L61.9577 41.3992H67.838L70.5559 52.7943H70.6079L73.012 41.3992H80.1473L79.603 43.2592C81.4048 41.1161 85.1176 40.4447 89.5145 40.4447C98.047 40.4447 101.562 42.6719 101.831 46.7233H93.0297C93.0297 45.945 92.5734 45.4623 91.8759 45.1939C91.2048 44.8988 90.3465 44.7912 89.5145 44.7912C87.2606 44.7912 86.4826 45.3548 86.4826 46.1595C86.4826 46.696 86.7244 47.0451 87.4751 47.1523L96.5176 48.4939C100.328 49.0572 102.689 50.8284 102.689 54.0748C102.689 58.7438 98.8784 60.944 90.3725 60.944" fill="#FAFAFA"/>
<path d="M20.2901 31.5822H13.8125V34.5927H20.2901C21.7961 34.5927 22.2528 33.9476 22.2528 33.0876C22.2528 32.2277 21.7961 31.5825 20.2901 31.5825" fill="#FAFAFA"/>
</svg>
