<svg width="104" height="65" viewBox="0 0 104 65" fill="none" xmlns="http://www.w3.org/2000/svg">
<g clip-path="url(#clip0_1947_12560)">
<path d="M12 64.0923V56.0912H14.8897C15.3554 56.0912 15.7563 56.1408 16.0884 56.2362C16.4205 56.3317 16.6953 56.4691 16.9053 56.6485C17.1152 56.8279 17.2718 57.0379 17.3672 57.286C17.4626 57.5341 17.5122 57.8052 17.5122 58.1029C17.5122 58.4007 17.4741 58.6259 17.4015 58.832C17.329 59.0382 17.2298 59.2061 17.1114 59.3436C16.9931 59.481 16.8595 59.5879 16.7068 59.6642C16.5541 59.7406 16.3976 59.7978 16.2334 59.8246V59.8475C16.7908 59.9276 17.203 60.149 17.4741 60.504C17.7451 60.8591 17.8787 61.3057 17.8787 61.8363C17.8787 62.2524 17.8138 62.6036 17.684 62.8899C17.5542 63.18 17.3748 63.4129 17.1458 63.5885C16.9167 63.7679 16.6419 63.8938 16.3174 63.9702C15.9968 64.0465 15.6456 64.0885 15.2676 64.0885H12V64.0923ZM12.7558 59.626H14.6683C15.0615 59.626 15.3898 59.5917 15.657 59.5268C15.9242 59.4619 16.138 59.3627 16.3022 59.2329C16.4663 59.1031 16.5808 58.9427 16.6533 58.7557C16.7259 58.5686 16.7602 58.3511 16.7602 58.1067C16.7602 57.8624 16.7182 57.641 16.6381 57.4692C16.5579 57.2937 16.4281 57.1562 16.2487 57.0455C16.0693 56.9386 15.8403 56.8623 15.554 56.8127C15.2676 56.763 14.9203 56.7401 14.5042 56.7401H12.7558V59.6299V59.626ZM12.7558 63.4472H14.676C15.0921 63.4472 15.4509 63.4281 15.7601 63.39C16.0655 63.3518 16.3212 63.2754 16.5197 63.1609C16.7221 63.0464 16.8709 62.8822 16.9702 62.6723C17.0694 62.4623 17.1191 62.1799 17.1191 61.8325C17.1191 61.4851 17.0618 61.2293 16.9511 61.027C16.8404 60.8247 16.6801 60.6644 16.4739 60.5537C16.2678 60.443 16.0197 60.3666 15.7295 60.3246C15.4394 60.2826 15.1188 60.2635 14.7638 60.2635H12.7558V63.4396V63.4472Z" fill="#FAFAFA"/>
<path d="M18.4139 64.0923L21.5594 56.0912H22.4145L25.4798 64.0923H24.7011L23.7773 61.5805H20.1317L19.185 64.0923H18.4062H18.4139ZM20.3913 60.9354H23.5253L21.9564 56.7363L20.3913 60.9354V60.9354Z" fill="#FAFAFA"/>
<path d="M27.0444 57.1142H27.0215V64.0923H26.2656V56.0912H27.1207L31.7435 63.0807H31.7664V56.0912H32.5223V64.0923H31.6443L27.0444 57.1142Z" fill="#FAFAFA"/>
<path d="M34.0449 64.0923V56.0912H36.7781C36.9995 56.0912 37.2171 56.095 37.4347 56.1065C37.6485 56.1179 37.8623 56.1446 38.0684 56.1828C38.2745 56.2248 38.4769 56.2859 38.6754 56.366C38.87 56.4462 39.0609 56.5531 39.248 56.6867C39.5152 56.8814 39.7328 57.1142 39.9045 57.3929C40.0763 57.6716 40.2099 57.9617 40.3092 58.2709C40.4084 58.5801 40.481 58.8893 40.5191 59.2061C40.5611 59.523 40.5802 59.8131 40.5802 60.0765C40.5802 60.3399 40.5649 60.6147 40.5306 60.8858C40.4962 61.1606 40.4428 61.4278 40.3703 61.6912C40.2977 61.9546 40.1985 62.2066 40.0763 62.4471C39.9542 62.6876 39.8015 62.909 39.6144 63.1075C39.4312 63.3136 39.2289 63.4816 39.0075 63.6075C38.7899 63.7335 38.5608 63.8328 38.3165 63.9015C38.0722 63.9702 37.8241 64.0198 37.5683 64.0465C37.3088 64.0733 37.0454 64.0847 36.7781 64.0847H34.0449V64.0923ZM34.8008 63.4472H36.614C36.9537 63.4472 37.2744 63.4281 37.576 63.3861C37.8775 63.3441 38.1829 63.2449 38.4921 63.0807C38.7593 62.9471 38.9769 62.7677 39.1487 62.5349C39.3205 62.3058 39.4541 62.0539 39.5534 61.7867C39.6526 61.5156 39.7251 61.2332 39.7633 60.9354C39.8053 60.6376 39.8244 60.3552 39.8244 60.0803C39.8244 59.7902 39.8053 59.4963 39.7709 59.1985C39.7328 58.8969 39.6641 58.6145 39.561 58.3434C39.4579 58.0724 39.3167 57.8243 39.1373 57.599C38.9578 57.3738 38.7288 57.1868 38.4463 57.0379C38.2096 56.9119 37.9272 56.8318 37.6027 56.7936C37.2782 56.7554 36.9461 56.7363 36.614 56.7363H34.8008V63.4472V63.4472Z" fill="#FAFAFA"/>
<path d="M41.7988 64.0923V56.0912H47.1202V56.7363H42.5547V59.626H46.6774V60.2712H42.5547V63.4472H47.2347V64.0923H41.7988V64.0923Z" fill="#FAFAFA"/>
<path d="M48.5898 64.0923V56.0912H49.3457V64.0923H48.5898Z" fill="#FAFAFA"/>
<path d="M51.8789 60.4582V64.0923L51.123 64.0809V56.0912H54.2571C55.1389 56.0912 55.8146 56.2553 56.2803 56.5836C56.746 56.9119 56.9827 57.4502 56.9827 58.1907C56.9827 58.6946 56.8796 59.0954 56.6773 59.3894C56.475 59.6871 56.1429 59.9391 55.6848 60.1452C55.9215 60.2254 56.1085 60.3437 56.2383 60.5002C56.3719 60.6567 56.4712 60.8323 56.5399 61.0347C56.6086 61.2332 56.6506 61.4469 56.6658 61.6683C56.6811 61.8897 56.6964 62.1073 56.704 62.3135C56.7116 62.6189 56.7231 62.867 56.7422 63.0693C56.7613 63.2678 56.7842 63.4319 56.8109 63.5579C56.8376 63.6839 56.8682 63.7831 56.9063 63.8519C56.9445 63.9206 56.9865 63.9778 57.0399 64.0122V64.0771L56.2078 64.0885C56.1276 63.9549 56.0703 63.7717 56.036 63.535C56.0016 63.2983 55.9749 63.0502 55.9596 62.7906C55.9405 62.5311 55.9253 62.2791 55.9138 62.0348C55.9024 61.7905 55.8833 61.592 55.8527 61.4355C55.8069 61.2217 55.7344 61.0499 55.6352 60.9201C55.5359 60.7903 55.4137 60.6911 55.2725 60.6262C55.1313 60.5613 54.9748 60.5155 54.7992 60.4926C54.6236 60.4697 54.4441 60.4582 54.2609 60.4582H51.8827H51.8789ZM54.2342 59.8131C54.5167 59.8131 54.7762 59.7826 55.0167 59.7253C55.2572 59.6642 55.4672 59.5726 55.6428 59.4428C55.8184 59.313 55.9596 59.1489 56.0627 58.9504C56.1658 58.7519 56.2192 58.5114 56.2192 58.2289C56.2192 57.9312 56.1658 57.6868 56.0589 57.496C55.952 57.3013 55.8069 57.1524 55.6237 57.0417C55.4405 56.931 55.2343 56.8547 55.0015 56.8088C54.7686 56.763 54.5243 56.7439 54.2724 56.7439H51.8712V59.8207H54.2266L54.2342 59.8131Z" fill="#FAFAFA"/>
<path d="M57.5447 64.0923L60.6902 56.0912H61.5453L64.6107 64.0923H63.8319L62.9081 61.5805H59.2625L58.3158 64.0923H57.5371H57.5447ZM59.5221 60.9354H62.6562L61.0872 56.7363L59.5221 60.9354Z" fill="#FAFAFA"/>
<path d="M66.1791 57.1142H66.1562V64.0923H65.4004V56.0912H66.2555L70.8783 63.0807H70.9012V56.0912H71.657V64.0923H70.779L66.1791 57.1142V57.1142Z" fill="#FAFAFA"/>
<path d="M72.455 56.0912H78.2764V56.7363H75.7417V64.0923H74.9859V56.7363H72.4512V56.0912H72.455Z" fill="#FAFAFA"/>
<path d="M79.0898 64.0923V56.0912H84.4112V56.7363H79.8457V59.626H83.9684V60.2712H79.8457V63.4472H84.5257V64.0923H79.0898V64.0923Z" fill="#FAFAFA"/>
<path d="M85.9109 61.7027C85.9415 62.0577 86.0216 62.3593 86.1514 62.6074C86.2812 62.8555 86.4492 63.0579 86.6515 63.2144C86.8538 63.3709 87.0905 63.4816 87.3577 63.5541C87.6249 63.6228 87.9112 63.661 88.2128 63.661C88.5678 63.661 88.877 63.6152 89.1366 63.5274C89.3962 63.4396 89.6061 63.3174 89.7703 63.1648C89.9344 63.0121 90.0528 62.8365 90.1329 62.638C90.2093 62.4395 90.2513 62.2257 90.2513 62.0043C90.2513 61.6951 90.1825 61.4431 90.0413 61.2484C89.9001 61.0576 89.7168 60.8973 89.4916 60.7751C89.2664 60.6529 89.0068 60.5537 88.7129 60.4812C88.4189 60.4086 88.1212 60.3361 87.812 60.2636C87.5028 60.1949 87.205 60.1109 86.9111 60.0154C86.6171 59.92 86.3614 59.7902 86.1323 59.6261C85.9071 59.4619 85.7239 59.252 85.5826 59C85.4414 58.7443 85.3727 58.4198 85.3727 58.0266C85.3727 57.7518 85.4299 57.4845 85.5445 57.225C85.659 56.9654 85.8308 56.7363 86.056 56.534C86.2812 56.3355 86.5637 56.1752 86.9073 56.0569C87.247 55.9385 87.6402 55.8774 88.0868 55.8774C88.5335 55.8774 88.9343 55.9385 89.2702 56.0645C89.6061 56.1905 89.8848 56.3622 90.11 56.5798C90.3314 56.7974 90.4994 57.0532 90.6101 57.3395C90.7208 57.6296 90.778 57.935 90.778 58.2633H90.0566C90.0566 57.9579 90.0031 57.6983 89.8962 57.4731C89.7894 57.2517 89.6443 57.0685 89.4573 56.9272C89.2702 56.786 89.0602 56.6829 88.8236 56.618C88.5869 56.5531 88.3426 56.5188 88.0906 56.5188C87.7051 56.5188 87.3806 56.5722 87.1172 56.6791C86.8538 56.786 86.6439 56.9272 86.4912 57.0952C86.3347 57.267 86.2278 57.454 86.1705 57.6601C86.1094 57.8663 86.1018 58.0762 86.1362 58.2824C86.182 58.542 86.285 58.7481 86.4492 58.9046C86.6133 59.0611 86.8118 59.1871 87.0485 59.2863C87.2852 59.3856 87.5486 59.4696 87.8311 59.5306C88.1174 59.5917 88.4075 59.6604 88.7052 59.7291C89.003 59.7979 89.2893 59.8818 89.568 59.9773C89.8466 60.0727 90.0909 60.2025 90.3085 60.3666C90.5223 60.5308 90.6941 60.7369 90.8239 60.9927C90.9537 61.2484 91.0185 61.5691 91.0185 61.9547C91.0185 62.6952 90.7628 63.2678 90.2513 63.6763C89.7397 64.0847 89.0221 64.2871 88.0945 64.2871C87.6784 64.2871 87.2928 64.2336 86.9378 64.1267C86.5828 64.0198 86.2736 63.8557 86.014 63.6381C85.7544 63.4205 85.5521 63.1495 85.407 62.8288C85.262 62.5082 85.1895 62.1264 85.1895 61.6913H85.9224L85.9109 61.7027Z" fill="#FAFAFA"/>
<path d="M25.3262 43.1695C32.9304 48.4947 41.7065 51.2241 51.4102 51.2699H51.6888C61.1329 51.2699 69.8174 48.5443 77.4941 43.1619C84.3157 38.3902 88.4193 32.794 89.8623 30.5837C90.8014 29.1331 90.8014 28.2131 89.8165 26.6595C88.8125 25.0638 84.9799 19.4332 77.8033 14.3791C74.2532 11.8673 70.4358 9.87842 66.4238 8.49273C61.6597 6.83982 56.6132 6 51.4025 6H51.3491C41.8592 6.01527 33.1747 8.72559 25.5056 14.108C19.081 18.5972 15.0194 23.8576 13.1947 26.5946C12.1755 28.1024 12.1793 29.4309 13.21 30.9044C16.5921 35.7944 20.6691 39.9171 25.3224 43.1733M33.7358 15.7457C38.5342 11.184 44.7947 8.67978 51.33 8.67978C60.881 8.67978 67.1491 13.5927 70.035 16.5092C73.7798 20.3036 75.9901 24.8462 75.9442 28.6674C76.0091 32.3435 73.6691 37.1572 69.9892 40.9173C65.1106 45.9065 58.5219 48.6436 51.4598 48.6436C44.8176 48.6436 38.5075 46.0745 33.6824 41.4364C29.6742 37.5847 27.086 32.5802 27.086 28.6636C27.086 24.747 29.6398 19.6165 33.7397 15.7419" fill="#FAFAFA"/>
<path d="M51.5866 46.2425C56.2781 46.2425 60.691 44.414 64.0044 41.0891C67.3255 37.7641 69.1502 33.3704 69.1502 28.6674C69.1502 23.9644 67.3255 19.5668 64.0044 16.2534C60.691 12.9361 56.2781 11.1076 51.5866 11.1076C46.8951 11.1076 42.4784 12.9361 39.1611 16.2534C35.8477 19.5707 34.0039 23.9797 34.0039 28.6674C34.0039 33.3551 35.8477 37.768 39.1611 41.0891C42.4784 44.4178 46.8875 46.2425 51.5866 46.2425" fill="#FAFAFA"/>
</g>
<defs>
<clipPath id="clip0_1947_12560">
<rect width="79" height="58.3023" fill="white" transform="translate(12 6)"/>
</clipPath>
</defs>
</svg>
