<svg width="104" height="64" viewBox="0 0 104 64" fill="none" xmlns="http://www.w3.org/2000/svg">
<path d="M92.9298 42.94L92.8098 44.6401L91.6598 44.5401C91.0713 44.4802 90.4783 44.4802 89.8898 44.5401C89.3698 44.6101 89.2198 44.7802 89.2198 45.3102C89.2198 46.1102 89.3298 46.2301 90.1198 46.4001C90.7498 46.5301 91.3798 46.63 91.9898 46.82C92.3786 46.8873 92.732 47.0877 92.9892 47.3869C93.2465 47.6862 93.3916 48.0655 93.3998 48.4601C93.4498 49.0256 93.4498 49.5946 93.3998 50.1601C93.3758 50.475 93.2712 50.7783 93.0961 51.041C92.921 51.3037 92.6812 51.5169 92.3998 51.6601C90.7511 52.2704 88.9385 52.2704 87.2898 51.6601L87.5398 50.1301C87.7802 50.1088 88.0223 50.1394 88.2498 50.2201C89.0263 50.3765 89.8221 50.4136 90.6098 50.3301C91.1898 50.2501 91.3798 50.0401 91.3798 49.4701C91.3798 48.6501 91.2498 48.47 90.4398 48.32C89.7653 48.2203 89.0974 48.0801 88.4398 47.9001C88.1295 47.8155 87.8503 47.643 87.6357 47.4035C87.421 47.1641 87.2801 46.8678 87.2298 46.5502C87.1007 45.8916 87.0704 45.2176 87.1398 44.5502C87.1717 44.1812 87.3225 43.8324 87.5695 43.5565C87.8166 43.2806 88.1466 43.0924 88.5098 43.0201C89.3846 42.7976 90.2889 42.7133 91.1898 42.7701C91.7742 42.7655 92.3574 42.8224 92.9298 42.94V42.94Z" fill="#FAFAFA"/>
<path d="M16.1095 43.61C16.1097 44.1779 16.0797 44.7454 16.0195 45.3101C15.4095 45.3101 14.8295 45.22 14.2395 45.2C13.8116 45.1734 13.382 45.1969 12.9595 45.2701C12.882 45.2764 12.8064 45.2979 12.7372 45.3335C12.668 45.3692 12.6065 45.4181 12.5563 45.4776C12.5061 45.5371 12.4682 45.606 12.4447 45.6802C12.4213 45.7544 12.4127 45.8325 12.4195 45.9101C12.4195 46.7501 12.5395 46.91 13.4195 47.12C14.0122 47.2169 14.5997 47.3438 15.1795 47.5C15.6098 47.5596 16.0018 47.7789 16.2779 48.1142C16.5539 48.4495 16.6937 48.8764 16.6695 49.3101C16.7395 49.8612 16.7395 50.4189 16.6695 50.97C16.6327 51.2894 16.5101 51.5929 16.3147 51.8482C16.1192 52.1035 15.8583 52.3012 15.5595 52.4201C13.9343 52.9719 12.1687 52.9471 10.5595 52.35L10.8095 50.7601C11.7026 50.9963 12.6272 51.0908 13.5495 51.0401C13.738 51.0274 13.9251 51.0006 14.1095 50.96C14.2642 50.94 14.4054 50.8614 14.504 50.7405C14.6025 50.6196 14.6511 50.4657 14.6395 50.3101V49.95C14.6395 49.37 14.4695 49.1801 13.8895 49.0501C13.3095 48.9201 12.6795 48.8301 12.0795 48.6801C11.6109 48.6344 11.1782 48.4087 10.8724 48.0507C10.5666 47.6927 10.4115 47.2301 10.4395 46.7601C10.3795 46.2418 10.3795 45.7183 10.4395 45.2C10.4735 44.8734 10.6024 44.5639 10.8103 44.3097C11.0182 44.0556 11.2961 43.868 11.6095 43.7701C12.5974 43.4744 13.6318 43.3658 14.6595 43.45C15.1462 43.4673 15.6308 43.5208 16.1095 43.61V43.61Z" fill="#FAFAFA"/>
<path d="M62.4607 44.52L62.3507 46.1999C61.8007 46.1999 61.2707 46.13 60.7507 46.08C60.2865 46.0548 59.8209 46.0749 59.3607 46.14C58.9107 46.2 58.7607 46.4 58.7607 46.86C58.7607 47.68 58.8507 47.86 59.6507 47.99C60.3263 48.1102 60.9941 48.2704 61.6507 48.47C61.9978 48.5564 62.3074 48.7535 62.5329 49.0312C62.7583 49.309 62.8874 49.6525 62.9007 50.01C62.9807 50.6442 62.9807 51.2859 62.9007 51.92C62.8576 52.2327 62.7307 52.5278 62.5336 52.7743C62.3364 53.0207 62.0762 53.2093 61.7807 53.3199C60.8524 53.6525 59.8621 53.7756 58.8807 53.68C58.1739 53.6607 57.4762 53.515 56.8207 53.25L57.0707 51.67L58.6107 51.91C59.1514 51.9851 59.6999 51.9851 60.2407 51.91C60.3364 51.9111 60.4313 51.8914 60.5187 51.8522C60.606 51.8129 60.6838 51.755 60.7466 51.6827C60.8094 51.6104 60.8557 51.5254 60.8823 51.4333C60.9089 51.3413 60.9152 51.2447 60.9007 51.15C60.9007 51.02 60.9007 50.89 60.9007 50.76C60.9007 50.28 60.7607 50.12 60.3007 50.01C59.8407 49.9 59.1107 49.77 58.5207 49.64C58.3137 49.5973 58.1099 49.5405 57.9107 49.47C57.6251 49.3837 57.3697 49.2188 57.1734 48.9943C56.9771 48.7697 56.8479 48.4944 56.8007 48.1999C56.6779 47.6083 56.6342 47.0031 56.6707 46.4C56.6558 45.967 56.8003 45.5437 57.0768 45.2101C57.3532 44.8765 57.7424 44.6558 58.1707 44.59C59.2926 44.3389 60.4493 44.2814 61.5907 44.42C61.8839 44.4131 62.1767 44.4467 62.4607 44.52V44.52Z" fill="#FAFAFA"/>
<path d="M66.1893 53.2301L65.8093 45.9901L63.3893 46.1101L63.2793 44.2902L70.1993 43.9302L70.2993 45.7501L67.8693 45.8901C67.9993 48.3001 68.1193 50.6901 68.2493 53.1201L66.1893 53.2301Z" fill="#FAFAFA"/>
<path d="M45.5994 51L43.5994 51.11L43.2195 43.88L40.7895 44L40.6895 42.1801L47.5795 41.8101C47.654 42.4139 47.6941 43.0215 47.6994 43.63L45.2794 43.77L45.5994 51Z" fill="#FAFAFA"/>
<path d="M54.5307 48.14C54.7579 47.9886 54.969 47.8144 55.1607 47.62C55.5411 47.327 55.905 47.0133 56.2507 46.6801C55.9389 46.6367 55.6225 46.6367 55.3107 46.6801H53.1007L52.8707 46.61L52.6707 46.1801C52.6519 45.9962 52.5788 45.8222 52.4607 45.6801V45.6801C52.3992 45.3739 52.2805 45.082 52.1107 44.8199V44.8199C52.0485 44.5516 51.9509 44.2928 51.8207 44.05V44.05C51.779 43.8467 51.686 43.6574 51.5507 43.5L50.5507 46.67C50.4398 46.7289 50.3162 46.7598 50.1907 46.76L49.2707 46.83L47.2207 46.99V47.09L48.5907 48.09L49.5007 48.74L49.8607 49.0601L49.0607 52.34C49.3295 52.2235 49.5738 52.0573 49.7807 51.85V51.85C49.9707 51.71 50.2107 51.64 50.3507 51.42C50.5678 51.3103 50.7696 51.1724 50.9507 51.01C51.1279 50.9141 51.2925 50.7966 51.4407 50.66C51.5775 50.5325 51.7472 50.4459 51.9307 50.41V50.41L52.0807 50.49L52.3507 50.66L52.6907 50.87L52.9107 51.01C53.0154 51.111 53.142 51.1863 53.2807 51.23C53.3774 51.3334 53.4974 51.4122 53.6307 51.46L53.8407 51.58C53.938 51.6803 54.0581 51.7559 54.1907 51.8C54.3518 51.9387 54.5387 52.044 54.7407 52.11C54.7122 51.821 54.6309 51.5397 54.5007 51.28V51.28C54.4331 50.9856 54.3394 50.6978 54.2207 50.42C54.1825 50.1771 54.1083 49.9411 54.0007 49.72V49.72C53.9658 49.4935 53.8949 49.274 53.7907 49.0699V49.0699V48.87L54.1407 48.5699C54.2904 48.4458 54.4218 48.3011 54.5307 48.14V48.14ZM49.2607 46.78H49.1907H49.2607Z" fill="#FAFAFA"/>
<path d="M74.0006 24.59H78.0006C78.0006 26.07 78.1206 27.5 78.0706 28.99H74.0706C74.027 29.0307 73.9927 29.0804 73.9703 29.1357C73.9478 29.1909 73.9377 29.2505 73.9406 29.3101C73.9406 31.3101 72.7606 31.7801 71.1606 31.6701C70.8553 31.6962 70.548 31.6517 70.2626 31.5402C69.9772 31.4287 69.7212 31.2532 69.5144 31.027C69.3075 30.8009 69.1555 30.5303 69.0699 30.236C68.9843 29.9418 68.9674 29.6318 69.0206 29.33C69.0206 27.65 69.0206 25.97 69.0206 24.33C69.0172 24.033 69.0542 23.737 69.1306 23.45C69.2074 23.0743 69.4002 22.7323 69.682 22.4721C69.9637 22.2119 70.32 22.0468 70.7006 22.0001C71.2037 21.915 71.7175 21.915 72.2206 22.0001C72.7066 22.0552 73.1539 22.2919 73.4728 22.6628C73.7918 23.0336 73.9589 23.5113 73.9406 24.0001C73.9312 24.1986 73.9514 24.3974 74.0006 24.59V24.59Z" fill="#FAFAFA"/>
<path d="M36.1797 25.23V22.1C36.1797 22.1 36.2697 22.03 36.3197 22.03C37.36 21.9617 38.4043 21.9884 39.4397 22.11C39.6247 22.1447 39.8056 22.1984 39.9797 22.27C40.258 22.3791 40.4919 22.5781 40.6441 22.8354C40.7963 23.0927 40.8581 23.3934 40.8197 23.6899C40.8325 23.9712 40.7537 24.2492 40.595 24.4818C40.4363 24.7144 40.2063 24.8893 39.9397 24.98C39.6415 25.0946 39.3282 25.1653 39.0097 25.1899C38.0797 25.2799 37.1597 25.21 36.1797 25.23Z" fill="#FAFAFA"/>
<path d="M56.0605 22.7101V26.4701H53.2305C53.5751 25.4158 54.0487 24.4082 54.6405 23.4701C54.8 23.2221 55.0203 23.019 55.2805 22.8801C55.3918 22.7997 55.5186 22.7431 55.6528 22.7139C55.787 22.6846 55.9258 22.6833 56.0605 22.7101V22.7101Z" fill="#FAFAFA"/>
<path d="M38.9992 48.2301C39.4085 48.0299 39.7439 47.7055 39.9576 47.3032C40.1714 46.9009 40.2524 46.4412 40.1892 45.9901C40.1892 45.5601 40.1892 45.14 40.1192 44.71C40.1397 44.397 40.0933 44.0832 39.983 43.7895C39.8728 43.4958 39.7013 43.2289 39.48 43.0065C39.2586 42.7842 38.9925 42.6117 38.6992 42.5002C38.406 42.3887 38.0924 42.3409 37.7792 42.3601C36.7792 42.3601 35.8592 42.43 34.8992 42.46L33.1992 42.5501C33.3492 45.5501 33.5092 48.5501 33.6692 51.6201L35.7192 51.5001C35.7192 50.5001 35.6292 49.64 35.5792 48.7L36.7592 48.6401C37.4692 49.5401 38.1792 50.42 38.8992 51.34L41.3492 51.2201L38.9992 48.2301ZM37.4192 46.7801C36.7992 46.8601 36.1692 46.8801 35.4892 46.9301C35.4892 46.0201 35.3992 45.1701 35.3492 44.2901C36.0126 44.2092 36.6812 44.179 37.3492 44.2C37.4451 44.1915 37.5418 44.2035 37.6328 44.2351C37.7237 44.2667 37.8069 44.3172 37.8769 44.3834C37.9469 44.4496 38.002 44.5299 38.0386 44.619C38.0752 44.708 38.0924 44.8039 38.0892 44.9001C38.1291 45.252 38.1492 45.6059 38.1492 45.96C38.1592 46.47 37.9992 46.7201 37.4592 46.7801H37.4192Z" fill="#FAFAFA"/>
<path d="M84.6598 49.1801C85.0896 48.9594 85.4361 48.605 85.6471 48.1703C85.8581 47.7357 85.9222 47.2443 85.8298 46.7701C85.8298 46.3201 85.8298 45.8701 85.7498 45.4201C85.7428 44.8852 85.5319 44.3731 85.1603 43.9885C84.7886 43.6038 84.2841 43.3755 83.7498 43.35C83.0514 43.285 82.3483 43.285 81.6498 43.35L78.8398 43.5001C78.9998 46.5001 79.1498 49.5001 79.3098 52.5601L81.3098 52.45C81.3098 51.45 81.2298 50.5801 81.1798 49.6601C81.5712 49.611 81.9656 49.5909 82.3598 49.6L84.4998 52.2901L86.9398 52.1501C86.1898 51.1401 85.4398 50.1801 84.6598 49.1801ZM83.0598 47.7501C82.4224 47.8211 81.7811 47.8511 81.1398 47.84C81.1398 46.96 81.0498 46.11 80.9998 45.23C81.6973 45.1571 82.3991 45.1338 83.0998 45.1601C83.256 45.1739 83.4021 45.2429 83.5121 45.3547C83.622 45.4664 83.6886 45.6137 83.6998 45.7701C83.7583 46.1538 83.7817 46.5421 83.7698 46.9301C83.7825 47.0316 83.7736 47.1345 83.7439 47.2324C83.7142 47.3302 83.6642 47.4207 83.5973 47.498C83.5304 47.5753 83.4479 47.6377 83.3553 47.6811C83.2628 47.7245 83.1621 47.748 83.0598 47.7501V47.7501Z" fill="#FAFAFA"/>
<path d="M32.0999 45.2501C32.0913 44.7241 31.9164 44.2144 31.6002 43.794C31.284 43.3736 30.8428 43.0642 30.3399 42.9101C29.2185 42.5244 27.9972 42.5456 26.8899 42.97C26.3246 43.1349 25.8346 43.4918 25.5042 43.9792C25.1738 44.4666 25.0237 45.0539 25.0799 45.6401C25.0799 46.2201 25.0799 46.8001 25.1599 47.3801C25.1599 48.0501 25.2299 48.7201 25.2799 49.3801C25.2819 49.906 25.4518 50.4175 25.7648 50.8401C26.0777 51.2628 26.5174 51.5746 27.0199 51.73C28.129 52.1449 29.3507 52.1449 30.4599 51.73C31.0424 51.5613 31.5461 51.1913 31.8813 50.6858C32.2164 50.1804 32.3612 49.5723 32.2899 48.97C32.2399 47.71 32.1799 46.4801 32.0999 45.2501ZM29.3099 50.11C28.9155 50.2051 28.5042 50.2051 28.1099 50.11C27.9018 50.074 27.7123 49.9682 27.5723 49.8101C27.4324 49.652 27.3504 49.4509 27.3399 49.24C27.2599 48.02 27.1999 46.7901 27.1399 45.5601C27.1349 45.5002 27.1349 45.44 27.1399 45.3801C27.2699 44.7401 27.8999 44.38 28.9299 44.49C29.0729 44.4847 29.2155 44.508 29.3493 44.5588C29.4831 44.6095 29.6054 44.6866 29.7089 44.7855C29.8124 44.8843 29.895 45.0029 29.9519 45.1342C30.0087 45.2655 30.0387 45.407 30.0399 45.5501C30.0399 45.8401 30.0399 46.1401 30.0999 46.4301V47.32C30.0999 47.85 30.1599 48.3801 30.1799 48.9101C30.2086 49.0467 30.2085 49.1878 30.1794 49.3244C30.1503 49.461 30.0929 49.5899 30.0109 49.7029C29.929 49.816 29.8243 49.9107 29.7035 49.9808C29.5828 50.0509 29.4487 50.0949 29.3099 50.11V50.11Z" fill="#FAFAFA"/>
<path d="M75.1606 43.6699L72.4306 43.8099C71.6606 46.8899 70.9006 49.9299 70.1406 53.0199L72.2806 52.8999C72.4206 52.2899 72.5506 51.7099 72.6806 51.1199L75.6806 50.9598C75.8906 51.5598 76.0806 52.1198 76.2706 52.6998L78.4106 52.5798C77.3206 49.5798 76.2406 46.6299 75.1606 43.6699ZM73.0606 49.3699C73.3306 48.1199 73.6006 46.9198 73.8606 45.7098H73.9306C74.3106 46.8698 74.7006 48.0399 75.1006 49.2399C74.4206 49.3399 73.7706 49.3199 73.0606 49.3699V49.3699Z" fill="#FAFAFA"/>
<path d="M24.3307 45.51C24.3502 45.1772 24.2946 44.8444 24.1679 44.5361C24.0412 44.2278 23.8467 43.952 23.5989 43.7292C23.3511 43.5063 23.0562 43.3422 22.7363 43.2488C22.4163 43.1555 22.0795 43.1353 21.7507 43.1899C20.7507 43.1899 19.6907 43.27 18.6607 43.31L17.4707 43.39C17.6307 46.39 17.7907 49.3899 17.9507 52.4599C18.6707 52.3599 19.3307 52.46 19.9507 52.3C19.9507 51.4 19.8607 50.5199 19.8207 49.5899H20.8207C21.4971 49.5888 22.17 49.4947 22.8207 49.31C23.2392 49.2022 23.6115 48.9617 23.8819 48.6246C24.1523 48.2875 24.3063 47.8718 24.3207 47.4399C24.3873 46.7984 24.3907 46.1521 24.3307 45.51V45.51ZM22.3307 46.9799C22.3361 47.0674 22.324 47.1552 22.2951 47.238C22.2663 47.3208 22.2212 47.3969 22.1625 47.4621C22.1039 47.5273 22.0328 47.5801 21.9535 47.6175C21.8742 47.6549 21.7883 47.6762 21.7007 47.68C21.0638 47.7585 20.4224 47.7952 19.7807 47.79C19.7807 46.87 19.7007 46.0099 19.6507 45.0899C20.3159 45.0348 20.9834 45.0148 21.6507 45.03C21.8191 45.0371 21.9788 45.1065 22.0989 45.2248C22.219 45.3431 22.2909 45.5017 22.3007 45.67C22.3555 46.1114 22.3588 46.5577 22.3107 46.9999L22.3307 46.9799Z" fill="#FAFAFA"/>
<path d="M0 7V46.42H7.07L6.89 42.59C6.89 42.06 6.89 41.53 6.81 40.92L51.4 38.59C51.46 39.66 51.53 40.7 51.59 41.78L96.39 39.4399C96.39 40.0699 96.46 40.65 96.49 41.24L96.73 46C96.73 46.14 96.73 46.28 96.79 46.42H104V7H0ZM92.61 35.5H56.1V30.23H52.1L51.2 32.73C51.0333 33.1845 50.8397 33.6287 50.62 34.0601C50.4256 34.4567 50.13 34.795 49.763 35.0408C49.3961 35.2866 48.9707 35.4311 48.53 35.46C48.11 35.46 47.7 35.53 47.29 35.53H41.92H41.59L40.59 33.53C40.02 32.44 39.45 31.34 38.87 30.25C38.6236 29.7799 38.2265 29.4061 37.7424 29.1885C37.2583 28.9709 36.7151 28.9222 36.2 29.05V35.52H29.37V31.77C30.37 31.41 30.58 31.17 30.58 30.08V24.3199C30.6043 24.1458 30.5765 23.9684 30.5 23.8101H26.32C26.2599 23.4803 26.2397 23.1446 26.26 22.8101C26.26 22.2801 26.04 22.06 25.5 22.05H23.9C23.8494 22.1256 23.8145 22.2106 23.7973 22.2999C23.7801 22.3892 23.781 22.481 23.8 22.5699C23.8 25.0566 23.8 27.5467 23.8 30.04C23.8 31.22 23.95 31.4199 25.05 31.8199V35.5C25 35.5 24.98 35.5 24.96 35.5C23.7315 35.585 22.4985 35.585 21.27 35.5C20.4294 35.4167 19.652 35.0172 19.0949 34.3822C18.5379 33.7472 18.2431 32.9242 18.27 32.08C18.27 28.91 18.27 25.75 18.27 22.59C18.2958 22.4028 18.2681 22.2121 18.19 22.04C17.5583 21.9753 16.9217 21.9753 16.29 22.04C16.1497 22.0756 16.0274 22.1614 15.9462 22.2812C15.8651 22.4011 15.8309 22.5465 15.85 22.6899V23.75H11.41V18.35C11.5343 18.2698 11.6849 18.2412 11.83 18.27C20.83 18.27 29.83 18.27 38.89 18.27C40.6272 18.2047 42.3585 18.508 43.97 19.16C44.6421 19.4083 45.2352 19.8325 45.6873 20.3884C46.1394 20.9443 46.4339 21.6113 46.54 22.3199C46.69 23.1734 46.69 24.0466 46.54 24.9C46.4382 25.4934 46.206 26.0569 45.8601 26.5497C45.5143 27.0425 45.0634 27.4525 44.54 27.75L44.12 27.98C44.218 28.2881 44.3452 28.5861 44.5 28.87L44.92 29.8101C45.07 30.1601 45.25 30.48 45.7 30.48C46.15 30.48 46.32 30.13 46.44 29.78C46.92 28.42 47.37 27.0499 47.86 25.6899C48.2855 24.2341 48.8307 22.8159 49.49 21.45C50.0669 20.2528 51.0328 19.2868 52.23 18.71C52.955 18.4066 53.7341 18.2536 54.52 18.26H61.31C61.441 18.2384 61.5753 18.2631 61.69 18.33C61.729 18.4876 61.729 18.6524 61.69 18.8101C61.69 22.0601 61.69 25.3 61.69 28.55C61.6796 29.0694 61.7198 29.5884 61.81 30.1C61.8484 30.2517 61.902 30.3991 61.97 30.54C62.0294 30.6637 62.1258 30.7657 62.2459 30.832C62.366 30.8983 62.5037 30.9256 62.64 30.91C62.7723 30.9105 62.9017 30.8718 63.0121 30.7988C63.1224 30.7259 63.2087 30.6219 63.26 30.5C63.4011 30.1614 63.4693 29.7968 63.46 29.4301C63.46 27.5301 63.46 25.64 63.46 23.74C63.4397 22.8379 63.6101 21.9417 63.96 21.11C64.2694 20.466 64.712 19.8951 65.2585 19.4348C65.8049 18.9746 66.4428 18.6354 67.13 18.4399C68.8123 17.9251 70.5751 17.7251 72.33 17.85C73.6709 17.8791 74.9955 18.1502 76.24 18.65C76.8323 18.9021 77.3847 19.239 77.88 19.65C78 19.2 77.88 18.78 77.97 18.39C78.26 18.25 92.1 18.19 92.63 18.33V23.77H88.2C88.1264 23.4421 88.1062 23.1044 88.14 22.77C88.14 22.15 87.94 21.95 87.34 21.95H84C83.8584 21.9355 83.7158 21.9634 83.59 22.03V24.86H86.86V28.53H83.59V31.53C83.6408 31.5757 83.7018 31.6086 83.7679 31.626C83.834 31.6434 83.9033 31.6447 83.97 31.63H87.31C87.94 31.63 88.14 31.42 88.15 30.8C88.1241 30.4659 88.1409 30.1299 88.2 29.8H92.64L92.61 35.5Z" fill="#FAFAFA"/>
</svg>
