<svg width="104" height="64" viewBox="0 0 104 64" fill="none" xmlns="http://www.w3.org/2000/svg">
<g clip-path="url(#clip0_1947_12562)">
<path d="M26.5317 24.2072L24.9913 35.137H16.5625L18.1029 24.2072C18.1894 23.6361 18.3798 23.0822 18.674 22.5543C18.9596 22.0265 19.3144 21.5765 19.7385 21.1957C20.1625 20.8149 20.6471 20.5207 21.1923 20.2957C21.7375 20.0707 22.3087 19.9582 22.9144 19.9582C24.0913 19.9582 25.026 20.3736 25.7269 21.2043C26.4192 22.0351 26.6962 23.0303 26.5404 24.2072H26.5317Z" fill="#FAFAFA"/>
<path d="M84.7111 12.7582H14.0611C12.287 12.7582 10.7986 14.0909 10.6255 15.8389L7.01682 47.4861C6.81779 49.4938 8.41009 51.2418 10.4524 51.2418H81.1111C82.8851 51.2418 84.3736 49.9091 84.5466 48.1611L85.2216 42.2245H82.1841L83.0928 35.3793H80.1418L79.6312 38.9966C79.4841 40.087 79.1207 41.1082 78.5668 42.0774C78.0043 43.0466 77.3207 43.8861 76.5072 44.5957C75.6937 45.3053 74.7764 45.8678 73.7639 46.2745C72.7514 46.6813 71.7043 46.8889 70.6139 46.8889C69.5236 46.8889 68.537 46.6813 67.6457 46.2745C66.7543 45.8678 66.0014 45.3053 65.3784 44.5957C64.7553 43.8861 64.3139 43.0466 64.0457 42.0774C63.7774 41.1082 63.7168 40.087 63.8639 38.9966L65.9495 24.2245C66.0966 23.1341 66.4514 22.113 66.988 21.1438C67.5332 20.1745 68.2082 19.3438 69.0303 18.6255C69.8437 17.9159 70.7524 17.3534 71.7476 16.9293C72.7428 16.5053 73.7899 16.2976 74.8716 16.2976C75.9534 16.2976 76.9572 16.5139 77.8572 16.9293C78.7659 17.3534 79.5274 17.9159 80.1418 18.6255C80.7562 19.3351 81.2149 20.1745 81.5005 21.1438C81.7861 22.113 81.8553 23.1341 81.7082 24.2245L81.2236 27.6688H84.1139L85.0139 20.8755H87.6534L88.1466 16.5139C88.3457 14.5063 86.7534 12.7582 84.7111 12.7582V12.7582ZM23.3639 46.8716L24.4976 38.8063H16.0687L14.9351 46.8716H11.3091L14.4851 24.1726C14.6322 23.0822 14.987 22.0697 15.5236 21.1178C16.0687 20.1659 16.7437 19.3351 17.5659 18.6255C18.3793 17.9159 19.288 17.3534 20.2832 16.9293C21.2784 16.5053 22.3255 16.2976 23.4072 16.2976C24.4889 16.2976 25.4928 16.5139 26.4014 16.9293C27.3101 17.3534 28.0716 17.9159 28.6861 18.6255C29.3005 19.3351 29.7591 20.1659 30.0447 21.1178C30.3303 22.0697 30.3995 23.0909 30.2524 24.1726L27.0764 46.8716H23.3639V46.8716ZM36.6822 46.8716C35.5918 46.8716 34.6053 46.6639 33.7139 46.2399C32.8226 45.8159 32.0784 45.2534 31.4726 44.5438C30.8668 43.8341 30.4255 42.9947 30.1399 42.0255C29.8543 41.0563 29.7851 40.0351 29.9322 38.9447L32.0178 24.1726C32.1649 23.0822 32.5197 22.0697 33.0562 21.1178C33.6014 20.1659 34.2764 19.3264 35.0986 18.5995C35.912 17.8726 36.8207 17.3101 37.8159 16.9034C38.8111 16.4966 39.8582 16.2889 40.9399 16.2889C42.0216 16.2889 43.0168 16.4966 43.9082 16.9034C44.7995 17.3101 45.5524 17.8813 46.1755 18.5995C46.7899 19.3264 47.2486 20.1659 47.5341 21.1178C47.8197 22.0697 47.8889 23.0909 47.7418 24.1726L47.3784 26.6649H43.7091L44.0726 24.1899C44.2197 23.0216 43.9514 22.0264 43.2591 21.1957C42.5668 20.3736 41.6322 19.9582 40.4466 19.9582C39.8409 19.9582 39.2697 20.0707 38.7245 20.2957C38.1793 20.5207 37.6947 20.8236 37.2707 21.2043C36.8466 21.5764 36.4918 22.0351 36.2062 22.563C35.9207 23.0909 35.7303 23.6447 35.6351 24.2159L33.5495 38.9534C33.3937 40.1563 33.6707 41.1688 34.363 41.9822C35.0553 42.7957 35.9899 43.2024 37.1755 43.2024H41.3899L42.7486 33.3716H37.4005L37.9457 29.7024H46.963L44.5659 46.8716H36.6822V46.8716ZM64.0889 24.1726L63.137 30.8793C62.9207 32.4197 62.3755 33.8043 61.4841 35.0245C60.5928 36.2447 59.4245 37.2053 57.9707 37.8976L61.7784 46.8716H57.5207L54.1716 38.763H51.2726L50.1389 46.8716H46.513L50.8139 16.2457H57.3822C58.438 16.2457 59.4159 16.4534 60.3072 16.8774C61.1985 17.3014 61.9428 17.8639 62.5486 18.5736C63.1543 19.2832 63.5957 20.1226 63.8812 21.0918C64.1668 22.0611 64.2361 23.0822 64.0889 24.1726V24.1726ZM85.7668 21.7409L84.8668 28.5341H81.1024L80.263 34.5053H84.0793L83.1707 41.3505H85.3255L87.5582 21.7322H85.7755L85.7668 21.7409Z" fill="#FAFAFA"/>
<path d="M90.5873 28.5341L91.4873 21.7408H85.7671L84.8671 28.5341H78.4719L77.6758 34.5053H84.071L83.1623 41.3505H88.8825L89.7912 34.5053H96.2037L96.9998 28.5341H90.5873V28.5341Z" fill="#FAFAFA"/>
<path d="M78.0382 24.2591L75.9526 38.9966C75.8661 39.6024 75.6757 40.1476 75.3901 40.6495C75.1046 41.1428 74.7411 41.5928 74.2997 41.9822C73.8584 42.3716 73.3651 42.6745 72.8026 42.8822C72.2401 43.0899 71.6776 43.1937 71.1065 43.1937C70.5353 43.1937 70.0074 43.0899 69.5228 42.8822C69.0382 42.6745 68.6315 42.3716 68.3026 41.9822C67.9738 41.5928 67.7315 41.1428 67.5757 40.6495C67.4199 40.1562 67.394 39.6024 67.4892 38.9966L69.5747 24.2591C69.6613 23.688 69.8517 23.1341 70.1373 22.6062C70.4228 22.0783 70.7863 21.6197 71.2276 21.2303C71.669 20.8408 72.1536 20.5293 72.6988 20.3043C73.244 20.0793 73.7978 19.9668 74.3776 19.9668C75.5546 19.9668 76.4978 20.3908 77.2074 21.2303C77.9171 22.0783 78.194 23.0822 78.0469 24.2591H78.0382Z" fill="#FAFAFA"/>
<path d="M60.4627 24.2072L59.5108 30.8966C59.4243 31.5024 59.2339 32.0476 58.9483 32.5409C58.6627 33.0341 58.2993 33.4841 57.8579 33.8736C57.4166 34.263 56.932 34.5659 56.3868 34.7736C55.8416 34.9813 55.2877 35.0851 54.7079 35.0851H51.7656L53.8945 19.9062H56.8368C57.4079 19.9062 57.9358 20.0187 58.4204 20.2437C58.905 20.4687 59.3118 20.7803 59.6406 21.1697C59.9695 21.5591 60.2118 22.0178 60.3675 22.5457C60.5147 23.0736 60.5493 23.6188 60.4541 24.1986L60.4627 24.2072Z" fill="#FAFAFA"/>
</g>
<defs>
<clipPath id="clip0_1947_12562">
<rect width="90" height="38.4837" fill="white" transform="translate(7 12.7582)"/>
</clipPath>
</defs>
</svg>
