<svg width="104" height="66" viewBox="0 0 104 66" fill="none" xmlns="http://www.w3.org/2000/svg">
<path d="M53.6723 0.99231C54.1675 1.0575 54.6611 1.12425 55.1562 1.18944C61.4923 2.01676 66.793 4.82312 71.0646 9.56352C73.5155 12.283 75.268 15.4106 76.3638 18.9015C77.396 22.189 77.7328 25.5558 77.4084 28.9861C76.9428 33.9159 75.1888 38.3458 72.1543 42.2542C69.0685 46.2279 65.1368 49.0528 60.3886 50.7199C56.8372 51.9679 53.1741 52.4102 49.4348 52.0067C42.883 51.3004 37.3805 48.4863 32.963 43.5907C30.3196 40.6617 28.4849 37.2764 27.417 33.4812C26.5648 30.456 26.3009 27.3734 26.5834 24.2442C27.0134 19.4743 28.6541 15.1607 31.507 11.319C34.4857 7.30818 38.3258 4.41179 42.9932 2.62832C45.188 1.79014 47.4604 1.27791 49.8027 1.08544C49.9626 1.07302 50.1193 1.02335 50.2777 0.99231C51.4092 0.99231 52.5408 0.99231 53.6723 0.99231V0.99231ZM66.0712 44.8448C66.0433 44.7114 66.0169 44.5158 65.9595 44.3295C65.3355 42.307 64.7068 40.2861 64.0813 38.2636C63.0522 34.9341 62.0247 31.6046 60.9956 28.2752C59.9696 24.9566 58.9451 21.6365 57.9191 18.3179C56.8124 14.7401 55.7072 11.1623 54.5959 7.58447C54.3677 6.85028 54.1969 6.09281 53.7328 5.45176C53.1523 4.64927 52.1838 4.33728 51.2447 4.64927C50.495 4.89918 50.0759 5.47194 49.8337 6.16887C49.4783 7.19332 49.1694 8.23639 48.8481 9.2717C47.8531 12.4754 46.8628 15.6792 45.8694 18.8844C44.8046 22.3163 43.7398 25.7482 42.675 29.1801C41.6754 32.404 40.6758 35.6295 39.6777 38.8549C39.1034 40.7114 38.5338 42.5693 37.9579 44.4258C37.8446 44.7905 37.9098 45.1273 38.1519 45.4036C38.3646 45.6473 38.6005 45.8895 38.8722 46.0556C39.7321 46.5833 40.6013 47.0971 41.4907 47.5752C42.0045 47.8514 42.5508 48.0719 43.1003 48.269C43.4884 48.4071 43.6917 48.2442 43.76 47.8344C43.8842 47.0955 44.0084 46.3551 44.1294 45.6163C44.4011 43.9648 44.6711 42.3132 44.9428 40.6617C45.2129 39.021 45.4814 37.3804 45.7515 35.7397C46.0231 34.0882 46.2963 32.4366 46.5679 30.7866C46.8753 28.91 47.1826 27.0334 47.4899 25.1568C47.7957 23.2911 48.1061 21.4254 48.4119 19.5596C48.7162 17.7048 49.0173 15.8483 49.3215 13.9935C49.6366 12.0734 49.9439 10.1533 50.273 8.23639C50.3863 7.57516 50.5136 6.91082 50.703 6.26821C50.8675 5.70787 51.3006 5.39743 51.8935 5.36173C52.4911 5.32603 52.921 5.61163 53.1834 6.13162C53.32 6.40015 53.4441 6.69041 53.4954 6.98377C53.7685 8.54683 54.0153 10.113 54.273 11.6792C54.5788 13.5449 54.883 15.4106 55.1904 17.2764C55.4977 19.153 55.8081 21.0296 56.1155 22.9062C56.4212 24.7719 56.7255 26.6376 57.0297 28.5049C57.3044 30.1782 57.5792 31.8499 57.8539 33.5232C58.1255 35.1747 58.3972 36.8262 58.6673 38.4778C58.9373 40.1293 59.2074 41.7808 59.4791 43.4324C59.7212 44.9007 59.9602 46.3707 60.2101 47.8375C60.2831 48.2612 60.4507 48.359 60.8791 48.2628C61.0064 48.2348 61.1368 48.2069 61.2517 48.151C62.0821 47.7506 62.9203 47.3656 63.7336 46.9325C64.3545 46.6019 64.9521 46.2216 65.5419 45.8367C65.8632 45.6272 66.0557 45.309 66.0697 44.848L66.0712 44.8448ZM51.5893 50.1099C52.9552 50.0431 53.871 50.0354 54.7775 49.9391C55.4092 49.8724 56.0425 49.7312 56.6463 49.5371C57.2734 49.3338 57.4488 48.938 57.3681 48.2923C57.2656 47.4836 57.1818 46.6718 57.0902 45.8615C56.8962 44.1433 56.7037 42.4265 56.5097 40.7083C56.2707 38.6019 56.0301 36.4956 55.7926 34.3893C55.597 32.6617 55.4061 30.9325 55.2105 29.2034C54.9715 27.0971 54.7309 24.9908 54.4919 22.8844C54.2947 21.146 54.1007 19.406 53.9051 17.6675C53.6677 15.5721 53.4302 13.4766 53.1911 11.3811C53.0219 9.89103 52.8512 8.40092 52.6758 6.91082C52.6587 6.76181 52.6137 6.6128 52.5547 6.47465C52.4414 6.20457 52.2288 6.0804 51.9354 6.09126C51.6498 6.10213 51.4635 6.26666 51.3704 6.51346C51.299 6.70283 51.2695 6.91392 51.2447 7.11726C51.181 7.61396 51.1314 8.11066 51.077 8.60737C50.8396 10.7354 50.6036 12.8635 50.3661 14.9931C50.1737 16.7222 49.9812 18.4498 49.7872 20.179C49.5481 22.3179 49.306 24.4568 49.067 26.5957C48.8729 28.3357 48.6805 30.0742 48.4864 31.8142C48.2474 33.9423 48.0068 36.0703 47.7678 38.1984C47.5737 39.9384 47.3844 41.6768 47.1904 43.4168C47.0041 45.0808 46.8132 46.7432 46.6316 48.4071C46.5881 48.7967 46.7231 49.1351 47.0677 49.3229C47.3875 49.4968 47.7336 49.683 48.0844 49.7296C49.396 49.9003 50.7154 50.0168 51.5893 50.1068V50.1099ZM51.9044 3.01326C50.616 2.99774 49.573 3.55498 48.8869 4.70205C48.5547 5.25773 48.2986 5.86309 48.0301 6.45447C44.7751 13.6209 41.5233 20.789 38.2715 27.9585C36.5439 31.7645 34.8209 35.5736 33.0856 39.3749C32.8931 39.7956 32.8838 40.1883 33.157 40.5391C33.6242 41.1367 34.0976 41.7358 34.6269 42.276C35.0755 42.7339 35.4077 42.6206 35.6358 42.009C37.7716 36.2721 39.9059 30.5336 42.0433 24.7952C44.1605 19.1095 46.2777 13.4223 48.4057 7.73969C48.7394 6.84718 49.039 5.92052 49.5171 5.10717C50.6067 3.25385 53.3976 3.29887 54.4919 5.15219C54.7992 5.67217 55.0367 6.24027 55.2478 6.80837C56.3219 9.68614 57.3727 12.5732 58.4422 15.4525C60.4476 20.8573 62.4577 26.2589 64.4694 31.6605C65.7639 35.139 67.0631 38.6175 68.3654 42.0944C68.5858 42.6811 68.904 42.7897 69.3277 42.3474C69.8663 41.7855 70.3553 41.1708 70.8256 40.5484C71.0832 40.2085 71.0895 39.8018 70.8954 39.4029C70.7526 39.1095 70.63 38.8084 70.495 38.5119C65.8834 28.3481 61.2718 18.1859 56.6556 8.02374C56.1667 6.94652 55.701 5.85378 55.1314 4.82157C54.4593 3.6031 53.3727 2.99153 51.909 3.01326H51.9044Z" fill="#FAFAFA"/>
<path d="M82.0119 64.2486C81.644 64.9549 80.5947 65.0915 80.1322 64.1307C80.0049 63.8668 79.8559 63.6122 79.7519 63.3391C79.6836 63.159 79.5827 63.1155 79.4104 63.1171C78.2789 63.1217 77.1489 63.1217 76.0173 63.1171C75.8373 63.1171 75.7534 63.1792 75.6867 63.3499C75.5641 63.6619 75.4244 63.9723 75.249 64.258C74.9525 64.7422 74.4403 64.9037 73.9855 64.6988C73.5121 64.4846 73.3025 64.0655 73.5043 63.5362C73.7775 62.8175 74.105 62.119 74.4341 61.4221C75.0829 60.0484 75.7426 58.6794 76.4069 57.3119C76.7608 56.5808 77.2125 56.3092 77.9156 56.3588C78.3316 56.3883 78.6545 56.5886 78.8423 56.9394C79.2303 57.6658 79.5951 58.4062 79.9459 59.1528C80.6149 60.5762 81.2684 62.0088 81.9296 63.4368C81.9467 63.4741 81.9839 63.502 82.0119 63.5346V64.2533V64.2486ZM77.7635 58.7741C77.3646 59.6542 77.0061 60.4442 76.6382 61.2576H78.8439C78.4806 60.424 78.1392 59.6371 77.7635 58.7741Z" fill="#FAFAFA"/>
<path d="M69.1278 56.3883C69.9226 56.3712 70.7173 56.3542 71.4763 56.6522C72.8981 57.211 73.6649 58.2867 73.8605 59.769C73.9847 60.7158 73.9257 61.6642 73.5221 62.5505C72.864 63.9972 71.6502 64.6041 70.1368 64.6988C69.4212 64.7438 68.7025 64.7376 67.9854 64.7205C67.1566 64.7003 66.8415 64.393 66.8337 63.5563C66.8166 61.5789 66.8151 59.5998 66.8337 57.6208C66.8415 56.7546 67.2233 56.4054 68.0863 56.3883C68.434 56.3821 68.7817 56.3883 69.1294 56.3883H69.1278ZM68.8717 62.7771C69.3405 62.7771 69.7565 62.8206 70.1601 62.7678C70.812 62.6825 71.2683 62.3115 71.5074 61.6828C71.7293 61.0977 71.7666 60.4908 71.6797 59.8839C71.5524 58.9991 70.9315 58.4248 70.0421 58.3301C69.741 58.2975 69.4336 58.3099 69.1309 58.2929C68.9152 58.2804 68.8531 58.3751 68.8562 58.5847C68.8686 59.606 68.8686 60.6274 68.8717 61.6503C68.8717 62.0181 68.8717 62.386 68.8717 62.7771V62.7771Z" fill="#FAFAFA"/>
<path d="M47.138 61.8334C47.138 62.2882 47.1426 62.7445 47.1364 63.1993C47.1333 63.4601 47.1287 63.7224 47.093 63.9785C47.02 64.5156 46.6506 64.8276 46.112 64.8307C45.5842 64.8353 45.2133 64.514 45.1357 63.9723C45.1077 63.7799 45.0969 63.5827 45.0969 63.3872C45.0938 61.495 45.0938 59.6029 45.0938 57.7108C45.0938 56.7795 45.488 56.3759 46.4286 56.393C47.2746 56.4085 48.1329 56.379 48.9618 56.5109C50.6428 56.7779 51.5912 58.58 50.8912 60.0515C50.6289 60.6025 50.1834 60.9456 49.6324 61.1722C49.5253 61.2156 49.4182 61.2606 49.2769 61.3181C49.7736 61.88 50.2563 62.3953 50.7003 62.9401C50.8865 63.1683 51.0449 63.4461 51.1256 63.7271C51.2404 64.1275 51.0837 64.483 50.7329 64.7189C50.3898 64.9502 50.0049 64.9549 49.6976 64.6972C49.3437 64.4007 49.0348 64.0437 48.7367 63.6867C48.2618 63.1202 47.8132 62.5334 47.3553 61.9514C47.3103 61.8939 47.2854 61.8179 47.2513 61.7511L47.138 61.8303V61.8334ZM47.1597 59.2024H47.1535C47.1535 59.4182 47.1395 59.6371 47.1613 59.8513C47.169 59.9304 47.2653 60.0655 47.318 60.0639C47.6937 60.053 48.0786 60.0546 48.4403 59.9692C48.8299 59.8761 49.0099 59.5284 48.9758 59.1124C48.9385 58.6685 48.7352 58.4232 48.3239 58.3394C48.1857 58.3115 48.0445 58.2866 47.9063 58.2866C47.0185 58.282 47.1783 58.1764 47.1613 58.9743C47.1597 59.0503 47.1613 59.1264 47.1613 59.2009L47.1597 59.2024Z" fill="#FAFAFA"/>
<path d="M36.0699 63.8513C36.1661 63.5657 36.2344 63.2677 36.3617 62.9976C37.2635 61.0838 38.1762 59.1761 39.0905 57.2685C39.3047 56.8199 39.6089 56.4629 40.1367 56.3806C40.8553 56.2673 41.2899 56.4676 41.65 57.1692C42.125 58.0958 42.5596 59.0426 43.002 59.9848C43.5096 61.0652 44.0063 62.1486 44.5045 63.2336C44.5666 63.3702 44.6132 63.5176 44.6473 63.6651C44.7544 64.1152 44.607 64.4877 44.2593 64.674C43.8122 64.9146 43.3481 64.8711 43.0548 64.4815C42.8033 64.1478 42.6109 63.7629 42.4355 63.381C42.3408 63.1746 42.2337 63.1125 42.021 63.114C40.9236 63.1218 39.8262 63.1249 38.7273 63.1125C38.5006 63.1094 38.4075 63.1948 38.3252 63.3903C38.1855 63.7179 38.0412 64.0516 37.8441 64.3465C37.5476 64.7873 37.0214 64.896 36.579 64.66C36.2624 64.4908 36.0901 64.2378 36.0684 63.8529L36.0699 63.8513ZM41.5135 61.2732C41.144 60.4225 40.7994 59.6309 40.4269 58.7741C40.028 59.6527 39.6694 60.4443 39.2938 61.2732H41.5135Z" fill="#FAFAFA"/>
<path d="M21.9863 63.8497C22.0717 63.5952 22.1307 63.3297 22.2455 63.0892C23.1738 61.1272 24.1097 59.1683 25.0473 57.211C25.3142 56.6522 25.7457 56.3449 26.3868 56.3495C26.8695 56.3542 27.2358 56.5637 27.4547 56.9751C27.8117 57.6456 28.1439 58.3286 28.4667 59.0147C29.1249 60.4085 29.7721 61.807 30.4163 63.2071C30.497 63.3825 30.5591 63.575 30.5855 63.7644C30.6491 64.2393 30.4892 64.542 30.1214 64.7065C29.6743 64.9052 29.2521 64.854 28.9759 64.4753C28.7213 64.1291 28.5304 63.7333 28.3441 63.3437C28.2649 63.1792 28.1842 63.1124 28.0073 63.114C26.8773 63.1186 25.7457 63.1186 24.6157 63.114C24.4434 63.114 24.3503 63.1621 24.2774 63.336C24.1315 63.6852 23.9778 64.0407 23.762 64.348C23.4159 64.8431 22.8136 64.9176 22.3589 64.5668C22.1291 64.3899 21.9941 64.1664 21.9879 63.8482L21.9863 63.8497ZM27.4345 61.2684C27.0651 60.4194 26.7236 59.634 26.3495 58.7741C25.9475 59.6604 25.5905 60.452 25.2211 61.2684H27.4361H27.4345Z" fill="#FAFAFA"/>
<path d="M31.0521 60.5669C31.0521 59.6216 31.0506 58.6763 31.0521 57.731C31.0537 56.7826 31.4526 56.3822 32.401 56.3806C33.0855 56.3791 33.7731 56.3418 34.4546 56.3992C35.5473 56.4908 36.4398 56.9611 36.9272 57.998C37.5294 59.277 37.205 61.4672 35.2415 61.9716C34.6843 62.1144 34.0789 62.0911 33.4937 62.0973C33.1755 62.1004 33.0824 62.1967 33.0979 62.5071C33.1197 62.951 33.1197 63.3996 33.0855 63.8436C33.0265 64.6103 32.4026 65.017 31.7072 64.7749C31.3998 64.6678 31.2213 64.4427 31.1499 64.1447C31.0925 63.9041 31.0584 63.6511 31.0553 63.4043C31.0444 62.459 31.0506 61.5137 31.0506 60.5684L31.0521 60.5669ZM33.1088 59.2491C33.1088 59.4881 33.115 59.7271 33.1072 59.9646C33.101 60.14 33.1585 60.2301 33.3463 60.2223C33.6381 60.2099 33.933 60.2223 34.2233 60.1959C34.692 60.1524 34.9233 59.8808 34.9637 59.367C35.0071 58.8067 34.8224 58.4466 34.3723 58.3535C34.0261 58.2821 33.6629 58.2821 33.3075 58.2821C33.2423 58.2821 33.1274 58.4202 33.1181 58.5025C33.0933 58.7493 33.1088 59.0007 33.1088 59.2491V59.2491Z" fill="#FAFAFA"/>
<path d="M60.917 65.0077C58.955 64.9642 57.5006 63.9987 56.9061 62.2339C56.2061 60.1586 56.8922 57.7108 58.8246 56.6677C59.9531 56.0593 61.1312 56.0065 62.3217 56.4163C62.6322 56.5234 62.9147 56.7717 63.1537 57.0108C63.4315 57.2902 63.4377 57.7077 63.2515 58.0399C63.0513 58.3969 62.7393 58.5381 62.3466 58.4636C62.0066 58.3984 61.6776 58.2789 61.3361 58.2168C60.0664 57.9856 59.0171 58.7228 58.8138 60.0081C58.702 60.7096 58.7703 61.3988 59.163 62.0197C59.6814 62.8393 60.6966 63.1807 61.6543 62.861C61.8902 62.7818 62.1199 62.6809 62.3605 62.6142C62.7098 62.518 63.028 62.5661 63.2686 62.8734C63.5138 63.1869 63.5588 63.5734 63.3664 63.9072C63.0482 64.4582 62.5142 64.6972 61.9368 64.8447C61.6031 64.9301 61.2554 64.9549 60.9139 65.0077H60.917Z" fill="#FAFAFA"/>
<path d="M53.5773 62.8144C54.0414 62.8144 54.4527 62.8036 54.8641 62.8175C55.1559 62.8284 55.4508 62.8548 55.7364 62.9091C56.1927 62.996 56.4209 63.2832 56.4225 63.724C56.4256 64.2425 56.2052 64.5855 55.7333 64.6383C55.0984 64.7081 54.4558 64.719 53.8163 64.7314C53.3724 64.7392 52.9223 64.7423 52.483 64.6848C51.7892 64.5933 51.5362 64.2968 51.5253 63.5999C51.5098 62.7306 51.5222 61.8614 51.5237 60.9922C51.5237 59.8839 51.5237 58.7756 51.53 57.6674C51.5346 56.7826 51.9165 56.4023 52.809 56.393C53.5587 56.3853 54.3084 56.3884 55.0581 56.4008C55.2723 56.4039 55.4912 56.4411 55.7007 56.4893C56.1865 56.5995 56.4209 56.9021 56.4038 57.3631C56.3868 57.8335 56.112 58.1843 55.6386 58.2324C55.0674 58.2898 54.49 58.3038 53.9157 58.3038C53.644 58.3038 53.5649 58.3876 53.5618 58.6546C53.5509 59.5673 53.5416 59.5595 54.4605 59.5704C54.7958 59.575 55.1341 59.5952 55.4648 59.6526C55.9196 59.7318 56.1726 60.0484 56.185 60.4893C56.199 60.9611 55.9739 61.3135 55.5067 61.3849C54.9851 61.464 54.4496 61.4718 53.9203 61.4749C53.6518 61.4765 53.5525 61.5494 53.5726 61.8241C53.5944 62.1361 53.5773 62.4497 53.5773 62.8175V62.8144Z" fill="#FAFAFA"/>
<path d="M66.1071 60.5218C66.1071 61.4997 66.1086 62.476 66.1055 63.4539C66.1055 63.606 66.0884 63.7582 66.0683 63.9087C65.9922 64.497 65.6554 64.8183 65.1137 64.8214C64.5626 64.8245 64.1575 64.4908 64.1218 63.9087C64.0737 63.1187 64.0799 62.3255 64.0784 61.5323C64.0768 60.2611 64.083 58.9914 64.097 57.7201C64.1001 57.4842 64.1156 57.239 64.1792 57.0123C64.3329 56.4706 64.6744 56.244 65.2177 56.2828C65.6818 56.3154 66.0124 56.6289 66.0527 57.1676C66.1055 57.8816 66.1055 58.5987 66.121 59.3158C66.1288 59.7178 66.121 60.1198 66.121 60.5203H66.1071V60.5218Z" fill="#FAFAFA"/>
</svg>
