<svg width="104" height="70" viewBox="0 0 104 70" fill="none" xmlns="http://www.w3.org/2000/svg">
<g clip-path="url(#clip0_1947_12564)">
<path d="M87 0H17V70H87V0Z" fill="#FAFAFA"/>
<path d="M67.1798 31.7035V28.0033C70.1927 28.0592 73.2935 26.9963 73.5093 23.7437H77.8408V44.3784H72.3105V31.7035H67.1798V31.7035ZM25.183 34.101C25.2709 32.183 26.174 30.9363 27.4687 30.177C28.7633 29.4418 30.4576 29.1621 32.1279 29.1621C35.5963 29.1621 38.9608 29.9213 38.9608 34.077V40.4864C38.9608 41.7252 38.9608 43.0838 39.5283 44.2426H34.7012C34.5334 43.787 34.4774 43.3395 34.4215 42.86C33.1828 44.1547 31.3447 44.6661 29.5945 44.6661C26.7973 44.6661 24.5996 43.2596 24.5996 40.2387C24.5996 35.4676 29.7943 35.8352 33.1268 35.1559C33.942 34.9881 34.3975 34.7004 34.3975 33.7973C34.3975 32.6944 33.0709 32.2709 32.0799 32.2709C30.7533 32.2709 29.9062 32.8623 29.6824 34.109H25.191L25.183 34.101ZM31.3926 41.6932C33.6783 41.6932 34.4375 40.3985 34.3256 37.3776C33.6463 37.8012 32.4076 37.8891 31.3607 38.1688C30.2898 38.4246 29.3867 38.8721 29.3867 40.0309C29.3867 41.1897 30.3217 41.6932 31.3926 41.6932V41.6932ZM38.4893 29.5856H43.1485V32.151H43.2045C43.9078 30.2889 45.5461 29.2979 47.6079 29.2979C47.9756 29.2979 48.3672 29.3299 48.7348 29.4098V33.7813C48.1114 33.6135 47.552 33.5016 46.8967 33.5016C44.5231 33.5016 43.2844 35.1399 43.2844 36.97V44.2266H38.4893V29.5777V29.5856ZM55.36 32.6865H52.395V39.3516C52.395 40.5104 53.0743 40.7661 54.1133 40.7661C54.5049 40.7661 54.9284 40.7102 55.352 40.7102V44.2426C54.4809 44.2665 53.6018 44.3784 52.7307 44.3784C48.6389 44.3784 47.592 43.1956 47.592 39.2157V32.6944H45.1625L46.4411 30.8643L47.584 29.5936V25.1662H52.379V29.5936H55.344V32.6944L55.36 32.6865ZM58.6366 38.1768C58.7245 40.1827 59.8753 41.5014 61.9052 41.5014C63.064 41.5014 64.1909 40.9659 64.6384 39.895H69.1218C68.2427 43.2836 65.1179 44.7461 61.8413 44.7461C57.0702 44.7461 53.8256 41.869 53.8256 36.9621C53.8256 32.4787 57.4059 29.258 61.7214 29.258C66.972 29.258 69.5933 33.2059 69.3696 38.1768H58.6206H58.6366ZM64.5905 35.4996C64.5026 33.8612 63.3518 32.5106 61.7374 32.5106C60.0432 32.5106 58.9163 33.7254 58.6366 35.4996H64.5905Z" fill="#1E1E22"/>
</g>
<defs>
<clipPath id="clip0_1947_12564">
<rect width="70" height="70" fill="white" transform="translate(17)"/>
</clipPath>
</defs>
</svg>
