<svg width="105" height="23" viewBox="0 0 105 23" fill="none" xmlns="http://www.w3.org/2000/svg">
<g clip-path="url(#clip0_1947_12569)">
<path d="M5.79094 14.3253C7.38913 14.3253 8.24572 13.5947 8.74012 12.3959H8.05429C7.5895 13.3436 6.88647 13.7679 5.85842 13.7679C4.66925 13.7679 3.91938 12.9704 3.91938 11.5963C3.91938 10.0954 4.78561 8.51052 6.53873 8.51052C7.74512 8.51052 8.29254 9.21665 8.41373 10.0047H9.09955C8.96666 8.73908 8.07082 7.95312 6.58211 7.95312C4.34355 7.95312 3.22461 9.90368 3.22461 11.6148C3.22461 13.3258 4.12045 14.326 5.79163 14.326L5.79094 14.3253Z" fill="#FAFAFA"/>
<path d="M11.1268 12.1805H14.0051L14.4533 14.1965H15.1426L13.7675 8.08081H12.9984L9.12305 14.1965H9.84399L11.1261 12.1805H11.1268ZM13.2648 8.61774H13.2738C13.3296 9.00935 13.5169 9.86421 13.9018 11.6156H11.4539C12.3931 10.1173 13.0548 9.02914 13.2655 8.61774H13.2648Z" fill="#FAFAFA"/>
<path d="M17.185 11.5439C17.4164 10.4489 17.6099 9.56334 17.7345 8.76715H17.7517C18.063 9.45418 19.7383 12.8661 20.4227 14.1965H21.1444L22.4416 8.08081H21.8047L21.2676 10.6072C21.0597 11.5958 20.8593 12.5236 20.725 13.3628H20.7078C20.3766 12.6533 18.9202 9.78166 18.0464 8.08081H17.2856L15.9883 14.1965H16.6252L17.185 11.5439V11.5439Z" fill="#FAFAFA"/>
<path d="M22.9306 14.1965L24.2127 12.1805H27.091L27.5393 14.1965H28.2285L26.8534 8.08081H26.0843L22.209 14.1965H22.9299H22.9306ZM26.3508 8.61774H26.3597C26.4155 9.00935 26.6028 9.86421 26.9877 11.6156H24.5391C25.4784 10.1173 26.1401 9.02914 26.3508 8.61774V8.61774Z" fill="#FAFAFA"/>
<path d="M33.446 13.6323H29.8489L31.0256 8.08081H30.3715L29.0742 14.1965H33.236L33.446 13.6323Z" fill="#FAFAFA"/>
<path d="M6.48139 19.8312L6.78781 18.4565H3.65065L3.83932 17.532H7.14311L7.44058 16.158H2.28107L0.970703 22.2859H6.21904L6.72652 20.9119H3.11838L3.34423 19.8312H6.48139Z" fill="#FAFAFA"/>
<path d="M12.9945 16.158C12.3107 17.5368 11.5134 19.1674 11.1574 20.0372H11.1457C11.176 19.2315 11.0954 17.4904 11.0362 16.158H8.29083L6.98047 22.2866H8.6964L9.12883 20.2917C9.35468 19.2458 9.53578 18.0539 9.64802 17.3396H9.66317C9.67969 18.5786 9.73822 20.3565 9.7754 22.2866H11.3598C12.3913 20.0986 13.1625 18.5527 13.6721 17.3519H13.69C13.4896 18.071 13.199 19.2486 12.9918 20.2208L12.5545 22.2866H14.4288L15.7392 16.158H12.9952H12.9945Z" fill="#FAFAFA"/>
<path d="M19.8847 16.158H16.8377L15.5273 22.2866H17.4072L17.8176 20.261H19.2987C20.9754 20.261 22.1866 19.5822 22.1866 18.0676C22.1866 16.8886 21.2859 16.158 19.8854 16.158H19.8847ZM19.161 18.9572H18.1054L18.429 17.4529H19.4054C20.0458 17.4529 20.2806 17.7224 20.2806 18.1256C20.2806 18.6877 19.8764 18.9579 19.161 18.9579V18.9572Z" fill="#FAFAFA"/>
<path d="M28.6786 17.8042C28.6786 16.7897 27.8399 16.1572 26.535 16.1572H23.2471L21.9395 22.2859H23.8103L24.2903 20.0194H25.4663C26.073 20.0194 26.148 20.2951 26.0131 20.9166C25.8437 21.6514 25.8375 22.028 25.8905 22.2859H27.7393C27.6987 21.9925 27.7524 21.5429 27.8826 20.9739C28.1084 19.913 27.6161 19.5644 27.373 19.4341C28.1064 19.1994 28.6772 18.6979 28.6772 17.8042H28.6786ZM25.7328 18.7648H24.5581L24.8322 17.461H25.9683C26.44 17.461 26.6899 17.6664 26.6899 18.0389C26.6899 18.5594 26.2644 18.7648 25.7321 18.7648H25.7328Z" fill="#FAFAFA"/>
<path d="M34.0888 19.8312L34.3952 18.4565H31.2581L31.4474 17.532H34.7505L35.048 16.158H29.8885L28.5781 22.2859H33.8265L34.3339 20.9119H30.7258L30.9523 19.8312H34.0888Z" fill="#FAFAFA"/>
<path d="M40.0986 19.8312L40.405 18.4565H37.2678L37.4565 17.532H40.7603L41.0578 16.158H35.8983L34.5879 22.2859H39.8362L40.3437 20.9119H36.7356L36.9621 19.8312H40.0986Z" fill="#FAFAFA"/>
<path d="M46.2777 16.158L46.0305 17.298C45.8136 18.3118 45.5657 19.5139 45.5134 20.0748H45.4838C45.2731 19.2765 45.0059 18.3835 44.15 16.158H41.908L40.5977 22.2866H42.3308L42.6469 20.7959C42.8755 19.7159 43.1013 18.7048 43.1915 17.968H43.2184C43.4126 18.7601 44.2994 21.4045 44.579 22.2866H46.6971L48.0074 16.158H46.2777V16.158Z" fill="#FAFAFA"/>
<path d="M51.914 16.158H49.1053L47.7949 22.2866H50.9431C53.3641 22.2866 54.8315 20.9699 54.8315 18.8447C54.8315 17.431 53.8599 16.158 51.9133 16.158H51.914ZM51.0381 20.9364H49.9901L50.7234 17.5027H51.4898C52.3932 17.5027 52.7954 17.985 52.7954 18.8808C52.7954 19.8953 52.2968 20.9364 51.0381 20.9364Z" fill="#FAFAFA"/>
<path d="M60.4697 19.8312L60.7761 18.4565H57.6389L57.8276 17.532H61.1314L61.4289 16.158H56.2693L54.959 22.2859H60.2073L60.7148 20.9119H57.1067L57.3325 19.8312H60.4697Z" fill="#FAFAFA"/>
<path d="M65.5636 16.158H62.2757L60.9688 22.2866H62.8396L63.3196 20.0202H64.4956C65.1023 20.0202 65.1773 20.2958 65.0424 20.9173C64.873 21.6521 64.8668 22.0287 64.9198 22.2866H66.7686C66.728 21.9932 66.7817 21.5436 66.9119 20.9746C67.1377 19.9137 66.6454 19.5651 66.4023 19.4348C67.1356 19.2001 67.7065 18.6987 67.7065 17.8049C67.7065 16.7904 66.8678 16.158 65.5629 16.158H65.5636ZM64.7614 18.7655H63.5867L63.8608 17.4617H64.9969C65.4686 17.4617 65.7186 17.6671 65.7186 18.0396C65.7186 18.5602 65.293 18.7655 64.7607 18.7655H64.7614Z" fill="#FAFAFA"/>
<path d="M73.4023 22.2592H100.227L101.534 16.1265H74.7093L73.4023 22.2592Z" fill="#FAFAFA"/>
<path d="M78.1468 0L76.8398 6.13275H103.665L104.972 0H78.1468Z" fill="#FAFAFA"/>
<path d="M96.6495 8.06348H76.4287L75.1211 14.1969H95.3419L96.6495 8.06348Z" fill="#FAFAFA"/>
</g>
<defs>
<clipPath id="clip0_1947_12569">
<rect width="104" height="22.2857" fill="white" transform="translate(0.970703)"/>
</clipPath>
</defs>
</svg>
