<svg width="104" height="64" viewBox="0 0 104 64" fill="none" xmlns="http://www.w3.org/2000/svg">
<path d="M53.7192 26.2001L53.1992 27.5402H56.0892V23.6802C55.1492 23.6802 54.5592 24.1801 53.7192 26.2001Z" fill="#FAFAFA"/>
<path d="M38.2909 23.01H36.1309V26.26H38.2909C40.3909 26.26 40.8509 25.54 40.8509 24.65C40.8509 23.76 40.3909 23.01 38.2909 23.01Z" fill="#FAFAFA"/>
<path d="M73.9991 25.5C73.9991 23.4 72.8891 22.95 71.5191 22.95C70.1491 22.95 69.0391 23.4 69.0391 25.5V30.1801C69.0391 32.2801 70.1491 32.73 71.5191 32.73C72.8891 32.73 73.9991 32.2801 73.9991 30.1801V30.03H78.1191L78.0291 25.61H74.0291L73.9991 25.5Z" fill="#FAFAFA"/>
<path d="M0 8V47.45H34.06L33.75 41.59L69.43 39.72L69.83 47.45H104V8H0ZM92.6 24.83H88.12V23.6801C88.12 23.5921 88.1027 23.5049 88.069 23.4236C88.0353 23.3423 87.986 23.2685 87.9238 23.2063C87.8615 23.1441 87.7877 23.0947 87.7064 23.061C87.6251 23.0274 87.538 23.01 87.45 23.01H83.45V26.01H86.79V29.65H83.45V32.77H87.45C87.5375 32.7713 87.6244 32.7552 87.7056 32.7227C87.7869 32.6901 87.8608 32.6417 87.9232 32.5803C87.9855 32.5189 88.035 32.4456 88.0688 32.3649C88.1026 32.2841 88.12 32.1975 88.12 32.11V30.96H92.6V36.58H56.1V31.22H52.1L51.1 33.99C50.28 35.99 49.75 36.58 47.25 36.58H41.59L38.77 31.1901C38.5585 30.8233 38.2515 30.5207 37.8817 30.3147C37.5119 30.1087 37.0931 30.0068 36.67 30.02H36.1V36.58H29.31V32.79C29.4706 32.7914 29.6298 32.7607 29.7784 32.6998C29.9271 32.639 30.0621 32.5492 30.1756 32.4357C30.2892 32.3221 30.379 32.1871 30.4398 32.0385C30.5007 31.8898 30.5313 31.7307 30.53 31.5701V24.86H26.23V23.71C26.2314 23.6229 26.2152 23.5365 26.1825 23.4558C26.1498 23.3751 26.1013 23.3019 26.0397 23.2404C25.9781 23.1788 25.9048 23.1302 25.8242 23.0975C25.7435 23.0648 25.657 23.0487 25.57 23.05H23.78V31.5601C23.78 31.7203 23.8116 31.8788 23.8729 32.0269C23.9342 32.1749 24.024 32.3094 24.1373 32.4227C24.2506 32.536 24.3851 32.6258 24.5331 32.6871C24.6811 32.7484 24.8398 32.78 25 32.78V36.58H21.7C21.2522 36.5813 20.8085 36.4944 20.3943 36.3242C19.9801 36.1541 19.6034 35.9041 19.2858 35.5884C18.9683 35.2727 18.716 34.8975 18.5434 34.4843C18.3708 34.071 18.2813 33.6279 18.28 33.1801V23.05H16.5C16.4125 23.0487 16.3256 23.0647 16.2444 23.0973C16.1631 23.1299 16.0892 23.1783 16.0268 23.2397C15.9645 23.3012 15.915 23.3743 15.8812 23.4551C15.8474 23.5358 15.83 23.6224 15.83 23.71V24.86H11.39V19.37H38.47C44.99 19.37 46.59 21.66 46.59 24.42V24.9401C46.6318 25.8145 46.4026 26.6805 45.9336 27.4197C45.4647 28.1589 44.7789 28.7353 43.97 29.0701L44.75 30.73C44.97 31.4 45.27 31.6 45.6 31.6C45.93 31.6 46.13 31.5 46.36 30.9L48.68 24.13C50.03 20.56 51.93 19.37 54.5 19.37H61.64V29.9301C61.64 31.6001 61.97 32.01 62.54 32.02C63.11 32.03 63.44 31.6801 63.44 29.9301V24.76C63.44 21.24 65.57 18.9301 71.44 18.9301C74.56 18.9301 76.61 19.6901 77.86 20.8101V19.38H92.6V24.83Z" fill="#FAFAFA"/>
<path d="M41.6406 46.1201L41.9906 52.8601L40.0906 52.9601L39.7406 46.2301L37.4806 46.3401L37.3906 44.6602L43.8106 44.3301L43.9006 46.0101L41.6406 46.1201Z" fill="#FAFAFA"/>
<path d="M51.3009 49.9099C51.3274 50.2487 51.2832 50.5892 51.1709 50.9099C51.0658 51.2304 50.8917 51.5239 50.661 51.7699C50.3742 52.0461 50.0339 52.2605 49.661 52.3999C49.1844 52.5833 48.6811 52.688 48.1709 52.7098C47.6562 52.7438 47.1393 52.6932 46.6409 52.5599C46.2746 52.4542 45.9341 52.2738 45.6409 52.0299C45.3819 51.8131 45.1766 51.5392 45.0409 51.2299C44.906 50.9373 44.8279 50.6217 44.8109 50.2999L44.6309 46.7799C44.6043 46.4419 44.6451 46.102 44.7509 45.7799C44.8638 45.4608 45.0407 45.1681 45.2709 44.9199C45.5583 44.6421 45.8983 44.4245 46.2709 44.2799C46.7511 44.0983 47.2579 43.9969 47.7709 43.9799C48.2858 43.9421 48.8033 43.9929 49.301 44.1299C49.6673 44.2356 50.0078 44.4161 50.301 44.6599C50.56 44.8767 50.7653 45.1505 50.9009 45.4598C51.0359 45.7524 51.114 46.0681 51.1309 46.3899L51.3009 49.9099ZM49.231 46.6599C49.2297 46.5147 49.1969 46.3715 49.1347 46.2402C49.0726 46.109 48.9825 45.9928 48.871 45.8999C48.5559 45.7007 48.1793 45.6226 47.8109 45.6799C47.4494 45.6707 47.096 45.7873 46.8109 46.0099C46.7085 46.1146 46.6304 46.2406 46.582 46.3788C46.5336 46.517 46.5162 46.6642 46.5309 46.8099L46.7009 49.9899C46.7022 50.1351 46.735 50.2783 46.7972 50.4096C46.8593 50.5408 46.9494 50.6569 47.0609 50.7499C47.3747 50.9526 47.7514 51.0343 48.121 50.9799C48.4838 50.9871 48.8377 50.8668 49.121 50.6399C49.222 50.5363 49.2994 50.412 49.3477 50.2756C49.3961 50.1392 49.4142 49.994 49.4009 49.8499L49.231 46.6599Z" fill="#FAFAFA"/>
<path d="M54.4505 49.4499C54.4543 49.6161 54.4812 49.7812 54.5305 49.94C54.5584 50.0749 54.6284 50.1974 54.7305 50.29C54.8294 50.3961 54.9586 50.4694 55.1005 50.4999C55.2957 50.5337 55.4953 50.5337 55.6905 50.4999C55.9905 50.4999 56.3305 50.4999 56.6905 50.3899C57.0706 50.3402 57.4478 50.2702 57.8205 50.18L58.1705 51.82C57.7763 51.9342 57.3756 52.0243 56.9705 52.0899C56.5805 52.1499 56.1805 52.1899 55.7405 52.2199C55.277 52.256 54.8108 52.2155 54.3605 52.0999C53.9962 52.0146 53.6549 51.8508 53.3605 51.6199C53.0973 51.4112 52.891 51.1394 52.7605 50.8299C52.6201 50.514 52.5387 50.1751 52.5205 49.8299L52.3305 46.31C52.3171 45.9717 52.361 45.6336 52.4605 45.31C52.5666 44.9936 52.7446 44.706 52.9805 44.4699C53.2392 44.2093 53.5538 44.011 53.9005 43.8899C54.3393 43.727 54.8025 43.6391 55.2705 43.6299C55.6799 43.5999 56.091 43.5999 56.5005 43.6299C56.9097 43.6451 57.3173 43.6886 57.7205 43.7599L57.5405 45.43C57.1624 45.3793 56.7818 45.3492 56.4005 45.3399H55.4005C55.2023 45.3436 55.0062 45.3808 54.8205 45.4499C54.6839 45.501 54.5631 45.5872 54.4705 45.6999C54.3895 45.8094 54.3348 45.9361 54.3105 46.07C54.2896 46.236 54.2896 46.404 54.3105 46.57L54.4505 49.4499Z" fill="#FAFAFA"/>
<path d="M66.5796 51.5701L64.5796 51.6801L64.0396 50.0601L61.2196 50.21L60.8496 51.87L58.8496 51.98L60.9796 43.42L63.5096 43.29L66.5796 51.5701ZM61.5796 48.5701L63.5096 48.47L62.3696 44.99L61.5796 48.5701Z" fill="#FAFAFA"/>
</svg>
