<svg width="104" height="64" viewBox="0 0 104 64" fill="none" xmlns="http://www.w3.org/2000/svg">
<path d="M38.2809 22H36.1309V25.26H38.2909C40.3909 25.26 40.8509 24.5399 40.8509 23.6499C40.8509 22.7599 40.3909 22 38.2809 22Z" fill="#FAFAFA"/>
<path d="M53.7192 25.2L53.1992 26.5399H56.0992V22.71C55.1492 22.71 54.5592 23.18 53.7192 25.2Z" fill="#FAFAFA"/>
<path d="M0 7V46.4399H27.46L27.2 41.51L76.02 38.95L76.41 46.4399H104V7H0ZM92.59 23.8199H88.12V22.71C88.1214 22.6229 88.1052 22.5365 88.0725 22.4558C88.0398 22.3751 87.9913 22.3018 87.9297 22.2402C87.8681 22.1787 87.7948 22.1301 87.7142 22.0974C87.6335 22.0647 87.547 22.0486 87.46 22.0499H83.46V25.0499H86.81V28.6799H83.46V31.8099H87.46C87.635 31.8099 87.8029 31.7405 87.9267 31.6167C88.0505 31.4929 88.12 31.3249 88.12 31.1499V30H92.59V35.61H56.11V30.26H52.11L51.11 33.02C50.3 35.02 49.75 35.61 47.26 35.61H41.59L38.78 30.23C38.5702 29.8618 38.2636 29.5581 37.8934 29.3518C37.5231 29.1455 37.1035 29.0446 36.68 29.0599H36.11V35.62H29.32V31.71C29.6418 31.71 29.9506 31.5828 30.1792 31.3562C30.4077 31.1296 30.5374 30.8218 30.54 30.5V23.7799H26.24V22.71C26.24 22.6224 26.2226 22.5358 26.1888 22.4551C26.155 22.3743 26.1055 22.3012 26.0432 22.2397C25.9808 22.1783 25.9069 22.1299 25.8256 22.0973C25.7444 22.0647 25.6575 22.0486 25.57 22.0499H23.79V30.5699C23.8102 30.8777 23.9463 31.1664 24.1708 31.3779C24.3953 31.5894 24.6916 31.7081 25 31.71V31.71V35.51H21.62C20.7173 35.51 19.8515 35.1521 19.2123 34.5148C18.5731 33.8774 18.2126 33.0126 18.21 32.11V21.98H16.5C16.4133 21.98 16.3275 21.997 16.2474 22.0302C16.1674 22.0633 16.0946 22.1119 16.0333 22.1732C15.972 22.2345 15.9234 22.3073 15.8902 22.3873C15.8571 22.4674 15.84 22.5533 15.84 22.64V23.7899H11.4V18.2999H38.48C45 18.2999 46.59 20.59 46.59 23.36V23.88C46.6328 24.7508 46.4048 25.6134 45.9375 26.3494C45.4701 27.0853 44.7863 27.6584 43.98 27.99L44.76 29.6699C44.98 30.3299 45.28 30.5299 45.6 30.5299C45.92 30.5299 46.14 30.44 46.36 29.83L48.69 23.0599C50.03 19.4999 51.95 18.2999 54.51 18.2999H61.65V28.87C61.65 30.53 61.97 30.95 62.55 30.96C63.13 30.97 63.45 30.61 63.45 28.87V23.71C63.45 20.18 65.57 17.87 71.45 17.87C74.57 17.87 76.62 18.63 77.87 19.76V18.3199H92.55L92.59 23.8199Z" fill="#FAFAFA"/>
<path d="M73.9993 24.49C73.9993 22.4 72.8893 21.9399 71.5193 21.9399C70.1493 21.9399 69.0293 22.4 69.0293 24.49V29.1699C69.0293 31.2699 70.1493 31.72 71.5193 31.72C72.8893 31.72 73.9993 31.2699 73.9993 29.1699V29.0299H78.1193L78.0393 24.61H74.0393L73.9993 24.49Z" fill="#FAFAFA"/>
<path d="M70.2503 42.26L73.4203 50.96L71.3503 51.0699L70.7803 49.37L67.7803 49.5299L67.4003 51.27L65.3203 51.38L67.5603 42.38L70.2503 42.26ZM68.1903 47.84L70.1903 47.73L69.0003 44.1L68.1903 47.84Z" fill="#FAFAFA"/>
<path d="M62.0102 42.7001L63.9202 42.6001L64.3902 51.4401L61.9302 51.5701L58.7302 45.91L59.0402 51.7201L57.1202 51.8201L56.6602 42.9801L59.1002 42.8501L62.3302 48.78L62.0102 42.7001Z" fill="#FAFAFA"/>
<path d="M54.8977 43.0684L52.9004 43.1724L53.3605 52.0104L55.3578 51.9064L54.8977 43.0684Z" fill="#FAFAFA"/>
<path d="M45.0508 43.59L51.7908 43.23L51.8808 45L49.5108 45.13L49.8808 52.2L47.8908 52.2999L47.5208 45.23L45.1408 45.35L45.0508 43.59Z" fill="#FAFAFA"/>
<path d="M40.0591 43.85L42.7191 43.71L45.8891 52.3999L43.8091 52.51L43.2491 50.8099L40.2491 50.97L39.8591 52.72L37.7891 52.83L40.0191 43.83L40.0591 43.85ZM40.6091 49.26L42.6091 49.1599L41.4091 45.51L40.6091 49.26Z" fill="#FAFAFA"/>
<path d="M31.0098 44.3199L32.9998 44.22L33.3698 51.2899L36.8798 51.11L36.9698 52.88L31.4698 53.1599L31.0098 44.3199Z" fill="#FAFAFA"/>
</svg>
