<svg width="104" height="64" viewBox="0 0 104 64" fill="none" xmlns="http://www.w3.org/2000/svg">
<path d="M0 7.04004V46.36C0.223958 46.4408 0.464465 46.465 0.699997 46.4301H18.89C19.0532 46.4198 19.2168 46.4198 19.38 46.4301C19.23 44.8601 19.2 43.29 19.13 41.77C19.2643 41.6476 19.4224 41.5541 19.5945 41.4956C19.7666 41.4371 19.9489 41.4148 20.13 41.4301C22.49 41.3301 24.86 41.1799 27.22 41.0699C28.86 40.9899 30.5 40.9 32.15 40.83C34.15 40.76 36.15 40.66 38.23 40.49C39.08 40.42 39.93 40.43 40.79 40.38C43.04 40.25 45.29 40.1 47.54 40L52.13 39.77C54.43 39.66 56.73 39.5701 59.03 39.4301C60.51 39.3401 62.03 39.27 63.47 39.2C64.91 39.13 66.33 39.0399 67.77 38.9399C68.46 38.9399 69.15 38.86 69.84 38.84C72.02 38.75 74.19 38.61 76.36 38.51C78.53 38.41 80.8 38.33 83.02 38.17C83.2194 38.1413 83.4229 38.1654 83.61 38.24C83.89 40.95 84 43.67 84.15 46.38H104V7L0 7.04004ZM92.59 23.79H88.19C88.1074 23.4465 88.0837 23.0914 88.12 22.74C88.12 22.34 87.92 22.04 87.53 22.03C86.22 22.03 84.9 22.03 83.53 22.03V24.9301H86.79V28.61H83.53V31.61C83.5987 31.659 83.6769 31.6931 83.7595 31.7103C83.8421 31.7275 83.9274 31.7274 84.01 31.71H87.25C87.9 31.71 88.08 31.52 88.1 30.87C88.0758 30.5587 88.096 30.2455 88.16 29.9399H92.56V35.52H56.1C56.05 33.77 56.1 32.03 56.1 30.25H52.1C51.8 31.08 51.5 31.91 51.19 32.74C51.06 33.1 50.9 33.4499 50.75 33.8099C50.5735 34.2912 50.2576 34.7091 49.8426 35.0101C49.4276 35.3111 48.9323 35.4817 48.42 35.5C46.15 35.64 43.88 35.4999 41.58 35.5599L39.91 32.38C39.52 31.65 39.16 30.91 38.76 30.2C38.5088 29.7486 38.1118 29.396 37.634 29.1998C37.1562 29.0036 36.6259 28.9755 36.13 29.12V35.53H29.32V31.8099C29.5117 31.7462 29.6988 31.6694 29.88 31.58C30.0552 31.4969 30.204 31.3671 30.3099 31.2047C30.4158 31.0423 30.4747 30.8538 30.48 30.66C30.48 28.46 30.48 26.2666 30.48 24.08C30.4682 24.0014 30.4481 23.9243 30.42 23.85H26.19V22.77C26.2028 22.6804 26.1963 22.589 26.1712 22.5021C26.1461 22.4151 26.1028 22.3345 26.0442 22.2655C25.9856 22.1965 25.913 22.1408 25.8313 22.1019C25.7496 22.063 25.6605 22.042 25.57 22.04C25 22.04 24.42 22.04 23.87 22.04C23.7765 22.2288 23.745 22.4423 23.78 22.65C23.78 25.13 23.78 27.65 23.78 30.1C23.78 31.19 23.96 31.4499 25 31.8099V35.48C24.9378 35.5227 24.8678 35.5527 24.794 35.5681C24.7202 35.5836 24.6441 35.5841 24.57 35.5699H21.67C21.2126 35.5798 20.758 35.4962 20.3342 35.3241C19.9103 35.152 19.526 34.8952 19.2048 34.5693C18.8837 34.2435 18.6325 33.8555 18.4666 33.4292C18.3006 33.0029 18.2236 32.5472 18.24 32.09V22.09C17.5955 22.0147 16.9445 22.0147 16.3 22.09C16.1531 22.1146 16.0214 22.1948 15.932 22.314C15.8426 22.4331 15.8025 22.5821 15.82 22.73V23.8199H11.38V18.4C11.5651 18.331 11.7647 18.3103 11.96 18.34H38.82C40.5519 18.2777 42.278 18.5738 43.89 19.21C44.6523 19.4917 45.3134 19.9941 45.7889 20.6531C46.2644 21.3121 46.5329 22.0978 46.56 22.91C46.6301 23.5347 46.6301 24.1653 46.56 24.79C46.4821 25.393 46.2678 25.9702 45.9334 26.4779C45.599 26.9856 45.1532 27.4104 44.63 27.72L44.04 28.08C44.38 28.8 44.68 29.55 45.04 30.24C45.0974 30.3507 45.1863 30.4418 45.2955 30.502C45.4047 30.5621 45.5292 30.5885 45.6534 30.5778C45.7776 30.5671 45.8958 30.5197 45.9931 30.4418C46.0904 30.3639 46.1624 30.2589 46.2 30.14C46.4078 29.6686 46.5848 29.1842 46.73 28.6899C47.36 26.8799 47.97 25.07 48.61 23.26C49.0179 21.9273 49.7417 20.7127 50.72 19.72C51.623 18.8434 52.8315 18.3521 54.09 18.35C56.51 18.35 58.93 18.35 61.35 18.35C61.4232 18.3444 61.4968 18.3444 61.57 18.35C61.6592 18.5472 61.6871 18.7667 61.65 18.98C61.65 22.3533 61.65 25.72 61.65 29.08C61.6378 29.5156 61.6918 29.9506 61.81 30.37C61.8429 30.5385 61.9341 30.69 62.0676 30.7979C62.2011 30.9058 62.3684 30.9631 62.54 30.96C62.7113 30.9604 62.8774 30.9005 63.009 30.7908C63.1406 30.6811 63.2295 30.5286 63.26 30.36C63.3844 29.8907 63.435 29.4049 63.41 28.92C63.41 26.92 63.34 25.0199 63.41 23.0699C63.43 22.0776 63.7571 21.1159 64.3463 20.3171C64.9355 19.5184 65.7578 18.922 66.7 18.61C68.3983 18.0221 70.1964 17.7774 71.99 17.89C73.2492 17.8994 74.4987 18.1121 75.69 18.52C76.4582 18.7931 77.1774 19.1881 77.82 19.6899V18.36H92.52L92.59 23.79Z" fill="#FAFAFA"/>
<path d="M73.9998 24.5799H77.9998V28.9799H73.9998C73.9998 29.1799 73.9998 29.29 73.9398 29.4C73.8098 31.03 73.1398 31.6699 71.5098 31.6899C69.8798 31.7099 69.0398 30.9799 69.0098 29.3199C68.9798 27.6599 69.0098 25.9699 69.0098 24.3199C68.9517 23.9079 69.0236 23.4881 69.2154 23.1188C69.4072 22.7496 69.7094 22.4494 70.0798 22.26C70.5524 22.0346 71.073 21.9286 71.596 21.9512C72.1191 21.9739 72.6286 22.1245 73.0798 22.39C73.3346 22.5762 73.5417 22.82 73.6843 23.1015C73.8268 23.3831 73.9006 23.6944 73.8998 24.01C73.9998 24.15 73.9998 24.3299 73.9998 24.5799Z" fill="#FAFAFA"/>
<path d="M36.1406 25.2099V22.0099C37.3508 21.9104 38.5688 21.9777 39.7606 22.2099C40.0805 22.2809 40.3644 22.4642 40.5607 22.7266C40.757 22.989 40.8528 23.313 40.8306 23.6399C40.856 23.9667 40.7598 24.2913 40.5605 24.5515C40.3612 24.8118 40.0728 24.9893 39.7506 25.05C38.5632 25.2932 37.3449 25.3471 36.1406 25.2099V25.2099Z" fill="#FAFAFA"/>
<path d="M55.9992 22.71V26.47H53.1992C53.5471 25.2402 54.1351 24.0914 54.9292 23.09C55.0685 22.9516 55.2366 22.8458 55.4216 22.7801C55.6066 22.7144 55.8039 22.6904 55.9992 22.71Z" fill="#FAFAFA"/>
<path d="M61.3192 49.6701C61.5017 49.3018 61.5613 48.8846 61.4892 48.48C61.4617 48.1472 61.4617 47.8128 61.4892 47.48C61.3192 45.95 61.3992 44.41 61.1892 42.89C61.1802 42.8203 61.1802 42.7498 61.1892 42.6801C61.8691 42.5361 62.5665 42.4923 63.2592 42.5501C63.3092 43.0201 63.3192 43.4701 63.3592 43.9101C63.4292 44.9101 63.4192 45.91 63.4892 46.85C63.4892 47.55 63.5592 48.26 63.5892 48.96C63.6571 49.5468 63.5116 50.1386 63.1793 50.627C62.847 51.1154 62.35 51.4679 61.7792 51.62C61.1876 51.8614 60.5523 51.9771 59.9137 51.9599C59.275 51.9427 58.6469 51.7929 58.0692 51.5201C57.6652 51.3083 57.3263 50.9909 57.0886 50.6017C56.8508 50.2125 56.7231 49.766 56.7192 49.31C56.6492 48.31 56.5892 47.31 56.5592 46.39C56.4502 45.2134 56.4168 44.0309 56.4592 42.85C57.1092 42.864 57.759 42.8137 58.3992 42.7C58.4492 43.06 58.5092 43.37 58.5292 43.7C58.6092 45.3 58.6492 46.91 58.7492 48.51C58.8192 49.74 58.9792 50.17 60.3792 50.09C60.7168 50.0123 61.036 49.8697 61.3192 49.6701V49.6701Z" fill="#FAFAFA"/>
<path d="M52.5192 44.7301L48.8292 44.9102C48.7187 44.3507 48.6784 43.7795 48.7092 43.2101L54.8092 42.8901C54.9138 43.3571 54.9234 43.8402 54.8375 44.3109C54.7516 44.7816 54.5719 45.2302 54.3092 45.6301C53.3092 47.1101 52.3992 48.6301 51.4492 50.2101C51.4247 50.2563 51.4119 50.3078 51.4119 50.3601C51.4119 50.4124 51.4247 50.4639 51.4492 50.5101L55.3192 50.3002C55.3735 50.8689 55.3735 51.4414 55.3192 52.0101L49.0292 52.3501C48.9692 51.8501 48.9192 51.4101 48.8592 50.9701C48.8678 50.6631 48.9847 50.3691 49.1892 50.1401L52.3892 45.0001C52.4443 44.9162 52.488 44.8254 52.5192 44.7301V44.7301Z" fill="#FAFAFA"/>
<path d="M70.7995 49.2801C71.0295 49.8101 71.0295 50.4101 71.2295 51.0201C69.5895 51.3501 68.0095 51.8501 66.3995 51.0201C66.0555 50.8493 65.761 50.5933 65.5439 50.2765C65.3269 49.9596 65.1945 49.5925 65.1595 49.2101C65.0063 48.1339 64.9427 47.0468 64.9695 45.9601C64.9242 45.4244 64.9242 44.8858 64.9695 44.3501C65.063 43.7532 65.3563 43.2057 65.8013 42.797C66.2463 42.3883 66.8168 42.1426 67.4195 42.1001C68.5447 41.9457 69.6881 41.9863 70.7995 42.2201C70.753 42.7937 70.6762 43.3646 70.5695 43.9302C70.34 43.9903 70.099 43.9903 69.8695 43.9302C69.2072 43.8219 68.5318 43.8219 67.8695 43.9302C67.1595 44.0502 66.8695 44.5601 66.9995 45.4801C67.1295 46.4001 67.0995 47.4001 67.1695 48.3601C67.2395 49.3201 67.5395 49.5001 68.3695 49.5201C69.0439 49.5186 69.7155 49.4346 70.3695 49.2701C70.5125 49.2511 70.6576 49.2545 70.7995 49.2801V49.2801Z" fill="#FAFAFA"/>
<path fill-rule="evenodd" clip-rule="evenodd" d="M39.2909 52.7999L37.0009 49.8698C37.4055 49.6329 37.7308 49.2812 37.9355 48.8593C38.1402 48.4374 38.2151 47.9643 38.1509 47.4998C38.1423 47.3279 38.1226 47.1579 38.103 46.9881C38.0769 46.7628 38.0509 46.5379 38.0509 46.3098C38.0606 46.0051 38.0077 45.7017 37.8956 45.4183C37.7835 45.1348 37.6144 44.8774 37.3988 44.6618C37.1833 44.4463 36.9259 44.2773 36.6424 44.1651C36.359 44.053 36.0555 44.0001 35.7509 44.0098C35.0789 43.9876 34.4099 44.0271 33.7407 44.0666C33.2049 44.0982 32.6689 44.1298 32.1309 44.1298C31.7952 44.1532 31.4613 44.1966 31.1309 44.2598L31.6009 53.2598C31.913 53.1939 32.2155 53.2091 32.51 53.224C32.8854 53.2429 33.2478 53.2611 33.6009 53.1098C33.7008 52.6205 33.6568 52.1368 33.6131 51.6556C33.5737 51.2223 33.5345 50.791 33.6009 50.3598H34.8009L36.8809 52.9698C37.6881 53.0075 38.4969 52.9505 39.2909 52.7999ZM33.3792 45.8798C33.375 46.7513 33.415 47.6224 33.4992 48.4898L34.5592 48.4398C36.0892 48.3198 36.1892 48.2599 36.0892 46.6699C36.0756 46.5449 36.0522 46.4212 36.0192 46.2999C35.9966 46.1626 35.9277 46.0372 35.8241 45.9444C35.7204 45.8517 35.5881 45.7971 35.4492 45.7899C34.758 45.7401 34.0634 45.7702 33.3792 45.8798Z" fill="#FAFAFA"/>
<path fill-rule="evenodd" clip-rule="evenodd" d="M23.8103 53.67L23.3203 44.5899C23.691 44.4871 24.0781 44.4566 24.4603 44.5C25.6997 44.3251 26.956 44.3049 28.2003 44.4399C28.6092 44.4965 28.9827 44.7027 29.2486 45.0185C29.5146 45.3343 29.6541 45.7374 29.6403 46.15C29.647 46.2496 29.6554 46.3495 29.6639 46.4492C29.7319 47.2495 29.7985 48.0342 28.9003 48.55C29.0176 48.6992 29.1717 48.7746 29.3235 48.8487C29.4564 48.9137 29.5876 48.9778 29.6903 49.0899C29.8573 49.2417 29.9873 49.4297 30.0705 49.6394C30.1537 49.8491 30.1878 50.0751 30.1703 50.3C30.1956 50.743 30.1956 51.187 30.1703 51.63C30.1088 52.0093 29.9394 52.3628 29.6822 52.6483C29.4251 52.9338 29.0911 53.1392 28.7203 53.24C28.1551 53.4067 27.5696 53.4942 26.9803 53.5C26.269 53.5145 25.5471 53.5606 24.7496 53.6116C24.4484 53.6309 24.1365 53.6508 23.8103 53.67ZM25.8305 51.87C25.8305 51.6392 25.8084 51.4338 25.7872 51.2377L25.7872 51.2377C25.7707 51.0854 25.7549 50.9387 25.7505 50.79C25.7441 50.5712 25.746 50.3689 25.7481 50.1353V50.1353C25.7493 50.0058 25.7505 49.8668 25.7505 49.71H27.5605C27.6709 49.7236 27.7751 49.7688 27.8605 49.84C28.2206 50.1581 28.188 50.5674 28.1562 50.9681L28.1561 50.9681C28.15 51.046 28.1438 51.1235 28.1405 51.2C28.1215 51.6471 27.8129 51.687 27.5246 51.7242L27.4805 51.73C27.0005 51.8 26.4205 51.87 25.8305 51.87ZM26.9998 46.03H25.5298C25.5236 46.7233 25.5772 47.4158 25.6898 48.1H26.3898C27.6498 48.06 27.7898 47.87 27.6498 46.66C27.6512 46.5752 27.6353 46.4909 27.6029 46.4125C27.5705 46.3341 27.5223 46.2632 27.4614 46.2041C27.4004 46.145 27.328 46.099 27.2486 46.0691C27.1692 46.0392 27.0845 46.0259 26.9998 46.03Z" fill="#FAFAFA"/>
<path fill-rule="evenodd" clip-rule="evenodd" d="M44.9499 43.4699C44.0079 43.4291 43.0642 43.4726 42.1299 43.6L39.9199 52.7099C40.3059 52.821 40.6779 52.7727 41.0477 52.7246C41.3773 52.6818 41.7053 52.6392 42.0399 52.7099L42.4699 50.8399C42.9447 50.9064 43.4194 50.8669 43.8942 50.8275C44.4194 50.7838 44.9447 50.7401 45.4699 50.8399L46.0799 52.5799C46.4475 52.4171 46.8207 52.4281 47.1921 52.439C47.5279 52.4488 47.8623 52.4587 48.1899 52.3399L44.9499 43.4699ZM44.8691 49.02L43.7191 45.48L43.6691 45.49L42.8691 49.12L44.8691 49.02Z" fill="#FAFAFA"/>
<path fill-rule="evenodd" clip-rule="evenodd" d="M78.1292 50.7701C78.8392 50.8452 79.5569 50.7944 80.2492 50.6201C80.0369 50.0362 79.8242 49.4523 79.6114 48.8681C78.7418 46.4811 77.8708 44.0904 77.0192 41.6802C76.4583 41.796 75.9123 41.8078 75.3585 41.8197C75.0039 41.8273 74.6461 41.835 74.2792 41.8701C73.5102 44.9661 72.7412 48.0422 71.9523 51.1979L71.9492 51.2101C72.6626 51.0894 73.3858 51.036 74.1092 51.0502L74.5192 49.3201C75.0561 49.1644 75.5929 49.1557 76.1297 49.147C76.5929 49.1395 77.0561 49.132 77.5192 49.0302L78.1292 50.7701ZM75 47.4202C75.669 47.4431 76.3386 47.4029 77 47.3002L75.88 43.8301H75.79L75 47.4202Z" fill="#FAFAFA"/>
</svg>
