<svg width="104" height="64" viewBox="0 0 104 64" fill="none" xmlns="http://www.w3.org/2000/svg">
<path d="M0.0999032 48.77C0.439579 48.57 0.819217 48.16 1.09895 48.2C3.09705 48.48 2.94719 47.2 2.88725 45.9C2.88725 45.09 2.88725 44.29 2.88725 43.48C2.8273 42.21 3.32682 41.54 4.68553 41.56C6.04423 41.58 6.42387 42.22 6.33396 43.42C6.33396 43.93 6.33396 44.42 6.33396 44.97C6.33396 45.89 6.06421 46.97 6.43386 47.7C6.88343 48.62 8.08229 47.98 8.94147 48.13C10.1403 48.35 10.0404 49.23 10.0804 50.13C10.0804 51.19 9.36107 50.94 8.77164 50.98C8.36924 51.01 7.96518 51.01 7.56279 50.98C6.56374 50.86 6.294 51.27 6.30399 52.25C6.36393 55.18 6.30399 58.11 6.30399 61.05C6.30399 62.26 6.20408 63.28 4.63558 63.25C3.06708 63.22 2.81731 62.4 2.83729 61.09C2.89723 58.22 2.83729 55.34 2.83729 52.47C2.83729 51.42 2.67744 50.79 1.44862 50.97C0.799235 51.06 0.449571 50.56 0 50.17L0.0999032 48.77Z" fill="#FAFAFA"/>
<path d="M84.3584 25.54C83.0497 24.54 81.621 24.89 80.3622 26.54C77.7659 30.1904 74.1211 32.9633 69.9122 34.49C60.2398 38.2652 49.5033 38.2652 39.8309 34.49C36.4363 33.3148 33.3779 31.3311 30.9194 28.71C26.3138 23.54 26.5935 17.51 31.6487 12.79C34.1135 10.5157 37.0169 8.76992 40.1805 7.66C50.9703 3.75 61.7 4.38001 72.3199 8.32001C74.6949 9.0928 76.8038 10.5209 78.4041 12.44C79.1634 13.44 79.8727 14.66 79.1834 15.77C78.494 16.88 77.1053 16.91 75.8665 16.7C75.1272 16.57 74.4079 16.33 73.6886 16.13C72.7495 15.87 71.8204 15.54 70.8713 15.33C66.7352 14.38 63.9778 15.49 61.74 19.12C60.8109 20.63 60.0716 22.27 59.2224 23.84C58.3732 25.41 57.2243 27.17 55.1463 27.14C53.0682 27.11 51.8794 25.38 50.9902 23.65C50.1011 21.92 49.4717 20.29 48.5526 18.7C47.8511 17.2855 46.6803 16.1589 45.2406 15.5132C43.8008 14.8674 42.1816 14.7426 40.6601 15.16C38.662 15.59 36.6639 16.16 34.6658 16.83C34.3394 16.9174 34.0353 17.0731 33.7735 17.2869C33.5118 17.5006 33.2983 17.7675 33.1472 18.07C32.9961 18.3724 32.9109 18.7035 32.8971 19.0414C32.8833 19.3793 32.9413 19.7162 33.0673 20.03C33.2654 20.6727 33.7101 21.2104 34.3038 21.5254C34.8975 21.8403 35.5918 21.9067 36.2343 21.71C37.583 21.38 38.9018 20.98 40.2305 20.6C43.2276 19.73 43.8271 19.99 45.1458 22.89C46.1448 25.08 46.9841 27.34 48.6724 29.17C49.5021 30.1485 50.5401 30.9287 51.7103 31.4535C52.8804 31.9782 54.153 32.2341 55.4349 32.2025C56.7167 32.1708 57.9752 31.8524 59.118 31.2706C60.2609 30.6888 61.2592 29.8583 62.0397 28.84C63.1691 27.3132 64.1273 25.6666 64.897 23.93C67.0449 19.68 67.4046 19.51 72.0002 20.93C73.84 21.6215 75.8019 21.9278 77.7647 21.83C83.1096 21.28 85.837 16.83 83.8289 11.83C83.0443 10.0243 81.8218 8.44317 80.2723 7.23001C77.3958 5.00097 74.0999 3.37525 70.5816 2.45001C66.6425 1.37481 62.6379 0.55641 58.593 0C57.8237 0 55.8056 0 53.8575 0C51.9094 0 49.9212 0.289998 49.7614 0.309998C47.2367 0.568105 44.7373 1.03301 42.2885 1.70001C36.7655 3.03963 31.6866 5.79692 27.5526 9.70001C21.7181 15.43 20.9289 23.18 25.4746 29.97C27.5953 33.0903 30.4862 35.6085 33.8666 37.28C44.2666 42.62 55.1862 43.61 66.4655 40.88C73.7385 39.11 79.9926 35.65 84.4483 29.48C85.6672 27.94 85.5773 26.47 84.3584 25.54Z" fill="#FAFAFA"/>
<path d="M64.8376 59.28C65.5013 56.0565 66.4063 52.8876 67.5451 49.8C68.0146 48.42 68.7839 47.63 70.2125 48.14C71.6411 48.65 71.2116 49.77 70.8219 50.78C69.6031 54.31 68.3643 57.84 67.1454 61.37C66.7658 62.49 66.1464 63.37 64.8376 63.3C63.5289 63.23 63.0693 62.52 62.6997 61.44C61.4609 57.7934 60.1954 54.1533 58.9033 50.52C58.5336 49.52 58.3638 48.52 59.6326 48.11C59.8894 48.0079 60.1656 47.964 60.4413 47.9816C60.7171 47.9991 60.9855 48.0777 61.2272 48.2116C61.469 48.3455 61.6781 48.5314 61.8394 48.7559C62.0007 48.9804 62.1103 49.238 62.1602 49.51C63.3778 52.6685 64.2748 55.9417 64.8376 59.28V59.28Z" fill="#FAFAFA"/>
<path d="M82.9606 61.5701C81.6419 57.8301 80.3431 54.0901 78.9644 50.3701C78.6148 49.3701 78.5748 48.4701 79.7237 48.1101C79.9637 48.003 80.2247 47.9513 80.4874 47.959C80.75 47.9667 81.0075 48.0336 81.2408 48.1547C81.4741 48.2758 81.6771 48.4479 81.8347 48.6583C81.9924 48.8688 82.1006 49.112 82.1514 49.3701C83.2358 52.214 84.065 55.1489 84.629 58.1401C84.6952 58.5926 84.8335 59.0315 85.0387 59.4401C85.5747 56.1857 86.4451 52.9954 87.6362 49.9201C87.7361 49.6501 87.816 49.3701 87.9159 49.1101C87.9939 48.873 88.1222 48.6555 88.292 48.4727C88.4619 48.2899 88.6693 48.1461 88.8999 48.0511C89.1306 47.9561 89.379 47.9121 89.6282 47.9223C89.8774 47.9325 90.1215 47.9966 90.3436 48.1101C91.3426 48.4401 91.3426 49.3401 91.0729 50.1101C89.7408 54.1101 88.3588 58.0634 86.9269 61.9701C86.8511 62.2063 86.7292 62.4251 86.5682 62.6137C86.4072 62.8022 86.2104 62.9569 85.9891 63.0686C85.7678 63.1802 85.5265 63.2467 85.2793 63.2641C85.0321 63.2816 84.7839 63.2496 84.5491 63.1701C83.7799 62.9401 83.5301 62.1001 82.9606 61.5701Z" fill="#FAFAFA"/>
<path d="M25.0755 55.6598C25.0755 53.7598 25.0755 51.8598 25.0755 49.9598C25.0755 49.1598 25.2053 48.4298 26.0745 48.1798C26.3998 48.0442 26.765 48.0403 27.093 48.1691C27.4211 48.2978 27.6863 48.5491 27.8328 48.8698C28.2624 49.6798 28.8319 49.5398 29.3314 48.9898C30.7301 47.5798 32.4884 48.1598 34.0869 48.2698C35.0859 48.3498 34.6663 49.4599 34.7462 50.1399C34.8561 51.0099 34.2567 51.0099 33.6473 51.0099C32.6482 51.0099 31.5693 51.0099 30.5403 51.0099C28.5422 51.0099 28.2125 51.3098 28.2025 53.2798C28.2025 55.9298 28.2025 58.5798 28.2025 61.2198C28.2025 62.3098 28.0626 63.2198 26.7239 63.2198C25.3852 63.2198 25.0355 62.3398 25.0555 61.1498C25.0755 59.2998 25.0755 57.4598 25.0755 55.6598Z" fill="#FAFAFA"/>
<path d="M35.6463 55.59V49.9C35.6463 49.19 35.6463 48.47 36.4855 48.19C36.6535 48.1033 36.8368 48.0505 37.0251 48.0348C37.2134 48.019 37.4029 48.0406 37.5829 48.0981C37.7629 48.1557 37.9298 48.2482 38.074 48.3703C38.2183 48.4925 38.3371 48.6419 38.4237 48.81C38.8633 49.6 39.4227 49.53 39.9223 48.96C41.251 47.58 42.9194 48.16 44.4979 48.19C45.5869 48.19 45.2372 49.26 45.3171 49.96C45.3971 50.66 45.0674 50.96 44.3181 50.96C43.1092 50.96 41.9004 50.96 40.6915 50.96C39.2929 50.96 38.6934 51.55 38.7634 52.96C38.8133 55.72 38.7634 58.48 38.7634 61.23C38.7634 62.32 38.5636 63.23 37.2248 63.23C35.8861 63.23 35.5864 62.43 35.6064 61.29C35.6663 59.38 35.6463 57.49 35.6463 55.59Z" fill="#FAFAFA"/>
<path d="M73.14 55.34C73.14 53.56 73.14 51.78 73.14 50C73.0958 49.7219 73.116 49.4374 73.1989 49.1684C73.2818 48.8994 73.4253 48.653 73.6183 48.4482C73.8113 48.2434 74.0487 48.0857 74.3122 47.9872C74.5757 47.8887 74.8582 47.852 75.1381 47.88C76.357 47.88 76.9164 48.7899 76.9164 49.9899C76.9164 53.7199 76.9164 57.4499 76.9164 61.1799C76.9548 61.4403 76.934 61.7059 76.8557 61.957C76.7773 62.2082 76.6434 62.4385 76.4639 62.6307C76.2844 62.8229 76.0638 62.9721 75.8187 63.0672C75.5736 63.1623 75.3102 63.2008 75.0482 63.1799C74.7862 63.2008 74.5228 63.1623 74.2777 63.0672C74.0326 62.9721 73.812 62.8229 73.6325 62.6307C73.453 62.4385 73.3191 62.2082 73.2407 61.957C73.1624 61.7059 73.1416 61.4403 73.18 61.1799C73.16 59.2399 73.14 57.29 73.14 55.34Z" fill="#FAFAFA"/>
<path d="M20.1713 48.49C19.0713 47.9811 17.8701 47.7293 16.6585 47.7536C15.447 47.7778 14.2568 48.0775 13.178 48.63C12.5348 48.8978 11.994 49.3645 11.6346 49.9617C11.2751 50.559 11.1158 51.2557 11.1799 51.95C11.2398 53.1 11.1799 54.25 11.1799 55.4V58.66C11.1799 61 11.9591 62.19 14.177 62.91C16.0792 63.3812 18.0628 63.4187 19.9815 63.02C21.1704 62.85 20.8207 61.85 20.8706 61.09C20.9406 60.15 20.2213 60.33 19.6818 60.32C18.423 60.32 17.1542 60.32 15.8854 60.27C14.2669 60.19 14.7165 58.91 14.6166 57.94C14.5067 56.8 15.286 56.94 15.9653 56.94C17.1142 56.94 18.2631 56.94 19.422 56.94C21.7498 56.89 22.2793 56.36 22.2793 54.11C22.2793 53.36 22.2793 52.61 22.2793 51.87C22.3561 51.1518 22.1902 50.4286 21.808 49.8159C21.4259 49.2032 20.8496 48.7363 20.1713 48.49V48.49ZM16.6946 54.1C15.8754 53.85 14.5467 54.73 14.5667 52.81C14.5667 51.1 15.5657 50.97 16.7845 50.96C18.0034 50.95 18.7826 51.11 18.8925 52.71C18.9525 54.74 17.5538 53.86 16.6946 54.1Z" fill="#FAFAFA"/>
<path d="M103.89 51.6601C103.84 49.3801 102.621 48.2101 100.314 48.1301C98.6952 48.0801 97.0867 48.1301 95.4783 48.1301C94.2794 48.1301 93.9197 48.6801 93.8698 49.8301C93.7999 51.1701 94.6191 50.9801 95.4183 50.9801H97.836C100.833 50.9801 101.363 51.7401 100.434 54.8301C99.8641 54.8301 99.5544 54.3301 99.1248 54.0801C96.8669 52.7601 94.5092 53.2401 93.2004 55.2401C92.4711 56.3601 92.8807 57.6001 92.7908 58.7801C92.6709 60.3401 92.7908 61.8701 94.4492 62.6001C96.1077 63.3301 97.7761 63.6001 99.3246 62.3501C100.044 61.7701 100.713 61.6901 101.183 62.5701C101.652 63.4501 102.322 63.3901 103.081 63.1601C103.84 62.9301 104.01 62.2601 104 61.5201C104 58.2201 104 54.9401 103.89 51.6601ZM98.2456 60.3701C96.8669 60.3701 96.1276 60.0201 96.1077 58.4601C96.0877 56.9001 96.8869 56.4601 98.1058 56.7201C99.4645 56.5901 100.464 56.6401 100.444 58.3901C100.424 60.1401 99.6942 60.3801 98.2456 60.3701V60.3701Z" fill="#FAFAFA"/>
<path d="M56.6156 51.29C56.6332 50.8852 56.5686 50.4811 56.4259 50.102C56.2831 49.7228 56.0651 49.3766 55.7851 49.0841C55.505 48.7916 55.1686 48.5589 54.7963 48.4001C54.4239 48.2413 54.0232 48.1596 53.6185 48.16C51.7802 48.05 49.932 48.16 48.0838 48.16C46.8949 48.16 46.775 48.94 46.7251 49.9C46.6651 51.09 47.3944 51.01 48.1637 51C48.9329 50.99 49.6623 51 50.4115 51C53.5785 51 53.7184 51.16 53.4986 54.35C53.4402 54.5791 53.3633 54.8032 53.2688 55.02C52.6894 54.62 52.2698 54.31 51.8502 54.02C51.3816 53.7045 50.8538 53.4877 50.2989 53.3828C49.744 53.2778 49.1735 53.2868 48.6222 53.4094C48.0709 53.5319 47.5503 53.7653 47.0919 54.0955C46.6335 54.4257 46.247 54.8457 45.9558 55.33C45.2964 56.4 45.6161 57.57 45.5462 58.7C45.4363 60.33 45.6761 61.89 47.3545 62.64C49.0329 63.39 50.6813 63.64 52.2198 62.33C52.9491 61.7 53.6285 61.75 54.0681 62.59C54.5076 63.43 55.0671 63.36 55.8064 63.15C56.5457 62.94 56.6456 62.32 56.6456 61.65C56.6256 58.19 56.6656 54.74 56.6156 51.29ZM51.0509 60.36C49.6523 60.36 48.9429 60.03 48.893 58.44C48.833 56.49 50.0219 56.63 51.3307 56.71C52.6994 56.46 53.2189 57.03 53.2289 58.5C53.2688 60.14 52.4396 60.36 51.0509 60.36Z" fill="#FAFAFA"/>
</svg>
