<svg width="120" height="120" viewBox="0 0 120 120" fill="none" xmlns="http://www.w3.org/2000/svg">
<path fill-rule="evenodd" clip-rule="evenodd" d="M61.0002 34.5H59.0002L59.0002 59.0001L34.5 59.0001V61.0001L59.0002 61.0001L59.0002 85.5001L61.0002 85.5001L61.0002 61.0001L85.5001 61.0001L85.5001 59.0001L61.0002 59.0001L61.0002 34.5Z" fill="white"/>
<path d="M59.0002 34.5V34H58.5002V34.5L59.0002 34.5ZM61.0002 34.5L61.5002 34.5V34H61.0002V34.5ZM59.0002 59.0001V59.5001H59.5002V59.0001H59.0002ZM34.5 59.0001L34.5 58.5001H34V59.0001H34.5ZM34.5 61.0001H34V61.5001H34.5L34.5 61.0001ZM59.0002 61.0001H59.5002V60.5001H59.0002V61.0001ZM59.0002 85.5001H58.5002V86.0001L59.0002 86.0001L59.0002 85.5001ZM61.0002 85.5001L61.0002 86.0001H61.5002V85.5001H61.0002ZM61.0002 61.0001V60.5001H60.5002V61.0001H61.0002ZM85.5001 61.0001V61.5001H86.0001V61.0001L85.5001 61.0001ZM85.5001 59.0001L86.0001 59.0001L86.0001 58.5001H85.5001V59.0001ZM61.0002 59.0001H60.5002V59.5001H61.0002V59.0001ZM59.0002 35H61.0002V34H59.0002V35ZM59.5002 59.0001L59.5002 34.5L58.5002 34.5L58.5002 59.0001H59.5002ZM34.5 59.5001L59.0002 59.5001V58.5001L34.5 58.5001L34.5 59.5001ZM35 61.0001V59.0001H34V61.0001H35ZM59.0002 60.5001L34.5 60.5001L34.5 61.5001L59.0002 61.5001V60.5001ZM59.5002 85.5001L59.5002 61.0001H58.5002L58.5002 85.5001H59.5002ZM61.0002 85.0001L59.0002 85.0001L59.0002 86.0001L61.0002 86.0001L61.0002 85.0001ZM60.5002 61.0001L60.5002 85.5001H61.5002L61.5002 61.0001H60.5002ZM85.5001 60.5001L61.0002 60.5001V61.5001L85.5001 61.5001V60.5001ZM85.0001 59.0001L85.0001 61.0001L86.0001 61.0001L86.0001 59.0001L85.0001 59.0001ZM61.0002 59.5001L85.5001 59.5001V58.5001L61.0002 58.5001V59.5001ZM60.5002 34.5L60.5002 59.0001H61.5002L61.5002 34.5L60.5002 34.5Z" fill="white"/>
<rect x="0.5" y="0.5" width="119" height="119" rx="59.5" stroke="white"/>
</svg>
