<svg width="120" height="120" viewBox="0 0 120 120" fill="none" xmlns="http://www.w3.org/2000/svg">
<rect width="120" height="120" rx="60" fill="#E04970"/>
<path fill-rule="evenodd" clip-rule="evenodd" d="M59.999 57C51.7147 57 44.999 50.2842 44.999 42C44.999 33.7157 51.7147 27 59.999 27C68.2833 27 74.999 33.7157 74.999 42C74.999 50.2842 68.2833 57 59.999 57ZM41.999 42C41.999 32.0589 50.0579 24 59.999 24C69.9401 24 77.999 32.0589 77.999 42C77.999 51.9411 69.9401 60 59.999 60C50.0579 60 41.999 51.9411 41.999 42ZM31.5 83C31.5 74.4396 38.4396 67.5 47 67.5H72.9999C81.5603 67.5 88.4999 74.4396 88.4999 83V96H91.4999V83C91.4999 72.7827 83.2172 64.5 72.9999 64.5H47C36.7827 64.5 28.5 72.7827 28.5 83V96H31.5V83Z" fill="white"/>
</svg>
