<svg viewBox="357.227 163.267 34.869 15.568" width="34.869" height="15.568" xmlns="http://www.w3.org/2000/svg">
  <path d="M -53.62 37.358 C -55.446 37.358 -56.455 38.343 -56.678 40.298 L -57.375 46.325 C -57.435 46.913 -57.761 47.207 -58.355 47.207 C -58.949 47.207 -59.275 46.898 -59.334 46.325 L -60.032 40.298 C -60.255 38.343 -61.249 37.358 -63.09 37.358 C -64.915 37.358 -66.058 38.49 -66.058 40.298 L -66.058 48.148 C -66.058 48.78 -65.672 49.177 -65.034 49.177 C -64.396 49.177 -64.01 48.78 -64.01 48.148 L -64.01 40.298 C -64.01 39.666 -63.639 39.283 -63.03 39.283 C -62.436 39.283 -62.14 39.622 -62.051 40.298 L -61.353 46.325 C -61.13 48.221 -60.106 49.162 -58.34 49.162 C -56.574 49.162 -55.55 48.221 -55.327 46.325 L -54.63 40.298 C -54.555 39.636 -54.244 39.283 -53.65 39.283 C -53.041 39.283 -52.67 39.666 -52.67 40.298 L -52.67 48.148 C -52.67 48.78 -52.284 49.177 -51.646 49.177 C -51.008 49.177 -50.622 48.78 -50.622 48.148 L -50.622 40.298 C -50.637 38.49 -51.78 37.358 -53.62 37.358 Z" fill="white" transform="matrix(1, 0, 0, 1, 423.285492, 128.393814)"></path>
  <path d="M -37.393 44.296 L -32.881 44.296 C -31.96 44.296 -31.204 43.576 -31.189 42.665 C -31.189 41.636 -31.842 41.003 -32.881 41.003 L -37.378 41.003 C -37.378 41.915 -38.12 42.635 -39.04 42.635 C -39.055 43.561 -38.313 44.296 -37.393 44.296 Z" fill="#FF8200" transform="matrix(1, 0, 0, 1, 423.285492, 128.393814)"></path>
  <path d="M -37.393 41.018 L -37.393 36.549 C -37.393 35.638 -38.12 34.888 -39.04 34.873 C -40.079 34.873 -40.718 35.52 -40.718 36.549 L -40.718 41.003 C -39.797 41.003 -39.07 41.738 -39.07 42.65 C -38.135 42.65 -37.393 41.915 -37.393 41.018 Z" fill="#EF426F" transform="matrix(1, 0, 0, 1, 423.285492, 128.393814)"></path>
  <path d="M -40.718 44.296 L -40.718 48.765 C -40.718 49.677 -39.99 50.427 -39.07 50.441 C -38.031 50.441 -37.393 49.794 -37.393 48.765 L -37.393 44.311 C -38.313 44.311 -39.04 43.576 -39.04 42.665 C -39.976 42.65 -40.718 43.385 -40.718 44.296 Z" fill="#643CB4" transform="matrix(1, 0, 0, 1, 423.285492, 128.393814)"></path>
  <path d="M -40.703 41.018 L -45.215 41.018 C -46.135 41.018 -46.892 41.738 -46.907 42.65 C -46.907 43.679 -46.254 44.311 -45.215 44.311 L -40.717 44.311 C -40.717 43.4 -39.975 42.679 -39.055 42.679 C -39.055 41.738 -39.797 41.018 -40.703 41.018 Z" fill="#14C850" transform="matrix(1, 0, 0, 1, 423.285492, 128.393814)"></path>
</svg>
