<svg width="41" height="145" viewBox="0 0 41 145" fill="none" xmlns="http://www.w3.org/2000/svg">
<path d="M39.1264 142.972C37.1949 145.137 33.8638 145.336 31.798 143.298C23.2408 134.859 16.1854 125.004 10.9503 114.157C4.95328 101.731 1.46251 88.2447 0.677329 74.4693C-0.107854 60.6939 1.82792 46.8987 6.37413 33.8714C10.3427 22.4994 16.2326 11.9069 23.7755 2.54984C25.5964 0.290995 28.9285 0.10972 31.0935 2.04123V2.04123C33.2585 3.97275 33.4352 7.28491 31.6269 9.55383C24.9957 17.8741 19.8081 27.2642 16.2943 37.3333C12.2027 49.0579 10.4605 61.4735 11.1671 73.8714C11.8738 86.2693 15.0155 98.4066 20.4128 109.59C25.0481 119.195 31.269 127.935 38.8027 135.448C40.8571 137.496 41.0579 140.807 39.1264 142.972V142.972Z" fill="url(#paint0_linear_14070_300476)"/>
<defs>
<linearGradient id="paint0_linear_14070_300476" x1="89.1501" y1="-28.0747" x2="110.635" y2="229.744" gradientUnits="userSpaceOnUse">
<stop stop-color="#311041"/>
<stop offset="1" stop-color="#170722"/>
</linearGradient>
</defs>
</svg>
