<svg width="142" height="83" viewBox="0 0 142 83" fill="none" xmlns="http://www.w3.org/2000/svg">
<path d="M6.01782 68.0659C5.32218 68.0658 4.63374 68.2068 3.99408 68.4802C3.35441 68.7536 2.77677 69.1538 2.29603 69.6566C1.81529 70.1594 1.44142 70.7543 1.19698 71.4056C0.952543 72.0569 0.842609 72.7509 0.873818 73.4459C0.838273 74.1544 0.945906 74.8629 1.19029 75.5289C1.43466 76.1949 1.81078 76.8048 2.29615 77.3222C2.78153 77.8396 3.36621 78.2539 4.01527 78.5402C4.66434 78.8266 5.36446 78.9792 6.07382 78.989C6.71373 78.974 7.34418 78.8312 7.92808 78.5689C8.51198 78.3067 9.03753 77.9304 9.47382 77.462V78.625H12.8058V68.447H9.47082V69.707C9.05956 69.1871 8.53427 68.7686 7.93553 68.4841C7.3368 68.1995 6.68066 68.0564 6.01782 68.0659ZM6.99882 70.8769C7.67472 70.9215 8.31046 71.2138 8.78442 71.6977C9.25838 72.1816 9.5373 72.8233 9.56782 73.5C9.57021 74.1908 9.29804 74.8543 8.8112 75.3446C8.32435 75.8348 7.66271 76.1116 6.97182 76.114C6.28093 76.1164 5.61739 75.8441 5.12717 75.3573C4.63695 74.8704 4.36021 74.2088 4.35782 73.5179C4.36434 72.8195 4.64468 72.1515 5.13856 71.6577C5.63243 71.1638 6.3004 70.8834 6.99882 70.8769Z" fill="white"/>
<path d="M15.1899 78.6238V68.4447H18.5439V69.7798C18.96 69.2283 19.5017 68.7842 20.1241 68.4845C20.7465 68.1848 21.4314 68.0382 22.1219 68.0567C24.9059 68.0567 25.8519 69.8217 25.8519 72.0317V78.6227H22.4979V73.1947C22.4979 71.4787 21.8359 70.7727 20.7319 70.7727C19.4679 70.7727 18.5429 71.8647 18.5429 73.5827V78.6238H15.1899Z" fill="white"/>
<path d="M28.0439 78.6229V68.4448H31.437V78.6229H28.0439Z" fill="white"/>
<path d="M29.7669 66.6418C30.856 66.6418 31.7389 65.7589 31.7389 64.6698C31.7389 63.5806 30.856 62.6978 29.7669 62.6978C28.6778 62.6978 27.7949 63.5806 27.7949 64.6698C27.7949 65.7589 28.6778 66.6418 29.7669 66.6418Z" fill="white"/>
<path d="M44.4648 73.7757V78.6226H41.1107V73.1937C41.1107 71.4777 40.4488 70.7717 39.3448 70.7717C38.0808 70.7717 37.1558 71.8637 37.1558 73.5817V78.6226H33.8018V68.4487H37.1558V69.7836C37.5718 69.2322 38.1135 68.7882 38.7359 68.4885C39.3583 68.1888 40.0432 68.0421 40.7338 68.0607C41.3821 67.992 42.0362 68.1153 42.615 68.4155C43.1937 68.7156 43.6714 69.1792 43.9888 69.7487C44.455 69.1707 45.0543 68.7141 45.7354 68.418C46.4164 68.122 47.159 67.9953 47.8997 68.0486C48.4179 67.9916 48.9422 68.0494 49.4355 68.2177C49.9288 68.386 50.3791 68.6607 50.7543 69.0225C51.1295 69.3843 51.4206 69.8242 51.6068 70.3111C51.793 70.7979 51.8698 71.3198 51.8318 71.8397V78.6247H48.4778V73.1967C48.4778 71.8727 47.9568 70.7426 46.7108 70.7426C45.4378 70.7406 44.4648 71.8887 44.4648 73.7757Z" fill="white"/>
<path d="M58.2947 68.0659C57.5991 68.0658 56.9106 68.2068 56.271 68.4802C55.6313 68.7536 55.0537 69.1538 54.5729 69.6566C54.0922 70.1594 53.7183 70.7543 53.4739 71.4056C53.2294 72.0569 53.1195 72.7509 53.1507 73.4459C53.1151 74.1544 53.2228 74.8629 53.4671 75.5289C53.7115 76.1949 54.0877 76.8048 54.573 77.3222C55.0584 77.8396 55.6431 78.2539 56.2922 78.5402C56.9412 78.8266 57.6413 78.9792 58.3507 78.989C58.9906 78.974 59.621 78.8312 60.2049 78.5689C60.7888 78.3067 61.3144 77.9304 61.7507 77.462V78.625H65.0827V68.447H61.7477V69.707C61.3365 69.1871 60.8111 68.7686 60.2124 68.4841C59.6136 68.1995 58.9576 68.0564 58.2947 68.0659ZM59.2767 70.8769C59.9526 70.9215 60.5883 71.2138 61.0623 71.6977C61.5363 72.1816 61.8152 72.8233 61.8457 73.5C61.8481 74.1908 61.5759 74.8543 61.0891 75.3446C60.6022 75.8348 59.9406 76.1116 59.2497 76.114C58.5588 76.1164 57.8953 75.8441 57.4051 75.3573C56.9148 74.8704 56.6381 74.2088 56.6357 73.5179C56.6422 72.8196 56.9224 72.1519 57.4161 71.658C57.9097 71.1642 58.5774 70.8837 59.2757 70.8769H59.2767Z" fill="white"/>
<path d="M67.4609 78.623V64.373H70.8539V78.623H67.4609Z" fill="white"/>
<path d="M100.816 68.0659C100.12 68.0659 99.4316 68.2068 98.792 68.4802C98.1523 68.7536 97.5747 69.1538 97.0939 69.6566C96.6132 70.1594 96.2393 70.7544 95.9949 71.4056C95.7504 72.0569 95.6405 72.751 95.6717 73.4459C95.6361 74.1545 95.7438 74.8629 95.9881 75.5289C96.2325 76.1949 96.6087 76.8049 97.094 77.3223C97.5794 77.8397 98.1641 78.2539 98.8131 78.5403C99.4622 78.8266 100.162 78.9793 100.872 78.989C101.512 78.974 102.142 78.8312 102.726 78.569C103.31 78.3067 103.835 77.9304 104.272 77.462V78.625H107.604V68.447H104.272V69.707C103.86 69.1867 103.334 68.768 102.735 68.4834C102.136 68.1988 101.479 68.056 100.816 68.0659ZM101.797 70.8769C102.473 70.9215 103.108 71.2138 103.582 71.6977C104.056 72.1817 104.335 72.8233 104.366 73.5C104.368 74.1909 104.096 74.8544 103.609 75.3446C103.122 75.8348 102.461 76.1116 101.77 76.114C101.079 76.1164 100.415 75.8441 99.925 75.3573C99.4348 74.8705 99.1581 74.2088 99.1557 73.5179C99.1622 72.8195 99.4426 72.1516 99.9364 71.6577C100.43 71.1638 101.098 70.8835 101.797 70.8769Z" fill="white"/>
<path d="M90.8579 78.623V64.373H94.2509V78.623H90.8579Z" fill="white"/>
<path d="M84.3647 68.0659C85.0603 68.0659 85.7488 68.2068 86.3884 68.4802C87.0281 68.7536 87.6057 69.1538 88.0865 69.6566C88.5672 70.1594 88.941 70.7544 89.1855 71.4056C89.4299 72.0569 89.5399 72.751 89.5087 73.4459C89.5442 74.1545 89.4366 74.8629 89.1922 75.5289C88.9478 76.1949 88.5717 76.8049 88.0864 77.3223C87.601 77.8397 87.0162 78.2539 86.3672 78.5403C85.7181 78.8266 85.018 78.9793 84.3087 78.989C83.6687 78.974 83.0383 78.8312 82.4544 78.569C81.8705 78.3067 81.345 77.9304 80.9087 77.462V82.694H77.5767V68.447H80.9087V69.707C81.3203 69.1867 81.846 68.768 82.4453 68.4834C83.0446 68.1988 83.7013 68.056 84.3647 68.0659ZM83.3837 70.8769C82.7078 70.9215 82.072 71.2138 81.5981 71.6977C81.1241 72.1817 80.8452 72.8233 80.8147 73.5C80.8123 74.1909 81.0844 74.8544 81.5713 75.3446C82.0581 75.8348 82.7198 76.1116 83.4106 76.114C84.1015 76.1164 84.7651 75.8441 85.2553 75.3573C85.7455 74.8705 86.0223 74.2088 86.0247 73.5179C86.0181 72.8195 85.7378 72.1516 85.244 71.6577C84.7501 71.1638 84.0821 70.8835 83.3837 70.8769Z" fill="white"/>
<path d="M109.993 78.6238V68.4447H113.347V69.7798C113.763 69.2283 114.305 68.7842 114.927 68.4845C115.549 68.1848 116.234 68.0382 116.925 68.0567C119.709 68.0567 120.655 69.8217 120.655 72.0317V78.6227H117.301V73.1947C117.301 71.4787 116.639 70.7727 115.535 70.7727C114.271 70.7727 113.346 71.8647 113.346 73.5827V78.6238H109.993Z" fill="white"/>
<path d="M127.46 68.0656C126.731 68.0191 126 68.1285 125.317 68.3863C124.634 68.6441 124.013 69.0446 123.497 69.561C122.98 70.0774 122.58 70.6979 122.322 71.3812C122.064 72.0644 121.955 72.7948 122.002 73.5236C122.002 76.8556 124.311 78.9766 128.079 78.9766C129.353 78.9309 130.607 78.6495 131.779 78.1467L131.034 75.7357C130.196 76.1354 129.284 76.3542 128.356 76.3776C127.73 76.446 127.101 76.2905 126.58 75.9388C126.058 75.5871 125.678 75.062 125.508 74.4567H132.875C132.975 70.9767 131.536 68.0656 127.46 68.0656ZM127.605 70.5137C128.14 70.5045 128.659 70.6947 129.061 71.0474C129.464 71.4001 129.721 71.8901 129.782 72.4217H125.448C125.518 71.8973 125.774 71.4157 126.17 71.0651C126.566 70.7145 127.076 70.5183 127.605 70.5126V70.5137Z" fill="white"/>
<path d="M138.493 66.0215V68.4485H140.819V71.0654H138.493V75.1365C138.493 75.9685 138.832 76.3755 139.822 76.3755C140.165 76.3615 140.506 76.3116 140.839 76.2264L141.127 78.6495C140.445 78.8728 139.728 78.9743 139.011 78.9495C136.455 78.9495 135.1 77.6895 135.1 75.3285V71.0635H133.588V68.4485H135.1V66.0245L138.493 66.0215Z" fill="white"/>
<path d="M79.397 0.304688V16.4567C80.7512 17.5629 81.9908 18.8025 83.097 20.1567C76.952 16.1477 70.424 14.4637 62.486 14.4637C49.419 14.4637 37.522 20.5177 31.648 30.5387L32.406 31.9637C32.406 31.9637 34.962 28.8907 40.867 25.8767C34.417 32.2397 31.715 37.3157 27.749 49.0187L34.04 55.2837C38.1649 50.6309 43.2009 46.8743 48.8362 44.2462C54.4715 41.6182 60.5862 40.1747 66.8019 40.0051C73.0175 39.8356 79.2019 40.9435 84.9721 43.2604C90.7423 45.5773 95.9756 49.0538 100.348 53.4747L107.125 46.6747C103.524 40.6785 99.2816 35.0919 94.472 30.0137C98.529 32.3307 105.006 33.6558 111.193 33.6558C122.017 33.6558 129.97 27.8277 129.97 19.8927C129.97 10.1177 121.589 4.16874 107.92 1.90674L105.709 5.61572C112.588 6.84272 123.29 10.8468 123.29 17.9988C123.296 18.9642 123.106 19.9207 122.734 20.8113C122.361 21.7018 121.812 22.508 121.121 23.1815C120.429 23.8551 119.608 24.3822 118.708 24.7312C117.808 25.0802 116.847 25.244 115.882 25.2128C110.482 25.2128 105.989 19.1858 103.261 13.8638L99.087 13.7637C94.298 7.83667 86.553 2.05469 79.397 0.304688Z" fill="white"/>
</svg>
