<svg width="210" height="210" viewBox="0 0 210 210" fill="none" xmlns="http://www.w3.org/2000/svg">
<path d="M202 0H8C3.58172 0 0 3.58172 0 8V202C0 206.418 3.58172 210 8 210H202C206.418 210 210 206.418 210 202V8C210 3.58172 206.418 0 202 0Z" fill="none"/>
<path d="M97.8518 82.6871L80.2138 92.6101C78.9579 90.4591 77.0343 88.7768 74.7353 87.8185C72.4362 86.8602 69.8872 86.6784 67.4754 87.3006C65.0636 87.9229 62.9208 89.3152 61.3723 91.2661C59.8238 93.217 58.9543 95.62 58.8958 98.1101C58.9336 101.092 60.1386 103.941 62.2524 106.045C64.3662 108.149 67.2204 109.341 70.2028 109.365C72.2234 109.361 74.2085 108.833 75.9637 107.832C77.7189 106.83 79.184 105.391 80.2158 103.653L97.8518 113.602C95.031 118.429 90.9877 122.427 86.1294 125.194C81.2712 127.961 75.7695 129.398 70.1788 129.361C53.8928 129.334 38.5708 116.53 38.5728 98.1341C38.5728 79.8341 53.9558 66.8081 70.2398 66.9111C75.8273 66.8581 81.3286 68.291 86.1804 71.063C91.0321 73.835 95.06 77.8466 97.8518 82.6871V82.6871Z" fill="white"/>
<path fill-rule="evenodd" clip-rule="evenodd" d="M174.842 63.2012H103.82V133.023H174.841L174.842 63.2012ZM129.204 68.2012H108.922L108.916 128.042H129.204V103.128L149.504 128.046H169.77V68.2012H149.504V93.1612L129.204 68.2012Z" fill="white"/>
<path d="M40.9226 138.087C42.0306 138.414 42.9782 139.14 43.5826 140.125L41.2466 141.439C41.052 141.147 40.7818 140.914 40.4647 140.763C40.1476 140.613 39.7957 140.552 39.4466 140.587C39.0018 140.635 38.5916 140.849 38.2989 141.188C38.0061 141.526 37.8527 141.963 37.8694 142.41C37.8862 142.857 38.0719 143.281 38.3891 143.597C38.7063 143.912 39.1314 144.096 39.5786 144.11C39.907 144.119 40.2322 144.044 40.5236 143.893C40.815 143.741 41.0628 143.517 41.2436 143.243L43.5786 144.569C43.1891 145.195 42.6594 145.722 42.0314 146.108C41.4033 146.495 40.6941 146.73 39.9596 146.795C39.3044 146.847 38.6457 146.754 38.0306 146.523C37.4156 146.291 36.8593 145.926 36.4017 145.454C35.944 144.983 35.5962 144.416 35.3833 143.794C35.1703 143.172 35.0973 142.511 35.1697 141.857C35.242 141.204 35.4578 140.575 35.8016 140.015C36.1454 139.454 36.6088 138.977 37.1586 138.617C37.7083 138.257 38.3309 138.022 38.9818 137.931C39.6327 137.839 40.2957 137.892 40.9236 138.087H40.9226Z" fill="white"/>
<path d="M77.3666 137.923C76.4708 137.859 75.5762 138.062 74.7956 138.506C74.2861 138.795 73.839 139.182 73.4801 139.645C73.1212 140.108 72.8577 140.638 72.7048 141.203C72.552 141.769 72.5127 142.359 72.5894 142.939C72.6661 143.52 72.8572 144.08 73.1516 144.586C73.7698 145.607 74.7611 146.346 75.9153 146.648C77.0696 146.95 78.296 146.79 79.3346 146.203C80.3144 145.645 81.044 144.734 81.3739 143.656C81.7039 142.577 81.6093 141.414 81.1096 140.403C81.0771 140.305 81.0338 140.21 80.9806 140.121V140.121C80.9274 140.029 80.864 139.942 80.7916 139.864C80.403 139.305 79.8938 138.84 79.3015 138.503C78.7093 138.167 78.049 137.968 77.3696 137.921L77.3666 137.923ZM77.1796 140.744C77.4453 140.76 77.703 140.842 77.9297 140.981C78.1564 141.121 78.3453 141.314 78.4796 141.544V141.544C78.5906 141.726 78.6634 141.929 78.6936 142.14C78.7237 142.351 78.7106 142.566 78.6551 142.772C78.5995 142.978 78.5026 143.17 78.3703 143.337C78.238 143.504 78.0731 143.643 77.8856 143.744C77.7008 143.853 77.4963 143.924 77.2838 143.954C77.0713 143.984 76.8551 143.971 76.6476 143.917C76.4401 143.862 76.2453 143.768 76.0745 143.638C75.9038 143.508 75.7604 143.346 75.6526 143.16C75.5416 142.978 75.4688 142.775 75.4386 142.564C75.4084 142.353 75.4215 142.138 75.4771 141.933C75.5327 141.727 75.6295 141.534 75.7618 141.367C75.8941 141.2 76.059 141.062 76.2466 140.96V140.96C76.5296 140.797 76.8543 140.72 77.1806 140.739L77.1796 140.744Z" fill="white"/>
<path d="M149.919 137.923C149.023 137.859 148.128 138.062 147.348 138.506C146.838 138.795 146.391 139.182 146.032 139.645C145.673 140.108 145.409 140.638 145.257 141.203C145.104 141.769 145.064 142.359 145.141 142.939C145.218 143.52 145.409 144.08 145.704 144.586C146.322 145.607 147.313 146.346 148.467 146.648C149.622 146.95 150.848 146.791 151.887 146.203C152.866 145.645 153.596 144.734 153.926 143.656C154.255 142.577 154.161 141.414 153.661 140.403C153.628 140.305 153.585 140.211 153.532 140.122V140.122C153.478 140.03 153.415 139.943 153.342 139.865C152.953 139.306 152.444 138.841 151.852 138.505C151.259 138.168 150.599 137.969 149.92 137.922L149.919 137.923ZM149.731 140.744C149.996 140.761 150.254 140.842 150.481 140.982C150.707 141.121 150.896 141.314 151.031 141.544C151.142 141.726 151.214 141.929 151.245 142.14C151.275 142.351 151.261 142.566 151.206 142.772C151.15 142.978 151.053 143.17 150.921 143.337C150.788 143.504 150.623 143.643 150.436 143.744C150.251 143.853 150.047 143.924 149.834 143.954C149.622 143.984 149.406 143.971 149.198 143.917C148.991 143.862 148.796 143.768 148.625 143.638C148.455 143.508 148.311 143.346 148.204 143.16C148.093 142.978 148.02 142.776 147.99 142.564C147.96 142.353 147.973 142.138 148.028 141.933C148.084 141.727 148.181 141.534 148.313 141.367C148.445 141.2 148.61 141.062 148.798 140.96V140.96C149.081 140.797 149.405 140.72 149.732 140.739L149.731 140.744Z" fill="white"/>
<path d="M50.8076 138.091H46.4766L43.7646 146.618H46.8126L47.2576 145.188H50.0396L50.4766 146.618H53.5196L50.8076 138.091ZM48.6396 140.444L49.4146 143.09H47.8666L48.6396 140.444Z" fill="white"/>
<path d="M54.3945 138.091V146.618H57.2655V144.125H58.2015L59.4885 146.618H62.6825L61.0085 143.818C61.5274 143.553 61.9607 143.146 62.2583 142.645C62.556 142.144 62.7058 141.569 62.6905 140.986C62.6529 140.224 62.3312 139.503 61.7889 138.967C61.2466 138.43 60.523 138.116 59.7605 138.086L54.3945 138.091ZM59.1775 140.578C59.3479 140.591 59.5078 140.665 59.6281 140.787C59.7485 140.908 59.8214 141.068 59.8335 141.239C59.8434 141.427 59.7804 141.611 59.6577 141.754C59.5349 141.897 59.3619 141.987 59.1745 142.005H57.2665V140.575L59.1775 140.578Z" fill="white"/>
<path d="M63.4844 140.58V138.091H72.1724V140.581H69.4544V146.618H66.2054V140.58H63.4844Z" fill="white"/>
<path d="M92.2627 138.091H95.1297L98.0657 141.637V138.091H100.93V146.618H98.0647L95.1297 143.064V146.617H92.2627V138.091Z" fill="white"/>
<path d="M106.796 138.091H109.662L112.596 141.637V138.091H115.466V146.618H112.596L109.66 143.065V146.618H106.796V138.091Z" fill="white"/>
<path d="M116.713 138.091H124.285V140.579H119.585V141.452H123.546V143.444H119.581V144.344H124.281V146.621H116.713V138.091Z" fill="white"/>
<path d="M125.244 140.58V138.091H133.932V140.581H131.213V146.618H127.964V140.58H125.244Z" fill="white"/>
<path d="M134.657 138.091H137.572C137.572 138.091 138.3 141.814 138.304 141.829L139.74 138.396L141.203 141.822L141.933 138.091H144.82L143.169 146.618H140.769L139.74 144.318L138.699 146.618H136.333C136.333 146.618 134.686 138.284 134.654 138.091H134.657Z" fill="white"/>
<path d="M154.977 138.091V146.618H157.848V144.125H158.779L160.066 146.618H163.261L161.587 143.818C162.105 143.553 162.539 143.146 162.836 142.645C163.134 142.144 163.284 141.569 163.269 140.986C163.231 140.224 162.909 139.503 162.367 138.967C161.825 138.43 161.101 138.116 160.339 138.086L154.977 138.091ZM159.759 140.578C159.929 140.591 160.089 140.665 160.209 140.787C160.33 140.908 160.403 141.068 160.415 141.239C160.424 141.427 160.361 141.611 160.239 141.754C160.116 141.897 159.943 141.987 159.756 142.005H157.848V140.575L159.759 140.578Z" fill="white"/>
<path d="M164.202 146.617V138.091H167.102V140.853L169.266 138.091H172.966L169.611 142.156L172.966 146.618H169.266L167.103 143.445V146.618L164.202 146.617Z" fill="white"/>
<path d="M87.1688 137.923C86.273 137.859 85.3784 138.062 84.5978 138.506C84.0883 138.795 83.6412 139.182 83.2824 139.645C82.9235 140.108 82.66 140.638 82.5071 141.203C82.3542 141.769 82.315 142.359 82.3916 142.939C82.4683 143.52 82.6594 144.08 82.9538 144.586C83.5719 145.607 84.5632 146.346 85.7175 146.648C86.8718 146.95 88.0983 146.79 89.1368 146.203C90.1167 145.645 90.8462 144.734 91.1762 143.656C91.5062 142.577 91.4116 141.414 90.9118 140.403C90.8793 140.305 90.8361 140.21 90.7828 140.121V140.121C90.7294 140.029 90.6656 139.942 90.5928 139.864C90.2043 139.305 89.6951 138.84 89.1028 138.503C88.5105 138.167 87.8503 137.968 87.1708 137.921L87.1688 137.923ZM86.9818 140.744C87.2476 140.76 87.5053 140.842 87.732 140.981C87.9588 141.121 88.1476 141.314 88.2818 141.544V141.544C88.3928 141.726 88.4656 141.929 88.4958 142.14C88.526 142.351 88.5129 142.566 88.4573 142.772C88.4017 142.978 88.3049 143.17 88.1726 143.337C88.0403 143.504 87.8754 143.643 87.6878 143.744C87.503 143.853 87.2984 143.925 87.0858 143.955C86.8731 143.985 86.6567 143.972 86.4489 143.918C86.2412 143.864 86.0462 143.769 85.8752 143.639C85.7043 143.509 85.5607 143.347 85.4528 143.161C85.3418 142.979 85.269 142.776 85.2388 142.565C85.2087 142.354 85.2218 142.139 85.2773 141.934C85.3329 141.728 85.4298 141.535 85.5621 141.368C85.6944 141.201 85.8593 141.063 86.0468 140.961V140.961C86.3298 140.798 86.6546 140.721 86.9808 140.74L86.9818 140.744Z" fill="white"/>
</svg>
