<svg width="142" height="59" viewBox="0 0 142 59" fill="none" xmlns="http://www.w3.org/2000/svg">
<path d="M122.256 25.7991C119.391 26.2456 116.503 26.5327 113.606 26.6592L112.812 29.1401C114.611 28.9928 116.419 28.9818 118.22 29.1072C118.22 29.1072 118.964 29.0241 119.047 29.9501C119.062 30.5463 119.04 31.1428 118.981 31.7362C118.981 31.7362 118.931 32.2982 118.138 32.4312C117.278 32.5802 111.39 32.7951 111.39 32.7951L110.431 36.0201C110.431 36.0201 110.084 36.7641 110.877 36.5491C111.621 36.3491 117.79 35.1932 118.601 35.3582C119.104 35.5098 119.536 35.837 119.818 36.2802C120.1 36.7234 120.214 37.2531 120.139 37.7731C119.808 39.0631 113.656 42.9991 109.902 42.7181C109.902 42.7181 107.934 42.8501 106.264 40.1881C104.709 37.6581 106.864 32.8452 106.864 32.8452C106.864 32.8452 105.888 30.5961 106.599 29.8521C107.091 29.5339 107.667 29.367 108.253 29.3721L109.758 26.2462C109.245 26.2672 108.733 26.1761 108.259 25.979C107.785 25.7819 107.36 25.4837 107.013 25.1051C106.054 23.8981 105.988 23.3522 106.713 23.0212C110.921 21.9749 115.244 21.4635 119.58 21.4992C119.58 21.4992 121.3 21.3342 122.772 24.3112C122.755 24.3112 123.483 25.5181 122.259 25.7991H122.256ZM103.716 37.8062C103.087 39.2942 101.416 40.8821 99.3499 39.8901C97.2839 38.8981 94.0409 32.2332 94.0409 32.2332C94.0409 32.2332 92.8009 29.7522 92.5689 29.8022C92.5689 29.8022 92.304 29.3222 92.139 32.0352C91.974 34.7482 92.172 40.0231 91.097 40.8501C90.8839 41.0341 90.633 41.1689 90.3621 41.2452C90.0912 41.3214 89.8068 41.3372 89.5291 41.2915C89.2514 41.2457 88.9871 41.1394 88.755 40.9802C88.5229 40.821 88.3287 40.6127 88.186 40.3702C87.6069 39.4112 87.3589 37.1281 87.673 33.1261C88.0529 29.1261 88.9799 24.8572 90.173 23.5172C90.3114 23.3118 90.4978 23.1433 90.716 23.0263C90.9343 22.9093 91.1778 22.8472 91.4255 22.8456C91.6731 22.8439 91.9174 22.9026 92.1372 23.0167C92.3571 23.1307 92.5457 23.2967 92.6869 23.5002C94.3181 25.2126 95.7342 27.1177 96.904 29.1732L97.367 29.9501C97.367 29.9501 99.749 33.9502 99.997 33.9362C99.997 33.9362 100.197 34.1182 100.361 33.9862C100.609 33.9202 100.51 32.6302 100.51 32.6302C99.9266 28.6586 99.0363 24.7381 97.847 20.9042C97.6553 20.3283 97.6208 19.7118 97.747 19.1181C97.979 18.2581 98.8389 18.6552 98.8389 18.6552C98.8389 18.6552 102.213 20.3421 103.834 25.8331C105.007 29.7443 104.967 33.9194 103.718 37.8071L103.716 37.8062ZM87.144 23.6992C87.0353 24.1248 86.7971 24.5062 86.4623 24.7907C86.1275 25.0751 85.7126 25.2486 85.2749 25.2871C85.2749 25.2871 71.664 26.2132 71.019 27.1722C71.019 27.1722 70.54 27.7342 71.284 27.9002C72.028 28.0662 75.1049 28.4621 76.5929 28.5451C78.1809 28.5621 83.5389 28.6112 85.4579 31.0092C86.2843 32.0642 86.6748 33.3959 86.5489 34.7301C86.4989 37.3761 86.036 38.3022 85.011 39.2622C83.936 40.1552 74.7109 44.2902 68.7539 37.9392C68.3825 37.5573 68.107 37.0927 67.9501 36.5835C67.7932 36.0744 67.7594 35.5353 67.8515 35.0106C67.9435 34.4859 68.1588 33.9905 68.4797 33.5652C68.8005 33.1399 69.2177 32.7968 69.6969 32.5642C69.6969 32.5642 72.3599 30.9642 79.1239 32.8452C79.1239 32.8452 81.175 33.5891 81.076 34.3331C80.96 35.1271 79.389 35.9701 77.107 35.9212C75.8719 35.8946 74.6621 35.5653 73.584 34.9622C73.884 35.0782 71.203 33.6721 70.376 34.6311C69.549 35.5071 69.748 36.0532 70.558 36.5992C72.625 37.7732 80.614 37.3601 82.995 34.7141C82.995 34.7141 83.938 33.6392 82.495 32.7622C81.056 31.9352 76.938 31.4391 75.334 31.3561C73.796 31.2731 68.0739 31.3731 67.2469 29.8561C67.2469 29.8561 66.4199 28.8311 67.3299 25.9201C68.2889 22.8771 74.9539 21.7031 77.8299 21.4381C77.8299 21.4381 85.7519 21.1571 87.2069 22.7781C87.3053 23.0838 87.2816 23.4156 87.141 23.7041L87.144 23.6992ZM64.652 41.5441C64.0895 41.8592 63.4424 41.9901 62.8017 41.9183C62.161 41.8466 61.5588 41.5758 61.0799 41.1441C60.5009 40.4331 60.3029 37.6052 60.4189 33.1722C60.5349 28.6902 60.6339 23.1331 61.5929 22.2571C62.6179 21.3641 63.247 22.1411 63.644 22.7571C64.2703 23.5101 64.6408 24.4427 64.7019 25.4201C64.8179 26.8261 65.1319 34.2022 65.1319 34.2022C65.1319 34.2022 65.562 40.8491 64.652 41.5441ZM66.719 17.7611C64.6788 18.5674 62.4032 18.5375 60.3849 17.6781C59.6739 18.9181 59.2599 19.2992 58.7149 19.3782C57.9209 19.4612 57.21 18.1871 57.078 17.7781C56.9006 17.4582 56.8034 17.1 56.7947 16.7343C56.7859 16.3686 56.866 16.0062 57.0279 15.6781C56.3996 15.1027 55.9354 14.3708 55.6826 13.5571C55.4298 12.7435 55.3975 11.8774 55.589 11.0472C55.989 9.55916 58.6649 3.90216 66.8189 3.24116C66.8189 3.24116 70.8049 2.94116 71.4829 5.07716H71.599C71.599 5.07716 75.469 5.09416 75.386 8.53416C75.336 11.9892 71.0859 16.2892 66.7199 17.7592L66.719 17.7611ZM59.1109 10.1042C58.2839 11.4272 58.251 12.2212 58.631 12.7672C59.9959 10.6409 61.7593 8.79866 63.824 7.34214C62.8741 7.38868 61.9496 7.66414 61.1291 8.14506C60.3087 8.62597 59.6166 9.29811 59.112 10.1042H59.1109ZM70.3739 7.88816C67.8109 8.26816 63.841 11.7081 61.956 14.5201C64.85 15.0491 69.956 14.8512 72.227 10.2372C72.212 10.2362 73.302 7.37516 70.375 7.88816H70.3739ZM139.968 34.5321C138.43 37.2111 134.114 42.8012 128.358 41.4952C126.132 46.6739 124.65 52.1419 123.958 57.7362C123.958 57.7362 123.758 59.0922 122.635 58.6122C121.736 58.1342 120.966 57.4476 120.387 56.6102C119.809 55.7727 119.44 54.8087 119.311 53.7991C118.911 50.4251 120.419 44.7192 123.479 38.1862C122.342 36.2212 121.994 33.8983 122.503 31.6862C123.403 27.6104 125.61 23.9403 128.788 21.2341C128.788 21.2341 129.449 20.6551 129.83 20.8341C130.26 21.0161 130.062 22.8021 129.714 23.6621C129.366 24.5221 126.903 28.7892 126.903 28.7892C126.903 28.7892 125.365 31.6671 125.795 33.9321C128.689 29.4831 135.272 20.5032 139.357 23.3322C140.73 24.3082 141.357 26.4412 141.357 28.7402C141.364 30.7533 140.887 32.7387 139.967 34.5292L139.968 34.5321ZM138.777 27.4872C138.777 27.4872 138.545 25.7171 136.825 27.6691C134.336 30.3529 132.206 33.3494 130.491 36.5831C132.354 36.3512 134.12 35.6197 135.601 34.4662C136.678 33.5062 139.175 30.9262 138.779 27.4862L138.777 27.4872ZM58.477 29.7362C58.163 33.7362 56.6249 40.4701 45.7259 43.7941C39.9468 45.4254 33.8375 45.4882 28.026 43.9761C27.943 45.4481 27.7779 46.0761 27.5459 46.3251C27.2319 46.6391 24.8829 47.9952 23.5929 46.0772C22.9855 44.8131 22.6315 43.4423 22.5509 42.0422C14.2159 38.2052 10.379 32.6811 10.23 32.4331C9.61824 31.8345 9.25861 31.0246 9.22477 30.1693C9.19093 29.3141 9.48544 28.4783 10.048 27.8331C11.834 25.6331 17.6719 23.4331 22.9319 22.5411C23.1139 18.0411 23.643 14.6521 24.272 13.0971C25.033 11.2971 25.9919 12.9151 26.8189 14.1391C27.5139 15.0491 27.9269 18.9682 27.9599 22.0942C31.0843 21.9409 34.2152 22.2022 37.271 22.8712C42.266 23.7812 45.6059 26.3281 45.3089 29.2221C45.2126 30.231 44.7859 31.1798 44.0949 31.9212C43.404 32.6626 42.4875 33.1551 41.488 33.3222C40.5656 33.2771 39.661 33.0522 38.8249 32.6602C37.7169 32.1312 38.7419 31.6681 40.0819 31.0891C41.5369 30.3781 41.2069 29.6502 41.2069 29.6502C40.6609 28.0622 34.1779 26.9501 27.7279 26.9501C27.6949 30.5061 27.877 36.4101 27.959 39.8501C30.5562 40.3634 33.201 40.5964 35.8479 40.5451C35.8479 40.5451 52.3199 40.0821 52.8169 29.5631C53.3139 19.0441 36.3939 8.92315 23.8739 5.71415C11.3739 2.43915 4.29197 4.72214 3.67997 5.03614C3.01897 5.36714 3.62998 5.46616 3.62998 5.46616C4.25984 5.58238 4.87921 5.74959 5.48197 5.96616C6.72197 6.36616 5.76298 7.00816 5.76298 7.00816C3.62998 7.68616 1.23098 7.25616 0.767984 6.28016C0.304984 5.30416 1.08195 4.42815 1.97495 3.17115C2.86795 1.84815 3.84397 1.89814 3.84397 1.89814C19.308 -3.45986 38.144 6.23115 38.144 6.23115C55.791 15.1781 58.8009 25.6641 58.4699 29.7311L58.477 29.7362ZM11.8119 29.1892C10.0589 30.0492 11.266 31.2892 11.266 31.2892C14.3723 34.5306 18.2141 36.9757 22.466 38.4172C22.913 32.3172 22.846 30.1641 22.896 27.0881C16.872 27.5021 13.3989 28.4592 11.8119 29.1892Z" fill="white"/>
</svg>
