<svg width="142" height="36" viewBox="0 0 142 36" fill="none" xmlns="http://www.w3.org/2000/svg">
<path d="M97.809 0.864376H46.398C41.17 0.864376 37.684 3.76437 37.103 7.83537C36.9229 8.79187 36.8258 9.76215 36.813 10.7354H105.07C105.083 10.1435 105.181 9.55662 105.36 8.99238C106.231 4.63538 104.489 0.859375 97.808 0.859375" fill="white"/>
<path d="M105.07 14.5152C104.89 15.4718 104.793 16.442 104.78 17.4152C104.49 20.3152 102.166 22.6432 98.0998 22.6432H83.5798L81.5468 35.7132H69.9248L72.5388 14.5132L105.07 14.5152Z" fill="white"/>
<path d="M34.7797 10.7393H3.70068L4.86268 0.864258H35.9407L34.7797 10.7393Z" fill="white"/>
<path d="M31.5848 35.7181L32.7468 26.4231H13.2858L13.8668 22.3571H33.3268L34.1978 14.5151H3.12181L0.507812 35.7151L31.5848 35.7181Z" fill="white"/>
<path d="M108.845 0.864258H134.115C138.181 0.864258 142.248 2.60726 141.376 8.99726C141.236 9.47145 141.138 9.95746 141.086 10.4493H107.686L108.845 0.864258Z" fill="white"/>
<path d="M119.012 14.5156L107.394 14.2256L104.78 35.7196H116.398L119.012 14.5156Z" fill="white"/>
<path d="M141.087 14.5156L129.469 14.2256L126.569 35.7196H138.187L141.087 14.5156Z" fill="white"/>
<path d="M62.0867 14.5153H36.5267C35.6557 20.0343 38.5597 22.6483 42.3357 22.6483H58.0207L57.4397 26.7142H34.7797L33.9087 35.7142H59.4687C60.3397 35.7142 66.1487 35.4243 67.8917 30.7763C68.4727 29.3243 69.0537 23.8052 69.3437 22.6432C70.2147 15.9632 65.5677 14.5103 62.0827 14.5103" fill="white"/>
</svg>
