<svg width="142" height="84" viewBox="0 0 142 84" fill="none" xmlns="http://www.w3.org/2000/svg">
<path d="M33.772 62.7426H29.272C29.606 64.9086 31.605 66.0746 34.772 65.7426C38.436 65.9096 40.272 64.7426 40.602 62.5776C40.602 61.4126 39.769 60.5776 38.27 60.0776L34.605 59.0776C34.105 59.0776 33.772 58.9106 33.772 58.5776C33.772 58.2446 34.105 58.0776 34.938 58.0776C35.604 58.0776 35.938 58.2446 35.938 58.9106H40.103C39.937 56.7446 38.271 55.7456 34.939 55.9106C31.4403 55.9106 29.607 56.9106 29.439 58.9106C29.439 60.2436 30.272 61.0756 31.939 61.5766L35.439 62.2426L36.106 62.9086C36.106 63.4086 35.606 63.5756 34.939 63.7416L34.106 63.4086L33.772 62.7426ZM55.262 59.2426C55.262 57.4116 53.928 56.4116 51.097 56.0776H44.097V65.5716H48.928V62.5716H50.428C53.76 62.4056 55.259 61.4066 55.259 59.2396L55.262 59.2426ZM48.931 58.4106H49.263C50.263 58.4106 50.763 58.7436 50.763 59.2426C50.763 59.9092 50.263 60.2426 49.263 60.2426H48.931V58.4106ZM58.26 60.9106C58.26 64.0766 60.26 65.7416 64.424 65.9106C68.588 65.7436 70.587 64.0786 70.587 60.9106C70.587 57.7426 68.587 56.0796 64.424 55.9106C60.259 56.0776 58.26 57.7436 58.26 60.9106ZM65.76 60.9106C65.593 62.9106 65.093 63.7426 64.428 63.4106C63.761 63.7436 63.261 62.9106 63.261 60.9106C63.261 58.9106 63.595 58.0796 64.428 58.4106C65.252 58.0786 65.752 58.9116 65.752 60.9096L65.76 60.9106ZM85.75 65.5756L84.917 62.0756C84.7898 61.6991 84.5371 61.3779 84.2011 61.1657C83.8652 60.9536 83.4665 60.8635 83.072 60.9106C84.738 60.4106 85.404 59.7456 85.404 58.7456C85.237 56.9126 83.904 56.0796 81.239 56.0796H74.239V65.5736H78.904V62.4106H79.404C80.237 62.2436 80.569 62.4106 80.569 62.9106L81.069 65.5756H85.75ZM78.919 58.4126H79.252C80.252 58.2456 80.752 58.5796 80.752 59.2446C80.752 59.9096 80.252 60.0776 79.252 60.0776H78.919V58.4116V58.4126ZM88.419 58.7456H91.419V65.7456H95.919V58.7456H98.919V56.2456H88.419V58.7456ZM106.078 58.5786C106.078 58.2456 106.412 58.0786 107.244 58.0786C107.909 58.0786 108.244 58.2456 108.408 58.9116H112.573C112.241 56.7456 110.573 55.7466 107.244 55.9116C103.744 55.9116 101.913 56.9116 101.913 58.9116C101.913 60.2446 102.747 61.0766 104.413 61.5776L107.744 62.2436L108.578 62.9096C108.578 63.4096 108.078 63.5766 107.246 63.7426L106.413 63.4096L106.079 62.7436H101.747C102.08 64.9096 103.913 66.0756 107.247 65.7436C110.747 65.9106 112.747 64.7436 112.91 62.5786C112.91 61.4136 112.244 60.5786 110.578 60.0786L107.078 59.0786C106.413 59.0786 106.245 58.9116 106.078 58.5786ZM40.43 27.9266H52.425L51.757 18.2686H30.435V53.9186H40.435V42.2526H50.264V32.5906H40.43V27.9266ZM102.23 35.2556L111.897 18.2686H101.234L96.734 26.0976L92.406 18.2686H81.406L91.234 35.2596L80.744 53.7476H91.572L96.572 44.5856L101.736 53.7476H112.898L102.234 35.2556H102.23Z" fill="white"/>
<path d="M69.0832 18.7644C58.7552 19.7644 53.0912 25.5954 52.0912 36.0894C53.0912 46.5894 58.7552 52.2484 69.0832 53.2484C79.2452 52.2484 84.9092 46.5854 85.9082 36.0894C84.9092 25.5954 79.2452 19.7644 69.0832 18.7644ZM69.0832 25.9274C69.8709 25.9525 70.6195 26.2766 71.1768 26.8338C71.7341 27.3911 72.0582 28.1397 72.0832 28.9274V43.0874C72.0957 43.4782 72.0296 43.8674 71.8887 44.2321C71.7479 44.5968 71.5351 44.9294 71.2632 45.2103C70.9912 45.4911 70.6655 45.7144 70.3056 45.8669C69.9456 46.0194 69.5586 46.098 69.1677 46.098C68.7768 46.098 68.3898 46.0194 68.0299 45.8669C67.6699 45.7144 67.3442 45.4911 67.0723 45.2103C66.8003 44.9294 66.5876 44.5968 66.4467 44.2321C66.3058 43.8674 66.2397 43.4782 66.2522 43.0874V28.9264C66.2406 28.1563 66.5299 27.412 67.0586 26.8519C67.5873 26.2919 68.3137 25.9602 69.0832 25.9274ZM120.225 72.0734C133.054 64.5734 140.214 55.2474 141.382 44.0874H130.052C128.888 53.9164 123.052 62.2444 112.229 68.7424C101.567 75.4044 88.2405 78.9021 72.2492 79.2354V83.7354C91.4072 83.2354 107.233 79.4044 120.226 72.0744L120.225 72.0734ZM21.7722 72.0734C34.5992 79.4034 50.5922 83.2354 69.7492 83.7344V79.2344C53.9232 78.9004 40.5972 75.4034 29.9352 68.7394C19.2732 62.2394 13.2762 53.9134 12.2762 44.0844H0.616211C1.95021 55.2464 8.94621 64.5734 21.7722 72.0734ZM69.7492 5.77344V0.773438C50.4262 1.27344 34.1002 5.27344 21.2732 12.9344C8.28021 20.5974 1.44921 30.2594 0.616211 41.5874H12.2772C13.2772 31.4254 18.9402 23.0954 29.6022 16.5994C40.4312 9.77344 53.7582 6.27344 69.7492 5.77344ZM72.2492 0.773438V5.77344C88.4072 6.10544 101.735 9.77344 112.563 16.4354C123.225 23.0984 129.056 31.4284 130.054 41.5904H141.384C140.716 30.2614 133.72 20.5994 120.892 12.9374C107.897 5.27344 91.7382 1.27344 72.2492 0.773438ZM125.556 72.4054H126.888V71.5734H123.557V72.4054H124.723V75.7374H125.556V72.4054ZM128.716 71.5734H127.384V75.7374H128.218V72.4054L129.051 75.7374H129.885L130.551 72.4054V75.7374H131.385V71.5734H130.216L129.383 74.9044L128.716 71.5734Z" fill="white"/>
</svg>
