<svg width="130" height="131" viewBox="0 0 130 131" fill="none" xmlns="http://www.w3.org/2000/svg">
<path d="M65 0.5C77.8558 0.5 90.4229 4.31218 101.112 11.4545C111.801 18.5968 120.132 28.7484 125.052 40.6256C129.972 52.5028 131.259 65.5721 128.751 78.1809C126.243 90.7896 120.052 102.372 110.962 111.462C101.872 120.552 90.2896 126.743 77.6809 129.251C65.0721 131.759 52.0028 130.472 40.1256 125.552C28.2484 120.632 18.0968 112.301 10.9545 101.612C3.81218 90.9229 0 78.3558 0 65.5C0 48.2609 6.8482 31.7279 19.0381 19.5381C31.2279 7.3482 47.7609 0.5 65 0.5V0.5Z" fill="white"/>
<path fill-rule="evenodd" clip-rule="evenodd" d="M112.772 95.7551C109.834 96.3951 106.841 96.8063 103.852 97.1553C100.027 97.5963 96.187 97.9052 92.344 98.1482C83.244 98.7242 74.114 98.9412 64.992 98.9412C55.87 98.9412 46.744 98.7242 37.641 98.1482C33.798 97.9042 29.957 97.5953 26.133 97.1553C23.143 96.8103 20.1499 96.4001 17.2129 95.7551C13.7369 94.9981 12.4219 92.2311 12.1129 89.0881C11.3269 81.2288 10.9383 73.3453 10.9469 65.4373C10.9469 57.5419 11.3356 49.6578 12.1129 41.7852C12.4269 38.6422 13.7419 35.8752 17.2129 35.1172C20.1499 34.4782 23.144 34.0663 26.133 33.7173C29.958 33.2773 33.798 32.9681 37.641 32.7251C46.741 32.1481 55.87 31.9321 64.992 31.9321C74.114 31.9321 83.2409 32.1491 92.3429 32.7251C96.1859 32.9691 100.027 33.2773 103.851 33.7173C106.84 34.0613 109.834 34.4732 112.771 35.1172C116.247 35.8752 117.562 38.6422 117.871 41.7852C118.656 49.6445 119.045 57.5286 119.037 65.4373C119.037 73.3319 118.648 81.2155 117.871 89.0881C117.562 92.2311 116.247 94.9971 112.772 95.7551Z" fill="#4ca7d5"/>
<path fill-rule="evenodd" clip-rule="evenodd" d="M65 36.0972C70.8148 36.0972 76.4987 37.8212 81.3335 41.0518C86.1683 44.2823 89.9369 48.8739 92.1621 54.2461C94.3873 59.6182 94.9694 65.5299 93.835 71.2329C92.7006 76.936 89.9007 82.1745 85.7891 86.2861C81.6774 90.3978 76.4384 93.1976 70.7354 94.332C65.0323 95.4664 59.1212 94.8844 53.749 92.6592C48.3769 90.434 43.7852 86.6659 40.5547 81.8311C37.3242 76.9962 35.6001 71.3118 35.6001 65.4971C35.6001 57.6997 38.6974 50.2216 44.2109 44.708C49.7245 39.1944 57.2026 36.0972 65 36.0972Z" fill="white"/>
</svg>
