<svg width="141" height="35" viewBox="0 0 141 35" fill="none" xmlns="http://www.w3.org/2000/svg">
<path d="M75.6942 24.7239H60.1942V21.3049H72.1982V13.6939H60.1902V10.2739H75.6902L75.6942 24.7239ZM29.9272 23.8989C29.8122 25.0319 29.2462 25.2909 28.1942 25.3989C24.3895 25.7509 20.5689 25.9038 16.7482 25.8569C12.928 25.9055 9.10774 25.7542 5.30324 25.4039C4.24924 25.2919 3.68524 25.0329 3.56924 23.9039C3.36124 21.8249 3.34924 19.6779 3.34924 17.5039C3.34924 15.3299 3.36124 13.1819 3.56924 11.1039C3.68524 9.97291 4.24924 9.71191 5.30324 9.60391C9.10806 9.25299 12.9285 9.09979 16.7492 9.14491C20.5696 9.09981 24.3897 9.25302 28.1942 9.60391C29.2462 9.71591 29.8122 9.97591 29.9272 11.1039C30.1362 13.1819 30.1482 15.3289 30.1482 17.5039C30.1482 19.6789 30.1362 21.8239 29.9272 23.9039V23.8989ZM131.408 14.1339C127.051 12.9259 122.651 12.4499 122.477 10.2519C122.477 8.91691 123.677 8.65191 124.677 8.65191C125.518 8.65163 126.345 8.86828 127.077 9.28091C127.41 9.47796 127.686 9.75667 127.881 10.0906C128.075 10.4245 128.181 10.8026 128.188 11.1889H138.771C138.558 3.62391 130.837 0.374911 123.542 1.51391H112.495L104.482 16.2329V1.51391H94.4082L85.0862 18.6189V1.51391H49.8682V15.0139L42.5272 1.51391H31.1472V8.89991C29.2657 5.75614 26.405 3.3162 23.0037 1.95412C19.6025 0.592054 15.8484 0.383029 12.317 1.35909C8.78558 2.33516 5.67171 4.44244 3.45276 7.3579C1.2338 10.2734 0.0322266 13.8361 0.0322266 17.4999C0.0322266 21.1637 1.2338 24.7265 3.45276 27.6419C5.67171 30.5574 8.78558 32.6647 12.317 33.6407C15.8484 34.6168 19.6025 34.4078 23.0037 33.0457C26.405 31.6836 29.2657 29.2437 31.1472 26.0999V33.4839H41.7422V19.4299L49.6362 33.4839H85.1842L94.4172 17.1539V33.4839H104.75L114.242 16.5909C116.206 18.6719 119.497 19.5119 122.515 20.3659C127.62 21.8209 128.907 22.2349 128.907 23.7659C128.907 25.2659 126.907 26.0529 125.883 26.0529C125.311 26.0476 124.756 25.8581 124.3 25.5124C123.844 25.1668 123.512 24.6834 123.352 24.1339C123.192 23.685 123.118 23.2102 123.133 22.7339H111.318C111.53 32.3959 122.372 33.6339 125.844 33.6339C132.704 33.6339 140.044 31.0449 140.044 23.0189C140.044 17.3689 135.769 15.3369 131.411 14.1299" fill="white"/>
<path d="M16.7482 10.7227C15.4095 10.731 14.1032 11.1356 12.9941 11.8854C11.885 12.6352 11.0228 13.6966 10.5162 14.9358C10.0096 16.1751 9.88135 17.5365 10.1476 18.8486C10.4139 20.1606 11.0627 21.3644 12.0123 22.3081C12.9618 23.2518 14.1696 23.8932 15.4833 24.1514C16.7969 24.4095 18.1576 24.2729 19.3936 23.7586C20.6297 23.2444 21.6858 22.3757 22.4288 21.2619C23.1717 20.1482 23.5682 18.8395 23.5682 17.5007C23.5653 16.6077 23.3866 15.724 23.0422 14.9001C22.6978 14.0762 22.1945 13.3282 21.561 12.6988C20.9275 12.0694 20.1763 11.5709 19.3501 11.2319C18.524 10.8928 17.6392 10.7198 16.7462 10.7227" fill="white"/>
</svg>
