<svg width="210" height="210" viewBox="0 0 210 210" fill="none" xmlns="http://www.w3.org/2000/svg">
<path d="M202 0H8C3.58172 0 0 3.58172 0 8V202C0 206.418 3.58172 210 8 210H202C206.418 210 210 206.418 210 202V8C210 3.58172 206.418 0 202 0Z" fill="gloob"/>
<path d="M157.104 80.5039L135.032 118.734L149.719 127.217C151.648 128.359 153.785 129.106 156.005 129.416C158.225 129.727 160.485 129.594 162.653 129.025C164.822 128.456 166.856 127.463 168.637 126.102C170.419 124.742 171.914 123.042 173.034 121.1C174.155 119.158 174.879 117.014 175.165 114.79C175.451 112.567 175.293 110.309 174.7 108.147C174.108 105.985 173.092 103.962 171.713 102.195C170.333 100.428 168.617 98.952 166.663 97.8529L163.752 96.1649L168.869 87.2989L157.104 80.5039ZM156.918 107.983L159.839 109.683C160.236 109.888 160.587 110.171 160.871 110.516C161.155 110.86 161.367 111.259 161.492 111.687C161.618 112.116 161.655 112.566 161.602 113.009C161.549 113.453 161.406 113.881 161.183 114.268C160.959 114.654 160.659 114.991 160.301 115.259C159.944 115.526 159.535 115.718 159.101 115.823C158.667 115.928 158.216 115.944 157.775 115.869C157.335 115.795 156.914 115.632 156.539 115.39L153.628 113.702L156.918 107.983Z" fill="white"/>
<path d="M48.5596 83.4951C44.1078 85.5711 40.4099 88.9773 37.9759 93.2439C35.5419 97.5104 34.4918 102.427 34.9704 107.316C35.449 112.204 37.4327 116.824 40.648 120.538C43.8633 124.251 48.1516 126.876 52.9215 128.049C57.6913 129.222 62.7077 128.886 67.2787 127.088C71.8496 125.289 75.7499 122.117 78.4414 118.008C81.133 113.899 82.4833 109.056 82.306 104.147C82.1287 99.238 80.4326 94.5052 77.4516 90.6011L56.4456 100.401L60.7456 109.613L68.6266 105.938C68.4333 108.033 67.5894 110.014 66.2132 111.605C64.8371 113.195 62.9976 114.315 60.9528 114.808C58.908 115.3 56.7603 115.141 54.8108 114.351C52.8613 113.562 51.2077 112.182 50.082 110.405C48.9562 108.628 48.4147 106.544 48.5332 104.444C48.6518 102.344 49.4246 100.334 50.7432 98.6951C52.0618 97.0565 53.8602 95.8716 55.8862 95.3065C57.9122 94.7414 60.0642 94.8245 62.0406 95.5441L66.7036 82.7051C63.7757 81.634 60.6647 81.1532 57.5501 81.2905C54.4354 81.4278 51.3788 82.1805 48.5566 83.5051" fill="white"/>
<path d="M78.7485 127.229L92.1285 129.589L100.376 82.7661L87.0005 80.4121L78.7485 127.229Z" fill="white"/>
<path d="M101.4 99.4242C98.3945 101.945 96.3563 105.43 95.6325 109.285C94.9087 113.14 95.544 117.127 97.4301 120.566C99.3162 124.005 102.337 126.684 105.976 128.146C109.616 129.608 113.65 129.763 117.391 128.584C121.132 127.405 124.349 124.965 126.493 121.68C128.637 118.395 129.575 114.469 129.149 110.57C128.722 106.671 126.957 103.04 124.153 100.296C121.35 97.553 117.682 95.8665 113.775 95.5242C111.557 95.3298 109.323 95.5742 107.199 96.2434C105.076 96.9125 103.105 97.9934 101.4 99.4242V99.4242ZM109.774 114.533C109.279 113.951 109.002 113.215 108.989 112.451C108.977 111.688 109.23 110.943 109.705 110.345C110.18 109.747 110.848 109.332 111.594 109.171C112.341 109.01 113.121 109.113 113.8 109.463C114.479 109.813 115.016 110.387 115.319 111.089C115.621 111.79 115.672 112.575 115.46 113.309C115.249 114.043 114.79 114.681 114.161 115.115C113.532 115.548 112.772 115.75 112.011 115.685C111.142 115.612 110.338 115.198 109.774 114.533" fill="white"/>
<path d="M126.849 83.6049C124.562 85.4635 122.992 88.0584 122.407 90.9461C121.821 93.8338 122.257 96.8352 123.639 99.4375C125.021 102.04 127.264 104.081 129.984 105.213C132.704 106.346 135.733 106.498 138.553 105.645C141.374 104.791 143.81 102.985 145.446 100.535C147.082 98.0844 147.817 95.1418 147.524 92.2099C147.232 89.278 145.93 86.5387 143.842 84.46C141.754 82.3813 139.009 81.0922 136.076 80.8129C132.753 80.4958 129.439 81.4979 126.849 83.6029V83.6049ZM132.749 95.2559C132.296 94.647 132.093 93.8882 132.181 93.1347C132.27 92.3812 132.643 91.6899 133.224 91.2022C133.805 90.7146 134.551 90.4673 135.308 90.5111C136.065 90.555 136.777 90.8865 137.299 91.4379C137.795 92.0424 138.033 92.8184 137.961 93.5973C137.888 94.3762 137.512 95.0951 136.912 95.5979C136.313 96.1007 135.54 96.3468 134.76 96.2828C133.981 96.2188 133.258 95.8498 132.749 95.2559" fill="white"/>
</svg>
