<svg width="210" height="210" viewBox="0 0 210 210" fill="none" xmlns="http://www.w3.org/2000/svg">
<path d="M202 0H8C3.58172 0 0 3.58172 0 8V202C0 206.418 3.58172 210 8 210H202C206.418 210 210 206.418 210 202V8C210 3.58172 206.418 0 202 0Z" fill="none"/>
<g opacity="0.997">
<path opacity="0.997" d="M117.972 94.0805V123.39L108.497 133.16H149.681L140.143 123.387V57.2665L149.562 47.5605H108.662L117.969 57.2365V75.5675H92.0264V57.2365L101.333 47.5605H60.4334L69.8524 57.2665V123.387L60.3174 133.161H101.501L92.0264 123.391V94.0805H117.972Z" fill="white"/>
</g>
<path d="M60.4365 47.5605H101.337L80.8405 56.0605L60.4365 47.5605Z" fill="#EAEAEA"/>
<path d="M108.666 47.5605H149.566L129.166 56.0605L108.666 47.5605Z" fill="#EAEAEA"/>
<path d="M149.682 133.159L129.159 123.983L108.498 133.159H149.682Z" fill="#D0D0D0"/>
<path d="M80.8433 124.037V56.0635L69.8583 57.6635V123.44L60.3193 133.155L80.8433 124.037Z" fill="#DEDEDE"/>
<path d="M129.21 56.9664L129.158 56.0664L149.558 47.5664L140.139 57.2724L129.21 56.9664Z" fill="#FDFDFD"/>
<path d="M129.158 123.984L149.681 133.16L140.142 123.387V57.2218L129.21 56.0718L129.158 123.984Z" fill="#FDFDFD"/>
<path d="M108.498 133.16L129.159 123.984V83.1587L117.974 94.0807V123.39L108.498 133.16Z" fill="#DBDBDB"/>
<path d="M101.501 133.16L92.0263 123.39V94.0807L80.8403 83.1577V123.984L101.501 133.16Z" fill="#FDFDFD"/>
<path d="M117.972 75.5674H92.0263L80.8403 83.1574L92.0263 94.0804H117.972L129.158 83.1584L117.972 75.5674Z" fill="#F7F7F7"/>
<path d="M117.974 57.2376L128.694 55.8716L129.159 56.0646L129.083 83.2646L117.973 75.5716L117.974 57.2376Z" fill="#DBDBDB"/>
<path d="M129.159 56.0605L108.667 47.5605L117.977 57.2365V65.5125L129.161 72.8015L129.159 56.0605Z" fill="#DBDBDB"/>
<path d="M92.0253 57.2376L81.3054 55.8716L80.8403 56.0646L80.9163 83.2646L92.0264 75.5716L92.0253 57.2376Z" fill="#FDFDFD"/>
<path d="M80.8403 56.0605L101.332 47.5605L92.0253 57.2365V65.5125L80.8403 72.8015V56.0605Z" fill="#FDFDFD"/>
<path d="M60.3174 133.159L80.8404 123.983L101.501 133.159H60.3174Z" fill="#D0D0D0"/>
<path d="M80.8395 124.439V56.0605L60.4365 47.5605L69.8555 57.2665V123.433L80.8395 124.439Z" fill="#DBDBDB"/>
<path d="M117.972 83.1587H80.8433L92.0292 94.0817H117.975L129.161 83.1597L117.972 83.1587Z" fill="#C7C7C7"/>
<path d="M50.0723 145.463H55.1553V151.79H60.1913V145.463H65.2723V162.13H60.1913V155.494H55.1553V162.13H50.0723V145.463Z" fill="white"/>
<path d="M68.7344 145.463H73.8174V162.13H68.7344V145.463Z" fill="white"/>
<path d="M87.7492 150.071C87.2764 149.566 86.698 149.172 86.0553 148.916C85.4126 148.661 84.7215 148.55 84.0312 148.593C82.7602 148.593 81.8892 149.013 81.8892 149.786C81.8892 152.475 91.6562 150.094 91.6562 156.886C91.6562 159.641 89.3022 162.442 84.1012 162.442C80.9242 162.442 78.1232 161.736 76.2412 159.202L79.3012 156.975C79.8523 157.62 80.5384 158.136 81.311 158.487C82.0836 158.837 82.9238 159.014 83.7722 159.004C85.7722 159.004 86.5722 158.275 86.5722 157.548C86.5722 155.013 76.9472 156.948 76.9472 150.648C76.9472 147.386 79.8412 145.159 84.1012 145.159C85.3285 145.082 86.5576 145.278 87.7007 145.731C88.8439 146.184 89.8728 146.884 90.7142 147.781L87.7492 150.071Z" fill="white"/>
<path d="M97.1865 149.037H92.2925V145.467H107.165V149.037H102.272V162.137H97.1895L97.1865 149.037Z" fill="white"/>
<path d="M116.248 162.441C110.948 162.441 107.748 159.112 107.748 153.798C107.748 148.484 110.948 145.155 116.248 145.155C121.548 145.155 124.748 148.484 124.748 153.798C124.748 159.112 121.543 162.441 116.248 162.441ZM113.119 153.798C113.119 158.273 114.507 159.134 116.248 159.134C117.967 159.134 119.378 158.273 119.378 153.798C119.378 149.565 118.225 148.463 116.248 148.463C114.197 148.462 113.119 149.762 113.119 153.797V153.798Z" fill="white"/>
<path d="M126.838 145.463H135.357C141.288 145.463 142.441 148.109 142.441 150.269C142.441 152.342 141.052 153.73 139.077 154.459L142.394 162.131H136.744L134.226 155.296H131.92V162.131H126.836V145.463H126.838ZM131.922 152.121H134.557C136.015 152.121 137.076 151.521 137.076 150.446C137.076 149.388 136.345 148.637 134.768 148.637H131.921V152.121H131.922Z" fill="white"/>
<path d="M148.725 155.053L142.277 145.463H148.047L151.765 151.129L155.319 145.463H159.931L153.811 154.657V162.13H148.728L148.725 155.053Z" fill="white"/>
<path d="M56.5863 136.863L52.0913 141.446H157.991L153.518 136.863H56.5863Z" fill="white"/>
</svg>
