<svg width="142" height="91" viewBox="0 0 142 91" fill="none" xmlns="http://www.w3.org/2000/svg">
<path d="M106.48 76.7146L108.647 83.6046L110.967 76.7146H113.127C113.127 76.7146 109.16 87.3816 108.647 88.4716C108.42 89.1633 107.949 89.7487 107.321 90.1186C106.586 90.3859 105.802 90.4949 105.021 90.4386H104.321V88.6756C104.993 88.7468 105.672 88.6787 106.316 88.4756C106.885 87.7897 107.317 87.0016 107.59 86.1536L107.606 86.1086L107.63 86.0496L104.267 76.7166L106.48 76.7146ZM92.1743 76.5146C92.8283 76.4978 93.4769 76.6385 94.0653 76.9246C94.5945 77.1839 95.0578 77.56 95.4203 78.0246C95.7898 78.5056 96.0666 79.0512 96.2363 79.6336C96.4193 80.2615 96.5109 80.9125 96.5083 81.5666C96.5083 81.6596 96.5083 81.7586 96.5013 81.8576C96.4943 81.9566 96.4833 82.0636 96.4743 82.1706H89.8213C89.8898 82.8504 90.2046 83.4817 90.7063 83.9456C91.1862 84.3536 91.7995 84.5707 92.4293 84.5556C92.8912 84.5666 93.3493 84.4697 93.7673 84.2726C94.1793 84.0532 94.5545 83.7708 94.8793 83.4356L96.1003 84.5556C95.6737 85.082 95.146 85.5176 94.5483 85.8366C93.882 86.1733 93.1426 86.3396 92.3963 86.3206C91.7685 86.3242 91.1462 86.2035 90.5653 85.9656C90.0129 85.7336 89.5125 85.3936 89.0933 84.9656C88.6664 84.5243 88.3322 84.0021 88.1103 83.4296C87.8642 82.7975 87.7427 82.1238 87.7523 81.4456V81.4116C87.7473 80.7616 87.8566 80.1157 88.0753 79.5036C88.2803 78.9313 88.5929 78.4035 88.9963 77.9486C89.383 77.5062 89.8573 77.149 90.3893 76.8996C90.9504 76.6406 91.5623 76.5105 92.1803 76.5186L92.1743 76.5146ZM73.3563 76.5146C74.0198 76.5089 74.6774 76.6396 75.2883 76.8986C75.8613 77.1423 76.3793 77.4991 76.8113 77.9476C77.2431 78.3921 77.583 78.9174 77.8113 79.4936C78.0577 80.0964 78.1811 80.7424 78.1743 81.3936V81.4306C78.1784 82.0775 78.0522 82.7185 77.8033 83.3156C77.3358 84.4913 76.4214 85.4338 75.2603 85.9366C74.6479 86.1994 73.9877 86.3326 73.3213 86.3276C72.6644 86.3325 72.0137 86.2011 71.4103 85.9416C70.8367 85.7008 70.3174 85.3472 69.8833 84.9016C69.4525 84.4563 69.1128 83.9311 68.8833 83.3556C68.6428 82.755 68.5209 82.1135 68.5243 81.4666V81.4306C68.5198 80.7793 68.6442 80.1336 68.8903 79.5306C69.1307 78.9513 69.4766 78.4217 69.9103 77.9686C70.3562 77.5046 70.8922 77.1366 71.4855 76.8872C72.0788 76.6379 72.7168 76.5124 73.3603 76.5186L73.3563 76.5146ZM64.3433 76.5146C64.9663 76.4901 65.5875 76.5971 66.1665 76.8287C66.7454 77.0602 67.269 77.4112 67.7033 77.8586L67.9623 78.1356L66.6733 79.5816C66.397 79.2208 66.0424 78.9274 65.6361 78.7237C65.2299 78.52 64.7827 78.4112 64.3283 78.4056C63.9589 78.4288 63.5978 78.5255 63.2662 78.6899C62.9345 78.8543 62.639 79.0832 62.3969 79.3632C62.1548 79.6432 61.971 79.9687 61.8562 80.3206C61.7414 80.6724 61.6979 81.0437 61.7283 81.4126C61.6976 81.7919 61.7442 82.1735 61.8651 82.5343C61.986 82.8952 62.1787 83.2278 62.4317 83.5121C62.6847 83.7964 62.9927 84.0264 63.337 84.1884C63.6814 84.3504 64.055 84.441 64.4353 84.4546C64.829 84.4484 65.2176 84.3637 65.5782 84.2053C65.9388 84.047 66.2642 83.8183 66.5353 83.5326L66.7833 83.2836L68.0313 84.5586C67.5969 85.1228 67.0353 85.5764 66.3923 85.8822C65.7493 86.1881 65.0431 86.3376 64.3313 86.3186C63.7017 86.3143 63.0794 86.1839 62.5012 85.935C61.9229 85.6862 61.4003 85.324 60.9643 84.8699C60.5284 84.4157 60.1878 83.8788 59.9628 83.2908C59.7378 82.7029 59.6329 82.0758 59.6543 81.4466C59.6318 80.8132 59.7361 80.1817 59.961 79.5891C60.1859 78.9966 60.5269 78.4549 60.9639 77.9959C61.401 77.5369 61.9253 77.1697 62.5061 76.9161C63.0869 76.6624 63.7125 76.5273 64.3463 76.5186L64.3433 76.5146ZM55.1803 76.5476C55.7701 76.5511 56.3557 76.648 56.9153 76.8346C57.3422 76.9705 57.7524 77.1539 58.1383 77.3816L58.5073 77.6166L57.6863 79.1586C57.2724 78.8923 56.83 78.6733 56.3673 78.5056C55.9737 78.3575 55.5577 78.2773 55.1373 78.2686C54.8041 78.2472 54.4735 78.3391 54.1993 78.5296C54.0424 78.6507 53.9325 78.8224 53.8883 79.0156L53.8683 79.2156V79.2496C53.8656 79.4098 53.9255 79.5648 54.0353 79.6816C54.1641 79.8231 54.3189 79.9385 54.4913 80.0216C54.6995 80.1324 54.917 80.2248 55.1413 80.2976L55.9043 80.5666C56.2422 80.6723 56.574 80.7965 56.8983 80.9386C57.2197 81.0744 57.5222 81.2512 57.7983 81.4646C58.0667 81.6697 58.2915 81.9264 58.4593 82.2196C58.5951 82.4582 58.6783 82.7232 58.7033 82.9966L58.7193 83.3066V83.3446C58.7299 83.7918 58.6411 84.2359 58.4593 84.6446C58.297 84.9999 58.0555 85.3132 57.7533 85.5606C57.4315 85.8091 57.0672 85.9972 56.6783 86.1156C56.2492 86.239 55.8047 86.3006 55.3583 86.2986C54.6834 86.2942 54.0142 86.1752 53.3793 85.9466C52.8754 85.7667 52.3968 85.5227 51.9553 85.2206L51.5183 84.8946L52.4443 83.4336C52.8994 83.7927 53.4048 84.0831 53.9443 84.2956C54.4098 84.4867 54.9071 84.5884 55.4103 84.5956C55.7768 84.6166 56.1402 84.5183 56.4463 84.3156C56.6232 84.1925 56.7471 84.0071 56.7933 83.7966L56.8163 83.5766V83.5446C56.8203 83.375 56.7631 83.2096 56.6553 83.0786C56.5283 82.9353 56.3748 82.8178 56.2033 82.7326C55.9961 82.6235 55.7792 82.5341 55.5553 82.4656C55.3103 82.3866 55.0553 82.3096 54.7913 82.2246C54.4524 82.1287 54.1186 82.0155 53.7913 81.8856C53.4644 81.7632 53.1577 81.5927 52.8813 81.3796C52.6102 81.1702 52.3857 80.9066 52.2223 80.6056C52.0863 80.3532 52.0039 80.0754 51.9803 79.7896L51.9643 79.4636V79.4306C51.9563 79.017 52.0414 78.6069 52.2133 78.2306C52.3721 77.8835 52.606 77.5761 52.8983 77.3306C53.2009 77.0754 53.5504 76.8818 53.9273 76.7606C54.3314 76.6256 54.7543 76.5554 55.1803 76.5526V76.5476ZM80.4883 76.7096L82.9203 83.6186L85.3713 76.7096H87.5523L83.8473 86.1776H81.9803L78.2563 76.7096H80.4883ZM33.6503 76.1846C34.6408 76.1475 35.6198 76.4073 36.4616 76.9307C37.3034 77.4541 37.9695 78.2172 38.3745 79.1219C38.7794 80.0267 38.9047 81.0318 38.7342 82.0083C38.5637 82.9847 38.1052 83.8879 37.4177 84.6019C36.7301 85.3159 35.8448 85.8081 34.8755 86.0153C33.9062 86.2225 32.897 86.1352 31.9777 85.7647C31.0583 85.3941 30.2707 84.7572 29.7159 83.9358C29.1611 83.1143 28.8646 82.1458 28.8643 81.1546C28.8418 79.8612 29.3337 78.6118 30.2318 77.6808C31.1299 76.7499 32.3609 76.2135 33.6543 76.1896L33.6503 76.1846ZM50.0983 76.7096V86.1096H48.0293V76.7096H50.0983ZM100.133 76.7096V78.2626C100.775 77.516 101.65 77.0082 102.617 76.8216L102.917 76.7606L103.626 78.5606C102.923 78.6221 102.248 78.8711 101.674 79.2818C101.099 79.6925 100.645 80.2498 100.359 80.8956C100.232 81.2762 100.161 81.6734 100.148 82.0746L100.136 82.5326V86.1106H98.0643V76.7106L100.133 76.7096ZM40.4523 73.5866C41.283 73.5655 42.1096 73.711 42.8833 74.0143C43.6569 74.3177 44.3621 74.7729 44.9571 75.353C45.5521 75.9331 46.025 76.6265 46.3479 77.3922C46.6707 78.158 46.8371 78.9806 46.8371 79.8116C46.8371 80.6426 46.6707 81.4652 46.3479 82.231C46.025 82.9967 45.5521 83.6901 44.9571 84.2702C44.3621 84.8503 43.6569 85.3055 42.8833 85.6088C42.1096 85.9122 41.283 86.0576 40.4523 86.0366H36.8073C37.5512 85.5226 38.1643 84.8414 38.5973 84.0476H40.4513C41.5628 84.0305 42.623 83.577 43.403 82.7849C44.183 81.9928 44.6202 80.9258 44.6202 79.8141C44.6202 78.7024 44.183 77.6354 43.403 76.8433C42.623 76.0512 41.5628 75.5977 40.4513 75.5806H38.0913V77.4086C37.745 76.9632 37.3373 76.5693 36.8803 76.2386C36.5988 76.0347 36.2972 75.8601 35.9803 75.7176V73.5866H40.4523ZM73.3263 78.4076C72.939 78.4002 72.5551 78.4805 72.2033 78.6426C71.8749 78.7983 71.5808 79.0179 71.3383 79.2886C71.0945 79.562 70.9075 79.8812 70.7883 80.2276C70.6608 80.6033 70.5972 80.9978 70.6003 81.3946V81.4316C70.5986 81.8269 70.6688 82.2193 70.8073 82.5896C70.9354 82.9462 71.1298 83.2753 71.3803 83.5596C71.6219 83.8364 71.9181 84.0604 72.2503 84.2176C72.597 84.3797 72.9755 84.4627 73.3583 84.4606C73.7377 84.4672 74.114 84.3907 74.4607 84.2365C74.8074 84.0822 75.1162 83.8539 75.3653 83.5676C75.609 83.2897 75.7949 82.9661 75.9123 82.6156C76.0389 82.2465 76.1028 81.8588 76.1013 81.4686V81.4326C76.1023 81.0322 76.0325 80.6347 75.8953 80.2586C75.7669 79.9061 75.5736 79.5808 75.3253 79.2996C75.0788 79.026 74.7812 78.8032 74.4493 78.6436C74.0974 78.4815 73.7136 78.4008 73.3263 78.4076ZM92.1583 78.2826C91.8597 78.275 91.5631 78.3322 91.2887 78.4503C91.0144 78.5684 90.769 78.7445 90.5693 78.9666C90.1394 79.3806 89.8704 79.9338 89.8103 80.5276H94.4553C94.425 80.2688 94.3506 80.0172 94.2353 79.7836C94.1263 79.4956 93.9698 79.2278 93.7723 78.9916C93.5792 78.7717 93.3435 78.5934 93.0793 78.4676C92.7892 78.3403 92.475 78.2772 92.1583 78.2826ZM11.1803 0.558594V23.9196L11.2253 23.8546C11.6913 23.1956 15.8093 17.7606 24.8473 17.7606C36.4363 17.8296 39.8223 25.9776 39.9613 34.7286V35.2996V49.9536C39.9613 51.0086 40.1263 53.2666 42.7253 53.2666C44.4673 53.2666 45.7143 51.8036 46.4343 50.6356L46.6033 50.3506L46.8033 50.6836C46.3432 49.3036 46.0626 47.8702 45.9683 46.4186C45.7215 42.805 46.6779 39.2114 48.6883 36.1986C50.8019 33.1186 53.7631 30.7173 57.2133 29.2856C55.6357 26.7599 54.6868 23.8928 54.4463 20.9246C54.3304 19.1701 54.5649 17.41 55.1362 15.7471C55.7074 14.0841 56.604 12.5515 57.7736 11.2386C58.9432 9.92564 60.3624 8.85865 61.9486 8.0998C63.5347 7.34095 65.2561 6.90542 67.0123 6.81859C73.7883 6.39759 80.2333 10.8576 80.7123 18.4036C81.0783 24.2036 77.6753 28.6386 70.3683 32.0496C74.3013 37.3046 74.9153 38.1496 78.8243 43.0046C78.8243 43.0046 81.5623 39.6576 81.7643 33.2156L81.7763 32.4586H90.8023C90.0903 38.9586 89.0623 44.8046 84.8433 49.6466C84.8433 49.6466 87.7093 52.9466 94.6433 52.6026L95.4023 52.5506V0.680593H105.78V23.9966C105.78 23.9966 109.816 17.8486 119.417 17.8486C130.981 17.9176 134.361 26.0486 134.5 34.7816V35.3516V49.9776C134.5 51.0306 134.665 53.2776 137.255 53.2776C138.492 53.2664 139.706 52.95 140.791 52.3566L141.214 52.1166V60.8716C139.112 61.8516 136.82 62.356 134.5 62.3486C125.818 62.3486 123.838 56.5606 123.735 52.7056V52.3806V37.9046C123.729 34.2916 123.361 31.4046 122.194 29.3146C121.648 28.3315 120.848 27.5129 119.878 26.9441C118.908 26.3753 117.803 26.0771 116.678 26.0806L116.113 26.0656H116.041C114.662 25.9769 113.282 26.215 112.012 26.7605C110.743 27.3059 109.62 28.1433 108.735 29.2046C107.135 31.2236 106.286 34.1866 106.18 38.2126L106.169 39.0916V61.2516H90.6213C86.1642 61.3058 81.8347 59.7639 78.4153 56.9046C75.0343 60.2198 70.5201 62.1267 65.7863 62.2396C59.6953 62.6206 54.6643 60.7566 51.1863 57.5396L50.7003 57.0706C49.4117 58.6888 47.7808 60.0017 45.9248 60.9151C44.0688 61.8285 42.0336 62.3198 39.9653 62.3536C31.2553 62.3536 29.2773 56.5466 29.1763 52.6846V52.3676V37.8586C29.1683 34.2396 28.8003 31.3446 27.6303 29.2526C27.0828 28.2681 26.2813 27.4485 25.3094 26.879C24.3375 26.3095 23.2307 26.011 22.1043 26.0146L21.5373 25.9996H21.4663C20.0849 25.9112 18.7022 26.1496 17.4302 26.6955C16.1582 27.2414 15.0328 28.0794 14.1453 29.1416C12.5453 31.1666 11.6913 34.1356 11.5853 38.1686L11.5743 39.0496V61.2516H0.780273V0.558594H11.1803ZM62.0883 36.6346C57.0783 39.6596 55.4053 42.3186 55.6033 45.4936C55.8393 49.2276 59.1743 53.8816 65.5533 53.4836C68.2503 53.3201 70.823 52.2924 72.8903 50.5526C67.8603 44.4086 66.7313 42.9656 62.0883 36.6346ZM67.8663 14.7516L67.5913 14.7576C67.0042 14.7874 66.4296 14.938 65.9035 15.2001C65.3773 15.4622 64.9109 15.8301 64.5336 16.2808C64.1562 16.7315 63.8759 17.2553 63.7104 17.8193C63.5448 18.3833 63.4974 18.9754 63.5713 19.5586C63.8724 21.6953 64.631 23.7418 65.7953 25.5586C69.7423 23.4776 72.2203 22.1266 72.0053 18.7146C71.9642 17.698 71.5484 16.7326 70.8379 16.0044C70.1274 15.2762 69.1725 14.8367 68.1573 14.7706L67.8663 14.7516Z" fill="white"/>
</svg>
