<svg width="210" height="210" viewBox="0 0 210 210" fill="none" xmlns="http://www.w3.org/2000/svg">
<path d="M202 0H8C3.58172 0 0 3.58172 0 8V202C0 206.418 3.58172 210 8 210H202C206.418 210 210 206.418 210 202V8C210 3.58172 206.418 0 202 0Z" fill="none"/>
<path d="M34.7549 125.171H63.5239V84.0586H34.7549V125.171ZM59.4169 121.064H38.8619V88.1656H59.4169V121.064Z" fill="white"/>
<path d="M82.587 102.514H80.813C78.48 99.2245 76.17 95.9585 73.86 92.2485H73.836V102.514H71.876V88.1885H73.649C75.982 91.4555 78.292 94.6985 80.579 98.3885H80.626V88.1885H82.586V102.514H82.587Z" fill="white"/>
<path d="M87.2528 96.8445C87.8128 94.9775 88.3958 93.2275 88.9098 91.0115H88.9568C89.5398 93.2285 90.0298 94.9545 90.5668 96.8445H87.2528ZM88.1858 88.1885L83.2388 102.488H85.3618L86.5988 98.5885H90.9148L92.0348 102.488H94.7648L90.2148 88.1885H88.1858Z" fill="white"/>
<path d="M97.1018 102.514V90.1245H93.3428V88.1885H103.302V90.1245H99.5488V102.514H97.1018Z" fill="white"/>
<path d="M104.099 102.514V88.1885H106.549V102.514H104.099Z" fill="white"/>
<path d="M114.109 100.694C111.542 100.694 110.656 97.8707 110.656 95.1407C110.656 92.5037 111.683 89.9847 114.109 89.9847C116.535 89.9847 117.562 92.5047 117.562 95.1407C117.562 97.8937 116.657 100.694 114.109 100.694ZM114.109 102.747C117.842 102.747 120.175 99.4097 120.175 95.1407C120.175 91.1277 117.585 87.9307 114.109 87.9307C110.609 87.9307 108.043 91.1307 108.043 95.1407C108.019 99.4117 110.357 102.749 114.109 102.749V102.747Z" fill="white"/>
<path d="M132.378 102.514H130.605C128.272 99.2245 125.962 95.9585 123.652 92.2485H123.628V102.514H121.667V88.1885H123.44C125.773 91.4555 128.083 94.6985 130.37 98.3885H130.416V88.1885H132.376V102.514H132.378Z" fill="white"/>
<path d="M137.045 96.8445C137.628 94.9775 138.188 93.2275 138.701 91.0115H138.748C139.331 93.2285 139.821 94.9545 140.358 96.8445H137.045ZM137.978 88.1885L133.032 102.488H135.155L136.391 98.5885H140.709L141.829 102.488H144.582L140.009 88.1885H137.978Z" fill="white"/>
<path d="M145.281 88.1885H147.73V100.578H152.56V102.515H145.281V88.1885Z" fill="white"/>
<path d="M81.0699 114.485V120.385C79.7834 120.931 78.4066 121.232 77.0099 121.272C72.8099 121.272 70.1499 118.005 70.1499 113.806C70.1499 109.906 72.8099 106.48 77.1029 106.48C78.3464 106.488 79.5585 106.871 80.5799 107.58L79.7879 109.285C78.9985 108.809 78.0967 108.551 77.1749 108.538C74.5619 108.538 72.7889 110.591 72.7889 113.858C72.7889 117.241 74.8419 119.248 76.9419 119.248C77.5372 119.271 78.1292 119.151 78.6689 118.898V114.507H81.0689L81.0699 114.485Z" fill="white"/>
<path d="M89.8431 108.629H85.7601V112.552H89.7501V114.489H85.7601V119.089H90.5671V121.026H83.3101V106.726H89.8431V108.629Z" fill="white"/>
<path d="M97.4019 119.222C94.8349 119.222 93.9489 116.399 93.9489 113.669C93.9489 111.032 94.9759 108.513 97.4019 108.513C99.8279 108.513 100.855 111.033 100.855 113.669C100.856 116.398 99.9689 119.222 97.4019 119.222ZM97.4019 121.252C101.135 121.252 103.469 117.915 103.469 113.646C103.469 109.633 100.902 106.436 97.4019 106.436C93.9019 106.436 91.3359 109.636 91.3359 113.646C91.3359 117.938 93.6689 121.251 97.4019 121.251V121.252Z" fill="white"/>
<path d="M115.252 114.485V120.385C113.966 120.931 112.589 121.232 111.192 121.272C106.992 121.272 104.332 118.005 104.332 113.806C104.332 109.906 106.992 106.48 111.285 106.48C112.529 106.488 113.741 106.871 114.762 107.58L113.969 109.28C113.18 108.804 112.278 108.546 111.356 108.533C108.743 108.533 106.969 110.586 106.969 113.853C106.969 117.236 109.022 119.243 111.122 119.243C111.717 119.266 112.309 119.146 112.849 118.893V114.507H115.249L115.252 114.485Z" fill="white"/>
<path d="M119.942 108.629H121.015C121.324 108.599 121.635 108.639 121.927 108.745C122.218 108.851 122.482 109.021 122.699 109.243C122.916 109.464 123.081 109.732 123.181 110.025C123.281 110.319 123.314 110.631 123.278 110.939C123.321 111.28 123.294 111.627 123.198 111.958C123.103 112.289 122.941 112.597 122.723 112.863C122.504 113.129 122.234 113.348 121.929 113.507C121.623 113.666 121.288 113.761 120.945 113.786C120.712 113.809 120.128 113.833 119.918 113.856V108.629H119.942ZM126.172 121.019L123.302 115.093C124.056 114.67 124.682 114.053 125.117 113.306C125.552 112.559 125.779 111.71 125.775 110.846C125.775 108.069 124.075 106.716 121.342 106.716H117.516V121.016H119.966V115.626H121.086L123.396 121.016L126.172 121.019Z" fill="white"/>
<path d="M130.207 115.352C130.791 113.485 131.351 111.735 131.864 109.519H131.91C132.494 111.736 132.983 113.462 133.52 115.352H130.207ZM131.141 106.719L126.194 121.019H128.318L129.554 117.119H133.87L134.99 121.019H137.72L133.17 106.719H131.141Z" fill="white"/>
<path d="M142.341 106.714H138.514V121.014H140.964V115.624H142.064C142.689 115.626 143.308 115.503 143.886 115.263C144.463 115.022 144.986 114.669 145.425 114.223C145.864 113.778 146.21 113.249 146.442 112.668C146.674 112.088 146.788 111.467 146.777 110.841C146.798 108.068 145.094 106.714 142.341 106.714ZM142.014 113.784C141.757 113.807 141.175 113.831 140.988 113.831V108.631H142.088C142.395 108.604 142.704 108.645 142.993 108.753C143.283 108.86 143.544 109.031 143.759 109.252C143.973 109.473 144.136 109.74 144.234 110.032C144.333 110.325 144.365 110.635 144.328 110.941C144.37 111.281 144.343 111.626 144.248 111.955C144.154 112.284 143.994 112.591 143.777 112.857C143.561 113.122 143.294 113.341 142.99 113.501C142.687 113.66 142.355 113.757 142.014 113.784V113.784Z" fill="white"/>
<path d="M158.16 121.018H155.687V114.135H150.598V121.018H148.171V106.718H150.598V112.201H155.684V106.741H158.157L158.16 121.018Z" fill="white"/>
<path d="M160.494 121.018V106.718H162.944V121.018H160.494Z" fill="white"/>
<path d="M173.98 109.305C173.225 108.821 172.355 108.547 171.46 108.512C168.96 108.512 167.144 110.565 167.144 113.832C167.144 117.215 169.15 119.222 171.507 119.222C172.375 119.22 173.226 118.969 173.956 118.499L174.633 120.272C173.671 120.89 172.556 121.229 171.413 121.252C167.213 121.252 164.553 117.985 164.553 113.762C164.553 109.862 167.189 106.436 171.459 106.436C172.638 106.479 173.78 106.861 174.749 107.536L173.98 109.305Z" fill="white"/>
</svg>
