<svg width="210" height="210" viewBox="0 0 210 210" fill="none" xmlns="http://www.w3.org/2000/svg">
<path d="M202 0H8C3.58172 0 0 3.58172 0 8V202C0 206.418 3.58172 210 8 210H202C206.418 210 210 206.418 210 202V8C210 3.58172 206.418 0 202 0Z" fill="none"/>
<path d="M58.9483 152.319C58.7853 152.056 61.1903 140.07 61.6083 139.057C61.7783 138.646 62.0903 138.531 63.4083 138.393C68.239 138.016 72.8919 136.405 76.9213 133.713C79.3152 131.829 81.4252 129.609 83.1863 127.122C85.298 123.636 87.0223 119.929 88.3283 116.068C90.0543 110.831 92.8893 98.9174 92.5933 98.1464C92.5013 97.9064 91.1183 97.8464 86.0563 97.8464C83.8678 97.7614 81.676 97.836 79.4983 98.0694C79.531 98.6309 79.6827 99.179 79.9433 99.6774C81.2553 102.795 81.5903 104.672 81.5773 108.829C81.5633 113.075 81.2773 114.568 79.8303 118.051C78.1568 121.796 75.5934 125.075 72.3633 127.603C67.5935 131.108 61.7047 132.742 55.8113 132.196C51.53 131.745 47.4527 130.135 44.0175 127.541C40.5822 124.946 37.9187 121.465 36.3133 117.47C35.0433 114.241 34.8633 113.189 34.8633 108.824C34.8633 105.267 34.9303 104.476 35.4023 102.748C36.4711 98.7675 38.5551 95.1322 41.4504 92.1982C44.3456 89.2642 47.9529 87.1321 51.9193 86.0104L54.0193 85.3774L74.5633 85.1964C90.4563 85.0584 95.1433 84.9534 95.2813 84.7294C95.4477 84.3124 95.5587 83.8753 95.6113 83.4294C96.3515 79.4149 97.3197 75.4458 98.5113 71.5414C100.228 67.3172 103.115 63.6709 106.833 61.0314C111.03 58.3387 116.012 57.1388 120.975 57.6254C125.361 58.0303 129.506 59.8119 132.817 62.7154C134.044 63.7474 136.388 66.6524 136.392 67.1464C136.392 67.4024 126.999 73.3314 124.925 74.3834C124.469 74.1392 124.058 73.8182 123.711 73.4344C123.017 72.7924 122.197 72.3011 121.303 71.9913C120.409 71.6815 119.461 71.56 118.518 71.6344C117.227 71.6156 115.955 71.9488 114.838 72.5984C113.722 73.248 112.804 74.1894 112.182 75.3214C111.114 78.058 110.333 80.8983 109.852 83.7964L109.694 84.9964L121.932 84.9354L134.17 84.8744L135.042 80.7034C136.265 74.8554 136.96 72.3784 138.002 70.1554C140 65.5991 143.559 61.9065 148.039 59.7434C150.953 58.2875 154.169 57.5424 157.426 57.5694C161.404 57.4346 165.334 58.4726 168.726 60.5544C171.437 62.1544 175.457 66.4104 175.112 67.3084C173.266 68.6731 171.344 69.9315 169.354 71.0774L163.719 74.5214L162.657 73.5424C162.011 72.88 161.229 72.3662 160.365 72.0365C159.5 71.7069 158.574 71.5693 157.651 71.6334C156.256 71.5671 154.872 71.9105 153.669 72.6213C152.466 73.332 151.498 74.3791 150.883 75.6334C150.131 77.1084 148.309 84.5984 148.626 84.9144C148.692 84.9814 152.026 85.0934 156.026 85.1644C161.026 85.2524 163.337 85.3744 163.405 85.5514C163.174 87.3272 162.851 89.0898 162.438 90.8324C161.852 93.5944 161.31 96.1694 161.238 96.5554C160.975 97.8774 161.196 97.8404 153.57 97.8404C148.196 97.8404 146.443 97.9104 146.264 98.1324C146.002 98.7883 145.827 99.4759 145.745 100.177C144.12 110.221 141.47 120.436 138.875 126.666C132.788 141.273 122.133 149.766 107.185 151.911C102.871 152.531 102.198 152.569 101.715 152.211C101.284 151.896 101.315 151.698 102.639 145.405C103.392 141.84 104.118 138.772 104.254 138.586C105.007 138.187 105.824 137.923 106.667 137.805C113.891 136.325 118.836 133.114 122.631 127.44C125.592 123.013 127.255 118.873 129.265 110.921C130.304 106.821 131.109 102.666 131.678 98.4744L131.604 97.9514L119.541 97.8964C110.069 97.8494 107.427 97.8964 107.241 98.1304C106.733 99.8381 106.326 101.575 106.023 103.33C104.205 112.457 101.723 121.139 99.4233 126.465C92.2513 143.018 79.9179 151.677 62.4233 152.442C60.0233 152.55 59.0833 152.516 58.9593 152.316L58.9483 152.319ZM60.4193 119.346C62.7817 118.852 64.9111 117.582 66.4689 115.739C68.0268 113.896 68.9237 111.584 69.0171 109.172C69.1104 106.761 68.3949 104.387 66.9843 102.429C65.5737 100.47 63.5488 99.0396 61.2317 98.3642C58.9146 97.6887 56.4382 97.8073 54.1962 98.7009C51.9542 99.5945 50.0753 101.212 48.8581 103.296C47.6409 105.38 47.1554 107.812 47.4787 110.203C47.802 112.595 48.9155 114.81 50.6423 116.496C51.9111 117.74 53.4677 118.65 55.1735 119.147C56.8793 119.643 58.6814 119.71 60.4193 119.341V119.346ZM48.7553 81.8804C45.4133 80.1134 46.2263 74.2214 50.0673 72.3614C52.2303 71.3144 56.0083 71.9814 56.0083 73.4104C56.0083 74.2504 55.1823 74.4224 54.4503 73.7354C54.2099 73.5145 53.9223 73.3513 53.6093 73.2584C53.2963 73.1656 52.9663 73.1454 52.6443 73.1994C51.9569 73.1912 51.2781 73.3522 50.6677 73.6684C50.0573 73.9846 49.5341 74.4462 49.1443 75.0124C48.851 75.3504 48.6283 75.7437 48.4894 76.1691C48.3505 76.5946 48.2981 77.0435 48.3353 77.4894C48.2233 79.4674 48.6543 80.4314 49.8803 80.9434C50.4633 81.1624 51.0891 81.2432 51.7086 81.1793C52.328 81.1155 52.9242 80.9088 53.4503 80.5754C54.7863 79.5874 55.7273 80.3204 54.5503 81.4274C54.0968 81.8114 53.5689 82.0977 52.9997 82.2682C52.4305 82.4387 51.8322 82.4899 51.2423 82.4184C50.3799 82.4676 49.5203 82.2816 48.7553 81.8804V81.8804ZM55.5413 81.7974C56.4207 80.0572 57.4107 78.3751 58.5053 76.7614C61.3793 72.2534 61.4903 72.1154 62.1853 72.1834L62.9023 72.2534L63.8893 76.9274C64.282 78.5688 64.5749 80.2326 64.7663 81.9094C64.7063 82.0794 64.4203 82.1844 64.1303 82.1434C63.7303 82.0864 63.5173 81.7954 63.2303 80.9004L62.8633 79.7314L61.0133 79.6624C60.2294 79.6152 59.4429 79.6343 58.6623 79.7194C58.1386 80.0361 57.707 80.4843 57.4103 81.0194C56.8523 81.8894 56.5153 82.1894 56.0993 82.1894C55.7333 82.1894 55.5393 82.0554 55.5393 81.8014L55.5413 81.7974ZM62.4503 78.1884C62.4768 76.8851 62.2737 75.5873 61.8503 74.3544C61.6133 74.2084 59.2503 77.9684 59.4133 78.2324C60.4066 78.5243 61.465 78.5086 62.4493 78.1874L62.4503 78.1884ZM66.3633 81.8044C66.6198 78.8471 67.0718 75.91 67.7163 73.0124C67.9213 72.2224 68.0163 72.1364 68.7163 72.1364C69.4843 72.1364 69.5003 72.1604 71.3163 75.9364C72.7753 78.9734 73.1773 79.6364 73.3273 79.2664C73.4273 79.0094 73.7353 77.4854 74.0053 75.8784C74.2753 74.2714 74.5503 72.7784 74.6173 72.5484C74.7533 72.0874 75.7833 71.9804 75.9273 72.4124C76.0273 72.7014 74.8423 79.8124 74.4473 81.3254C74.2323 82.1464 74.1563 82.2104 73.4673 82.1434C72.7513 82.0744 72.6443 81.9164 70.8843 78.3324C69.3943 75.2994 69.0113 74.6814 68.8543 75.0614C68.7473 75.3184 68.4303 76.8954 68.1483 78.5664C67.9987 79.6962 67.7494 80.8106 67.4033 81.8964C67.3481 81.9902 67.2676 82.0665 67.171 82.1165C67.0743 82.1665 66.9655 82.1882 66.8571 82.179C66.7487 82.1698 66.645 82.1301 66.5582 82.0645C66.4714 81.999 66.4048 81.9102 66.3663 81.8084L66.3633 81.8044ZM75.5453 81.9904C77.339 78.7416 79.3017 75.5889 81.4253 72.5454C81.8103 72.1094 82.7663 71.9924 82.9893 72.3534C83.7939 75.4972 84.4242 78.6831 84.8773 81.8964C84.6533 82.4804 83.7253 82.1254 83.5003 81.3684C82.9503 79.5214 83.0933 79.6154 80.8423 79.6194C80.0714 79.5844 79.299 79.6432 78.5423 79.7944C78.1678 80.188 77.8329 80.6174 77.5423 81.0764C76.9953 81.8764 76.6333 82.1864 76.2283 82.1864C75.9856 82.2091 75.7433 82.1398 75.5493 81.9924L75.5453 81.9904ZM82.7343 78.2624C82.6579 76.9244 82.3731 75.6066 81.8903 74.3564C80.9163 75.5367 80.1192 76.8525 79.5243 78.2624C80.5809 78.502 81.6777 78.502 82.7343 78.2624V78.2624ZM86.4703 81.8314C86.8019 78.6741 87.2996 75.5364 87.9613 72.4314C88.0223 72.2704 88.3243 72.1394 88.6323 72.1394C89.3663 72.1394 89.3633 72.7084 88.6053 76.7904C87.7603 81.3364 87.6683 81.0184 89.8343 81.0224C91.7903 81.0224 92.3793 81.2224 92.1543 81.8134C91.9463 82.3544 86.6783 82.3724 86.4713 81.8334L86.4703 81.8314Z" fill="white"/>
</svg>
