<svg width="210" height="210" viewBox="0 0 210 210" fill="none" xmlns="http://www.w3.org/2000/svg">
<path d="M202 0H8C3.58172 0 0 3.58172 0 8V202C0 206.418 3.58172 210 8 210H202C206.418 210 210 206.418 210 202V8C210 3.58172 206.418 0 202 0Z" fill="none"/>
<path d="M154.139 78.8691H159.647C162.967 78.8691 165.093 80.5911 165.093 83.5881C165.139 84.3124 165.029 85.0381 164.771 85.7164C164.513 86.3947 164.112 87.0096 163.596 87.5198C163.08 88.03 162.46 88.4236 161.779 88.6739C161.098 88.9243 160.371 89.0256 159.647 88.9711H154.139V78.8691ZM163.639 95.5381C166.523 95.1592 169.171 93.7443 171.089 91.5572C173.007 89.3701 174.064 86.56 174.063 83.6511C174.063 75.5511 168.555 71.1001 159.656 71.1001H145.312V111.885H154.15V95.5381L165.113 111.875H175.341L163.639 95.5381Z" fill="white"/>
<path d="M74.3034 111.874H83.2754V79.1291H92.2374V71.1001H65.3374V79.1281H74.2994L74.3034 111.874Z" fill="white"/>
<path d="M48.7342 86.1071C46.0792 84.9141 45.0832 83.5861 45.0832 81.8541C45.0832 79.8631 46.7432 78.2031 49.3982 78.2651C51.7212 78.3271 53.5162 79.5931 54.7812 82.5801L62.4152 79.1881C60.2892 73.7421 55.9742 70.5581 49.0032 70.5581C41.6282 70.5581 36.1832 75.4121 36.1832 81.9161C36.1832 86.3661 38.3722 89.8821 43.5582 92.4751L49.2732 95.3271C52.4572 96.9271 53.9922 98.1171 53.9922 100.441C53.9809 101.039 53.8481 101.629 53.6017 102.174C53.3554 102.719 53.0007 103.208 52.5592 103.612C52.1177 104.016 51.5988 104.325 51.0338 104.522C50.4689 104.719 49.8699 104.798 49.2732 104.756C46.4212 104.756 43.8272 103.156 42.6352 99.5801L34.6592 101.916C36.5162 108.627 42.0342 112.548 49.2012 112.548C56.9702 112.548 62.9442 107.569 62.9442 100.391C62.9442 94.8831 59.9572 91.2221 54.2442 88.6391L48.7342 86.1071Z" fill="white"/>
<path d="M57.5512 133.159C57.1704 132.717 56.6945 132.367 56.1592 132.135C55.6238 131.903 55.043 131.796 54.4602 131.821C51.7422 131.821 49.7412 134.03 49.7412 137.069C49.7412 140.108 51.7412 142.318 54.3462 142.318C55.0094 142.337 55.6665 142.186 56.2548 141.879C56.8432 141.572 57.3431 141.12 57.7072 140.565L60.7072 142.795C60.0236 143.704 59.1315 144.436 58.1059 144.929C57.0803 145.422 55.9514 145.661 54.8142 145.626C49.7212 145.626 46.0142 142.286 46.0142 137.058C46.0142 131.83 49.7142 128.49 54.8142 128.49C55.8526 128.457 56.8853 128.656 57.8378 129.071C58.7903 129.486 59.6388 130.107 60.3222 130.89L57.5512 133.159Z" fill="white"/>
<path d="M64.0542 128.916H67.6432V134.99H74.6242V128.916H78.2132V145.222H74.6242V138.179H67.6432V145.222H64.0542V128.916Z" fill="white"/>
<path d="M88.2854 128.916H91.2514L98.3464 145.222H94.2914L92.8914 141.768H86.5534L85.1944 145.222H81.2324L88.2854 128.916ZM89.6644 133.667L87.6854 138.739H91.6684L89.6644 133.667Z" fill="white"/>
<path d="M101.364 128.916H106.249L113.182 140.243H113.223V128.916H116.812V145.222H112.112L104.994 133.615H104.953V145.222H101.364V128.916Z" fill="white"/>
<path d="M121.518 128.916H126.393L133.322 140.243H133.364V128.916H136.974V145.222H132.274L125.148 133.615H125.107V145.222H121.518V128.916Z" fill="white"/>
<path d="M141.806 128.916H152.885V132.235H145.396V135.274H152.47V138.59H145.396V141.909H153.296V145.228H141.806V128.916Z" fill="white"/>
<path d="M157.697 128.916H161.285V141.903H167.944V145.222H157.697V128.916Z" fill="white"/>
<path d="M142.921 84.049H122.221L115.821 64.377L109.411 84.049H88.7212L105.328 96.237C110.853 92.7919 116.92 90.3036 123.273 88.877C114.889 94.9481 107.36 102.121 100.889 110.201V110.201L99.0702 115.92L115.821 103.771L132.565 115.919L126.184 96.237L142.921 84.049Z" fill="url(#paint0_linear_1_213)"/>
<defs>
<linearGradient id="paint0_linear_1_213" x1="96.9054" y1="113.704" x2="132.85" y2="73.9628" gradientUnits="userSpaceOnUse">
<stop offset="0.28" stop-color="white"/>
<stop offset="0.78" stop-color="white"/>
</linearGradient>
</defs>
</svg>
