<svg width="142" height="45" viewBox="0 0 142 45" fill="none" xmlns="http://www.w3.org/2000/svg">
<path d="M0.850586 36.1924V36.2024C0.850586 41.3774 3.97459 44.4964 9.31059 44.4964C12.6559 44.4854 15.9795 43.9592 19.1646 42.9364L17.3646 36.1924H0.850586Z" fill="white"/>
<path d="M0.850586 19.5571V34.7571H10.4326C10.1672 34.53 9.95716 34.2453 9.81852 33.9247C9.67988 33.6041 9.61628 33.256 9.63259 32.9071V19.5571H0.850586Z" fill="white"/>
<path d="M0.850586 18.117V3.13098L9.63759 0.333984V10.747H17.9296V18.117H0.850586Z" fill="white"/>
<path d="M29.6214 10.7461H20.7544V18.1161H29.6214V10.7461Z" fill="white"/>
<path d="M21.5186 36.1924C22.3033 38.6079 23.8404 40.709 25.9048 42.1884C27.9693 43.6677 30.453 44.4478 32.9926 44.4144C36.6846 44.4144 39.3926 43.3484 41.5276 40.7994V43.5914H50.3996V36.1914L21.5186 36.1924Z" fill="white"/>
<path d="M29.6215 30.0421V19.5571H20.7545V31.2771C20.7507 32.4467 20.8737 33.6131 21.1215 34.7561H31.2795C30.686 34.132 30.2314 33.3892 29.9456 32.5767C29.6598 31.7642 29.5494 30.9004 29.6215 30.0421Z" fill="white"/>
<path d="M50.3987 19.5571H41.5267V29.6301C41.582 30.6398 41.3688 31.646 40.9087 32.5464C40.4487 33.4469 39.7582 34.2093 38.9077 34.7561H50.3977L50.3987 19.5571Z" fill="white"/>
<path d="M41.5278 10.7461H50.3948V18.1161H41.5278V10.7461Z" fill="white"/>
<path d="M53.5186 19.5571V34.7571H62.6335V25.3651C62.5777 24.2443 62.8321 23.1298 63.3689 22.1443C63.9056 21.1587 64.7037 20.3403 65.6756 19.7791L66.0495 19.5571H53.5186Z" fill="white"/>
<path d="M53.5186 43.5904H62.6335V36.1904H53.5186V43.5904Z" fill="white"/>
<path d="M53.5186 18.116V10.746H62.5515V14.031C65.2635 10.664 68.8745 9.75903 72.6516 10.252V18.116H53.5186Z" fill="white"/>
<path d="M75.5854 36.1924V43.5924H84.2935V40.8874C85.254 42.0131 86.451 42.9131 87.7993 43.5231C89.1475 44.1331 90.6138 44.4381 92.0935 44.4164C98.1935 44.4164 103.256 41.9214 105.786 36.1944L75.5854 36.1924Z" fill="white"/>
<path d="M87.0195 19.5571H75.5854V34.7571H87.1135C85.3295 33.3731 84.1765 30.9061 84.1765 27.1691C84.1765 23.2291 85.3105 20.8561 87.0195 19.5581" fill="white"/>
<path d="M105.904 18.117C104.866 15.5189 103.056 13.3015 100.719 11.7638C98.3811 10.2261 95.6284 9.4419 92.8315 9.51698C91.2492 9.48461 89.6768 9.77358 88.2094 10.3664C86.7421 10.9592 85.4102 11.8436 84.2945 12.966V0.333984H75.5854V18.117H105.904Z" fill="white"/>
<path d="M95.8237 19.5571H106.456C107.191 21.8573 107.552 24.2605 107.527 26.6751C107.575 29.4146 107.179 32.1438 106.353 34.7561H95.6997C97.4857 33.3511 98.6557 30.7561 98.6557 26.5131C98.6557 23.2671 97.6217 20.9131 95.8237 19.5571Z" fill="white"/>
<path d="M125.302 44.8254C128.204 44.8958 131.063 44.1161 133.527 42.5822C135.992 41.0483 137.953 38.8272 139.171 36.1924H111.401C112.656 38.8056 114.63 41.0063 117.093 42.5357C119.555 44.065 122.403 44.8594 125.301 44.8254" fill="white"/>
<path d="M125.303 9.26825C122.362 9.2538 119.478 10.0789 116.99 11.6465C114.502 13.2142 112.513 15.4594 111.257 18.1183H139.297C138.054 15.4597 136.075 13.2131 133.595 11.6449C131.115 10.0767 128.236 9.25257 125.302 9.27026" fill="white"/>
<path d="M118.239 27.1681C118.239 23.2281 119.339 20.8551 120.996 19.5571H110.628C109.782 21.8058 109.356 24.1907 109.372 26.5931C109.331 29.3772 109.805 32.1448 110.772 34.7561H121.084C119.358 33.3721 118.238 30.9051 118.238 27.1681" fill="white"/>
<path d="M129.534 19.5571H139.921C140.748 21.7825 141.164 24.1393 141.149 26.5131C141.19 29.3209 140.725 32.1131 139.776 34.7561H129.417C131.147 33.3511 132.279 30.7561 132.279 26.5131C132.279 23.2671 131.279 20.9131 129.534 19.5571Z" fill="white"/>
<path d="M70.0087 7.47315H68.4307V4.64815L65.6807 0.306152H67.5187L69.2307 3.18615L70.9727 0.306152H72.7617L70.0097 4.61815L70.0087 7.47315Z" fill="white"/>
<path d="M59.5024 0.306152V7.47315H61.0784V5.18615H62.3224L63.8544 7.47815H65.6974L63.9504 4.92015C64.4164 4.76843 64.8195 4.46736 65.0971 4.06352C65.3748 3.65968 65.5116 3.17559 65.4864 2.68615C65.4864 1.19915 64.4694 0.308152 62.7784 0.308152H59.5024V0.306152ZM61.0784 1.73015H62.6474C63.4164 1.73015 63.8844 2.06915 63.8844 2.76415C63.8844 3.37915 63.4474 3.78615 62.6774 3.78615H61.0774L61.0784 1.73015Z" fill="white"/>
<path d="M58.2864 1.70715H54.4444V3.16315H57.8254V4.56915H54.4444V6.06915H58.3354V7.46915H52.8804V0.306152H58.2864V1.70715Z" fill="white"/>
<path d="M50.3107 0.306152H52.0108L49.1158 7.52415H47.7218L44.8228 0.306152H46.5648L48.4398 5.35415L50.3107 0.306152Z" fill="white"/>
<path d="M40.9333 0.184247C40.2041 0.202549 39.4965 0.435593 38.8991 0.854197C38.3017 1.2728 37.8411 1.85835 37.5749 2.53753C37.3087 3.2167 37.2489 3.95931 37.4028 4.67234C37.5567 5.38538 37.9176 6.03715 38.4403 6.54604C38.9629 7.05492 39.6241 7.3983 40.341 7.53317C41.0579 7.66804 41.7986 7.5884 42.4704 7.30423C43.1423 7.02006 43.7153 6.544 44.1179 5.93565C44.5204 5.3273 44.7345 4.61371 44.7333 3.88425C44.7324 3.39014 44.6328 2.9012 44.4402 2.44615C44.2477 1.9911 43.9661 1.57913 43.6121 1.23443C43.2581 0.889732 42.8388 0.619265 42.3787 0.438919C41.9187 0.258573 41.4273 0.171987 40.9333 0.184247ZM40.9173 1.63825C41.2097 1.6391 41.4989 1.69886 41.7677 1.81397C42.0364 1.92908 42.2793 2.09718 42.4816 2.30821C42.684 2.51925 42.8417 2.76891 42.9455 3.04227C43.0492 3.31563 43.0968 3.60709 43.0853 3.89925C43.0982 4.18933 43.052 4.479 42.9496 4.75072C42.8472 5.02243 42.6907 5.27052 42.4896 5.47996C42.2885 5.6894 42.047 5.85582 41.7796 5.96915C41.5123 6.08248 41.2247 6.14034 40.9343 6.13925C40.6423 6.13877 40.3533 6.07948 40.0847 5.96491C39.816 5.85034 39.5732 5.68283 39.3706 5.47239C39.1681 5.26194 39.0101 5.01286 38.9059 4.74001C38.8017 4.46715 38.7536 4.17611 38.7643 3.88425C38.7509 3.59374 38.7967 3.30354 38.8988 3.03125C39.0009 2.75896 39.1573 2.51026 39.3585 2.30023C39.5596 2.0902 39.8013 1.92322 40.069 1.80943C40.3366 1.69563 40.6245 1.6374 40.9153 1.63825H40.9173Z" fill="white"/>
<path d="M33.6754 7.59418C33.1888 7.60223 32.7056 7.51202 32.2547 7.32894C31.8039 7.14585 31.3946 6.87367 31.0513 6.52868C30.7081 6.18369 30.4381 5.77299 30.2573 5.32117C30.0765 4.86935 29.9888 4.3857 29.9994 3.89918C29.9896 3.40652 30.0799 2.91699 30.2647 2.46019C30.4495 2.0034 30.725 1.58884 31.0746 1.24157C31.4242 0.894309 31.8406 0.621557 32.2987 0.439811C32.7567 0.258066 33.2468 0.171103 33.7394 0.184182C34.2612 0.158414 34.7826 0.243673 35.2691 0.434328C35.7555 0.624982 36.196 0.916691 36.5614 1.29018L35.5614 2.44718C35.0813 1.94827 34.4245 1.65776 33.7324 1.63818C33.4465 1.6435 33.1646 1.70647 32.9036 1.82331C32.6426 1.94016 32.4079 2.10848 32.2135 2.31819C32.0191 2.5279 31.869 2.77468 31.7723 3.04377C31.6755 3.31285 31.634 3.5987 31.6504 3.88418C31.6328 4.17035 31.6732 4.45711 31.7692 4.72728C31.8651 4.99744 32.0147 5.24544 32.2088 5.4564C32.403 5.66736 32.6377 5.83693 32.899 5.95495C33.1603 6.07296 33.4427 6.13699 33.7294 6.14318C34.0833 6.14038 34.4328 6.0648 34.7562 5.92115C35.0796 5.77751 35.37 5.56886 35.6094 5.30818L36.6094 6.32018C36.2484 6.74138 35.7964 7.07516 35.2877 7.29636C34.779 7.51756 34.2266 7.62042 33.6724 7.59718" fill="white"/>
<path d="M26.9097 3.1843C28.3667 3.5653 29.1827 4.0843 29.1827 5.3453C29.1827 6.7783 28.0997 7.5783 26.5497 7.5783C25.4304 7.58191 24.3489 7.17324 23.5117 6.4303L24.4427 5.3123C25.0254 5.85306 25.7851 6.16305 26.5797 6.1843C27.2277 6.1843 27.6157 5.9273 27.6157 5.4993C27.6157 5.0873 27.3697 4.8843 26.1727 4.5753C24.7277 4.2063 23.7967 3.8083 23.7967 2.3753C23.8046 2.0634 23.8774 1.75658 24.0106 1.47441C24.1437 1.19225 24.3342 0.940948 24.5699 0.736557C24.8057 0.532167 25.0814 0.379178 25.3796 0.287361C25.6778 0.195543 25.9918 0.166915 26.3017 0.203303C27.2683 0.188961 28.2098 0.511394 28.9647 1.1153L28.1467 2.3033C27.6113 1.8874 26.9625 1.64336 26.2857 1.6033C25.6797 1.6033 25.3617 1.8793 25.3617 2.2343C25.3617 2.7133 25.6707 2.8683 26.9077 3.1883" fill="white"/>
<path d="M22.4447 7.47315H20.8667V0.306152H22.4447V7.47315Z" fill="white"/>
<path d="M13.0264 0.306305V7.4733H15.8264C16.3151 7.50276 16.8047 7.43192 17.2651 7.26515C17.7254 7.09837 18.1468 6.8392 18.5033 6.50355C18.8598 6.1679 19.1438 5.76288 19.338 5.31339C19.5321 4.86389 19.6323 4.37944 19.6323 3.8898C19.6323 3.40017 19.5321 2.91572 19.338 2.46622C19.1438 2.01673 18.8598 1.61171 18.5033 1.27606C18.1468 0.940413 17.7254 0.681235 17.2651 0.514463C16.8047 0.347692 16.3151 0.276854 15.8264 0.306305H13.0264ZM14.6044 1.7303H15.8224C16.1107 1.71603 16.3988 1.76246 16.6681 1.86658C16.9373 1.97071 17.1817 2.13021 17.3854 2.33476C17.5891 2.53932 17.7476 2.78436 17.8506 3.05405C17.9536 3.32373 17.9988 3.61204 17.9834 3.9003C17.9986 4.18756 17.9531 4.47481 17.8497 4.74326C17.7464 5.01171 17.5875 5.25533 17.3835 5.45817C17.1796 5.66101 16.9351 5.81851 16.6661 5.92038C16.397 6.02224 16.1095 6.06618 15.8224 6.0493H14.6044V1.7303Z" fill="white"/>
</svg>
