<svg width="54" height="30" viewBox="0 0 54 30" fill="none" xmlns="http://www.w3.org/2000/svg">
<rect y="0.257324" width="54" height="29" fill="white"/>
<path d="M33.3378 25.297C36.1352 25.297 38.8181 24.1996 40.7962 22.2461C42.7743 20.2926 43.8855 17.6432 43.8855 14.8806C43.8855 12.1179 42.7743 9.46848 40.7962 7.51502C38.8181 5.56156 36.1352 4.46411 33.3378 4.46411H19.7118C18.3267 4.46411 16.9551 4.73354 15.6754 5.25702C14.3957 5.78049 13.2329 6.54776 12.2534 7.51502C11.274 8.48227 10.497 9.63057 9.96696 10.8944C9.43689 12.1581 9.16406 13.5126 9.16406 14.8806C9.16406 16.2485 9.43689 17.603 9.96696 18.8668C10.497 20.1305 11.274 21.2788 12.2534 22.2461C13.2329 23.2134 14.3957 23.9806 15.6754 24.5041C16.9551 25.0276 18.3267 25.297 19.7118 25.297H33.3378Z" fill="#2E3192"/>
<path d="M19.7116 4.79742C21.732 4.79742 23.7071 5.38909 25.387 6.49761C27.067 7.60613 28.3763 9.18172 29.1495 11.0251C29.9227 12.8685 30.125 14.8969 29.7308 16.8539C29.3367 18.8108 28.3637 20.6084 26.9351 22.0193C25.5064 23.4302 23.6862 24.391 21.7045 24.7802C19.7229 25.1695 17.6689 24.9697 15.8023 24.2062C13.9357 23.4426 12.3402 22.1495 11.2177 20.4905C10.0952 18.8315 9.49609 16.881 9.49609 14.8858C9.5012 12.2117 10.5791 9.64864 12.4938 7.7578C14.4085 5.86697 17.0038 4.80247 19.7116 4.79742ZM21.7614 8.61679V21.1547C23.1036 20.7262 24.2737 19.8886 25.1036 18.7623C25.9336 17.6359 26.3807 16.2788 26.3807 14.8858C26.3807 13.4927 25.9336 12.1356 25.1036 11.0092C24.2737 9.88286 23.1036 9.04528 21.7614 8.61679ZM17.7989 21.2051V8.56123C16.4232 8.96914 15.2172 9.8041 14.3599 10.9423C13.5026 12.0804 13.0396 13.4612 13.0396 14.8797C13.0396 16.2982 13.5026 17.6789 14.3599 18.8171C15.2172 19.9553 16.4232 20.7902 17.7989 21.1981V21.2051Z" fill="white"/>
</svg>
