<svg width="54" height="30" viewBox="0 0 54 30" fill="none" xmlns="http://www.w3.org/2000/svg">
<rect y="0.257324" width="54" height="29" fill="white"/>
<path d="M18.8843 24.3375V23.0638C18.8918 22.9567 18.8763 22.8492 18.8389 22.7485C18.8015 22.6479 18.7431 22.5563 18.6676 22.48C18.5921 22.4037 18.5012 22.3443 18.4009 22.3059C18.3006 22.2674 18.1933 22.2508 18.0861 22.2571C17.9458 22.2479 17.8056 22.2765 17.6801 22.34C17.5547 22.4035 17.4485 22.4995 17.3728 22.618C17.3038 22.5031 17.2051 22.4089 17.087 22.3453C16.9689 22.2818 16.8359 22.2513 16.702 22.2571C16.5852 22.2512 16.469 22.2759 16.3647 22.3288C16.2604 22.3817 16.1718 22.4609 16.1076 22.5586V22.3081H15.666V24.3375H16.1118V23.2209C16.1023 23.1515 16.1083 23.0809 16.1293 23.014C16.1503 22.9472 16.1858 22.8858 16.2332 22.8343C16.2807 22.7828 16.339 22.7424 16.4038 22.716C16.4687 22.6896 16.5386 22.6779 16.6086 22.6817C16.9015 22.6817 17.0501 22.8727 17.0501 23.2167V24.346H17.496V23.2209C17.4869 23.1516 17.4931 23.0811 17.5142 23.0144C17.5354 22.9478 17.5709 22.8866 17.6183 22.8351C17.6656 22.7837 17.7237 22.7433 17.7884 22.7168C17.8531 22.6903 17.9229 22.6783 17.9927 22.6817C18.2942 22.6817 18.4385 22.8727 18.4385 23.2167V24.346L18.8843 24.3375ZM25.4802 22.3081H24.7541V21.6924H24.3083V22.3081H23.905V22.7114H24.3168V23.6455C24.3168 24.1168 24.4994 24.397 25.0216 24.397C25.2167 24.3976 25.4081 24.3432 25.5736 24.2399L25.4462 23.862C25.3278 23.9326 25.1934 23.9721 25.0556 23.9766C24.8433 23.9766 24.7626 23.8408 24.7626 23.637V22.7114H25.4844L25.4802 22.3081ZM29.2462 22.2571C29.1385 22.2539 29.032 22.2799 28.9379 22.3322C28.8437 22.3845 28.7654 22.4612 28.7112 22.5543V22.3081H28.2739V24.3375H28.7155V23.1997C28.7155 22.8643 28.8598 22.6774 29.1401 22.6774C29.2345 22.6761 29.3283 22.6935 29.416 22.7284L29.5519 22.3038C29.4511 22.2677 29.3448 22.2491 29.2377 22.2486L29.2462 22.2571ZM23.5526 22.4694C23.3026 22.3208 23.0153 22.2471 22.7247 22.2571C22.2109 22.2571 21.8755 22.5034 21.8755 22.9067C21.8755 23.2379 22.1218 23.4417 22.5761 23.5054L22.7883 23.5351C23.0304 23.5691 23.145 23.6327 23.145 23.7474C23.145 23.9045 22.9836 23.9936 22.6822 23.9936C22.4397 24.0007 22.2019 23.9259 22.0071 23.7813L21.7948 24.1253C22.052 24.3048 22.3601 24.3971 22.6737 24.3885C23.2596 24.3885 23.5993 24.1125 23.5993 23.7261C23.5993 23.3398 23.3318 23.1827 22.8902 23.119L22.6779 23.0893C22.4869 23.0638 22.334 23.0256 22.334 22.8897C22.334 22.7539 22.4784 22.652 22.7204 22.652C22.9441 22.6546 23.1634 22.7145 23.3573 22.826L23.5526 22.4694ZM35.3793 22.2571C35.2716 22.2539 35.1651 22.2799 35.0709 22.3322C34.9768 22.3845 34.8985 22.4612 34.8443 22.5543V22.3081H34.407V24.3375H34.8485V23.1997C34.8485 22.8643 34.9929 22.6774 35.2731 22.6774C35.3676 22.6761 35.4613 22.6935 35.5491 22.7284L35.6849 22.3038C35.5841 22.2677 35.4779 22.2491 35.3708 22.2486L35.3793 22.2571ZM29.6899 23.3186C29.6846 23.4612 29.7092 23.6033 29.762 23.7359C29.8149 23.8685 29.8948 23.9886 29.9967 24.0885C30.0986 24.1884 30.2203 24.2659 30.3539 24.3161C30.4875 24.3663 30.6301 24.3881 30.7726 24.38C31.0377 24.3935 31.2982 24.3071 31.5028 24.138L31.2905 23.7813C31.1379 23.8977 30.9518 23.9618 30.7598 23.9639C30.5966 23.9507 30.4443 23.8765 30.3333 23.7562C30.2223 23.6358 30.1607 23.4781 30.1607 23.3143C30.1607 23.1506 30.2223 22.9928 30.3333 22.8724C30.4443 22.7521 30.5966 22.6779 30.7598 22.6647C30.9518 22.6668 31.1379 22.7309 31.2905 22.8473L31.5028 22.4906C31.2982 22.3215 31.0377 22.2351 30.7726 22.2486C30.6301 22.2405 30.4875 22.2623 30.3539 22.3125C30.2203 22.3627 30.0986 22.4402 29.9967 22.5401C29.8948 22.6401 29.8149 22.7601 29.762 22.8927C29.7092 23.0253 29.6846 23.1674 29.6899 23.3101V23.3186ZM33.8253 23.3186V22.3081H33.3837V22.5543C33.3087 22.4578 33.2119 22.3806 33.1011 22.3289C32.9904 22.2772 32.869 22.2526 32.7469 22.2571C32.4653 22.2571 32.1954 22.3689 31.9963 22.568C31.7972 22.7671 31.6854 23.037 31.6854 23.3186C31.6854 23.6001 31.7972 23.87 31.9963 24.0691C32.1954 24.2682 32.4653 24.38 32.7469 24.38C32.869 24.3845 32.9904 24.3599 33.1011 24.3082C33.2119 24.2566 33.3087 24.1793 33.3837 24.0828V24.3291H33.8253V23.3186ZM32.1822 23.3186C32.1892 23.1991 32.231 23.0843 32.3025 22.9883C32.3739 22.8923 32.4719 22.8193 32.5843 22.7783C32.6968 22.7373 32.8187 22.73 32.9352 22.7575C33.0517 22.7849 33.1576 22.8458 33.2399 22.9326C33.3222 23.0195 33.3774 23.1285 33.3985 23.2463C33.4196 23.3641 33.4059 23.4855 33.3589 23.5956C33.3119 23.7056 33.2337 23.7995 33.134 23.8657C33.0343 23.9319 32.9175 23.9675 32.7978 23.9682C32.7138 23.9692 32.6304 23.9529 32.553 23.9202C32.4755 23.8874 32.4057 23.8391 32.3479 23.778C32.29 23.717 32.2455 23.6447 32.217 23.5656C32.1884 23.4866 32.1766 23.4024 32.1822 23.3186ZM26.8537 22.2571C26.5722 22.2611 26.3038 22.3767 26.1076 22.5785C25.9113 22.7804 25.8033 23.0519 25.8072 23.3334C25.8111 23.6149 25.9267 23.8833 26.1286 24.0796C26.3304 24.2759 26.6019 24.3839 26.8834 24.38C27.1888 24.3957 27.4892 24.2973 27.7262 24.104L27.5139 23.7771C27.3463 23.9115 27.1386 23.9862 26.9237 23.9894C26.7778 24.0019 26.6327 23.9571 26.5193 23.8643C26.4059 23.7715 26.3332 23.6382 26.3166 23.4926H27.8239C27.8239 23.4374 27.8239 23.3822 27.8239 23.3228C27.8239 22.6859 27.429 22.2613 26.8601 22.2613L26.8537 22.2571ZM26.8537 22.652C26.9198 22.6506 26.9855 22.6622 27.0471 22.6862C27.1086 22.7102 27.1649 22.746 27.2126 22.7918C27.2603 22.8375 27.2985 22.8922 27.3251 22.9527C27.3517 23.0132 27.3661 23.0784 27.3674 23.1445H26.306C26.3137 23.0082 26.3744 22.8803 26.4752 22.7883C26.576 22.6962 26.7088 22.6473 26.8452 22.652H26.8537ZM37.9161 23.3228V21.4929H37.4915V22.5543C37.4165 22.4578 37.3197 22.3806 37.209 22.3289C37.0982 22.2772 36.9768 22.2526 36.8547 22.2571C36.5732 22.2571 36.3032 22.3689 36.1041 22.568C35.905 22.7671 35.7932 23.037 35.7932 23.3186C35.7932 23.6001 35.905 23.87 36.1041 24.0691C36.3032 24.2682 36.5732 24.38 36.8547 24.38C36.9768 24.3845 37.0982 24.3599 37.209 24.3082C37.3197 24.2566 37.4165 24.1793 37.4915 24.0828V24.3291H37.9161V23.3228ZM38.6528 24.0425C38.6804 24.0421 38.7078 24.0472 38.7334 24.0573C38.7578 24.0673 38.7801 24.0817 38.7992 24.0998C38.8179 24.1181 38.833 24.1397 38.8438 24.1635C38.8546 24.1883 38.8601 24.215 38.8601 24.242C38.8601 24.269 38.8546 24.2958 38.8438 24.3206C38.833 24.3444 38.8179 24.3659 38.7992 24.3842C38.7801 24.4024 38.7578 24.4168 38.7334 24.4267C38.708 24.4379 38.6805 24.4437 38.6528 24.4437C38.6125 24.4434 38.5732 24.4316 38.5394 24.4098C38.5055 24.388 38.4786 24.3571 38.4617 24.3206C38.4511 24.2957 38.4456 24.269 38.4456 24.242C38.4456 24.215 38.4511 24.1883 38.4617 24.1635C38.4725 24.1397 38.4876 24.1181 38.5063 24.0998C38.5254 24.0817 38.5477 24.0673 38.5721 24.0573C38.5997 24.0463 38.6294 24.0413 38.6591 24.0425H38.6528ZM38.6528 24.4012C38.674 24.4014 38.6949 24.397 38.7143 24.3885C38.7326 24.3803 38.7492 24.3688 38.7632 24.3545C38.7897 24.3256 38.8044 24.2877 38.8044 24.2484C38.8044 24.2091 38.7897 24.1712 38.7632 24.1422C38.7492 24.1279 38.7326 24.1164 38.7143 24.1083C38.6949 24.0998 38.6739 24.0955 38.6528 24.0955C38.6316 24.0956 38.6107 24.1 38.5912 24.1083C38.5721 24.1161 38.5548 24.1276 38.5402 24.1422C38.5137 24.1712 38.499 24.2091 38.499 24.2484C38.499 24.2877 38.5137 24.3256 38.5402 24.3545C38.5548 24.3691 38.5721 24.3806 38.5912 24.3885C38.6126 24.3977 38.6358 24.4021 38.6591 24.4012H38.6528ZM38.6655 24.1486C38.6853 24.1476 38.7048 24.1537 38.7207 24.1656C38.7272 24.171 38.7323 24.1778 38.7356 24.1856C38.739 24.1933 38.7404 24.2018 38.7398 24.2102C38.7401 24.2172 38.7389 24.2243 38.7364 24.2308C38.7338 24.2374 38.7299 24.2434 38.7249 24.2484C38.7126 24.2596 38.6969 24.2663 38.6804 24.2675L38.7419 24.3375H38.6931L38.6358 24.2675H38.6167V24.3375H38.5763V24.1507L38.6655 24.1486ZM38.6188 24.1847V24.2356H38.6655C38.6738 24.2381 38.6827 24.2381 38.691 24.2356C38.6925 24.2327 38.6932 24.2294 38.6932 24.2261C38.6932 24.2228 38.6925 24.2195 38.691 24.2165C38.6925 24.2136 38.6932 24.2103 38.6932 24.207C38.6932 24.2037 38.6925 24.2004 38.691 24.1974C38.6827 24.195 38.6738 24.195 38.6655 24.1974L38.6188 24.1847ZM36.2836 23.3228C36.2906 23.2033 36.3325 23.0885 36.4039 22.9925C36.4754 22.8966 36.5734 22.8236 36.6858 22.7825C36.7982 22.7415 36.9202 22.7343 37.0366 22.7617C37.1531 22.7891 37.2591 22.85 37.3414 22.9369C37.4237 23.0237 37.4788 23.1328 37.4999 23.2506C37.5211 23.3683 37.5073 23.4897 37.4603 23.5998C37.4133 23.7099 37.3352 23.8038 37.2355 23.87C37.1358 23.9362 37.0189 23.9718 36.8992 23.9724C36.8152 23.9735 36.7318 23.9571 36.6544 23.9244C36.577 23.8917 36.5071 23.8433 36.4493 23.7823C36.3915 23.7213 36.3469 23.6489 36.3184 23.5699C36.2899 23.4908 36.278 23.4067 36.2836 23.3228ZM21.3745 23.3228V22.3081H20.9329V22.5543C20.8579 22.4578 20.7611 22.3806 20.6503 22.3289C20.5396 22.2772 20.4182 22.2526 20.2961 22.2571C20.0145 22.2571 19.7446 22.3689 19.5455 22.568C19.3464 22.7671 19.2346 23.037 19.2346 23.3186C19.2346 23.6001 19.3464 23.87 19.5455 24.0691C19.7446 24.2682 20.0145 24.38 20.2961 24.38C20.4182 24.3845 20.5396 24.3599 20.6503 24.3082C20.7611 24.2566 20.8579 24.1793 20.9329 24.0828V24.3291H21.3745V23.3228ZM19.7314 23.3228C19.7384 23.2033 19.7802 23.0885 19.8517 22.9925C19.9231 22.8966 20.0211 22.8236 20.1335 22.7825C20.246 22.7415 20.3679 22.7343 20.4844 22.7617C20.6009 22.7891 20.7068 22.85 20.7891 22.9369C20.8714 23.0237 20.9266 23.1328 20.9477 23.2506C20.9688 23.3683 20.9551 23.4897 20.9081 23.5998C20.8611 23.7099 20.7829 23.8038 20.6832 23.87C20.5835 23.9362 20.4667 23.9718 20.347 23.9724C20.2626 23.9741 20.1788 23.9582 20.1008 23.9257C20.0229 23.8932 19.9525 23.8449 19.8943 23.7839C19.836 23.7228 19.791 23.6503 19.7623 23.5709C19.7335 23.4915 19.7215 23.407 19.7271 23.3228H19.7314Z" fill="#231F20"/>
<path d="M30.0934 6.84277H23.4062V18.8605H30.0934V6.84277Z" fill="#FF5F00"/>
<path d="M23.8305 12.8527C23.8293 11.6951 24.0915 10.5524 24.5972 9.5112C25.1029 8.46996 25.8389 7.55744 26.7495 6.84274C25.6221 5.95669 24.2681 5.40571 22.8423 5.25277C21.4166 5.09982 19.9765 5.35109 18.6868 5.97786C17.3971 6.60462 16.3097 7.58159 15.5489 8.79711C14.7882 10.0126 14.3848 11.4177 14.3848 12.8516C14.3848 14.2856 14.7882 15.6906 15.5489 16.9061C16.3097 18.1216 17.3971 19.0986 18.6868 19.7254C19.9765 20.3521 21.4166 20.6034 22.8423 20.4504C24.2681 20.2975 25.6221 19.7465 26.7495 18.8605C25.8392 18.146 25.1034 17.2338 24.5977 16.193C24.092 15.1521 23.8296 14.0099 23.8305 12.8527Z" fill="#EB001B"/>
<path d="M39.1159 12.8526C39.1158 14.2867 38.7123 15.6918 37.9514 16.9074C37.1906 18.1229 36.103 19.0999 34.8131 19.7266C33.5233 20.3532 32.0831 20.6043 30.6572 20.4512C29.2314 20.298 27.8774 19.7468 26.75 18.8604C27.6599 18.1453 28.3956 17.2329 28.9014 16.192C29.4073 15.1511 29.6701 14.0089 29.6701 12.8516C29.6701 11.6943 29.4073 10.5521 28.9014 9.51116C28.3956 8.47025 27.6599 7.55782 26.75 6.84271C27.8774 5.95638 29.2314 5.40513 30.6572 5.25197C32.0831 5.09881 33.5233 5.34992 34.8131 5.97659C36.103 6.60326 37.1906 7.58022 37.9514 8.79578C38.7123 10.0113 39.1158 11.4165 39.1159 12.8505V12.8526Z" fill="#F79E1B"/>
<path d="M38.3853 17.5867V17.3404H38.485V17.2895H38.2324V17.3404H38.3407V17.5867H38.3853ZM38.8757 17.5867V17.2895H38.7992L38.7101 17.5018L38.6209 17.2895H38.553V17.5867H38.6082V17.3638L38.691 17.557H38.7483L38.8311 17.3638V17.5888L38.8757 17.5867Z" fill="#F79E1B"/>
</svg>
