<svg width="56" height="30" viewBox="0 0 56 30" fill="none" xmlns="http://www.w3.org/2000/svg">
<path d="M55.3064 16.1069V0H0V29.7613H55.3064V21.0781C55.1832 21.0781 55.3064 16.1069 55.3064 16.1069Z" fill="#006FCF"/>
<path d="M44.6218 13.6896H48.1375V5.52075H44.3116V6.65819L43.5878 5.52075H40.2789V6.96839L39.6585 5.52075H33.5577C33.3509 5.52075 33.1441 5.62415 32.9373 5.62415C32.7305 5.62415 32.6271 5.72756 32.4203 5.83096C32.2135 5.93436 32.1101 5.93436 31.9033 6.03777V5.52075H14.4282L13.9112 6.86499L13.3942 5.52075H9.25805V6.96839L8.63763 5.52075H5.32874L3.8811 9.03645L2.125 13.6896H3.8811H6.25937L6.67298 12.5521H7.5002L7.91381 13.6896H26.1127V12.6556L26.8365 13.6896H31.9033V13.0692C32.0067 13.1726 32.2135 13.1726 32.3169 13.276C32.4203 13.3794 32.6271 13.3794 32.7305 13.4828C32.9373 13.5862 33.1441 13.5862 33.3509 13.5862H37.0734L37.487 12.4487H38.3143L38.7279 13.5862H43.7946V12.5521L44.6218 13.6896ZM51.2034 24.0299V20.0103V16.3781H21.8732L21.1494 17.4121L20.4256 16.3781H12.1533V24.5469H20.4256L21.1494 23.5129L21.8732 24.5469H27.0433V22.789H26.8365C27.5604 22.789 28.1808 22.6856 28.6978 22.4788V24.6503H32.4203V23.6163L33.1441 24.6503H48.5511C49.1716 24.4435 50.6864 24.3401 51.2034 24.0299Z" fill="white"/>
<path d="M48.5529 22.0652H45.761V23.2026H48.4495C49.5869 23.2026 50.3107 22.4788 50.3107 21.4448C50.3107 20.4108 49.6903 19.8938 48.6563 19.8938H47.4154C47.1052 19.8938 46.8984 19.6869 46.8984 19.3767C46.8984 19.0665 47.1052 18.8597 47.4154 18.8597H49.7937L50.3107 17.7223H47.5188C46.3814 17.7223 45.6576 18.4461 45.6576 19.3767C45.6576 20.4108 46.278 20.9278 47.312 20.9278H48.5529C48.8631 20.9278 49.0699 21.1346 49.0699 21.4448C49.1733 21.8584 48.9665 22.0652 48.5529 22.0652ZM43.4861 22.0652H40.6942V23.2026H43.3827C44.5201 23.2026 45.244 22.4788 45.244 21.4448C45.244 20.4108 44.6235 19.8938 43.5895 19.8938H42.3487C42.0385 19.8938 41.8317 19.6869 41.8317 19.3767C41.8317 19.0665 42.0385 18.8597 42.3487 18.8597H44.7269L45.244 17.7223H42.4521C41.3147 17.7223 40.5908 18.4461 40.5908 19.3767C40.5908 20.4108 41.2113 20.9278 42.2453 20.9278H43.4861C43.7963 20.9278 44.0031 21.1346 44.0031 21.4448C44.1065 21.8584 43.7963 22.0652 43.4861 22.0652ZM39.867 18.7563V17.6189H35.5241V23.0992H39.867V21.9618H36.7649V20.8244H39.7636V19.6869H36.7649V18.6529H39.867V18.7563ZM32.8356 18.7563C33.3526 18.7563 33.5594 19.0665 33.5594 19.3767C33.5594 19.6869 33.3526 19.9972 32.8356 19.9972H31.2846V18.6529L32.8356 18.7563ZM31.2846 21.1346H31.905L33.5594 23.0992H35.1105L33.2492 21.0312C34.1799 20.8244 34.6969 20.204 34.6969 19.3767C34.6969 18.3427 33.973 17.6189 32.8356 17.6189H29.9403V23.0992H31.1812L31.2846 21.1346ZM27.9757 19.4801C27.9757 19.8938 27.7689 20.204 27.2519 20.204H25.5974V18.7563H27.1485C27.6655 18.7563 27.9757 19.0665 27.9757 19.4801ZM24.3566 17.6189V23.0992H25.5974V21.238H27.2519C28.3893 21.238 29.2165 20.5142 29.2165 19.3767C29.2165 18.3427 28.4927 17.5155 27.3553 17.5155L24.3566 17.6189ZM22.4953 23.0992H24.0464L21.8749 20.3074L24.0464 17.6189H22.4953L21.1511 19.3767L19.8069 17.6189H18.2558L20.4273 20.3074L18.2558 22.9958H19.8069L21.1511 21.238L22.4953 23.0992ZM17.8422 18.7563V17.6189H13.4993V23.0992H17.8422V21.9618H14.7401V20.8244H17.7388V19.6869H14.7401V18.6529H17.8422V18.7563ZM42.9691 9.03645L45.1406 12.3453H46.6916V6.86499H45.4508V10.4841L45.1406 9.96708L43.1759 6.86499H41.5215V12.3453H42.7623V8.62284L42.9691 9.03645ZM37.5922 8.93305L38.0058 7.79561L38.4194 8.93305L38.9364 10.1739H37.0751L37.5922 8.93305ZM39.7636 12.3453H41.1078L38.7296 6.86499H37.0751L34.6969 12.3453H36.0411L36.5581 11.2079H39.2466L39.7636 12.3453ZM33.9731 12.3453L34.4901 11.2079H34.1799C33.2492 11.2079 32.7322 10.5875 32.7322 9.65687V9.55346C32.7322 8.62284 33.2492 8.00242 34.1799 8.00242H35.5241V6.86499H34.0765C32.422 6.86499 31.4914 8.00242 31.4914 9.55346V9.65687C31.4914 11.3113 32.422 12.3453 33.9731 12.3453ZM29.3199 12.3453H30.5608V6.96839H29.3199V12.3453ZM26.6314 8.00242C27.1485 8.00242 27.3553 8.31263 27.3553 8.62284C27.3553 8.93305 27.1485 9.24326 26.6314 9.24326H25.0804V7.89902L26.6314 8.00242ZM25.0804 10.3807H25.7008L27.3553 12.3453H28.9063L27.0451 10.2773C27.9757 10.0705 28.4927 9.45006 28.4927 8.62284C28.4927 7.58881 27.7689 6.86499 26.6314 6.86499H23.7362V12.3453H24.977L25.0804 10.3807ZM22.8055 8.00242V6.86499H18.4626V12.3453H22.8055V11.2079H19.7035V10.0705H22.7021V8.93305H19.7035V7.89902H22.8055V8.00242ZM13.3959 12.3453H14.5333L16.0844 7.89902V12.3453H17.3252V6.86499H15.2571L14.0163 10.5875L12.7755 6.86499H10.7074V12.3453H11.9482V7.89902L13.3959 12.3453ZM6.67469 8.93305L7.0883 7.79561L7.50191 8.93305L8.01893 10.1739H6.15768L6.67469 8.93305ZM8.84615 12.3453H10.1904L7.81212 6.86499H6.26108L3.88281 12.3453H5.22705L5.74406 11.2079H8.43254L8.84615 12.3453Z" fill="#006FCF"/>
</svg>
