<svg width="53" height="30" viewBox="0 0 53 30" fill="none" xmlns="http://www.w3.org/2000/svg">
<rect y="0.257324" width="53" height="29" fill="white"/>
<path d="M40.4913 24.3947C42.6919 24.3947 44.6134 23.7179 45.0556 21.5415C45.4971 19.3652 48.3728 5.36762 48.3728 5.36762H12.508C10.3056 5.36762 8.377 6.15174 7.94316 8.21964C7.50872 10.2869 4.63477 24.3918 4.63477 24.3918L40.4913 24.3947Z" fill="#B3131B"/>
<path d="M40.489 24.5525V24.3949V24.236C42.6707 24.2265 44.4754 23.5829 44.8974 21.509C45.3093 19.4826 47.8306 7.20687 48.1768 5.526H12.5058C10.3294 5.53252 8.50809 6.28761 8.09558 8.25178C7.87865 9.28484 7.05126 13.3276 6.2778 17.1125C5.61102 20.3806 4.98514 23.4519 4.82571 24.233L40.489 24.236V24.3949L40.4884 24.5525L4.4375 24.549L4.47662 24.3593C4.47662 24.3593 7.34997 10.2551 7.78501 8.18658C8.24138 6.01675 10.2773 5.20121 12.5058 5.20832H48.565L48.5259 5.39917C48.5259 5.40628 47.8075 8.89781 47.0329 12.6703C46.2582 16.4416 45.4291 20.4849 45.2092 21.5725C44.7504 23.8383 42.7347 24.5531 40.5317 24.5531C40.518 24.5531 40.5032 24.5531 40.489 24.5525Z" fill="white"/>
<path d="M8.49612 17.5187L8.79424 15.9978L9.09652 14.3928L9.35552 12.7765L9.59793 11.2575L9.61927 11.1603H10.6932C10.682 11.2089 10.682 11.2385 10.6725 11.2575C10.634 11.4412 10.5569 11.8478 10.4502 12.4755C10.3921 12.8145 10.3139 13.2015 10.2274 13.6377L10.2084 13.774H10.2955L11.6972 13.7918L13.0622 13.774H13.1701L13.1884 13.6377C13.2465 13.2602 13.3046 12.8631 13.3817 12.4369C13.5375 11.5858 13.547 11.5272 13.5956 11.1609H14.6874C14.6702 11.229 14.6702 11.229 14.6589 11.2581C14.6393 11.3547 14.5439 11.8579 14.3786 12.7765L14.0793 14.3928L13.8078 15.9984C13.6537 16.9088 13.5755 17.412 13.5583 17.5187C13.5583 17.5554 13.5583 17.5554 13.547 17.6141H12.4535L12.4743 17.5187C12.5009 17.4019 12.5501 17.1216 12.6266 16.6764C12.6556 16.5099 12.7143 16.2313 12.7913 15.8046L12.9466 14.9529C12.9952 14.6927 13.0243 14.5362 13.0332 14.4977C13.0332 14.4782 13.0432 14.4509 13.0521 14.4017H12.9271C12.7439 14.3928 12.0854 14.3928 11.4566 14.3928C10.8278 14.3928 10.4099 14.3928 10.2167 14.4011H10.0922C10.0727 14.5866 10.0632 14.6234 10.0051 14.9529C9.95651 15.2042 9.90968 15.4946 9.86049 15.804C9.78344 16.2604 9.73366 16.5496 9.71469 16.6758C9.63764 17.1405 9.58845 17.4197 9.56948 17.5187C9.56948 17.5358 9.56948 17.5755 9.56059 17.6135H8.47656L8.49612 17.5187Z" fill="white"/>
<path d="M14.5245 17.5227L14.7278 16.4861L14.9501 15.3215L15.135 14.193C15.2281 13.6187 15.2832 13.2589 15.301 13.1108C15.301 13.0918 15.301 13.0639 15.3104 13.0183H16.2617C16.254 13.0639 16.2439 13.0918 16.2362 13.1108C16.1989 13.2589 16.1343 13.6187 16.0217 14.193L15.8095 15.3215L15.6169 16.4861C15.5315 17.0314 15.4758 17.3829 15.4568 17.5227C15.4568 17.5405 15.4568 17.5779 15.4497 17.614H14.4961L14.5245 17.5227ZM15.4966 11.824C15.4966 11.3534 15.7271 11.0749 16.1343 11.0749C16.4117 11.0749 16.5504 11.2053 16.5504 11.4732C16.5504 11.9361 16.3091 12.2223 15.9114 12.2223C15.6803 12.2223 15.5416 12.1287 15.5037 11.9544C15.4966 11.907 15.4966 11.8703 15.4966 11.824Z" fill="white"/>
<path d="M15.9581 19.565C16.0032 19.3623 16.1146 18.7892 16.2906 17.8278L16.5953 16.1713L16.8638 14.5811C16.9936 13.8041 17.0682 13.3139 17.0961 13.1106C17.0961 13.0733 17.0961 13.0733 17.1044 13.0176H17.9288L17.9087 13.1106L17.8642 13.3678L17.8459 13.4704C18.2898 13.0822 18.7426 12.9168 19.3525 12.9168C20.3879 12.9168 20.9432 13.4799 20.9432 14.5349C20.9432 15.1175 20.7862 15.7742 20.5171 16.3574C20.0809 17.2725 19.3614 17.7354 18.3905 17.7354C17.7789 17.7354 17.5015 17.5682 17.2804 17.0882L17.2621 17.1978L17.0493 18.5669C16.9752 19.0298 16.9177 19.3623 16.9005 19.5567C16.9005 19.565 16.9005 19.6023 16.8928 19.6675H15.9297C15.9475 19.6023 15.9475 19.6023 15.9581 19.565ZM17.8061 14.1449L17.5015 15.866C17.4825 15.9863 17.4653 16.0966 17.4653 16.2187C17.4653 16.8191 17.7712 17.1166 18.371 17.1166C18.7693 17.1166 19.0929 16.9755 19.3335 16.7077C19.7128 16.2738 19.9718 15.4233 19.9718 14.6463C19.9718 13.8965 19.6393 13.5255 18.9174 13.5255C18.4824 13.5255 18.1215 13.6932 17.834 14.0068L17.8061 14.1449Z" fill="white"/>
<path d="M23.0507 17.7157C21.8042 17.7157 21.1914 17.1811 21.1914 16.0698C21.1914 15.4587 21.3497 14.7748 21.6181 14.2022C22.0247 13.3417 22.7846 12.9167 23.9024 12.9167C24.9657 12.9167 25.4949 13.3221 25.4949 14.1276C25.4949 14.3581 25.438 14.7202 25.3462 15.1351L25.2442 15.1256C25.0783 15.1173 24.5591 15.1173 23.6896 15.1173C22.9499 15.1173 22.4977 15.1173 22.3223 15.1256L22.2274 15.1351C22.145 15.5512 22.1373 15.6543 22.1373 15.9501C22.1373 16.6909 22.5611 17.088 23.3571 17.088C23.8763 17.088 24.3741 16.9867 24.9307 16.7455L24.7908 17.4851C24.2544 17.6333 23.6244 17.7157 23.0507 17.7157ZM22.4503 14.5987C22.5522 14.6088 22.8948 14.6088 23.4685 14.6088H23.6161C24.0322 14.6088 24.319 14.6088 24.485 14.5987H24.5691L24.5869 14.4784C24.6053 14.3682 24.6154 14.2657 24.6154 14.1744C24.6154 13.7204 24.309 13.4993 23.7174 13.4993C22.9677 13.4993 22.5421 13.8312 22.3483 14.5987H22.4503Z" fill="white"/>
<path d="M25.6311 17.5227L25.8355 16.4861L26.0572 15.3215L26.2421 14.193C26.3346 13.6187 26.3897 13.2589 26.4087 13.1108C26.4087 13.0918 26.4182 13.0639 26.4182 13.0183H27.2497L27.2319 13.1108L27.1229 13.6934L27.0932 13.822C27.2497 13.5737 27.306 13.5073 27.4251 13.368C27.6865 13.0734 28.0279 12.9158 28.3883 12.9158C28.5744 12.9158 28.7314 12.9531 28.9057 13.0361L28.7865 13.7023C28.5827 13.6377 28.4161 13.611 28.2407 13.611C27.6865 13.611 27.1952 14.11 27.0002 14.8764C26.9279 15.1638 26.8609 15.4969 26.7987 15.8857C26.6131 17.0415 26.593 17.1333 26.5568 17.614H25.6133L25.6311 17.5227Z" fill="white"/>
<path d="M32.2359 13.7388C31.8471 13.6007 31.4311 13.5254 31.0505 13.5254C30.5983 13.5254 30.254 13.6375 30.0246 13.8591C29.6453 14.2201 29.3495 15.1174 29.3495 15.9217C29.3495 16.7088 29.6927 17.0881 30.3956 17.0881C30.8117 17.0881 31.3481 16.9583 31.7167 16.7734L31.5869 17.4751C31.1157 17.6334 30.6173 17.7158 30.1088 17.7158C29.3857 17.7158 28.9886 17.5486 28.6828 17.1337C28.4795 16.838 28.3965 16.5328 28.3965 16.0426C28.3965 15.4043 28.5535 14.7387 28.8499 14.1549C28.9803 13.8864 29.164 13.6464 29.3958 13.4425C29.8029 13.0732 30.3209 12.9156 31.1626 12.9156C31.4583 12.9156 31.7718 12.9345 32.2721 12.9802L32.3645 12.9891L32.2359 13.7388Z" fill="white"/>
<path d="M33.6215 17.7156C32.6869 17.7156 32.2441 17.3268 32.2441 16.5142C32.2441 15.311 33.0941 14.6188 34.5651 14.6188C34.7957 14.6188 35.2497 14.636 35.5537 14.6549L35.5739 14.5536C35.6379 14.2199 35.6379 14.1926 35.6379 14.0812C35.6379 13.7114 35.3326 13.5253 34.7032 13.5253C34.2237 13.5253 33.7614 13.6005 33.1587 13.7677L33.3448 13.0078C33.3809 13.0173 33.4088 13.0173 33.4271 13.0173C33.5741 13.0173 33.8071 12.999 34.1301 12.9616C34.4075 12.9344 34.6848 12.9166 34.9432 12.9166C36.0439 12.9166 36.5352 13.2034 36.5352 13.8412C36.5352 14.0065 36.5079 14.1926 36.4333 14.5986L36.2851 15.4408C36.1203 16.3388 36.0273 17.0512 36.0273 17.4666C36.0273 17.5034 36.0273 17.5585 36.035 17.6136H35.2028V17.5407C35.2028 17.4097 35.2408 17.1235 35.2769 16.855C34.8609 17.4666 34.3713 17.7156 33.6215 17.7156ZM35.3605 15.1824C35.0819 15.1552 34.9432 15.1552 34.75 15.1552C34.1852 15.1552 33.8527 15.2275 33.5943 15.4319C33.3175 15.6447 33.1498 15.995 33.1498 16.3838C33.1498 16.8479 33.4271 17.0956 33.9345 17.0956C34.4448 17.0956 34.8976 16.8188 35.1211 16.3666C35.2592 16.0697 35.3605 15.7087 35.4524 15.1907L35.3605 15.1824Z" fill="white"/>
<path d="M36.8295 17.5227L37.031 16.4861L37.2557 15.3215L37.4406 14.193C37.5318 13.6187 37.5876 13.2589 37.6048 13.1108C37.6048 13.0918 37.6148 13.0639 37.6148 13.0183H38.4481L38.4274 13.1108L38.3172 13.6934L38.2899 13.822C38.4481 13.5737 38.5027 13.5073 38.623 13.368C38.8832 13.0734 39.224 12.9158 39.5855 12.9158C39.7698 12.9158 39.9269 12.9531 40.1029 13.0361L39.9826 13.7023C39.7787 13.6377 39.6134 13.611 39.4356 13.611C38.8832 13.611 38.3924 14.11 38.1986 14.8764C38.1245 15.1638 38.0593 15.4969 37.9947 15.8857C37.8098 17.0415 37.7909 17.1333 37.7529 17.614H36.8105L36.8295 17.5227Z" fill="white"/>
<path d="M41.1826 17.7157C40.1003 17.7157 39.5918 17.2167 39.5918 16.1356C39.5918 15.5062 39.7489 14.8394 40.0446 14.2657C40.4885 13.379 41.2573 12.9167 42.2731 12.9167C42.5612 12.9167 42.8474 12.9434 43.078 12.9991C43.1533 13.0263 43.2001 13.0358 43.3382 13.0821L43.356 12.9706C43.3933 12.7857 43.4395 12.4911 43.5035 12.0834C43.577 11.6394 43.6245 11.3158 43.6517 11.1108L43.6618 11.0373H44.6048L44.587 11.1025C44.5117 11.4735 44.4027 12.0283 44.2634 12.7857C44.0121 14.1376 43.9208 14.6462 43.7815 15.4866C43.6144 16.5143 43.5409 17.1426 43.5409 17.5486V17.6138H42.6809C42.6892 17.4668 42.6892 17.4199 42.7182 17.2261C42.7461 17.0768 42.7562 17.0234 42.7739 16.8652C42.4053 17.4946 41.9791 17.7157 41.1826 17.7157ZM42.3199 13.5177C41.9134 13.5177 41.582 13.6279 41.3396 13.8413C40.8779 14.2479 40.5632 15.1256 40.5632 16.0331C40.5632 16.7638 40.8596 17.0957 41.5056 17.0957C41.9874 17.0957 42.4409 16.819 42.643 16.3922C42.7372 16.1907 42.8101 15.94 42.8753 15.6543C42.9867 15.0895 43.1349 14.2846 43.2179 13.7939L43.2274 13.6931C42.8949 13.5734 42.6335 13.5177 42.3199 13.5177Z" fill="white"/>
</svg>
