<svg width="54" height="31" viewBox="0 0 54 31" fill="none" xmlns="http://www.w3.org/2000/svg">
<rect y="0.496094" width="53.7584" height="29.7613" fill="white"/>
<path d="M10.2872 10.2196C10.8428 10.0345 11.4246 9.94063 12.0102 9.94151C14.639 9.94151 16.8337 11.8082 17.3351 14.2895L21.0606 13.5297C20.2058 9.313 16.4792 6.13959 12.0102 6.13959C11.0149 6.13871 10.0261 6.29883 9.08203 6.61375L10.2872 10.2196Z" fill="#FFCB05"/>
<path d="M5.89042 22.2941L8.40976 19.4451C7.83341 18.9355 7.37188 18.3093 7.05573 17.6079C6.73958 16.9065 6.57603 16.146 6.57589 15.3766C6.57575 14.6073 6.73904 13.8467 7.05494 13.1452C7.37083 12.4437 7.83214 11.8173 8.40831 11.3075L5.88825 8.45874C3.97861 10.1508 2.77344 12.6229 2.77344 15.3747C2.77199 16.6833 3.0492 17.9771 3.58664 19.1702C4.12408 20.3632 4.90942 21.4282 5.89042 22.2941Z" fill="#00A4E0"/>
<path d="M17.3346 16.4651C16.8298 18.9451 14.638 20.8082 12.0106 20.8082C11.4244 20.8093 10.8419 20.715 10.286 20.5289L9.08008 24.1362C10.025 24.4508 11.0147 24.6106 12.0106 24.6094C16.4753 24.6094 20.2012 21.4411 21.0596 17.2294L17.3346 16.4651Z" fill="#EF4123"/>
<path d="M24.319 19.5652C24.1738 19.3245 24.0442 19.0748 23.9309 18.8175C23.341 17.4479 23.3128 16.0305 23.8104 14.6693C24.3581 13.1771 25.4045 12.0347 26.7566 11.4529C28.4564 10.7215 30.3361 10.8657 31.966 11.8323C33.0009 12.4261 33.7343 13.3428 34.2917 14.6391C34.3626 14.8048 34.425 14.9823 34.4846 15.1328L24.319 19.5652ZM27.714 13.6532C26.5067 14.172 25.8845 15.3043 26.0125 16.632L31.1255 14.431C30.2467 13.3978 29.1023 13.0553 27.714 13.6532ZM31.7637 18.4415L31.7608 18.4444L31.6546 18.3721C31.3496 18.8675 30.8737 19.2685 30.2727 19.5297C29.13 20.027 28.0705 19.899 27.3098 19.2312L27.2399 19.3375C27.2399 19.3363 27.2387 19.3353 27.2377 19.3353L25.9404 21.2761C26.2632 21.5003 26.6088 21.6896 26.9715 21.8409C28.4043 22.4362 29.8707 22.4087 31.3151 21.7804C32.3598 21.328 33.1794 20.6372 33.7399 19.7622L31.7637 18.4415Z" fill="#231F20"/>
<path d="M38.0404 8.59528V19.386L39.718 20.0659L38.7649 22.29L36.9131 21.5183C36.4975 21.3384 36.2137 21.0629 36.0005 20.7521C35.7957 20.4349 35.6426 20.0003 35.6426 19.4147V8.59528H38.0404Z" fill="#231F20"/>
<path d="M42.3849 16.6373C42.3849 16.2009 42.4785 15.7696 42.6594 15.3725C42.8403 14.9753 43.1043 14.6217 43.4335 14.3352L41.7125 12.4162C41.1144 12.9448 40.6355 13.5944 40.3073 14.3219C39.9791 15.0495 39.8091 15.8384 39.8086 16.6366C39.8081 17.4347 39.9771 18.2239 40.3044 18.9518C40.6317 19.6798 41.1098 20.33 41.7072 20.8593L43.426 18.9384C43.0983 18.6513 42.8359 18.2975 42.6563 17.9006C42.4767 17.5037 42.3842 17.0729 42.3849 16.6373Z" fill="#231F20"/>
<path d="M45.4438 19.6998C45.1143 19.699 44.787 19.6455 44.4743 19.5414L43.6523 21.9852C44.229 22.1785 44.833 22.2772 45.4412 22.2775C48.1665 22.2802 50.442 20.3464 50.9689 17.7762L48.4426 17.2603C48.2996 17.9498 47.9233 18.569 47.377 19.0133C46.8308 19.4577 46.148 19.7002 45.4438 19.6998Z" fill="#231F20"/>
<path d="M45.4492 11.0027C44.8419 11.0015 44.2384 11.0987 43.6621 11.2904L44.4766 13.7362C44.8876 13.5995 45.3229 13.5515 45.7538 13.5955C46.1847 13.6394 46.6014 13.7744 46.9763 13.9913C47.3512 14.2083 47.6757 14.5023 47.9286 14.854C48.1814 15.2057 48.3567 15.607 48.443 16.0315L50.9695 15.5192C50.4498 12.9451 48.1765 11.0044 45.4492 11.0027Z" fill="#231F20"/>
</svg>
