<svg width="54" height="30" viewBox="0 0 54 30" fill="none" xmlns="http://www.w3.org/2000/svg">
<path d="M0 0.744019V29.0172H53.8183V0.744019H0Z" fill="white"/>
<path d="M9.26953 10.463L12.0437 20.9323H15.2637L20.2743 8.80762H17.008L13.8515 17.04L12.5543 10.5976L9.26953 10.463Z" fill="#005198"/>
<path d="M21.4943 8.76245L19.5703 20.9322H22.613L24.5803 8.76245H21.4943Z" fill="#005198"/>
<path d="M33.5288 11.6707L33.9759 9.12236C33.0296 8.7767 32.0312 8.59504 31.0238 8.58521C29.4124 8.58521 25.9232 9.61446 25.9232 12.6104C25.9232 15.6063 30.2626 15.7427 30.2626 17.3969C30.2626 19.0511 26.3708 18.8737 25.2069 17.8012L24.7148 20.4396C24.7148 20.4396 26.4597 21.1113 28.025 21.1113C29.5903 21.1113 33.4849 20.7538 33.4849 16.862C33.4849 13.4606 29.1449 14.1323 29.1449 12.0744C29.1449 12.0744 29.5908 10.0165 33.5288 11.6701V11.6707Z" fill="#005198"/>
<path d="M33.3047 20.9323H36.6599L37.2427 19.1885H41.3574L41.7005 20.9178H44.6092L41.9408 8.89941H39.2561C39.2561 8.89941 38.2742 9.01147 37.8249 10.1967C37.3998 11.3235 33.3053 20.9334 33.3053 20.9334L33.3047 20.9323Z" fill="#005198"/>
<path d="M40.8664 16.6824H38.1367L39.8377 12.2084L40.8664 16.6824Z" fill="white"/>
<path d="M13.5112 15.3544L12.5518 10.5974C12.5518 10.5974 12.4224 8.81097 11.1494 8.81097H5.95117V9.05934C5.95117 9.05934 11.0917 9.91185 13.5077 15.355L13.5112 15.3544Z" fill="#005198"/>
<path d="M53.8183 22.817H0V29.7613H53.8183V22.817Z" fill="#F6A800"/>
<path d="M53.8183 0H0V6.9443H53.8183V0Z" fill="#005198"/>
</svg>
