<svg width="48" height="48" viewBox="0 0 48 48" fill="none" xmlns="http://www.w3.org/2000/svg">
<g opacity="1">
<path fill-rule="evenodd" clip-rule="evenodd" d="M27.0039 19.8722V14.1943L28.9743 14.1943V19.8722C28.9743 20.1316 29.0782 20.3803 29.2629 20.5636C29.4477 20.747 29.6983 20.85 29.9596 20.85L37.9957 20.85V22.8057L29.9596 22.8057C29.1757 22.8057 28.4239 22.4966 27.8696 21.9465C27.3153 21.3964 27.0039 20.6502 27.0039 19.8722ZM18.7367 20.5637C18.9214 20.3803 19.0252 20.1316 19.0252 19.8722V14.1944H20.9957V19.8722C20.9957 20.6502 20.6843 21.3964 20.13 21.9465C19.5757 22.4966 18.8239 22.8057 18.04 22.8057H10.0039V20.8501H18.04C18.3013 20.8501 18.5519 20.747 18.7367 20.5637ZM27.0039 33.8057V28.1278C27.0039 27.3498 27.3153 26.6037 27.8696 26.0535C28.4239 25.5034 29.1757 25.1944 29.9596 25.1944H37.9957V27.15H29.9596C29.6983 27.15 29.4477 27.253 29.2629 27.4364C29.0782 27.6198 28.9743 27.8685 28.9743 28.1278V33.8057H27.0039ZM18.7367 27.4364C18.9214 27.6197 19.0252 27.8685 19.0252 28.1278L19.0252 33.8057L20.9957 33.8057L20.9957 28.1278C20.9957 27.3498 20.6843 26.6037 20.13 26.0535C19.5757 25.5034 18.8239 25.1943 18.04 25.1943H10.0039V27.15L18.04 27.15C18.3013 27.15 18.5519 27.253 18.7367 27.4364Z" fill="white"/>
</g>
</svg>
