<svg width="48" height="48" viewBox="0 0 48 48" fill="none" xmlns="http://www.w3.org/2000/svg">
<g opacity="1">
<path fill-rule="evenodd" clip-rule="evenodd" d="M8.72852 22.2717V16.5939C8.72852 15.8159 9.03992 15.0697 9.59421 14.5196C10.1485 13.9695 10.9003 13.6604 11.6842 13.6604H19.7203V15.616H11.6842C11.4229 15.616 11.1723 15.7191 10.9875 15.9024C10.8028 16.0858 10.699 16.3345 10.699 16.5939V22.2717H8.72852ZM28.2793 13.6604H36.3154C37.0993 13.6604 37.8511 13.9695 38.4054 14.5196C38.9597 15.0697 39.2711 15.8159 39.2711 16.5939V22.2717H37.3006V16.5939C37.3006 16.3345 37.1968 16.0858 37.0121 15.9024C36.8273 15.7191 36.5767 15.616 36.3154 15.616H28.2793V13.6604ZM37.3006 31.4063C37.3006 31.6656 37.1968 31.9143 37.0121 32.0977C36.8273 32.2811 36.5767 32.3841 36.3154 32.3841H28.2793V34.3397H36.3154C37.0993 34.3397 37.8511 34.0307 38.4054 33.4805C38.9597 32.9304 39.2711 32.1843 39.2711 31.4063V25.7284H37.3006V31.4063ZM10.699 25.7284V31.4063C10.699 31.6656 10.8028 31.9143 10.9875 32.0977C11.1723 32.2811 11.4229 32.3841 11.6842 32.3841H19.7203V34.3397H11.6842C10.9003 34.3397 10.1485 34.0307 9.59421 33.4805C9.03992 32.9304 8.72852 32.1843 8.72852 31.4063V25.7284H10.699Z" fill="white"/>
</g>
</svg>
