<svg width="48" height="48" viewBox="0 0 48 48" fill="none" xmlns="http://www.w3.org/2000/svg">
<g opacity="1">
<path fill-rule="evenodd" clip-rule="evenodd" d="M40.3426 29.3753C39.7909 30.842 38.7351 31.432 37.1719 31.3554C35.7334 31.2837 34.2868 31.3081 32.8467 31.3554C32.431 31.3796 32.0357 31.5427 31.7252 31.8182C30.0474 33.4375 28.3904 35.0748 26.7306 36.7146L26.7303 36.7149L26.7303 36.715L26.7302 36.7151L26.7301 36.7151L26.7301 36.7152L26.73 36.7153C26.1516 37.2867 25.5729 37.8585 24.9929 38.43C24.2014 39.209 23.8435 39.1568 23.3508 38.1822C23.1197 37.7253 22.8878 37.2689 22.6559 36.8124L22.6553 36.8112C21.8477 35.2214 21.04 33.6316 20.2671 32.0252C20.0027 31.476 19.6842 31.3114 19.0881 31.3196C16.6513 31.3474 14.2133 31.3408 11.7761 31.3342C11.3557 31.3331 10.9354 31.3319 10.515 31.331C8.63983 31.331 7.65625 30.345 7.65625 28.4757V12.0336C7.65625 10.0258 8.6267 9.05456 10.6563 9.05456C12.7719 9.05456 14.8877 9.05568 17.0035 9.05681C23.7044 9.06038 30.4061 9.06394 37.1078 9.03174C38.6973 9.03174 39.7827 9.55162 40.3328 11.0526L40.3426 29.3753ZM24.5988 36.0913C25.0554 35.6335 25.5085 35.18 25.9584 34.7296C27.5906 33.0957 29.1814 31.5031 30.7531 29.8985C30.9223 29.7111 31.1321 29.5642 31.3668 29.4691C31.6015 29.3739 31.8548 29.333 32.1078 29.3492C32.961 29.366 33.815 29.3632 34.669 29.3604C35.5572 29.3575 36.4454 29.3546 37.3328 29.3737C38.0783 29.3884 38.3426 29.1146 38.3393 28.3796C38.3207 22.9472 38.3207 17.5198 38.3393 12.0972C38.3393 11.3182 38.0586 11.0705 37.2835 11.0721C28.4373 11.0917 19.5917 11.096 10.7466 11.0852C9.77119 11.0852 9.68252 11.1732 9.68252 12.1608V28.2818C9.68252 29.2906 9.76134 29.3607 10.8221 29.3607C11.6675 29.3607 12.5129 29.3618 13.3582 29.3629C15.7247 29.3661 18.0911 29.3692 20.4576 29.3476C21.0356 29.3476 21.3164 29.535 21.561 30.0419C22.2818 31.5308 23.0339 33.0104 23.8295 34.5756L23.8295 34.5757C24.0815 35.0714 24.3378 35.5755 24.5988 36.0913ZM31.1745 19.6493C30.7595 19.6493 30.3446 19.6469 29.9297 19.6445C28.9292 19.6388 27.9287 19.633 26.9282 19.6607C26.181 19.6819 26.0809 19.2956 26.0973 18.6991C26.0984 18.6571 26.0991 18.6154 26.0998 18.5741C26.1083 18.0581 26.1156 17.6144 26.8986 17.6219C29.7579 17.6469 32.6162 17.6469 35.4733 17.6219C36.2845 17.6219 36.3058 18.0799 36.3206 18.6747C36.3354 19.3266 36.1925 19.6884 35.4208 19.6623C34.4228 19.6301 33.4232 19.6369 32.4237 19.6436C32.0072 19.6465 31.5908 19.6493 31.1745 19.6493ZM20.0652 19.6444C20.3978 19.6468 20.7304 19.6493 21.0631 19.6493C21.3806 19.6493 21.6983 19.6466 22.0162 19.644H22.0162H22.0162H22.0162H22.0162H22.0163C22.7587 19.6378 23.5025 19.6317 24.2486 19.6591C24.981 19.6802 25.1156 19.3021 25.1041 18.7024L25.1013 18.6122C25.0853 18.0812 25.0713 17.6143 24.2831 17.6235C22.0817 17.6464 19.8808 17.6464 17.6805 17.6235C16.9301 17.6154 16.8562 18.0163 16.8595 18.6144C16.8628 19.2125 16.9169 19.6851 17.7215 19.6591C18.5015 19.6328 19.2831 19.6385 20.0652 19.6444ZM24.0734 23.6971H24.0734H24.0734H24.0734H24.0733C23.3121 23.6909 22.5508 23.6847 21.791 23.7121C21.0521 23.7366 20.9355 23.3389 20.9437 22.7457L20.9442 22.7144C20.9519 22.1355 20.9582 21.6654 21.7648 21.675C23.9388 21.7011 26.1134 21.7011 28.2886 21.675C29.0603 21.6652 29.1884 22.058 29.1818 22.6903C29.1753 23.3226 29.1096 23.748 28.3099 23.7154C27.5468 23.6821 26.7821 23.6892 26.0169 23.6964C25.6954 23.6994 25.3738 23.7023 25.0521 23.7023C24.726 23.7023 24.3998 23.6997 24.0735 23.6971H24.0735H24.0734ZM14.7491 23.6972C15.1114 23.6998 15.4738 23.7023 15.8361 23.7023C16.2003 23.7023 16.5644 23.6995 16.9285 23.6967H16.9285H16.9285C17.6791 23.691 18.4291 23.6853 19.1777 23.7039C19.8755 23.7267 19.9987 23.3568 19.9757 22.7913C19.9731 22.7256 19.9725 22.6594 19.9719 22.5937C19.9676 22.1196 19.9635 21.6733 19.2122 21.6733C16.9834 21.6863 14.7551 21.6863 12.5274 21.6733C11.7755 21.669 11.7717 22.1175 11.7676 22.5919C11.7671 22.6582 11.7665 22.7251 11.7639 22.7913C11.7409 23.3763 11.8936 23.7219 12.5751 23.7023C13.2997 23.6871 14.0244 23.6922 14.7491 23.6972ZM33.2795 21.6847C33.5334 21.6847 33.7874 21.686 34.0414 21.6873H34.0415C34.5494 21.6898 35.0573 21.6923 35.5652 21.6847C36.3134 21.6709 36.3121 22.1497 36.3108 22.6464C36.3107 22.6678 36.3106 22.6892 36.3106 22.7107C36.3106 22.7202 36.3107 22.7297 36.3107 22.7392L36.3107 22.7534C36.3124 23.2752 36.3138 23.717 35.575 23.717C34.025 23.6931 32.4738 23.6931 30.9215 23.717C30.176 23.7284 30.1777 23.2688 30.1875 22.7489C30.1886 22.6918 30.1883 22.6343 30.188 22.5771V22.5771C30.1857 22.1135 30.1836 21.6737 30.91 21.6896C31.399 21.6947 31.8881 21.6916 32.3771 21.6885L32.3775 21.6885C32.6782 21.6866 32.9788 21.6847 33.2795 21.6847ZM12.8354 19.6493H13.8206C14.0527 19.6485 14.2865 19.646 14.5187 19.6435C14.7466 19.6411 14.973 19.6387 15.195 19.6379C15.8851 19.6525 15.881 19.2212 15.8769 18.776C15.8764 18.7265 15.876 18.6767 15.8765 18.6275C15.8768 18.595 15.8774 18.5625 15.878 18.53C15.8861 18.0693 15.8941 17.617 15.1885 17.617C14.3477 17.6333 13.5054 17.648 12.6663 17.617C12.0078 17.5909 11.7369 17.8387 11.7484 18.5085C11.7681 19.5303 11.8502 19.6493 12.8354 19.6493Z" fill="white"/>
</g>
</svg>
