<svg width="48" height="48" viewBox="0 0 48 48" fill="none" xmlns="http://www.w3.org/2000/svg">
<g opacity="1">
<path fill-rule="evenodd" clip-rule="evenodd" d="M24.5119 33.8511C24.7008 33.9221 24.901 33.9585 25.103 33.9587C25.4458 33.9617 25.7814 33.8611 26.0652 33.6702C26.2863 33.5201 26.4674 33.3191 26.5932 33.0844C26.719 32.8497 26.7858 32.5883 26.7877 32.3224V32.311V15.9423V15.9338C26.7878 15.502 26.7878 14.6228 26.0619 14.2099C25.3312 13.7944 24.5513 14.2474 24.1342 14.4919L23.3871 14.9254C23.3157 14.9668 23.2442 15.0083 23.1727 15.0499C21.8375 15.8253 20.4658 16.6218 19.1785 17.5329C17.3148 18.8464 15.7697 19.6075 13.8288 19.3256C12.9601 19.2001 12.4002 19.4999 12.0849 19.7737C11.7401 20.0736 11.3329 20.6489 11.346 21.6935V24.5194V25.7727C11.346 26.8532 11.3493 27.7088 11.9306 28.2922C12.5119 28.8756 13.3674 28.8822 14.4495 28.8903H14.8518L14.8754 28.8902C15.7838 28.8853 16.5046 28.8814 17.19 29.3662C18.8715 30.5347 20.6449 31.6152 22.3608 32.6533C22.8206 32.9314 23.2787 33.2096 23.7352 33.4877C23.9815 33.6337 24.2416 33.7555 24.5119 33.8511ZM18.3345 27.7674C17.2212 26.9868 16.0948 26.933 15.0866 26.933L15.0784 26.9395H14.4642C14.0952 26.9449 13.7262 26.9286 13.3592 26.8907C13.3225 26.5208 13.3083 26.1491 13.3165 25.7776V24.5292C13.3263 23.5954 13.3296 22.6273 13.3165 21.6723C13.3046 21.5318 13.3265 21.3905 13.3805 21.26C13.4349 21.252 13.4903 21.252 13.5447 21.26C15.1621 21.4963 17.103 21.4002 20.3247 19.1186C21.6071 18.2109 23.016 17.3944 24.3805 16.6056L24.8206 16.3514V31.8482C24.8058 31.8405 24.7915 31.8318 24.7779 31.8221L23.3953 30.9828L23.3482 30.9544C21.6748 29.943 19.945 28.8976 18.3345 27.7674ZM31.6093 26.5246C31.7736 26.3462 31.9403 26.1653 32.1098 25.9813C32.4002 26.2787 32.6752 26.5591 32.9391 26.8283C33.5706 27.4724 34.1386 28.0519 34.7026 28.6426C35.1903 29.1495 35.7453 29.5569 36.3594 28.9295C36.9522 28.3297 36.499 27.8099 36.031 27.3666C35.4591 26.8272 34.8842 26.2907 34.2849 25.7314C33.9861 25.4526 33.6812 25.1681 33.3676 24.8748C33.5623 24.6889 33.7507 24.5091 33.934 24.3341C34.728 23.5762 35.4266 22.9095 36.123 22.2395C36.5745 21.806 36.9193 21.3024 36.3709 20.7565C35.7978 20.1845 35.2576 20.4957 34.788 20.9847C34.5948 21.1875 34.4017 21.3902 34.2064 21.5952C33.5716 22.2615 32.9142 22.9515 32.1607 23.7454C31.8714 23.435 31.5939 23.1381 31.3248 22.8502C30.725 22.2084 30.1671 21.6115 29.6139 21.0107C29.1574 20.5153 28.6221 20.1519 28.0409 20.7109C27.4596 21.2698 27.7978 21.8174 28.2905 22.2835C28.9429 22.8942 29.5916 23.5094 30.2897 24.1715C30.5157 24.3859 30.7469 24.6051 30.985 24.8307C30.008 25.7743 29.1574 26.5892 28.3003 27.4041C27.8159 27.8653 27.4317 28.3933 28.0376 28.9637C28.6172 29.5096 29.1673 29.1641 29.6221 28.6752C30.2731 27.9753 30.9207 27.2721 31.6093 26.5246Z" fill="white"/>
</g>
</svg>
