<svg width="48" height="48" viewBox="0 0 48 48" fill="none" xmlns="http://www.w3.org/2000/svg">
<g opacity="1">
<path fill-rule="evenodd" clip-rule="evenodd" d="M16 11.25L24 5.75V10.25C32.8366 10.25 40 17.4134 40 26.25C40 35.0866 32.8366 42.25 24 42.25C15.1634 42.25 8 35.0866 8 26.25C8 22.8034 9.0898 19.6112 10.9436 16.9995L12.6281 18.0824C10.9742 20.3812 10 23.2018 10 26.25C10 33.982 16.268 40.25 24 40.25C31.732 40.25 38 33.982 38 26.25C38 18.518 31.732 12.25 24 12.25V16.75L16 11.25ZM30.6692 26.498V24.9805C30.6692 24.3288 30.6214 23.7614 30.5257 23.2783C30.43 22.7952 30.291 22.3874 30.1087 22.0547C29.9309 21.7174 29.7145 21.4486 29.4593 21.248C29.204 21.043 28.9124 20.8949 28.5843 20.8037C28.2607 20.708 27.9052 20.6602 27.5179 20.6602C27.0393 20.6602 26.6064 20.7331 26.219 20.8789C25.8362 21.0247 25.5081 21.2663 25.2346 21.6035C24.9612 21.9362 24.7493 22.3783 24.5989 22.9297C24.4531 23.4811 24.3802 24.1647 24.3802 24.9805V26.498C24.3802 27.1497 24.428 27.7194 24.5237 28.207C24.6194 28.6947 24.7584 29.1094 24.9407 29.4512C25.123 29.793 25.3417 30.071 25.597 30.2852C25.8567 30.4948 26.1484 30.6475 26.472 30.7432C26.7955 30.8389 27.1487 30.8867 27.5315 30.8867C28.0146 30.8867 28.4475 30.8115 28.8304 30.6611C29.2177 30.5062 29.5481 30.2578 29.8216 29.916C30.095 29.5742 30.3046 29.123 30.4505 28.5625C30.5963 28.002 30.6692 27.3138 30.6692 26.498ZM29.3977 24.7686V26.7031C29.3977 27.2591 29.359 27.7376 29.2815 28.1387C29.204 28.5352 29.0856 28.861 28.9261 29.1162C28.7711 29.3669 28.5774 29.5514 28.345 29.6699C28.1126 29.7884 27.8414 29.8477 27.5315 29.8477C27.29 29.8477 27.069 29.8112 26.8684 29.7383C26.6725 29.6608 26.4993 29.5423 26.3489 29.3828C26.1985 29.2233 26.0709 29.0205 25.9661 28.7744C25.8613 28.5238 25.7815 28.2275 25.7268 27.8857C25.6767 27.5439 25.6516 27.1497 25.6516 26.7031V24.7686C25.6516 24.208 25.6927 23.7318 25.7747 23.3398C25.8567 22.9479 25.9752 22.6312 26.1302 22.3896C26.2897 22.1481 26.4856 21.9727 26.718 21.8633C26.9505 21.7493 27.2171 21.6924 27.5179 21.6924C27.7639 21.6924 27.985 21.7288 28.1809 21.8018C28.3815 21.8701 28.5569 21.9795 28.7073 22.1299C28.8623 22.2803 28.9899 22.4762 29.0901 22.7178C29.1904 22.9593 29.2656 23.251 29.3157 23.5928C29.3704 23.93 29.3977 24.3219 29.3977 24.7686ZM20.9824 30.75V20.7422H20.7842L17.168 22.1094V23.251L19.7178 22.3213V30.75H20.9824Z" fill="white"/>
</g>
</svg>
