<svg width="48" height="48" viewBox="0 0 48 48" fill="none" xmlns="http://www.w3.org/2000/svg">
<g opacity="1">
<path fill-rule="evenodd" clip-rule="evenodd" d="M11.2881 25.5805C10.3078 26.2748 9.81193 27.2232 9.78237 28.571C9.79284 28.6238 9.79926 28.6899 9.80645 28.7639C9.82632 28.9686 9.85214 29.2344 9.98598 29.451C10.1323 29.7187 10.2763 29.9884 10.4205 30.2582C10.9804 31.306 11.5419 32.357 12.2405 33.3069C12.9942 34.3353 14.1962 34.6971 15.4737 34.3711C15.9397 34.2555 16.3807 34.0348 16.8186 33.8158C16.9424 33.7539 17.0659 33.6921 17.1896 33.6329C18.1453 33.1733 18.9696 33.6345 19.0155 34.6759C19.0155 34.7659 19.0143 34.8562 19.013 34.9465C19.0104 35.1276 19.0079 35.3092 19.0155 35.4907C19.0829 37.2019 20.1371 38.5154 21.8481 38.7892C22.6542 38.9187 23.4852 38.9093 24.3122 38.9C24.5263 38.8976 24.7401 38.8952 24.9532 38.8952C27.651 38.9049 28.9712 37.6012 29.009 34.9203C29.0287 33.5481 29.8448 33.082 31.055 33.7534C31.1019 33.7808 31.1482 33.8084 31.1942 33.836C31.2883 33.8923 31.3816 33.9481 31.4786 33.9995C33.2668 34.9497 35.1732 34.4461 36.2405 32.7284C36.542 32.2459 36.8262 31.7506 37.1104 31.2553C37.2456 31.0196 37.3809 30.7838 37.518 30.5495C38.8152 28.3331 38.3259 26.5013 36.0927 25.1975C34.8464 24.4723 34.8333 23.5303 36.0566 22.8133C36.1152 22.7789 36.1739 22.7456 36.2325 22.7123C36.3381 22.6524 36.4437 22.5924 36.5492 22.5264C38.1847 21.4802 38.6888 19.6256 37.7693 17.9095C37.2701 16.9773 36.738 16.0581 36.1732 15.1634C35.1683 13.5696 33.2783 13.0807 31.5853 13.9428C31.4671 14.003 31.3516 14.0687 31.2362 14.1343C31.1143 14.2036 30.9926 14.2728 30.8678 14.3356C29.8678 14.844 29.0517 14.3795 29.0057 13.2779V12.626C28.9548 10.5563 27.5 9.12865 25.4031 9.09932C24.8372 9.0928 24.272 9.09497 23.7066 9.09714C23.4238 9.09823 23.141 9.09932 22.8579 9.09932C20.4392 9.10583 19.0271 10.4911 19.009 12.8737C18.9948 14.5371 18.2553 14.9581 16.7906 14.1367C16.5545 14.0007 16.3092 13.8809 16.0566 13.7782C14.5114 13.1785 12.8431 13.656 11.94 15.0331C11.2792 16.0303 10.6761 17.0641 10.1338 18.1295C9.35216 19.6663 9.88418 21.459 11.3226 22.4368C11.5032 22.559 11.6921 22.6698 11.8793 22.779C13.2093 23.5515 13.1962 24.4478 11.8431 25.235C11.8191 25.2492 11.7949 25.2635 11.7708 25.2777C11.6072 25.3742 11.4427 25.4712 11.2881 25.5805ZM14.3708 15.8932C14.4746 15.8161 14.579 15.7384 14.6789 15.6556C14.8543 15.7411 15.0131 15.8157 15.1602 15.8848C15.4029 15.9988 15.6138 16.0979 15.8152 16.2064C18.5788 17.7465 21.2849 16.1771 21.3062 13.0204C21.3144 11.6922 21.6461 11.3662 23.0188 11.3662C23.2832 11.3662 23.5476 11.3639 23.8119 11.3615C24.3407 11.3568 24.8694 11.3521 25.3981 11.3662C26.2651 11.3907 26.6822 11.8274 26.7118 12.6944C26.6987 13.1298 26.7174 13.5655 26.7676 13.9982C26.8607 14.5218 27.0754 15.0167 27.3948 15.4436C27.7141 15.8705 28.1293 16.2177 28.6074 16.4576C29.0855 16.6976 29.6133 16.8237 30.149 16.8259C30.6847 16.8281 31.2136 16.7064 31.6937 16.4705C31.8629 16.3874 32.0256 16.2948 32.188 16.2023C32.3094 16.1333 32.4306 16.0643 32.5542 15.9995C33.3078 15.6051 33.8382 15.7159 34.2931 16.4525C34.6484 17.028 34.9857 17.6174 35.3229 18.2067C35.4174 18.3717 35.5118 18.5368 35.6067 18.7015C36.1633 19.6696 36.0303 20.2286 35.032 20.7664C33.8842 21.384 33.0681 22.2168 32.917 23.5629C32.7594 24.9612 33.2848 26.0531 34.4343 26.8533C34.5688 26.9465 34.7127 27.0263 34.857 27.1064C34.9752 27.1721 35.0938 27.2379 35.2077 27.3112C35.9679 27.8002 36.1321 28.3429 35.7101 29.1039C35.2619 29.9123 34.789 30.7206 34.3111 31.4963C33.8333 32.2721 33.3259 32.3601 32.5049 31.9852C32.4136 31.9435 32.3218 31.9007 32.2296 31.8578C31.6306 31.5787 31.0135 31.2913 30.3817 31.2193C28.4507 31.0025 26.7988 32.51 26.7101 34.4379C26.7101 34.5366 26.7112 34.6357 26.7123 34.7349C26.7145 34.9339 26.7167 35.1336 26.7101 35.3326C26.6789 36.154 26.2668 36.5989 25.4458 36.6217C24.4901 36.6462 23.5312 36.6462 22.5738 36.6217C21.7512 36.6006 21.339 36.1556 21.3128 35.3408C21.3068 35.2052 21.3076 35.0693 21.3084 34.9334C21.3094 34.7703 21.3104 34.6071 21.2996 34.4444C21.1272 31.8891 18.4622 30.3213 16.2339 31.6022C14.518 32.5882 14.0549 32.3177 13.2044 30.6701C13.0575 30.3846 12.8905 30.1086 12.7236 29.8327C12.5808 29.5966 12.438 29.3605 12.3078 29.1186C11.8875 28.3412 12.0435 27.8018 12.8004 27.3259C12.9129 27.2556 13.0287 27.1888 13.1445 27.122C13.289 27.0386 13.4336 26.9552 13.5722 26.8647C15.674 25.4794 15.7003 22.4205 13.5246 21.1428C12.0221 20.2595 11.5985 19.8749 12.8103 18.0056C12.9433 17.7992 13.0622 17.5832 13.1809 17.3674C13.3509 17.0583 13.5207 16.7497 13.7315 16.4705C13.8994 16.2437 14.1334 16.0697 14.3708 15.8932ZM26.7927 19.884C25.9737 19.3368 25.0096 19.0427 24.0223 19.0389C22.695 19.0389 21.4217 19.5609 20.4815 20.4908C19.5413 21.4206 19.0106 22.6823 19.0059 23.9997C19.0062 24.9796 19.299 25.9375 19.8474 26.7524C20.3958 27.5673 21.1751 28.2026 22.087 28.5783C22.9989 28.954 24.0025 29.0531 24.9712 28.8631C25.9398 28.6732 26.83 28.2027 27.5294 27.511C28.2288 26.8193 28.7061 25.9375 28.901 24.9769C29.0959 24.0162 28.9996 23.0198 28.6244 22.1134C28.2492 21.207 27.6118 20.4312 26.7927 19.884ZM22.5079 21.7784C22.9501 21.4824 23.4708 21.323 24.0042 21.3205V21.3188C24.3602 21.3158 24.7132 21.3829 25.0428 21.5164C25.3725 21.6498 25.6721 21.8468 25.9245 22.096C26.1768 22.3452 26.3768 22.6417 26.5128 22.9682C26.6488 23.2947 26.7182 23.6447 26.7169 23.9981C26.7172 24.5275 26.5594 25.0451 26.2636 25.4856C25.9677 25.9262 25.547 26.2698 25.0546 26.4732C24.5621 26.6766 24.0199 26.7307 23.4965 26.6285C22.9731 26.5264 22.4919 26.2727 22.1137 25.8993C21.7355 25.526 21.4772 25.0498 21.3714 24.5309C21.2657 24.012 21.3172 23.4736 21.5194 22.9838C21.7217 22.4939 22.0656 22.0744 22.5079 21.7784Z" fill="white"/>
</g>
</svg>
