<svg width="48" height="48" viewBox="0 0 48 48" fill="none" xmlns="http://www.w3.org/2000/svg">
<g opacity="1">
<path fill-rule="evenodd" clip-rule="evenodd" d="M26.2346 33.9993C26.047 33.9993 25.861 33.9645 25.6862 33.8966C25.3111 33.7631 24.9489 33.5962 24.6041 33.3979L23.3923 32.6662C21.9144 31.7813 20.4037 30.8735 18.9587 29.8582C17.8241 29.0613 16.7469 28.737 15.4661 28.8022C14.4809 28.8543 13.5334 28.9016 12.9045 28.3133C12.2837 27.7325 12.2838 26.869 12.2839 25.7886L12.2839 25.7465V24.5063C12.2839 24.293 12.2844 24.0782 12.2849 23.8623C12.2867 23.1379 12.2884 22.4024 12.2707 21.6804C12.2444 20.6048 12.6599 20.0148 13.0146 19.7101C13.3315 19.4363 13.8881 19.1413 14.742 19.2831C16.7847 19.6221 18.2937 18.7225 20.3643 17.3112C21.6105 16.4615 22.9189 15.6893 24.1857 14.9417L24.1857 14.9417L24.2412 14.909L25.1148 14.394C25.3857 14.231 26.21 13.7421 26.9768 14.1756C27.4694 14.4576 27.7289 14.9905 27.7272 15.7532V23.9017V32.5489C27.7297 32.5918 27.7297 32.6347 27.7272 32.6776C27.7067 32.9025 27.6333 33.1194 27.513 33.311C27.3926 33.5027 27.2287 33.6636 27.0343 33.7809C26.7933 33.9259 26.5164 34.0015 26.2346 33.9993ZM15.7945 26.8384C17.3479 26.8384 18.7272 27.2963 20.1033 28.2611C21.4793 29.2259 22.9735 30.1271 24.4136 30.9941L25.6336 31.7308C25.6664 31.752 25.7016 31.7707 25.7383 31.7902L25.7551 31.7992V23.8968V16.2877L25.2461 16.5876L25.2226 16.6014C23.9721 17.3386 22.6803 18.1002 21.4793 18.9197L21.4757 18.9221C19.562 20.2253 17.392 21.7029 14.4185 21.2013C14.3802 21.1935 14.341 21.1903 14.3019 21.1915C14.2513 21.3284 14.2305 21.4746 14.2412 21.6201C14.2658 22.5865 14.2609 23.5627 14.256 24.5063V25.7351C14.2482 26.1071 14.2619 26.4793 14.297 26.8498C14.653 26.8713 15.01 26.8713 15.366 26.8498C15.512 26.8384 15.6531 26.8384 15.7926 26.8384H15.7929H15.7945ZM31.0078 17.6094L31.9323 16.4539C36.9963 19.9855 37.0062 28.2399 31.9192 31.6265L31.0226 30.4857C32.9799 28.7696 34.1737 26.695 34.1704 24.0467C34.1671 21.4229 33.0193 19.3629 31.0078 17.6094ZM28.6661 28.3996L29.5347 29.5502C33.2622 26.695 33.2047 20.7726 29.4773 18.6019L28.6562 19.6954C31.2704 22.1709 31.5495 25.5395 28.6661 28.3996Z" fill="white"/>
</g>
</svg>
