<svg width="48" height="48" viewBox="0 0 48 48" fill="none" xmlns="http://www.w3.org/2000/svg">
<path fill-rule="evenodd" clip-rule="evenodd" d="M24.5128 33.8511C24.7017 33.9221 24.902 33.9585 25.104 33.9587C25.4468 33.9617 25.7824 33.8611 26.0662 33.6702C26.2873 33.5201 26.4684 33.3191 26.5942 33.0844C26.72 32.8497 26.7868 32.5883 26.7887 32.3224V32.311V15.9423V15.9337C26.7887 15.502 26.7888 14.6227 26.0629 14.2099C25.3322 13.7943 24.5522 14.2474 24.1352 14.4919L23.388 14.9253C23.3167 14.9668 23.2452 15.0083 23.1737 15.0499C21.8385 15.8253 20.4668 16.6218 19.1795 17.5329C17.3158 18.8464 15.7706 19.6075 13.8298 19.3255C12.9611 19.2001 12.4012 19.4999 12.0859 19.7737C11.7411 20.0736 11.3339 20.6489 11.347 21.6935V24.5194V25.7727C11.347 26.8532 11.3503 27.7087 11.9316 28.2922C12.5128 28.8756 13.3683 28.8821 14.4504 28.8903H14.8527L14.8764 28.8902C15.7848 28.8853 16.5056 28.8814 17.191 29.3661C18.8724 30.5346 20.6458 31.6151 22.3618 32.6533C22.8215 32.9314 23.2797 33.2095 23.7361 33.4877C23.9824 33.6337 24.2426 33.7554 24.5128 33.8511ZM18.3355 27.7674C17.2222 26.9868 16.0958 26.933 15.0876 26.933L15.0793 26.9395H14.4652C14.0962 26.9449 13.7272 26.9285 13.3601 26.8906C13.3235 26.5208 13.3092 26.1491 13.3174 25.7775V24.5292C13.3273 23.5954 13.3306 22.6273 13.3174 21.6723C13.3056 21.5318 13.3275 21.3905 13.3815 21.26C13.4359 21.252 13.4912 21.252 13.5457 21.26C15.1631 21.4963 17.104 21.4002 20.3257 19.1186C21.6081 18.2108 23.0169 17.3944 24.3815 16.6056L24.8216 16.3513V31.8482C24.8067 31.8405 24.7925 31.8318 24.7789 31.8221L23.3963 30.9828L23.3492 30.9544C21.6758 29.943 19.946 28.8976 18.3355 27.7674ZM31.6104 26.5245C31.7747 26.3461 31.9413 26.1653 32.1108 25.9813C32.4012 26.2786 32.6762 26.5591 32.9401 26.8283C33.5715 27.4724 34.1396 28.0518 34.7036 28.6426C35.1913 29.1494 35.7463 29.5569 36.3604 28.9294C36.9532 28.3297 36.5 27.8098 36.032 27.3666C35.46 26.8272 34.8851 26.2907 34.2858 25.7314C33.987 25.4526 33.6822 25.1681 33.3686 24.8747C33.5632 24.6889 33.7516 24.5091 33.935 24.3341C34.729 23.5762 35.4276 22.9095 36.1239 22.2395C36.5755 21.806 36.9203 21.3024 36.3719 20.7565C35.7988 20.1844 35.2586 20.4957 34.789 20.9846C34.5957 21.1876 34.4024 21.3904 34.207 21.5955C33.5723 22.2617 32.915 22.9516 32.1617 23.7453C31.8723 23.4349 31.5947 23.1379 31.3256 22.8499C30.7258 22.2082 30.168 21.6114 29.6149 21.0107C29.1584 20.5153 28.6231 20.1518 28.0418 20.7108C27.4606 21.2698 27.7988 21.8174 28.2914 22.2835C28.9439 22.8941 29.5926 23.5094 30.2907 24.1715C30.5167 24.3859 30.7479 24.6051 30.986 24.8307C30.009 25.7743 29.1584 26.5892 28.3013 27.404C27.8169 27.8652 27.4326 28.3933 28.0386 28.9637C28.6182 29.5096 29.1683 29.1641 29.6231 28.6752C30.2741 27.9752 30.9218 27.272 31.6104 26.5245Z" fill="white"/>
</svg>
