<svg width="20" height="20" viewBox="0 0 20 20" fill="none" xmlns="http://www.w3.org/2000/svg">
<path fill-rule="evenodd" clip-rule="evenodd" d="M12.0368 0.485557C12.0172 0.31815 11.9768 0.154686 11.9166 0L8.39742 0.00614759C8.36067 0.161197 8.33598 0.319551 8.32364 0.479414V3.4327C8.3394 3.73482 8.25937 4.03342 8.09777 4.2754C7.93617 4.51737 7.70349 4.68701 7.44112 4.75415C6.96298 4.89551 6.59685 4.6681 6.26078 4.30547C5.56648 3.5611 4.86897 2.81913 4.17159 2.07731C3.75476 1.63391 3.33797 1.19056 2.92195 0.746776C2.75453 0.549685 2.53647 0.416453 2.29834 0.365751C2.06022 0.31505 1.81396 0.349422 1.59407 0.464047C1.3687 0.562727 1.17748 0.740235 1.0486 0.970406C0.919711 1.20058 0.85998 1.47123 0.878212 1.74247V19.4653C0.878212 19.957 0.913737 20 1.36183 20H4.05858C4.57224 20 4.59137 19.9785 4.59137 19.413V6.65028C4.58893 6.49796 4.59899 6.3457 4.62142 6.19545C4.65703 5.97878 4.74207 5.77622 4.86819 5.60762C4.99432 5.43901 5.15721 5.31015 5.34092 5.23363C5.52463 5.15711 5.72286 5.13556 5.9162 5.17111C6.10954 5.20665 6.29136 5.29806 6.44385 5.43639C6.6021 5.57925 6.75082 5.73996 6.8997 5.90083C6.94618 5.95105 6.99268 6.0013 7.03948 6.05101L9.9958 9.19484C10.1638 9.39197 10.3827 9.52472 10.6215 9.57435C10.8602 9.62398 11.1068 9.58797 11.3264 9.47142C11.5512 9.3706 11.7414 9.19153 11.8692 8.9604C11.997 8.72927 12.0558 8.45821 12.0368 8.18685V0.485557ZM19.3676 0.454828C19.3472 0.298221 19.3086 0.145301 19.2528 0H15.7309C15.6807 0.172915 15.646 0.35101 15.6271 0.531657V6.15858V13.5095C15.6458 13.8245 15.5561 14.1354 15.3765 14.378C15.197 14.6206 14.9414 14.7762 14.6626 14.8125C14.2036 14.9109 13.8648 14.6466 13.5506 14.3116C12.4449 13.1315 11.3393 11.9545 10.2336 10.7806C10.0656 10.5835 9.84668 10.4507 9.60792 10.4011C9.36916 10.3514 9.12257 10.3874 8.90298 10.504C8.68238 10.6012 8.49494 10.7747 8.36774 10.9995C8.24055 11.2244 8.18016 11.4888 8.19532 11.7548V19.5267C8.19532 19.8556 8.29642 19.9969 8.59423 19.9969H11.5396C11.8183 19.9969 11.9194 19.8556 11.9194 19.5482C11.903 18.5526 11.9003 17.5569 11.9194 16.5612C11.9196 16.3053 11.9749 16.0532 12.0806 15.8267C12.4768 15.0307 13.3074 14.9693 13.944 15.6454C14.6993 16.4452 15.4521 17.2479 16.2057 18.0515C16.5726 18.4427 16.9397 18.8341 17.3074 19.2256C17.4765 19.429 17.6992 19.5659 17.9427 19.6163C18.1862 19.6666 18.4376 19.6277 18.6599 19.5052C18.8802 19.4057 19.0671 19.2308 19.1941 19.0052C19.3211 18.7797 19.3818 18.5148 19.3676 18.2483V0.454828Z" fill="white"/>
</svg>
