<svg width="24" height="24" viewBox="0 0 24 24"  xmlns="http://www.w3.org/2000/svg">
<path fill-rule="evenodd"
  clip-rule="evenodd"
  d="M11.9582 3.5141C11.9677 3.5052 11.9806 3.49997 11.9944 3.49997C12.0081 3.49997 12.021 3.5052 12.0305 3.5141L12.0305 3.51411L12.0336 3.51699L20.154 10.9982V19.8423V19.8425C20.154 20.0194 20.0876 20.186 19.974 20.3076C19.8625 20.4269 19.7151 20.4935 19.5636 20.5H15.1097C15.1133 20.4746 15.1151 20.4488 15.1151 20.4225V12.5775C15.1151 12.2585 14.845 12 14.5118 12H9.48771C9.15449 12 8.88435 12.2585 8.88435 12.5775V20.4225C8.88435 20.4488 8.88619 20.4746 8.88974 20.5H4.44072C4.28829 20.4946 4.13973 20.4283 4.0274 20.3086C3.91313 20.1869 3.84621 20.0199 3.84626 19.8424V19.8423V10.974L11.9548 3.5173L11.9548 3.51731L11.9582 3.5141ZM2.84626 11.8937L1.60757 13.0328L0.930664 12.2967L11.2765 2.78254C11.4714 2.6008 11.7281 2.49997 11.9944 2.49997C12.2608 2.49997 12.5175 2.60087 12.7125 2.78274L12.7143 2.78442L18.0767 7.72481V5.07693H19.0767V8.53847H18.9599L23.0694 12.3245L22.3919 13.06L21.154 11.9195V19.8421V19.8423C21.1541 20.2676 20.9949 20.6796 20.7047 20.9902C20.414 21.3014 20.014 21.4865 19.5881 21.4998L19.5804 21.5H19.5726H4.43323H4.42024L4.42025 21.4998C3.99298 21.4887 3.59084 21.3046 3.29836 20.9931C3.00649 20.6822 2.84616 20.2689 2.84626 19.8423L2.84626 19.8421L2.84626 11.8937Z"

  fill="orange"
  />
</svg>
