<svg width="26" height="24" viewBox="0 0 26 24" fill="none" xmlns="http://www.w3.org/2000/svg">
<path fill-rule="evenodd" clip-rule="evenodd" d="M1.99698 7.02573C2.65847 5.46967 3.62354 4.09345 4.82555 2.99959L5.4986 3.73918C4.40813 4.73155 3.52511 5.98713 2.91728 7.41695C2.30943 8.84684 1.99316 10.4126 1.99316 12C1.99316 13.5873 2.30943 15.1532 2.91728 16.583C3.52511 18.0129 4.40813 19.2684 5.4986 20.2608L4.82555 21.0004C3.62354 19.9065 2.65847 18.5303 1.99698 16.9743C1.33552 15.4182 0.993164 13.7191 0.993164 12C0.993164 10.2808 1.33552 8.58174 1.99698 7.02573ZM8.84262 5.77217C7.95561 6.49252 7.23845 7.43366 6.74564 8.51526C6.25287 9.59678 5.99707 10.7907 5.99707 12C5.99707 13.2093 6.25287 14.4033 6.74564 15.4848C7.23845 16.5664 7.95561 17.5075 8.84262 18.2279L9.47304 17.4516C8.712 16.8336 8.08777 16.0186 7.65564 15.0702C7.22347 14.1217 6.99707 13.0694 6.99707 12C6.99707 10.9306 7.22347 9.87839 7.65564 8.92988C8.08777 7.98146 8.712 7.16648 9.47304 6.54842L8.84262 5.77217ZM17.1033 5.77217C17.9903 6.49252 18.7075 7.43366 19.2003 8.51526C19.693 9.59678 19.9488 10.7907 19.9488 12C19.9488 13.2093 19.693 14.4033 19.2003 15.4848C18.7075 16.5664 17.9903 17.5075 17.1033 18.2279L16.4729 17.4516C17.2339 16.8336 17.8581 16.0186 18.2903 15.0702C18.7224 14.1217 18.9488 13.0694 18.9488 12C18.9488 10.9306 18.7224 9.87839 18.2903 8.92988C17.8581 7.98146 17.2339 7.16648 16.4729 6.54842L17.1033 5.77217ZM12.9873 14.8455C14.3917 14.8455 15.5303 13.5715 15.5303 12C15.5303 10.4284 14.3917 9.15435 12.9873 9.15435C11.5828 9.15435 10.4443 10.4284 10.4443 12C10.4443 13.5715 11.5828 14.8455 12.9873 14.8455ZM24.004 7.02575C23.3425 5.46969 22.3774 4.09347 21.1754 2.9996L20.5023 3.7392C21.5928 4.73156 22.4758 5.98714 23.0837 7.41697C23.6915 8.84685 24.0078 10.4126 24.0078 12C24.0078 13.5873 23.6915 15.1532 23.0837 16.583C22.4758 18.0129 21.5928 19.2685 20.5023 20.2608L21.1754 21.0004C22.3774 19.9066 23.3425 18.5303 24.004 16.9743C24.6654 15.4183 25.0078 13.7191 25.0078 12C25.0078 10.2808 24.6654 8.58175 24.004 7.02575Z" fill="white"/>
</svg>
