<svg width="24" height="24" viewBox="0 0 24 24" fill="none" xmlns="http://www.w3.org/2000/svg">
<path fill-rule="evenodd" clip-rule="evenodd" d="M6.66601 14C7.77058 14 8.66602 13.1046 8.66602 12C8.66602 10.8954 7.77058 10 6.66601 10C5.56144 10 4.66602 10.8954 4.66602 12C4.66602 13.1046 5.56144 14 6.66601 14ZM11.999 14C13.1036 14 13.999 13.1046 13.999 12C13.999 10.8954 13.1036 10 11.999 10C10.8944 10 9.99902 10.8954 9.99902 12C9.99902 13.1046 10.8944 14 11.999 14ZM19.333 12C19.333 13.1046 18.4376 14 17.333 14C16.2284 14 15.333 13.1046 15.333 12C15.333 10.8954 16.2284 10 17.333 10C18.4376 10 19.333 10.8954 19.333 12Z" fill="white"/>
</svg>
