<svg width="24" height="24" viewBox="0 0 24 24" fill="none" xmlns="http://www.w3.org/2000/svg">
<path fill-rule="evenodd" clip-rule="evenodd" d="M10.3232 15.3232C7.56182 15.3232 5.32324 13.0847 5.32324 10.3232C5.32324 7.5618 7.56182 5.32323 10.3232 5.32323C13.0847 5.32323 15.3232 7.5618 15.3232 10.3232C15.3232 13.0847 13.0847 15.3232 10.3232 15.3232ZM4.32324 10.3232C4.32324 7.00952 7.00953 4.32323 10.3232 4.32323C13.637 4.32323 16.3232 7.00952 16.3232 10.3232C16.3232 11.8001 15.7897 13.1523 14.9048 14.1976L19.6768 18.9697L18.9697 19.6768L14.1977 14.9048C13.1523 15.7896 11.8001 16.3232 10.3232 16.3232C7.00953 16.3232 4.32324 13.6369 4.32324 10.3232Z" fill="white"/>
</svg>
