<svg width="145" height="90" viewBox="0 0 145 90" fill="none" xmlns="http://www.w3.org/2000/svg">
<path d="M32.0576 35.7353C32.0576 33.2144 33.059 30.7968 34.8415 29.0142C36.6241 27.2317 39.0417 26.2302 41.5626 26.2302H48.7749V20.8465H41.4976C37.5632 20.8612 33.7942 22.4306 31.0121 25.2126C28.2301 27.9947 26.6607 31.7637 26.646 35.6981C26.6607 39.6325 28.2301 43.4015 31.0121 46.1836C33.7942 48.9656 37.5632 50.535 41.4976 50.5497H55.4953C55.8616 50.5257 56.2067 50.3694 56.4662 50.1098C56.7258 49.8503 56.8822 49.5051 56.9062 49.1388V21.5519C56.8887 20.8388 57.1065 20.1397 57.5259 19.5626C57.9453 18.9855 58.543 18.5625 59.2267 18.3589C60.0201 18.1736 60.853 18.2649 61.5873 18.6177C62.3217 18.9705 62.9134 19.5637 63.2645 20.2989L72.0362 35.3547L80.4831 49.9186C80.9194 50.6704 81.5227 51.0232 82.0982 50.8468C82.3365 50.7791 82.5441 50.6314 82.6861 50.4285C82.8281 50.2256 82.8959 49.9799 82.8779 49.7329V21.5427C82.8654 20.825 83.0908 20.1235 83.519 19.5475C83.9472 18.9715 84.5541 18.5536 85.2449 18.3589C86.036 18.1699 86.868 18.2586 87.6014 18.6101C88.3349 18.9616 88.9252 19.5545 89.2734 20.2896L97.3675 34.213L106.455 49.8814C106.891 50.6426 107.504 50.986 108.07 50.8096C108.306 50.739 108.512 50.5905 108.654 50.3884C108.795 50.1862 108.864 49.9422 108.85 49.6958V13.1609H103.494V34.937L94.0909 18.823C88.3637 9.10449 77.5406 13.0587 77.5406 21.4963V35.0763L68.1006 18.823C62.3734 9.10449 51.5596 13.0587 51.5596 21.4963V43.7737C51.5646 44.166 51.4141 44.5444 51.141 44.8261C50.868 45.1079 50.4945 45.2701 50.1023 45.2775H41.5812C40.3279 45.2811 39.0863 45.0366 37.928 44.5582C36.7696 44.0797 35.7175 43.3768 34.8321 42.4897C33.9468 41.6027 33.2458 40.5491 32.7696 39.3898C32.2934 38.2305 32.0514 36.9885 32.0576 35.7353Z" fill="white"/>
<path d="M33.5297 35.6217C33.5297 30.3954 37.7103 26.1626 42.8677 26.1626H49.9509V20.8015H42.8082C34.7447 20.8015 28.1832 27.4505 28.1832 35.6217C28.1832 43.7928 34.7447 50.4419 42.8082 50.4419H56.5579C57.3282 50.4419 57.9445 49.6755 57.9445 49.0404V21.5927C57.9445 20.0812 58.8828 18.8039 60.2763 18.4172C61.4668 18.0908 63.1334 18.4207 64.2468 20.3402C64.2994 20.4289 67.6782 26.3293 72.8251 35.3236C76.8656 42.3842 81.0462 49.6861 81.1197 49.8174C81.5504 50.5625 82.1456 50.9138 82.7093 50.7576C83.0665 50.6618 83.4796 50.3106 83.4796 49.6506V21.5927C83.4796 20.0777 84.411 18.8004 85.801 18.4172C86.981 18.0908 88.6406 18.4243 89.754 20.3402C89.803 20.4254 92.7897 25.6446 97.7055 34.2273C102.051 41.8201 106.546 49.6719 106.63 49.8174C107.065 50.5625 107.66 50.9138 108.22 50.7576C108.577 50.6618 108.99 50.3106 108.99 49.6542V13.2974H103.689V34.944C103.689 34.944 94.8345 19.4852 94.4248 18.7826C88.8087 9.10357 78.1821 13.1022 78.1821 21.433V34.944C78.1821 34.944 69.3238 19.4852 68.9176 18.7826C63.298 9.10357 52.6715 13.1022 52.6715 21.433V43.5728C52.6715 44.3783 52.0762 45.0808 51.2079 45.0808H42.8677C37.7103 45.0808 33.5297 40.8444 33.5297 35.6181V35.6217Z" fill="white"/>
<path d="M111.111 13.2969V49.6537C111.111 51.1652 110.173 52.4425 108.78 52.8292C108.524 52.9002 108.244 52.9392 107.957 52.9392C106.899 52.9392 105.688 52.4106 104.813 50.9026C104.767 50.821 101.245 44.6723 95.8807 35.3019C92.0117 28.5428 88.0097 21.5532 87.9361 21.4255C87.5055 20.6804 86.9173 20.3291 86.3641 20.4817C86.0139 20.5775 85.6008 20.9287 85.6008 21.5887V49.6537C85.6008 51.1652 84.6659 52.4425 83.2724 52.8292C82.0819 53.1556 80.4153 52.8257 79.3019 50.9062C79.2564 50.8281 75.9826 45.1122 71.0002 36.4018C66.8231 29.107 62.506 21.5638 62.429 21.429C61.9948 20.6839 61.4031 20.3327 60.8394 20.4888C60.4857 20.5881 60.0691 20.9358 60.0691 21.5958V49.0399C60.0691 50.931 58.4305 52.5844 56.5643 52.5844H42.811C33.578 52.5844 26.0677 44.9738 26.0677 35.6212C26.0677 26.2685 33.578 18.658 42.811 18.658H49.9537V13.2969H42.818C30.6474 13.2969 20.7842 23.2917 20.7842 35.6212C20.7842 47.9507 30.6474 57.9455 42.8145 57.9455H56.7008C61.9773 57.9491 65.3736 54.8161 65.3666 49.0328V36.2989C65.3666 36.2989 74.2214 51.7613 74.6311 52.4602C80.2542 62.1393 90.8773 58.1406 90.8773 49.8063V36.2989C90.8773 36.2989 99.7356 51.7613 100.142 52.4602C105.765 62.1393 116.391 58.1406 116.391 49.8063V13.2969H111.115H111.111Z" fill="white"/>
<path d="M39.4381 71.9286V75.4873H42.7784C43.4191 75.4873 43.9023 75.3312 44.2314 75.019C44.557 74.7067 44.7216 74.2703 44.7216 73.7097C44.7216 73.1492 44.557 72.7127 44.2314 72.4005C43.9023 72.0883 43.4191 71.9322 42.7784 71.9322H39.4381V71.9286ZM39.4381 66.5178V69.5976H42.3617C42.9394 69.5976 43.3806 69.4663 43.6817 69.2037C43.9828 68.9412 44.1334 68.558 44.1334 68.0471C44.1334 67.5361 43.9828 67.1707 43.6817 66.9081C43.3806 66.6456 42.9394 66.5143 42.3617 66.5143H39.4381V66.5178ZM45.9295 65.0631C46.6578 65.6486 47.0255 66.4966 47.0255 67.6071C47.0255 68.2848 46.8679 68.8702 46.5528 69.3669C46.2377 69.8637 45.7965 70.2539 45.2328 70.5342V70.552C46.8294 71.0629 47.6277 72.1663 47.6277 73.8588C47.6277 74.6996 47.4211 75.4164 47.0045 76.0089C46.5878 76.6014 46.0276 77.052 45.3168 77.3571C44.606 77.6623 43.8042 77.8148 42.9114 77.8148H36.532V64.1797H42.7013C44.1229 64.1797 45.1978 64.4742 45.9295 65.0596V65.0631Z" fill="white"/>
<path d="M58.0377 68.409C58.0377 67.1459 57.3094 66.5143 55.8493 66.5143H53.0553V70.3001H55.8493C57.3094 70.3001 58.0377 69.6685 58.0377 68.4054V68.409ZM61.2729 76.9739C61.3289 77.2791 61.4129 77.5594 61.5285 77.8148H58.5488C58.4228 77.4458 58.3108 76.8604 58.2092 76.055L57.9816 74.3165C57.9046 73.7168 57.7155 73.2875 57.4144 73.025C57.1133 72.7624 56.6336 72.6311 55.9789 72.6311H53.0553V77.8148H50.0931V64.1797H56.2625C57.8731 64.1797 59.0635 64.5132 59.8373 65.1838C60.6111 65.8544 60.9963 66.7981 60.9963 68.0222C60.9963 68.8241 60.8247 69.5124 60.4851 70.0872C60.1455 70.662 59.6343 71.0948 58.9585 71.3893C59.5502 71.5951 59.9879 71.9073 60.2785 72.326C60.5691 72.7482 60.7582 73.2946 60.8457 73.9723L61.0733 75.6541C61.1503 76.2289 61.2134 76.6688 61.2729 76.9739V76.9739Z" fill="white"/>
<path d="M69.883 66.344L68.1079 72.4253H71.8823L70.0126 66.344H69.8795H69.883ZM72.488 74.7564H67.4706L66.5288 77.8148H63.3566L67.8103 64.1797H72.1134L76.6616 77.8148H73.4719L72.4915 74.7564H72.488Z" fill="white"/>
<path d="M85.9847 64.2789C86.7585 64.5982 87.3677 65.0595 87.8159 65.6662C88.2641 66.2729 88.4846 66.9896 88.4846 67.8163H85.5225C85.4595 67.2948 85.2354 66.8938 84.8538 66.6206C84.4686 66.3474 83.9259 66.2091 83.2222 66.2091C82.5184 66.2091 81.9827 66.3581 81.58 66.6597C81.1774 66.9612 80.9778 67.3444 80.9778 67.8163C80.9778 68.1995 81.0898 68.5046 81.3069 68.7353C81.5275 68.9659 81.8251 69.1185 82.2033 69.193L85.6381 69.9381C87.8509 70.4241 88.9608 71.6979 88.9608 73.7629C88.9608 74.6428 88.7437 75.4091 88.3096 76.0584C87.8754 76.7077 87.2592 77.2116 86.4609 77.5699C85.6626 77.9247 84.7277 78.1057 83.6598 78.1057C81.9232 78.1057 80.5401 77.726 79.5072 76.9667C78.4744 76.2075 77.9597 75.1537 77.9597 73.8019V73.6493H80.9218V73.7629C80.9218 74.3376 81.1459 74.8024 81.5905 75.1572C82.0352 75.5156 82.7005 75.693 83.5828 75.693C84.4126 75.693 85.0288 75.5404 85.4315 75.2353C85.8341 74.9302 86.0337 74.5257 86.0337 74.029C86.0337 73.5819 85.8937 73.2342 85.6206 72.9787C85.344 72.7233 84.8643 72.521 84.185 72.3649L81.2789 71.7334C79.1291 71.2757 78.0542 70.0303 78.0542 68.0044C78.0542 67.1103 78.2853 66.3474 78.751 65.7088C79.2166 65.0701 79.8504 64.5947 80.6557 64.2754C81.461 63.956 82.3678 63.7964 83.3727 63.7964C84.3776 63.7964 85.2109 63.956 85.9882 64.2754L85.9847 64.2789Z" fill="white"/>
<path d="M94.7082 77.8183H91.7075V64.1831H94.7082V77.8183Z" fill="white"/>
<path d="M101.173 75.3311H107.514V77.8183H98.1728V64.1831H101.173V75.3311Z" fill="white"/>
</svg>
