<svg width="58" height="103" viewBox="0 0 58 103" fill="none" xmlns="http://www.w3.org/2000/svg">
<path d="M17.77 74.5951C19.1793 74.5951 20.5897 74.5951 22.0013 74.5951C22.5583 74.5951 22.7232 74.7747 22.718 75.3379C22.6921 78.0575 20.4124 80.5471 17.789 80.6728C16.6552 80.7276 15.517 80.698 14.3806 80.6989C10.0034 80.6989 6.69522 84.3094 6.92924 88.8253C7.10195 92.2382 9.7789 95.2793 13.037 95.7849C16.1949 96.2753 19.2061 94.7638 20.6792 91.9508C20.9271 91.4775 20.9245 91.4712 20.4202 91.4712C18.7233 91.4712 17.0256 91.4712 15.3254 91.4712C14.5067 91.4712 14.2477 91.1955 14.2502 90.3404C14.258 87.3954 16.3979 85.1528 19.232 85.1393C21.7362 85.1285 24.2404 85.1393 26.7447 85.1303C27.0417 85.1303 27.1574 85.204 27.2213 85.5273C28.7092 93.0151 24.2085 100.25 17.0524 101.852C9.72709 103.488 2.52524 98.4857 1.21095 90.8317C0.00200276 83.7876 4.04764 77.0515 10.6571 75.1062C11.848 74.7574 13.0804 74.5853 14.3176 74.5951C15.4678 74.5951 16.6189 74.5951 17.77 74.5951Z" fill="#FFF8F1"/>
<path d="M42.8844 74.5947C50.1995 74.6034 56.132 80.5441 56.1329 87.8618C56.1338 95.1795 50.1477 101.129 42.8154 101.102C35.5158 101.076 29.623 95.1491 29.6256 87.8349C29.6282 80.5207 35.5633 74.5826 42.8844 74.5947ZM50.2401 87.841C50.23 85.8869 49.4497 84.0164 48.0698 82.6385C46.6899 81.2607 44.8227 80.4877 42.8767 80.4886C38.8319 80.4955 35.5124 83.8288 35.5366 87.8592C35.5582 91.9546 38.8621 95.1864 43.014 95.1734C46.9768 95.1621 50.2539 91.8358 50.2401 87.8384V87.841Z" fill="#FFF8F1"/>
<path d="M27.8319 0.162109C29.1204 0.338231 30.3993 0.584822 31.6633 0.900877C44.5483 3.74571 54.4787 14.2238 56.6578 27.7402C58.3377 38.1835 55.5397 47.3987 48.6726 55.1345C42.4355 62.1586 34.5811 65.6281 25.4373 65.8157C21.1453 65.9047 15.0352 65.8157 10.7415 65.806C11.0325 65.5334 11.6703 64.3113 13.0938 65.0509C14.3132 64.846 13.483 63.9849 16.0342 63.3602C19.5967 62.3139 21.3581 62.8936 23.7103 61.447C23.8264 61.4122 28.2643 58.8194 29.9645 57.075C30.5171 56.5103 29.6457 57.322 31.6185 55.2372C32.3714 53.4947 34.9686 53.0578 35.9921 51.4658C38.5096 47.6287 40.2028 43.2629 40.9545 38.6708C41.5092 35.5541 41.6024 32.3662 41.2308 29.2197C40.8148 25.7884 39.8965 22.4451 38.5083 19.3082C37.1526 16.2757 34.5442 13.6526 32.249 11.2874C32.2066 11.1675 28.7934 7.77008 26.6198 6.27901C24.382 4.62077 21.6495 3.15633 19.0114 2.38293C17.7754 1.72926 14.973 2.56108 14.2332 1.5008C13.6438 1.33448 12.0491 0.935688 11.6236 0.162109H27.8319Z" fill="white"/>
<path d="M15.0753 33.0116C15.0753 27.2398 19.3144 22.461 24.4508 22.4507C29.5872 22.4404 33.8373 27.2191 33.8446 33.0012C33.8519 38.7833 29.5982 43.5517 24.4654 43.5662C19.3327 43.5807 15.0807 38.7792 15.0753 33.0116Z" fill="#FFF8F1"/>
<path d="M41.6479 29.2407C41.2109 25.8073 40.2429 22.4617 38.778 19.3222C37.346 16.2894 35.5755 13.4867 33.1512 11.1193C32.849 12.2192 32.849 12.2192 33.1512 11.1193C33.1065 10.9994 29.0167 7.05749 26.7209 5.56623C24.3572 3.90779 21.7248 2.66477 18.9383 1.89127C17.6328 1.23752 16.1833 1.09052 14.8019 0.707551C14.1734 0.531539 15.0139 0.763642 12.9087 0.162109H2.98596C2.05594 0.742366 1.80107 1.52571 2.1435 2.54503C2.27386 2.93187 2.30888 3.35932 2.43924 3.75196C3.93155 8.30891 6.68658 11.8079 11.1421 13.8678C13.5457 15.0982 16.2345 15.6728 18.9344 15.5331C21.3976 15.6627 23.8666 15.4248 26.3279 15.684C28.6626 16.0263 30.8398 16.8445 32.9158 17.9276C33.1493 18.0959 33.3769 18.2719 33.6182 18.4286C40.7937 23.1383 43.541 32.2561 40.1108 39.9697C38.4434 43.7162 35.7039 46.4821 32.1551 48.5072C29.6257 49.6832 26.9991 50.4414 24.1779 50.4742C21.3567 50.5071 18.5939 50.2441 15.8116 50.6677C13.1901 51.0153 10.7064 52.0411 8.60887 53.6424C7.32475 54.4297 6.30912 55.5012 5.37327 56.654C3.69433 58.7364 2.55822 61.1986 2.06567 63.8221C1.80885 65.1122 2.4548 65.8549 3.78368 65.8549C5.46666 65.8549 7.14964 65.8356 8.84235 65.8259H11.3717L12.3951 65.6634C13.6831 65.4584 13.9905 65.383 16.23 64.8994C19.0803 64.4623 23.5573 62.3714 24.2071 62.0078C24.3737 61.9373 24.5339 61.8525 24.6857 61.7544C26.8396 60.5204 28.8533 59.3444 30.6491 57.5998C31.2328 57.035 31.1472 57.1317 32.3691 55.859C33.7772 54.5435 35.0334 53.0761 36.1144 51.4839C38.7736 47.6462 40.5621 43.28 41.356 38.6873C41.9413 35.5721 42.0397 32.3858 41.6479 29.2407V29.2407Z" fill="url(#paint0_linear_6729_249394)"/>
<defs>
<linearGradient id="paint0_linear_6729_249394" x1="2.00925" y1="33.0143" x2="41.8872" y2="33.0143" gradientUnits="userSpaceOnUse">
<stop stop-color="white"/>
<stop offset="1" stop-color="white"/>
</linearGradient>
</defs>
</svg>
