<svg width="172" height="30" viewBox="0 0 172 30" fill="none" xmlns="http://www.w3.org/2000/svg">
<path d="M21.9424 1.13198H34.1645C38.1605 1.13198 41.4474 3.91245 42.1524 7.86866C42.1743 7.9918 42.216 8.11096 42.3034 8.42674C44.208 5.01868 46.8057 2.61556 50.4045 1.41202C54.0032 0.208469 57.5125 0.41899 60.9305 1.94825C66.3465 4.37322 69.7426 10.3373 69.0892 16.1366C68.3663 22.5277 64.0029 27.4571 57.8462 28.8215C51.7828 30.17 46.0451 27.473 42.3649 21.4374C42.2478 21.9696 42.1663 22.3887 42.065 22.7998C41.1673 26.2496 37.7772 28.9843 34.2182 29.0261C30.2461 29.0757 26.274 29.0261 22.3019 29.0261C22.181 29.0106 22.0619 28.9833 21.9464 28.9446L21.9424 1.13198ZM54.8492 21.8505C58.8531 21.8763 62.0308 18.8277 62.1162 14.8774C62.1976 11.0066 58.9544 7.71375 55.0478 7.70184C51.2744 7.68992 48.0133 10.8358 47.9577 14.5477C47.8961 18.5894 50.9486 21.8346 54.8492 21.8505ZM29.1557 17.8108V22.4582C30.532 22.4582 31.8488 22.5376 33.1516 22.4344C34.2201 22.349 34.9669 21.3083 34.9768 20.1842C34.9768 19.0084 34.2003 17.9062 33.1338 17.8327C31.827 17.7413 30.5042 17.8108 29.1557 17.8108ZM29.1716 7.30264V11.9301C29.4119 11.954 29.5688 11.9838 29.7356 11.9838C30.7604 11.9838 31.7852 12.0155 32.8081 11.9838C33.3939 11.9661 33.9492 11.7188 34.3543 11.2952C34.7593 10.8716 34.9815 10.3057 34.9729 9.71966C34.9967 8.43072 34.099 7.37017 32.8478 7.31654C31.6621 7.26093 30.4725 7.30264 29.1716 7.30264V7.30264ZM38.4584 14.792L40.7979 16.5795V13.4018L38.4584 14.792Z" fill="white"/>
<path d="M90.7848 3.71208C93.9089 0.782656 97.6069 0.0617199 101.593 0.927638C106.586 2.01401 109.483 5.49555 109.603 10.6335C109.736 16.4864 109.638 22.3512 109.654 28.2021C109.654 28.8356 109.41 29.1137 108.768 29.0819C108.206 29.0541 107.642 29.0819 107.08 29.0819C105.257 29.0422 104.26 28.0889 104.234 26.2458C104.197 23.6639 104.234 21.0821 104.218 18.5002C104.203 15.821 104.284 13.1379 104.091 10.4666C103.881 7.59679 101.664 5.8868 98.6813 6.00795C95.597 6.13109 93.5752 7.95825 93.5355 10.9036C93.462 16.4963 93.5077 22.091 93.5037 27.6857C93.5037 29.0402 93.5037 29.0402 92.1313 29.0441C88.6319 29.0441 88.0361 28.4642 88.0361 24.9827C88.0361 20.3492 88.056 15.7158 88.0262 11.0803C88.0103 8.69707 86.765 6.93345 84.7373 6.27806C82.2051 5.4598 79.6987 6.1291 78.2906 7.99798C77.514 9.02874 77.3214 10.2184 77.3214 11.4636C77.3214 16.9253 77.3055 22.3869 77.3353 27.8485C77.3353 28.7244 77.1367 29.0044 76.1814 29.0501C73.109 29.1951 71.7783 28.5913 71.8875 24.8397C72.0206 20.3413 71.9173 15.8369 71.9193 11.3345C71.9213 4.6912 76.4197 0.385446 83.069 0.631716C86.3261 0.756837 87.9865 1.41422 90.7848 3.71208Z" fill="white"/>
<path d="M12.7668 18.1924H7.86327V28.8754H0.117676V1.16602H7.83944V11.4081H12.6874V1.17992H20.2344V28.8734H12.7668V18.1924Z" fill="white"/>
<path d="M131.535 26.764C127.994 29.1751 124.174 29.6438 120.194 28.6349C115.428 27.4254 111.936 23.205 111.257 18.087C110.808 14.7107 110.888 11.3642 112.234 8.15671C114.316 3.22535 118.893 0.385299 124.258 0.611708C126.899 0.726899 129.31 1.46571 131.36 2.86985C132.013 2.30978 132.538 1.54515 133.225 1.34853C134.242 1.05658 135.376 1.14993 136.46 1.13205C136.629 1.13205 136.885 1.42003 136.953 1.62459C137.013 1.91509 137.028 2.21332 136.996 2.50839C136.996 10.9094 136.996 19.3097 136.996 27.7094C136.996 29.0241 136.996 29.0221 135.676 29.0162H134.683C132.903 29.0142 132.162 28.5058 131.535 26.764ZM131.535 14.6312C131.419 13.8765 131.336 12.7167 131.052 11.6025C130.23 8.24608 127.622 6.14484 124.166 5.94624C120.929 5.74763 118.089 7.58473 116.919 10.7128C115.87 13.4274 115.897 16.4407 116.997 19.1356C117.409 20.1835 118.055 21.1234 118.886 21.8836C119.717 22.6438 120.71 23.2042 121.791 23.5221C122.871 23.8399 124.01 23.9068 125.12 23.7176C126.23 23.5284 127.282 23.0882 128.196 22.4305C130.722 20.6291 131.368 17.9301 131.543 14.6312H131.535Z" fill="white"/>
<path d="M164.587 28.8614C162.6 28.8614 160.843 29.0402 159.145 28.782C158.35 28.6588 157.51 27.8128 156.972 27.0859C155.556 25.1773 154.301 23.1515 152.966 21.1794C151.959 19.6918 150.883 19.6839 149.878 21.1675C148.559 23.1078 147.238 25.0482 145.967 27.0203C145.101 28.3649 143.959 29.0441 142.331 28.9607C141.058 28.8932 139.779 28.9468 138.267 28.9468C138.575 28.3788 138.74 28.0034 138.966 27.6698C141.366 24.1048 143.781 20.5498 146.18 16.9848C147.252 15.396 147.246 14.6016 146.168 13.0127C143.752 9.41269 141.33 5.81992 138.903 2.23444C138.704 1.94845 138.551 1.63862 138.192 1.02295C140.281 1.12027 142.098 1.04082 143.844 1.36058C144.619 1.50159 145.393 2.3397 145.914 3.04673C147.342 4.99108 148.627 7.03869 149.983 9.03467C150.847 10.3038 151.949 10.3296 152.821 9.07042C154.211 7.05657 155.584 5.0308 156.918 2.97921C157.772 1.66643 158.92 1.04082 160.493 1.09445C161.77 1.13814 163.051 1.09445 164.563 1.09445C164.308 1.58897 164.181 1.90476 163.997 2.18082C161.594 5.75041 159.186 9.31272 156.775 12.8677C155.552 14.6691 155.552 15.3781 156.775 17.1675C159.188 20.7239 161.592 24.2855 163.989 27.8525C164.165 28.1186 164.312 28.4006 164.587 28.8614Z" fill="white"/>
<path d="M170.815 4.0496C170.749 3.56301 170.682 3.07643 170.596 2.46076L169.885 3.41605L169.14 2.47863C169.033 3.05458 168.942 3.58685 168.833 4.11911L168.487 4.04165V1.21947L168.686 1.02087L169.877 2.28003L171.033 0.999023L171.214 1.16982V4.03371L170.815 4.0496Z" fill="white"/>
<path d="M166.523 4.01202V1.86311L165.631 1.44803L165.681 1.1958H168.1L167.107 1.83332C166.831 2.52248 167.405 3.42415 166.523 4.01202Z" fill="white"/>
<path d="M55.064 20.3671C51.8485 20.3671 49.4613 17.964 49.4613 14.7108C49.4613 11.6225 51.8922 9.2154 55.0222 9.21143C58.1523 9.20746 60.5832 11.6602 60.6011 14.826C60.6021 15.5536 60.4596 16.2743 60.1818 16.9468C59.9039 17.6193 59.4962 18.2304 58.9818 18.7451C58.4675 19.2597 57.8567 19.6679 57.1844 19.9463C56.5122 20.2246 55.7916 20.3676 55.064 20.3671V20.3671Z" fill="white"/>
</svg>
