<svg width="171" height="89" viewBox="0 0 171 89" fill="none" xmlns="http://www.w3.org/2000/svg">
<path d="M106.079 12.8636C106.079 12.8636 97.4117 16.9906 96.612 18.9339C96.612 18.9339 95.8114 20.0774 95.6696 23.7682C95.6165 25.1432 94.9818 36.5399 99.5975 55.6956C101.12 62.1036 103.321 62.2898 105.056 62.616C114.461 64.3808 132.344 65.2994 159.701 62.3748C170.767 61.1918 170.209 55.8924 170.209 55.8924C170.209 55.8924 169.28 29.5317 164.415 11.1943C163.221 6.69871 162.353 3.92456 161.665 2.74542C161.665 2.74542 160.781 0.584961 158.424 0.584961C156.068 0.584961 123.953 3.63026 106.08 12.8636H106.079Z" fill="white"/>
<path d="M19.1024 88.3641V79.039C19.1024 78.0838 18.787 77.2617 18.1581 76.5708C17.5185 75.8625 16.7401 75.5074 15.8246 75.5074C14.8204 75.5074 14.0227 75.8374 13.4323 76.4974C12.842 77.1681 12.5468 78.0153 12.5468 79.039V88.3641H10.006V79.039C10.006 78.0153 9.70985 77.1681 9.11853 76.4974C8.5465 75.8384 7.75262 75.5074 6.7359 75.5074C5.80889 75.5074 5.02851 75.8625 4.39764 76.5708C3.76581 77.2617 3.45038 78.0838 3.45038 79.039V88.3641H0.909546V79.0294C0.909546 77.3929 1.47096 75.9725 2.59572 74.7702C3.73976 73.5679 5.11532 72.9658 6.72336 72.9658C8.60728 72.9658 10.1217 73.6905 11.2648 75.1417C12.3896 73.6905 13.9031 72.9658 15.8063 72.9658C17.423 72.9658 18.7947 73.5679 19.9195 74.7702C21.0442 75.9725 21.6056 77.3929 21.6056 79.0294V88.3641H19.1015H19.1024Z" fill="white"/>
<path d="M40.8075 86.3329C39.2776 87.8343 37.4477 88.585 35.3178 88.585C33.1879 88.585 31.3021 87.8353 29.7529 86.3368C28.2239 84.8286 27.459 82.9894 27.459 80.8203C27.459 78.6511 28.2191 76.7917 29.7384 75.273C31.2577 73.7349 33.1021 72.9658 35.2734 72.9658C36.8217 72.9658 38.2532 73.3904 39.5651 74.2366C40.877 75.0742 41.8445 76.208 42.4657 77.637L31.6619 84.6452C32.6786 85.6015 33.8969 86.0801 35.3178 86.0801C36.7387 86.0801 38.0255 85.5716 39.0326 84.5555C40.0493 83.5308 40.5615 82.285 40.5721 80.8251H43.1178C43.0975 82.9875 42.3278 84.8238 40.8085 86.3329H40.8075ZM35.2831 75.5084C33.8033 75.5084 32.5551 76.0314 31.5384 77.0774C30.512 78.1243 29.9988 79.3768 29.9988 80.8377C29.9988 81.3703 30.0972 81.9444 30.295 82.5552L38.9381 76.9452C37.9213 75.9889 36.703 75.5094 35.2831 75.5094V75.5084Z" fill="white"/>
<path d="M61.684 86.3038C60.1657 87.8246 58.3213 88.5849 56.1518 88.5849C53.9824 88.5849 52.1477 87.8265 50.6197 86.3067C49.0908 84.7793 48.3268 82.9401 48.3268 80.7912C48.3268 78.6424 49.0618 76.8476 50.5329 75.2883C52.0126 73.7406 53.8049 72.9657 55.9078 72.9657C58.1187 72.9657 59.9737 73.8139 61.4747 75.5073V68.1401H63.9788V80.7768C63.9788 82.9314 63.2139 84.7735 61.6859 86.3038H61.684ZM61.4737 80.7932C61.4737 79.3477 60.9499 78.1068 59.9062 77.0734C58.8605 76.0293 57.6123 75.5073 56.1634 75.5073C54.7145 75.5073 53.4808 76.0284 52.4361 77.0734C51.3904 78.1068 50.8676 79.3477 50.8676 80.7932C50.8676 82.2386 51.3904 83.4863 52.4361 84.5294C53.4808 85.5628 54.7242 86.0809 56.1634 86.0809C57.6026 86.0809 58.8509 85.5638 59.9062 84.5294C60.9509 83.4863 61.4737 82.2415 61.4737 80.7932Z" fill="white"/>
<path d="M71.1045 70.6451V68.1401H73.6087V70.6451H71.1045ZM71.1045 88.364V73.1867H73.6087V88.364H71.1045Z" fill="white"/>
<path d="M93.2138 88.3641V86.0801C91.7244 87.7504 89.8685 88.585 87.6469 88.585C85.545 88.585 83.7527 87.8169 82.271 86.2779C80.8 84.7302 80.0649 82.9007 80.0649 80.7904C80.0649 78.6801 80.8289 76.8014 82.3588 75.272C83.8974 73.7339 85.7427 72.9648 87.8939 72.9648C90.045 72.9648 91.8971 73.7339 93.426 75.272C94.9549 76.8014 95.7199 78.6396 95.7199 80.7904V88.3641H93.2148H93.2138ZM93.2138 80.7933C93.2138 79.3478 92.691 78.1069 91.6463 77.0735C90.6006 76.0294 89.3533 75.5074 87.9035 75.5074C86.4537 75.5074 85.2209 76.0285 84.1752 77.0735C83.1296 78.1069 82.6058 79.3478 82.6058 80.7933C82.6058 82.2387 83.1296 83.4864 84.1752 84.5295C85.2209 85.5629 86.4633 86.081 87.9035 86.081C89.3437 86.081 90.591 85.5639 91.6463 84.5295C92.691 83.4864 93.2138 82.2416 93.2138 80.7933Z" fill="white"/>
<path d="M102.846 88.364V68.1401H105.35V88.364H102.846Z" fill="white"/>
<path d="M124.955 88.3641V86.0801C123.465 87.7504 121.608 88.585 119.388 88.585C117.286 88.585 115.493 87.8169 114.013 86.2779C112.543 84.7302 111.807 82.9007 111.807 80.7904C111.807 78.6801 112.571 76.8014 114.101 75.272C115.639 73.7339 117.483 72.9648 119.633 72.9648C121.783 72.9648 123.637 73.7339 125.166 75.272C126.694 76.8014 127.46 78.6396 127.46 80.7904V88.3641H124.956H124.955ZM124.955 80.7933C124.955 79.3478 124.432 78.1069 123.386 77.0735C122.341 76.0294 121.093 75.5074 119.644 75.5074C118.195 75.5074 116.96 76.0285 115.916 77.0735C114.871 78.1069 114.349 79.3478 114.349 80.7933C114.349 82.2387 114.871 83.4864 115.916 84.5295C116.961 85.5629 118.204 86.081 119.644 86.081C121.083 86.081 122.331 85.5639 123.386 84.5295C124.432 83.4864 124.955 82.2416 124.955 80.7933Z" fill="white"/>
<path d="M144.566 88.3641V79.5408C144.566 78.4282 144.165 77.4788 143.364 76.6895C142.572 75.9021 141.623 75.5074 140.515 75.5074C139.408 75.5074 138.442 75.9021 137.65 76.6895C136.858 77.4788 136.463 78.4282 136.463 79.5408V88.3641H133.922V79.5331C133.922 77.7982 134.584 76.2697 135.908 74.9478C137.232 73.6258 138.764 72.9658 140.504 72.9658C142.244 72.9658 143.758 73.6268 145.084 74.9478C146.407 76.2697 147.069 77.7982 147.069 79.5331V88.3641H144.565H144.566Z" fill="white"/>
<path d="M166.248 86.3038C164.729 87.8246 162.885 88.5849 160.716 88.5849C158.546 88.5849 156.71 87.8265 155.183 86.3067C153.654 84.7793 152.89 82.9401 152.89 80.7912C152.89 78.6424 153.625 76.8476 155.096 75.2883C156.575 73.7406 158.368 72.9657 160.47 72.9657C162.68 72.9657 164.535 73.8139 166.036 75.5073V68.1401H168.541V80.7768C168.541 82.9314 167.776 84.7735 166.247 86.3038H166.248ZM166.037 80.7932C166.037 79.3477 165.515 78.1068 164.47 77.0734C163.424 76.0293 162.177 75.5073 160.727 75.5073C159.277 75.5073 158.044 76.0284 156.999 77.0734C155.953 78.1068 155.431 79.3477 155.431 80.7932C155.431 82.2386 155.953 83.4863 156.999 84.5294C158.044 85.5628 159.287 86.0809 160.727 86.0809C162.167 86.0809 163.414 85.5638 164.47 84.5294C165.515 83.4863 166.037 82.2415 166.037 80.7932Z" fill="white"/>
</svg>
