<svg width="192" height="39" viewBox="0 0 192 39" fill="none" xmlns="http://www.w3.org/2000/svg">
<path d="M0.213867 3.13326C0.465113 2.74521 0.6582 2.2993 0.979236 1.97914C1.96483 0.993973 3.51185 1.00863 4.55793 1.98608C6.95717 4.22952 9.35021 6.48143 11.737 8.73798C12.7459 9.69229 13.6881 9.96153 14.7117 9.49865C15.8547 8.98254 16.254 8.04597 16.2339 6.84171C16.2036 5.01641 16.2401 3.18957 16.2176 1.36428C16.2098 0.786448 16.4277 0.578922 17.0093 0.585094C19.141 0.606695 21.2743 0.606695 23.406 0.585094C23.9938 0.578922 24.2032 0.813449 24.2024 1.37662C24.1931 6.36494 24.2032 11.3525 24.1923 16.3408C24.19 17.4054 23.6348 18.1715 22.6701 18.5842C21.6535 19.0186 20.6834 18.8527 19.8638 18.0959C18.5827 16.9132 17.3218 15.7098 16.0516 14.5155C14.8637 13.3977 13.6772 12.2775 12.4861 11.1627C11.6642 10.3936 10.7282 10.0958 9.65496 10.5903C8.60113 11.0755 8.18006 11.9342 8.18161 13.069C8.19169 21.2188 8.18704 29.3694 8.18626 37.5192C8.18626 38.5422 8.15292 38.5776 7.1301 38.5784C5.15503 38.58 3.17919 38.5923 1.20489 38.5661C0.873775 38.5614 0.544984 38.3863 0.214643 38.2891C0.213867 26.5705 0.213867 14.8519 0.213867 3.13326Z" fill="white"/>
<path d="M39.9375 18.4397C39.9375 23.985 39.929 29.5303 39.9445 35.0756C39.9476 36.2591 39.5327 37.1671 38.4168 37.6577C37.2738 38.16 36.2921 37.8514 35.4104 37.0143C33.0608 34.7825 30.6949 32.5668 28.3344 30.3465C26.9518 29.0458 25.1256 29.1723 24.2773 30.669C24.0578 31.0555 23.9501 31.5516 23.9415 32.0005C23.9059 33.9153 23.9059 35.8309 23.9369 37.7457C23.9477 38.4145 23.6476 38.5897 23.0428 38.585C20.9778 38.5688 18.9127 38.5827 16.8469 38.5766C16.049 38.5742 15.9552 38.4763 15.9552 37.6832C15.9528 32.7612 15.9575 27.84 15.9513 22.918C15.9497 21.7902 16.467 20.9817 17.4921 20.5558C18.5103 20.1323 19.4757 20.3066 20.2938 21.0742C22.7055 23.3377 25.1132 25.6058 27.5218 27.8732C28.8113 29.0867 30.3049 29.1037 31.3641 27.9141C31.8403 27.3794 31.9465 26.7399 31.9457 26.051C31.9403 18.0115 31.9418 9.97202 31.9418 1.93176C31.9418 1.73118 31.9511 1.5306 31.9411 1.33079C31.9131 0.793074 32.1497 0.580149 32.7041 0.585549C34.8141 0.605607 36.9241 0.592492 39.0341 0.594035C39.8274 0.594035 39.9344 0.694326 39.9359 1.46888C39.9406 3.36207 39.9375 5.25448 39.9375 7.14767C39.9375 10.9117 39.9375 14.6749 39.9375 18.4389V18.4397Z" fill="white"/>
<path d="M74.8343 29.4441C72.1659 29.4441 69.5643 29.4557 66.9642 29.4202C66.7673 29.4179 66.5137 29.1131 66.3896 28.8917C63.8112 24.2837 61.2484 19.6673 58.6817 15.0531C58.5708 14.8533 58.4475 14.6596 58.1761 14.5154V29.4016H53.2256V9.74615C53.3877 9.73458 53.58 9.70835 53.7715 9.70835C56.1056 9.70527 58.4405 9.7207 60.7746 9.69447C61.229 9.68907 61.443 9.85185 61.6508 10.2283C64.1935 14.8301 66.7525 19.4227 69.3084 24.0176C69.4333 24.2421 69.562 24.4642 69.8365 24.644V9.75618H74.8343V29.4441Z" fill="white"/>
<path d="M109.777 27.4882V34.757H104.705V13.4042H109.747V15.4648C111.905 13.5547 114.293 12.8033 116.963 12.973C119.708 13.1473 121.938 14.2552 123.364 16.6714C125.401 20.1199 124.809 25.1545 122.077 27.7536C120.366 29.3806 118.254 29.9299 115.957 29.8589C113.661 29.7879 111.629 29.0018 109.939 27.3979L109.778 27.4889L109.777 27.4882ZM109.781 21.3627C109.781 22.1195 109.764 22.8763 109.792 23.6316C109.8 23.8538 109.88 24.1199 110.024 24.2835C111.626 26.1042 115.166 26.5902 117.212 25.2895C119.013 24.1439 119.684 21.419 118.701 19.2497C118.236 18.2221 117.474 17.4892 116.403 17.1351C114.145 16.389 112.065 16.7671 110.231 18.2714C109.985 18.4736 109.832 18.894 109.801 19.2288C109.737 19.9347 109.782 20.6506 109.782 21.3627H109.781Z" fill="white"/>
<path d="M83.5899 22.8223C85.2533 23.873 86.9383 24.5681 88.7397 24.9777C90.7 25.4237 92.6829 25.6644 94.6781 25.3018C95.2961 25.1899 95.9343 24.9237 96.4461 24.5635C97.2735 23.981 97.2658 22.8732 96.3779 22.3956C95.4691 21.9073 94.4447 21.5864 93.4351 21.3364C91.3933 20.8311 89.3197 20.4523 87.2741 19.9593C86.6537 19.8097 86.0644 19.4911 85.4914 19.1925C82.1259 17.4382 82.3446 13.0092 85.0183 11.109C86.3319 10.1756 87.8107 9.69339 89.3841 9.48818C93.1225 8.99907 96.7617 9.37786 100.29 10.7503C101.032 11.0388 101.374 11.4061 101.31 12.2547C101.218 13.4713 101.286 14.6995 101.286 15.9978C101.096 15.9261 100.956 15.8906 100.833 15.8258C97.9784 14.316 94.9317 13.5901 91.7035 13.7158C90.9389 13.7459 90.1603 13.9735 89.433 14.2335C88.8452 14.4433 88.452 14.9178 88.4388 15.6129C88.4257 16.3219 88.8397 16.811 89.4229 16.9892C90.8513 17.4243 92.313 17.7537 93.7677 18.0993C95.3132 18.4673 96.8749 18.7744 98.4127 19.1717C98.9888 19.3206 99.5471 19.5998 100.064 19.9022C102.986 21.6064 103.303 25.4514 100.712 27.6347C99.2184 28.8929 97.4178 29.4137 95.5272 29.6613C91.7384 30.1582 88.0589 29.7848 84.5213 28.2642C83.8505 27.9757 83.5101 27.6463 83.5659 26.8424C83.6559 25.5448 83.5899 24.2356 83.5899 22.8223V22.8223Z" fill="white"/>
<path d="M136.604 12.9542C138.69 12.958 140.725 13.2373 142.609 14.1792C145.583 15.6643 147.056 18.1176 147.061 21.384C147.065 24.6496 145.646 27.2047 142.626 28.5895C138.703 30.3886 134.639 30.4071 130.689 28.6883C127.305 27.2155 125.867 24.4174 126.072 20.8208C126.26 17.5004 128.011 15.2192 131.08 13.92C132.844 13.1732 134.704 12.9503 136.604 12.9542V12.9542ZM136.083 26.1478C137.952 26.1632 139.264 25.8909 140.279 24.8865C141.757 23.4238 141.919 21.617 141.388 19.7392C140.887 17.971 139.578 17.0499 137.789 16.7521C133.607 16.0578 130.868 18.599 131.572 22.5211C131.985 24.8232 133.81 26.1494 136.084 26.1478H136.083Z" fill="white"/>
<path d="M190.041 18.8853C188.862 18.4517 187.775 17.9865 186.648 17.6533C184.918 17.141 183.145 16.8887 181.333 17.1611C180.318 17.3138 179.734 17.7497 179.693 18.3784C179.653 18.9856 180.084 19.4793 181.134 19.72C182.726 20.0857 184.359 20.2801 185.945 20.6651C187.066 20.9374 188.223 21.2576 189.218 21.813C191.826 23.2719 191.874 26.7404 189.385 28.3998C188.28 29.1358 187.032 29.4807 185.732 29.6581C182.263 30.1333 178.896 29.8294 175.653 28.4207C174.947 28.1136 174.619 27.7472 174.683 26.9379C174.768 25.8841 174.704 24.8187 174.704 23.7602C175.996 24.227 177.211 24.733 178.467 25.1049C180.394 25.6758 182.367 25.952 184.379 25.6025C184.703 25.5462 185.039 25.4351 185.316 25.2638C186.103 24.7778 186.126 23.6831 185.281 23.329C184.346 22.9378 183.321 22.7434 182.321 22.5259C180.944 22.2265 179.54 22.0391 178.174 21.6973C177.471 21.5214 176.773 21.1959 176.165 20.7993C173.879 19.3104 173.789 16.2237 175.954 14.5643C177.126 13.6663 178.502 13.2636 179.942 13.0985C183.186 12.7259 186.338 13.0422 189.349 14.3953C189.867 14.6283 190.084 14.9107 190.057 15.4947C190.006 16.6187 190.043 17.7466 190.043 18.8868L190.041 18.8853Z" fill="white"/>
<path d="M162.731 9.87549H167.826V13.1103H172.645V16.453H168.017C167.931 16.5564 167.878 16.5904 167.878 16.6251C167.869 18.8731 167.819 21.1227 167.879 23.3693C167.914 24.7162 168.633 25.3033 170.01 25.3226C170.879 25.335 171.748 25.3249 172.648 25.3249V29.4469C170.501 29.3713 168.368 29.6799 166.273 29.1622C164.26 28.6639 163.184 27.2953 162.864 25.3087C162.775 24.7618 162.738 24.2017 162.737 23.6478C162.727 19.3507 162.731 15.0536 162.731 10.7565V9.87626V9.87549Z" fill="white"/>
<path d="M154.02 29.4137H148.913V13.4157H154V15.6923C154.045 15.7247 154.09 15.7571 154.135 15.7903C155.785 13.506 158.006 12.6257 160.785 13.0284V17.9651C159.901 17.9651 159.01 17.9249 158.124 17.9751C156.942 18.0422 155.83 18.3724 154.863 19.0906C154.297 19.5119 153.986 20.0079 154 20.7801C154.051 23.3854 154.02 25.993 154.02 28.599V29.4144L154.02 29.4137Z" fill="white"/>
</svg>
