<svg width="145" height="90" viewBox="0 0 145 90" fill="none" xmlns="http://www.w3.org/2000/svg">
<path d="M64.9512 46.2534C64.591 46.101 64.0229 45.4637 64.9512 43.6627L67.1678 39.0217C67.1678 38.8831 67.0708 38.7169 66.9738 38.8277L65.0343 40.7811C64.0063 42.094 63.08 43.4835 62.2635 44.9373L59.9083 48.8303C59.9645 48.8283 60.0202 48.8412 60.0698 48.8677C60.1194 48.8942 60.1611 48.9334 60.1906 48.9813C60.2202 49.0291 60.2365 49.0839 60.238 49.1401C60.2396 49.1963 60.2262 49.2519 60.1993 49.3013L58.038 52.931C57.5116 53.8177 58.4675 54.455 58.5922 54.3164C61.9726 48.858 63.9398 49.2874 63.9398 49.2874L65.0758 46.6691C65.1063 46.6372 65.1279 46.5978 65.1382 46.5549C65.1485 46.512 65.1473 46.4672 65.1346 46.4249C65.1219 46.3827 65.0983 46.3445 65.066 46.3144C65.0338 46.2843 64.9942 46.2632 64.9512 46.2534V46.2534Z" fill="white"/>
<path d="M72.7073 0.660156C63.4113 0.660156 54.4961 4.35297 47.9229 10.9262C41.3496 17.4994 37.6568 26.4147 37.6568 35.7106C37.6507 43.1945 40.0553 50.4812 44.5145 56.4915C45.6546 55.988 46.6432 55.1952 47.3823 54.1918L53.9075 45.8794C54.0435 45.7005 54.2254 45.5617 54.4339 45.4777L55.4176 45.062L66.1405 31.4436L67.706 30.2245L70.8924 25.7774C70.9797 25.6624 71.0823 25.5599 71.1972 25.4726L72.5826 24.4612C72.7508 24.3426 72.9517 24.2789 73.1575 24.2789C73.3634 24.2789 73.5642 24.3426 73.7325 24.4612L75.4227 25.6527C76.3226 26.2805 77.0513 27.1235 77.5423 28.1048L84.3307 40.0192C84.4428 40.245 84.6285 40.4258 84.8572 40.5318C86.358 41.069 87.6943 41.9854 88.7363 43.1918C89.5537 44.0784 93.1141 48.0545 98.1016 54.2749C98.82 55.2561 99.7725 56.042 100.872 56.5608C105.318 50.5453 107.713 43.26 107.702 35.7799C107.711 31.1758 106.813 26.6151 105.059 22.3582C103.306 18.1013 100.73 14.2316 97.4804 10.9703C94.2306 7.70891 90.3702 5.11978 86.1195 3.35074C81.8689 1.5817 77.3113 0.667426 72.7073 0.660156V0.660156ZM47.1052 37.6502L44.8332 36.9021L43.4478 38.8416V36.4449L41.1757 35.7106L43.4478 34.9764V32.5242L44.8332 34.4638L47.1052 33.7295L45.7198 35.6552L47.1052 37.6502ZM46.5788 45.4638L45.8306 47.7358L45.0964 45.4638H42.6442L44.5699 44.0784L43.8357 41.8064L45.7614 43.1918L47.7009 41.8064L46.9528 44.0784L48.8924 45.4638H46.5788ZM47.0221 27.3706L47.7702 29.6426L45.8306 28.2572L43.9049 29.6426L44.6392 27.3706L42.7135 25.9852H44.9994L45.7337 23.7131L46.4818 25.9852H48.8647L47.0221 27.3706ZM50.8596 22.2308L49.4742 20.2912L47.2022 21.0393L48.5876 19.0997L47.2022 17.1741L49.4742 17.9083L50.8596 15.9688V18.3655L53.1317 19.0997L50.8596 19.834V22.2308ZM56.8445 13.9184L56.0964 16.1904L55.3622 13.9184H52.9793L54.905 12.533L54.1707 10.2609L56.0964 11.6463L58.036 10.2609L57.2879 12.533L59.2274 13.9184H56.8445ZM64.3672 10.0808L62.9818 12.0204V9.62366L60.7098 8.8894L62.9818 8.15514V5.7584L64.3672 7.69796L66.6393 6.9637L65.2539 8.8894L66.6393 10.8289L64.3672 10.0808ZM73.8987 7.89192L74.6468 10.164L72.7073 8.77857L70.7816 10.164L71.5158 7.89192L69.5763 6.50652H71.973L72.7073 4.23448L73.4415 6.50652H75.8383L73.8987 7.89192ZM82.4605 9.62366V12.0204L81.0751 10.0808L78.803 10.8289L80.1884 8.8894L78.803 6.9637L81.0196 7.58713L82.405 5.64758V8.04431L84.6771 8.77857L82.4605 9.62366ZM98.3094 33.8403L100.581 34.5746L101.967 32.6351V35.0318L104.239 35.766L101.967 36.5003V38.897L100.581 36.9575L98.3094 37.7056L99.6948 35.766L98.3094 33.8403ZM89.3182 16.1904L88.5839 13.9184H86.1872L88.1267 12.533L87.3925 10.2609L89.3182 11.6463L91.2577 10.2609L90.5096 12.533L92.4492 13.9184H90.0524L89.3182 16.1904ZM94.555 22.2862V19.8894L92.2829 19.1552L94.555 18.4209V16.0242L95.9403 17.9637L98.2124 17.2295L96.827 19.1552L98.2124 21.0947L95.9403 20.3466L94.555 22.2862ZM98.8497 26.0129L99.5839 23.7408L100.318 26.0129H102.715L100.775 27.3983L101.523 29.6703L99.5839 28.2849L97.6582 29.6703L98.3925 27.3983L96.4529 26.0129H98.8497ZM100.318 45.5192L99.5839 47.7913L98.8497 45.5192H96.4529L98.3925 44.1338L97.6582 41.8618L99.5839 43.2472L101.523 41.8618L100.775 44.1338L102.715 45.5192H100.318Z" fill="white"/>
<path d="M85.3427 55.9651C85.5198 55.6325 85.6124 55.2614 85.6124 54.8845C85.6124 54.5077 85.5198 54.1366 85.3427 53.8039L83.7911 49.6477C83.5694 49.1213 84.0404 48.8027 84.3452 49.149C85.6493 50.6616 86.8525 52.2583 87.9472 53.9286L89.4019 56.3253C90.6349 56.4085 94.0707 56.5054 97.3818 56.5054C97.0472 56.1726 96.737 55.816 96.4536 55.4387C90.815 48.5117 87.2407 44.5634 87.213 44.5218C86.5343 43.6904 85.6578 43.0426 84.6639 42.6377L84.2621 42.4575V43.5104C84.2621 43.6628 84.0959 43.7321 84.0127 43.5104L75.7004 28.95C75.355 28.2641 74.8459 27.6741 74.218 27.2321L73.4006 26.6641L69.4522 35.78C69.5942 35.7828 69.7333 35.8201 69.8575 35.8888C69.9817 35.9576 70.0873 36.0555 70.1651 36.1743C70.2429 36.293 70.2905 36.4289 70.3039 36.5702C70.3173 36.7116 70.296 36.854 70.2419 36.9852L66.5845 45.4362H69.9371C71.2348 45.434 72.5201 45.6882 73.7192 46.1843L74.6059 46.5445C74.6059 46.5445 71.9321 52.086 71.9321 54.8568C71.9358 55.3862 72.0103 55.9127 72.1538 56.4223H78.3049L78.014 54.6906C80.4311 55.2524 82.8778 55.6779 85.3427 55.9651V55.9651Z" fill="white"/>
<path d="M37.9061 64.8592C37.9061 59.2207 31.9212 56.5469 24.8141 56.5469C17.2083 56.5469 10.2259 59.9134 7.66291 65.1363C6.95585 66.5315 6.59023 68.0747 6.59615 69.6388C6.55959 70.9873 6.93144 72.3153 7.66291 73.4487C8.34716 74.3548 9.24989 75.0728 10.2868 75.5355C11.3237 75.9983 12.461 76.1907 13.5924 76.0948C17.1251 76.0948 19.9236 74.1552 19.9236 70.7887C19.9269 70.6544 19.9009 70.5211 19.8476 70.3978C19.7942 70.2745 19.7147 70.1642 19.6146 70.0747C19.5145 69.9851 19.3962 69.9183 19.2677 69.879C19.1393 69.8396 19.0038 69.8286 18.8707 69.8467C17.9841 69.8467 17.7486 70.4701 17.7763 70.7887C17.8636 71.3894 17.8182 72.0019 17.6434 72.5831C17.4687 73.1644 17.1687 73.7003 16.7647 74.1532C16.3606 74.6061 15.8623 74.965 15.3046 75.2047C14.747 75.4444 14.1437 75.5591 13.537 75.5406C10.406 75.5406 9.10371 72.8807 9.10371 69.9991C9.10371 64.1666 13.4954 60.3013 18.0672 58.625C20.2068 57.8263 22.4749 57.4272 24.7587 57.4474C29.9262 57.4474 34.1655 59.4424 34.1655 64.7761C34.0963 66.9639 33.2204 69.0488 31.7062 70.6294C30.1921 72.2101 28.1467 73.1748 25.964 73.3379L26.1441 72.7421C26.9232 69.3946 28.2278 66.1915 30.0093 63.2522C30.1201 63.0998 30.3002 62.8366 30.5081 62.5733L30.2448 62.2686C29.8538 62.5016 29.4789 62.7608 29.1227 63.0444C20.5471 69.7358 20.2838 88.5495 8.86819 88.5495C8.47452 88.5543 8.081 88.5312 7.69061 88.4802C6.66799 88.3852 5.72099 87.9008 5.04542 87.1273C4.36985 86.3537 4.01738 85.3501 4.06088 84.324C4.06088 83.8807 4.21327 83.285 4.21327 82.9386C4.21695 82.7876 4.19085 82.6374 4.13644 82.4964C4.08203 82.3555 4.00039 82.2267 3.89618 82.1174C3.79197 82.008 3.66723 81.9202 3.52909 81.8591C3.39096 81.798 3.24212 81.7646 3.0911 81.761H2.95257C1.94123 81.761 1.56717 82.5784 1.4979 83.7283C1.41478 87.0394 3.86693 88.979 7.66291 89.3392C8.07853 89.3392 8.49414 89.3392 8.93747 89.3392C17.8594 89.3392 23.3179 82.5923 25.6453 74.4185C26.8231 74.2726 27.9864 74.027 29.1227 73.6842C33.2511 72.5205 37.9061 69.7497 37.9061 64.8592Z" fill="white"/>
<path d="M122.788 66.8267H119.657L118.951 68.4753L117.718 71.2461H116.332L115.889 72.1743H117.399L115.57 76.2335C114.268 79.0043 112.218 81.872 111.054 81.872C110.791 81.872 110.625 81.7751 110.625 81.5118C110.673 81.0815 110.8 80.6637 110.999 80.2788C111.359 79.4199 111.968 78.1592 112.384 77.2448C113.176 75.8746 113.747 74.3877 114.074 72.8393C114.088 72.5872 114.046 72.3352 113.953 72.1007C113.859 71.8661 113.716 71.6546 113.533 71.4808C113.35 71.307 113.132 71.1749 112.892 71.0937C112.653 71.0125 112.4 70.9842 112.149 71.0106C111.383 71.0783 110.638 71.2997 109.96 71.6615C109.282 72.0233 108.683 72.5181 108.2 73.1164L108.976 71.2461H105.956L103.559 76.7876C102.589 78.7133 100.622 81.9275 99.403 81.9275C99.1397 81.9275 99.0289 81.7751 99.0289 81.5118C99.0562 81.2781 99.1169 81.0495 99.209 80.833C99.3198 80.5975 100.761 77.231 100.761 77.231L103.365 71.2461H100.179L97.6435 77.0647C96.8677 78.8796 94.8727 81.9275 93.5982 81.9275C93.5453 81.9332 93.4919 81.9284 93.441 81.9134C93.39 81.8984 93.3426 81.8734 93.3013 81.8399C93.2601 81.8064 93.2259 81.765 93.2008 81.7182C93.1756 81.6714 93.16 81.6201 93.1548 81.5673V81.4564C93.2263 81.0037 93.3664 80.5646 93.5704 80.1542L94.9558 77.231L97.7266 71.2461H94.5679L93.9445 72.6315C93.7495 73.1606 93.4122 73.6256 92.9697 73.9752C92.5272 74.3247 91.9968 74.5453 91.4369 74.6126C91.239 74.6394 91.0375 74.6094 90.8559 74.526C90.6744 74.4426 90.5203 74.3092 90.4117 74.1415C90.4092 73.7157 90.319 73.295 90.1468 72.9056C89.9747 72.5162 89.7242 72.1663 89.411 71.8778C89.0979 71.5893 88.7287 71.3684 88.3264 71.2287C87.9242 71.089 87.4975 71.0337 87.0729 71.066C85.9075 71.097 84.7698 71.4283 83.7699 72.0277C82.77 72.6272 81.9417 73.4746 81.3651 74.4879C80.559 75.7855 79.9256 77.1826 79.481 78.6441C78.3588 80.5005 77.1812 81.9413 76.253 81.9413C76.0175 81.9413 75.8513 81.8028 75.8513 81.4841C75.9394 81.0445 76.0789 80.6167 76.2669 80.2096L78.3311 75.8179C78.8543 74.847 79.1837 73.7836 79.3009 72.6869C79.3076 72.4638 79.267 72.2419 79.1817 72.0357C79.0965 71.8294 78.9684 71.6436 78.8061 71.4904C78.6438 71.3373 78.4509 71.2203 78.2401 71.1471C78.0292 71.074 77.8053 71.0463 77.583 71.066C76.7347 71.1252 75.9075 71.3573 75.1523 71.748C74.397 72.1387 73.7297 72.6798 73.1913 73.338C73.2191 73.1126 73.2191 72.8846 73.1913 72.6592C73.2279 72.4405 73.2115 72.2162 73.1435 72.0052C73.0755 71.7942 72.9578 71.6026 72.8003 71.4465C72.6428 71.2903 72.4502 71.1743 72.2386 71.1081C72.027 71.0419 71.8026 71.0275 71.5842 71.066C70.7871 71.1352 70.014 71.3736 69.3164 71.7654C68.6188 72.1572 68.0128 72.6934 67.5389 73.338L68.3701 71.3015H65.5024L63.0641 76.8431C61.9142 79.4338 60.0716 81.9967 59.0187 81.9967C58.7832 81.9967 58.6308 81.8582 58.6308 81.5396C58.7879 80.7727 59.0392 80.0282 59.3789 79.3229L62.6069 72.0358C62.8285 71.4816 61.2908 71.1491 59.3374 71.1491C57.2855 71.2542 55.3308 72.0556 53.7958 73.4212C53.1834 74.0734 52.4089 74.5514 51.5514 74.8065C51.3436 74.8065 51.2605 74.6957 51.2605 74.571C51.2605 74.1277 52.3273 72.867 52.3273 71.8972C52.3273 71.4539 52.0917 71.1768 51.496 71.1768C50.0847 71.4519 48.8314 72.2545 47.991 73.4212L48.8222 71.4123H46.0514L43.6131 76.9539C42.4633 79.5446 40.5653 82.2323 39.4569 82.2323C39.2214 82.2323 39.069 82.1076 39.069 81.7889C39.2307 80.9804 39.501 80.1975 39.8726 79.4615L43.0867 72.1466C43.3222 71.5924 41.7844 71.2599 39.831 71.2599C38.4169 71.3087 37.0305 71.6663 35.7693 72.3077C34.508 72.9491 33.4024 73.8587 32.53 74.9728C30.9961 76.7707 30.0317 78.9842 29.7592 81.3317C29.7111 81.6552 29.7375 81.9854 29.8365 82.2972C29.9354 82.6089 30.1042 82.8939 30.3301 83.1305C30.5559 83.367 30.8328 83.5488 31.1397 83.6621C31.4465 83.7753 31.7751 83.817 32.1005 83.7839C32.8995 83.6925 33.669 83.4283 34.3556 83.0096C35.0422 82.591 35.6294 82.0279 36.0766 81.3595C36.0262 81.5647 35.9892 81.7729 35.9658 81.9829C35.9658 83.0219 36.3814 83.7839 37.6698 83.7839C38.4356 83.6578 39.1679 83.378 39.8227 82.9614C40.4775 82.5447 41.0411 81.9998 41.4796 81.3595L40.5099 83.5761H43.6131L46.6194 76.7599C47.6169 74.5294 48.7391 73.3796 49.0439 73.3796C49.3487 73.3796 49.2101 73.3796 49.2101 73.5181C49.2101 73.6567 48.7391 74.3771 48.7391 74.9035C48.7391 75.43 49.0439 75.9287 49.889 75.9287C50.6218 75.8728 51.3256 75.6191 51.9255 75.1945C50.4763 76.9244 49.5745 79.0463 49.3348 81.2902C49.2812 81.6118 49.3016 81.9413 49.3943 82.2539C49.487 82.5665 49.6497 82.8538 49.87 83.0941C50.0903 83.3344 50.3625 83.5215 50.6658 83.641C50.9691 83.7605 51.2957 83.8094 51.6207 83.7839C53.2693 83.7839 54.8071 82.2184 55.6522 81.1655C55.6374 81.41 55.6374 81.6552 55.6522 81.8998C55.627 82.137 55.6519 82.377 55.7253 82.604C55.7987 82.831 55.9189 83.0401 56.0782 83.2177C56.2376 83.3954 56.4324 83.5375 56.6502 83.6351C56.868 83.7326 57.1038 83.7833 57.3424 83.7839C58.7278 83.7839 59.6976 82.9804 60.9998 81.3872L60.0439 83.5761H63.1749L66.0565 77.0647C67.3034 74.2939 69.0074 72.7285 69.8386 72.7285C69.8889 72.7227 69.9398 72.7272 69.9882 72.7417C70.0367 72.7562 70.0817 72.7804 70.1205 72.8127C70.1594 72.8451 70.1912 72.885 70.2142 72.9301C70.2372 72.9751 70.2508 73.0243 70.2543 73.0748C70.2193 73.4304 70.1108 73.7748 69.9356 74.0861L65.7794 83.6315H68.9935L71.9306 76.9955C73.1774 74.1416 74.5628 72.7561 75.6157 72.7561C75.9205 72.7561 76.0591 72.9085 76.0591 73.2549C76.028 73.6164 75.9293 73.9689 75.7681 74.2939L72.9973 80.3066C72.7389 80.8854 72.5797 81.5036 72.5263 82.1353C72.5263 83.0496 73.025 83.867 74.4381 83.867C76.2669 83.867 77.6523 82.4816 79.2178 80.4174V80.8607C79.2207 81.2987 79.3158 81.7312 79.4971 82.1299C79.6783 82.5287 79.9416 82.8848 80.2697 83.175C80.5978 83.4651 80.9834 83.6829 81.4013 83.8141C81.8192 83.9453 82.26 83.9869 82.6951 83.9363C85.5767 83.9363 87.9042 81.9552 89.3034 78.7965C89.8428 77.6854 90.1894 76.4909 90.3286 75.2637C90.6441 75.4277 90.9994 75.4997 91.3538 75.4715C91.8367 75.4833 92.3143 75.3687 92.7392 75.139L92.2405 76.2058C91.6586 77.4111 91.0352 78.7411 90.5364 79.8632C90.2243 80.5294 90.0409 81.2486 89.9961 81.9829C89.9687 82.2407 89.9985 82.5015 90.0836 82.7464C90.1686 82.9914 90.3068 83.2145 90.4882 83.3998C90.6695 83.5852 90.8896 83.7281 91.1327 83.8185C91.3757 83.9088 91.6357 83.9443 91.8941 83.9224C92.7846 83.7699 93.6331 83.432 94.3849 82.9309C95.1366 82.4297 95.7748 81.7764 96.2581 81.0131C96.1694 81.3666 96.1229 81.7293 96.1196 82.0937C96.1196 83.0219 96.4105 83.9224 97.7128 83.9224C99.2367 83.9224 100.414 82.8141 101.564 81.4287L100.594 83.6315H103.753L106.288 77.8821C107.674 74.6403 109.17 72.673 110.445 72.673C110.555 72.6725 110.662 72.7135 110.744 72.7879C110.826 72.8622 110.877 72.9646 110.888 73.0748V73.1441C110.531 74.3767 110.028 75.5626 109.392 76.6768C108.741 78.0622 108.242 79.0874 107.909 79.8909C107.593 80.5758 107.405 81.3131 107.355 82.066C107.34 82.3016 107.376 82.5377 107.461 82.7579C107.547 82.978 107.679 83.1768 107.849 83.3405C108.019 83.5041 108.223 83.6286 108.447 83.7051C108.67 83.7817 108.907 83.8086 109.142 83.7839C110.985 83.7839 112.827 82.0106 113.825 80.6806C113.603 81.3182 113.481 81.9867 113.465 82.6617C113.418 83.0247 113.454 83.3933 113.567 83.741C113.681 84.0887 113.871 84.4067 114.123 84.672C114.375 84.9373 114.683 85.1431 115.024 85.2746C115.366 85.4062 115.732 85.4601 116.097 85.4325C117.124 85.4277 118.123 85.0979 118.951 84.4904C120.121 83.5873 121.128 82.4909 121.929 81.2486L121.375 80.7222C120.708 81.7681 119.88 82.703 118.923 83.493C118.464 83.8691 117.895 84.0877 117.302 84.1164C116.651 84.1164 116.235 83.77 116.235 82.9388C116.371 81.7337 116.703 80.559 117.219 79.4615C117.219 79.4615 118.106 77.5081 118.923 75.6516C119.602 74.0723 120.309 72.5622 120.419 72.2436H122.484L122.899 71.3153H120.863L122.788 66.8267ZM33.6383 81.8998C33.195 81.8998 32.8763 81.7474 32.8763 81.1655C33.2929 78.8005 34.2928 76.5768 35.7857 74.6957C36.2274 73.964 36.8325 73.3444 37.5535 72.8853C38.2745 72.4263 39.0919 72.1403 39.9418 72.0496L37.9469 76.4967C36.4645 79.8355 34.8436 81.8998 33.6383 81.8998ZM53.1862 81.8998C53.084 81.9178 52.9789 81.9117 52.8795 81.8818C52.78 81.852 52.6889 81.7992 52.6135 81.7279C52.5381 81.6565 52.4804 81.5685 52.4452 81.4708C52.4099 81.3731 52.398 81.2686 52.4104 81.1655C52.8206 78.8011 53.816 76.5769 55.3059 74.6957C55.7476 73.964 56.3527 73.3444 57.0737 72.8853C57.7947 72.4263 58.6121 72.1403 59.462 72.0496L57.4671 76.4967C55.957 79.9187 54.4192 81.8998 53.1862 81.8998ZM87.9457 73.2549C87.4486 76.2327 86.3144 79.068 84.6208 81.5673C83.9142 82.5647 83.3185 82.8418 82.7921 82.8418C82.2656 82.8418 81.85 82.2461 81.9608 81.3595C82.4774 78.5983 83.5728 75.9778 85.175 73.6705C85.9785 72.5483 86.5603 72.0773 87.1561 72.0773C87.7518 72.0773 87.9457 72.6038 87.9457 73.2549Z" fill="white"/>
<path d="M136.685 71.2457L139.553 64.5957H136.159L133.277 71.2457H126.031L124.826 74.0303H132.072L129.19 80.6799H132.598L135.48 74.0303H142.712L143.917 71.2457H136.685Z" fill="white"/>
</svg>
