<svg width="145" height="90" viewBox="0 0 145 90" fill="none" xmlns="http://www.w3.org/2000/svg">
<path d="M54.3038 37.008H58.3777V48.4675H61.1214V37.008H65.1675V34.4443H54.3038V37.008Z" fill="white"/>
<path d="M70.7942 34.4443H68.009V48.4811H70.7942V34.4443Z" fill="white"/>
<path d="M84.1512 43.6038L77.2921 34.4443H74.6316V48.4675H77.3614V39.3219L84.2205 48.4675H86.881V34.4443H84.1512V43.6038Z" fill="white"/>
<path d="M98.0633 43.7424H100.682C100.457 44.5072 99.9738 45.1702 99.314 45.6176C98.6542 46.0651 97.8594 46.2692 97.0657 46.1951C96.4494 46.2115 95.8365 46.0997 95.2658 45.8667C94.6951 45.6338 94.1791 45.2847 93.7504 44.8417C93.3217 44.3987 92.9898 43.8715 92.7758 43.2934C92.5617 42.7154 92.4701 42.0991 92.5068 41.4838C92.4713 40.8791 92.5577 40.2735 92.761 39.703C92.9643 39.1324 93.2802 38.6086 93.69 38.1626C94.0998 37.7166 94.5951 37.3576 95.1464 37.1069C95.6978 36.8561 96.2939 36.7189 96.8994 36.7032C97.5818 36.6365 98.2672 36.7956 98.8504 37.156C99.4337 37.5165 99.8825 38.0584 100.128 38.6986L100.239 39.1004H103.01L102.927 38.4907C102.539 35.9688 100.003 34.1397 96.9132 34.1397C95.956 34.1372 95.0081 34.328 94.1264 34.7007C93.2447 35.0735 92.4474 35.6205 91.7823 36.3089C91.1171 36.9974 90.5979 37.813 90.2557 38.707C89.9135 39.601 89.7554 40.5549 89.7909 41.5115C89.7506 42.4736 89.9086 43.4338 90.2551 44.3323C90.6015 45.2308 91.1289 46.0485 91.8046 46.7346C92.4803 47.4207 93.2899 47.9605 94.183 48.3206C95.0761 48.6807 96.0337 48.8534 96.9964 48.8278C98.5088 48.9163 100.003 48.4585 101.206 47.5377C102.409 46.617 103.241 45.2947 103.551 43.8117H105.033V41.2343H98.1049L98.0633 43.7424Z" fill="white"/>
<path d="M141.089 34.4443L138.304 39.9593L134.84 34.4443H131.639L136.877 42.8139L134.023 48.4675H137.057L144.11 34.4443H141.089Z" fill="white"/>
<path d="M115.137 43.1464C115.83 42.7299 116.404 42.1408 116.802 41.4366C117.201 40.7324 117.41 39.937 117.409 39.1279C117.406 37.894 116.917 36.7111 116.048 35.8347C115.18 34.9583 114.001 34.4589 112.767 34.4443H107.349V48.4674H110.121V43.8254H112.393L114.527 48.4812H117.603L115.137 43.1464ZM112.767 41.2341H110.079V37.0771H112.74C113.289 37.0769 113.816 37.2912 114.21 37.6743C114.603 38.0574 114.831 38.579 114.846 39.1279C114.846 39.6818 114.628 40.2133 114.239 40.6075C113.85 41.0017 113.321 41.2268 112.767 41.2341V41.2341Z" fill="white"/>
<path d="M126.873 34.5554V34.4307H124.448L119.598 48.4676H122.578L123.617 45.336H127.774L128.813 48.4676H131.64L126.873 34.5554ZM124.102 43.0357L125.585 38.5739L127.053 43.0357H124.102Z" fill="white"/>
<path d="M49.135 40.4028L46.5992 39.8208C45.5599 39.5714 45.0334 39.0864 45.0334 38.2966C45.0334 37.5067 45.9202 36.6754 47.2366 36.6754C47.785 36.624 48.3348 36.7587 48.7973 37.0578C49.2598 37.357 49.6081 37.8031 49.7862 38.3243H52.6546C52.1973 35.9687 50.3682 34.292 47.2089 34.292C44.2851 34.292 42.2205 36.0657 42.2205 38.5737C42.2205 40.8462 43.7447 41.9132 45.7401 42.3705L48.2204 42.9247C49.426 43.2019 49.9109 43.6591 49.9109 44.4905C49.9109 45.5991 48.9964 46.2365 47.5969 46.2365C46.9996 46.304 46.3974 46.1629 45.8923 45.8371C45.3872 45.5113 45.0103 45.0209 44.8255 44.449H41.8463C42.3313 47.0956 44.5207 48.606 47.6107 48.606C50.7008 48.606 52.7654 46.9848 52.7654 44.2966C52.7654 42.2042 51.3936 40.9155 49.135 40.4028Z" fill="white"/>
<path d="M51.0611 63.3081H49.0934V57.9317L47.2227 63.3081H45.7262L43.7863 57.9317V63.3081H41.8463V54.6338H44.1604L46.4883 60.6753L48.7747 54.6338H51.0611V63.3081Z" fill="white"/>
<path d="M53.0156 54.6338H55.0248V60.3289C55.0135 60.5177 55.0409 60.7069 55.1055 60.8848C55.17 61.0626 55.2703 61.2253 55.4001 61.3629C55.5299 61.5006 55.6865 61.6101 55.8603 61.6849C56.0341 61.7597 56.2213 61.798 56.4105 61.7977C56.5997 61.798 56.787 61.7597 56.9607 61.6849C57.1345 61.6101 57.2911 61.5006 57.421 61.3629C57.5508 61.2253 57.651 61.0626 57.7156 60.8848C57.7801 60.7069 57.8076 60.5177 57.7962 60.3289V54.6338H59.8054V60.3428C59.8124 60.7799 59.7282 61.2137 59.5582 61.6165C59.3882 62.0193 59.136 62.3822 58.8179 62.6821C58.4998 62.982 58.1226 63.2122 57.7105 63.3582C57.2984 63.5042 56.8604 63.5626 56.4244 63.5298C55.9884 63.5626 55.5504 63.5042 55.1383 63.3582C54.7262 63.2122 54.349 62.982 54.0309 62.6821C53.7127 62.3822 53.4606 62.0193 53.2906 61.6165C53.1205 61.2137 53.0363 60.7799 53.0433 60.3428L53.0156 54.6338Z" fill="white"/>
<path d="M63.3821 60.4398C63.3667 60.6309 63.3912 60.8231 63.454 61.0042C63.5167 61.1853 63.6163 61.3515 63.7466 61.4921C63.8768 61.6328 64.0348 61.7449 64.2106 61.8214C64.3863 61.8978 64.5761 61.937 64.7678 61.9363C64.9116 61.9517 65.0571 61.9372 65.1952 61.8938C65.3332 61.8503 65.4608 61.779 65.57 61.6841C65.6792 61.5891 65.7677 61.4727 65.8299 61.3421C65.8922 61.2115 65.9268 61.0694 65.9317 60.9248C65.9317 60.232 65.3497 59.9826 64.546 59.7054C63.0079 59.1373 61.6084 58.6107 61.6084 56.9341C61.6084 55.2574 63.0772 54.426 64.6708 54.426C65.0595 54.383 65.4529 54.4227 65.8251 54.5426C66.1974 54.6625 66.5401 54.8597 66.8306 55.1215C67.1212 55.3833 67.353 55.7036 67.511 56.0613C67.6689 56.4191 67.7493 56.8063 67.747 57.1974H65.7377C65.7377 56.4352 65.3497 55.9503 64.643 55.9503C64.5167 55.9349 64.3885 55.9456 64.2665 55.9819C64.1445 56.0181 64.0312 56.0791 63.9338 56.161C63.8363 56.2428 63.7567 56.3439 63.7 56.4578C63.6432 56.5717 63.6105 56.6961 63.6038 56.8232C63.6038 57.3913 64.0611 57.71 64.8509 57.9872C66.389 58.5137 67.8994 59.068 67.8994 60.8417C67.9046 61.2461 67.8212 61.6468 67.6551 62.0156C67.489 62.3844 67.2441 62.7123 66.9378 62.9764C66.6314 63.2405 66.271 63.4344 65.8817 63.5444C65.4925 63.6543 65.0839 63.6778 64.6846 63.613C64.2563 63.6613 63.8225 63.6163 63.4131 63.4814C63.0037 63.3465 62.6283 63.1248 62.3125 62.8314C61.9967 62.538 61.748 62.1798 61.5834 61.7814C61.4189 61.383 61.3423 60.9537 61.359 60.523L63.3821 60.4398Z" fill="white"/>
<path d="M69.6708 54.6338H71.7077V63.3081H69.6708V54.6338Z" fill="white"/>
<path d="M82.3511 60.2045C82.1522 61.1894 81.6032 62.0689 80.8059 62.6802C80.0085 63.2916 79.0167 63.5935 78.0139 63.5301C77.4036 63.5568 76.7943 63.4579 76.2238 63.2395C75.6533 63.0212 75.1337 62.688 74.6972 62.2606C74.2607 61.8332 73.9166 61.3207 73.6862 60.7549C73.4559 60.1891 73.3442 59.582 73.3581 58.9712C73.3323 58.3579 73.4347 57.7458 73.6585 57.1742C73.8824 56.6026 74.2229 56.0838 74.6583 55.651C75.0937 55.2182 75.6145 54.8809 76.1874 54.6605C76.7604 54.44 77.373 54.3414 77.9862 54.3708C79.0344 54.2922 80.0724 54.6217 80.8832 55.2905C81.6941 55.9594 82.2151 56.9157 82.3372 57.9597H80.2449C80.163 57.4371 79.8888 56.9641 79.476 56.6333C79.0632 56.3026 78.5418 56.1381 78.0139 56.1722C77.6568 56.1694 77.3029 56.2405 76.9746 56.381C76.6462 56.5215 76.3504 56.7283 76.1058 56.9886C75.8612 57.2488 75.673 57.5568 75.553 57.8932C75.4331 58.2296 75.384 58.5872 75.4089 58.9435C75.388 59.3012 75.4408 59.6594 75.5639 59.9959C75.687 60.3324 75.8779 60.64 76.1246 60.8998C76.3714 61.1596 76.6689 61.3659 76.9986 61.5061C77.3284 61.6463 77.6834 61.7174 78.0417 61.7149C78.5227 61.7416 78.9987 61.6059 79.3933 61.3294C79.7879 61.053 80.078 60.6519 80.2172 60.1907L82.3511 60.2045Z" fill="white"/>
<path opacity="0.5" d="M2.77136 55.7561L17.7228 69.3912C17.5565 67.1879 15.9214 59.9963 8.4942 49.9917C8.05078 50.546 7.59351 51.0725 7.10852 51.613C6.62354 52.1534 6.22169 52.5691 5.72285 52.9986C5.224 53.4282 4.33717 54.2873 3.65819 54.9109C3.43649 55.285 3.13164 55.5344 2.77136 55.7561Z" fill="white"/>
<path opacity="0.5" d="M32.7023 55.7562L31.58 54.8001C30.8594 54.1627 30.1943 53.5115 29.5292 52.8602C28.864 52.2089 28.476 51.7655 27.9911 51.2112C27.5061 50.657 27.3121 50.4214 26.9934 50.0195C19.5662 59.9964 17.9172 67.188 17.7648 69.419L32.7023 55.7562Z" fill="white"/>
<path d="M0 41.0263C3.17915 43.7039 6.04287 46.735 8.53576 50.0609V50.0609C13.5456 43.7591 16.7369 36.2073 17.7644 28.2227L0 41.0263Z" fill="white"/>
<path d="M25.3989 47.9402L25.0802 47.4414L25.3989 47.9402Z" fill="white"/>
<path d="M24.1393 46.0561C24.0008 45.8482 23.8761 45.6265 23.7513 45.4048C23.8761 45.5711 24.0008 45.7928 24.1393 46.0561Z" fill="white"/>
<path d="M23.0023 44.0745C22.8637 43.8528 22.739 43.6172 22.6282 43.3955L23.0023 44.0745Z" fill="white"/>
<path d="M27.4222 50.2231C26.8688 49.5665 26.359 48.896 25.8638 48.2255L25.7473 48.0858L25.4123 47.583C25.0774 47.122 24.7715 46.675 24.4657 46.1861V46.1023C24.32 45.8928 24.189 45.6693 24.0433 45.4458L23.2714 44.1607L22.8636 43.4483C22.616 42.9874 22.3684 42.5264 22.1354 42.0515L21.8587 41.5207C21.5674 40.934 21.3052 40.3613 21.0431 39.7886L20.9557 39.579C20.9557 39.4533 20.8538 39.3276 20.7955 39.1879C20.6353 38.8108 20.4897 38.4476 20.344 38.0844L20.1838 37.7212L20.0964 37.4698C19.8925 36.939 19.7032 36.4082 19.543 35.9053V35.8355C19.3682 35.3186 19.2226 34.8297 19.0769 34.3548C19.0833 34.2944 19.0833 34.2336 19.0769 34.1732V33.9637C18.9459 33.5167 18.8148 33.0837 18.7128 32.6646V32.511L18.5381 31.7427V31.6728C18.2613 30.4296 18.1011 29.4239 18.0137 28.7674C18.0137 28.5579 18.0137 28.3623 18.0137 28.2227C16.9338 36.2717 13.5796 43.8844 8.31403 50.237C16.1204 60.2943 17.8535 67.544 18.0137 69.7929C18.174 67.5719 19.9071 60.3223 27.7135 50.237L27.4222 50.2231Z" fill="white"/>
<path d="M8.53595 50.0615C15.9632 60.0384 17.5983 67.23 17.7645 69.461C17.6121 67.2578 15.9632 60.0661 8.53595 50.0615Z" fill="white"/>
<path opacity="0.8" d="M35.5291 41.0263L17.7648 28.2227C17.7648 28.3612 17.7648 28.5413 17.7648 28.763C17.7648 28.763 17.7648 28.8462 17.7648 28.8878C17.7648 28.9293 17.7648 29.1788 17.7648 29.345V29.5668C17.7648 29.7192 17.7648 29.8577 17.7648 30.024C17.8479 30.509 17.9588 31.0633 18.0835 31.6591C18.0835 31.9778 18.222 32.2965 18.3052 32.643C18.3883 32.9894 18.5269 33.4882 18.6516 33.9316C18.6516 34.0563 18.7209 34.1811 18.7486 34.3196C18.8872 34.7907 19.0257 35.2757 19.192 35.7884V35.8577C19.3444 36.3566 19.5384 36.8831 19.7186 37.4097L19.9541 38.0194C20.0927 38.3797 20.2313 38.7538 20.3837 39.114C20.5361 39.4743 20.5361 39.5021 20.6193 39.7099C20.7024 39.9178 20.744 39.9732 20.7994 40.1117C20.9934 40.5551 21.1874 40.9847 21.3952 41.4281C21.4784 41.6083 21.5615 41.7884 21.6585 41.9685C21.8802 42.4258 22.1158 42.8831 22.3652 43.3542C22.4761 43.5759 22.6008 43.8115 22.7394 44.0332C22.8779 44.2549 23.2243 44.8923 23.4876 45.3219C23.6123 45.5436 23.737 45.7653 23.8756 45.9732V46.0563C24.1666 46.4997 24.4576 46.957 24.7763 47.442C24.9149 47.6498 25.0534 47.8715 25.2059 48.0794C25.677 48.7445 26.162 49.4651 26.6885 50.0609C27.1319 49.4789 27.5892 48.8831 28.0742 48.3011C28.7947 47.4281 29.543 46.5551 30.3606 45.6822C31.1781 44.8092 31.8848 44.0748 32.7162 43.2849C33.5476 42.4951 34.6423 41.7745 35.5291 41.0263Z" fill="white"/>
<path d="M21.9226 41.997C21.8256 41.8168 21.7424 41.6367 21.6593 41.4565L21.9226 41.997Z" fill="white"/>
<path opacity="0.8" d="M21.9226 41.997C21.8256 41.8168 21.7424 41.6367 21.6593 41.4565L21.9226 41.997Z" fill="white"/>
<path d="M18.319 31.6868C18.1942 31.091 18.0834 30.5367 18.0002 30.0518C18.0834 30.5367 18.1942 31.091 18.319 31.6868Z" fill="white"/>
<path opacity="0.8" d="M18.319 31.6868C18.1942 31.091 18.0834 30.5367 18.0002 30.0518C18.0834 30.5367 18.1942 31.091 18.319 31.6868Z" fill="white"/>
<path d="M17.8208 28.763C17.8208 28.5413 17.8208 28.3612 17.8208 28.2227C17.7792 28.3612 17.7931 28.5552 17.8208 28.763Z" fill="white"/>
<path opacity="0.8" d="M17.8208 28.763C17.8208 28.5413 17.8208 28.3612 17.8208 28.2227C17.7792 28.3612 17.7931 28.5552 17.8208 28.763Z" fill="white"/>
<path d="M25.0796 47.4418C24.7609 46.9846 24.4699 46.5273 24.179 46.0562C24.4699 46.5411 24.7609 46.9846 25.0796 47.4418Z" fill="white"/>
<path opacity="0.8" d="M25.0796 47.4418C24.7609 46.9846 24.4699 46.5273 24.179 46.0562C24.4699 46.5411 24.7609 46.9846 25.0796 47.4418Z" fill="white"/>
<path d="M20.6464 39.1284C20.4939 38.7681 20.3554 38.394 20.2168 38.0337C20.3554 38.4078 20.4939 38.7681 20.6464 39.1284Z" fill="white"/>
<path opacity="0.8" d="M20.6464 39.1284C20.4939 38.7681 20.3554 38.394 20.2168 38.0337C20.3554 38.4078 20.4939 38.7681 20.6464 39.1284Z" fill="white"/>
<path d="M21.657 41.456C21.4491 41.0126 21.2552 40.5831 21.0612 40.1396C21.2552 40.5831 21.4491 41.0126 21.657 41.456Z" fill="white"/>
<path opacity="0.8" d="M21.657 41.456C21.4491 41.0126 21.2552 40.5831 21.0612 40.1396C21.2552 40.5831 21.4491 41.0126 21.657 41.456Z" fill="white"/>
<path d="M20.8818 39.7371L20.7986 39.5293L20.8818 39.7371Z" fill="white"/>
<path opacity="0.8" d="M20.8818 39.7371L20.7986 39.5293L20.8818 39.7371Z" fill="white"/>
<path d="M23.7364 45.3502C23.4778 44.916 23.2283 44.4865 22.9882 44.0615L23.7364 45.3502Z" fill="white"/>
<path opacity="0.8" d="M23.7364 45.3502C23.4778 44.916 23.2283 44.4865 22.9882 44.0615L23.7364 45.3502Z" fill="white"/>
<path d="M22.615 43.3686C22.3655 42.8975 22.13 42.4402 21.9083 41.9829C22.1715 42.454 22.3794 42.9113 22.615 43.3686Z" fill="white"/>
<path opacity="0.8" d="M22.615 43.3686C22.3655 42.8975 22.13 42.4402 21.9083 41.9829C22.1715 42.454 22.3794 42.9113 22.615 43.3686Z" fill="white"/>
<path d="M18.5415 32.6709C18.6385 33.0866 18.7632 33.5162 18.8879 33.9596C18.7632 33.5854 18.6385 33.0866 18.5415 32.6709Z" fill="white"/>
<path opacity="0.8" d="M18.5415 32.6709C18.6385 33.0866 18.7632 33.5162 18.8879 33.9596C18.7632 33.5854 18.6385 33.0866 18.5415 32.6709Z" fill="white"/>
<path d="M18.9827 34.3472C19.1212 34.8183 19.2598 35.3033 19.4261 35.816C19.2598 35.3033 19.1212 34.8183 18.9827 34.3472Z" fill="white"/>
<path opacity="0.8" d="M18.9827 34.3472C19.1212 34.8183 19.2598 35.3033 19.4261 35.816C19.2598 35.3033 19.1212 34.8183 18.9827 34.3472Z" fill="white"/>
<path d="M18.3179 31.6869C18.1932 31.0911 18.0824 30.5368 17.9992 30.0518C17.9992 29.8855 17.9992 29.747 17.9992 29.5945V29.3728C17.9992 29.2065 17.9992 29.0541 17.9992 28.9156C17.9992 28.777 17.9992 28.8324 17.9992 28.8047C17.9022 29.4282 18.0131 30.4537 18.3179 31.6869Z" fill="white"/>
<path opacity="0.8" d="M18.3179 31.6869C18.1932 31.0911 18.0824 30.5368 17.9992 30.0518C17.9992 29.8855 17.9992 29.747 17.9992 29.5945V29.3728C17.9992 29.2065 17.9992 29.0541 17.9992 28.9156C17.9992 28.777 17.9992 28.8324 17.9992 28.8047C17.9022 29.4282 18.0131 30.4537 18.3179 31.6869Z" fill="white"/>
<path d="M18.498 32.5184V32.6708C18.4149 32.3244 18.3456 32.0057 18.2763 31.687V31.7563L18.498 32.5184Z" fill="white"/>
<path opacity="0.8" d="M18.498 32.5184V32.6708C18.4149 32.3244 18.3456 32.0057 18.2763 31.687V31.7563L18.498 32.5184Z" fill="white"/>
<path d="M18.9849 34.3475C18.9849 34.2089 18.9849 34.0842 18.8879 33.9595V34.1674C18.927 34.2235 18.9596 34.2839 18.9849 34.3475Z" fill="white"/>
<path opacity="0.8" d="M18.9849 34.3475C18.9849 34.2089 18.9849 34.0842 18.8879 33.9595V34.1674C18.927 34.2235 18.9596 34.2839 18.9849 34.3475Z" fill="white"/>
<path d="M17.8325 28.9155C17.8325 29.0541 17.8325 29.2065 17.8325 29.3728C17.874 29.2065 17.8463 29.0541 17.8325 28.9155Z" fill="white"/>
<path opacity="0.8" d="M17.8325 28.9155C17.8325 29.0541 17.8325 29.2065 17.8325 29.3728C17.874 29.2065 17.8463 29.0541 17.8325 28.9155Z" fill="white"/>
<path d="M17.9299 29.5942C17.9299 29.7467 17.9299 29.8853 17.9299 30.0515C18.013 29.8853 18.013 29.7467 17.9299 29.5942Z" fill="white"/>
<path opacity="0.8" d="M17.9299 29.5942C17.9299 29.7467 17.9299 29.8853 17.9299 30.0515C18.013 29.8853 18.013 29.7467 17.9299 29.5942Z" fill="white"/>
<path d="M20.6464 39.1284C20.4939 38.7543 20.3554 38.394 20.2168 38.0337C20.3554 38.4078 20.4939 38.7681 20.6464 39.1284Z" fill="white"/>
<path opacity="0.8" d="M20.6464 39.1284C20.4939 38.7543 20.3554 38.394 20.2168 38.0337C20.3554 38.4078 20.4939 38.7681 20.6464 39.1284Z" fill="white"/>
<path d="M21.6585 41.456C21.4507 41.0126 21.2567 40.5831 21.0627 40.1397C21.0627 40.0011 20.938 39.8625 20.8826 39.7378C21.132 40.3059 21.3814 40.874 21.6585 41.456Z" fill="white"/>
<path opacity="0.8" d="M21.6585 41.456C21.4507 41.0126 21.2567 40.5831 21.0627 40.1397C21.0627 40.0011 20.938 39.8625 20.8826 39.7378C21.132 40.3059 21.3814 40.874 21.6585 41.456Z" fill="white"/>
<path d="M19.3995 35.8853C19.5519 36.3841 19.732 36.9106 19.926 37.4372C19.8013 36.9106 19.6073 36.3564 19.3995 35.8853Z" fill="white"/>
<path opacity="0.8" d="M19.3995 35.8853C19.5519 36.3841 19.732 36.9106 19.926 37.4372C19.8013 36.9106 19.6073 36.3564 19.3995 35.8853Z" fill="white"/>
<path d="M20.8827 39.7374C20.7995 39.5296 20.7302 39.3356 20.6471 39.1416C20.6471 39.2802 20.7441 39.4049 20.7995 39.5296L20.8827 39.7374Z" fill="white"/>
<path opacity="0.8" d="M20.8827 39.7374C20.7995 39.5296 20.7302 39.3356 20.6471 39.1416C20.6471 39.2802 20.7441 39.4049 20.7995 39.5296L20.8827 39.7374Z" fill="white"/>
<path d="M20.2169 38.0472L19.9813 37.4375L20.0645 37.6869L20.2169 38.0472Z" fill="white"/>
<path opacity="0.8" d="M20.2169 38.0472L19.9813 37.4375L20.0645 37.6869L20.2169 38.0472Z" fill="white"/>
<path d="M20.786 39.5296C20.786 39.4049 20.689 39.2802 20.6335 39.1416C20.7028 39.2802 20.786 39.4049 20.786 39.5296Z" fill="white"/>
<path opacity="0.8" d="M20.786 39.5296C20.786 39.4049 20.689 39.2802 20.6335 39.1416C20.7028 39.2802 20.786 39.4049 20.786 39.5296Z" fill="white"/>
<path d="M20.2177 38.0473L20.0652 37.687L20.2177 38.0473Z" fill="white"/>
<path opacity="0.8" d="M20.2177 38.0473L20.0652 37.687L20.2177 38.0473Z" fill="white"/>
<path d="M21.0627 40.1397C21.0627 40.0011 20.938 39.8625 20.8826 39.7378C20.938 39.8625 21.0073 40.0011 21.0627 40.1397Z" fill="white"/>
<path opacity="0.8" d="M21.0627 40.1397C21.0627 40.0011 20.938 39.8625 20.8826 39.7378C20.938 39.8625 21.0073 40.0011 21.0627 40.1397Z" fill="white"/>
</svg>
