<svg width="105" height="55" viewBox="0 0 105 55" fill="none" xmlns="http://www.w3.org/2000/svg">
<path d="M52.6 0.161621C46.2838 0.161621 41.1641 5.4276 41.1641 11.9207C41.1641 18.4169 46.2853 23.6829 52.6 23.6829C58.9162 23.6829 64.0359 18.4169 64.0359 11.9207C64.0359 5.42601 58.9146 0.161621 52.6 0.161621ZM58.7925 12.9761L50.173 18.0227C49.3522 18.5838 48.2578 17.9766 48.2578 16.9657V6.87404C48.2578 5.86153 49.3538 5.25753 50.173 5.81703L58.7925 10.8637C59.5283 11.3675 59.5283 12.4754 58.7925 12.9761Z" fill="url(#paint0_linear_14070_300475)"/>
<path d="M52.5979 46.8746C52.5639 46.8746 52.533 46.8746 52.499 46.8778C44.0589 46.8969 36.1814 49.3781 29.5112 53.6633C29.3752 53.7524 29.2392 53.8414 29.1047 53.9304C28.9362 54.0401 28.7615 54.1354 28.576 54.1974C28.304 54.2864 28.0133 54.3341 27.7119 54.3341C27.7119 54.3341 27.7088 54.3341 27.7073 54.3341C27.3455 54.3341 26.9916 54.2324 26.67 54.0671C26.4212 53.9351 26.1692 53.8032 25.9234 53.6713C25.1691 53.2676 24.424 52.8463 23.6913 52.4076C20.5301 50.5241 17.559 48.3386 14.8152 45.8971C9.19619 40.8854 4.5263 34.7786 1.12551 27.8977C1.04977 27.7467 0.975568 27.5957 0.902915 27.4447C0.782342 27.1379 0.717419 26.801 0.711236 26.4481C0.688049 24.8697 2.01899 23.5727 3.55707 23.5727H12.784C13.6218 23.5727 14.3777 23.9606 14.8801 24.5725C15.0316 24.8443 15.1893 25.1145 15.3485 25.3816C17.624 29.2075 20.4404 32.6567 23.6897 35.6163C24.5569 36.4063 25.4535 37.1597 26.381 37.8765C33.6803 43.5256 42.7573 46.8746 52.5979 46.8746Z" fill="url(#paint1_linear_14070_300475)"/>
<path opacity="0.8" d="M90.3848 45.8969C87.6101 48.3686 84.6034 50.5716 81.4036 52.4695C80.6539 52.9145 79.8949 53.3421 79.1235 53.7522L79.1205 53.7554L78.6011 54.0256C78.2393 54.2147 77.8436 54.3323 77.4386 54.3339C77.4355 54.3339 77.4324 54.3339 77.4309 54.3339H77.4201C76.9223 54.3307 76.4369 54.1591 76.0149 53.8841L75.5141 53.5551H75.511C68.8779 49.3382 61.0638 46.8967 52.6963 46.8776C52.6623 46.8745 52.6314 46.8745 52.5974 46.8745C42.7568 46.8745 33.6798 43.5254 26.3789 37.8748C34.2455 33.7437 43.1587 31.4135 52.5974 31.4135C62.0361 31.4135 70.9493 33.7437 78.8159 37.8748C79.6909 38.3357 80.5534 38.8173 81.4021 39.3212C84.6034 41.219 87.6101 43.4237 90.3848 45.8969Z" fill="url(#paint2_linear_14070_300475)"/>
<path d="M104.489 26.4036C104.489 26.7724 104.421 27.1221 104.296 27.4447C104.296 27.4463 104.294 27.4463 104.294 27.4463C104.222 27.5957 104.149 27.7467 104.075 27.8945C104.077 27.8961 104.075 27.8961 104.075 27.8961C100.673 34.7786 96.0028 40.8854 90.3837 45.8955C87.609 43.4239 84.6024 41.2192 81.4041 39.3214C80.5554 38.8175 79.6929 38.3343 78.8164 37.8749C79.7052 37.1867 80.5694 36.4635 81.4041 35.7069C84.6982 32.7298 87.5518 29.2472 89.8504 25.38C90.0096 25.1129 90.1658 24.8459 90.3157 24.5757C90.3157 24.5741 90.3173 24.5725 90.3188 24.5709C90.8227 23.9606 91.5755 23.5727 92.4165 23.5727H101.736C103.257 23.5727 104.489 24.8395 104.489 26.4036Z" fill="url(#paint3_linear_14070_300475)"/>
<defs>
<linearGradient id="paint0_linear_14070_300475" x1="58.7678" y1="2.97922" x2="39.9825" y2="24.567" gradientUnits="userSpaceOnUse">
<stop stop-color="white"/>
</linearGradient>
<linearGradient id="paint1_linear_14070_300475" x1="40.6467" y1="27.2576" x2="20.7633" y2="66.8941" gradientUnits="userSpaceOnUse">
<stop stop-color="white"/>
</linearGradient>
<linearGradient id="paint2_linear_14070_300475" x1="75.6422" y1="34.1591" x2="65.3834" y2="68.0159" gradientUnits="userSpaceOnUse">
<stop stop-color="white"/>
</linearGradient>
<linearGradient id="paint3_linear_14070_300475" x1="98.576" y1="26.2468" x2="81.3909" y2="49.6044" gradientUnits="userSpaceOnUse">
<stop stop-color="white"/>
</linearGradient>
</defs>
</svg>
