<svg width="24" height="30" viewBox="0 0 24 30" fill="none" xmlns="http://www.w3.org/2000/svg">
<path d="M14.6673 2.02637V7.53376C14.6673 8.28049 14.6673 8.65386 14.8126 8.93907C14.9405 9.18996 15.1444 9.39393 15.3953 9.52176C15.6805 9.66709 16.0539 9.66709 16.8007 9.66709H22.308M14.6673 21.667H6.66732M17.334 16.3337H6.66732M22.6673 12.318V21.9337C22.6673 24.1739 22.6673 25.294 22.2313 26.1496C21.8478 26.9023 21.2359 27.5142 20.4833 27.8977C19.6276 28.3337 18.5075 28.3337 16.2673 28.3337H7.73398C5.49377 28.3337 4.37367 28.3337 3.51802 27.8977C2.76537 27.5142 2.15345 26.9023 1.76996 26.1496C1.33398 25.294 1.33398 24.1739 1.33398 21.9337V8.06699C1.33398 5.82678 1.33398 4.70668 1.76996 3.85103C2.15345 3.09838 2.76537 2.48646 3.51802 2.10297C4.37367 1.66699 5.49377 1.66699 7.73398 1.66699H12.0164C12.9947 1.66699 13.4839 1.66699 13.9442 1.77751C14.3524 1.8755 14.7426 2.03712 15.1005 2.25643C15.5041 2.5038 15.85 2.8497 16.5418 3.54151L20.7928 7.79247C21.4846 8.48428 21.8305 8.83019 22.0779 9.23385C22.2972 9.59174 22.4588 9.98192 22.5568 10.3901C22.6673 10.8504 22.6673 11.3396 22.6673 12.318Z" stroke="#99B6E7" stroke-width="2" stroke-linecap="round" stroke-linejoin="round"/>
</svg>
