<svg width="25" height="25" viewBox="0 0 25 25" fill="none" xmlns="http://www.w3.org/2000/svg">
<path d="M7.75 6L8.03234 5.58735C7.87926 5.48261 7.68079 5.47122 7.51673 5.55775C7.35267 5.64428 7.25 5.81452 7.25 6H7.75ZM7.75 19H7.25C7.25 19.1855 7.35267 19.3557 7.51673 19.4423C7.68079 19.5288 7.87926 19.5174 8.03234 19.4127L7.75 19ZM17.25 12.5L17.5323 12.9127C17.6686 12.8195 17.75 12.665 17.75 12.5C17.75 12.335 17.6686 12.1805 17.5323 12.0873L17.25 12.5ZM7.25 6V19H8.25V6H7.25ZM8.03234 19.4127L17.5323 12.9127L16.9677 12.0873L7.46766 18.5873L8.03234 19.4127ZM17.5323 12.0873L8.03234 5.58735L7.46766 6.41265L16.9677 12.9127L17.5323 12.0873Z" fill="white"/>
</svg>
