<svg width="120" height="120" viewBox="0 0 120 120" fill="none" xmlns="http://www.w3.org/2000/svg">
<path fill-rule="evenodd" clip-rule="evenodd" d="M41 48.2069H49.069V45.3103C49.069 43.1012 50.8598 41.3103 53.069 41.3103H66.931C69.1402 41.3103 70.931 43.1012 70.931 45.3103V48.2069H79C81.2091 48.2069 83 49.9977 83 52.2069V74.6896C83 76.8988 81.2091 78.6896 79 78.6896H41C38.7909 78.6896 37 76.8988 37 74.6896V52.2069C37 49.9977 38.7909 48.2069 41 48.2069ZM72.931 45.3103V46.2069H79C82.3137 46.2069 85 48.8932 85 52.2069V74.6896C85 78.0034 82.3137 80.6896 79 80.6896H41C37.6863 80.6896 35 78.0033 35 74.6896V52.2069C35 48.8932 37.6863 46.2069 41 46.2069H47.069V45.3103C47.069 41.9966 49.7553 39.3103 53.069 39.3103H66.931C70.2447 39.3103 72.931 41.9966 72.931 45.3103ZM69 62.6897C69 67.6602 64.9706 71.6897 60 71.6897C55.0294 71.6897 51 67.6602 51 62.6897C51 57.7191 55.0294 53.6897 60 53.6897C64.9706 53.6897 69 57.7191 69 62.6897ZM71 62.6897C71 68.7648 66.0751 73.6897 60 73.6897C53.9249 73.6897 49 68.7648 49 62.6897C49 56.6145 53.9249 51.6897 60 51.6897C66.0751 51.6897 71 56.6145 71 62.6897Z" fill="white"/>
</svg>
