<svg width="120" height="120" viewBox="0 0 120 120" fill="none" xmlns="http://www.w3.org/2000/svg">
<rect width="120" height="120" rx="60" fill="#DDAE4A"/>
<path fill-rule="evenodd" clip-rule="evenodd" d="M85.5 60C85.5 74.0833 74.0833 85.5 60 85.5C45.9167 85.5 34.5 74.0833 34.5 60C34.5 45.9167 45.9167 34.5 60 34.5C74.0833 34.5 85.5 45.9167 85.5 60ZM87.5 60C87.5 75.1878 75.1878 87.5 60 87.5C44.8122 87.5 32.5 75.1878 32.5 60C32.5 44.8122 44.8122 32.5 60 32.5C75.1878 32.5 87.5 44.8122 87.5 60ZM60 74.5C52.5758 74.5 46.5 68.2642 46.5 60.5H44.5C44.5 69.3043 51.4079 76.5 60 76.5C68.5921 76.5 75.5 69.3043 75.5 60.5H73.5C73.5 68.2642 67.4242 74.5 60 74.5ZM55.5 51.5C55.5 53.7091 53.7091 55.5 51.5 55.5C49.2909 55.5 47.5 53.7091 47.5 51.5C47.5 49.2909 49.2909 47.5 51.5 47.5C53.7091 47.5 55.5 49.2909 55.5 51.5ZM69.5 55.5C71.7091 55.5 73.5 53.7091 73.5 51.5C73.5 49.2909 71.7091 47.5 69.5 47.5C67.2909 47.5 65.5 49.2909 65.5 51.5C65.5 53.7091 67.2909 55.5 69.5 55.5Z" fill="white"/>
</svg>
