<svg width="160" height="155" viewBox="0 0 160 155" fill="none" xmlns="http://www.w3.org/2000/svg">
<rect x="0.126465" y="0.996582" width="159.873" height="154.004" rx="77.0019" fill="#4CA8D5"/>
<path fill-rule="evenodd" clip-rule="evenodd" d="M80.062 74.9985C71.7777 74.9985 65.062 68.2828 65.062 59.9985C65.062 51.7143 71.7777 44.9985 80.062 44.9985C88.3463 44.9985 95.062 51.7143 95.062 59.9985C95.062 68.2828 88.3463 74.9985 80.062 74.9985ZM62.062 59.9985C62.062 50.0574 70.1209 41.9985 80.062 41.9985C90.0031 41.9985 98.062 50.0574 98.062 59.9985C98.062 69.9396 90.0031 77.9985 80.062 77.9985C70.1209 77.9985 62.062 69.9396 62.062 59.9985ZM51.563 100.999C51.563 92.4381 58.5026 85.4985 67.063 85.4985H93.0629C101.623 85.4985 108.563 92.4381 108.563 100.999V113.999H111.563V100.999C111.563 90.7813 103.28 82.4985 93.0629 82.4985H67.063C56.8457 82.4985 48.563 90.7813 48.563 100.999V113.999H51.563V100.999Z" fill="white"/>
</svg>
