<svg width="16" height="18" viewBox="0 0 16 18" fill="none" xmlns="http://www.w3.org/2000/svg">
<path d="M13.4444 8.2002H2.55556C1.69645 8.2002 1 8.91654 1 9.8002V15.4002C1 16.2839 1.69645 17.0002 2.55556 17.0002H13.4444C14.3036 17.0002 15 16.2839 15 15.4002V9.8002C15 8.91654 14.3036 8.2002 13.4444 8.2002Z" stroke="white" stroke-linecap="round" stroke-linejoin="round"/>
<path d="M4.11133 8.2V5C4.11133 3.93913 4.52105 2.92172 5.25036 2.17157C5.97967 1.42143 6.96882 1 8.00022 1C9.03161 1 10.0208 1.42143 10.7501 2.17157C11.4794 2.92172 11.8891 3.93913 11.8891 5V8.2" stroke="white" stroke-linecap="round" stroke-linejoin="round"/>
</svg>
